<svg width="820" height="998" viewBox="0 0 820 998" fill="none" xmlns="http://www.w3.org/2000/svg"><g clip-path="url(#clip0)"><rect width="820" height="998" fill="white"/><path d="M615 136C655.56 136 694.996 149.33 727.239 173.937C759.482 198.545 782.744 233.067 793.445 272.19C804.146 311.313 801.694 352.869 786.464 390.462C771.235 428.054 744.074 459.6 709.16 480.245C674.247 500.889 633.516 509.487 593.238 504.716C552.959 499.944 515.365 482.068 486.241 453.838C457.117 425.609 438.077 388.59 432.052 348.48C426.028 308.369 433.352 267.391 452.897 231.85L615 321V136Z" fill="#002D62"/><path d="M496.967 178.545C530.236 150.98 572.104 135.928 615.309 136L615 321L496.967 178.545Z" fill="#D11242"/><path d="M453.117 231.452C464.497 210.88 479.693 192.666 497.892 177.784L615 321L453.117 231.452Z" fill="#F5F5F5"/><circle cx="615" cy="321" r="30.0542" fill="white"/><path d="M568.191 412.362C568.191 412.881 568.105 413.35 567.935 413.767C567.771 414.177 567.542 414.539 567.248 414.854C566.96 415.161 566.619 415.421 566.222 415.633C565.833 415.838 565.409 415.995 564.951 416.104V416.166C566.161 416.316 567.077 416.686 567.699 417.273C568.321 417.854 568.632 418.641 568.632 419.632C568.632 420.288 568.512 420.896 568.273 421.457C568.041 422.011 567.678 422.493 567.186 422.903C566.701 423.313 566.085 423.634 565.34 423.867C564.602 424.092 563.73 424.205 562.726 424.205C561.919 424.205 561.16 424.137 560.449 424C559.738 423.87 559.075 423.668 558.46 423.395V420.698C558.768 420.862 559.092 421.006 559.434 421.129C559.776 421.252 560.118 421.358 560.459 421.447C560.801 421.529 561.136 421.59 561.464 421.631C561.799 421.672 562.114 421.693 562.408 421.693C562.996 421.693 563.484 421.638 563.874 421.529C564.264 421.419 564.575 421.266 564.807 421.067C565.04 420.869 565.204 420.633 565.299 420.36C565.402 420.08 565.453 419.775 565.453 419.447C565.453 419.14 565.388 418.863 565.258 418.617C565.135 418.364 564.93 418.152 564.643 417.981C564.363 417.803 563.994 417.667 563.536 417.571C563.078 417.475 562.514 417.427 561.844 417.427H560.777V415.202H561.823C562.452 415.202 562.975 415.147 563.392 415.038C563.809 414.922 564.141 414.768 564.387 414.577C564.64 414.378 564.817 414.149 564.92 413.89C565.022 413.63 565.074 413.353 565.074 413.059C565.074 412.526 564.906 412.109 564.571 411.808C564.243 411.507 563.72 411.357 563.002 411.357C562.674 411.357 562.367 411.391 562.08 411.459C561.799 411.521 561.536 411.603 561.29 411.706C561.051 411.801 560.829 411.911 560.624 412.034C560.425 412.15 560.244 412.266 560.08 412.382L558.48 410.27C558.768 410.058 559.079 409.863 559.414 409.686C559.755 409.508 560.125 409.354 560.521 409.224C560.917 409.087 561.345 408.981 561.803 408.906C562.261 408.831 562.75 408.793 563.269 408.793C564.007 408.793 564.677 408.875 565.279 409.04C565.887 409.197 566.407 409.429 566.837 409.737C567.268 410.038 567.6 410.41 567.832 410.854C568.071 411.292 568.191 411.794 568.191 412.362ZM580.362 416.504C580.362 417.714 580.267 418.794 580.075 419.745C579.891 420.695 579.59 421.501 579.173 422.165C578.763 422.828 578.229 423.333 577.573 423.682C576.924 424.031 576.138 424.205 575.215 424.205C574.347 424.205 573.591 424.031 572.949 423.682C572.306 423.333 571.773 422.828 571.349 422.165C570.925 421.501 570.607 420.695 570.396 419.745C570.19 418.794 570.088 417.714 570.088 416.504C570.088 415.294 570.18 414.211 570.365 413.254C570.556 412.297 570.857 411.487 571.267 410.824C571.677 410.161 572.207 409.655 572.856 409.306C573.506 408.951 574.292 408.773 575.215 408.773C576.076 408.773 576.828 408.947 577.471 409.296C578.113 409.645 578.65 410.15 579.081 410.813C579.511 411.477 579.833 412.287 580.044 413.244C580.256 414.201 580.362 415.288 580.362 416.504ZM573.246 416.504C573.246 418.213 573.393 419.499 573.687 420.36C573.981 421.221 574.49 421.652 575.215 421.652C575.926 421.652 576.435 421.225 576.743 420.37C577.057 419.516 577.214 418.227 577.214 416.504C577.214 414.789 577.057 413.5 576.743 412.639C576.435 411.771 575.926 411.336 575.215 411.336C574.853 411.336 574.545 411.446 574.292 411.665C574.046 411.883 573.844 412.208 573.687 412.639C573.53 413.069 573.417 413.609 573.349 414.259C573.28 414.901 573.246 415.65 573.246 416.504ZM591.929 416.504C591.929 417.714 591.833 418.794 591.642 419.745C591.457 420.695 591.156 421.501 590.739 422.165C590.329 422.828 589.796 423.333 589.14 423.682C588.49 424.031 587.704 424.205 586.781 424.205C585.913 424.205 585.158 424.031 584.515 423.682C583.873 423.333 583.339 422.828 582.916 422.165C582.492 421.501 582.174 420.695 581.962 419.745C581.757 418.794 581.654 417.714 581.654 416.504C581.654 415.294 581.747 414.211 581.931 413.254C582.123 412.297 582.423 411.487 582.833 410.824C583.244 410.161 583.773 409.655 584.423 409.306C585.072 408.951 585.858 408.773 586.781 408.773C587.643 408.773 588.395 408.947 589.037 409.296C589.68 409.645 590.216 410.15 590.647 410.813C591.078 411.477 591.399 412.287 591.611 413.244C591.823 414.201 591.929 415.288 591.929 416.504ZM584.812 416.504C584.812 418.213 584.959 419.499 585.253 420.36C585.547 421.221 586.057 421.652 586.781 421.652C587.492 421.652 588.001 421.225 588.309 420.37C588.624 419.516 588.781 418.227 588.781 416.504C588.781 414.789 588.624 413.5 588.309 412.639C588.001 411.771 587.492 411.336 586.781 411.336C586.419 411.336 586.111 411.446 585.858 411.665C585.612 411.883 585.411 412.208 585.253 412.639C585.096 413.069 584.983 413.609 584.915 414.259C584.847 414.901 584.812 415.65 584.812 416.504ZM612.201 424H609.032V417.53H603.095V424H599.917V409.009H603.095V414.884H609.032V409.009H612.201V424ZM629.602 416.484C629.602 418.965 628.986 420.873 627.756 422.206C626.525 423.539 624.762 424.205 622.465 424.205C620.168 424.205 618.404 423.539 617.174 422.206C615.943 420.873 615.328 418.958 615.328 416.463C615.328 413.968 615.943 412.064 617.174 410.752C618.411 409.433 620.182 408.773 622.485 408.773C624.789 408.773 626.549 409.436 627.766 410.762C628.99 412.088 629.602 413.996 629.602 416.484ZM618.661 416.484C618.661 418.159 618.979 419.42 619.614 420.268C620.25 421.115 621.2 421.539 622.465 421.539C625.001 421.539 626.269 419.854 626.269 416.484C626.269 413.107 625.008 411.418 622.485 411.418C621.221 411.418 620.267 411.846 619.625 412.7C618.982 413.548 618.661 414.809 618.661 416.484ZM644.911 409.009V418.709C644.911 419.816 644.661 420.787 644.162 421.621C643.67 422.455 642.956 423.094 642.019 423.539C641.083 423.983 639.975 424.205 638.697 424.205C636.769 424.205 635.272 423.713 634.206 422.729C633.139 421.737 632.606 420.384 632.606 418.668V409.009H635.774V418.186C635.774 419.341 636.007 420.189 636.472 420.729C636.937 421.269 637.706 421.539 638.779 421.539C639.818 421.539 640.57 421.269 641.035 420.729C641.506 420.182 641.742 419.328 641.742 418.166V409.009H644.911ZM651.76 415.664H652.786C653.791 415.664 654.532 415.496 655.011 415.161C655.489 414.826 655.729 414.3 655.729 413.582C655.729 412.871 655.482 412.365 654.99 412.064C654.505 411.764 653.75 411.613 652.724 411.613H651.76V415.664ZM651.76 418.248V424H648.582V409.009H652.95C654.987 409.009 656.494 409.381 657.472 410.126C658.449 410.865 658.938 411.989 658.938 413.5C658.938 414.382 658.695 415.168 658.21 415.858C657.725 416.542 657.038 417.079 656.149 417.468L660.558 424H657.031L653.452 418.248H651.76ZM671.294 419.837C671.294 421.19 670.805 422.257 669.828 423.036C668.857 423.815 667.503 424.205 665.767 424.205C664.167 424.205 662.752 423.904 661.522 423.303V420.35C662.534 420.801 663.388 421.119 664.085 421.303C664.79 421.488 665.432 421.58 666.013 421.58C666.71 421.58 667.244 421.447 667.613 421.18C667.989 420.914 668.177 420.517 668.177 419.991C668.177 419.697 668.095 419.437 667.931 419.211C667.767 418.979 667.524 418.757 667.203 418.545C666.888 418.333 666.242 417.995 665.265 417.53C664.349 417.099 663.662 416.686 663.204 416.289C662.746 415.893 662.38 415.431 662.106 414.905C661.833 414.378 661.696 413.763 661.696 413.059C661.696 411.733 662.144 410.69 663.04 409.932C663.942 409.173 665.186 408.793 666.772 408.793C667.551 408.793 668.293 408.886 668.997 409.07C669.708 409.255 670.45 409.515 671.222 409.85L670.197 412.321C669.397 411.993 668.734 411.764 668.208 411.634C667.688 411.504 667.175 411.439 666.669 411.439C666.068 411.439 665.606 411.579 665.285 411.859C664.964 412.14 664.803 412.505 664.803 412.957C664.803 413.237 664.868 413.483 664.998 413.695C665.128 413.9 665.333 414.102 665.613 414.3C665.9 414.491 666.574 414.84 667.633 415.346C669.035 416.016 669.995 416.689 670.515 417.366C671.034 418.036 671.294 418.859 671.294 419.837Z" fill="white"/><path d="M572.059 203.893H570.254V207H567.168V203.893H560.975V201.688L567.342 192.009H570.254V201.432H572.059V203.893ZM567.168 201.432V198.889C567.168 198.8 567.168 198.674 567.168 198.51C567.175 198.339 567.182 198.147 567.188 197.936C567.195 197.724 567.202 197.505 567.209 197.279C567.223 197.054 567.233 196.838 567.24 196.633C567.253 196.428 567.264 196.25 567.271 196.1C567.284 195.943 567.294 195.83 567.301 195.762H567.209C567.086 196.049 566.946 196.353 566.789 196.674C566.638 196.996 566.464 197.317 566.266 197.638L563.764 201.432H567.168ZM583.42 199.504C583.42 200.714 583.325 201.794 583.133 202.745C582.949 203.695 582.648 204.501 582.231 205.165C581.821 205.828 581.288 206.333 580.631 206.682C579.982 207.031 579.196 207.205 578.273 207.205C577.405 207.205 576.649 207.031 576.007 206.682C575.364 206.333 574.831 205.828 574.407 205.165C573.983 204.501 573.666 203.695 573.454 202.745C573.249 201.794 573.146 200.714 573.146 199.504C573.146 198.294 573.238 197.211 573.423 196.254C573.614 195.297 573.915 194.487 574.325 193.824C574.735 193.161 575.265 192.655 575.915 192.306C576.564 191.951 577.35 191.773 578.273 191.773C579.134 191.773 579.886 191.947 580.529 192.296C581.171 192.645 581.708 193.15 582.139 193.813C582.569 194.477 582.891 195.287 583.103 196.244C583.314 197.201 583.42 198.288 583.42 199.504ZM576.304 199.504C576.304 201.213 576.451 202.499 576.745 203.36C577.039 204.221 577.548 204.652 578.273 204.652C578.984 204.652 579.493 204.225 579.801 203.37C580.115 202.516 580.272 201.227 580.272 199.504C580.272 197.789 580.115 196.5 579.801 195.639C579.493 194.771 578.984 194.336 578.273 194.336C577.911 194.336 577.603 194.446 577.35 194.665C577.104 194.883 576.902 195.208 576.745 195.639C576.588 196.069 576.475 196.609 576.407 197.259C576.338 197.901 576.304 198.65 576.304 199.504Z" fill="white"/><path d="M512.833 246H502.774V243.795L506.302 239.991C506.746 239.513 507.149 239.072 507.512 238.668C507.874 238.265 508.185 237.872 508.445 237.489C508.705 237.106 508.906 236.717 509.05 236.32C509.193 235.924 509.265 235.497 509.265 235.039C509.265 234.533 509.111 234.14 508.804 233.859C508.503 233.579 508.096 233.439 507.583 233.439C507.043 233.439 506.524 233.572 506.025 233.839C505.526 234.105 505.003 234.485 504.456 234.977L502.733 232.937C503.041 232.656 503.362 232.39 503.697 232.137C504.032 231.877 504.401 231.648 504.805 231.45C505.208 231.251 505.652 231.094 506.138 230.978C506.623 230.855 507.167 230.793 507.768 230.793C508.486 230.793 509.128 230.893 509.696 231.091C510.27 231.289 510.759 231.573 511.162 231.942C511.565 232.304 511.873 232.745 512.085 233.265C512.304 233.784 512.413 234.369 512.413 235.018C512.413 235.606 512.311 236.17 512.105 236.71C511.9 237.243 511.62 237.77 511.265 238.289C510.909 238.802 510.496 239.314 510.024 239.827C509.559 240.333 509.06 240.849 508.527 241.375L506.722 243.19V243.334H512.833V246ZM524.42 238.504C524.42 239.714 524.325 240.794 524.133 241.745C523.949 242.695 523.648 243.501 523.231 244.165C522.821 244.828 522.288 245.333 521.631 245.682C520.982 246.031 520.196 246.205 519.273 246.205C518.405 246.205 517.649 246.031 517.007 245.682C516.364 245.333 515.831 244.828 515.407 244.165C514.983 243.501 514.666 242.695 514.454 241.745C514.249 240.794 514.146 239.714 514.146 238.504C514.146 237.294 514.238 236.211 514.423 235.254C514.614 234.297 514.915 233.487 515.325 232.824C515.735 232.161 516.265 231.655 516.915 231.306C517.564 230.951 518.35 230.773 519.273 230.773C520.134 230.773 520.886 230.947 521.529 231.296C522.171 231.645 522.708 232.15 523.139 232.813C523.569 233.477 523.891 234.287 524.103 235.244C524.314 236.201 524.42 237.288 524.42 238.504ZM517.304 238.504C517.304 240.213 517.451 241.499 517.745 242.36C518.039 243.221 518.548 243.652 519.273 243.652C519.984 243.652 520.493 243.225 520.801 242.37C521.115 241.516 521.272 240.227 521.272 238.504C521.272 236.789 521.115 235.5 520.801 234.639C520.493 233.771 519.984 233.336 519.273 233.336C518.911 233.336 518.603 233.446 518.35 233.665C518.104 233.883 517.902 234.208 517.745 234.639C517.588 235.069 517.475 235.609 517.407 236.259C517.338 236.901 517.304 237.65 517.304 238.504Z" fill="black"/><path d="M615 541C654.565 541 693.087 553.684 724.912 577.191C756.737 600.697 780.188 633.787 791.822 671.603C803.455 709.418 802.659 749.968 789.55 787.298C776.44 824.627 751.709 856.771 718.985 879.01C686.262 901.249 647.271 912.411 607.737 910.857C568.203 909.304 530.208 895.117 499.33 870.38C468.453 845.642 446.319 811.657 436.179 773.414C426.039 735.17 428.427 694.683 442.991 657.897L615 726V541Z" fill="#002D62"/><path d="M453.762 635.295C470.006 606.419 493.707 582.436 522.388 565.85C551.069 549.264 583.678 540.685 616.808 541.009L615 726L453.762 635.295Z" fill="#D11242"/><path d="M443.411 656.847C448.63 643.896 455.299 631.577 463.29 620.127L615 726L443.411 656.847Z" fill="#F5F5F5"/><circle cx="615" cy="726" r="30.0542" fill="white"/><path d="M568.775 829H558.716V826.795L562.244 822.991C562.688 822.513 563.091 822.072 563.454 821.668C563.816 821.265 564.127 820.872 564.387 820.489C564.646 820.106 564.848 819.717 564.992 819.32C565.135 818.924 565.207 818.497 565.207 818.039C565.207 817.533 565.053 817.14 564.746 816.859C564.445 816.579 564.038 816.439 563.525 816.439C562.985 816.439 562.466 816.572 561.967 816.839C561.468 817.105 560.945 817.485 560.398 817.977L558.675 815.937C558.983 815.656 559.304 815.39 559.639 815.137C559.974 814.877 560.343 814.648 560.747 814.45C561.15 814.251 561.594 814.094 562.08 813.978C562.565 813.855 563.108 813.793 563.71 813.793C564.428 813.793 565.07 813.893 565.638 814.091C566.212 814.289 566.701 814.573 567.104 814.942C567.507 815.304 567.815 815.745 568.027 816.265C568.246 816.784 568.355 817.369 568.355 818.018C568.355 818.606 568.252 819.17 568.047 819.71C567.842 820.243 567.562 820.77 567.207 821.289C566.851 821.802 566.438 822.314 565.966 822.827C565.501 823.333 565.002 823.849 564.469 824.375L562.664 826.19V826.334H568.775V829ZM580.26 820.407C580.26 821.125 580.219 821.843 580.137 822.561C580.062 823.271 579.921 823.952 579.716 824.601C579.518 825.25 579.245 825.859 578.896 826.426C578.554 826.987 578.117 827.472 577.583 827.882C577.057 828.292 576.421 828.617 575.676 828.856C574.938 829.089 574.07 829.205 573.072 829.205C572.928 829.205 572.771 829.202 572.6 829.195C572.429 829.188 572.255 829.178 572.077 829.164C571.906 829.157 571.739 829.144 571.575 829.123C571.411 829.109 571.267 829.089 571.144 829.062V826.519C571.397 826.587 571.667 826.642 571.954 826.683C572.248 826.717 572.545 826.734 572.846 826.734C573.769 826.734 574.528 826.621 575.123 826.396C575.717 826.163 576.189 825.842 576.538 825.432C576.886 825.015 577.132 824.519 577.276 823.945C577.426 823.371 577.519 822.738 577.553 822.048H577.419C577.283 822.294 577.119 822.523 576.927 822.735C576.736 822.947 576.51 823.131 576.25 823.289C575.991 823.446 575.697 823.569 575.369 823.658C575.041 823.747 574.675 823.791 574.271 823.791C573.622 823.791 573.038 823.685 572.518 823.473C571.999 823.261 571.558 822.954 571.195 822.55C570.84 822.147 570.566 821.651 570.375 821.063C570.184 820.476 570.088 819.802 570.088 819.043C570.088 818.23 570.201 817.502 570.426 816.859C570.659 816.217 570.987 815.673 571.411 815.229C571.834 814.778 572.347 814.433 572.949 814.193C573.557 813.954 574.237 813.834 574.989 813.834C575.728 813.834 576.418 813.968 577.061 814.234C577.703 814.494 578.26 814.894 578.732 815.434C579.204 815.974 579.576 816.658 579.85 817.485C580.123 818.312 580.26 819.286 580.26 820.407ZM575.051 816.377C574.771 816.377 574.514 816.429 574.282 816.531C574.049 816.634 573.848 816.794 573.677 817.013C573.513 817.225 573.383 817.499 573.287 817.833C573.198 818.162 573.154 818.551 573.154 819.002C573.154 819.727 573.308 820.301 573.615 820.725C573.923 821.149 574.388 821.361 575.01 821.361C575.324 821.361 575.611 821.299 575.871 821.176C576.131 821.053 576.353 820.893 576.538 820.694C576.722 820.496 576.862 820.274 576.958 820.028C577.061 819.782 577.112 819.532 577.112 819.279C577.112 818.931 577.067 818.585 576.979 818.244C576.896 817.895 576.767 817.584 576.589 817.311C576.418 817.03 576.203 816.805 575.943 816.634C575.69 816.463 575.393 816.377 575.051 816.377ZM591.929 821.504C591.929 822.714 591.833 823.794 591.642 824.745C591.457 825.695 591.156 826.501 590.739 827.165C590.329 827.828 589.796 828.333 589.14 828.682C588.49 829.031 587.704 829.205 586.781 829.205C585.913 829.205 585.158 829.031 584.515 828.682C583.873 828.333 583.339 827.828 582.916 827.165C582.492 826.501 582.174 825.695 581.962 824.745C581.757 823.794 581.654 822.714 581.654 821.504C581.654 820.294 581.747 819.211 581.931 818.254C582.123 817.297 582.423 816.487 582.833 815.824C583.244 815.161 583.773 814.655 584.423 814.306C585.072 813.951 585.858 813.773 586.781 813.773C587.643 813.773 588.395 813.947 589.037 814.296C589.68 814.645 590.216 815.15 590.647 815.813C591.078 816.477 591.399 817.287 591.611 818.244C591.823 819.201 591.929 820.288 591.929 821.504ZM584.812 821.504C584.812 823.213 584.959 824.499 585.253 825.36C585.547 826.221 586.057 826.652 586.781 826.652C587.492 826.652 588.001 826.225 588.309 825.37C588.624 824.516 588.781 823.227 588.781 821.504C588.781 819.789 588.624 818.5 588.309 817.639C588.001 816.771 587.492 816.336 586.781 816.336C586.419 816.336 586.111 816.446 585.858 816.665C585.612 816.883 585.411 817.208 585.253 817.639C585.096 818.069 584.983 818.609 584.915 819.259C584.847 819.901 584.812 820.65 584.812 821.504ZM612.201 829H609.032V822.53H603.095V829H599.917V814.009H603.095V819.884H609.032V814.009H612.201V829ZM629.602 821.484C629.602 823.965 628.986 825.873 627.756 827.206C626.525 828.539 624.762 829.205 622.465 829.205C620.168 829.205 618.404 828.539 617.174 827.206C615.943 825.873 615.328 823.958 615.328 821.463C615.328 818.968 615.943 817.064 617.174 815.752C618.411 814.433 620.182 813.773 622.485 813.773C624.789 813.773 626.549 814.436 627.766 815.762C628.99 817.088 629.602 818.996 629.602 821.484ZM618.661 821.484C618.661 823.159 618.979 824.42 619.614 825.268C620.25 826.115 621.2 826.539 622.465 826.539C625.001 826.539 626.269 824.854 626.269 821.484C626.269 818.107 625.008 816.418 622.485 816.418C621.221 816.418 620.267 816.846 619.625 817.7C618.982 818.548 618.661 819.809 618.661 821.484ZM644.911 814.009V823.709C644.911 824.816 644.661 825.787 644.162 826.621C643.67 827.455 642.956 828.094 642.019 828.539C641.083 828.983 639.975 829.205 638.697 829.205C636.769 829.205 635.272 828.713 634.206 827.729C633.139 826.737 632.606 825.384 632.606 823.668V814.009H635.774V823.186C635.774 824.341 636.007 825.189 636.472 825.729C636.937 826.269 637.706 826.539 638.779 826.539C639.818 826.539 640.57 826.269 641.035 825.729C641.506 825.182 641.742 824.328 641.742 823.166V814.009H644.911ZM651.76 820.664H652.786C653.791 820.664 654.532 820.496 655.011 820.161C655.489 819.826 655.729 819.3 655.729 818.582C655.729 817.871 655.482 817.365 654.99 817.064C654.505 816.764 653.75 816.613 652.724 816.613H651.76V820.664ZM651.76 823.248V829H648.582V814.009H652.95C654.987 814.009 656.494 814.381 657.472 815.126C658.449 815.865 658.938 816.989 658.938 818.5C658.938 819.382 658.695 820.168 658.21 820.858C657.725 821.542 657.038 822.079 656.149 822.468L660.558 829H657.031L653.452 823.248H651.76ZM671.294 824.837C671.294 826.19 670.805 827.257 669.828 828.036C668.857 828.815 667.503 829.205 665.767 829.205C664.167 829.205 662.752 828.904 661.522 828.303V825.35C662.534 825.801 663.388 826.119 664.085 826.303C664.79 826.488 665.432 826.58 666.013 826.58C666.71 826.58 667.244 826.447 667.613 826.18C667.989 825.914 668.177 825.517 668.177 824.991C668.177 824.697 668.095 824.437 667.931 824.211C667.767 823.979 667.524 823.757 667.203 823.545C666.888 823.333 666.242 822.995 665.265 822.53C664.349 822.099 663.662 821.686 663.204 821.289C662.746 820.893 662.38 820.431 662.106 819.905C661.833 819.378 661.696 818.763 661.696 818.059C661.696 816.733 662.144 815.69 663.04 814.932C663.942 814.173 665.186 813.793 666.772 813.793C667.551 813.793 668.293 813.886 668.997 814.07C669.708 814.255 670.45 814.515 671.222 814.85L670.197 817.321C669.397 816.993 668.734 816.764 668.208 816.634C667.688 816.504 667.175 816.439 666.669 816.439C666.068 816.439 665.606 816.579 665.285 816.859C664.964 817.14 664.803 817.505 664.803 817.957C664.803 818.237 664.868 818.483 664.998 818.695C665.128 818.9 665.333 819.102 665.613 819.3C665.9 819.491 666.574 819.84 667.633 820.346C669.035 821.016 669.995 821.689 670.515 822.366C671.034 823.036 671.294 823.859 671.294 824.837Z" fill="white"/><path d="M544.713 609.632C544.713 608.915 544.75 608.2 544.826 607.489C544.908 606.778 545.048 606.098 545.246 605.449C545.451 604.792 545.725 604.184 546.066 603.624C546.415 603.063 546.853 602.578 547.379 602.167C547.912 601.75 548.548 601.426 549.286 601.193C550.031 600.954 550.899 600.834 551.891 600.834C552.034 600.834 552.191 600.838 552.362 600.845C552.533 600.852 552.704 600.862 552.875 600.875C553.053 600.882 553.224 600.896 553.388 600.917C553.552 600.937 553.699 600.961 553.829 600.988V603.521C553.569 603.459 553.292 603.412 552.998 603.377C552.711 603.336 552.42 603.316 552.126 603.316C551.204 603.316 550.445 603.432 549.85 603.665C549.255 603.89 548.784 604.208 548.435 604.618C548.086 605.028 547.837 605.521 547.687 606.095C547.543 606.669 547.454 607.305 547.42 608.002H547.543C547.68 607.756 547.844 607.527 548.035 607.315C548.233 607.096 548.462 606.912 548.722 606.761C548.982 606.604 549.272 606.481 549.594 606.392C549.922 606.303 550.288 606.259 550.691 606.259C551.34 606.259 551.925 606.365 552.444 606.577C552.964 606.789 553.401 607.096 553.757 607.5C554.119 607.903 554.396 608.398 554.587 608.986C554.779 609.574 554.875 610.248 554.875 611.006C554.875 611.82 554.758 612.548 554.526 613.19C554.3 613.833 553.976 614.38 553.552 614.831C553.128 615.275 552.615 615.617 552.014 615.856C551.412 616.089 550.735 616.205 549.983 616.205C549.245 616.205 548.555 616.075 547.912 615.815C547.27 615.549 546.709 615.146 546.23 614.605C545.759 614.065 545.386 613.385 545.113 612.565C544.846 611.738 544.713 610.76 544.713 609.632ZM549.922 613.672C550.202 613.672 550.455 613.621 550.681 613.519C550.913 613.409 551.111 613.249 551.275 613.037C551.446 612.818 551.576 612.544 551.665 612.216C551.761 611.888 551.809 611.499 551.809 611.047C551.809 610.316 551.655 609.742 551.347 609.325C551.046 608.901 550.585 608.689 549.963 608.689C549.648 608.689 549.361 608.75 549.102 608.874C548.842 608.997 548.62 609.157 548.435 609.355C548.25 609.554 548.107 609.776 548.004 610.022C547.909 610.268 547.861 610.518 547.861 610.771C547.861 611.119 547.902 611.468 547.984 611.816C548.073 612.158 548.203 612.469 548.374 612.75C548.551 613.023 548.767 613.245 549.02 613.416C549.279 613.587 549.58 613.672 549.922 613.672ZM566.42 608.504C566.42 609.714 566.325 610.794 566.133 611.745C565.949 612.695 565.648 613.501 565.231 614.165C564.821 614.828 564.288 615.333 563.631 615.682C562.982 616.031 562.196 616.205 561.273 616.205C560.405 616.205 559.649 616.031 559.007 615.682C558.364 615.333 557.831 614.828 557.407 614.165C556.983 613.501 556.666 612.695 556.454 611.745C556.249 610.794 556.146 609.714 556.146 608.504C556.146 607.294 556.238 606.211 556.423 605.254C556.614 604.297 556.915 603.487 557.325 602.824C557.735 602.161 558.265 601.655 558.915 601.306C559.564 600.951 560.35 600.773 561.273 600.773C562.134 600.773 562.886 600.947 563.529 601.296C564.171 601.645 564.708 602.15 565.139 602.813C565.569 603.477 565.891 604.287 566.103 605.244C566.314 606.201 566.42 607.288 566.42 608.504ZM559.304 608.504C559.304 610.213 559.451 611.499 559.745 612.36C560.039 613.221 560.548 613.652 561.273 613.652C561.984 613.652 562.493 613.225 562.801 612.37C563.115 611.516 563.272 610.227 563.272 608.504C563.272 606.789 563.115 605.5 562.801 604.639C562.493 603.771 561.984 603.336 561.273 603.336C560.911 603.336 560.603 603.446 560.35 603.665C560.104 603.883 559.902 604.208 559.745 604.639C559.588 605.069 559.475 605.609 559.407 606.259C559.338 606.901 559.304 607.65 559.304 608.504Z" fill="white"/><path d="M492.311 669H489.143V660.325C489.143 660.147 489.143 659.936 489.143 659.689C489.149 659.437 489.156 659.177 489.163 658.91C489.177 658.637 489.187 658.363 489.194 658.09C489.208 657.816 489.218 657.567 489.225 657.341C489.19 657.382 489.132 657.444 489.05 657.526C488.968 657.608 488.876 657.7 488.773 657.803C488.671 657.898 488.565 657.998 488.456 658.1C488.346 658.203 488.24 658.295 488.138 658.377L486.415 659.761L484.877 657.854L489.707 654.009H492.311V669ZM506.42 661.504C506.42 662.714 506.325 663.794 506.133 664.745C505.949 665.695 505.648 666.501 505.231 667.165C504.821 667.828 504.288 668.333 503.631 668.682C502.982 669.031 502.196 669.205 501.273 669.205C500.405 669.205 499.649 669.031 499.007 668.682C498.364 668.333 497.831 667.828 497.407 667.165C496.983 666.501 496.666 665.695 496.454 664.745C496.249 663.794 496.146 662.714 496.146 661.504C496.146 660.294 496.238 659.211 496.423 658.254C496.614 657.297 496.915 656.487 497.325 655.824C497.735 655.161 498.265 654.655 498.915 654.306C499.564 653.951 500.35 653.773 501.273 653.773C502.134 653.773 502.886 653.947 503.529 654.296C504.171 654.645 504.708 655.15 505.139 655.813C505.569 656.477 505.891 657.287 506.103 658.244C506.314 659.201 506.42 660.288 506.42 661.504ZM499.304 661.504C499.304 663.213 499.451 664.499 499.745 665.36C500.039 666.221 500.548 666.652 501.273 666.652C501.984 666.652 502.493 666.225 502.801 665.37C503.115 664.516 503.272 663.227 503.272 661.504C503.272 659.789 503.115 658.5 502.801 657.639C502.493 656.771 501.984 656.336 501.273 656.336C500.911 656.336 500.603 656.446 500.35 656.665C500.104 656.883 499.902 657.208 499.745 657.639C499.588 658.069 499.475 658.609 499.407 659.259C499.338 659.901 499.304 660.65 499.304 661.504Z" fill="black"/><path d="M205 541C247.053 541 287.851 555.327 320.67 581.62C353.489 607.914 376.371 644.604 385.545 685.644C394.718 726.683 389.636 769.624 371.135 807.389C352.634 845.153 321.82 875.488 283.769 893.393C245.719 911.298 202.703 915.705 161.813 905.888C120.922 896.071 84.5957 872.616 58.8213 839.388C33.0469 806.16 19.3623 765.142 20.0228 723.094C20.6834 681.047 35.6496 640.479 62.4551 608.077L205 726V541Z" fill="#002D62"/><path d="M136.777 554.039C158.45 545.44 181.554 541.016 204.871 541L205 726L136.777 554.039Z" fill="#D11242"/><path d="M43.1171 636.452C63.9553 598.781 97.2789 569.557 137.347 553.814L205 726L43.1171 636.452Z" fill="#F5F5F5"/><circle cx="205" cy="726" r="30.0542" fill="white"/><path d="M158.191 817.362C158.191 817.881 158.105 818.35 157.935 818.767C157.771 819.177 157.542 819.539 157.248 819.854C156.96 820.161 156.619 820.421 156.222 820.633C155.833 820.838 155.409 820.995 154.951 821.104V821.166C156.161 821.316 157.077 821.686 157.699 822.273C158.321 822.854 158.632 823.641 158.632 824.632C158.632 825.288 158.512 825.896 158.273 826.457C158.041 827.011 157.678 827.493 157.186 827.903C156.701 828.313 156.085 828.634 155.34 828.867C154.602 829.092 153.73 829.205 152.726 829.205C151.919 829.205 151.16 829.137 150.449 829C149.738 828.87 149.075 828.668 148.46 828.395V825.698C148.768 825.862 149.092 826.006 149.434 826.129C149.776 826.252 150.118 826.358 150.459 826.447C150.801 826.529 151.136 826.59 151.464 826.631C151.799 826.672 152.114 826.693 152.408 826.693C152.996 826.693 153.484 826.638 153.874 826.529C154.264 826.419 154.575 826.266 154.807 826.067C155.04 825.869 155.204 825.633 155.299 825.36C155.402 825.08 155.453 824.775 155.453 824.447C155.453 824.14 155.388 823.863 155.258 823.617C155.135 823.364 154.93 823.152 154.643 822.981C154.363 822.803 153.994 822.667 153.536 822.571C153.078 822.475 152.514 822.427 151.844 822.427H150.777V820.202H151.823C152.452 820.202 152.975 820.147 153.392 820.038C153.809 819.922 154.141 819.768 154.387 819.577C154.64 819.378 154.817 819.149 154.92 818.89C155.022 818.63 155.074 818.353 155.074 818.059C155.074 817.526 154.906 817.109 154.571 816.808C154.243 816.507 153.72 816.357 153.002 816.357C152.674 816.357 152.367 816.391 152.08 816.459C151.799 816.521 151.536 816.603 151.29 816.706C151.051 816.801 150.829 816.911 150.624 817.034C150.425 817.15 150.244 817.266 150.08 817.382L148.48 815.27C148.768 815.058 149.079 814.863 149.414 814.686C149.755 814.508 150.125 814.354 150.521 814.224C150.917 814.087 151.345 813.981 151.803 813.906C152.261 813.831 152.75 813.793 153.269 813.793C154.007 813.793 154.677 813.875 155.279 814.04C155.887 814.197 156.407 814.429 156.837 814.737C157.268 815.038 157.6 815.41 157.832 815.854C158.071 816.292 158.191 816.794 158.191 817.362ZM167.819 829H164.651V820.325C164.651 820.147 164.651 819.936 164.651 819.689C164.658 819.437 164.665 819.177 164.671 818.91C164.685 818.637 164.695 818.363 164.702 818.09C164.716 817.816 164.726 817.567 164.733 817.341C164.699 817.382 164.641 817.444 164.559 817.526C164.477 817.608 164.384 817.7 164.282 817.803C164.179 817.898 164.073 817.998 163.964 818.1C163.854 818.203 163.749 818.295 163.646 818.377L161.923 819.761L160.385 817.854L165.215 814.009H167.819V829ZM181.929 821.504C181.929 822.714 181.833 823.794 181.642 824.745C181.457 825.695 181.156 826.501 180.739 827.165C180.329 827.828 179.796 828.333 179.14 828.682C178.49 829.031 177.704 829.205 176.781 829.205C175.913 829.205 175.158 829.031 174.515 828.682C173.873 828.333 173.339 827.828 172.916 827.165C172.492 826.501 172.174 825.695 171.962 824.745C171.757 823.794 171.654 822.714 171.654 821.504C171.654 820.294 171.747 819.211 171.931 818.254C172.123 817.297 172.423 816.487 172.833 815.824C173.244 815.161 173.773 814.655 174.423 814.306C175.072 813.951 175.858 813.773 176.781 813.773C177.643 813.773 178.395 813.947 179.037 814.296C179.68 814.645 180.216 815.15 180.647 815.813C181.078 816.477 181.399 817.287 181.611 818.244C181.823 819.201 181.929 820.288 181.929 821.504ZM174.812 821.504C174.812 823.213 174.959 824.499 175.253 825.36C175.547 826.221 176.057 826.652 176.781 826.652C177.492 826.652 178.001 826.225 178.309 825.37C178.624 824.516 178.781 823.227 178.781 821.504C178.781 819.789 178.624 818.5 178.309 817.639C178.001 816.771 177.492 816.336 176.781 816.336C176.419 816.336 176.111 816.446 175.858 816.665C175.612 816.883 175.411 817.208 175.253 817.639C175.096 818.069 174.983 818.609 174.915 819.259C174.847 819.901 174.812 820.65 174.812 821.504ZM202.201 829H199.032V822.53H193.095V829H189.917V814.009H193.095V819.884H199.032V814.009H202.201V829ZM219.602 821.484C219.602 823.965 218.986 825.873 217.756 827.206C216.525 828.539 214.762 829.205 212.465 829.205C210.168 829.205 208.404 828.539 207.174 827.206C205.943 825.873 205.328 823.958 205.328 821.463C205.328 818.968 205.943 817.064 207.174 815.752C208.411 814.433 210.182 813.773 212.485 813.773C214.789 813.773 216.549 814.436 217.766 815.762C218.99 817.088 219.602 818.996 219.602 821.484ZM208.661 821.484C208.661 823.159 208.979 824.42 209.614 825.268C210.25 826.115 211.2 826.539 212.465 826.539C215.001 826.539 216.269 824.854 216.269 821.484C216.269 818.107 215.008 816.418 212.485 816.418C211.221 816.418 210.267 816.846 209.625 817.7C208.982 818.548 208.661 819.809 208.661 821.484ZM234.911 814.009V823.709C234.911 824.816 234.661 825.787 234.162 826.621C233.67 827.455 232.956 828.094 232.019 828.539C231.083 828.983 229.975 829.205 228.697 829.205C226.769 829.205 225.272 828.713 224.206 827.729C223.139 826.737 222.606 825.384 222.606 823.668V814.009H225.774V823.186C225.774 824.341 226.007 825.189 226.472 825.729C226.937 826.269 227.706 826.539 228.779 826.539C229.818 826.539 230.57 826.269 231.035 825.729C231.506 825.182 231.742 824.328 231.742 823.166V814.009H234.911ZM241.76 820.664H242.786C243.791 820.664 244.532 820.496 245.011 820.161C245.489 819.826 245.729 819.3 245.729 818.582C245.729 817.871 245.482 817.365 244.99 817.064C244.505 816.764 243.75 816.613 242.724 816.613H241.76V820.664ZM241.76 823.248V829H238.582V814.009H242.95C244.987 814.009 246.494 814.381 247.472 815.126C248.449 815.865 248.938 816.989 248.938 818.5C248.938 819.382 248.695 820.168 248.21 820.858C247.725 821.542 247.038 822.079 246.149 822.468L250.558 829H247.031L243.452 823.248H241.76ZM261.294 824.837C261.294 826.19 260.805 827.257 259.828 828.036C258.857 828.815 257.503 829.205 255.767 829.205C254.167 829.205 252.752 828.904 251.522 828.303V825.35C252.534 825.801 253.388 826.119 254.085 826.303C254.79 826.488 255.432 826.58 256.013 826.58C256.71 826.58 257.244 826.447 257.613 826.18C257.989 825.914 258.177 825.517 258.177 824.991C258.177 824.697 258.095 824.437 257.931 824.211C257.767 823.979 257.524 823.757 257.203 823.545C256.888 823.333 256.242 822.995 255.265 822.53C254.349 822.099 253.662 821.686 253.204 821.289C252.746 820.893 252.38 820.431 252.106 819.905C251.833 819.378 251.696 818.763 251.696 818.059C251.696 816.733 252.144 815.69 253.04 814.932C253.942 814.173 255.186 813.793 256.772 813.793C257.551 813.793 258.293 813.886 258.997 814.07C259.708 814.255 260.45 814.515 261.222 814.85L260.197 817.321C259.397 816.993 258.734 816.764 258.208 816.634C257.688 816.504 257.175 816.439 256.669 816.439C256.068 816.439 255.606 816.579 255.285 816.859C254.964 817.14 254.803 817.505 254.803 817.957C254.803 818.237 254.868 818.483 254.998 818.695C255.128 818.9 255.333 819.102 255.613 819.3C255.9 819.491 256.574 819.84 257.633 820.346C259.035 821.016 259.995 821.689 260.515 822.366C261.034 823.036 261.294 823.859 261.294 824.837Z" fill="white"/><path d="M179.833 606H169.774V603.795L173.302 599.991C173.746 599.513 174.149 599.072 174.512 598.668C174.874 598.265 175.185 597.872 175.445 597.489C175.705 597.106 175.906 596.717 176.05 596.32C176.193 595.924 176.265 595.497 176.265 595.039C176.265 594.533 176.111 594.14 175.804 593.859C175.503 593.579 175.096 593.439 174.583 593.439C174.043 593.439 173.524 593.572 173.025 593.839C172.526 594.105 172.003 594.485 171.456 594.977L169.733 592.937C170.041 592.656 170.362 592.39 170.697 592.137C171.032 591.877 171.401 591.648 171.805 591.45C172.208 591.251 172.652 591.094 173.138 590.978C173.623 590.855 174.167 590.793 174.768 590.793C175.486 590.793 176.128 590.893 176.696 591.091C177.27 591.289 177.759 591.573 178.162 591.942C178.565 592.304 178.873 592.745 179.085 593.265C179.304 593.784 179.413 594.369 179.413 595.018C179.413 595.606 179.311 596.17 179.105 596.71C178.9 597.243 178.62 597.77 178.265 598.289C177.909 598.802 177.496 599.314 177.024 599.827C176.559 600.333 176.06 600.849 175.527 601.375L173.722 603.19V603.334H179.833V606ZM191.42 598.504C191.42 599.714 191.325 600.794 191.133 601.745C190.949 602.695 190.648 603.501 190.231 604.165C189.821 604.828 189.288 605.333 188.631 605.682C187.982 606.031 187.196 606.205 186.273 606.205C185.405 606.205 184.649 606.031 184.007 605.682C183.364 605.333 182.831 604.828 182.407 604.165C181.983 603.501 181.666 602.695 181.454 601.745C181.249 600.794 181.146 599.714 181.146 598.504C181.146 597.294 181.238 596.211 181.423 595.254C181.614 594.297 181.915 593.487 182.325 592.824C182.735 592.161 183.265 591.655 183.915 591.306C184.564 590.951 185.35 590.773 186.273 590.773C187.134 590.773 187.886 590.947 188.529 591.296C189.171 591.645 189.708 592.15 190.139 592.813C190.569 593.477 190.891 594.287 191.103 595.244C191.314 596.201 191.42 597.288 191.42 598.504ZM184.304 598.504C184.304 600.213 184.451 601.499 184.745 602.36C185.039 603.221 185.548 603.652 186.273 603.652C186.984 603.652 187.493 603.225 187.801 602.37C188.115 601.516 188.272 600.227 188.272 598.504C188.272 596.789 188.115 595.5 187.801 594.639C187.493 593.771 186.984 593.336 186.273 593.336C185.911 593.336 185.603 593.446 185.35 593.665C185.104 593.883 184.902 594.208 184.745 594.639C184.588 595.069 184.475 595.609 184.407 596.259C184.338 596.901 184.304 597.65 184.304 598.504Z" fill="white"/><path d="M116.249 627.362C116.249 627.881 116.164 628.35 115.993 628.767C115.829 629.177 115.6 629.539 115.306 629.854C115.019 630.161 114.677 630.421 114.28 630.633C113.891 630.838 113.467 630.995 113.009 631.104V631.166C114.219 631.316 115.135 631.686 115.757 632.273C116.379 632.854 116.69 633.641 116.69 634.632C116.69 635.288 116.57 635.896 116.331 636.457C116.099 637.011 115.736 637.493 115.244 637.903C114.759 638.313 114.144 638.634 113.398 638.867C112.66 639.092 111.789 639.205 110.784 639.205C109.977 639.205 109.218 639.137 108.507 639C107.796 638.87 107.133 638.668 106.518 638.395V635.698C106.826 635.862 107.15 636.006 107.492 636.129C107.834 636.252 108.176 636.358 108.518 636.447C108.859 636.529 109.194 636.59 109.522 636.631C109.857 636.672 110.172 636.693 110.466 636.693C111.054 636.693 111.542 636.638 111.932 636.529C112.322 636.419 112.633 636.266 112.865 636.067C113.098 635.869 113.262 635.633 113.357 635.36C113.46 635.08 113.511 634.775 113.511 634.447C113.511 634.14 113.446 633.863 113.316 633.617C113.193 633.364 112.988 633.152 112.701 632.981C112.421 632.803 112.052 632.667 111.594 632.571C111.136 632.475 110.572 632.427 109.902 632.427H108.835V630.202H109.881C110.51 630.202 111.033 630.147 111.45 630.038C111.867 629.922 112.199 629.768 112.445 629.577C112.698 629.378 112.875 629.149 112.978 628.89C113.081 628.63 113.132 628.353 113.132 628.059C113.132 627.526 112.964 627.109 112.629 626.808C112.301 626.507 111.778 626.357 111.061 626.357C110.732 626.357 110.425 626.391 110.138 626.459C109.857 626.521 109.594 626.603 109.348 626.706C109.109 626.801 108.887 626.911 108.682 627.034C108.483 627.15 108.302 627.266 108.138 627.382L106.539 625.27C106.826 625.058 107.137 624.863 107.472 624.686C107.813 624.508 108.183 624.354 108.579 624.224C108.976 624.087 109.403 623.981 109.861 623.906C110.319 623.831 110.808 623.793 111.327 623.793C112.065 623.793 112.735 623.875 113.337 624.04C113.945 624.197 114.465 624.429 114.896 624.737C115.326 625.038 115.658 625.41 115.89 625.854C116.129 626.292 116.249 626.794 116.249 627.362ZM128.42 631.504C128.42 632.714 128.325 633.794 128.133 634.745C127.949 635.695 127.648 636.501 127.231 637.165C126.821 637.828 126.288 638.333 125.631 638.682C124.982 639.031 124.196 639.205 123.273 639.205C122.405 639.205 121.649 639.031 121.007 638.682C120.364 638.333 119.831 637.828 119.407 637.165C118.983 636.501 118.666 635.695 118.454 634.745C118.249 633.794 118.146 632.714 118.146 631.504C118.146 630.294 118.238 629.211 118.423 628.254C118.614 627.297 118.915 626.487 119.325 625.824C119.735 625.161 120.265 624.655 120.915 624.306C121.564 623.951 122.35 623.773 123.273 623.773C124.134 623.773 124.886 623.947 125.529 624.296C126.171 624.645 126.708 625.15 127.139 625.813C127.569 626.477 127.891 627.287 128.103 628.244C128.314 629.201 128.42 630.288 128.42 631.504ZM121.304 631.504C121.304 633.213 121.451 634.499 121.745 635.36C122.039 636.221 122.548 636.652 123.273 636.652C123.984 636.652 124.493 636.225 124.801 635.37C125.115 634.516 125.272 633.227 125.272 631.504C125.272 629.789 125.115 628.5 124.801 627.639C124.493 626.771 123.984 626.336 123.273 626.336C122.911 626.336 122.603 626.446 122.35 626.665C122.104 626.883 121.902 627.208 121.745 627.639C121.588 628.069 121.475 628.609 121.407 629.259C121.338 629.901 121.304 630.65 121.304 631.504Z" fill="black"/><circle cx="110" cy="255" r="15.5" fill="#002D62" stroke="black"/><circle cx="110" cy="321" r="15.5" fill="#D11242" stroke="black"/><circle cx="109" cy="387" r="15.5" fill="#F5F5F5" stroke="black"/><path d="M149.372 260L148.94 258.887H148.881C148.505 259.36 148.117 259.69 147.717 259.875C147.321 260.056 146.804 260.146 146.164 260.146C145.378 260.146 144.758 259.922 144.304 259.473C143.854 259.023 143.63 258.384 143.63 257.554C143.63 256.685 143.933 256.045 144.538 255.635C145.148 255.22 146.066 254.99 147.292 254.946L148.713 254.902V254.543C148.713 253.713 148.288 253.298 147.438 253.298C146.784 253.298 146.015 253.496 145.131 253.892L144.392 252.383C145.334 251.89 146.379 251.643 147.526 251.643C148.625 251.643 149.467 251.882 150.053 252.361C150.639 252.839 150.932 253.567 150.932 254.543V260H149.372ZM148.713 256.206L147.849 256.235C147.199 256.255 146.716 256.372 146.398 256.587C146.081 256.802 145.922 257.129 145.922 257.568C145.922 258.198 146.284 258.513 147.006 258.513C147.524 258.513 147.937 258.364 148.244 258.066C148.557 257.769 148.713 257.373 148.713 256.88V256.206ZM157.766 253.489H155.832V260H153.598V253.489H152.368V252.412L153.598 251.812V251.211C153.598 250.278 153.828 249.597 154.287 249.167C154.746 248.738 155.48 248.523 156.491 248.523C157.263 248.523 157.949 248.638 158.549 248.867L157.978 250.508C157.529 250.366 157.114 250.295 156.733 250.295C156.416 250.295 156.186 250.391 156.044 250.581C155.903 250.767 155.832 251.006 155.832 251.299V251.812H157.766V253.489ZM162.504 258.367C162.895 258.367 163.364 258.281 163.911 258.11V259.773C163.354 260.022 162.67 260.146 161.86 260.146C160.966 260.146 160.314 259.922 159.904 259.473C159.499 259.019 159.296 258.34 159.296 257.437V253.489H158.227V252.544L159.458 251.797L160.102 250.068H161.53V251.812H163.823V253.489H161.53V257.437C161.53 257.754 161.618 257.988 161.794 258.14C161.975 258.291 162.211 258.367 162.504 258.367ZM168.964 253.247C168.491 253.247 168.12 253.398 167.851 253.701C167.583 253.999 167.429 254.424 167.39 254.976H170.524C170.515 254.424 170.371 253.999 170.092 253.701C169.814 253.398 169.438 253.247 168.964 253.247ZM169.279 260.146C167.961 260.146 166.931 259.783 166.188 259.055C165.446 258.328 165.075 257.297 165.075 255.964C165.075 254.592 165.417 253.533 166.101 252.786C166.789 252.034 167.739 251.658 168.95 251.658C170.107 251.658 171.008 251.987 171.652 252.646C172.297 253.306 172.619 254.216 172.619 255.378V256.462H167.338C167.363 257.097 167.551 257.593 167.902 257.949C168.254 258.306 168.747 258.484 169.382 258.484C169.875 258.484 170.341 258.433 170.781 258.33C171.22 258.228 171.679 258.064 172.158 257.839V259.568C171.767 259.763 171.35 259.907 170.905 260C170.461 260.098 169.919 260.146 169.279 260.146ZM179.006 251.658C179.309 251.658 179.56 251.68 179.76 251.724L179.592 253.818C179.411 253.77 179.191 253.745 178.933 253.745C178.22 253.745 177.663 253.928 177.263 254.294C176.867 254.661 176.669 255.173 176.669 255.833V260H174.436V251.812H176.127L176.457 253.188H176.567C176.821 252.729 177.163 252.361 177.592 252.083C178.027 251.799 178.498 251.658 179.006 251.658ZM190.856 257.568C190.856 258.408 190.563 259.048 189.978 259.487C189.396 259.927 188.525 260.146 187.363 260.146C186.767 260.146 186.259 260.105 185.839 260.022C185.419 259.944 185.026 259.827 184.66 259.67V257.825C185.075 258.02 185.542 258.184 186.059 258.315C186.582 258.447 187.041 258.513 187.436 258.513C188.247 258.513 188.652 258.279 188.652 257.81C188.652 257.634 188.598 257.493 188.491 257.385C188.383 257.273 188.198 257.148 187.934 257.012C187.67 256.87 187.319 256.707 186.879 256.521C186.25 256.257 185.786 256.013 185.488 255.789C185.195 255.564 184.98 255.308 184.843 255.02C184.711 254.727 184.646 254.368 184.646 253.943C184.646 253.215 184.926 252.654 185.488 252.258C186.054 251.858 186.855 251.658 187.89 251.658C188.876 251.658 189.836 251.873 190.769 252.302L190.095 253.914C189.685 253.738 189.301 253.594 188.945 253.481C188.588 253.369 188.225 253.313 187.854 253.313C187.194 253.313 186.865 253.491 186.865 253.848C186.865 254.048 186.97 254.221 187.18 254.368C187.395 254.514 187.861 254.731 188.579 255.02C189.218 255.278 189.687 255.52 189.985 255.745C190.283 255.969 190.502 256.228 190.644 256.521C190.786 256.814 190.856 257.163 190.856 257.568ZM195.925 260.146C193.376 260.146 192.102 258.748 192.102 255.95C192.102 254.558 192.448 253.496 193.142 252.764C193.835 252.026 194.829 251.658 196.123 251.658C197.07 251.658 197.919 251.843 198.671 252.214L198.012 253.943C197.661 253.801 197.333 253.687 197.031 253.599C196.728 253.506 196.425 253.459 196.123 253.459C194.96 253.459 194.379 254.285 194.379 255.935C194.379 257.537 194.96 258.337 196.123 258.337C196.552 258.337 196.95 258.281 197.316 258.169C197.683 258.052 198.049 257.871 198.415 257.627V259.539C198.054 259.768 197.688 259.927 197.316 260.015C196.95 260.103 196.486 260.146 195.925 260.146ZM207.878 260H205.644V255.217C205.644 254.036 205.205 253.445 204.326 253.445C203.701 253.445 203.249 253.657 202.971 254.082C202.692 254.507 202.553 255.195 202.553 256.147V260H200.319V248.604H202.553V250.925C202.553 251.106 202.536 251.531 202.502 252.2L202.451 252.859H202.568C203.066 252.058 203.857 251.658 204.941 251.658C205.903 251.658 206.633 251.917 207.131 252.434C207.629 252.952 207.878 253.694 207.878 254.661V260ZM211.958 255.891C211.958 256.702 212.089 257.314 212.353 257.729C212.622 258.145 213.056 258.352 213.657 258.352C214.252 258.352 214.68 258.147 214.938 257.737C215.202 257.322 215.334 256.707 215.334 255.891C215.334 255.081 215.202 254.473 214.938 254.067C214.675 253.662 214.243 253.459 213.642 253.459C213.046 253.459 212.617 253.662 212.353 254.067C212.089 254.468 211.958 255.076 211.958 255.891ZM217.619 255.891C217.619 257.224 217.268 258.267 216.564 259.019C215.861 259.771 214.882 260.146 213.627 260.146C212.841 260.146 212.148 259.976 211.547 259.634C210.947 259.287 210.485 258.792 210.163 258.147C209.841 257.502 209.68 256.75 209.68 255.891C209.68 254.553 210.029 253.513 210.727 252.771C211.425 252.029 212.407 251.658 213.671 251.658C214.458 251.658 215.151 251.829 215.751 252.17C216.352 252.512 216.813 253.003 217.136 253.643C217.458 254.282 217.619 255.032 217.619 255.891ZM221.245 255.891C221.245 256.702 221.376 257.314 221.64 257.729C221.909 258.145 222.343 258.352 222.944 258.352C223.54 258.352 223.967 258.147 224.226 257.737C224.489 257.322 224.621 256.707 224.621 255.891C224.621 255.081 224.489 254.473 224.226 254.067C223.962 253.662 223.53 253.459 222.929 253.459C222.333 253.459 221.904 253.662 221.64 254.067C221.376 254.468 221.245 255.076 221.245 255.891ZM226.906 255.891C226.906 257.224 226.555 258.267 225.852 259.019C225.148 259.771 224.169 260.146 222.915 260.146C222.128 260.146 221.435 259.976 220.834 259.634C220.234 259.287 219.772 258.792 219.45 258.147C219.128 257.502 218.967 256.75 218.967 255.891C218.967 254.553 219.316 253.513 220.014 252.771C220.712 252.029 221.694 251.658 222.958 251.658C223.745 251.658 224.438 251.829 225.039 252.17C225.639 252.512 226.101 253.003 226.423 253.643C226.745 254.282 226.906 255.032 226.906 255.891ZM230.986 260H228.752V248.604H230.986V260ZM237.138 249.695C237.138 248.967 237.543 248.604 238.354 248.604C239.165 248.604 239.57 248.967 239.57 249.695C239.57 250.042 239.467 250.312 239.262 250.508C239.062 250.698 238.759 250.793 238.354 250.793C237.543 250.793 237.138 250.427 237.138 249.695ZM239.467 260H237.233V251.812H239.467V260ZM249.377 260H247.143V255.217C247.143 254.626 247.038 254.185 246.828 253.892C246.618 253.594 246.284 253.445 245.825 253.445C245.2 253.445 244.748 253.655 244.47 254.075C244.191 254.49 244.052 255.181 244.052 256.147V260H241.818V251.812H243.525L243.825 252.859H243.95C244.199 252.463 244.541 252.166 244.975 251.965C245.415 251.76 245.913 251.658 246.469 251.658C247.421 251.658 248.144 251.917 248.637 252.434C249.13 252.947 249.377 253.689 249.377 254.661V260ZM257.39 257.568C257.39 258.408 257.097 259.048 256.511 259.487C255.93 259.927 255.058 260.146 253.896 260.146C253.3 260.146 252.792 260.105 252.373 260.022C251.953 259.944 251.56 259.827 251.193 259.67V257.825C251.608 258.02 252.075 258.184 252.592 258.315C253.115 258.447 253.574 258.513 253.969 258.513C254.78 258.513 255.185 258.279 255.185 257.81C255.185 257.634 255.131 257.493 255.024 257.385C254.917 257.273 254.731 257.148 254.467 257.012C254.204 256.87 253.852 256.707 253.413 256.521C252.783 256.257 252.319 256.013 252.021 255.789C251.728 255.564 251.513 255.308 251.376 255.02C251.245 254.727 251.179 254.368 251.179 253.943C251.179 253.215 251.459 252.654 252.021 252.258C252.587 251.858 253.388 251.658 254.423 251.658C255.41 251.658 256.369 251.873 257.302 252.302L256.628 253.914C256.218 253.738 255.834 253.594 255.478 253.481C255.122 253.369 254.758 253.313 254.387 253.313C253.728 253.313 253.398 253.491 253.398 253.848C253.398 254.048 253.503 254.221 253.713 254.368C253.928 254.514 254.394 254.731 255.112 255.02C255.751 255.278 256.22 255.52 256.518 255.745C256.816 255.969 257.036 256.228 257.177 256.521C257.319 256.814 257.39 257.163 257.39 257.568ZM262.583 258.367C262.973 258.367 263.442 258.281 263.989 258.11V259.773C263.432 260.022 262.749 260.146 261.938 260.146C261.044 260.146 260.393 259.922 259.982 259.473C259.577 259.019 259.375 258.34 259.375 257.437V253.489H258.305V252.544L259.536 251.797L260.18 250.068H261.608V251.812H263.901V253.489H261.608V257.437C261.608 257.754 261.696 257.988 261.872 258.14C262.053 258.291 262.29 258.367 262.583 258.367ZM270.222 251.658C270.524 251.658 270.776 251.68 270.976 251.724L270.808 253.818C270.627 253.77 270.407 253.745 270.148 253.745C269.436 253.745 268.879 253.928 268.479 254.294C268.083 254.661 267.885 255.173 267.885 255.833V260H265.651V251.812H267.343L267.673 253.188H267.783C268.037 252.729 268.378 252.361 268.808 252.083C269.243 251.799 269.714 251.658 270.222 251.658ZM278.264 260L277.963 258.953H277.846C277.607 259.333 277.268 259.629 276.828 259.839C276.389 260.044 275.888 260.146 275.327 260.146C274.365 260.146 273.64 259.89 273.151 259.377C272.663 258.86 272.419 258.118 272.419 257.151V251.812H274.653V256.594C274.653 257.185 274.758 257.629 274.968 257.927C275.178 258.22 275.512 258.367 275.971 258.367C276.596 258.367 277.048 258.159 277.326 257.744C277.604 257.324 277.744 256.631 277.744 255.664V251.812H279.978V260H278.264ZM285.646 260.146C283.098 260.146 281.823 258.748 281.823 255.95C281.823 254.558 282.17 253.496 282.863 252.764C283.557 252.026 284.55 251.658 285.844 251.658C286.792 251.658 287.641 251.843 288.393 252.214L287.734 253.943C287.382 253.801 287.055 253.687 286.752 253.599C286.45 253.506 286.147 253.459 285.844 253.459C284.682 253.459 284.101 254.285 284.101 255.935C284.101 257.537 284.682 258.337 285.844 258.337C286.274 258.337 286.672 258.281 287.038 258.169C287.404 258.052 287.771 257.871 288.137 257.627V259.539C287.775 259.768 287.409 259.927 287.038 260.015C286.672 260.103 286.208 260.146 285.646 260.146ZM293.491 258.367C293.881 258.367 294.35 258.281 294.897 258.11V259.773C294.34 260.022 293.657 260.146 292.846 260.146C291.953 260.146 291.301 259.922 290.891 259.473C290.485 259.019 290.283 258.34 290.283 257.437V253.489H289.213V252.544L290.444 251.797L291.088 250.068H292.517V251.812H294.809V253.489H292.517V257.437C292.517 257.754 292.604 257.988 292.78 258.14C292.961 258.291 293.198 258.367 293.491 258.367ZM296.464 249.695C296.464 248.967 296.87 248.604 297.68 248.604C298.491 248.604 298.896 248.967 298.896 249.695C298.896 250.042 298.793 250.312 298.588 250.508C298.388 250.698 298.085 250.793 297.68 250.793C296.87 250.793 296.464 250.427 296.464 249.695ZM298.793 260H296.56V251.812H298.793V260ZM302.924 255.891C302.924 256.702 303.056 257.314 303.32 257.729C303.588 258.145 304.023 258.352 304.624 258.352C305.219 258.352 305.646 258.147 305.905 257.737C306.169 257.322 306.301 256.707 306.301 255.891C306.301 255.081 306.169 254.473 305.905 254.067C305.642 253.662 305.209 253.459 304.609 253.459C304.013 253.459 303.583 253.662 303.32 254.067C303.056 254.468 302.924 255.076 302.924 255.891ZM308.586 255.891C308.586 257.224 308.234 258.267 307.531 259.019C306.828 259.771 305.849 260.146 304.594 260.146C303.808 260.146 303.115 259.976 302.514 259.634C301.914 259.287 301.452 258.792 301.13 258.147C300.808 257.502 300.646 256.75 300.646 255.891C300.646 254.553 300.996 253.513 301.694 252.771C302.392 252.029 303.374 251.658 304.638 251.658C305.424 251.658 306.118 251.829 306.718 252.17C307.319 252.512 307.78 253.003 308.103 253.643C308.425 254.282 308.586 255.032 308.586 255.891ZM317.99 260H315.756V255.217C315.756 254.626 315.651 254.185 315.441 253.892C315.231 253.594 314.897 253.445 314.438 253.445C313.813 253.445 313.361 253.655 313.083 254.075C312.805 254.49 312.666 255.181 312.666 256.147V260H310.432V251.812H312.138L312.438 252.859H312.563C312.812 252.463 313.154 252.166 313.588 251.965C314.028 251.76 314.526 251.658 315.083 251.658C316.035 251.658 316.757 251.917 317.25 252.434C317.744 252.947 317.99 253.689 317.99 254.661V260Z" fill="black"/><path d="M144.077 315.695C144.077 314.967 144.482 314.604 145.292 314.604C146.103 314.604 146.508 314.967 146.508 315.695C146.508 316.042 146.406 316.312 146.201 316.508C146 316.698 145.698 316.793 145.292 316.793C144.482 316.793 144.077 316.427 144.077 315.695ZM146.406 326H144.172V317.812H146.406V326ZM156.315 326H154.082V321.217C154.082 320.626 153.977 320.185 153.767 319.892C153.557 319.594 153.222 319.445 152.763 319.445C152.138 319.445 151.687 319.655 151.408 320.075C151.13 320.49 150.991 321.181 150.991 322.147V326H148.757V317.812H150.463L150.764 318.859H150.888C151.137 318.463 151.479 318.166 151.914 317.965C152.353 317.76 152.851 317.658 153.408 317.658C154.36 317.658 155.083 317.917 155.576 318.434C156.069 318.947 156.315 319.689 156.315 320.661V326ZM162.065 324.367C162.456 324.367 162.924 324.281 163.471 324.11V325.773C162.915 326.022 162.231 326.146 161.42 326.146C160.527 326.146 159.875 325.922 159.465 325.473C159.06 325.019 158.857 324.34 158.857 323.437V319.489H157.788V318.544L159.018 317.797L159.663 316.068H161.091V317.812H163.383V319.489H161.091V323.437C161.091 323.754 161.179 323.988 161.354 324.14C161.535 324.291 161.772 324.367 162.065 324.367ZM168.525 319.247C168.051 319.247 167.68 319.398 167.412 319.701C167.143 319.999 166.989 320.424 166.95 320.976H170.085C170.075 320.424 169.931 319.999 169.653 319.701C169.375 319.398 168.999 319.247 168.525 319.247ZM168.84 326.146C167.521 326.146 166.491 325.783 165.749 325.055C165.007 324.328 164.636 323.297 164.636 321.964C164.636 320.592 164.978 319.533 165.661 318.786C166.35 318.034 167.299 317.658 168.51 317.658C169.667 317.658 170.568 317.987 171.213 318.646C171.857 319.306 172.18 320.216 172.18 321.378V322.462H166.899C166.923 323.097 167.111 323.593 167.463 323.949C167.814 324.306 168.308 324.484 168.942 324.484C169.436 324.484 169.902 324.433 170.341 324.33C170.781 324.228 171.24 324.064 171.718 323.839V325.568C171.328 325.763 170.91 325.907 170.466 326C170.021 326.098 169.479 326.146 168.84 326.146ZM181.555 326H179.321V321.217C179.321 320.626 179.216 320.185 179.006 319.892C178.796 319.594 178.461 319.445 178.002 319.445C177.377 319.445 176.926 319.655 176.647 320.075C176.369 320.49 176.23 321.181 176.23 322.147V326H173.996V317.812H175.703L176.003 318.859H176.127C176.376 318.463 176.718 318.166 177.153 317.965C177.592 317.76 178.09 317.658 178.647 317.658C179.599 317.658 180.322 317.917 180.815 318.434C181.308 318.947 181.555 319.689 181.555 320.661V326ZM189.567 323.568C189.567 324.408 189.274 325.048 188.688 325.487C188.107 325.927 187.236 326.146 186.074 326.146C185.478 326.146 184.97 326.105 184.55 326.022C184.13 325.944 183.737 325.827 183.371 325.67V323.825C183.786 324.02 184.252 324.184 184.77 324.315C185.292 324.447 185.751 324.513 186.147 324.513C186.958 324.513 187.363 324.279 187.363 323.81C187.363 323.634 187.309 323.493 187.202 323.385C187.094 323.273 186.909 323.148 186.645 323.012C186.381 322.87 186.03 322.707 185.59 322.521C184.96 322.257 184.497 322.013 184.199 321.789C183.906 321.564 183.691 321.308 183.554 321.02C183.422 320.727 183.356 320.368 183.356 319.943C183.356 319.215 183.637 318.654 184.199 318.258C184.765 317.858 185.566 317.658 186.601 317.658C187.587 317.658 188.547 317.873 189.479 318.302L188.806 319.914C188.396 319.738 188.012 319.594 187.656 319.481C187.299 319.369 186.936 319.313 186.564 319.313C185.905 319.313 185.576 319.491 185.576 319.848C185.576 320.048 185.681 320.221 185.891 320.368C186.105 320.514 186.572 320.731 187.29 321.02C187.929 321.278 188.398 321.52 188.696 321.745C188.994 321.969 189.213 322.228 189.355 322.521C189.497 322.814 189.567 323.163 189.567 323.568ZM191.215 315.695C191.215 314.967 191.621 314.604 192.431 314.604C193.242 314.604 193.647 314.967 193.647 315.695C193.647 316.042 193.544 316.312 193.339 316.508C193.139 316.698 192.836 316.793 192.431 316.793C191.621 316.793 191.215 316.427 191.215 315.695ZM193.544 326H191.311V317.812H193.544V326ZM197.844 326L194.724 317.812H197.06L198.642 322.477C198.803 322.985 198.908 323.544 198.957 324.154H199.016C199.045 323.603 199.155 323.043 199.345 322.477L200.92 317.812H203.256L200.136 326H197.844ZM207.827 319.247C207.353 319.247 206.982 319.398 206.713 319.701C206.445 319.999 206.291 320.424 206.252 320.976H209.387C209.377 320.424 209.233 319.999 208.955 319.701C208.676 319.398 208.3 319.247 207.827 319.247ZM208.142 326.146C206.823 326.146 205.793 325.783 205.051 325.055C204.309 324.328 203.938 323.297 203.938 321.964C203.938 320.592 204.279 319.533 204.963 318.786C205.651 318.034 206.601 317.658 207.812 317.658C208.969 317.658 209.87 317.987 210.515 318.646C211.159 319.306 211.481 320.216 211.481 321.378V322.462H206.201C206.225 323.097 206.413 323.593 206.765 323.949C207.116 324.306 207.609 324.484 208.244 324.484C208.737 324.484 209.204 324.433 209.643 324.33C210.083 324.228 210.542 324.064 211.02 323.839V325.568C210.629 325.763 210.212 325.907 209.768 326C209.323 326.098 208.781 326.146 208.142 326.146ZM222.907 323.568C222.907 324.408 222.614 325.048 222.028 325.487C221.447 325.927 220.576 326.146 219.414 326.146C218.818 326.146 218.31 326.105 217.89 326.022C217.47 325.944 217.077 325.827 216.711 325.67V323.825C217.126 324.02 217.592 324.184 218.11 324.315C218.632 324.447 219.091 324.513 219.487 324.513C220.297 324.513 220.703 324.279 220.703 323.81C220.703 323.634 220.649 323.493 220.542 323.385C220.434 323.273 220.249 323.148 219.985 323.012C219.721 322.87 219.37 322.707 218.93 322.521C218.3 322.257 217.836 322.013 217.539 321.789C217.246 321.564 217.031 321.308 216.894 321.02C216.762 320.727 216.696 320.368 216.696 319.943C216.696 319.215 216.977 318.654 217.539 318.258C218.105 317.858 218.906 317.658 219.941 317.658C220.927 317.658 221.887 317.873 222.819 318.302L222.146 319.914C221.735 319.738 221.352 319.594 220.996 319.481C220.639 319.369 220.275 319.313 219.904 319.313C219.245 319.313 218.916 319.491 218.916 319.848C218.916 320.048 219.021 320.221 219.23 320.368C219.445 320.514 219.912 320.731 220.629 321.02C221.269 321.278 221.738 321.52 222.036 321.745C222.333 321.969 222.553 322.228 222.695 322.521C222.836 322.814 222.907 323.163 222.907 323.568ZM228.042 319.247C227.568 319.247 227.197 319.398 226.928 319.701C226.66 319.999 226.506 320.424 226.467 320.976H229.602C229.592 320.424 229.448 319.999 229.169 319.701C228.891 319.398 228.515 319.247 228.042 319.247ZM228.356 326.146C227.038 326.146 226.008 325.783 225.266 325.055C224.523 324.328 224.152 323.297 224.152 321.964C224.152 320.592 224.494 319.533 225.178 318.786C225.866 318.034 226.816 317.658 228.027 317.658C229.184 317.658 230.085 317.987 230.729 318.646C231.374 319.306 231.696 320.216 231.696 321.378V322.462H226.416C226.44 323.097 226.628 323.593 226.979 323.949C227.331 324.306 227.824 324.484 228.459 324.484C228.952 324.484 229.418 324.433 229.858 324.33C230.297 324.228 230.756 324.064 231.235 323.839V325.568C230.844 325.763 230.427 325.907 229.982 326C229.538 326.098 228.996 326.146 228.356 326.146ZM239.226 323.568C239.226 324.408 238.933 325.048 238.347 325.487C237.766 325.927 236.894 326.146 235.732 326.146C235.136 326.146 234.628 326.105 234.208 326.022C233.789 325.944 233.396 325.827 233.029 325.67V323.825C233.444 324.02 233.911 324.184 234.428 324.315C234.951 324.447 235.41 324.513 235.805 324.513C236.616 324.513 237.021 324.279 237.021 323.81C237.021 323.634 236.967 323.493 236.86 323.385C236.752 323.273 236.567 323.148 236.303 323.012C236.04 322.87 235.688 322.707 235.249 322.521C234.619 322.257 234.155 322.013 233.857 321.789C233.564 321.564 233.349 321.308 233.212 321.02C233.081 320.727 233.015 320.368 233.015 319.943C233.015 319.215 233.295 318.654 233.857 318.258C234.423 317.858 235.224 317.658 236.259 317.658C237.246 317.658 238.205 317.873 239.138 318.302L238.464 319.914C238.054 319.738 237.67 319.594 237.314 319.481C236.958 319.369 236.594 319.313 236.223 319.313C235.563 319.313 235.234 319.491 235.234 319.848C235.234 320.048 235.339 320.221 235.549 320.368C235.764 320.514 236.23 320.731 236.948 321.02C237.587 321.278 238.056 321.52 238.354 321.745C238.652 321.969 238.872 322.228 239.013 322.521C239.155 322.814 239.226 323.163 239.226 323.568ZM246.682 323.568C246.682 324.408 246.389 325.048 245.803 325.487C245.222 325.927 244.35 326.146 243.188 326.146C242.592 326.146 242.084 326.105 241.665 326.022C241.245 325.944 240.852 325.827 240.485 325.67V323.825C240.9 324.02 241.367 324.184 241.884 324.315C242.407 324.447 242.866 324.513 243.261 324.513C244.072 324.513 244.477 324.279 244.477 323.81C244.477 323.634 244.423 323.493 244.316 323.385C244.208 323.273 244.023 323.148 243.759 323.012C243.496 322.87 243.144 322.707 242.705 322.521C242.075 322.257 241.611 322.013 241.313 321.789C241.02 321.564 240.805 321.308 240.668 321.02C240.537 320.727 240.471 320.368 240.471 319.943C240.471 319.215 240.751 318.654 241.313 318.258C241.879 317.858 242.68 317.658 243.715 317.658C244.702 317.658 245.661 317.873 246.594 318.302L245.92 319.914C245.51 319.738 245.126 319.594 244.77 319.481C244.414 319.369 244.05 319.313 243.679 319.313C243.02 319.313 242.69 319.491 242.69 319.848C242.69 320.048 242.795 320.221 243.005 320.368C243.22 320.514 243.686 320.731 244.404 321.02C245.043 321.278 245.512 321.52 245.81 321.745C246.108 321.969 246.328 322.228 246.469 322.521C246.611 322.814 246.682 323.163 246.682 323.568ZM248.33 315.695C248.33 314.967 248.735 314.604 249.545 314.604C250.356 314.604 250.761 314.967 250.761 315.695C250.761 316.042 250.659 316.312 250.454 316.508C250.253 316.698 249.951 316.793 249.545 316.793C248.735 316.793 248.33 316.427 248.33 315.695ZM250.659 326H248.425V317.812H250.659V326ZM254.79 321.891C254.79 322.702 254.921 323.314 255.185 323.729C255.454 324.145 255.888 324.352 256.489 324.352C257.084 324.352 257.512 324.147 257.771 323.737C258.034 323.322 258.166 322.707 258.166 321.891C258.166 321.081 258.034 320.473 257.771 320.067C257.507 319.662 257.075 319.459 256.474 319.459C255.878 319.459 255.449 319.662 255.185 320.067C254.921 320.468 254.79 321.076 254.79 321.891ZM260.451 321.891C260.451 323.224 260.1 324.267 259.396 325.019C258.693 325.771 257.714 326.146 256.459 326.146C255.673 326.146 254.98 325.976 254.379 325.634C253.779 325.287 253.317 324.792 252.995 324.147C252.673 323.502 252.512 322.75 252.512 321.891C252.512 320.553 252.861 319.513 253.559 318.771C254.257 318.029 255.239 317.658 256.503 317.658C257.29 317.658 257.983 317.829 258.583 318.17C259.184 318.512 259.646 319.003 259.968 319.643C260.29 320.282 260.451 321.032 260.451 321.891ZM269.855 326H267.622V321.217C267.622 320.626 267.517 320.185 267.307 319.892C267.097 319.594 266.762 319.445 266.303 319.445C265.678 319.445 265.227 319.655 264.948 320.075C264.67 320.49 264.531 321.181 264.531 322.147V326H262.297V317.812H264.003L264.304 318.859H264.428C264.677 318.463 265.019 318.166 265.454 317.965C265.893 317.76 266.391 317.658 266.948 317.658C267.9 317.658 268.623 317.917 269.116 318.434C269.609 318.947 269.855 319.689 269.855 320.661V326ZM277.868 323.568C277.868 324.408 277.575 325.048 276.989 325.487C276.408 325.927 275.537 326.146 274.375 326.146C273.779 326.146 273.271 326.105 272.851 326.022C272.431 325.944 272.038 325.827 271.672 325.67V323.825C272.087 324.02 272.553 324.184 273.071 324.315C273.593 324.447 274.052 324.513 274.448 324.513C275.258 324.513 275.664 324.279 275.664 323.81C275.664 323.634 275.61 323.493 275.502 323.385C275.395 323.273 275.209 323.148 274.946 323.012C274.682 322.87 274.331 322.707 273.891 322.521C273.261 322.257 272.797 322.013 272.5 321.789C272.207 321.564 271.992 321.308 271.855 321.02C271.723 320.727 271.657 320.368 271.657 319.943C271.657 319.215 271.938 318.654 272.5 318.258C273.066 317.858 273.867 317.658 274.902 317.658C275.888 317.658 276.848 317.873 277.78 318.302L277.106 319.914C276.696 319.738 276.313 319.594 275.957 319.481C275.6 319.369 275.236 319.313 274.865 319.313C274.206 319.313 273.876 319.491 273.876 319.848C273.876 320.048 273.981 320.221 274.191 320.368C274.406 320.514 274.873 320.731 275.59 321.02C276.23 321.278 276.699 321.52 276.997 321.745C277.294 321.969 277.514 322.228 277.656 322.521C277.797 322.814 277.868 323.163 277.868 323.568Z" fill="black"/><path d="M146.563 385.247C146.089 385.247 145.718 385.398 145.45 385.701C145.181 385.999 145.027 386.424 144.988 386.976H148.123C148.113 386.424 147.969 385.999 147.691 385.701C147.413 385.398 147.037 385.247 146.563 385.247ZM146.878 392.146C145.56 392.146 144.529 391.783 143.787 391.055C143.045 390.328 142.674 389.297 142.674 387.964C142.674 386.592 143.016 385.533 143.699 384.786C144.388 384.034 145.337 383.658 146.548 383.658C147.706 383.658 148.606 383.987 149.251 384.646C149.896 385.306 150.218 386.216 150.218 387.378V388.462H144.937C144.961 389.097 145.149 389.593 145.501 389.949C145.853 390.306 146.346 390.484 146.98 390.484C147.474 390.484 147.94 390.433 148.379 390.33C148.819 390.228 149.278 390.064 149.756 389.839V391.568C149.366 391.763 148.948 391.907 148.504 392C148.06 392.098 147.518 392.146 146.878 392.146ZM159.593 392H157.359V387.217C157.359 386.626 157.254 386.185 157.044 385.892C156.834 385.594 156.5 385.445 156.041 385.445C155.416 385.445 154.964 385.655 154.686 386.075C154.407 386.49 154.268 387.181 154.268 388.147V392H152.034V383.812H153.741L154.041 384.859H154.166C154.415 384.463 154.756 384.166 155.191 383.965C155.63 383.76 156.128 383.658 156.685 383.658C157.637 383.658 158.36 383.917 158.853 384.434C159.346 384.947 159.593 385.689 159.593 386.661V392ZM169.451 392H167.217V387.217C167.217 386.036 166.778 385.445 165.899 385.445C165.274 385.445 164.822 385.657 164.544 386.082C164.266 386.507 164.126 387.195 164.126 388.147V392H161.893V380.604H164.126V382.925C164.126 383.106 164.109 383.531 164.075 384.2L164.024 384.859H164.141C164.639 384.058 165.43 383.658 166.514 383.658C167.476 383.658 168.206 383.917 168.704 384.434C169.202 384.952 169.451 385.694 169.451 386.661V392ZM176.951 392L176.519 390.887H176.46C176.084 391.36 175.696 391.69 175.296 391.875C174.9 392.056 174.383 392.146 173.743 392.146C172.957 392.146 172.337 391.922 171.883 391.473C171.434 391.023 171.209 390.384 171.209 389.554C171.209 388.685 171.512 388.045 172.117 387.635C172.728 387.22 173.646 386.99 174.871 386.946L176.292 386.902V386.543C176.292 385.713 175.867 385.298 175.018 385.298C174.363 385.298 173.594 385.496 172.71 385.892L171.971 384.383C172.913 383.89 173.958 383.643 175.105 383.643C176.204 383.643 177.046 383.882 177.632 384.361C178.218 384.839 178.511 385.567 178.511 386.543V392H176.951ZM176.292 388.206L175.428 388.235C174.778 388.255 174.295 388.372 173.978 388.587C173.66 388.802 173.501 389.129 173.501 389.568C173.501 390.198 173.863 390.513 174.585 390.513C175.103 390.513 175.516 390.364 175.823 390.066C176.136 389.769 176.292 389.373 176.292 388.88V388.206ZM188.377 392H186.143V387.217C186.143 386.626 186.038 386.185 185.828 385.892C185.618 385.594 185.284 385.445 184.825 385.445C184.2 385.445 183.748 385.655 183.47 386.075C183.191 386.49 183.052 387.181 183.052 388.147V392H180.818V383.812H182.525L182.825 384.859H182.95C183.199 384.463 183.541 384.166 183.975 383.965C184.415 383.76 184.913 383.658 185.469 383.658C186.421 383.658 187.144 383.917 187.637 384.434C188.13 384.947 188.377 385.689 188.377 386.661V392ZM194.002 392.146C191.453 392.146 190.179 390.748 190.179 387.95C190.179 386.558 190.525 385.496 191.219 384.764C191.912 384.026 192.906 383.658 194.2 383.658C195.147 383.658 195.997 383.843 196.749 384.214L196.089 385.943C195.738 385.801 195.411 385.687 195.108 385.599C194.805 385.506 194.502 385.459 194.2 385.459C193.038 385.459 192.457 386.285 192.457 387.935C192.457 389.537 193.038 390.337 194.2 390.337C194.629 390.337 195.027 390.281 195.394 390.169C195.76 390.052 196.126 389.871 196.492 389.627V391.539C196.131 391.768 195.765 391.927 195.394 392.015C195.027 392.103 194.563 392.146 194.002 392.146ZM201.788 385.247C201.314 385.247 200.943 385.398 200.674 385.701C200.406 385.999 200.252 386.424 200.213 386.976H203.348C203.338 386.424 203.194 385.999 202.916 385.701C202.637 385.398 202.261 385.247 201.788 385.247ZM202.103 392.146C200.784 392.146 199.754 391.783 199.012 391.055C198.27 390.328 197.898 389.297 197.898 387.964C197.898 386.592 198.24 385.533 198.924 384.786C199.612 384.034 200.562 383.658 201.773 383.658C202.93 383.658 203.831 383.987 204.476 384.646C205.12 385.306 205.442 386.216 205.442 387.378V388.462H200.162C200.186 389.097 200.374 389.593 200.726 389.949C201.077 390.306 201.57 390.484 202.205 390.484C202.698 390.484 203.165 390.433 203.604 390.33C204.043 390.228 204.502 390.064 204.981 389.839V391.568C204.59 391.763 204.173 391.907 203.729 392C203.284 392.098 202.742 392.146 202.103 392.146ZM214.59 392H212.356V387.217C212.356 386.626 212.256 386.185 212.056 385.892C211.861 385.594 211.551 385.445 211.126 385.445C210.555 385.445 210.14 385.655 209.881 386.075C209.622 386.495 209.493 387.186 209.493 388.147V392H207.259V383.812H208.965L209.266 384.859H209.39C209.61 384.483 209.927 384.19 210.342 383.98C210.757 383.765 211.233 383.658 211.771 383.658C212.996 383.658 213.826 384.058 214.261 384.859H214.458C214.678 384.478 215 384.183 215.425 383.973C215.855 383.763 216.338 383.658 216.875 383.658C217.803 383.658 218.504 383.897 218.978 384.375C219.456 384.849 219.695 385.611 219.695 386.661V392H217.454V387.217C217.454 386.626 217.354 386.185 217.154 385.892C216.958 385.594 216.648 385.445 216.224 385.445C215.677 385.445 215.267 385.64 214.993 386.031C214.725 386.421 214.59 387.042 214.59 387.891V392ZM225.386 385.247C224.913 385.247 224.542 385.398 224.273 385.701C224.004 385.999 223.851 386.424 223.812 386.976H226.946C226.937 386.424 226.792 385.999 226.514 385.701C226.236 385.398 225.86 385.247 225.386 385.247ZM225.701 392.146C224.383 392.146 223.353 391.783 222.61 391.055C221.868 390.328 221.497 389.297 221.497 387.964C221.497 386.592 221.839 385.533 222.522 384.786C223.211 384.034 224.161 383.658 225.372 383.658C226.529 383.658 227.43 383.987 228.074 384.646C228.719 385.306 229.041 386.216 229.041 387.378V388.462H223.76C223.785 389.097 223.973 389.593 224.324 389.949C224.676 390.306 225.169 390.484 225.804 390.484C226.297 390.484 226.763 390.433 227.203 390.33C227.642 390.228 228.101 390.064 228.58 389.839V391.568C228.189 391.763 227.771 391.907 227.327 392C226.883 392.098 226.341 392.146 225.701 392.146ZM238.416 392H236.182V387.217C236.182 386.626 236.077 386.185 235.867 385.892C235.657 385.594 235.323 385.445 234.864 385.445C234.239 385.445 233.787 385.655 233.509 386.075C233.23 386.49 233.091 387.181 233.091 388.147V392H230.857V383.812H232.564L232.864 384.859H232.989C233.238 384.463 233.58 384.166 234.014 383.965C234.454 383.76 234.952 383.658 235.508 383.658C236.46 383.658 237.183 383.917 237.676 384.434C238.169 384.947 238.416 385.689 238.416 386.661V392ZM244.166 390.367C244.556 390.367 245.025 390.281 245.572 390.11V391.773C245.015 392.022 244.332 392.146 243.521 392.146C242.627 392.146 241.976 391.922 241.565 391.473C241.16 391.019 240.958 390.34 240.958 389.437V385.489H239.888V384.544L241.119 383.797L241.763 382.068H243.191V383.812H245.484V385.489H243.191V389.437C243.191 389.754 243.279 389.988 243.455 390.14C243.636 390.291 243.873 390.367 244.166 390.367ZM256.331 392L255.899 390.887H255.84C255.464 391.36 255.076 391.69 254.676 391.875C254.28 392.056 253.763 392.146 253.123 392.146C252.337 392.146 251.717 391.922 251.263 391.473C250.813 391.023 250.589 390.384 250.589 389.554C250.589 388.685 250.892 388.045 251.497 387.635C252.107 387.22 253.025 386.99 254.251 386.946L255.672 386.902V386.543C255.672 385.713 255.247 385.298 254.397 385.298C253.743 385.298 252.974 385.496 252.09 385.892L251.351 384.383C252.293 383.89 253.338 383.643 254.485 383.643C255.584 383.643 256.426 383.882 257.012 384.361C257.598 384.839 257.891 385.567 257.891 386.543V392H256.331ZM255.672 388.206L254.808 388.235C254.158 388.255 253.675 388.372 253.357 388.587C253.04 388.802 252.881 389.129 252.881 389.568C252.881 390.198 253.243 390.513 253.965 390.513C254.483 390.513 254.896 390.364 255.203 390.066C255.516 389.769 255.672 389.373 255.672 388.88V388.206ZM263.523 392.146C260.975 392.146 259.7 390.748 259.7 387.95C259.7 386.558 260.047 385.496 260.74 384.764C261.434 384.026 262.427 383.658 263.721 383.658C264.668 383.658 265.518 383.843 266.27 384.214L265.611 385.943C265.259 385.801 264.932 385.687 264.629 385.599C264.327 385.506 264.024 385.459 263.721 385.459C262.559 385.459 261.978 386.285 261.978 387.935C261.978 389.537 262.559 390.337 263.721 390.337C264.151 390.337 264.549 390.281 264.915 390.169C265.281 390.052 265.647 389.871 266.014 389.627V391.539C265.652 391.768 265.286 391.927 264.915 392.015C264.549 392.103 264.085 392.146 263.523 392.146ZM271.368 390.367C271.758 390.367 272.227 390.281 272.774 390.11V391.773C272.217 392.022 271.534 392.146 270.723 392.146C269.83 392.146 269.178 391.922 268.768 391.473C268.362 391.019 268.16 390.34 268.16 389.437V385.489H267.09V384.544L268.321 383.797L268.965 382.068H270.394V383.812H272.686V385.489H270.394V389.437C270.394 389.754 270.481 389.988 270.657 390.14C270.838 390.291 271.075 390.367 271.368 390.367ZM274.341 381.695C274.341 380.967 274.747 380.604 275.557 380.604C276.368 380.604 276.773 380.967 276.773 381.695C276.773 382.042 276.67 382.312 276.465 382.508C276.265 382.698 275.962 382.793 275.557 382.793C274.747 382.793 274.341 382.427 274.341 381.695ZM276.67 392H274.437V383.812H276.67V392ZM280.97 392L277.85 383.812H280.186L281.768 388.477C281.929 388.985 282.034 389.544 282.083 390.154H282.142C282.171 389.603 282.281 389.043 282.471 388.477L284.046 383.812H286.382L283.262 392H280.97ZM287.466 381.695C287.466 380.967 287.872 380.604 288.682 380.604C289.493 380.604 289.898 380.967 289.898 381.695C289.898 382.042 289.795 382.312 289.59 382.508C289.39 382.698 289.087 382.793 288.682 382.793C287.872 382.793 287.466 382.427 287.466 381.695ZM289.795 392H287.562V383.812H289.795V392ZM295.596 390.367C295.987 390.367 296.456 390.281 297.002 390.11V391.773C296.446 392.022 295.762 392.146 294.952 392.146C294.058 392.146 293.406 391.922 292.996 391.473C292.591 391.019 292.388 390.34 292.388 389.437V385.489H291.319V384.544L292.549 383.797L293.194 382.068H294.622V383.812H296.915V385.489H294.622V389.437C294.622 389.754 294.71 389.988 294.886 390.14C295.066 390.291 295.303 390.367 295.596 390.367ZM298.57 381.695C298.57 380.967 298.975 380.604 299.786 380.604C300.596 380.604 301.001 380.967 301.001 381.695C301.001 382.042 300.899 382.312 300.694 382.508C300.494 382.698 300.191 382.793 299.786 382.793C298.975 382.793 298.57 382.427 298.57 381.695ZM300.899 392H298.665V383.812H300.899V392ZM306.641 385.247C306.167 385.247 305.796 385.398 305.528 385.701C305.259 385.999 305.105 386.424 305.066 386.976H308.201C308.191 386.424 308.047 385.999 307.769 385.701C307.491 385.398 307.115 385.247 306.641 385.247ZM306.956 392.146C305.638 392.146 304.607 391.783 303.865 391.055C303.123 390.328 302.752 389.297 302.752 387.964C302.752 386.592 303.094 385.533 303.777 384.786C304.466 384.034 305.416 383.658 306.626 383.658C307.784 383.658 308.685 383.987 309.329 384.646C309.974 385.306 310.296 386.216 310.296 387.378V388.462H305.015C305.04 389.097 305.228 389.593 305.579 389.949C305.931 390.306 306.424 390.484 307.059 390.484C307.552 390.484 308.018 390.433 308.458 390.33C308.897 390.228 309.356 390.064 309.834 389.839V391.568C309.444 391.763 309.026 391.907 308.582 392C308.138 392.098 307.596 392.146 306.956 392.146ZM317.825 389.568C317.825 390.408 317.532 391.048 316.946 391.487C316.365 391.927 315.494 392.146 314.332 392.146C313.736 392.146 313.228 392.105 312.808 392.022C312.388 391.944 311.995 391.827 311.629 391.67V389.825C312.044 390.02 312.51 390.184 313.028 390.315C313.55 390.447 314.009 390.513 314.405 390.513C315.215 390.513 315.621 390.279 315.621 389.81C315.621 389.634 315.567 389.493 315.459 389.385C315.352 389.273 315.167 389.148 314.903 389.012C314.639 388.87 314.288 388.707 313.848 388.521C313.218 388.257 312.754 388.013 312.457 387.789C312.164 387.564 311.949 387.308 311.812 387.02C311.68 386.727 311.614 386.368 311.614 385.943C311.614 385.215 311.895 384.654 312.457 384.258C313.023 383.858 313.824 383.658 314.859 383.658C315.845 383.658 316.805 383.873 317.737 384.302L317.063 385.914C316.653 385.738 316.27 385.594 315.914 385.481C315.557 385.369 315.193 385.313 314.822 385.313C314.163 385.313 313.833 385.491 313.833 385.848C313.833 386.048 313.938 386.221 314.148 386.368C314.363 386.514 314.83 386.731 315.547 387.02C316.187 387.278 316.656 387.52 316.954 387.745C317.251 387.969 317.471 388.228 317.613 388.521C317.754 388.814 317.825 389.163 317.825 389.568Z" fill="black"/><path d="M249.506 60L248.419 56.4316H242.954L241.867 60H238.442L243.733 44.9473H247.619L252.931 60H249.506ZM247.66 53.7656C246.655 50.5322 246.088 48.7036 245.958 48.2798C245.835 47.856 245.746 47.521 245.691 47.2749C245.466 48.1499 244.82 50.3135 243.753 53.7656H247.66ZM260.99 47.439C259.794 47.439 258.868 47.8901 258.211 48.7925C257.555 49.688 257.227 50.939 257.227 52.5454C257.227 55.8882 258.481 57.5596 260.99 57.5596C262.043 57.5596 263.318 57.2964 264.815 56.77V59.436C263.584 59.9487 262.21 60.2051 260.693 60.2051C258.512 60.2051 256.844 59.5454 255.689 58.2261C254.534 56.8999 253.956 54.9995 253.956 52.5249C253.956 50.9663 254.24 49.6025 254.807 48.4336C255.375 47.2578 256.188 46.3589 257.248 45.7368C258.314 45.1079 259.562 44.7935 260.99 44.7935C262.446 44.7935 263.909 45.1455 265.379 45.8496L264.354 48.4336C263.793 48.167 263.229 47.9346 262.662 47.7363C262.094 47.5381 261.537 47.439 260.99 47.439ZM274.177 47.439C272.98 47.439 272.054 47.8901 271.398 48.7925C270.742 49.688 270.414 50.939 270.414 52.5454C270.414 55.8882 271.668 57.5596 274.177 57.5596C275.229 57.5596 276.504 57.2964 278.001 56.77V59.436C276.771 59.9487 275.397 60.2051 273.879 60.2051C271.699 60.2051 270.031 59.5454 268.875 58.2261C267.72 56.8999 267.143 54.9995 267.143 52.5249C267.143 50.9663 267.426 49.6025 267.994 48.4336C268.561 47.2578 269.375 46.3589 270.434 45.7368C271.5 45.1079 272.748 44.7935 274.177 44.7935C275.633 44.7935 277.096 45.1455 278.565 45.8496L277.54 48.4336C276.979 48.167 276.416 47.9346 275.848 47.7363C275.281 47.5381 274.724 47.439 274.177 47.439ZM289.834 60H281.201V45.0088H289.834V47.6133H284.379V50.9048H289.455V53.5093H284.379V57.375H289.834V60ZM301.821 55.8369C301.821 57.1904 301.333 58.2568 300.355 59.0361C299.384 59.8154 298.031 60.2051 296.294 60.2051C294.695 60.2051 293.28 59.9043 292.049 59.3027V56.3496C293.061 56.8008 293.916 57.1187 294.613 57.3032C295.317 57.4878 295.959 57.5801 296.541 57.5801C297.238 57.5801 297.771 57.4468 298.14 57.1802C298.516 56.9136 298.704 56.5171 298.704 55.9907C298.704 55.6968 298.622 55.437 298.458 55.2114C298.294 54.979 298.051 54.7568 297.73 54.5449C297.416 54.333 296.77 53.9946 295.792 53.5298C294.876 53.0991 294.189 52.6855 293.731 52.2891C293.273 51.8926 292.907 51.4312 292.634 50.9048C292.36 50.3784 292.224 49.7632 292.224 49.0591C292.224 47.7329 292.671 46.6904 293.567 45.9316C294.469 45.1729 295.713 44.7935 297.299 44.7935C298.079 44.7935 298.82 44.8857 299.524 45.0703C300.235 45.2549 300.977 45.5146 301.75 45.8496L300.724 48.3208C299.924 47.9927 299.261 47.7637 298.735 47.6338C298.215 47.5039 297.703 47.439 297.197 47.439C296.595 47.439 296.134 47.5791 295.812 47.8594C295.491 48.1396 295.331 48.5054 295.331 48.9565C295.331 49.2368 295.396 49.4829 295.525 49.6948C295.655 49.8999 295.86 50.1016 296.141 50.2998C296.428 50.4912 297.101 50.8398 298.161 51.3457C299.562 52.0156 300.522 52.689 301.042 53.3657C301.562 54.0356 301.821 54.8594 301.821 55.8369ZM313.388 55.8369C313.388 57.1904 312.899 58.2568 311.921 59.0361C310.951 59.8154 309.597 60.2051 307.861 60.2051C306.261 60.2051 304.846 59.9043 303.616 59.3027V56.3496C304.627 56.8008 305.482 57.1187 306.179 57.3032C306.883 57.4878 307.526 57.5801 308.107 57.5801C308.804 57.5801 309.337 57.4468 309.707 57.1802C310.083 56.9136 310.271 56.5171 310.271 55.9907C310.271 55.6968 310.188 55.437 310.024 55.2114C309.86 54.979 309.618 54.7568 309.296 54.5449C308.982 54.333 308.336 53.9946 307.358 53.5298C306.442 53.0991 305.755 52.6855 305.297 52.2891C304.839 51.8926 304.474 51.4312 304.2 50.9048C303.927 50.3784 303.79 49.7632 303.79 49.0591C303.79 47.7329 304.238 46.6904 305.133 45.9316C306.036 45.1729 307.28 44.7935 308.866 44.7935C309.645 44.7935 310.387 44.8857 311.091 45.0703C311.802 45.2549 312.543 45.5146 313.316 45.8496L312.291 48.3208C311.491 47.9927 310.828 47.7637 310.301 47.6338C309.782 47.5039 309.269 47.439 308.763 47.439C308.162 47.439 307.7 47.5791 307.379 47.8594C307.058 48.1396 306.897 48.5054 306.897 48.9565C306.897 49.2368 306.962 49.4829 307.092 49.6948C307.222 49.8999 307.427 50.1016 307.707 50.2998C307.994 50.4912 308.667 50.8398 309.727 51.3457C311.128 52.0156 312.089 52.689 312.608 53.3657C313.128 54.0356 313.388 54.8594 313.388 55.8369ZM324.739 52.0635H325.785C326.762 52.0635 327.494 51.8721 327.979 51.4893C328.464 51.0996 328.707 50.5356 328.707 49.7974C328.707 49.0522 328.502 48.502 328.092 48.1465C327.688 47.791 327.053 47.6133 326.185 47.6133H324.739V52.0635ZM331.917 49.6846C331.917 51.2979 331.411 52.5317 330.399 53.3862C329.394 54.2407 327.962 54.668 326.103 54.668H324.739V60H321.56V45.0088H326.349C328.167 45.0088 329.548 45.4019 330.491 46.188C331.441 46.9673 331.917 48.1328 331.917 49.6846ZM337.925 51.6636H338.951C339.956 51.6636 340.697 51.4961 341.176 51.1611C341.654 50.8262 341.894 50.2998 341.894 49.582C341.894 48.8711 341.647 48.3652 341.155 48.0645C340.67 47.7637 339.915 47.6133 338.889 47.6133H337.925V51.6636ZM337.925 54.2476V60H334.747V45.0088H339.115C341.152 45.0088 342.659 45.3813 343.637 46.1265C344.614 46.8647 345.103 47.9893 345.103 49.5C345.103 50.3818 344.86 51.168 344.375 51.8584C343.89 52.542 343.203 53.0786 342.314 53.4683L346.723 60H343.196L339.617 54.2476H337.925ZM362.217 52.4839C362.217 54.9653 361.602 56.8726 360.371 58.2056C359.141 59.5386 357.377 60.2051 355.08 60.2051C352.783 60.2051 351.02 59.5386 349.789 58.2056C348.559 56.8726 347.943 54.9585 347.943 52.4634C347.943 49.9683 348.559 48.0645 349.789 46.752C351.026 45.4326 352.797 44.7729 355.101 44.7729C357.404 44.7729 359.165 45.436 360.381 46.7622C361.605 48.0884 362.217 49.9956 362.217 52.4839ZM351.276 52.4839C351.276 54.1587 351.594 55.4199 352.229 56.2676C352.865 57.1152 353.815 57.5391 355.08 57.5391C357.616 57.5391 358.884 55.854 358.884 52.4839C358.884 49.1069 357.623 47.4185 355.101 47.4185C353.836 47.4185 352.882 47.8457 352.24 48.7002C351.597 49.5479 351.276 50.8091 351.276 52.4839ZM371.015 51.5815H376.962V59.354C375.998 59.6685 375.089 59.8872 374.234 60.0103C373.387 60.1401 372.519 60.2051 371.63 60.2051C369.367 60.2051 367.638 59.542 366.441 58.2158C365.252 56.8828 364.657 54.9722 364.657 52.4839C364.657 50.064 365.348 48.1772 366.729 46.8237C368.116 45.4702 370.037 44.7935 372.491 44.7935C374.029 44.7935 375.513 45.1011 376.941 45.7163L375.885 48.2593C374.792 47.7124 373.653 47.439 372.471 47.439C371.097 47.439 369.996 47.9004 369.169 48.8232C368.342 49.7461 367.928 50.9868 367.928 52.5454C367.928 54.1724 368.26 55.4165 368.923 56.2778C369.593 57.1323 370.563 57.5596 371.835 57.5596C372.498 57.5596 373.171 57.4912 373.855 57.3545V54.2271H371.015V51.5815ZM383.719 51.6636H384.745C385.75 51.6636 386.491 51.4961 386.97 51.1611C387.448 50.8262 387.688 50.2998 387.688 49.582C387.688 48.8711 387.441 48.3652 386.949 48.0645C386.464 47.7637 385.708 47.6133 384.683 47.6133H383.719V51.6636ZM383.719 54.2476V60H380.541V45.0088H384.909C386.946 45.0088 388.453 45.3813 389.431 46.1265C390.408 46.8647 390.897 47.9893 390.897 49.5C390.897 50.3818 390.654 51.168 390.169 51.8584C389.684 52.542 388.997 53.0786 388.108 53.4683L392.517 60H388.99L385.411 54.2476H383.719ZM403.581 60L402.494 56.4316H397.029L395.942 60H392.517L397.808 44.9473H401.694L407.006 60H403.581ZM401.735 53.7656C400.73 50.5322 400.163 48.7036 400.033 48.2798C399.91 47.856 399.821 47.521 399.767 47.2749C399.541 48.1499 398.895 50.3135 397.829 53.7656H401.735ZM415.25 60L411.641 48.2388H411.548C411.678 50.6313 411.743 52.2275 411.743 53.0273V60H408.903V45.0088H413.23L416.778 56.4727H416.839L420.603 45.0088H424.93V60H421.966V52.9043C421.966 52.5693 421.97 52.1831 421.977 51.7456C421.99 51.3081 422.038 50.146 422.12 48.2593H422.028L418.162 60H415.25ZM440.536 47.439C439.34 47.439 438.414 47.8901 437.757 48.7925C437.101 49.688 436.773 50.939 436.773 52.5454C436.773 55.8882 438.027 57.5596 440.536 57.5596C441.589 57.5596 442.864 57.2964 444.361 56.77V59.436C443.13 59.9487 441.756 60.2051 440.239 60.2051C438.058 60.2051 436.39 59.5454 435.235 58.2261C434.08 56.8999 433.502 54.9995 433.502 52.5249C433.502 50.9663 433.786 49.6025 434.353 48.4336C434.92 47.2578 435.734 46.3589 436.793 45.7368C437.86 45.1079 439.107 44.7935 440.536 44.7935C441.992 44.7935 443.455 45.1455 444.925 45.8496L443.899 48.4336C443.339 48.167 442.775 47.9346 442.208 47.7363C441.64 47.5381 441.083 47.439 440.536 47.439ZM460.962 52.4839C460.962 54.9653 460.347 56.8726 459.116 58.2056C457.886 59.5386 456.122 60.2051 453.825 60.2051C451.528 60.2051 449.765 59.5386 448.534 58.2056C447.304 56.8726 446.688 54.9585 446.688 52.4634C446.688 49.9683 447.304 48.0645 448.534 46.752C449.771 45.4326 451.542 44.7729 453.846 44.7729C456.149 44.7729 457.91 45.436 459.126 46.7622C460.35 48.0884 460.962 49.9956 460.962 52.4839ZM450.021 52.4839C450.021 54.1587 450.339 55.4199 450.975 56.2676C451.61 57.1152 452.561 57.5391 453.825 57.5391C456.361 57.5391 457.629 55.854 457.629 52.4839C457.629 49.1069 456.368 47.4185 453.846 47.4185C452.581 47.4185 451.627 47.8457 450.985 48.7002C450.342 49.5479 450.021 50.8091 450.021 52.4839ZM470.416 60L466.807 48.2388H466.714C466.844 50.6313 466.909 52.2275 466.909 53.0273V60H464.069V45.0088H468.396L471.944 56.4727H472.005L475.769 45.0088H480.096V60H477.132V52.9043C477.132 52.5693 477.136 52.1831 477.143 51.7456C477.156 51.3081 477.204 50.146 477.286 48.2593H477.194L473.328 60H470.416ZM487.058 52.0635H488.104C489.082 52.0635 489.813 51.8721 490.298 51.4893C490.784 51.0996 491.026 50.5356 491.026 49.7974C491.026 49.0522 490.821 48.502 490.411 48.1465C490.008 47.791 489.372 47.6133 488.504 47.6133H487.058V52.0635ZM494.236 49.6846C494.236 51.2979 493.73 52.5317 492.718 53.3862C491.713 54.2407 490.281 54.668 488.422 54.668H487.058V60H483.879V45.0088H488.668C490.486 45.0088 491.867 45.4019 492.811 46.188C493.761 46.9673 494.236 48.1328 494.236 49.6846ZM510.673 52.4839C510.673 54.9653 510.058 56.8726 508.827 58.2056C507.597 59.5386 505.833 60.2051 503.536 60.2051C501.239 60.2051 499.476 59.5386 498.245 58.2056C497.015 56.8726 496.399 54.9585 496.399 52.4634C496.399 49.9683 497.015 48.0645 498.245 46.752C499.482 45.4326 501.253 44.7729 503.557 44.7729C505.86 44.7729 507.621 45.436 508.837 46.7622C510.061 48.0884 510.673 49.9956 510.673 52.4839ZM499.732 52.4839C499.732 54.1587 500.05 55.4199 500.686 56.2676C501.321 57.1152 502.271 57.5391 503.536 57.5391C506.072 57.5391 507.34 55.854 507.34 52.4839C507.34 49.1069 506.079 47.4185 503.557 47.4185C502.292 47.4185 501.338 47.8457 500.696 48.7002C500.053 49.5479 499.732 50.8091 499.732 52.4839ZM527.079 60H523.039L516.518 48.6592H516.425C516.555 50.6621 516.62 52.0908 516.62 52.9453V60H513.78V45.0088H517.789L524.3 56.2368H524.372C524.27 54.2886 524.218 52.9111 524.218 52.1045V45.0088H527.079V60ZM539.497 60H530.863V45.0088H539.497V47.6133H534.042V50.9048H539.117V53.5093H534.042V57.375H539.497V60ZM555.934 60H551.894L545.372 48.6592H545.28C545.41 50.6621 545.475 52.0908 545.475 52.9453V60H542.634V45.0088H546.644L553.155 56.2368H553.227C553.124 54.2886 553.073 52.9111 553.073 52.1045V45.0088H555.934V60ZM565.5 60H562.322V47.6543H558.251V45.0088H569.571V47.6543H565.5V60ZM580.728 55.8369C580.728 57.1904 580.239 58.2568 579.261 59.0361C578.291 59.8154 576.937 60.2051 575.201 60.2051C573.601 60.2051 572.186 59.9043 570.956 59.3027V56.3496C571.967 56.8008 572.822 57.1187 573.519 57.3032C574.223 57.4878 574.866 57.5801 575.447 57.5801C576.144 57.5801 576.677 57.4468 577.046 57.1802C577.422 56.9136 577.61 56.5171 577.61 55.9907C577.61 55.6968 577.528 55.437 577.364 55.2114C577.2 54.979 576.958 54.7568 576.636 54.5449C576.322 54.333 575.676 53.9946 574.698 53.5298C573.782 53.0991 573.095 52.6855 572.637 52.2891C572.179 51.8926 571.813 51.4312 571.54 50.9048C571.267 50.3784 571.13 49.7632 571.13 49.0591C571.13 47.7329 571.578 46.6904 572.473 45.9316C573.375 45.1729 574.62 44.7935 576.206 44.7935C576.985 44.7935 577.727 44.8857 578.431 45.0703C579.142 45.2549 579.883 45.5146 580.656 45.8496L579.63 48.3208C578.831 47.9927 578.167 47.7637 577.641 47.6338C577.122 47.5039 576.609 47.439 576.103 47.439C575.501 47.439 575.04 47.5791 574.719 47.8594C574.397 48.1396 574.237 48.5054 574.237 48.9565C574.237 49.2368 574.302 49.4829 574.432 49.6948C574.562 49.8999 574.767 50.1016 575.047 50.2998C575.334 50.4912 576.007 50.8398 577.067 51.3457C578.468 52.0156 579.429 52.689 579.948 53.3657C580.468 54.0356 580.728 54.8594 580.728 55.8369Z" fill="black"/></g><defs><clipPath id="clip0"><rect width="820" height="998" fill="white"/></clipPath></defs></svg>