<svg width="820" height="998" viewBox="0 0 820 998" fill="none" xmlns="http://www.w3.org/2000/svg">
<g clip-path="url(#clip0)">
<rect width="820" height="998" fill="white"/>
<path d="M615 136C655.56 136 694.996 149.33 727.239 173.937C759.482 198.545 782.744 233.067 793.445 272.19C804.146 311.313 801.694 352.869 786.464 390.462C771.235 428.054 744.074 459.6 709.16 480.245C674.247 500.889 633.516 509.487 593.238 504.716C552.959 499.944 515.365 482.068 486.241 453.838C457.117 425.609 438.077 388.59 432.052 348.48C426.028 308.369 433.352 267.391 452.897 231.85L615 321V136Z" fill="#002D62"/>
<path d="M496.967 178.545C530.236 150.98 572.104 135.928 615.309 136L615 321L496.967 178.545Z" fill="#D11242"/>
<path d="M453.117 231.452C464.497 210.88 479.693 192.666 497.892 177.784L615 321L453.117 231.452Z" fill="#F5F5F5"/>
<circle cx="615" cy="321" r="30.0542" fill="white"/>
<path d="M559.214 415.285C560.502 415.495 561.489 415.978 562.175 416.734C562.861 417.476 563.204 418.4 563.204 419.506C563.204 420.36 562.98 421.151 562.532 421.879C562.084 422.593 561.398 423.167 560.474 423.601C559.564 424.035 558.444 424.252 557.114 424.252C556.078 424.252 555.056 424.119 554.048 423.853C553.054 423.573 552.207 423.181 551.507 422.677L552.83 420.073C553.39 420.493 554.034 420.822 554.762 421.06C555.504 421.284 556.26 421.396 557.03 421.396C557.884 421.396 558.556 421.235 559.046 420.913C559.536 420.577 559.781 420.108 559.781 419.506C559.781 418.302 558.864 417.7 557.03 417.7H555.476V415.453L558.5 412.03H552.242V409.3H562.532V411.505L559.214 415.285ZM571.075 424.252C569.857 424.252 568.772 423.951 567.82 423.349C566.868 422.747 566.119 421.879 565.573 420.745C565.041 419.597 564.775 418.232 564.775 416.65C564.775 415.068 565.041 413.71 565.573 412.576C566.119 411.428 566.868 410.553 567.82 409.951C568.772 409.349 569.857 409.048 571.075 409.048C572.293 409.048 573.378 409.349 574.33 409.951C575.282 410.553 576.024 411.428 576.556 412.576C577.102 413.71 577.375 415.068 577.375 416.65C577.375 418.232 577.102 419.597 576.556 420.745C576.024 421.879 575.282 422.747 574.33 423.349C573.378 423.951 572.293 424.252 571.075 424.252ZM571.075 421.375C571.971 421.375 572.671 420.99 573.175 420.22C573.693 419.45 573.952 418.26 573.952 416.65C573.952 415.04 573.693 413.85 573.175 413.08C572.671 412.31 571.971 411.925 571.075 411.925C570.193 411.925 569.493 412.31 568.975 413.08C568.471 413.85 568.219 415.04 568.219 416.65C568.219 418.26 568.471 419.45 568.975 420.22C569.493 420.99 570.193 421.375 571.075 421.375ZM585.328 424.252C584.11 424.252 583.025 423.951 582.073 423.349C581.121 422.747 580.372 421.879 579.826 420.745C579.294 419.597 579.028 418.232 579.028 416.65C579.028 415.068 579.294 413.71 579.826 412.576C580.372 411.428 581.121 410.553 582.073 409.951C583.025 409.349 584.11 409.048 585.328 409.048C586.546 409.048 587.631 409.349 588.583 409.951C589.535 410.553 590.277 411.428 590.809 412.576C591.355 413.71 591.628 415.068 591.628 416.65C591.628 418.232 591.355 419.597 590.809 420.745C590.277 421.879 589.535 422.747 588.583 423.349C587.631 423.951 586.546 424.252 585.328 424.252ZM585.328 421.375C586.224 421.375 586.924 420.99 587.428 420.22C587.946 419.45 588.205 418.26 588.205 416.65C588.205 415.04 587.946 413.85 587.428 413.08C586.924 412.31 586.224 411.925 585.328 411.925C584.446 411.925 583.746 412.31 583.228 413.08C582.724 413.85 582.472 415.04 582.472 416.65C582.472 418.26 582.724 419.45 583.228 420.22C583.746 420.99 584.446 421.375 585.328 421.375ZM613.634 409.3V424H610.232V417.973H603.554V424H600.152V409.3H603.554V415.096H610.232V409.3H613.634ZM624.231 424.252C622.705 424.252 621.326 423.923 620.094 423.265C618.876 422.607 617.917 421.704 617.217 420.556C616.531 419.394 616.188 418.092 616.188 416.65C616.188 415.208 616.531 413.913 617.217 412.765C617.917 411.603 618.876 410.693 620.094 410.035C621.326 409.377 622.705 409.048 624.231 409.048C625.757 409.048 627.129 409.377 628.347 410.035C629.565 410.693 630.524 411.603 631.224 412.765C631.924 413.913 632.274 415.208 632.274 416.65C632.274 418.092 631.924 419.394 631.224 420.556C630.524 421.704 629.565 422.607 628.347 423.265C627.129 423.923 625.757 424.252 624.231 424.252ZM624.231 421.354C625.099 421.354 625.883 421.158 626.583 420.766C627.283 420.36 627.829 419.8 628.221 419.086C628.627 418.372 628.83 417.56 628.83 416.65C628.83 415.74 628.627 414.928 628.221 414.214C627.829 413.5 627.283 412.947 626.583 412.555C625.883 412.149 625.099 411.946 624.231 411.946C623.363 411.946 622.579 412.149 621.879 412.555C621.179 412.947 620.626 413.5 620.22 414.214C619.828 414.928 619.632 415.74 619.632 416.65C619.632 417.56 619.828 418.372 620.22 419.086C620.626 419.8 621.179 420.36 621.879 420.766C622.579 421.158 623.363 421.354 624.231 421.354ZM641.362 424.252C639.262 424.252 637.624 423.671 636.448 422.509C635.286 421.347 634.705 419.688 634.705 417.532V409.3H638.107V417.406C638.107 420.038 639.199 421.354 641.383 421.354C642.447 421.354 643.259 421.039 643.819 420.409C644.379 419.765 644.659 418.764 644.659 417.406V409.3H648.019V417.532C648.019 419.688 647.431 421.347 646.255 422.509C645.093 423.671 643.462 424.252 641.362 424.252ZM660.747 424L657.912 419.905H657.744H654.783V424H651.381V409.3H657.744C659.046 409.3 660.173 409.517 661.125 409.951C662.091 410.385 662.833 411.001 663.351 411.799C663.869 412.597 664.128 413.542 664.128 414.634C664.128 415.726 663.862 416.671 663.33 417.469C662.812 418.253 662.07 418.855 661.104 419.275L664.401 424H660.747ZM660.684 414.634C660.684 413.808 660.418 413.178 659.886 412.744C659.354 412.296 658.577 412.072 657.555 412.072H654.783V417.196H657.555C658.577 417.196 659.354 416.972 659.886 416.524C660.418 416.076 660.684 415.446 660.684 414.634ZM671.653 424.252C670.491 424.252 669.364 424.098 668.272 423.79C667.194 423.468 666.326 423.055 665.668 422.551L666.823 419.989C667.453 420.451 668.202 420.822 669.07 421.102C669.938 421.382 670.806 421.522 671.674 421.522C672.64 421.522 673.354 421.382 673.816 421.102C674.278 420.808 674.509 420.423 674.509 419.947C674.509 419.597 674.369 419.31 674.089 419.086C673.823 418.848 673.473 418.659 673.039 418.519C672.619 418.379 672.045 418.225 671.317 418.057C670.197 417.791 669.28 417.525 668.566 417.259C667.852 416.993 667.236 416.566 666.718 415.978C666.214 415.39 665.962 414.606 665.962 413.626C665.962 412.772 666.193 412.002 666.655 411.316C667.117 410.616 667.81 410.063 668.734 409.657C669.672 409.251 670.813 409.048 672.157 409.048C673.095 409.048 674.012 409.16 674.908 409.384C675.804 409.608 676.588 409.93 677.26 410.35L676.21 412.933C674.852 412.163 673.494 411.778 672.136 411.778C671.184 411.778 670.477 411.932 670.015 412.24C669.567 412.548 669.343 412.954 669.343 413.458C669.343 413.962 669.602 414.34 670.12 414.592C670.652 414.83 671.457 415.068 672.535 415.306C673.655 415.572 674.572 415.838 675.286 416.104C676 416.37 676.609 416.79 677.113 417.364C677.631 417.938 677.89 418.715 677.89 419.695C677.89 420.535 677.652 421.305 677.176 422.005C676.714 422.691 676.014 423.237 675.076 423.643C674.138 424.049 672.997 424.252 671.653 424.252Z" fill="white"/>
<path d="M572.414 203.913H570.02V207H566.702V203.913H558.785V201.624L565.715 192.3H569.285L562.859 201.141H566.807V198.39H570.02V201.141H572.414V203.913ZM579.732 207.252C578.514 207.252 577.429 206.951 576.477 206.349C575.525 205.747 574.776 204.879 574.23 203.745C573.698 202.597 573.432 201.232 573.432 199.65C573.432 198.068 573.698 196.71 574.23 195.576C574.776 194.428 575.525 193.553 576.477 192.951C577.429 192.349 578.514 192.048 579.732 192.048C580.95 192.048 582.035 192.349 582.987 192.951C583.939 193.553 584.681 194.428 585.213 195.576C585.759 196.71 586.032 198.068 586.032 199.65C586.032 201.232 585.759 202.597 585.213 203.745C584.681 204.879 583.939 205.747 582.987 206.349C582.035 206.951 580.95 207.252 579.732 207.252ZM579.732 204.375C580.628 204.375 581.328 203.99 581.832 203.22C582.35 202.45 582.609 201.26 582.609 199.65C582.609 198.04 582.35 196.85 581.832 196.08C581.328 195.31 580.628 194.925 579.732 194.925C578.85 194.925 578.15 195.31 577.632 196.08C577.128 196.85 576.876 198.04 576.876 199.65C576.876 201.26 577.128 202.45 577.632 203.22C578.15 203.99 578.85 204.375 579.732 204.375Z" fill="white"/>
<path d="M512.003 243.228V246H500.894V243.795L506.564 238.44C507.166 237.866 507.572 237.376 507.782 236.97C507.992 236.55 508.097 236.137 508.097 235.731C508.097 235.143 507.894 234.695 507.488 234.387C507.096 234.065 506.515 233.904 505.745 233.904C505.101 233.904 504.52 234.03 504.002 234.282C503.484 234.52 503.05 234.884 502.7 235.374L500.222 233.778C500.796 232.924 501.587 232.259 502.595 231.783C503.603 231.293 504.758 231.048 506.06 231.048C507.152 231.048 508.104 231.23 508.916 231.594C509.742 231.944 510.379 232.448 510.827 233.106C511.289 233.75 511.52 234.513 511.52 235.395C511.52 236.193 511.352 236.942 511.016 237.642C510.68 238.342 510.029 239.14 509.063 240.036L505.682 243.228H512.003ZM519.665 246.252C518.447 246.252 517.362 245.951 516.41 245.349C515.458 244.747 514.709 243.879 514.163 242.745C513.631 241.597 513.365 240.232 513.365 238.65C513.365 237.068 513.631 235.71 514.163 234.576C514.709 233.428 515.458 232.553 516.41 231.951C517.362 231.349 518.447 231.048 519.665 231.048C520.883 231.048 521.968 231.349 522.92 231.951C523.872 232.553 524.614 233.428 525.146 234.576C525.692 235.71 525.965 237.068 525.965 238.65C525.965 240.232 525.692 241.597 525.146 242.745C524.614 243.879 523.872 244.747 522.92 245.349C521.968 245.951 520.883 246.252 519.665 246.252ZM519.665 243.375C520.561 243.375 521.261 242.99 521.765 242.22C522.283 241.45 522.542 240.26 522.542 238.65C522.542 237.04 522.283 235.85 521.765 235.08C521.261 234.31 520.561 233.925 519.665 233.925C518.783 233.925 518.083 234.31 517.565 235.08C517.061 235.85 516.809 237.04 516.809 238.65C516.809 240.26 517.061 241.45 517.565 242.22C518.083 242.99 518.783 243.375 519.665 243.375Z" fill="black"/>
<path d="M615 541C654.565 541 693.087 553.684 724.912 577.191C756.737 600.697 780.188 633.787 791.822 671.603C803.455 709.418 802.659 749.968 789.55 787.298C776.44 824.627 751.709 856.771 718.985 879.01C686.262 901.249 647.271 912.411 607.737 910.857C568.203 909.304 530.208 895.117 499.33 870.38C468.453 845.642 446.319 811.657 436.179 773.414C426.039 735.17 428.427 694.683 442.991 657.897L615 726V541Z" fill="#002D62"/>
<path d="M453.762 635.295C470.006 606.419 493.707 582.436 522.388 565.85C551.069 549.264 583.678 540.685 616.808 541.009L615 726L453.762 635.295Z" fill="#D11242"/>
<path d="M443.411 656.847C448.63 643.896 455.299 631.577 463.29 620.127L615 726L443.411 656.847Z" fill="#F5F5F5"/>
<circle cx="615" cy="726" r="30.0542" fill="white"/>
<path d="M563.792 826.228V829H552.683V826.795L558.353 821.44C558.955 820.866 559.361 820.376 559.571 819.97C559.781 819.55 559.886 819.137 559.886 818.731C559.886 818.143 559.683 817.695 559.277 817.387C558.885 817.065 558.304 816.904 557.534 816.904C556.89 816.904 556.309 817.03 555.791 817.282C555.273 817.52 554.839 817.884 554.489 818.374L552.011 816.778C552.585 815.924 553.376 815.259 554.384 814.783C555.392 814.293 556.547 814.048 557.849 814.048C558.941 814.048 559.893 814.23 560.705 814.594C561.531 814.944 562.168 815.448 562.616 816.106C563.078 816.75 563.309 817.513 563.309 818.395C563.309 819.193 563.141 819.942 562.805 820.642C562.469 821.342 561.818 822.14 560.852 823.036L557.471 826.228H563.792ZM570.361 814.048C572.419 814.048 574.029 814.678 575.191 815.938C576.353 817.184 576.934 818.983 576.934 821.335C576.934 823.001 576.619 824.429 575.989 825.619C575.373 826.809 574.498 827.712 573.364 828.328C572.23 828.944 570.921 829.252 569.437 829.252C568.653 829.252 567.904 829.168 567.19 829C566.476 828.818 565.867 828.566 565.363 828.244L566.623 825.745C567.337 826.235 568.254 826.48 569.374 826.48C570.62 826.48 571.607 826.116 572.335 825.388C573.063 824.646 573.455 823.582 573.511 822.196C572.629 823.078 571.411 823.519 569.857 823.519C568.919 823.519 568.065 823.33 567.295 822.952C566.525 822.574 565.916 822.042 565.468 821.356C565.02 820.656 564.796 819.851 564.796 818.941C564.796 817.961 565.041 817.1 565.531 816.358C566.021 815.616 566.686 815.049 567.526 814.657C568.38 814.251 569.325 814.048 570.361 814.048ZM570.613 820.978C571.355 820.978 571.957 820.775 572.419 820.369C572.895 819.949 573.133 819.417 573.133 818.773C573.133 818.129 572.902 817.604 572.44 817.198C571.992 816.792 571.369 816.589 570.571 816.589C569.843 816.589 569.248 816.785 568.786 817.177C568.338 817.569 568.114 818.101 568.114 818.773C568.114 819.445 568.338 819.984 568.786 820.39C569.248 820.782 569.857 820.978 570.613 820.978ZM584.867 829.252C583.649 829.252 582.564 828.951 581.612 828.349C580.66 827.747 579.911 826.879 579.365 825.745C578.833 824.597 578.567 823.232 578.567 821.65C578.567 820.068 578.833 818.71 579.365 817.576C579.911 816.428 580.66 815.553 581.612 814.951C582.564 814.349 583.649 814.048 584.867 814.048C586.085 814.048 587.17 814.349 588.122 814.951C589.074 815.553 589.816 816.428 590.348 817.576C590.894 818.71 591.167 820.068 591.167 821.65C591.167 823.232 590.894 824.597 590.348 825.745C589.816 826.879 589.074 827.747 588.122 828.349C587.17 828.951 586.085 829.252 584.867 829.252ZM584.867 826.375C585.763 826.375 586.463 825.99 586.967 825.22C587.485 824.45 587.744 823.26 587.744 821.65C587.744 820.04 587.485 818.85 586.967 818.08C586.463 817.31 585.763 816.925 584.867 816.925C583.985 816.925 583.285 817.31 582.767 818.08C582.263 818.85 582.011 820.04 582.011 821.65C582.011 823.26 582.263 824.45 582.767 825.22C583.285 825.99 583.985 826.375 584.867 826.375ZM613.173 814.3V829H609.771V822.973H603.093V829H599.691V814.3H603.093V820.096H609.771V814.3H613.173ZM623.77 829.252C622.244 829.252 620.865 828.923 619.633 828.265C618.415 827.607 617.456 826.704 616.756 825.556C616.07 824.394 615.727 823.092 615.727 821.65C615.727 820.208 616.07 818.913 616.756 817.765C617.456 816.603 618.415 815.693 619.633 815.035C620.865 814.377 622.244 814.048 623.77 814.048C625.296 814.048 626.668 814.377 627.886 815.035C629.104 815.693 630.063 816.603 630.763 817.765C631.463 818.913 631.813 820.208 631.813 821.65C631.813 823.092 631.463 824.394 630.763 825.556C630.063 826.704 629.104 827.607 627.886 828.265C626.668 828.923 625.296 829.252 623.77 829.252ZM623.77 826.354C624.638 826.354 625.422 826.158 626.122 825.766C626.822 825.36 627.368 824.8 627.76 824.086C628.166 823.372 628.369 822.56 628.369 821.65C628.369 820.74 628.166 819.928 627.76 819.214C627.368 818.5 626.822 817.947 626.122 817.555C625.422 817.149 624.638 816.946 623.77 816.946C622.902 816.946 622.118 817.149 621.418 817.555C620.718 817.947 620.165 818.5 619.759 819.214C619.367 819.928 619.171 820.74 619.171 821.65C619.171 822.56 619.367 823.372 619.759 824.086C620.165 824.8 620.718 825.36 621.418 825.766C622.118 826.158 622.902 826.354 623.77 826.354ZM640.9 829.252C638.8 829.252 637.162 828.671 635.986 827.509C634.824 826.347 634.243 824.688 634.243 822.532V814.3H637.645V822.406C637.645 825.038 638.737 826.354 640.921 826.354C641.985 826.354 642.797 826.039 643.357 825.409C643.917 824.765 644.197 823.764 644.197 822.406V814.3H647.557V822.532C647.557 824.688 646.969 826.347 645.793 827.509C644.631 828.671 643 829.252 640.9 829.252ZM660.285 829L657.45 824.905H657.282H654.321V829H650.919V814.3H657.282C658.584 814.3 659.711 814.517 660.663 814.951C661.629 815.385 662.371 816.001 662.889 816.799C663.407 817.597 663.666 818.542 663.666 819.634C663.666 820.726 663.4 821.671 662.868 822.469C662.35 823.253 661.608 823.855 660.642 824.275L663.939 829H660.285ZM660.222 819.634C660.222 818.808 659.956 818.178 659.424 817.744C658.892 817.296 658.115 817.072 657.093 817.072H654.321V822.196H657.093C658.115 822.196 658.892 821.972 659.424 821.524C659.956 821.076 660.222 820.446 660.222 819.634ZM671.192 829.252C670.03 829.252 668.903 829.098 667.811 828.79C666.733 828.468 665.865 828.055 665.207 827.551L666.362 824.989C666.992 825.451 667.741 825.822 668.609 826.102C669.477 826.382 670.345 826.522 671.213 826.522C672.179 826.522 672.893 826.382 673.355 826.102C673.817 825.808 674.048 825.423 674.048 824.947C674.048 824.597 673.908 824.31 673.628 824.086C673.362 823.848 673.012 823.659 672.578 823.519C672.158 823.379 671.584 823.225 670.856 823.057C669.736 822.791 668.819 822.525 668.105 822.259C667.391 821.993 666.775 821.566 666.257 820.978C665.753 820.39 665.501 819.606 665.501 818.626C665.501 817.772 665.732 817.002 666.194 816.316C666.656 815.616 667.349 815.063 668.273 814.657C669.211 814.251 670.352 814.048 671.696 814.048C672.634 814.048 673.551 814.16 674.447 814.384C675.343 814.608 676.127 814.93 676.799 815.35L675.749 817.933C674.391 817.163 673.033 816.778 671.675 816.778C670.723 816.778 670.016 816.932 669.554 817.24C669.106 817.548 668.882 817.954 668.882 818.458C668.882 818.962 669.141 819.34 669.659 819.592C670.191 819.83 670.996 820.068 672.074 820.306C673.194 820.572 674.111 820.838 674.825 821.104C675.539 821.37 676.148 821.79 676.652 822.364C677.17 822.938 677.429 823.715 677.429 824.695C677.429 825.535 677.191 826.305 676.715 827.005C676.253 827.691 675.553 828.237 674.615 828.643C673.677 829.049 672.536 829.252 671.192 829.252Z" fill="white"/>
<path d="M549.584 606.781C550.522 606.781 551.376 606.97 552.146 607.348C552.916 607.726 553.525 608.265 553.973 608.965C554.421 609.651 554.645 610.449 554.645 611.359C554.645 612.339 554.4 613.2 553.91 613.942C553.42 614.684 552.748 615.258 551.894 615.664C551.054 616.056 550.116 616.252 549.08 616.252C547.022 616.252 545.412 615.622 544.25 614.362C543.088 613.102 542.507 611.303 542.507 608.965C542.507 607.299 542.822 605.871 543.452 604.681C544.082 603.491 544.957 602.588 546.077 601.972C547.211 601.356 548.52 601.048 550.004 601.048C550.788 601.048 551.537 601.139 552.251 601.321C552.979 601.489 553.595 601.734 554.099 602.056L552.839 604.555C552.111 604.065 551.194 603.82 550.088 603.82C548.842 603.82 547.855 604.184 547.127 604.912C546.399 605.64 546.007 606.697 545.951 608.083C546.819 607.215 548.03 606.781 549.584 606.781ZM548.891 613.711C549.619 613.711 550.207 613.515 550.655 613.123C551.117 612.731 551.348 612.199 551.348 611.527C551.348 610.855 551.117 610.323 550.655 609.931C550.207 609.525 549.605 609.322 548.849 609.322C548.107 609.322 547.498 609.532 547.022 609.952C546.546 610.358 546.308 610.883 546.308 611.527C546.308 612.171 546.539 612.696 547.001 613.102C547.463 613.508 548.093 613.711 548.891 613.711ZM562.178 616.252C560.96 616.252 559.875 615.951 558.923 615.349C557.971 614.747 557.222 613.879 556.676 612.745C556.144 611.597 555.878 610.232 555.878 608.65C555.878 607.068 556.144 605.71 556.676 604.576C557.222 603.428 557.971 602.553 558.923 601.951C559.875 601.349 560.96 601.048 562.178 601.048C563.396 601.048 564.481 601.349 565.433 601.951C566.385 602.553 567.127 603.428 567.659 604.576C568.205 605.71 568.478 607.068 568.478 608.65C568.478 610.232 568.205 611.597 567.659 612.745C567.127 613.879 566.385 614.747 565.433 615.349C564.481 615.951 563.396 616.252 562.178 616.252ZM562.178 613.375C563.074 613.375 563.774 612.99 564.278 612.22C564.796 611.45 565.055 610.26 565.055 608.65C565.055 607.04 564.796 605.85 564.278 605.08C563.774 604.31 563.074 603.925 562.178 603.925C561.296 603.925 560.596 604.31 560.078 605.08C559.574 605.85 559.322 607.04 559.322 608.65C559.322 610.26 559.574 611.45 560.078 612.22C560.596 612.99 561.296 613.375 562.178 613.375Z" fill="white"/>
<path d="M490.751 654.3V669H487.349V657.03H484.409V654.3H490.751ZM499.604 669.252C498.386 669.252 497.301 668.951 496.349 668.349C495.397 667.747 494.648 666.879 494.102 665.745C493.57 664.597 493.304 663.232 493.304 661.65C493.304 660.068 493.57 658.71 494.102 657.576C494.648 656.428 495.397 655.553 496.349 654.951C497.301 654.349 498.386 654.048 499.604 654.048C500.822 654.048 501.907 654.349 502.859 654.951C503.811 655.553 504.553 656.428 505.085 657.576C505.631 658.71 505.904 660.068 505.904 661.65C505.904 663.232 505.631 664.597 505.085 665.745C504.553 666.879 503.811 667.747 502.859 668.349C501.907 668.951 500.822 669.252 499.604 669.252ZM499.604 666.375C500.5 666.375 501.2 665.99 501.704 665.22C502.222 664.45 502.481 663.26 502.481 661.65C502.481 660.04 502.222 658.85 501.704 658.08C501.2 657.31 500.5 656.925 499.604 656.925C498.722 656.925 498.022 657.31 497.504 658.08C497 658.85 496.748 660.04 496.748 661.65C496.748 663.26 497 664.45 497.504 665.22C498.022 665.99 498.722 666.375 499.604 666.375Z" fill="black"/>
<path d="M205 541C247.053 541 287.851 555.327 320.67 581.62C353.489 607.914 376.371 644.604 385.545 685.644C394.718 726.683 389.636 769.624 371.135 807.389C352.634 845.153 321.82 875.488 283.769 893.393C245.719 911.298 202.703 915.705 161.813 905.888C120.922 896.071 84.5957 872.616 58.8213 839.388C33.0469 806.16 19.3623 765.142 20.0228 723.094C20.6834 681.047 35.6496 640.479 62.4551 608.077L205 726V541Z" fill="#002D62"/>
<path d="M136.777 554.039C158.45 545.44 181.554 541.016 204.871 541L205 726L136.777 554.039Z" fill="#D11242"/>
<path d="M43.1171 636.452C63.9553 598.781 97.2789 569.557 137.347 553.814L205 726L43.1171 636.452Z" fill="#F5F5F5"/>
<circle cx="205" cy="726" r="30.0542" fill="white"/>
<path d="M152.229 820.285C153.517 820.495 154.504 820.978 155.19 821.734C155.876 822.476 156.219 823.4 156.219 824.506C156.219 825.36 155.995 826.151 155.547 826.879C155.099 827.593 154.413 828.167 153.489 828.601C152.579 829.035 151.459 829.252 150.129 829.252C149.093 829.252 148.071 829.119 147.063 828.853C146.069 828.573 145.222 828.181 144.522 827.677L145.845 825.073C146.405 825.493 147.049 825.822 147.777 826.06C148.519 826.284 149.275 826.396 150.045 826.396C150.899 826.396 151.571 826.235 152.061 825.913C152.551 825.577 152.796 825.108 152.796 824.506C152.796 823.302 151.879 822.7 150.045 822.7H148.491V820.453L151.515 817.03H145.257V814.3H155.547V816.505L152.229 820.285ZM163.46 814.3V829H160.058V817.03H157.118V814.3H163.46ZM172.313 829.252C171.095 829.252 170.01 828.951 169.058 828.349C168.106 827.747 167.357 826.879 166.811 825.745C166.279 824.597 166.013 823.232 166.013 821.65C166.013 820.068 166.279 818.71 166.811 817.576C167.357 816.428 168.106 815.553 169.058 814.951C170.01 814.349 171.095 814.048 172.313 814.048C173.531 814.048 174.616 814.349 175.568 814.951C176.52 815.553 177.262 816.428 177.794 817.576C178.34 818.71 178.613 820.068 178.613 821.65C178.613 823.232 178.34 824.597 177.794 825.745C177.262 826.879 176.52 827.747 175.568 828.349C174.616 828.951 173.531 829.252 172.313 829.252ZM172.313 826.375C173.209 826.375 173.909 825.99 174.413 825.22C174.931 824.45 175.19 823.26 175.19 821.65C175.19 820.04 174.931 818.85 174.413 818.08C173.909 817.31 173.209 816.925 172.313 816.925C171.431 816.925 170.731 817.31 170.213 818.08C169.709 818.85 169.457 820.04 169.457 821.65C169.457 823.26 169.709 824.45 170.213 825.22C170.731 825.99 171.431 826.375 172.313 826.375ZM200.62 814.3V829H197.218V822.973H190.54V829H187.138V814.3H190.54V820.096H197.218V814.3H200.62ZM211.216 829.252C209.69 829.252 208.311 828.923 207.079 828.265C205.861 827.607 204.902 826.704 204.202 825.556C203.516 824.394 203.173 823.092 203.173 821.65C203.173 820.208 203.516 818.913 204.202 817.765C204.902 816.603 205.861 815.693 207.079 815.035C208.311 814.377 209.69 814.048 211.216 814.048C212.742 814.048 214.114 814.377 215.332 815.035C216.55 815.693 217.509 816.603 218.209 817.765C218.909 818.913 219.259 820.208 219.259 821.65C219.259 823.092 218.909 824.394 218.209 825.556C217.509 826.704 216.55 827.607 215.332 828.265C214.114 828.923 212.742 829.252 211.216 829.252ZM211.216 826.354C212.084 826.354 212.868 826.158 213.568 825.766C214.268 825.36 214.814 824.8 215.206 824.086C215.612 823.372 215.815 822.56 215.815 821.65C215.815 820.74 215.612 819.928 215.206 819.214C214.814 818.5 214.268 817.947 213.568 817.555C212.868 817.149 212.084 816.946 211.216 816.946C210.348 816.946 209.564 817.149 208.864 817.555C208.164 817.947 207.611 818.5 207.205 819.214C206.813 819.928 206.617 820.74 206.617 821.65C206.617 822.56 206.813 823.372 207.205 824.086C207.611 824.8 208.164 825.36 208.864 825.766C209.564 826.158 210.348 826.354 211.216 826.354ZM228.347 829.252C226.247 829.252 224.609 828.671 223.433 827.509C222.271 826.347 221.69 824.688 221.69 822.532V814.3H225.092V822.406C225.092 825.038 226.184 826.354 228.368 826.354C229.432 826.354 230.244 826.039 230.804 825.409C231.364 824.765 231.644 823.764 231.644 822.406V814.3H235.004V822.532C235.004 824.688 234.416 826.347 233.24 827.509C232.078 828.671 230.447 829.252 228.347 829.252ZM247.732 829L244.897 824.905H244.729H241.768V829H238.366V814.3H244.729C246.031 814.3 247.158 814.517 248.11 814.951C249.076 815.385 249.818 816.001 250.336 816.799C250.854 817.597 251.113 818.542 251.113 819.634C251.113 820.726 250.847 821.671 250.315 822.469C249.797 823.253 249.055 823.855 248.089 824.275L251.386 829H247.732ZM247.669 819.634C247.669 818.808 247.403 818.178 246.871 817.744C246.339 817.296 245.562 817.072 244.54 817.072H241.768V822.196H244.54C245.562 822.196 246.339 821.972 246.871 821.524C247.403 821.076 247.669 820.446 247.669 819.634ZM258.638 829.252C257.476 829.252 256.349 829.098 255.257 828.79C254.179 828.468 253.311 828.055 252.653 827.551L253.808 824.989C254.438 825.451 255.187 825.822 256.055 826.102C256.923 826.382 257.791 826.522 258.659 826.522C259.625 826.522 260.339 826.382 260.801 826.102C261.263 825.808 261.494 825.423 261.494 824.947C261.494 824.597 261.354 824.31 261.074 824.086C260.808 823.848 260.458 823.659 260.024 823.519C259.604 823.379 259.03 823.225 258.302 823.057C257.182 822.791 256.265 822.525 255.551 822.259C254.837 821.993 254.221 821.566 253.703 820.978C253.199 820.39 252.947 819.606 252.947 818.626C252.947 817.772 253.178 817.002 253.64 816.316C254.102 815.616 254.795 815.063 255.719 814.657C256.657 814.251 257.798 814.048 259.142 814.048C260.08 814.048 260.997 814.16 261.893 814.384C262.789 814.608 263.573 814.93 264.245 815.35L263.195 817.933C261.837 817.163 260.479 816.778 259.121 816.778C258.169 816.778 257.462 816.932 257 817.24C256.552 817.548 256.328 817.954 256.328 818.458C256.328 818.962 256.587 819.34 257.105 819.592C257.637 819.83 258.442 820.068 259.52 820.306C260.64 820.572 261.557 820.838 262.271 821.104C262.985 821.37 263.594 821.79 264.098 822.364C264.616 822.938 264.875 823.715 264.875 824.695C264.875 825.535 264.637 826.305 264.161 827.005C263.699 827.691 262.999 828.237 262.061 828.643C261.123 829.049 259.982 829.252 258.638 829.252Z" fill="white"/>
<path d="M179.003 603.228V606H167.894V603.795L173.564 598.44C174.166 597.866 174.572 597.376 174.782 596.97C174.992 596.55 175.097 596.137 175.097 595.731C175.097 595.143 174.894 594.695 174.488 594.387C174.096 594.065 173.515 593.904 172.745 593.904C172.101 593.904 171.52 594.03 171.002 594.282C170.484 594.52 170.05 594.884 169.7 595.374L167.222 593.778C167.796 592.924 168.587 592.259 169.595 591.783C170.603 591.293 171.758 591.048 173.06 591.048C174.152 591.048 175.104 591.23 175.916 591.594C176.742 591.944 177.379 592.448 177.827 593.106C178.289 593.75 178.52 594.513 178.52 595.395C178.52 596.193 178.352 596.942 178.016 597.642C177.68 598.342 177.029 599.14 176.063 600.036L172.682 603.228H179.003ZM186.665 606.252C185.447 606.252 184.362 605.951 183.41 605.349C182.458 604.747 181.709 603.879 181.163 602.745C180.631 601.597 180.365 600.232 180.365 598.65C180.365 597.068 180.631 595.71 181.163 594.576C181.709 593.428 182.458 592.553 183.41 591.951C184.362 591.349 185.447 591.048 186.665 591.048C187.883 591.048 188.968 591.349 189.92 591.951C190.872 592.553 191.614 593.428 192.146 594.576C192.692 595.71 192.965 597.068 192.965 598.65C192.965 600.232 192.692 601.597 192.146 602.745C191.614 603.879 190.872 604.747 189.92 605.349C188.968 605.951 187.883 606.252 186.665 606.252ZM186.665 603.375C187.561 603.375 188.261 602.99 188.765 602.22C189.283 601.45 189.542 600.26 189.542 598.65C189.542 597.04 189.283 595.85 188.765 595.08C188.261 594.31 187.561 593.925 186.665 593.925C185.783 593.925 185.083 594.31 184.565 595.08C184.061 595.85 183.809 597.04 183.809 598.65C183.809 600.26 184.061 601.45 184.565 602.22C185.083 602.99 185.783 603.375 186.665 603.375Z" fill="white"/>
<path d="M111.846 630.285C113.134 630.495 114.121 630.978 114.807 631.734C115.493 632.476 115.836 633.4 115.836 634.506C115.836 635.36 115.612 636.151 115.164 636.879C114.716 637.593 114.03 638.167 113.106 638.601C112.196 639.035 111.076 639.252 109.746 639.252C108.71 639.252 107.688 639.119 106.68 638.853C105.686 638.573 104.839 638.181 104.139 637.677L105.462 635.073C106.022 635.493 106.666 635.822 107.394 636.06C108.136 636.284 108.892 636.396 109.662 636.396C110.516 636.396 111.188 636.235 111.678 635.913C112.168 635.577 112.413 635.108 112.413 634.506C112.413 633.302 111.496 632.7 109.662 632.7H108.108V630.453L111.132 627.03H104.874V624.3H115.164V626.505L111.846 630.285ZM123.706 639.252C122.488 639.252 121.403 638.951 120.451 638.349C119.499 637.747 118.75 636.879 118.204 635.745C117.672 634.597 117.406 633.232 117.406 631.65C117.406 630.068 117.672 628.71 118.204 627.576C118.75 626.428 119.499 625.553 120.451 624.951C121.403 624.349 122.488 624.048 123.706 624.048C124.924 624.048 126.009 624.349 126.961 624.951C127.913 625.553 128.655 626.428 129.187 627.576C129.733 628.71 130.006 630.068 130.006 631.65C130.006 633.232 129.733 634.597 129.187 635.745C128.655 636.879 127.913 637.747 126.961 638.349C126.009 638.951 124.924 639.252 123.706 639.252ZM123.706 636.375C124.602 636.375 125.302 635.99 125.806 635.22C126.324 634.45 126.583 633.26 126.583 631.65C126.583 630.04 126.324 628.85 125.806 628.08C125.302 627.31 124.602 626.925 123.706 626.925C122.824 626.925 122.124 627.31 121.606 628.08C121.102 628.85 120.85 630.04 120.85 631.65C120.85 633.26 121.102 634.45 121.606 635.22C122.124 635.99 122.824 636.375 123.706 636.375Z" fill="black"/>
<circle cx="110" cy="255" r="15.5" fill="#002D62" stroke="black"/>
<circle cx="110" cy="321" r="15.5" fill="#D11242" stroke="black"/>
<circle cx="109" cy="387" r="15.5" fill="#F5F5F5" stroke="black"/>
<path d="M147.335 251.81C148.585 251.81 149.545 252.11 150.215 252.71C150.885 253.3 151.22 254.195 151.22 255.395V260H149.03V258.995C148.59 259.745 147.77 260.12 146.57 260.12C145.95 260.12 145.41 260.015 144.95 259.805C144.5 259.595 144.155 259.305 143.915 258.935C143.675 258.565 143.555 258.145 143.555 257.675C143.555 256.925 143.835 256.335 144.395 255.905C144.965 255.475 145.84 255.26 147.02 255.26H148.88C148.88 254.75 148.725 254.36 148.415 254.09C148.105 253.81 147.64 253.67 147.02 253.67C146.59 253.67 146.165 253.74 145.745 253.88C145.335 254.01 144.985 254.19 144.695 254.42L143.855 252.785C144.295 252.475 144.82 252.235 145.43 252.065C146.05 251.895 146.685 251.81 147.335 251.81ZM147.155 258.545C147.555 258.545 147.91 258.455 148.22 258.275C148.53 258.085 148.75 257.81 148.88 257.45V256.625H147.275C146.315 256.625 145.835 256.94 145.835 257.57C145.835 257.87 145.95 258.11 146.18 258.29C146.42 258.46 146.745 258.545 147.155 258.545ZM155.903 252.11H157.973V253.91H155.963V260H153.623V253.91H152.378V252.11H153.623V251.75C153.623 250.83 153.893 250.1 154.433 249.56C154.983 249.02 155.753 248.75 156.743 248.75C157.093 248.75 157.423 248.79 157.733 248.87C158.053 248.94 158.318 249.045 158.528 249.185L157.913 250.88C157.643 250.69 157.328 250.595 156.968 250.595C156.258 250.595 155.903 250.985 155.903 251.765V252.11ZM164.344 259.61C164.114 259.78 163.829 259.91 163.489 260C163.159 260.08 162.809 260.12 162.439 260.12C161.479 260.12 160.734 259.875 160.204 259.385C159.684 258.895 159.424 258.175 159.424 257.225V253.91H158.179V252.11H159.424V250.145H161.764V252.11H163.774V253.91H161.764V257.195C161.764 257.535 161.849 257.8 162.019 257.99C162.199 258.17 162.449 258.26 162.769 258.26C163.139 258.26 163.454 258.16 163.714 257.96L164.344 259.61ZM173.313 255.995C173.313 256.025 173.298 256.235 173.268 256.625H167.163C167.273 257.125 167.533 257.52 167.943 257.81C168.353 258.1 168.863 258.245 169.473 258.245C169.893 258.245 170.263 258.185 170.583 258.065C170.913 257.935 171.218 257.735 171.498 257.465L172.743 258.815C171.983 259.685 170.873 260.12 169.413 260.12C168.503 260.12 167.698 259.945 166.998 259.595C166.298 259.235 165.758 258.74 165.378 258.11C164.998 257.48 164.808 256.765 164.808 255.965C164.808 255.175 164.993 254.465 165.363 253.835C165.743 253.195 166.258 252.7 166.908 252.35C167.568 251.99 168.303 251.81 169.113 251.81C169.903 251.81 170.618 251.98 171.258 252.32C171.898 252.66 172.398 253.15 172.758 253.79C173.128 254.42 173.313 255.155 173.313 255.995ZM169.128 253.58C168.598 253.58 168.153 253.73 167.793 254.03C167.433 254.33 167.213 254.74 167.133 255.26H171.108C171.028 254.75 170.808 254.345 170.448 254.045C170.088 253.735 169.648 253.58 169.128 253.58ZM177.106 252.995C177.386 252.605 177.761 252.31 178.231 252.11C178.711 251.91 179.261 251.81 179.881 251.81V253.97C179.621 253.95 179.446 253.94 179.356 253.94C178.686 253.94 178.161 254.13 177.781 254.51C177.401 254.88 177.211 255.44 177.211 256.19V260H174.871V251.93H177.106V252.995ZM188.294 260.12C187.624 260.12 186.969 260.04 186.329 259.88C185.689 259.71 185.179 259.5 184.799 259.25L185.579 257.57C185.939 257.8 186.374 257.99 186.884 258.14C187.394 258.28 187.894 258.35 188.384 258.35C189.374 258.35 189.869 258.105 189.869 257.615C189.869 257.385 189.734 257.22 189.464 257.12C189.194 257.02 188.779 256.935 188.219 256.865C187.559 256.765 187.014 256.65 186.584 256.52C186.154 256.39 185.779 256.16 185.459 255.83C185.149 255.5 184.994 255.03 184.994 254.42C184.994 253.91 185.139 253.46 185.429 253.07C185.729 252.67 186.159 252.36 186.719 252.14C187.289 251.92 187.959 251.81 188.729 251.81C189.299 251.81 189.864 251.875 190.424 252.005C190.994 252.125 191.464 252.295 191.834 252.515L191.054 254.18C190.344 253.78 189.569 253.58 188.729 253.58C188.229 253.58 187.854 253.65 187.604 253.79C187.354 253.93 187.229 254.11 187.229 254.33C187.229 254.58 187.364 254.755 187.634 254.855C187.904 254.955 188.334 255.05 188.924 255.14C189.584 255.25 190.124 255.37 190.544 255.5C190.964 255.62 191.329 255.845 191.639 256.175C191.949 256.505 192.104 256.965 192.104 257.555C192.104 258.055 191.954 258.5 191.654 258.89C191.354 259.28 190.914 259.585 190.334 259.805C189.764 260.015 189.084 260.12 188.294 260.12ZM197.448 260.12C196.588 260.12 195.813 259.945 195.123 259.595C194.443 259.235 193.908 258.74 193.518 258.11C193.138 257.48 192.948 256.765 192.948 255.965C192.948 255.165 193.138 254.45 193.518 253.82C193.908 253.19 194.443 252.7 195.123 252.35C195.813 251.99 196.588 251.81 197.448 251.81C198.298 251.81 199.038 251.99 199.668 252.35C200.308 252.7 200.773 253.205 201.063 253.865L199.248 254.84C198.828 254.1 198.223 253.73 197.433 253.73C196.823 253.73 196.318 253.93 195.918 254.33C195.518 254.73 195.318 255.275 195.318 255.965C195.318 256.655 195.518 257.2 195.918 257.6C196.318 258 196.823 258.2 197.433 258.2C198.233 258.2 198.838 257.83 199.248 257.09L201.063 258.08C200.773 258.72 200.308 259.22 199.668 259.58C199.038 259.94 198.298 260.12 197.448 260.12ZM207.256 251.81C208.256 251.81 209.061 252.11 209.671 252.71C210.291 253.31 210.601 254.2 210.601 255.38V260H208.261V255.74C208.261 255.1 208.121 254.625 207.841 254.315C207.561 253.995 207.156 253.835 206.626 253.835C206.036 253.835 205.566 254.02 205.216 254.39C204.866 254.75 204.691 255.29 204.691 256.01V260H202.351V248.87H204.691V252.77C205.001 252.46 205.376 252.225 205.816 252.065C206.256 251.895 206.736 251.81 207.256 251.81ZM216.65 260.12C215.8 260.12 215.035 259.945 214.355 259.595C213.685 259.235 213.16 258.74 212.78 258.11C212.4 257.48 212.21 256.765 212.21 255.965C212.21 255.165 212.4 254.45 212.78 253.82C213.16 253.19 213.685 252.7 214.355 252.35C215.035 251.99 215.8 251.81 216.65 251.81C217.5 251.81 218.26 251.99 218.93 252.35C219.6 252.7 220.125 253.19 220.505 253.82C220.885 254.45 221.075 255.165 221.075 255.965C221.075 256.765 220.885 257.48 220.505 258.11C220.125 258.74 219.6 259.235 218.93 259.595C218.26 259.945 217.5 260.12 216.65 260.12ZM216.65 258.2C217.25 258.2 217.74 258 218.12 257.6C218.51 257.19 218.705 256.645 218.705 255.965C218.705 255.285 218.51 254.745 218.12 254.345C217.74 253.935 217.25 253.73 216.65 253.73C216.05 253.73 215.555 253.935 215.165 254.345C214.775 254.745 214.58 255.285 214.58 255.965C214.58 256.645 214.775 257.19 215.165 257.6C215.555 258 216.05 258.2 216.65 258.2ZM226.48 260.12C225.63 260.12 224.865 259.945 224.185 259.595C223.515 259.235 222.99 258.74 222.61 258.11C222.23 257.48 222.04 256.765 222.04 255.965C222.04 255.165 222.23 254.45 222.61 253.82C222.99 253.19 223.515 252.7 224.185 252.35C224.865 251.99 225.63 251.81 226.48 251.81C227.33 251.81 228.09 251.99 228.76 252.35C229.43 252.7 229.955 253.19 230.335 253.82C230.715 254.45 230.905 255.165 230.905 255.965C230.905 256.765 230.715 257.48 230.335 258.11C229.955 258.74 229.43 259.235 228.76 259.595C228.09 259.945 227.33 260.12 226.48 260.12ZM226.48 258.2C227.08 258.2 227.57 258 227.95 257.6C228.34 257.19 228.535 256.645 228.535 255.965C228.535 255.285 228.34 254.745 227.95 254.345C227.57 253.935 227.08 253.73 226.48 253.73C225.88 253.73 225.385 253.935 224.995 254.345C224.605 254.745 224.41 255.285 224.41 255.965C224.41 256.645 224.605 257.19 224.995 257.6C225.385 258 225.88 258.2 226.48 258.2ZM232.469 248.87H234.809V260H232.469V248.87ZM241.228 251.93H243.568V260H241.228V251.93ZM242.398 250.805C241.968 250.805 241.618 250.68 241.348 250.43C241.078 250.18 240.943 249.87 240.943 249.5C240.943 249.13 241.078 248.82 241.348 248.57C241.618 248.32 241.968 248.195 242.398 248.195C242.828 248.195 243.178 248.315 243.448 248.555C243.718 248.795 243.853 249.095 243.853 249.455C243.853 249.845 243.718 250.17 243.448 250.43C243.178 250.68 242.828 250.805 242.398 250.805ZM250.645 251.81C251.645 251.81 252.45 252.11 253.06 252.71C253.68 253.31 253.99 254.2 253.99 255.38V260H251.65V255.74C251.65 255.1 251.51 254.625 251.23 254.315C250.95 253.995 250.545 253.835 250.015 253.835C249.425 253.835 248.955 254.02 248.605 254.39C248.255 254.75 248.08 255.29 248.08 256.01V260H245.74V251.93H247.975V252.875C248.285 252.535 248.67 252.275 249.13 252.095C249.59 251.905 250.095 251.81 250.645 251.81ZM258.826 260.12C258.156 260.12 257.501 260.04 256.861 259.88C256.221 259.71 255.711 259.5 255.331 259.25L256.111 257.57C256.471 257.8 256.906 257.99 257.416 258.14C257.926 258.28 258.426 258.35 258.916 258.35C259.906 258.35 260.401 258.105 260.401 257.615C260.401 257.385 260.266 257.22 259.996 257.12C259.726 257.02 259.311 256.935 258.751 256.865C258.091 256.765 257.546 256.65 257.116 256.52C256.686 256.39 256.311 256.16 255.991 255.83C255.681 255.5 255.526 255.03 255.526 254.42C255.526 253.91 255.671 253.46 255.961 253.07C256.261 252.67 256.691 252.36 257.251 252.14C257.821 251.92 258.491 251.81 259.261 251.81C259.831 251.81 260.396 251.875 260.956 252.005C261.526 252.125 261.996 252.295 262.366 252.515L261.586 254.18C260.876 253.78 260.101 253.58 259.261 253.58C258.761 253.58 258.386 253.65 258.136 253.79C257.886 253.93 257.761 254.11 257.761 254.33C257.761 254.58 257.896 254.755 258.166 254.855C258.436 254.955 258.866 255.05 259.456 255.14C260.116 255.25 260.656 255.37 261.076 255.5C261.496 255.62 261.861 255.845 262.171 256.175C262.481 256.505 262.636 256.965 262.636 257.555C262.636 258.055 262.486 258.5 262.186 258.89C261.886 259.28 261.446 259.585 260.866 259.805C260.296 260.015 259.616 260.12 258.826 260.12ZM269.285 259.61C269.055 259.78 268.77 259.91 268.43 260C268.1 260.08 267.75 260.12 267.38 260.12C266.42 260.12 265.675 259.875 265.145 259.385C264.625 258.895 264.365 258.175 264.365 257.225V253.91H263.12V252.11H264.365V250.145H266.705V252.11H268.715V253.91H266.705V257.195C266.705 257.535 266.79 257.8 266.96 257.99C267.14 258.17 267.39 258.26 267.71 258.26C268.08 258.26 268.395 258.16 268.655 257.96L269.285 259.61ZM272.834 252.995C273.114 252.605 273.489 252.31 273.959 252.11C274.439 251.91 274.989 251.81 275.609 251.81V253.97C275.349 253.95 275.174 253.94 275.084 253.94C274.414 253.94 273.889 254.13 273.509 254.51C273.129 254.88 272.939 255.44 272.939 256.19V260H270.599V251.93H272.834V252.995ZM285.189 251.93V260H282.969V259.04C282.659 259.39 282.289 259.66 281.859 259.85C281.429 260.03 280.964 260.12 280.464 260.12C279.404 260.12 278.564 259.815 277.944 259.205C277.324 258.595 277.014 257.69 277.014 256.49V251.93H279.354V256.145C279.354 257.445 279.899 258.095 280.989 258.095C281.549 258.095 281.999 257.915 282.339 257.555C282.679 257.185 282.849 256.64 282.849 255.92V251.93H285.189ZM291.256 260.12C290.396 260.12 289.621 259.945 288.931 259.595C288.251 259.235 287.716 258.74 287.326 258.11C286.946 257.48 286.756 256.765 286.756 255.965C286.756 255.165 286.946 254.45 287.326 253.82C287.716 253.19 288.251 252.7 288.931 252.35C289.621 251.99 290.396 251.81 291.256 251.81C292.106 251.81 292.846 251.99 293.476 252.35C294.116 252.7 294.581 253.205 294.871 253.865L293.056 254.84C292.636 254.1 292.031 253.73 291.241 253.73C290.631 253.73 290.126 253.93 289.726 254.33C289.326 254.73 289.126 255.275 289.126 255.965C289.126 256.655 289.326 257.2 289.726 257.6C290.126 258 290.631 258.2 291.241 258.2C292.041 258.2 292.646 257.83 293.056 257.09L294.871 258.08C294.581 258.72 294.116 259.22 293.476 259.58C292.846 259.94 292.106 260.12 291.256 260.12ZM301.541 259.61C301.311 259.78 301.026 259.91 300.686 260C300.356 260.08 300.006 260.12 299.636 260.12C298.676 260.12 297.931 259.875 297.401 259.385C296.881 258.895 296.621 258.175 296.621 257.225V253.91H295.376V252.11H296.621V250.145H298.961V252.11H300.971V253.91H298.961V257.195C298.961 257.535 299.046 257.8 299.216 257.99C299.396 258.17 299.646 258.26 299.966 258.26C300.336 258.26 300.651 258.16 300.911 257.96L301.541 259.61ZM302.854 251.93H305.194V260H302.854V251.93ZM304.024 250.805C303.594 250.805 303.244 250.68 302.974 250.43C302.704 250.18 302.569 249.87 302.569 249.5C302.569 249.13 302.704 248.82 302.974 248.57C303.244 248.32 303.594 248.195 304.024 248.195C304.454 248.195 304.804 248.315 305.074 248.555C305.344 248.795 305.479 249.095 305.479 249.455C305.479 249.845 305.344 250.17 305.074 250.43C304.804 250.68 304.454 250.805 304.024 250.805ZM311.206 260.12C310.356 260.12 309.591 259.945 308.911 259.595C308.241 259.235 307.716 258.74 307.336 258.11C306.956 257.48 306.766 256.765 306.766 255.965C306.766 255.165 306.956 254.45 307.336 253.82C307.716 253.19 308.241 252.7 308.911 252.35C309.591 251.99 310.356 251.81 311.206 251.81C312.056 251.81 312.816 251.99 313.486 252.35C314.156 252.7 314.681 253.19 315.061 253.82C315.441 254.45 315.631 255.165 315.631 255.965C315.631 256.765 315.441 257.48 315.061 258.11C314.681 258.74 314.156 259.235 313.486 259.595C312.816 259.945 312.056 260.12 311.206 260.12ZM311.206 258.2C311.806 258.2 312.296 258 312.676 257.6C313.066 257.19 313.261 256.645 313.261 255.965C313.261 255.285 313.066 254.745 312.676 254.345C312.296 253.935 311.806 253.73 311.206 253.73C310.606 253.73 310.111 253.935 309.721 254.345C309.331 254.745 309.136 255.285 309.136 255.965C309.136 256.645 309.331 257.19 309.721 257.6C310.111 258 310.606 258.2 311.206 258.2ZM322.1 251.81C323.1 251.81 323.905 252.11 324.515 252.71C325.135 253.31 325.445 254.2 325.445 255.38V260H323.105V255.74C323.105 255.1 322.965 254.625 322.685 254.315C322.405 253.995 322 253.835 321.47 253.835C320.88 253.835 320.41 254.02 320.06 254.39C319.71 254.75 319.535 255.29 319.535 256.01V260H317.195V251.93H319.43V252.875C319.74 252.535 320.125 252.275 320.585 252.095C321.045 251.905 321.55 251.81 322.1 251.81Z" fill="black"/>
<path d="M144.08 317.93H146.42V326H144.08V317.93ZM145.25 316.805C144.82 316.805 144.47 316.68 144.2 316.43C143.93 316.18 143.795 315.87 143.795 315.5C143.795 315.13 143.93 314.82 144.2 314.57C144.47 314.32 144.82 314.195 145.25 314.195C145.68 314.195 146.03 314.315 146.3 314.555C146.57 314.795 146.705 315.095 146.705 315.455C146.705 315.845 146.57 316.17 146.3 316.43C146.03 316.68 145.68 316.805 145.25 316.805ZM153.497 317.81C154.497 317.81 155.302 318.11 155.912 318.71C156.532 319.31 156.842 320.2 156.842 321.38V326H154.502V321.74C154.502 321.1 154.362 320.625 154.082 320.315C153.802 319.995 153.397 319.835 152.867 319.835C152.277 319.835 151.807 320.02 151.457 320.39C151.107 320.75 150.932 321.29 150.932 322.01V326H148.592V317.93H150.827V318.875C151.137 318.535 151.522 318.275 151.982 318.095C152.442 317.905 152.947 317.81 153.497 317.81ZM164.168 325.61C163.938 325.78 163.653 325.91 163.313 326C162.983 326.08 162.633 326.12 162.263 326.12C161.303 326.12 160.558 325.875 160.028 325.385C159.508 324.895 159.248 324.175 159.248 323.225V319.91H158.003V318.11H159.248V316.145H161.588V318.11H163.598V319.91H161.588V323.195C161.588 323.535 161.673 323.8 161.843 323.99C162.023 324.17 162.273 324.26 162.593 324.26C162.963 324.26 163.278 324.16 163.538 323.96L164.168 325.61ZM173.137 321.995C173.137 322.025 173.122 322.235 173.092 322.625H166.987C167.097 323.125 167.357 323.52 167.767 323.81C168.177 324.1 168.687 324.245 169.297 324.245C169.717 324.245 170.087 324.185 170.407 324.065C170.737 323.935 171.042 323.735 171.322 323.465L172.567 324.815C171.807 325.685 170.697 326.12 169.237 326.12C168.327 326.12 167.522 325.945 166.822 325.595C166.122 325.235 165.582 324.74 165.202 324.11C164.822 323.48 164.632 322.765 164.632 321.965C164.632 321.175 164.817 320.465 165.187 319.835C165.567 319.195 166.082 318.7 166.732 318.35C167.392 317.99 168.127 317.81 168.937 317.81C169.727 317.81 170.442 317.98 171.082 318.32C171.722 318.66 172.222 319.15 172.582 319.79C172.952 320.42 173.137 321.155 173.137 321.995ZM168.952 319.58C168.422 319.58 167.977 319.73 167.617 320.03C167.257 320.33 167.037 320.74 166.957 321.26H170.932C170.852 320.75 170.632 320.345 170.272 320.045C169.912 319.735 169.472 319.58 168.952 319.58ZM179.6 317.81C180.6 317.81 181.405 318.11 182.015 318.71C182.635 319.31 182.945 320.2 182.945 321.38V326H180.605V321.74C180.605 321.1 180.465 320.625 180.185 320.315C179.905 319.995 179.5 319.835 178.97 319.835C178.38 319.835 177.91 320.02 177.56 320.39C177.21 320.75 177.035 321.29 177.035 322.01V326H174.695V317.93H176.93V318.875C177.24 318.535 177.625 318.275 178.085 318.095C178.545 317.905 179.05 317.81 179.6 317.81ZM187.781 326.12C187.111 326.12 186.456 326.04 185.816 325.88C185.176 325.71 184.666 325.5 184.286 325.25L185.066 323.57C185.426 323.8 185.861 323.99 186.371 324.14C186.881 324.28 187.381 324.35 187.871 324.35C188.861 324.35 189.356 324.105 189.356 323.615C189.356 323.385 189.221 323.22 188.951 323.12C188.681 323.02 188.266 322.935 187.706 322.865C187.046 322.765 186.501 322.65 186.071 322.52C185.641 322.39 185.266 322.16 184.946 321.83C184.636 321.5 184.481 321.03 184.481 320.42C184.481 319.91 184.626 319.46 184.916 319.07C185.216 318.67 185.646 318.36 186.206 318.14C186.776 317.92 187.446 317.81 188.216 317.81C188.786 317.81 189.351 317.875 189.911 318.005C190.481 318.125 190.951 318.295 191.321 318.515L190.541 320.18C189.831 319.78 189.056 319.58 188.216 319.58C187.716 319.58 187.341 319.65 187.091 319.79C186.841 319.93 186.716 320.11 186.716 320.33C186.716 320.58 186.851 320.755 187.121 320.855C187.391 320.955 187.821 321.05 188.411 321.14C189.071 321.25 189.611 321.37 190.031 321.5C190.451 321.62 190.816 321.845 191.126 322.175C191.436 322.505 191.591 322.965 191.591 323.555C191.591 324.055 191.441 324.5 191.141 324.89C190.841 325.28 190.401 325.585 189.821 325.805C189.251 326.015 188.571 326.12 187.781 326.12ZM193.035 317.93H195.375V326H193.035V317.93ZM194.205 316.805C193.775 316.805 193.425 316.68 193.155 316.43C192.885 316.18 192.75 315.87 192.75 315.5C192.75 315.13 192.885 314.82 193.155 314.57C193.425 314.32 193.775 314.195 194.205 314.195C194.635 314.195 194.985 314.315 195.255 314.555C195.525 314.795 195.66 315.095 195.66 315.455C195.66 315.845 195.525 316.17 195.255 316.43C194.985 316.68 194.635 316.805 194.205 316.805ZM205.557 317.93L202.152 326H199.737L196.347 317.93H198.762L200.997 323.42L203.307 317.93H205.557ZM214.197 321.995C214.197 322.025 214.182 322.235 214.152 322.625H208.047C208.157 323.125 208.417 323.52 208.827 323.81C209.237 324.1 209.747 324.245 210.357 324.245C210.777 324.245 211.147 324.185 211.467 324.065C211.797 323.935 212.102 323.735 212.382 323.465L213.627 324.815C212.867 325.685 211.757 326.12 210.297 326.12C209.387 326.12 208.582 325.945 207.882 325.595C207.182 325.235 206.642 324.74 206.262 324.11C205.882 323.48 205.692 322.765 205.692 321.965C205.692 321.175 205.877 320.465 206.247 319.835C206.627 319.195 207.142 318.7 207.792 318.35C208.452 317.99 209.187 317.81 209.997 317.81C210.787 317.81 211.502 317.98 212.142 318.32C212.782 318.66 213.282 319.15 213.642 319.79C214.012 320.42 214.197 321.155 214.197 321.995ZM210.012 319.58C209.482 319.58 209.037 319.73 208.677 320.03C208.317 320.33 208.097 320.74 208.017 321.26H211.992C211.912 320.75 211.692 320.345 211.332 320.045C210.972 319.735 210.532 319.58 210.012 319.58ZM222.718 326.12C222.048 326.12 221.393 326.04 220.753 325.88C220.113 325.71 219.603 325.5 219.223 325.25L220.003 323.57C220.363 323.8 220.798 323.99 221.308 324.14C221.818 324.28 222.318 324.35 222.808 324.35C223.798 324.35 224.293 324.105 224.293 323.615C224.293 323.385 224.158 323.22 223.888 323.12C223.618 323.02 223.203 322.935 222.643 322.865C221.983 322.765 221.438 322.65 221.008 322.52C220.578 322.39 220.203 322.16 219.883 321.83C219.573 321.5 219.418 321.03 219.418 320.42C219.418 319.91 219.563 319.46 219.853 319.07C220.153 318.67 220.583 318.36 221.143 318.14C221.713 317.92 222.383 317.81 223.153 317.81C223.723 317.81 224.288 317.875 224.848 318.005C225.418 318.125 225.888 318.295 226.258 318.515L225.478 320.18C224.768 319.78 223.993 319.58 223.153 319.58C222.653 319.58 222.278 319.65 222.028 319.79C221.778 319.93 221.653 320.11 221.653 320.33C221.653 320.58 221.788 320.755 222.058 320.855C222.328 320.955 222.758 321.05 223.348 321.14C224.008 321.25 224.548 321.37 224.968 321.5C225.388 321.62 225.753 321.845 226.063 322.175C226.373 322.505 226.528 322.965 226.528 323.555C226.528 324.055 226.378 324.5 226.078 324.89C225.778 325.28 225.338 325.585 224.758 325.805C224.188 326.015 223.508 326.12 222.718 326.12ZM235.877 321.995C235.877 322.025 235.862 322.235 235.832 322.625H229.727C229.837 323.125 230.097 323.52 230.507 323.81C230.917 324.1 231.427 324.245 232.037 324.245C232.457 324.245 232.827 324.185 233.147 324.065C233.477 323.935 233.782 323.735 234.062 323.465L235.307 324.815C234.547 325.685 233.437 326.12 231.977 326.12C231.067 326.12 230.262 325.945 229.562 325.595C228.862 325.235 228.322 324.74 227.942 324.11C227.562 323.48 227.372 322.765 227.372 321.965C227.372 321.175 227.557 320.465 227.927 319.835C228.307 319.195 228.822 318.7 229.472 318.35C230.132 317.99 230.867 317.81 231.677 317.81C232.467 317.81 233.182 317.98 233.822 318.32C234.462 318.66 234.962 319.15 235.322 319.79C235.692 320.42 235.877 321.155 235.877 321.995ZM231.692 319.58C231.162 319.58 230.717 319.73 230.357 320.03C229.997 320.33 229.777 320.74 229.697 321.26H233.672C233.592 320.75 233.372 320.345 233.012 320.045C232.652 319.735 232.212 319.58 231.692 319.58ZM240.149 326.12C239.479 326.12 238.824 326.04 238.184 325.88C237.544 325.71 237.034 325.5 236.654 325.25L237.434 323.57C237.794 323.8 238.229 323.99 238.739 324.14C239.249 324.28 239.749 324.35 240.239 324.35C241.229 324.35 241.724 324.105 241.724 323.615C241.724 323.385 241.589 323.22 241.319 323.12C241.049 323.02 240.634 322.935 240.074 322.865C239.414 322.765 238.869 322.65 238.439 322.52C238.009 322.39 237.634 322.16 237.314 321.83C237.004 321.5 236.849 321.03 236.849 320.42C236.849 319.91 236.994 319.46 237.284 319.07C237.584 318.67 238.014 318.36 238.574 318.14C239.144 317.92 239.814 317.81 240.584 317.81C241.154 317.81 241.719 317.875 242.279 318.005C242.849 318.125 243.319 318.295 243.689 318.515L242.909 320.18C242.199 319.78 241.424 319.58 240.584 319.58C240.084 319.58 239.709 319.65 239.459 319.79C239.209 319.93 239.084 320.11 239.084 320.33C239.084 320.58 239.219 320.755 239.489 320.855C239.759 320.955 240.189 321.05 240.779 321.14C241.439 321.25 241.979 321.37 242.399 321.5C242.819 321.62 243.184 321.845 243.494 322.175C243.804 322.505 243.959 322.965 243.959 323.555C243.959 324.055 243.809 324.5 243.509 324.89C243.209 325.28 242.769 325.585 242.189 325.805C241.619 326.015 240.939 326.12 240.149 326.12ZM248.118 326.12C247.448 326.12 246.793 326.04 246.153 325.88C245.513 325.71 245.003 325.5 244.623 325.25L245.403 323.57C245.763 323.8 246.198 323.99 246.708 324.14C247.218 324.28 247.718 324.35 248.208 324.35C249.198 324.35 249.693 324.105 249.693 323.615C249.693 323.385 249.558 323.22 249.288 323.12C249.018 323.02 248.603 322.935 248.043 322.865C247.383 322.765 246.838 322.65 246.408 322.52C245.978 322.39 245.603 322.16 245.283 321.83C244.973 321.5 244.818 321.03 244.818 320.42C244.818 319.91 244.963 319.46 245.253 319.07C245.553 318.67 245.983 318.36 246.543 318.14C247.113 317.92 247.783 317.81 248.553 317.81C249.123 317.81 249.688 317.875 250.248 318.005C250.818 318.125 251.288 318.295 251.658 318.515L250.878 320.18C250.168 319.78 249.393 319.58 248.553 319.58C248.053 319.58 247.678 319.65 247.428 319.79C247.178 319.93 247.053 320.11 247.053 320.33C247.053 320.58 247.188 320.755 247.458 320.855C247.728 320.955 248.158 321.05 248.748 321.14C249.408 321.25 249.948 321.37 250.368 321.5C250.788 321.62 251.153 321.845 251.463 322.175C251.773 322.505 251.928 322.965 251.928 323.555C251.928 324.055 251.778 324.5 251.478 324.89C251.178 325.28 250.738 325.585 250.158 325.805C249.588 326.015 248.908 326.12 248.118 326.12ZM253.372 317.93H255.712V326H253.372V317.93ZM254.542 316.805C254.112 316.805 253.762 316.68 253.492 316.43C253.222 316.18 253.087 315.87 253.087 315.5C253.087 315.13 253.222 314.82 253.492 314.57C253.762 314.32 254.112 314.195 254.542 314.195C254.972 314.195 255.322 314.315 255.592 314.555C255.862 314.795 255.997 315.095 255.997 315.455C255.997 315.845 255.862 316.17 255.592 316.43C255.322 316.68 254.972 316.805 254.542 316.805ZM261.724 326.12C260.874 326.12 260.109 325.945 259.429 325.595C258.759 325.235 258.234 324.74 257.854 324.11C257.474 323.48 257.284 322.765 257.284 321.965C257.284 321.165 257.474 320.45 257.854 319.82C258.234 319.19 258.759 318.7 259.429 318.35C260.109 317.99 260.874 317.81 261.724 317.81C262.574 317.81 263.334 317.99 264.004 318.35C264.674 318.7 265.199 319.19 265.579 319.82C265.959 320.45 266.149 321.165 266.149 321.965C266.149 322.765 265.959 323.48 265.579 324.11C265.199 324.74 264.674 325.235 264.004 325.595C263.334 325.945 262.574 326.12 261.724 326.12ZM261.724 324.2C262.324 324.2 262.814 324 263.194 323.6C263.584 323.19 263.779 322.645 263.779 321.965C263.779 321.285 263.584 320.745 263.194 320.345C262.814 319.935 262.324 319.73 261.724 319.73C261.124 319.73 260.629 319.935 260.239 320.345C259.849 320.745 259.654 321.285 259.654 321.965C259.654 322.645 259.849 323.19 260.239 323.6C260.629 324 261.124 324.2 261.724 324.2ZM272.618 317.81C273.618 317.81 274.423 318.11 275.033 318.71C275.653 319.31 275.963 320.2 275.963 321.38V326H273.623V321.74C273.623 321.1 273.483 320.625 273.203 320.315C272.923 319.995 272.518 319.835 271.988 319.835C271.398 319.835 270.928 320.02 270.578 320.39C270.228 320.75 270.053 321.29 270.053 322.01V326H267.713V317.93H269.948V318.875C270.258 318.535 270.643 318.275 271.103 318.095C271.563 317.905 272.068 317.81 272.618 317.81ZM280.799 326.12C280.129 326.12 279.474 326.04 278.834 325.88C278.194 325.71 277.684 325.5 277.304 325.25L278.084 323.57C278.444 323.8 278.879 323.99 279.389 324.14C279.899 324.28 280.399 324.35 280.889 324.35C281.879 324.35 282.374 324.105 282.374 323.615C282.374 323.385 282.239 323.22 281.969 323.12C281.699 323.02 281.284 322.935 280.724 322.865C280.064 322.765 279.519 322.65 279.089 322.52C278.659 322.39 278.284 322.16 277.964 321.83C277.654 321.5 277.499 321.03 277.499 320.42C277.499 319.91 277.644 319.46 277.934 319.07C278.234 318.67 278.664 318.36 279.224 318.14C279.794 317.92 280.464 317.81 281.234 317.81C281.804 317.81 282.369 317.875 282.929 318.005C283.499 318.125 283.969 318.295 284.339 318.515L283.559 320.18C282.849 319.78 282.074 319.58 281.234 319.58C280.734 319.58 280.359 319.65 280.109 319.79C279.859 319.93 279.734 320.11 279.734 320.33C279.734 320.58 279.869 320.755 280.139 320.855C280.409 320.955 280.839 321.05 281.429 321.14C282.089 321.25 282.629 321.37 283.049 321.5C283.469 321.62 283.834 321.845 284.144 322.175C284.454 322.505 284.609 322.965 284.609 323.555C284.609 324.055 284.459 324.5 284.159 324.89C283.859 325.28 283.419 325.585 282.839 325.805C282.269 326.015 281.589 326.12 280.799 326.12Z" fill="black"/>
<path d="M150.985 387.995C150.985 388.025 150.97 388.235 150.94 388.625H144.835C144.945 389.125 145.205 389.52 145.615 389.81C146.025 390.1 146.535 390.245 147.145 390.245C147.565 390.245 147.935 390.185 148.255 390.065C148.585 389.935 148.89 389.735 149.17 389.465L150.415 390.815C149.655 391.685 148.545 392.12 147.085 392.12C146.175 392.12 145.37 391.945 144.67 391.595C143.97 391.235 143.43 390.74 143.05 390.11C142.67 389.48 142.48 388.765 142.48 387.965C142.48 387.175 142.665 386.465 143.035 385.835C143.415 385.195 143.93 384.7 144.58 384.35C145.24 383.99 145.975 383.81 146.785 383.81C147.575 383.81 148.29 383.98 148.93 384.32C149.57 384.66 150.07 385.15 150.43 385.79C150.8 386.42 150.985 387.155 150.985 387.995ZM146.8 385.58C146.27 385.58 145.825 385.73 145.465 386.03C145.105 386.33 144.885 386.74 144.805 387.26H148.78C148.7 386.75 148.48 386.345 148.12 386.045C147.76 385.735 147.32 385.58 146.8 385.58ZM157.448 383.81C158.448 383.81 159.253 384.11 159.863 384.71C160.483 385.31 160.793 386.2 160.793 387.38V392H158.453V387.74C158.453 387.1 158.313 386.625 158.033 386.315C157.753 385.995 157.348 385.835 156.818 385.835C156.228 385.835 155.758 386.02 155.408 386.39C155.058 386.75 154.883 387.29 154.883 388.01V392H152.543V383.93H154.778V384.875C155.088 384.535 155.473 384.275 155.933 384.095C156.393 383.905 156.898 383.81 157.448 383.81ZM167.819 383.81C168.819 383.81 169.624 384.11 170.234 384.71C170.854 385.31 171.164 386.2 171.164 387.38V392H168.824V387.74C168.824 387.1 168.684 386.625 168.404 386.315C168.124 385.995 167.719 385.835 167.189 385.835C166.599 385.835 166.129 386.02 165.779 386.39C165.429 386.75 165.254 387.29 165.254 388.01V392H162.914V380.87H165.254V384.77C165.564 384.46 165.939 384.225 166.379 384.065C166.819 383.895 167.299 383.81 167.819 383.81ZM176.54 383.81C177.79 383.81 178.75 384.11 179.42 384.71C180.09 385.3 180.425 386.195 180.425 387.395V392H178.235V390.995C177.795 391.745 176.975 392.12 175.775 392.12C175.155 392.12 174.615 392.015 174.155 391.805C173.705 391.595 173.36 391.305 173.12 390.935C172.88 390.565 172.76 390.145 172.76 389.675C172.76 388.925 173.04 388.335 173.6 387.905C174.17 387.475 175.045 387.26 176.225 387.26H178.085C178.085 386.75 177.93 386.36 177.62 386.09C177.31 385.81 176.845 385.67 176.225 385.67C175.795 385.67 175.37 385.74 174.95 385.88C174.54 386.01 174.19 386.19 173.9 386.42L173.06 384.785C173.5 384.475 174.025 384.235 174.635 384.065C175.255 383.895 175.89 383.81 176.54 383.81ZM176.36 390.545C176.76 390.545 177.115 390.455 177.425 390.275C177.735 390.085 177.955 389.81 178.085 389.45V388.625H176.48C175.52 388.625 175.04 388.94 175.04 389.57C175.04 389.87 175.155 390.11 175.385 390.29C175.625 390.46 175.95 390.545 176.36 390.545ZM187.448 383.81C188.448 383.81 189.253 384.11 189.863 384.71C190.483 385.31 190.793 386.2 190.793 387.38V392H188.453V387.74C188.453 387.1 188.313 386.625 188.033 386.315C187.753 385.995 187.348 385.835 186.818 385.835C186.228 385.835 185.758 386.02 185.408 386.39C185.058 386.75 184.883 387.29 184.883 388.01V392H182.543V383.93H184.778V384.875C185.088 384.535 185.473 384.275 185.933 384.095C186.393 383.905 186.898 383.81 187.448 383.81ZM196.902 392.12C196.042 392.12 195.267 391.945 194.577 391.595C193.897 391.235 193.362 390.74 192.972 390.11C192.592 389.48 192.402 388.765 192.402 387.965C192.402 387.165 192.592 386.45 192.972 385.82C193.362 385.19 193.897 384.7 194.577 384.35C195.267 383.99 196.042 383.81 196.902 383.81C197.752 383.81 198.492 383.99 199.122 384.35C199.762 384.7 200.227 385.205 200.517 385.865L198.702 386.84C198.282 386.1 197.677 385.73 196.887 385.73C196.277 385.73 195.772 385.93 195.372 386.33C194.972 386.73 194.772 387.275 194.772 387.965C194.772 388.655 194.972 389.2 195.372 389.6C195.772 390 196.277 390.2 196.887 390.2C197.687 390.2 198.292 389.83 198.702 389.09L200.517 390.08C200.227 390.72 199.762 391.22 199.122 391.58C198.492 391.94 197.752 392.12 196.902 392.12ZM209.667 387.995C209.667 388.025 209.652 388.235 209.622 388.625H203.517C203.627 389.125 203.887 389.52 204.297 389.81C204.707 390.1 205.217 390.245 205.827 390.245C206.247 390.245 206.617 390.185 206.937 390.065C207.267 389.935 207.572 389.735 207.852 389.465L209.097 390.815C208.337 391.685 207.227 392.12 205.767 392.12C204.857 392.12 204.052 391.945 203.352 391.595C202.652 391.235 202.112 390.74 201.732 390.11C201.352 389.48 201.162 388.765 201.162 387.965C201.162 387.175 201.347 386.465 201.717 385.835C202.097 385.195 202.612 384.7 203.262 384.35C203.922 383.99 204.657 383.81 205.467 383.81C206.257 383.81 206.972 383.98 207.612 384.32C208.252 384.66 208.752 385.15 209.112 385.79C209.482 386.42 209.667 387.155 209.667 387.995ZM205.482 385.58C204.952 385.58 204.507 385.73 204.147 386.03C203.787 386.33 203.567 386.74 203.487 387.26H207.462C207.382 386.75 207.162 386.345 206.802 386.045C206.442 385.735 206.002 385.58 205.482 385.58ZM221.56 383.81C222.57 383.81 223.37 384.11 223.96 384.71C224.56 385.3 224.86 386.19 224.86 387.38V392H222.52V387.74C222.52 387.1 222.385 386.625 222.115 386.315C221.855 385.995 221.48 385.835 220.99 385.835C220.44 385.835 220.005 386.015 219.685 386.375C219.365 386.725 219.205 387.25 219.205 387.95V392H216.865V387.74C216.865 386.47 216.355 385.835 215.335 385.835C214.795 385.835 214.365 386.015 214.045 386.375C213.725 386.725 213.565 387.25 213.565 387.95V392H211.225V383.93H213.46V384.86C213.76 384.52 214.125 384.26 214.555 384.08C214.995 383.9 215.475 383.81 215.995 383.81C216.565 383.81 217.08 383.925 217.54 384.155C218 384.375 218.37 384.7 218.65 385.13C218.98 384.71 219.395 384.385 219.895 384.155C220.405 383.925 220.96 383.81 221.56 383.81ZM234.95 387.995C234.95 388.025 234.935 388.235 234.905 388.625H228.8C228.91 389.125 229.17 389.52 229.58 389.81C229.99 390.1 230.5 390.245 231.11 390.245C231.53 390.245 231.9 390.185 232.22 390.065C232.55 389.935 232.855 389.735 233.135 389.465L234.38 390.815C233.62 391.685 232.51 392.12 231.05 392.12C230.14 392.12 229.335 391.945 228.635 391.595C227.935 391.235 227.395 390.74 227.015 390.11C226.635 389.48 226.445 388.765 226.445 387.965C226.445 387.175 226.63 386.465 227 385.835C227.38 385.195 227.895 384.7 228.545 384.35C229.205 383.99 229.94 383.81 230.75 383.81C231.54 383.81 232.255 383.98 232.895 384.32C233.535 384.66 234.035 385.15 234.395 385.79C234.765 386.42 234.95 387.155 234.95 387.995ZM230.765 385.58C230.235 385.58 229.79 385.73 229.43 386.03C229.07 386.33 228.85 386.74 228.77 387.26H232.745C232.665 386.75 232.445 386.345 232.085 386.045C231.725 385.735 231.285 385.58 230.765 385.58ZM241.413 383.81C242.413 383.81 243.218 384.11 243.828 384.71C244.448 385.31 244.758 386.2 244.758 387.38V392H242.418V387.74C242.418 387.1 242.278 386.625 241.998 386.315C241.718 385.995 241.313 385.835 240.783 385.835C240.193 385.835 239.723 386.02 239.373 386.39C239.023 386.75 238.848 387.29 238.848 388.01V392H236.508V383.93H238.743V384.875C239.053 384.535 239.438 384.275 239.898 384.095C240.358 383.905 240.863 383.81 241.413 383.81ZM252.084 391.61C251.854 391.78 251.569 391.91 251.229 392C250.899 392.08 250.549 392.12 250.179 392.12C249.219 392.12 248.474 391.875 247.944 391.385C247.424 390.895 247.164 390.175 247.164 389.225V385.91H245.919V384.11H247.164V382.145H249.504V384.11H251.514V385.91H249.504V389.195C249.504 389.535 249.589 389.8 249.759 389.99C249.939 390.17 250.189 390.26 250.509 390.26C250.879 390.26 251.194 390.16 251.454 389.96L252.084 391.61ZM260.9 383.81C262.15 383.81 263.11 384.11 263.78 384.71C264.45 385.3 264.785 386.195 264.785 387.395V392H262.595V390.995C262.155 391.745 261.335 392.12 260.135 392.12C259.515 392.12 258.975 392.015 258.515 391.805C258.065 391.595 257.72 391.305 257.48 390.935C257.24 390.565 257.12 390.145 257.12 389.675C257.12 388.925 257.4 388.335 257.96 387.905C258.53 387.475 259.405 387.26 260.585 387.26H262.445C262.445 386.75 262.29 386.36 261.98 386.09C261.67 385.81 261.205 385.67 260.585 385.67C260.155 385.67 259.73 385.74 259.31 385.88C258.9 386.01 258.55 386.19 258.26 386.42L257.42 384.785C257.86 384.475 258.385 384.235 258.995 384.065C259.615 383.895 260.25 383.81 260.9 383.81ZM260.72 390.545C261.12 390.545 261.475 390.455 261.785 390.275C262.095 390.085 262.315 389.81 262.445 389.45V388.625H260.84C259.88 388.625 259.4 388.94 259.4 389.57C259.4 389.87 259.515 390.11 259.745 390.29C259.985 390.46 260.31 390.545 260.72 390.545ZM270.891 392.12C270.031 392.12 269.256 391.945 268.566 391.595C267.886 391.235 267.351 390.74 266.961 390.11C266.581 389.48 266.391 388.765 266.391 387.965C266.391 387.165 266.581 386.45 266.961 385.82C267.351 385.19 267.886 384.7 268.566 384.35C269.256 383.99 270.031 383.81 270.891 383.81C271.741 383.81 272.481 383.99 273.111 384.35C273.751 384.7 274.216 385.205 274.506 385.865L272.691 386.84C272.271 386.1 271.666 385.73 270.876 385.73C270.266 385.73 269.761 385.93 269.361 386.33C268.961 386.73 268.761 387.275 268.761 387.965C268.761 388.655 268.961 389.2 269.361 389.6C269.761 390 270.266 390.2 270.876 390.2C271.676 390.2 272.281 389.83 272.691 389.09L274.506 390.08C274.216 390.72 273.751 391.22 273.111 391.58C272.481 391.94 271.741 392.12 270.891 392.12ZM281.176 391.61C280.946 391.78 280.661 391.91 280.321 392C279.991 392.08 279.641 392.12 279.271 392.12C278.311 392.12 277.566 391.875 277.036 391.385C276.516 390.895 276.256 390.175 276.256 389.225V385.91H275.011V384.11H276.256V382.145H278.596V384.11H280.606V385.91H278.596V389.195C278.596 389.535 278.681 389.8 278.851 389.99C279.031 390.17 279.281 390.26 279.601 390.26C279.971 390.26 280.286 390.16 280.546 389.96L281.176 391.61ZM282.489 383.93H284.829V392H282.489V383.93ZM283.659 382.805C283.229 382.805 282.879 382.68 282.609 382.43C282.339 382.18 282.204 381.87 282.204 381.5C282.204 381.13 282.339 380.82 282.609 380.57C282.879 380.32 283.229 380.195 283.659 380.195C284.089 380.195 284.439 380.315 284.709 380.555C284.979 380.795 285.114 381.095 285.114 381.455C285.114 381.845 284.979 382.17 284.709 382.43C284.439 382.68 284.089 382.805 283.659 382.805ZM295.011 383.93L291.606 392H289.191L285.801 383.93H288.216L290.451 389.42L292.761 383.93H295.011ZM295.966 383.93H298.306V392H295.966V383.93ZM297.136 382.805C296.706 382.805 296.356 382.68 296.086 382.43C295.816 382.18 295.681 381.87 295.681 381.5C295.681 381.13 295.816 380.82 296.086 380.57C296.356 380.32 296.706 380.195 297.136 380.195C297.566 380.195 297.916 380.315 298.186 380.555C298.456 380.795 298.591 381.095 298.591 381.455C298.591 381.845 298.456 382.17 298.186 382.43C297.916 382.68 297.566 382.805 297.136 382.805ZM305.682 391.61C305.452 391.78 305.167 391.91 304.827 392C304.497 392.08 304.147 392.12 303.777 392.12C302.817 392.12 302.072 391.875 301.542 391.385C301.022 390.895 300.762 390.175 300.762 389.225V385.91H299.517V384.11H300.762V382.145H303.102V384.11H305.112V385.91H303.102V389.195C303.102 389.535 303.187 389.8 303.357 389.99C303.537 390.17 303.787 390.26 304.107 390.26C304.477 390.26 304.792 390.16 305.052 389.96L305.682 391.61ZM306.996 383.93H309.336V392H306.996V383.93ZM308.166 382.805C307.736 382.805 307.386 382.68 307.116 382.43C306.846 382.18 306.711 381.87 306.711 381.5C306.711 381.13 306.846 380.82 307.116 380.57C307.386 380.32 307.736 380.195 308.166 380.195C308.596 380.195 308.946 380.315 309.216 380.555C309.486 380.795 309.621 381.095 309.621 381.455C309.621 381.845 309.486 382.17 309.216 382.43C308.946 382.68 308.596 382.805 308.166 382.805ZM319.413 387.995C319.413 388.025 319.398 388.235 319.368 388.625H313.263C313.373 389.125 313.633 389.52 314.043 389.81C314.453 390.1 314.963 390.245 315.573 390.245C315.993 390.245 316.363 390.185 316.683 390.065C317.013 389.935 317.318 389.735 317.598 389.465L318.843 390.815C318.083 391.685 316.973 392.12 315.513 392.12C314.603 392.12 313.798 391.945 313.098 391.595C312.398 391.235 311.858 390.74 311.478 390.11C311.098 389.48 310.908 388.765 310.908 387.965C310.908 387.175 311.093 386.465 311.463 385.835C311.843 385.195 312.358 384.7 313.008 384.35C313.668 383.99 314.403 383.81 315.213 383.81C316.003 383.81 316.718 383.98 317.358 384.32C317.998 384.66 318.498 385.15 318.858 385.79C319.228 386.42 319.413 387.155 319.413 387.995ZM315.228 385.58C314.698 385.58 314.253 385.73 313.893 386.03C313.533 386.33 313.313 386.74 313.233 387.26H317.208C317.128 386.75 316.908 386.345 316.548 386.045C316.188 385.735 315.748 385.58 315.228 385.58ZM323.686 392.12C323.016 392.12 322.361 392.04 321.721 391.88C321.081 391.71 320.571 391.5 320.191 391.25L320.971 389.57C321.331 389.8 321.766 389.99 322.276 390.14C322.786 390.28 323.286 390.35 323.776 390.35C324.766 390.35 325.261 390.105 325.261 389.615C325.261 389.385 325.126 389.22 324.856 389.12C324.586 389.02 324.171 388.935 323.611 388.865C322.951 388.765 322.406 388.65 321.976 388.52C321.546 388.39 321.171 388.16 320.851 387.83C320.541 387.5 320.386 387.03 320.386 386.42C320.386 385.91 320.531 385.46 320.821 385.07C321.121 384.67 321.551 384.36 322.111 384.14C322.681 383.92 323.351 383.81 324.121 383.81C324.691 383.81 325.256 383.875 325.816 384.005C326.386 384.125 326.856 384.295 327.226 384.515L326.446 386.18C325.736 385.78 324.961 385.58 324.121 385.58C323.621 385.58 323.246 385.65 322.996 385.79C322.746 385.93 322.621 386.11 322.621 386.33C322.621 386.58 322.756 386.755 323.026 386.855C323.296 386.955 323.726 387.05 324.316 387.14C324.976 387.25 325.516 387.37 325.936 387.5C326.356 387.62 326.721 387.845 327.031 388.175C327.341 388.505 327.496 388.965 327.496 389.555C327.496 390.055 327.346 390.5 327.046 390.89C326.746 391.28 326.306 391.585 325.726 391.805C325.156 392.015 324.476 392.12 323.686 392.12Z" fill="black"/>
<path d="M233.675 55.85H226.85L225.548 59H222.062L228.614 44.3H231.974L238.547 59H234.977L233.675 55.85ZM232.604 53.267L230.273 47.639L227.942 53.267H232.604ZM246.902 59.252C245.404 59.252 244.046 58.93 242.828 58.286C241.624 57.628 240.672 56.725 239.972 55.577C239.286 54.415 238.943 53.106 238.943 51.65C238.943 50.194 239.286 48.892 239.972 47.744C240.672 46.582 241.624 45.679 242.828 45.035C244.046 44.377 245.411 44.048 246.923 44.048C248.197 44.048 249.345 44.272 250.367 44.72C251.403 45.168 252.271 45.812 252.971 46.652L250.787 48.668C249.793 47.52 248.561 46.946 247.091 46.946C246.181 46.946 245.369 47.149 244.655 47.555C243.941 47.947 243.381 48.5 242.975 49.214C242.583 49.928 242.387 50.74 242.387 51.65C242.387 52.56 242.583 53.372 242.975 54.086C243.381 54.8 243.941 55.36 244.655 55.766C245.369 56.158 246.181 56.354 247.091 56.354C248.561 56.354 249.793 55.773 250.787 54.611L252.971 56.627C252.271 57.481 251.403 58.132 250.367 58.58C249.331 59.028 248.176 59.252 246.902 59.252ZM261.996 59.252C260.498 59.252 259.14 58.93 257.922 58.286C256.718 57.628 255.766 56.725 255.066 55.577C254.38 54.415 254.037 53.106 254.037 51.65C254.037 50.194 254.38 48.892 255.066 47.744C255.766 46.582 256.718 45.679 257.922 45.035C259.14 44.377 260.505 44.048 262.017 44.048C263.291 44.048 264.439 44.272 265.461 44.72C266.497 45.168 267.365 45.812 268.065 46.652L265.881 48.668C264.887 47.52 263.655 46.946 262.185 46.946C261.275 46.946 260.463 47.149 259.749 47.555C259.035 47.947 258.475 48.5 258.069 49.214C257.677 49.928 257.481 50.74 257.481 51.65C257.481 52.56 257.677 53.372 258.069 54.086C258.475 54.8 259.035 55.36 259.749 55.766C260.463 56.158 261.275 56.354 262.185 56.354C263.655 56.354 264.887 55.773 265.881 54.611L268.065 56.627C267.365 57.481 266.497 58.132 265.461 58.58C264.425 59.028 263.27 59.252 261.996 59.252ZM281.744 56.27V59H270.362V44.3H281.471V47.03H273.743V50.222H280.568V52.868H273.743V56.27H281.744ZM289.281 59.252C288.119 59.252 286.992 59.098 285.9 58.79C284.822 58.468 283.954 58.055 283.296 57.551L284.451 54.989C285.081 55.451 285.83 55.822 286.698 56.102C287.566 56.382 288.434 56.522 289.302 56.522C290.268 56.522 290.982 56.382 291.444 56.102C291.906 55.808 292.137 55.423 292.137 54.947C292.137 54.597 291.997 54.31 291.717 54.086C291.451 53.848 291.101 53.659 290.667 53.519C290.247 53.379 289.673 53.225 288.945 53.057C287.825 52.791 286.908 52.525 286.194 52.259C285.48 51.993 284.864 51.566 284.346 50.978C283.842 50.39 283.59 49.606 283.59 48.626C283.59 47.772 283.821 47.002 284.283 46.316C284.745 45.616 285.438 45.063 286.362 44.657C287.3 44.251 288.441 44.048 289.785 44.048C290.723 44.048 291.64 44.16 292.536 44.384C293.432 44.608 294.216 44.93 294.888 45.35L293.838 47.933C292.48 47.163 291.122 46.778 289.764 46.778C288.812 46.778 288.105 46.932 287.643 47.24C287.195 47.548 286.971 47.954 286.971 48.458C286.971 48.962 287.23 49.34 287.748 49.592C288.28 49.83 289.085 50.068 290.163 50.306C291.283 50.572 292.2 50.838 292.914 51.104C293.628 51.37 294.237 51.79 294.741 52.364C295.259 52.938 295.518 53.715 295.518 54.695C295.518 55.535 295.28 56.305 294.804 57.005C294.342 57.691 293.642 58.237 292.704 58.643C291.766 59.049 290.625 59.252 289.281 59.252ZM302.673 59.252C301.511 59.252 300.384 59.098 299.292 58.79C298.214 58.468 297.346 58.055 296.688 57.551L297.843 54.989C298.473 55.451 299.222 55.822 300.09 56.102C300.958 56.382 301.826 56.522 302.694 56.522C303.66 56.522 304.374 56.382 304.836 56.102C305.298 55.808 305.529 55.423 305.529 54.947C305.529 54.597 305.389 54.31 305.109 54.086C304.843 53.848 304.493 53.659 304.059 53.519C303.639 53.379 303.065 53.225 302.337 53.057C301.217 52.791 300.3 52.525 299.586 52.259C298.872 51.993 298.256 51.566 297.738 50.978C297.234 50.39 296.982 49.606 296.982 48.626C296.982 47.772 297.213 47.002 297.675 46.316C298.137 45.616 298.83 45.063 299.754 44.657C300.692 44.251 301.833 44.048 303.177 44.048C304.115 44.048 305.032 44.16 305.928 44.384C306.824 44.608 307.608 44.93 308.28 45.35L307.23 47.933C305.872 47.163 304.514 46.778 303.156 46.778C302.204 46.778 301.497 46.932 301.035 47.24C300.587 47.548 300.363 47.954 300.363 48.458C300.363 48.962 300.622 49.34 301.14 49.592C301.672 49.83 302.477 50.068 303.555 50.306C304.675 50.572 305.592 50.838 306.306 51.104C307.02 51.37 307.629 51.79 308.133 52.364C308.651 52.938 308.91 53.715 308.91 54.695C308.91 55.535 308.672 56.305 308.196 57.005C307.734 57.691 307.034 58.237 306.096 58.643C305.158 59.049 304.017 59.252 302.673 59.252ZM323.544 44.3C324.846 44.3 325.973 44.517 326.925 44.951C327.891 45.385 328.633 46.001 329.151 46.799C329.669 47.597 329.928 48.542 329.928 49.634C329.928 50.712 329.669 51.657 329.151 52.469C328.633 53.267 327.891 53.883 326.925 54.317C325.973 54.737 324.846 54.947 323.544 54.947H320.583V59H317.181V44.3H323.544ZM323.355 52.175C324.377 52.175 325.154 51.958 325.686 51.524C326.218 51.076 326.484 50.446 326.484 49.634C326.484 48.808 326.218 48.178 325.686 47.744C325.154 47.296 324.377 47.072 323.355 47.072H320.583V52.175H323.355ZM341.723 59L338.888 54.905H338.72H335.759V59H332.357V44.3H338.72C340.022 44.3 341.149 44.517 342.101 44.951C343.067 45.385 343.809 46.001 344.327 46.799C344.845 47.597 345.104 48.542 345.104 49.634C345.104 50.726 344.838 51.671 344.306 52.469C343.788 53.253 343.046 53.855 342.08 54.275L345.377 59H341.723ZM341.66 49.634C341.66 48.808 341.394 48.178 340.862 47.744C340.33 47.296 339.553 47.072 338.531 47.072H335.759V52.196H338.531C339.553 52.196 340.33 51.972 340.862 51.524C341.394 51.076 341.66 50.446 341.66 49.634ZM354.919 59.252C353.393 59.252 352.014 58.923 350.782 58.265C349.564 57.607 348.605 56.704 347.905 55.556C347.219 54.394 346.876 53.092 346.876 51.65C346.876 50.208 347.219 48.913 347.905 47.765C348.605 46.603 349.564 45.693 350.782 45.035C352.014 44.377 353.393 44.048 354.919 44.048C356.445 44.048 357.817 44.377 359.035 45.035C360.253 45.693 361.212 46.603 361.912 47.765C362.612 48.913 362.962 50.208 362.962 51.65C362.962 53.092 362.612 54.394 361.912 55.556C361.212 56.704 360.253 57.607 359.035 58.265C357.817 58.923 356.445 59.252 354.919 59.252ZM354.919 56.354C355.787 56.354 356.571 56.158 357.271 55.766C357.971 55.36 358.517 54.8 358.909 54.086C359.315 53.372 359.518 52.56 359.518 51.65C359.518 50.74 359.315 49.928 358.909 49.214C358.517 48.5 357.971 47.947 357.271 47.555C356.571 47.149 355.787 46.946 354.919 46.946C354.051 46.946 353.267 47.149 352.567 47.555C351.867 47.947 351.314 48.5 350.908 49.214C350.516 49.928 350.32 50.74 350.32 51.65C350.32 52.56 350.516 53.372 350.908 54.086C351.314 54.8 351.867 55.36 352.567 55.766C353.267 56.158 354.051 56.354 354.919 56.354ZM375.451 51.419H378.559V57.383C377.761 57.985 376.837 58.447 375.787 58.769C374.737 59.091 373.68 59.252 372.616 59.252C371.09 59.252 369.718 58.93 368.5 58.286C367.282 57.628 366.323 56.725 365.623 55.577C364.937 54.415 364.594 53.106 364.594 51.65C364.594 50.194 364.937 48.892 365.623 47.744C366.323 46.582 367.289 45.679 368.521 45.035C369.753 44.377 371.139 44.048 372.679 44.048C373.967 44.048 375.136 44.265 376.186 44.699C377.236 45.133 378.118 45.763 378.832 46.589L376.648 48.605C375.598 47.499 374.331 46.946 372.847 46.946C371.909 46.946 371.076 47.142 370.348 47.534C369.62 47.926 369.053 48.479 368.647 49.193C368.241 49.907 368.038 50.726 368.038 51.65C368.038 52.56 368.241 53.372 368.647 54.086C369.053 54.8 369.613 55.36 370.327 55.766C371.055 56.158 371.881 56.354 372.805 56.354C373.785 56.354 374.667 56.144 375.451 55.724V51.419ZM391.086 59L388.251 54.905H388.083H385.122V59H381.72V44.3H388.083C389.385 44.3 390.512 44.517 391.464 44.951C392.43 45.385 393.172 46.001 393.69 46.799C394.208 47.597 394.467 48.542 394.467 49.634C394.467 50.726 394.201 51.671 393.669 52.469C393.151 53.253 392.409 53.855 391.443 54.275L394.74 59H391.086ZM391.023 49.634C391.023 48.808 390.757 48.178 390.225 47.744C389.693 47.296 388.916 47.072 387.894 47.072H385.122V52.196H387.894C388.916 52.196 389.693 51.972 390.225 51.524C390.757 51.076 391.023 50.446 391.023 49.634ZM406.843 55.85H400.018L398.716 59H395.23L401.782 44.3H405.142L411.715 59H408.145L406.843 55.85ZM405.772 53.267L403.441 47.639L401.11 53.267H405.772ZM426.617 59L426.596 50.18L422.27 57.446H420.737L416.432 50.369V59H413.24V44.3H416.054L421.556 53.435L426.974 44.3H429.767L429.809 59H426.617ZM446.279 59.252C444.781 59.252 443.423 58.93 442.205 58.286C441.001 57.628 440.049 56.725 439.349 55.577C438.663 54.415 438.32 53.106 438.32 51.65C438.32 50.194 438.663 48.892 439.349 47.744C440.049 46.582 441.001 45.679 442.205 45.035C443.423 44.377 444.788 44.048 446.3 44.048C447.574 44.048 448.722 44.272 449.744 44.72C450.78 45.168 451.648 45.812 452.348 46.652L450.164 48.668C449.17 47.52 447.938 46.946 446.468 46.946C445.558 46.946 444.746 47.149 444.032 47.555C443.318 47.947 442.758 48.5 442.352 49.214C441.96 49.928 441.764 50.74 441.764 51.65C441.764 52.56 441.96 53.372 442.352 54.086C442.758 54.8 443.318 55.36 444.032 55.766C444.746 56.158 445.558 56.354 446.468 56.354C447.938 56.354 449.17 55.773 450.164 54.611L452.348 56.627C451.648 57.481 450.78 58.132 449.744 58.58C448.708 59.028 447.553 59.252 446.279 59.252ZM461.457 59.252C459.931 59.252 458.552 58.923 457.32 58.265C456.102 57.607 455.143 56.704 454.443 55.556C453.757 54.394 453.414 53.092 453.414 51.65C453.414 50.208 453.757 48.913 454.443 47.765C455.143 46.603 456.102 45.693 457.32 45.035C458.552 44.377 459.931 44.048 461.457 44.048C462.983 44.048 464.355 44.377 465.573 45.035C466.791 45.693 467.75 46.603 468.45 47.765C469.15 48.913 469.5 50.208 469.5 51.65C469.5 53.092 469.15 54.394 468.45 55.556C467.75 56.704 466.791 57.607 465.573 58.265C464.355 58.923 462.983 59.252 461.457 59.252ZM461.457 56.354C462.325 56.354 463.109 56.158 463.809 55.766C464.509 55.36 465.055 54.8 465.447 54.086C465.853 53.372 466.056 52.56 466.056 51.65C466.056 50.74 465.853 49.928 465.447 49.214C465.055 48.5 464.509 47.947 463.809 47.555C463.109 47.149 462.325 46.946 461.457 46.946C460.589 46.946 459.805 47.149 459.105 47.555C458.405 47.947 457.852 48.5 457.446 49.214C457.054 49.928 456.858 50.74 456.858 51.65C456.858 52.56 457.054 53.372 457.446 54.086C457.852 54.8 458.405 55.36 459.105 55.766C459.805 56.158 460.589 56.354 461.457 56.354ZM485.433 59L485.412 50.18L481.086 57.446H479.553L475.248 50.369V59H472.056V44.3H474.87L480.372 53.435L485.79 44.3H488.583L488.625 59H485.433ZM498.476 44.3C499.778 44.3 500.905 44.517 501.857 44.951C502.823 45.385 503.565 46.001 504.083 46.799C504.601 47.597 504.86 48.542 504.86 49.634C504.86 50.712 504.601 51.657 504.083 52.469C503.565 53.267 502.823 53.883 501.857 54.317C500.905 54.737 499.778 54.947 498.476 54.947H495.515V59H492.113V44.3H498.476ZM498.287 52.175C499.309 52.175 500.086 51.958 500.618 51.524C501.15 51.076 501.416 50.446 501.416 49.634C501.416 48.808 501.15 48.178 500.618 47.744C500.086 47.296 499.309 47.072 498.287 47.072H495.515V52.175H498.287ZM514.613 59.252C513.087 59.252 511.708 58.923 510.476 58.265C509.258 57.607 508.299 56.704 507.599 55.556C506.913 54.394 506.57 53.092 506.57 51.65C506.57 50.208 506.913 48.913 507.599 47.765C508.299 46.603 509.258 45.693 510.476 45.035C511.708 44.377 513.087 44.048 514.613 44.048C516.139 44.048 517.511 44.377 518.729 45.035C519.947 45.693 520.906 46.603 521.606 47.765C522.306 48.913 522.656 50.208 522.656 51.65C522.656 53.092 522.306 54.394 521.606 55.556C520.906 56.704 519.947 57.607 518.729 58.265C517.511 58.923 516.139 59.252 514.613 59.252ZM514.613 56.354C515.481 56.354 516.265 56.158 516.965 55.766C517.665 55.36 518.211 54.8 518.603 54.086C519.009 53.372 519.212 52.56 519.212 51.65C519.212 50.74 519.009 49.928 518.603 49.214C518.211 48.5 517.665 47.947 516.965 47.555C516.265 47.149 515.481 46.946 514.613 46.946C513.745 46.946 512.961 47.149 512.261 47.555C511.561 47.947 511.008 48.5 510.602 49.214C510.21 49.928 510.014 50.74 510.014 51.65C510.014 52.56 510.21 53.372 510.602 54.086C511.008 54.8 511.561 55.36 512.261 55.766C512.961 56.158 513.745 56.354 514.613 56.354ZM538.695 44.3V59H535.902L528.573 50.075V59H525.213V44.3H528.027L535.335 53.225V44.3H538.695ZM553.555 56.27V59H542.173V44.3H553.282V47.03H545.554V50.222H552.379V52.868H545.554V56.27H553.555ZM569.744 44.3V59H566.951L559.622 50.075V59H556.262V44.3H559.076L566.384 53.225V44.3H569.744ZM576.267 47.072H571.563V44.3H584.373V47.072H579.669V59H576.267V47.072ZM590.93 59.252C589.768 59.252 588.641 59.098 587.549 58.79C586.471 58.468 585.603 58.055 584.945 57.551L586.1 54.989C586.73 55.451 587.479 55.822 588.347 56.102C589.215 56.382 590.083 56.522 590.951 56.522C591.917 56.522 592.631 56.382 593.093 56.102C593.555 55.808 593.786 55.423 593.786 54.947C593.786 54.597 593.646 54.31 593.366 54.086C593.1 53.848 592.75 53.659 592.316 53.519C591.896 53.379 591.322 53.225 590.594 53.057C589.474 52.791 588.557 52.525 587.843 52.259C587.129 51.993 586.513 51.566 585.995 50.978C585.491 50.39 585.239 49.606 585.239 48.626C585.239 47.772 585.47 47.002 585.932 46.316C586.394 45.616 587.087 45.063 588.011 44.657C588.949 44.251 590.09 44.048 591.434 44.048C592.372 44.048 593.289 44.16 594.185 44.384C595.081 44.608 595.865 44.93 596.537 45.35L595.487 47.933C594.129 47.163 592.771 46.778 591.413 46.778C590.461 46.778 589.754 46.932 589.292 47.24C588.844 47.548 588.62 47.954 588.62 48.458C588.62 48.962 588.879 49.34 589.397 49.592C589.929 49.83 590.734 50.068 591.812 50.306C592.932 50.572 593.849 50.838 594.563 51.104C595.277 51.37 595.886 51.79 596.39 52.364C596.908 52.938 597.167 53.715 597.167 54.695C597.167 55.535 596.929 56.305 596.453 57.005C595.991 57.691 595.291 58.237 594.353 58.643C593.415 59.049 592.274 59.252 590.93 59.252Z" fill="black"/>
</g>
<defs>
<clipPath id="clip0">
<rect width="820" height="998" fill="white"/>
</clipPath>
</defs>
</svg>
