<svg width="616" height="824" viewBox="0 0 616 824" fill="none" xmlns="http://www.w3.org/2000/svg">
<rect width="616" height="824" fill="white"/>
<path d="M147.506 60L146.419 56.4316H140.954L139.867 60H136.442L141.733 44.9473H145.619L150.931 60H147.506ZM145.66 53.7656C144.655 50.5322 144.088 48.7036 143.958 48.2798C143.835 47.856 143.746 47.521 143.691 47.2749C143.466 48.1499 142.82 50.3135 141.753 53.7656H145.66ZM158.99 47.439C157.794 47.439 156.868 47.8901 156.211 48.7925C155.555 49.688 155.227 50.939 155.227 52.5454C155.227 55.8882 156.481 57.5596 158.99 57.5596C160.043 57.5596 161.318 57.2964 162.815 56.77V59.436C161.584 59.9487 160.21 60.2051 158.693 60.2051C156.512 60.2051 154.844 59.5454 153.689 58.2261C152.534 56.8999 151.956 54.9995 151.956 52.5249C151.956 50.9663 152.24 49.6025 152.807 48.4336C153.375 47.2578 154.188 46.3589 155.248 45.7368C156.314 45.1079 157.562 44.7935 158.99 44.7935C160.446 44.7935 161.909 45.1455 163.379 45.8496L162.354 48.4336C161.793 48.167 161.229 47.9346 160.662 47.7363C160.094 47.5381 159.537 47.439 158.99 47.439ZM172.177 47.439C170.98 47.439 170.054 47.8901 169.398 48.7925C168.742 49.688 168.414 50.939 168.414 52.5454C168.414 55.8882 169.668 57.5596 172.177 57.5596C173.229 57.5596 174.504 57.2964 176.001 56.77V59.436C174.771 59.9487 173.397 60.2051 171.879 60.2051C169.699 60.2051 168.031 59.5454 166.875 58.2261C165.72 56.8999 165.143 54.9995 165.143 52.5249C165.143 50.9663 165.426 49.6025 165.994 48.4336C166.561 47.2578 167.375 46.3589 168.434 45.7368C169.5 45.1079 170.748 44.7935 172.177 44.7935C173.633 44.7935 175.096 45.1455 176.565 45.8496L175.54 48.4336C174.979 48.167 174.416 47.9346 173.848 47.7363C173.281 47.5381 172.724 47.439 172.177 47.439ZM187.834 60H179.201V45.0088H187.834V47.6133H182.379V50.9048H187.455V53.5093H182.379V57.375H187.834V60ZM199.821 55.8369C199.821 57.1904 199.333 58.2568 198.355 59.0361C197.384 59.8154 196.031 60.2051 194.294 60.2051C192.695 60.2051 191.28 59.9043 190.049 59.3027V56.3496C191.061 56.8008 191.916 57.1187 192.613 57.3032C193.317 57.4878 193.959 57.5801 194.541 57.5801C195.238 57.5801 195.771 57.4468 196.14 57.1802C196.516 56.9136 196.704 56.5171 196.704 55.9907C196.704 55.6968 196.622 55.437 196.458 55.2114C196.294 54.979 196.051 54.7568 195.73 54.5449C195.416 54.333 194.77 53.9946 193.792 53.5298C192.876 53.0991 192.189 52.6855 191.731 52.2891C191.273 51.8926 190.907 51.4312 190.634 50.9048C190.36 50.3784 190.224 49.7632 190.224 49.0591C190.224 47.7329 190.671 46.6904 191.567 45.9316C192.469 45.1729 193.713 44.7935 195.299 44.7935C196.079 44.7935 196.82 44.8857 197.524 45.0703C198.235 45.2549 198.977 45.5146 199.75 45.8496L198.724 48.3208C197.924 47.9927 197.261 47.7637 196.735 47.6338C196.215 47.5039 195.703 47.439 195.197 47.439C194.595 47.439 194.134 47.5791 193.812 47.8594C193.491 48.1396 193.331 48.5054 193.331 48.9565C193.331 49.2368 193.396 49.4829 193.525 49.6948C193.655 49.8999 193.86 50.1016 194.141 50.2998C194.428 50.4912 195.101 50.8398 196.161 51.3457C197.562 52.0156 198.522 52.689 199.042 53.3657C199.562 54.0356 199.821 54.8594 199.821 55.8369ZM211.388 55.8369C211.388 57.1904 210.899 58.2568 209.921 59.0361C208.951 59.8154 207.597 60.2051 205.861 60.2051C204.261 60.2051 202.846 59.9043 201.616 59.3027V56.3496C202.627 56.8008 203.482 57.1187 204.179 57.3032C204.883 57.4878 205.526 57.5801 206.107 57.5801C206.804 57.5801 207.337 57.4468 207.707 57.1802C208.083 56.9136 208.271 56.5171 208.271 55.9907C208.271 55.6968 208.188 55.437 208.024 55.2114C207.86 54.979 207.618 54.7568 207.296 54.5449C206.982 54.333 206.336 53.9946 205.358 53.5298C204.442 53.0991 203.755 52.6855 203.297 52.2891C202.839 51.8926 202.474 51.4312 202.2 50.9048C201.927 50.3784 201.79 49.7632 201.79 49.0591C201.79 47.7329 202.238 46.6904 203.133 45.9316C204.036 45.1729 205.28 44.7935 206.866 44.7935C207.645 44.7935 208.387 44.8857 209.091 45.0703C209.802 45.2549 210.543 45.5146 211.316 45.8496L210.291 48.3208C209.491 47.9927 208.828 47.7637 208.301 47.6338C207.782 47.5039 207.269 47.439 206.763 47.439C206.162 47.439 205.7 47.5791 205.379 47.8594C205.058 48.1396 204.897 48.5054 204.897 48.9565C204.897 49.2368 204.962 49.4829 205.092 49.6948C205.222 49.8999 205.427 50.1016 205.707 50.2998C205.994 50.4912 206.667 50.8398 207.727 51.3457C209.128 52.0156 210.089 52.689 210.608 53.3657C211.128 54.0356 211.388 54.8594 211.388 55.8369ZM222.739 52.0635H223.785C224.762 52.0635 225.494 51.8721 225.979 51.4893C226.464 51.0996 226.707 50.5356 226.707 49.7974C226.707 49.0522 226.502 48.502 226.092 48.1465C225.688 47.791 225.053 47.6133 224.185 47.6133H222.739V52.0635ZM229.917 49.6846C229.917 51.2979 229.411 52.5317 228.399 53.3862C227.394 54.2407 225.962 54.668 224.103 54.668H222.739V60H219.56V45.0088H224.349C226.167 45.0088 227.548 45.4019 228.491 46.188C229.441 46.9673 229.917 48.1328 229.917 49.6846ZM235.925 51.6636H236.951C237.956 51.6636 238.697 51.4961 239.176 51.1611C239.654 50.8262 239.894 50.2998 239.894 49.582C239.894 48.8711 239.647 48.3652 239.155 48.0645C238.67 47.7637 237.915 47.6133 236.889 47.6133H235.925V51.6636ZM235.925 54.2476V60H232.747V45.0088H237.115C239.152 45.0088 240.659 45.3813 241.637 46.1265C242.614 46.8647 243.103 47.9893 243.103 49.5C243.103 50.3818 242.86 51.168 242.375 51.8584C241.89 52.542 241.203 53.0786 240.314 53.4683L244.723 60H241.196L237.617 54.2476H235.925ZM260.217 52.4839C260.217 54.9653 259.602 56.8726 258.371 58.2056C257.141 59.5386 255.377 60.2051 253.08 60.2051C250.783 60.2051 249.02 59.5386 247.789 58.2056C246.559 56.8726 245.943 54.9585 245.943 52.4634C245.943 49.9683 246.559 48.0645 247.789 46.752C249.026 45.4326 250.797 44.7729 253.101 44.7729C255.404 44.7729 257.165 45.436 258.381 46.7622C259.605 48.0884 260.217 49.9956 260.217 52.4839ZM249.276 52.4839C249.276 54.1587 249.594 55.4199 250.229 56.2676C250.865 57.1152 251.815 57.5391 253.08 57.5391C255.616 57.5391 256.884 55.854 256.884 52.4839C256.884 49.1069 255.623 47.4185 253.101 47.4185C251.836 47.4185 250.882 47.8457 250.24 48.7002C249.597 49.5479 249.276 50.8091 249.276 52.4839ZM269.015 51.5815H274.962V59.354C273.998 59.6685 273.089 59.8872 272.234 60.0103C271.387 60.1401 270.519 60.2051 269.63 60.2051C267.367 60.2051 265.638 59.542 264.441 58.2158C263.252 56.8828 262.657 54.9722 262.657 52.4839C262.657 50.064 263.348 48.1772 264.729 46.8237C266.116 45.4702 268.037 44.7935 270.491 44.7935C272.029 44.7935 273.513 45.1011 274.941 45.7163L273.885 48.2593C272.792 47.7124 271.653 47.439 270.471 47.439C269.097 47.439 267.996 47.9004 267.169 48.8232C266.342 49.7461 265.928 50.9868 265.928 52.5454C265.928 54.1724 266.26 55.4165 266.923 56.2778C267.593 57.1323 268.563 57.5596 269.835 57.5596C270.498 57.5596 271.171 57.4912 271.855 57.3545V54.2271H269.015V51.5815ZM281.719 51.6636H282.745C283.75 51.6636 284.491 51.4961 284.97 51.1611C285.448 50.8262 285.688 50.2998 285.688 49.582C285.688 48.8711 285.441 48.3652 284.949 48.0645C284.464 47.7637 283.708 47.6133 282.683 47.6133H281.719V51.6636ZM281.719 54.2476V60H278.541V45.0088H282.909C284.946 45.0088 286.453 45.3813 287.431 46.1265C288.408 46.8647 288.897 47.9893 288.897 49.5C288.897 50.3818 288.654 51.168 288.169 51.8584C287.684 52.542 286.997 53.0786 286.108 53.4683L290.517 60H286.99L283.411 54.2476H281.719ZM301.581 60L300.494 56.4316H295.029L293.942 60H290.517L295.808 44.9473H299.694L305.006 60H301.581ZM299.735 53.7656C298.73 50.5322 298.163 48.7036 298.033 48.2798C297.91 47.856 297.821 47.521 297.767 47.2749C297.541 48.1499 296.895 50.3135 295.829 53.7656H299.735ZM313.25 60L309.641 48.2388H309.548C309.678 50.6313 309.743 52.2275 309.743 53.0273V60H306.903V45.0088H311.23L314.778 56.4727H314.839L318.603 45.0088H322.93V60H319.966V52.9043C319.966 52.5693 319.97 52.1831 319.977 51.7456C319.99 51.3081 320.038 50.146 320.12 48.2593H320.028L316.162 60H313.25ZM338.536 47.439C337.34 47.439 336.414 47.8901 335.757 48.7925C335.101 49.688 334.773 50.939 334.773 52.5454C334.773 55.8882 336.027 57.5596 338.536 57.5596C339.589 57.5596 340.864 57.2964 342.361 56.77V59.436C341.13 59.9487 339.756 60.2051 338.239 60.2051C336.058 60.2051 334.39 59.5454 333.235 58.2261C332.08 56.8999 331.502 54.9995 331.502 52.5249C331.502 50.9663 331.786 49.6025 332.353 48.4336C332.92 47.2578 333.734 46.3589 334.793 45.7368C335.86 45.1079 337.107 44.7935 338.536 44.7935C339.992 44.7935 341.455 45.1455 342.925 45.8496L341.899 48.4336C341.339 48.167 340.775 47.9346 340.208 47.7363C339.64 47.5381 339.083 47.439 338.536 47.439ZM358.962 52.4839C358.962 54.9653 358.347 56.8726 357.116 58.2056C355.886 59.5386 354.122 60.2051 351.825 60.2051C349.528 60.2051 347.765 59.5386 346.534 58.2056C345.304 56.8726 344.688 54.9585 344.688 52.4634C344.688 49.9683 345.304 48.0645 346.534 46.752C347.771 45.4326 349.542 44.7729 351.846 44.7729C354.149 44.7729 355.91 45.436 357.126 46.7622C358.35 48.0884 358.962 49.9956 358.962 52.4839ZM348.021 52.4839C348.021 54.1587 348.339 55.4199 348.975 56.2676C349.61 57.1152 350.561 57.5391 351.825 57.5391C354.361 57.5391 355.629 55.854 355.629 52.4839C355.629 49.1069 354.368 47.4185 351.846 47.4185C350.581 47.4185 349.627 47.8457 348.985 48.7002C348.342 49.5479 348.021 50.8091 348.021 52.4839ZM368.416 60L364.807 48.2388H364.714C364.844 50.6313 364.909 52.2275 364.909 53.0273V60H362.069V45.0088H366.396L369.944 56.4727H370.005L373.769 45.0088H378.096V60H375.132V52.9043C375.132 52.5693 375.136 52.1831 375.143 51.7456C375.156 51.3081 375.204 50.146 375.286 48.2593H375.194L371.328 60H368.416ZM385.058 52.0635H386.104C387.082 52.0635 387.813 51.8721 388.298 51.4893C388.784 51.0996 389.026 50.5356 389.026 49.7974C389.026 49.0522 388.821 48.502 388.411 48.1465C388.008 47.791 387.372 47.6133 386.504 47.6133H385.058V52.0635ZM392.236 49.6846C392.236 51.2979 391.73 52.5317 390.718 53.3862C389.713 54.2407 388.281 54.668 386.422 54.668H385.058V60H381.879V45.0088H386.668C388.486 45.0088 389.867 45.4019 390.811 46.188C391.761 46.9673 392.236 48.1328 392.236 49.6846ZM408.673 52.4839C408.673 54.9653 408.058 56.8726 406.827 58.2056C405.597 59.5386 403.833 60.2051 401.536 60.2051C399.239 60.2051 397.476 59.5386 396.245 58.2056C395.015 56.8726 394.399 54.9585 394.399 52.4634C394.399 49.9683 395.015 48.0645 396.245 46.752C397.482 45.4326 399.253 44.7729 401.557 44.7729C403.86 44.7729 405.621 45.436 406.837 46.7622C408.061 48.0884 408.673 49.9956 408.673 52.4839ZM397.732 52.4839C397.732 54.1587 398.05 55.4199 398.686 56.2676C399.321 57.1152 400.271 57.5391 401.536 57.5391C404.072 57.5391 405.34 55.854 405.34 52.4839C405.34 49.1069 404.079 47.4185 401.557 47.4185C400.292 47.4185 399.338 47.8457 398.696 48.7002C398.053 49.5479 397.732 50.8091 397.732 52.4839ZM425.079 60H421.039L414.518 48.6592H414.425C414.555 50.6621 414.62 52.0908 414.62 52.9453V60H411.78V45.0088H415.789L422.3 56.2368H422.372C422.27 54.2886 422.218 52.9111 422.218 52.1045V45.0088H425.079V60ZM437.497 60H428.863V45.0088H437.497V47.6133H432.042V50.9048H437.117V53.5093H432.042V57.375H437.497V60ZM453.934 60H449.894L443.372 48.6592H443.28C443.41 50.6621 443.475 52.0908 443.475 52.9453V60H440.634V45.0088H444.644L451.155 56.2368H451.227C451.124 54.2886 451.073 52.9111 451.073 52.1045V45.0088H453.934V60ZM463.5 60H460.322V47.6543H456.251V45.0088H467.571V47.6543H463.5V60ZM478.728 55.8369C478.728 57.1904 478.239 58.2568 477.261 59.0361C476.291 59.8154 474.937 60.2051 473.201 60.2051C471.601 60.2051 470.186 59.9043 468.956 59.3027V56.3496C469.967 56.8008 470.822 57.1187 471.519 57.3032C472.223 57.4878 472.866 57.5801 473.447 57.5801C474.144 57.5801 474.677 57.4468 475.046 57.1802C475.422 56.9136 475.61 56.5171 475.61 55.9907C475.61 55.6968 475.528 55.437 475.364 55.2114C475.2 54.979 474.958 54.7568 474.636 54.5449C474.322 54.333 473.676 53.9946 472.698 53.5298C471.782 53.0991 471.095 52.6855 470.637 52.2891C470.179 51.8926 469.813 51.4312 469.54 50.9048C469.267 50.3784 469.13 49.7632 469.13 49.0591C469.13 47.7329 469.578 46.6904 470.473 45.9316C471.375 45.1729 472.62 44.7935 474.206 44.7935C474.985 44.7935 475.727 44.8857 476.431 45.0703C477.142 45.2549 477.883 45.5146 478.656 45.8496L477.63 48.3208C476.831 47.9927 476.167 47.7637 475.641 47.6338C475.122 47.5039 474.609 47.439 474.103 47.439C473.501 47.439 473.04 47.5791 472.719 47.8594C472.397 48.1396 472.237 48.5054 472.237 48.9565C472.237 49.2368 472.302 49.4829 472.432 49.6948C472.562 49.8999 472.767 50.1016 473.047 50.2998C473.334 50.4912 474.007 50.8398 475.067 51.3457C476.468 52.0156 477.429 52.689 477.948 53.3657C478.468 54.0356 478.728 54.8594 478.728 55.8369Z" fill="black"/>
<path d="M459 142C489.694 142 519.538 152.087 543.938 170.709C568.338 189.332 585.941 215.456 594.039 245.063C602.138 274.67 600.282 306.117 588.757 334.566C577.232 363.014 556.677 386.887 530.256 402.509C503.835 418.132 473.012 424.639 442.531 421.028C412.05 417.417 383.6 403.889 361.561 382.526C339.521 361.163 325.112 333.149 320.553 302.795C315.994 272.442 321.536 241.431 336.328 214.536L459 282V142Z" fill="#002D62"/>
<path d="M369.678 174.197C394.854 153.336 426.538 141.946 459.234 142L459 282L369.678 174.197Z" fill="#D11242"/>
<path d="M336.494 214.234C345.106 198.666 356.605 184.882 370.378 173.62L459 282L336.494 214.234Z" fill="#F5F5F5"/>
<circle cx="459" cy="282.001" r="22.7437" fill="white"/>
<path d="M412.191 350.659C412.191 351.178 412.105 351.646 411.935 352.063C411.771 352.474 411.542 352.836 411.248 353.15C410.96 353.458 410.619 353.718 410.222 353.93C409.833 354.135 409.409 354.292 408.951 354.401V354.463C410.161 354.613 411.077 354.982 411.699 355.57C412.321 356.151 412.632 356.938 412.632 357.929C412.632 358.585 412.512 359.193 412.273 359.754C412.041 360.308 411.678 360.79 411.186 361.2C410.701 361.61 410.085 361.931 409.34 362.164C408.602 362.389 407.73 362.502 406.726 362.502C405.919 362.502 405.16 362.434 404.449 362.297C403.738 362.167 403.075 361.965 402.46 361.692V358.995C402.768 359.159 403.092 359.303 403.434 359.426C403.776 359.549 404.118 359.655 404.459 359.744C404.801 359.826 405.136 359.887 405.464 359.928C405.799 359.969 406.114 359.99 406.408 359.99C406.996 359.99 407.484 359.935 407.874 359.826C408.264 359.716 408.575 359.562 408.807 359.364C409.04 359.166 409.204 358.93 409.299 358.657C409.402 358.376 409.453 358.072 409.453 357.744C409.453 357.437 409.388 357.16 409.258 356.914C409.135 356.661 408.93 356.449 408.643 356.278C408.363 356.1 407.994 355.963 407.536 355.868C407.078 355.772 406.514 355.724 405.844 355.724H404.777V353.499H405.823C406.452 353.499 406.975 353.444 407.392 353.335C407.809 353.219 408.141 353.065 408.387 352.874C408.64 352.675 408.817 352.446 408.92 352.187C409.022 351.927 409.074 351.65 409.074 351.356C409.074 350.823 408.906 350.406 408.571 350.105C408.243 349.804 407.72 349.654 407.002 349.654C406.674 349.654 406.367 349.688 406.08 349.756C405.799 349.818 405.536 349.9 405.29 350.002C405.051 350.098 404.829 350.208 404.624 350.331C404.425 350.447 404.244 350.563 404.08 350.679L402.48 348.567C402.768 348.355 403.079 348.16 403.414 347.982C403.755 347.805 404.125 347.651 404.521 347.521C404.917 347.384 405.345 347.278 405.803 347.203C406.261 347.128 406.75 347.09 407.269 347.09C408.007 347.09 408.677 347.172 409.279 347.336C409.887 347.494 410.407 347.726 410.837 348.034C411.268 348.334 411.6 348.707 411.832 349.151C412.071 349.589 412.191 350.091 412.191 350.659ZM424.362 354.801C424.362 356.011 424.267 357.091 424.075 358.042C423.891 358.992 423.59 359.798 423.173 360.461C422.763 361.125 422.229 361.63 421.573 361.979C420.924 362.328 420.138 362.502 419.215 362.502C418.347 362.502 417.591 362.328 416.949 361.979C416.306 361.63 415.773 361.125 415.349 360.461C414.925 359.798 414.607 358.992 414.396 358.042C414.19 357.091 414.088 356.011 414.088 354.801C414.088 353.591 414.18 352.508 414.365 351.551C414.556 350.594 414.857 349.784 415.267 349.121C415.677 348.458 416.207 347.952 416.856 347.603C417.506 347.248 418.292 347.07 419.215 347.07C420.076 347.07 420.828 347.244 421.471 347.593C422.113 347.941 422.65 348.447 423.081 349.11C423.511 349.773 423.833 350.583 424.044 351.541C424.256 352.498 424.362 353.584 424.362 354.801ZM417.246 354.801C417.246 356.51 417.393 357.795 417.687 358.657C417.981 359.518 418.49 359.949 419.215 359.949C419.926 359.949 420.435 359.521 420.743 358.667C421.057 357.812 421.214 356.524 421.214 354.801C421.214 353.085 421.057 351.797 420.743 350.936C420.435 350.067 419.926 349.633 419.215 349.633C418.853 349.633 418.545 349.743 418.292 349.961C418.046 350.18 417.844 350.505 417.687 350.936C417.53 351.366 417.417 351.906 417.349 352.556C417.28 353.198 417.246 353.947 417.246 354.801ZM435.929 354.801C435.929 356.011 435.833 357.091 435.642 358.042C435.457 358.992 435.156 359.798 434.739 360.461C434.329 361.125 433.796 361.63 433.14 361.979C432.49 362.328 431.704 362.502 430.781 362.502C429.913 362.502 429.158 362.328 428.515 361.979C427.873 361.63 427.339 361.125 426.916 360.461C426.492 359.798 426.174 358.992 425.962 358.042C425.757 357.091 425.654 356.011 425.654 354.801C425.654 353.591 425.747 352.508 425.931 351.551C426.123 350.594 426.423 349.784 426.833 349.121C427.244 348.458 427.773 347.952 428.423 347.603C429.072 347.248 429.858 347.07 430.781 347.07C431.643 347.07 432.395 347.244 433.037 347.593C433.68 347.941 434.216 348.447 434.647 349.11C435.078 349.773 435.399 350.583 435.611 351.541C435.823 352.498 435.929 353.584 435.929 354.801ZM428.812 354.801C428.812 356.51 428.959 357.795 429.253 358.657C429.547 359.518 430.057 359.949 430.781 359.949C431.492 359.949 432.001 359.521 432.309 358.667C432.624 357.812 432.781 356.524 432.781 354.801C432.781 353.085 432.624 351.797 432.309 350.936C432.001 350.067 431.492 349.633 430.781 349.633C430.419 349.633 430.111 349.743 429.858 349.961C429.612 350.18 429.411 350.505 429.253 350.936C429.096 351.366 428.983 351.906 428.915 352.556C428.847 353.198 428.812 353.947 428.812 354.801ZM456.201 362.297H453.032V355.827H447.095V362.297H443.917V347.306H447.095V353.181H453.032V347.306H456.201V362.297ZM473.602 354.781C473.602 357.262 472.986 359.169 471.756 360.502C470.525 361.835 468.762 362.502 466.465 362.502C464.168 362.502 462.404 361.835 461.174 360.502C459.943 359.169 459.328 357.255 459.328 354.76C459.328 352.265 459.943 350.361 461.174 349.049C462.411 347.729 464.182 347.07 466.485 347.07C468.789 347.07 470.549 347.733 471.766 349.059C472.99 350.385 473.602 352.292 473.602 354.781ZM462.661 354.781C462.661 356.456 462.979 357.717 463.614 358.564C464.25 359.412 465.2 359.836 466.465 359.836C469.001 359.836 470.269 358.151 470.269 354.781C470.269 351.404 469.008 349.715 466.485 349.715C465.221 349.715 464.267 350.143 463.625 350.997C462.982 351.845 462.661 353.106 462.661 354.781ZM488.911 347.306V357.006C488.911 358.113 488.661 359.084 488.162 359.918C487.67 360.752 486.956 361.391 486.019 361.835C485.083 362.28 483.975 362.502 482.697 362.502C480.769 362.502 479.272 362.01 478.206 361.025C477.139 360.034 476.606 358.681 476.606 356.965V347.306H479.774V356.483C479.774 357.638 480.007 358.486 480.472 359.026C480.937 359.566 481.706 359.836 482.779 359.836C483.818 359.836 484.57 359.566 485.035 359.026C485.506 358.479 485.742 357.625 485.742 356.462V347.306H488.911ZM495.76 353.96H496.786C497.791 353.96 498.532 353.793 499.011 353.458C499.489 353.123 499.729 352.597 499.729 351.879C499.729 351.168 499.482 350.662 498.99 350.361C498.505 350.061 497.75 349.91 496.724 349.91H495.76V353.96ZM495.76 356.544V362.297H492.582V347.306H496.95C498.987 347.306 500.494 347.678 501.472 348.423C502.449 349.162 502.938 350.286 502.938 351.797C502.938 352.679 502.695 353.465 502.21 354.155C501.725 354.839 501.038 355.375 500.149 355.765L504.558 362.297H501.031L497.452 356.544H495.76ZM515.294 358.134C515.294 359.487 514.805 360.554 513.828 361.333C512.857 362.112 511.503 362.502 509.767 362.502C508.167 362.502 506.752 362.201 505.522 361.6V358.646C506.534 359.098 507.388 359.416 508.085 359.6C508.79 359.785 509.432 359.877 510.013 359.877C510.71 359.877 511.244 359.744 511.613 359.477C511.989 359.21 512.177 358.814 512.177 358.288C512.177 357.994 512.095 357.734 511.931 357.508C511.767 357.276 511.524 357.054 511.203 356.842C510.888 356.63 510.242 356.292 509.265 355.827C508.349 355.396 507.662 354.982 507.204 354.586C506.746 354.189 506.38 353.728 506.106 353.202C505.833 352.675 505.696 352.06 505.696 351.356C505.696 350.03 506.144 348.987 507.04 348.229C507.942 347.47 509.186 347.09 510.772 347.09C511.551 347.09 512.293 347.183 512.997 347.367C513.708 347.552 514.45 347.812 515.222 348.146L514.197 350.618C513.397 350.29 512.734 350.061 512.208 349.931C511.688 349.801 511.175 349.736 510.669 349.736C510.068 349.736 509.606 349.876 509.285 350.156C508.964 350.437 508.803 350.802 508.803 351.253C508.803 351.534 508.868 351.78 508.998 351.992C509.128 352.197 509.333 352.398 509.613 352.597C509.9 352.788 510.574 353.137 511.633 353.643C513.035 354.312 513.995 354.986 514.515 355.663C515.034 356.333 515.294 357.156 515.294 358.134Z" fill="white"/>
<path d="M426.397 194.975H424.592V198.082H421.506V194.975H415.313V192.771L421.68 183.091H424.592V192.514H426.397V194.975ZM421.506 192.514V189.971C421.506 189.882 421.506 189.756 421.506 189.592C421.513 189.421 421.52 189.229 421.526 189.018C421.533 188.806 421.54 188.587 421.547 188.361C421.561 188.136 421.571 187.92 421.578 187.715C421.591 187.51 421.602 187.333 421.608 187.182C421.622 187.025 421.632 186.912 421.639 186.844H421.547C421.424 187.131 421.284 187.435 421.127 187.756C420.976 188.078 420.802 188.399 420.604 188.72L418.102 192.514H421.506ZM437.758 190.586C437.758 191.796 437.663 192.876 437.471 193.827C437.287 194.777 436.986 195.583 436.569 196.247C436.159 196.91 435.626 197.416 434.969 197.764C434.32 198.113 433.534 198.287 432.611 198.287C431.743 198.287 430.987 198.113 430.345 197.764C429.702 197.416 429.169 196.91 428.745 196.247C428.321 195.583 428.003 194.777 427.792 193.827C427.586 192.876 427.484 191.796 427.484 190.586C427.484 189.376 427.576 188.293 427.761 187.336C427.952 186.379 428.253 185.569 428.663 184.906C429.073 184.243 429.603 183.737 430.252 183.388C430.902 183.033 431.688 182.855 432.611 182.855C433.472 182.855 434.224 183.029 434.867 183.378C435.509 183.727 436.046 184.232 436.477 184.896C436.907 185.559 437.229 186.369 437.44 187.326C437.652 188.283 437.758 189.37 437.758 190.586ZM430.642 190.586C430.642 192.295 430.789 193.581 431.083 194.442C431.377 195.303 431.886 195.734 432.611 195.734C433.322 195.734 433.831 195.307 434.139 194.452C434.453 193.598 434.61 192.309 434.61 190.586C434.61 188.871 434.453 187.582 434.139 186.721C433.831 185.853 433.322 185.418 432.611 185.418C432.249 185.418 431.941 185.528 431.688 185.747C431.442 185.965 431.24 186.29 431.083 186.721C430.926 187.151 430.813 187.691 430.745 188.341C430.676 188.983 430.642 189.732 430.642 190.586Z" fill="white"/>
<path d="M381.523 227.596H371.463V225.391L374.991 221.587C375.435 221.108 375.838 220.667 376.201 220.264C376.563 219.861 376.874 219.468 377.134 219.085C377.394 218.702 377.595 218.312 377.739 217.916C377.882 217.52 377.954 217.092 377.954 216.634C377.954 216.128 377.8 215.735 377.493 215.455C377.192 215.175 376.785 215.035 376.273 215.035C375.732 215.035 375.213 215.168 374.714 215.435C374.215 215.701 373.692 216.081 373.145 216.573L371.422 214.532C371.73 214.252 372.051 213.985 372.386 213.732C372.721 213.473 373.09 213.244 373.494 213.045C373.897 212.847 374.341 212.69 374.827 212.574C375.312 212.451 375.856 212.389 376.457 212.389C377.175 212.389 377.817 212.488 378.385 212.687C378.959 212.885 379.448 213.168 379.851 213.538C380.254 213.9 380.562 214.341 380.774 214.86C380.993 215.38 381.102 215.964 381.102 216.614C381.102 217.202 381 217.766 380.794 218.306C380.589 218.839 380.309 219.365 379.954 219.885C379.598 220.397 379.185 220.91 378.713 221.423C378.248 221.929 377.749 222.445 377.216 222.971L375.411 224.786V224.93H381.523V227.596ZM393.109 220.1C393.109 221.31 393.014 222.39 392.822 223.34C392.638 224.291 392.337 225.097 391.92 225.76C391.51 226.423 390.977 226.929 390.32 227.278C389.671 227.626 388.885 227.801 387.962 227.801C387.094 227.801 386.338 227.626 385.696 227.278C385.053 226.929 384.52 226.423 384.096 225.76C383.672 225.097 383.355 224.291 383.143 223.34C382.938 222.39 382.835 221.31 382.835 220.1C382.835 218.89 382.927 217.807 383.112 216.85C383.303 215.893 383.604 215.083 384.014 214.419C384.424 213.756 384.954 213.25 385.604 212.902C386.253 212.546 387.039 212.369 387.962 212.369C388.823 212.369 389.575 212.543 390.218 212.892C390.86 213.24 391.397 213.746 391.828 214.409C392.258 215.072 392.58 215.882 392.792 216.839C393.003 217.796 393.109 218.883 393.109 220.1ZM385.993 220.1C385.993 221.809 386.14 223.094 386.434 223.956C386.728 224.817 387.237 225.248 387.962 225.248C388.673 225.248 389.182 224.82 389.49 223.966C389.804 223.111 389.961 221.823 389.961 220.1C389.961 218.384 389.804 217.096 389.49 216.234C389.182 215.366 388.673 214.932 387.962 214.932C387.6 214.932 387.292 215.042 387.039 215.26C386.793 215.479 386.591 215.804 386.434 216.234C386.277 216.665 386.164 217.205 386.096 217.854C386.027 218.497 385.993 219.246 385.993 220.1Z" fill="black"/>
<path d="M459 459C488.941 459 518.093 468.599 542.177 486.387C566.261 504.176 584.007 529.217 592.811 557.834C601.615 586.452 601.012 617.138 591.092 645.387C581.171 673.637 562.455 697.962 537.692 714.791C512.928 731.621 483.421 740.068 453.504 738.892C423.586 737.717 394.833 726.981 371.466 708.26C348.099 689.54 331.35 663.821 323.676 634.88C316.002 605.94 317.809 575.301 328.831 547.463L459 599V459Z" fill="#002D62"/>
<path d="M328.575 548.114C338.82 521.855 356.753 499.3 380.027 483.401C403.3 467.501 430.832 458.996 459.018 459L459 599L328.575 548.114Z" fill="#D11242"/>
<circle cx="459" cy="599" r="22.7437" fill="white"/>
<path d="M412.775 679.297H402.716V677.092L406.244 673.288C406.688 672.81 407.091 672.369 407.454 671.965C407.816 671.562 408.127 671.169 408.387 670.786C408.646 670.403 408.848 670.014 408.992 669.617C409.135 669.221 409.207 668.793 409.207 668.335C409.207 667.83 409.053 667.437 408.746 667.156C408.445 666.876 408.038 666.736 407.525 666.736C406.985 666.736 406.466 666.869 405.967 667.136C405.468 667.402 404.945 667.782 404.398 668.274L402.675 666.233C402.983 665.953 403.304 665.687 403.639 665.434C403.974 665.174 404.343 664.945 404.747 664.747C405.15 664.548 405.594 664.391 406.08 664.275C406.565 664.152 407.108 664.09 407.71 664.09C408.428 664.09 409.07 664.189 409.638 664.388C410.212 664.586 410.701 664.87 411.104 665.239C411.507 665.601 411.815 666.042 412.027 666.562C412.246 667.081 412.355 667.666 412.355 668.315C412.355 668.903 412.252 669.467 412.047 670.007C411.842 670.54 411.562 671.066 411.207 671.586C410.851 672.099 410.438 672.611 409.966 673.124C409.501 673.63 409.002 674.146 408.469 674.672L406.664 676.487V676.631H412.775V679.297ZM424.26 670.704C424.26 671.422 424.219 672.14 424.137 672.857C424.062 673.568 423.921 674.249 423.716 674.898C423.518 675.547 423.245 676.156 422.896 676.723C422.554 677.284 422.117 677.769 421.583 678.179C421.057 678.589 420.421 678.914 419.676 679.153C418.938 679.386 418.07 679.502 417.072 679.502C416.928 679.502 416.771 679.499 416.6 679.492C416.429 679.485 416.255 679.475 416.077 679.461C415.906 679.454 415.739 679.44 415.575 679.42C415.411 679.406 415.267 679.386 415.144 679.358V676.815C415.397 676.884 415.667 676.938 415.954 676.979C416.248 677.014 416.545 677.031 416.846 677.031C417.769 677.031 418.528 676.918 419.123 676.692C419.717 676.46 420.189 676.139 420.538 675.729C420.886 675.312 421.132 674.816 421.276 674.242C421.426 673.667 421.519 673.035 421.553 672.345H421.419C421.283 672.591 421.119 672.82 420.927 673.032C420.736 673.244 420.51 673.428 420.25 673.585C419.991 673.743 419.697 673.866 419.369 673.955C419.041 674.043 418.675 674.088 418.271 674.088C417.622 674.088 417.038 673.982 416.518 673.77C415.999 673.558 415.558 673.25 415.195 672.847C414.84 672.444 414.566 671.948 414.375 671.36C414.184 670.772 414.088 670.099 414.088 669.34C414.088 668.527 414.201 667.799 414.426 667.156C414.659 666.514 414.987 665.97 415.411 665.526C415.834 665.075 416.347 664.729 416.949 664.49C417.557 664.251 418.237 664.131 418.989 664.131C419.728 664.131 420.418 664.265 421.061 664.531C421.703 664.791 422.26 665.191 422.732 665.731C423.204 666.271 423.576 666.955 423.85 667.782C424.123 668.609 424.26 669.583 424.26 670.704ZM419.051 666.674C418.771 666.674 418.514 666.726 418.282 666.828C418.049 666.931 417.848 667.091 417.677 667.31C417.513 667.522 417.383 667.795 417.287 668.13C417.198 668.458 417.154 668.848 417.154 669.299C417.154 670.024 417.308 670.598 417.615 671.022C417.923 671.446 418.388 671.658 419.01 671.658C419.324 671.658 419.611 671.596 419.871 671.473C420.131 671.35 420.353 671.189 420.538 670.991C420.722 670.793 420.862 670.571 420.958 670.325C421.061 670.079 421.112 669.829 421.112 669.576C421.112 669.228 421.067 668.882 420.979 668.541C420.896 668.192 420.767 667.881 420.589 667.607C420.418 667.327 420.203 667.102 419.943 666.931C419.69 666.76 419.393 666.674 419.051 666.674ZM435.929 671.801C435.929 673.011 435.833 674.091 435.642 675.042C435.457 675.992 435.156 676.798 434.739 677.461C434.329 678.125 433.796 678.63 433.14 678.979C432.49 679.328 431.704 679.502 430.781 679.502C429.913 679.502 429.158 679.328 428.515 678.979C427.873 678.63 427.339 678.125 426.916 677.461C426.492 676.798 426.174 675.992 425.962 675.042C425.757 674.091 425.654 673.011 425.654 671.801C425.654 670.591 425.747 669.508 425.931 668.551C426.123 667.594 426.423 666.784 426.833 666.121C427.244 665.458 427.773 664.952 428.423 664.603C429.072 664.248 429.858 664.07 430.781 664.07C431.643 664.07 432.395 664.244 433.037 664.593C433.68 664.941 434.216 665.447 434.647 666.11C435.078 666.773 435.399 667.583 435.611 668.541C435.823 669.498 435.929 670.584 435.929 671.801ZM428.812 671.801C428.812 673.51 428.959 674.795 429.253 675.657C429.547 676.518 430.057 676.949 430.781 676.949C431.492 676.949 432.001 676.521 432.309 675.667C432.624 674.812 432.781 673.524 432.781 671.801C432.781 670.085 432.624 668.797 432.309 667.936C432.001 667.067 431.492 666.633 430.781 666.633C430.419 666.633 430.111 666.743 429.858 666.961C429.612 667.18 429.411 667.505 429.253 667.936C429.096 668.366 428.983 668.906 428.915 669.556C428.847 670.198 428.812 670.947 428.812 671.801ZM456.201 679.297H453.032V672.827H447.095V679.297H443.917V664.306H447.095V670.181H453.032V664.306H456.201V679.297ZM473.602 671.781C473.602 674.262 472.986 676.169 471.756 677.502C470.525 678.835 468.762 679.502 466.465 679.502C464.168 679.502 462.404 678.835 461.174 677.502C459.943 676.169 459.328 674.255 459.328 671.76C459.328 669.265 459.943 667.361 461.174 666.049C462.411 664.729 464.182 664.07 466.485 664.07C468.789 664.07 470.549 664.733 471.766 666.059C472.99 667.385 473.602 669.292 473.602 671.781ZM462.661 671.781C462.661 673.456 462.979 674.717 463.614 675.564C464.25 676.412 465.2 676.836 466.465 676.836C469.001 676.836 470.269 675.151 470.269 671.781C470.269 668.404 469.008 666.715 466.485 666.715C465.221 666.715 464.267 667.143 463.625 667.997C462.982 668.845 462.661 670.106 462.661 671.781ZM488.911 664.306V674.006C488.911 675.113 488.661 676.084 488.162 676.918C487.67 677.752 486.956 678.391 486.019 678.835C485.083 679.28 483.975 679.502 482.697 679.502C480.769 679.502 479.272 679.01 478.206 678.025C477.139 677.034 476.606 675.681 476.606 673.965V664.306H479.774V673.483C479.774 674.638 480.007 675.486 480.472 676.026C480.937 676.566 481.706 676.836 482.779 676.836C483.818 676.836 484.57 676.566 485.035 676.026C485.506 675.479 485.742 674.625 485.742 673.462V664.306H488.911ZM495.76 670.96H496.786C497.791 670.96 498.532 670.793 499.011 670.458C499.489 670.123 499.729 669.597 499.729 668.879C499.729 668.168 499.482 667.662 498.99 667.361C498.505 667.061 497.75 666.91 496.724 666.91H495.76V670.96ZM495.76 673.544V679.297H492.582V664.306H496.95C498.987 664.306 500.494 664.678 501.472 665.423C502.449 666.162 502.938 667.286 502.938 668.797C502.938 669.679 502.695 670.465 502.21 671.155C501.725 671.839 501.038 672.375 500.149 672.765L504.558 679.297H501.031L497.452 673.544H495.76ZM515.294 675.134C515.294 676.487 514.805 677.554 513.828 678.333C512.857 679.112 511.503 679.502 509.767 679.502C508.167 679.502 506.752 679.201 505.522 678.6V675.646C506.534 676.098 507.388 676.416 508.085 676.6C508.79 676.785 509.432 676.877 510.013 676.877C510.71 676.877 511.244 676.744 511.613 676.477C511.989 676.21 512.177 675.814 512.177 675.288C512.177 674.994 512.095 674.734 511.931 674.508C511.767 674.276 511.524 674.054 511.203 673.842C510.888 673.63 510.242 673.292 509.265 672.827C508.349 672.396 507.662 671.982 507.204 671.586C506.746 671.189 506.38 670.728 506.106 670.202C505.833 669.675 505.696 669.06 505.696 668.356C505.696 667.03 506.144 665.987 507.04 665.229C507.942 664.47 509.186 664.09 510.772 664.09C511.551 664.09 512.293 664.183 512.997 664.367C513.708 664.552 514.45 664.812 515.222 665.146L514.197 667.618C513.397 667.29 512.734 667.061 512.208 666.931C511.688 666.801 511.175 666.736 510.669 666.736C510.068 666.736 509.606 666.876 509.285 667.156C508.964 667.437 508.803 667.802 508.803 668.253C508.803 668.534 508.868 668.78 508.998 668.992C509.128 669.197 509.333 669.398 509.613 669.597C509.9 669.788 510.574 670.137 511.633 670.643C513.035 671.312 513.995 671.986 514.515 672.663C515.034 673.333 515.294 674.156 515.294 675.134Z" fill="white"/>
<path d="M392.529 530.109L397.861 517.805H390.97V515.139H401.306V517.128L395.841 530.109H392.529ZM412.893 522.614C412.893 523.824 412.797 524.904 412.606 525.854C412.421 526.804 412.121 527.611 411.704 528.274C411.294 528.937 410.76 529.443 410.104 529.792C409.455 530.14 408.669 530.314 407.746 530.314C406.877 530.314 406.122 530.14 405.48 529.792C404.837 529.443 404.304 528.937 403.88 528.274C403.456 527.611 403.138 526.804 402.926 525.854C402.721 524.904 402.619 523.824 402.619 522.614C402.619 521.404 402.711 520.32 402.896 519.363C403.087 518.406 403.388 517.596 403.798 516.933C404.208 516.27 404.738 515.764 405.387 515.416C406.037 515.06 406.823 514.882 407.746 514.882C408.607 514.882 409.359 515.057 410.002 515.405C410.644 515.754 411.181 516.26 411.611 516.923C412.042 517.586 412.363 518.396 412.575 519.353C412.787 520.31 412.893 521.397 412.893 522.614ZM405.777 522.614C405.777 524.323 405.924 525.608 406.218 526.469C406.512 527.331 407.021 527.761 407.746 527.761C408.457 527.761 408.966 527.334 409.273 526.479C409.588 525.625 409.745 524.336 409.745 522.614C409.745 520.898 409.588 519.609 409.273 518.748C408.966 517.88 408.457 517.446 407.746 517.446C407.383 517.446 407.076 517.555 406.823 517.774C406.577 517.993 406.375 518.317 406.218 518.748C406.061 519.179 405.948 519.719 405.879 520.368C405.811 521.011 405.777 521.759 405.777 522.614Z" fill="white"/>
<path d="M153 459C184.824 459 215.698 469.842 240.534 489.74C265.37 509.637 282.686 537.403 289.628 568.46C296.57 599.517 292.724 632.013 278.724 660.591C264.723 689.17 241.404 712.126 212.609 725.676C183.814 739.226 151.262 742.561 120.318 735.132C89.3732 727.703 61.8832 709.953 42.3783 684.807C22.8733 659.661 12.5174 628.621 13.0173 596.801C13.5171 564.981 24.843 534.281 45.1282 509.761L153 599V459Z" fill="#002D62"/>
<path d="M101.372 468.867C117.773 462.36 135.257 459.012 152.902 459L153 599L101.372 468.867Z" fill="#D11242"/>
<path d="M30.494 531.234C46.2635 502.726 71.4814 480.61 101.803 468.697L153 599L30.494 531.234Z" fill="#F5F5F5"/>
<circle cx="153.001" cy="599.001" r="22.7437" fill="white"/>
<path d="M106.191 667.66C106.191 668.179 106.105 668.647 105.935 669.064C105.771 669.475 105.542 669.837 105.248 670.151C104.96 670.459 104.619 670.719 104.222 670.931C103.833 671.136 103.409 671.293 102.951 671.402V671.464C104.161 671.614 105.077 671.983 105.699 672.571C106.321 673.152 106.632 673.938 106.632 674.93C106.632 675.586 106.512 676.194 106.273 676.755C106.041 677.309 105.678 677.791 105.186 678.201C104.701 678.611 104.085 678.932 103.34 679.165C102.602 679.39 101.73 679.503 100.726 679.503C99.9189 679.503 99.1602 679.435 98.4492 679.298C97.7383 679.168 97.0752 678.966 96.46 678.693V675.996C96.7676 676.16 97.0923 676.304 97.4341 676.427C97.7759 676.55 98.1177 676.656 98.4595 676.745C98.8013 676.827 99.1362 676.888 99.4644 676.929C99.7993 676.97 100.114 676.991 100.408 676.991C100.996 676.991 101.484 676.936 101.874 676.827C102.264 676.717 102.575 676.563 102.807 676.365C103.04 676.167 103.204 675.931 103.299 675.658C103.402 675.377 103.453 675.073 103.453 674.745C103.453 674.438 103.388 674.161 103.258 673.915C103.135 673.662 102.93 673.45 102.643 673.279C102.363 673.101 101.994 672.964 101.536 672.869C101.078 672.773 100.514 672.725 99.8438 672.725H98.7773V670.5H99.8232C100.452 670.5 100.975 670.445 101.392 670.336C101.809 670.22 102.141 670.066 102.387 669.875C102.64 669.676 102.817 669.447 102.92 669.188C103.022 668.928 103.074 668.651 103.074 668.357C103.074 667.824 102.906 667.407 102.571 667.106C102.243 666.805 101.72 666.655 101.002 666.655C100.674 666.655 100.367 666.689 100.08 666.757C99.7993 666.819 99.5361 666.901 99.29 667.003C99.0508 667.099 98.8286 667.208 98.6235 667.332C98.4253 667.448 98.2441 667.564 98.0801 667.68L96.4805 665.568C96.7676 665.356 97.0786 665.161 97.4136 664.983C97.7554 664.806 98.1245 664.652 98.521 664.522C98.9175 664.385 99.3447 664.279 99.8027 664.204C100.261 664.129 100.75 664.091 101.269 664.091C102.007 664.091 102.677 664.173 103.279 664.337C103.887 664.495 104.407 664.727 104.837 665.035C105.268 665.335 105.6 665.708 105.832 666.152C106.071 666.59 106.191 667.092 106.191 667.66ZM115.819 679.298H112.651V670.623C112.651 670.445 112.651 670.233 112.651 669.987C112.658 669.734 112.665 669.475 112.671 669.208C112.685 668.935 112.695 668.661 112.702 668.388C112.716 668.114 112.726 667.865 112.733 667.639C112.699 667.68 112.641 667.742 112.559 667.824C112.477 667.906 112.384 667.998 112.282 668.101C112.179 668.196 112.073 668.295 111.964 668.398C111.854 668.5 111.749 668.593 111.646 668.675L109.923 670.059L108.385 668.152L113.215 664.307H115.819V679.298ZM129.929 671.802C129.929 673.012 129.833 674.092 129.642 675.042C129.457 675.993 129.156 676.799 128.739 677.462C128.329 678.125 127.796 678.631 127.14 678.98C126.49 679.329 125.704 679.503 124.781 679.503C123.913 679.503 123.158 679.329 122.515 678.98C121.873 678.631 121.339 678.125 120.916 677.462C120.492 676.799 120.174 675.993 119.962 675.042C119.757 674.092 119.654 673.012 119.654 671.802C119.654 670.592 119.747 669.509 119.931 668.552C120.123 667.595 120.423 666.785 120.833 666.122C121.244 665.458 121.773 664.953 122.423 664.604C123.072 664.249 123.858 664.071 124.781 664.071C125.643 664.071 126.395 664.245 127.037 664.594C127.68 664.942 128.216 665.448 128.647 666.111C129.078 666.774 129.399 667.584 129.611 668.542C129.823 669.499 129.929 670.585 129.929 671.802ZM122.812 671.802C122.812 673.511 122.959 674.796 123.253 675.658C123.547 676.519 124.057 676.95 124.781 676.95C125.492 676.95 126.001 676.522 126.309 675.668C126.624 674.813 126.781 673.525 126.781 671.802C126.781 670.086 126.624 668.798 126.309 667.937C126.001 667.068 125.492 666.634 124.781 666.634C124.419 666.634 124.111 666.744 123.858 666.962C123.612 667.181 123.411 667.506 123.253 667.937C123.096 668.367 122.983 668.907 122.915 669.557C122.847 670.199 122.812 670.948 122.812 671.802ZM150.201 679.298H147.032V672.828H141.095V679.298H137.917V664.307H141.095V670.182H147.032V664.307H150.201V679.298ZM167.602 671.782C167.602 674.263 166.986 676.17 165.756 677.503C164.525 678.836 162.762 679.503 160.465 679.503C158.168 679.503 156.404 678.836 155.174 677.503C153.943 676.17 153.328 674.256 153.328 671.761C153.328 669.266 153.943 667.362 155.174 666.05C156.411 664.73 158.182 664.071 160.485 664.071C162.789 664.071 164.549 664.734 165.766 666.06C166.99 667.386 167.602 669.293 167.602 671.782ZM156.661 671.782C156.661 673.457 156.979 674.718 157.614 675.565C158.25 676.413 159.2 676.837 160.465 676.837C163.001 676.837 164.269 675.152 164.269 671.782C164.269 668.405 163.008 666.716 160.485 666.716C159.221 666.716 158.267 667.144 157.625 667.998C156.982 668.846 156.661 670.107 156.661 671.782ZM182.911 664.307V674.007C182.911 675.114 182.661 676.085 182.162 676.919C181.67 677.753 180.956 678.392 180.019 678.836C179.083 679.281 177.975 679.503 176.697 679.503C174.769 679.503 173.272 679.011 172.206 678.026C171.139 677.035 170.606 675.682 170.606 673.966V664.307H173.774V673.484C173.774 674.639 174.007 675.487 174.472 676.027C174.937 676.567 175.706 676.837 176.779 676.837C177.818 676.837 178.57 676.567 179.035 676.027C179.506 675.48 179.742 674.625 179.742 673.463V664.307H182.911ZM189.76 670.961H190.786C191.791 670.961 192.532 670.794 193.011 670.459C193.489 670.124 193.729 669.598 193.729 668.88C193.729 668.169 193.482 667.663 192.99 667.362C192.505 667.062 191.75 666.911 190.724 666.911H189.76V670.961ZM189.76 673.545V679.298H186.582V664.307H190.95C192.987 664.307 194.494 664.679 195.472 665.424C196.449 666.163 196.938 667.287 196.938 668.798C196.938 669.68 196.695 670.466 196.21 671.156C195.725 671.84 195.038 672.376 194.149 672.766L198.558 679.298H195.031L191.452 673.545H189.76ZM209.294 675.135C209.294 676.488 208.805 677.555 207.828 678.334C206.857 679.113 205.503 679.503 203.767 679.503C202.167 679.503 200.752 679.202 199.522 678.601V675.647C200.534 676.099 201.388 676.417 202.085 676.601C202.79 676.786 203.432 676.878 204.013 676.878C204.71 676.878 205.244 676.745 205.613 676.478C205.989 676.211 206.177 675.815 206.177 675.289C206.177 674.995 206.095 674.735 205.931 674.509C205.767 674.277 205.524 674.055 205.203 673.843C204.888 673.631 204.242 673.292 203.265 672.828C202.349 672.397 201.662 671.983 201.204 671.587C200.746 671.19 200.38 670.729 200.106 670.203C199.833 669.676 199.696 669.061 199.696 668.357C199.696 667.031 200.144 665.988 201.04 665.229C201.942 664.471 203.186 664.091 204.772 664.091C205.551 664.091 206.293 664.184 206.997 664.368C207.708 664.553 208.45 664.812 209.222 665.147L208.197 667.619C207.397 667.291 206.734 667.062 206.208 666.932C205.688 666.802 205.175 666.737 204.669 666.737C204.068 666.737 203.606 666.877 203.285 667.157C202.964 667.438 202.803 667.803 202.803 668.254C202.803 668.535 202.868 668.781 202.998 668.993C203.128 669.198 203.333 669.399 203.613 669.598C203.9 669.789 204.574 670.138 205.633 670.644C207.035 671.313 207.995 671.987 208.515 672.664C209.034 673.333 209.294 674.157 209.294 675.135Z" fill="white"/>
<path d="M133.793 510.542H123.733V508.337L127.261 504.533C127.705 504.055 128.108 503.614 128.471 503.21C128.833 502.807 129.144 502.414 129.404 502.031C129.664 501.648 129.865 501.259 130.009 500.862C130.152 500.466 130.224 500.039 130.224 499.581C130.224 499.075 130.07 498.682 129.763 498.401C129.462 498.121 129.055 497.981 128.543 497.981C128.002 497.981 127.483 498.114 126.984 498.381C126.485 498.647 125.962 499.027 125.415 499.519L123.692 497.479C124 497.198 124.321 496.932 124.656 496.679C124.991 496.419 125.36 496.19 125.764 495.992C126.167 495.793 126.611 495.636 127.097 495.52C127.582 495.397 128.126 495.335 128.727 495.335C129.445 495.335 130.087 495.435 130.655 495.633C131.229 495.831 131.718 496.115 132.121 496.484C132.524 496.846 132.832 497.287 133.044 497.807C133.263 498.326 133.372 498.911 133.372 499.56C133.372 500.148 133.27 500.712 133.065 501.252C132.859 501.785 132.579 502.312 132.224 502.831C131.868 503.344 131.455 503.856 130.983 504.369C130.518 504.875 130.019 505.391 129.486 505.917L127.681 507.732V507.876H133.793V510.542ZM145.379 503.046C145.379 504.256 145.284 505.336 145.092 506.287C144.908 507.237 144.607 508.043 144.19 508.707C143.78 509.37 143.247 509.875 142.59 510.224C141.941 510.573 141.155 510.747 140.232 510.747C139.364 510.747 138.608 510.573 137.966 510.224C137.323 509.875 136.79 509.37 136.366 508.707C135.942 508.043 135.625 507.237 135.413 506.287C135.208 505.336 135.105 504.256 135.105 503.046C135.105 501.836 135.197 500.753 135.382 499.796C135.573 498.839 135.874 498.029 136.284 497.366C136.694 496.703 137.224 496.197 137.874 495.848C138.523 495.493 139.309 495.315 140.232 495.315C141.093 495.315 141.845 495.489 142.488 495.838C143.13 496.187 143.667 496.692 144.098 497.355C144.528 498.019 144.85 498.829 145.062 499.786C145.273 500.743 145.379 501.83 145.379 503.046ZM138.263 503.046C138.263 504.755 138.41 506.041 138.704 506.902C138.998 507.763 139.507 508.194 140.232 508.194C140.943 508.194 141.452 507.767 141.76 506.912C142.074 506.058 142.231 504.769 142.231 503.046C142.231 501.331 142.074 500.042 141.76 499.181C141.452 498.312 140.943 497.878 140.232 497.878C139.87 497.878 139.562 497.988 139.309 498.207C139.063 498.425 138.861 498.75 138.704 499.181C138.547 499.611 138.434 500.151 138.366 500.801C138.297 501.443 138.263 502.192 138.263 503.046Z" fill="white"/>
<path d="M85.5328 523.875C85.5328 524.395 85.4473 524.863 85.2764 525.28C85.1124 525.69 84.8834 526.053 84.5894 526.367C84.3023 526.675 83.9605 526.935 83.564 527.146C83.1744 527.352 82.7505 527.509 82.2925 527.618V527.68C83.5025 527.83 84.4185 528.199 85.0406 528.787C85.6627 529.368 85.9737 530.154 85.9737 531.146C85.9737 531.802 85.8541 532.41 85.6148 532.971C85.3824 533.524 85.0201 534.006 84.5279 534.417C84.0425 534.827 83.4273 535.148 82.6822 535.38C81.9439 535.606 81.0723 535.719 80.0674 535.719C79.2608 535.719 78.502 535.65 77.7911 535.514C77.0801 535.384 76.417 535.182 75.8018 534.909V532.212C76.1094 532.376 76.4341 532.52 76.7759 532.643C77.1177 532.766 77.4595 532.872 77.8013 532.96C78.1431 533.042 78.4781 533.104 78.8062 533.145C79.1412 533.186 79.4556 533.207 79.7496 533.207C80.3375 533.207 80.8262 533.152 81.2159 533.042C81.6055 532.933 81.9166 532.779 82.149 532.581C82.3814 532.383 82.5455 532.147 82.6412 531.874C82.7437 531.593 82.795 531.289 82.795 530.961C82.795 530.653 82.73 530.376 82.6002 530.13C82.4771 529.877 82.272 529.666 81.9849 529.495C81.7046 529.317 81.3355 529.18 80.8775 529.084C80.4195 528.989 79.8555 528.941 79.1856 528.941H78.1192V526.716H79.1651C79.794 526.716 80.3169 526.661 80.7339 526.552C81.1509 526.436 81.4825 526.282 81.7286 526.09C81.9815 525.892 82.1592 525.663 82.2618 525.403C82.3643 525.144 82.4156 524.867 82.4156 524.573C82.4156 524.04 82.2481 523.623 81.9131 523.322C81.585 523.021 81.0621 522.871 80.3443 522.871C80.0162 522.871 79.7085 522.905 79.4214 522.973C79.1412 523.035 78.878 523.117 78.6319 523.219C78.3926 523.315 78.1705 523.424 77.9654 523.547C77.7671 523.664 77.586 523.78 77.4219 523.896L75.8223 521.784C76.1094 521.572 76.4205 521.377 76.7554 521.199C77.0972 521.021 77.4664 520.868 77.8628 520.738C78.2593 520.601 78.6866 520.495 79.1446 520.42C79.6026 520.345 80.0914 520.307 80.6109 520.307C81.3492 520.307 82.0191 520.389 82.6207 520.553C83.2291 520.71 83.7486 520.943 84.1793 521.25C84.6099 521.551 84.9415 521.924 85.1739 522.368C85.4131 522.806 85.5328 523.308 85.5328 523.875ZM97.7042 528.018C97.7042 529.228 97.6085 530.308 97.417 531.258C97.2325 532.208 96.9317 533.015 96.5147 533.678C96.1045 534.341 95.5713 534.847 94.9151 535.196C94.2657 535.544 93.4795 535.719 92.5567 535.719C91.6885 535.719 90.9332 535.544 90.2906 535.196C89.648 534.847 89.1148 534.341 88.691 533.678C88.2671 533.015 87.9493 532.208 87.7374 531.258C87.5323 530.308 87.4297 529.228 87.4297 528.018C87.4297 526.808 87.522 525.725 87.7066 524.768C87.898 523.811 88.1988 523 88.6089 522.337C89.0191 521.674 89.5489 521.168 90.1983 520.82C90.8477 520.464 91.6338 520.287 92.5567 520.287C93.418 520.287 94.17 520.461 94.8126 520.81C95.4551 521.158 95.9918 521.664 96.4224 522.327C96.8531 522.99 97.1744 523.8 97.3863 524.757C97.5982 525.714 97.7042 526.801 97.7042 528.018ZM90.5879 528.018C90.5879 529.727 90.7349 531.012 91.0289 531.874C91.3228 532.735 91.8321 533.166 92.5567 533.166C93.2676 533.166 93.7769 532.738 94.0845 531.884C94.399 531.029 94.5562 529.741 94.5562 528.018C94.5562 526.302 94.399 525.014 94.0845 524.152C93.7769 523.284 93.2676 522.85 92.5567 522.85C92.1944 522.85 91.8868 522.959 91.6338 523.178C91.3877 523.397 91.1861 523.722 91.0289 524.152C90.8716 524.583 90.7588 525.123 90.6905 525.772C90.6221 526.415 90.5879 527.164 90.5879 528.018Z" fill="black"/>
<circle cx="66" cy="211" r="15.5" fill="#002D62" stroke="black"/>
<circle cx="66" cy="277" r="15.5" fill="#D11242" stroke="black"/>
<circle cx="65" cy="343" r="15.5" fill="#F5F5F5" stroke="black"/>
<path d="M105.372 216L104.94 214.887H104.881C104.505 215.36 104.117 215.69 103.717 215.875C103.321 216.056 102.804 216.146 102.164 216.146C101.378 216.146 100.758 215.922 100.304 215.473C99.8545 215.023 99.6299 214.384 99.6299 213.554C99.6299 212.685 99.9326 212.045 100.538 211.635C101.148 211.22 102.066 210.99 103.292 210.946L104.713 210.902V210.543C104.713 209.713 104.288 209.298 103.438 209.298C102.784 209.298 102.015 209.496 101.131 209.892L100.392 208.383C101.334 207.89 102.379 207.643 103.526 207.643C104.625 207.643 105.467 207.882 106.053 208.361C106.639 208.839 106.932 209.567 106.932 210.543V216H105.372ZM104.713 212.206L103.849 212.235C103.199 212.255 102.716 212.372 102.398 212.587C102.081 212.802 101.922 213.129 101.922 213.568C101.922 214.198 102.284 214.513 103.006 214.513C103.524 214.513 103.937 214.364 104.244 214.066C104.557 213.769 104.713 213.373 104.713 212.88V212.206ZM113.766 209.489H111.832V216H109.598V209.489H108.368V208.412L109.598 207.812V207.211C109.598 206.278 109.828 205.597 110.287 205.167C110.746 204.738 111.48 204.523 112.491 204.523C113.263 204.523 113.949 204.638 114.549 204.867L113.978 206.508C113.529 206.366 113.114 206.295 112.733 206.295C112.416 206.295 112.186 206.391 112.044 206.581C111.903 206.767 111.832 207.006 111.832 207.299V207.812H113.766V209.489ZM118.504 214.367C118.895 214.367 119.364 214.281 119.911 214.11V215.773C119.354 216.022 118.67 216.146 117.86 216.146C116.966 216.146 116.314 215.922 115.904 215.473C115.499 215.019 115.296 214.34 115.296 213.437V209.489H114.227V208.544L115.458 207.797L116.102 206.068H117.53V207.812H119.823V209.489H117.53V213.437C117.53 213.754 117.618 213.988 117.794 214.14C117.975 214.291 118.211 214.367 118.504 214.367ZM124.964 209.247C124.491 209.247 124.12 209.398 123.851 209.701C123.583 209.999 123.429 210.424 123.39 210.976H126.524C126.515 210.424 126.371 209.999 126.092 209.701C125.814 209.398 125.438 209.247 124.964 209.247ZM125.279 216.146C123.961 216.146 122.931 215.783 122.188 215.055C121.446 214.328 121.075 213.297 121.075 211.964C121.075 210.592 121.417 209.533 122.101 208.786C122.789 208.034 123.739 207.658 124.95 207.658C126.107 207.658 127.008 207.987 127.652 208.646C128.297 209.306 128.619 210.216 128.619 211.378V212.462H123.338C123.363 213.097 123.551 213.593 123.902 213.949C124.254 214.306 124.747 214.484 125.382 214.484C125.875 214.484 126.341 214.433 126.781 214.33C127.22 214.228 127.679 214.064 128.158 213.839V215.568C127.767 215.763 127.35 215.907 126.905 216C126.461 216.098 125.919 216.146 125.279 216.146ZM135.006 207.658C135.309 207.658 135.56 207.68 135.76 207.724L135.592 209.818C135.411 209.77 135.191 209.745 134.933 209.745C134.22 209.745 133.663 209.928 133.263 210.294C132.867 210.661 132.669 211.173 132.669 211.833V216H130.436V207.812H132.127L132.457 209.188H132.567C132.821 208.729 133.163 208.361 133.592 208.083C134.027 207.799 134.498 207.658 135.006 207.658ZM146.856 213.568C146.856 214.408 146.563 215.048 145.978 215.487C145.396 215.927 144.525 216.146 143.363 216.146C142.767 216.146 142.259 216.105 141.839 216.022C141.419 215.944 141.026 215.827 140.66 215.67V213.825C141.075 214.02 141.542 214.184 142.059 214.315C142.582 214.447 143.041 214.513 143.436 214.513C144.247 214.513 144.652 214.279 144.652 213.81C144.652 213.634 144.598 213.493 144.491 213.385C144.383 213.273 144.198 213.148 143.934 213.012C143.67 212.87 143.319 212.707 142.879 212.521C142.25 212.257 141.786 212.013 141.488 211.789C141.195 211.564 140.98 211.308 140.843 211.02C140.711 210.727 140.646 210.368 140.646 209.943C140.646 209.215 140.926 208.654 141.488 208.258C142.054 207.858 142.855 207.658 143.89 207.658C144.876 207.658 145.836 207.873 146.769 208.302L146.095 209.914C145.685 209.738 145.301 209.594 144.945 209.481C144.588 209.369 144.225 209.313 143.854 209.313C143.194 209.313 142.865 209.491 142.865 209.848C142.865 210.048 142.97 210.221 143.18 210.368C143.395 210.514 143.861 210.731 144.579 211.02C145.218 211.278 145.687 211.52 145.985 211.745C146.283 211.969 146.502 212.228 146.644 212.521C146.786 212.814 146.856 213.163 146.856 213.568ZM151.925 216.146C149.376 216.146 148.102 214.748 148.102 211.95C148.102 210.558 148.448 209.496 149.142 208.764C149.835 208.026 150.829 207.658 152.123 207.658C153.07 207.658 153.919 207.843 154.671 208.214L154.012 209.943C153.661 209.801 153.333 209.687 153.031 209.599C152.728 209.506 152.425 209.459 152.123 209.459C150.96 209.459 150.379 210.285 150.379 211.935C150.379 213.537 150.96 214.337 152.123 214.337C152.552 214.337 152.95 214.281 153.316 214.169C153.683 214.052 154.049 213.871 154.415 213.627V215.539C154.054 215.768 153.688 215.927 153.316 216.015C152.95 216.103 152.486 216.146 151.925 216.146ZM163.878 216H161.644V211.217C161.644 210.036 161.205 209.445 160.326 209.445C159.701 209.445 159.249 209.657 158.971 210.082C158.692 210.507 158.553 211.195 158.553 212.147V216H156.319V204.604H158.553V206.925C158.553 207.106 158.536 207.531 158.502 208.2L158.451 208.859H158.568C159.066 208.058 159.857 207.658 160.941 207.658C161.903 207.658 162.633 207.917 163.131 208.434C163.629 208.952 163.878 209.694 163.878 210.661V216ZM167.958 211.891C167.958 212.702 168.089 213.314 168.353 213.729C168.622 214.145 169.056 214.352 169.657 214.352C170.252 214.352 170.68 214.147 170.938 213.737C171.202 213.322 171.334 212.707 171.334 211.891C171.334 211.081 171.202 210.473 170.938 210.067C170.675 209.662 170.243 209.459 169.642 209.459C169.046 209.459 168.617 209.662 168.353 210.067C168.089 210.468 167.958 211.076 167.958 211.891ZM173.619 211.891C173.619 213.224 173.268 214.267 172.564 215.019C171.861 215.771 170.882 216.146 169.627 216.146C168.841 216.146 168.148 215.976 167.547 215.634C166.947 215.287 166.485 214.792 166.163 214.147C165.841 213.502 165.68 212.75 165.68 211.891C165.68 210.553 166.029 209.513 166.727 208.771C167.425 208.029 168.407 207.658 169.671 207.658C170.458 207.658 171.151 207.829 171.751 208.17C172.352 208.512 172.813 209.003 173.136 209.643C173.458 210.282 173.619 211.032 173.619 211.891ZM177.245 211.891C177.245 212.702 177.376 213.314 177.64 213.729C177.909 214.145 178.343 214.352 178.944 214.352C179.54 214.352 179.967 214.147 180.226 213.737C180.489 213.322 180.621 212.707 180.621 211.891C180.621 211.081 180.489 210.473 180.226 210.067C179.962 209.662 179.53 209.459 178.929 209.459C178.333 209.459 177.904 209.662 177.64 210.067C177.376 210.468 177.245 211.076 177.245 211.891ZM182.906 211.891C182.906 213.224 182.555 214.267 181.852 215.019C181.148 215.771 180.169 216.146 178.915 216.146C178.128 216.146 177.435 215.976 176.834 215.634C176.234 215.287 175.772 214.792 175.45 214.147C175.128 213.502 174.967 212.75 174.967 211.891C174.967 210.553 175.316 209.513 176.014 208.771C176.712 208.029 177.694 207.658 178.958 207.658C179.745 207.658 180.438 207.829 181.039 208.17C181.639 208.512 182.101 209.003 182.423 209.643C182.745 210.282 182.906 211.032 182.906 211.891ZM186.986 216H184.752V204.604H186.986V216ZM193.138 205.695C193.138 204.967 193.543 204.604 194.354 204.604C195.165 204.604 195.57 204.967 195.57 205.695C195.57 206.042 195.467 206.312 195.262 206.508C195.062 206.698 194.759 206.793 194.354 206.793C193.543 206.793 193.138 206.427 193.138 205.695ZM195.467 216H193.233V207.812H195.467V216ZM205.377 216H203.143V211.217C203.143 210.626 203.038 210.185 202.828 209.892C202.618 209.594 202.284 209.445 201.825 209.445C201.2 209.445 200.748 209.655 200.47 210.075C200.191 210.49 200.052 211.181 200.052 212.147V216H197.818V207.812H199.525L199.825 208.859H199.95C200.199 208.463 200.541 208.166 200.975 207.965C201.415 207.76 201.913 207.658 202.469 207.658C203.421 207.658 204.144 207.917 204.637 208.434C205.13 208.947 205.377 209.689 205.377 210.661V216ZM213.39 213.568C213.39 214.408 213.097 215.048 212.511 215.487C211.93 215.927 211.058 216.146 209.896 216.146C209.3 216.146 208.792 216.105 208.373 216.022C207.953 215.944 207.56 215.827 207.193 215.67V213.825C207.608 214.02 208.075 214.184 208.592 214.315C209.115 214.447 209.574 214.513 209.969 214.513C210.78 214.513 211.185 214.279 211.185 213.81C211.185 213.634 211.131 213.493 211.024 213.385C210.917 213.273 210.731 213.148 210.467 213.012C210.204 212.87 209.852 212.707 209.413 212.521C208.783 212.257 208.319 212.013 208.021 211.789C207.728 211.564 207.513 211.308 207.376 211.02C207.245 210.727 207.179 210.368 207.179 209.943C207.179 209.215 207.459 208.654 208.021 208.258C208.587 207.858 209.388 207.658 210.423 207.658C211.41 207.658 212.369 207.873 213.302 208.302L212.628 209.914C212.218 209.738 211.834 209.594 211.478 209.481C211.122 209.369 210.758 209.313 210.387 209.313C209.728 209.313 209.398 209.491 209.398 209.848C209.398 210.048 209.503 210.221 209.713 210.368C209.928 210.514 210.394 210.731 211.112 211.02C211.751 211.278 212.22 211.52 212.518 211.745C212.816 211.969 213.036 212.228 213.177 212.521C213.319 212.814 213.39 213.163 213.39 213.568ZM218.583 214.367C218.973 214.367 219.442 214.281 219.989 214.11V215.773C219.432 216.022 218.749 216.146 217.938 216.146C217.044 216.146 216.393 215.922 215.982 215.473C215.577 215.019 215.375 214.34 215.375 213.437V209.489H214.305V208.544L215.536 207.797L216.18 206.068H217.608V207.812H219.901V209.489H217.608V213.437C217.608 213.754 217.696 213.988 217.872 214.14C218.053 214.291 218.29 214.367 218.583 214.367ZM226.222 207.658C226.524 207.658 226.776 207.68 226.976 207.724L226.808 209.818C226.627 209.77 226.407 209.745 226.148 209.745C225.436 209.745 224.879 209.928 224.479 210.294C224.083 210.661 223.885 211.173 223.885 211.833V216H221.651V207.812H223.343L223.673 209.188H223.783C224.037 208.729 224.378 208.361 224.808 208.083C225.243 207.799 225.714 207.658 226.222 207.658ZM234.264 216L233.963 214.953H233.846C233.607 215.333 233.268 215.629 232.828 215.839C232.389 216.044 231.888 216.146 231.327 216.146C230.365 216.146 229.64 215.89 229.151 215.377C228.663 214.86 228.419 214.118 228.419 213.151V207.812H230.653V212.594C230.653 213.185 230.758 213.629 230.968 213.927C231.178 214.22 231.512 214.367 231.971 214.367C232.596 214.367 233.048 214.159 233.326 213.744C233.604 213.324 233.744 212.631 233.744 211.664V207.812H235.978V216H234.264ZM241.646 216.146C239.098 216.146 237.823 214.748 237.823 211.95C237.823 210.558 238.17 209.496 238.863 208.764C239.557 208.026 240.55 207.658 241.844 207.658C242.792 207.658 243.641 207.843 244.393 208.214L243.734 209.943C243.382 209.801 243.055 209.687 242.752 209.599C242.45 209.506 242.147 209.459 241.844 209.459C240.682 209.459 240.101 210.285 240.101 211.935C240.101 213.537 240.682 214.337 241.844 214.337C242.274 214.337 242.672 214.281 243.038 214.169C243.404 214.052 243.771 213.871 244.137 213.627V215.539C243.775 215.768 243.409 215.927 243.038 216.015C242.672 216.103 242.208 216.146 241.646 216.146ZM249.491 214.367C249.881 214.367 250.35 214.281 250.897 214.11V215.773C250.34 216.022 249.657 216.146 248.846 216.146C247.953 216.146 247.301 215.922 246.891 215.473C246.485 215.019 246.283 214.34 246.283 213.437V209.489H245.213V208.544L246.444 207.797L247.088 206.068H248.517V207.812H250.809V209.489H248.517V213.437C248.517 213.754 248.604 213.988 248.78 214.14C248.961 214.291 249.198 214.367 249.491 214.367ZM252.464 205.695C252.464 204.967 252.87 204.604 253.68 204.604C254.491 204.604 254.896 204.967 254.896 205.695C254.896 206.042 254.793 206.312 254.588 206.508C254.388 206.698 254.085 206.793 253.68 206.793C252.87 206.793 252.464 206.427 252.464 205.695ZM254.793 216H252.56V207.812H254.793V216ZM258.924 211.891C258.924 212.702 259.056 213.314 259.32 213.729C259.588 214.145 260.023 214.352 260.624 214.352C261.219 214.352 261.646 214.147 261.905 213.737C262.169 213.322 262.301 212.707 262.301 211.891C262.301 211.081 262.169 210.473 261.905 210.067C261.642 209.662 261.209 209.459 260.609 209.459C260.013 209.459 259.583 209.662 259.32 210.067C259.056 210.468 258.924 211.076 258.924 211.891ZM264.586 211.891C264.586 213.224 264.234 214.267 263.531 215.019C262.828 215.771 261.849 216.146 260.594 216.146C259.808 216.146 259.115 215.976 258.514 215.634C257.914 215.287 257.452 214.792 257.13 214.147C256.808 213.502 256.646 212.75 256.646 211.891C256.646 210.553 256.996 209.513 257.694 208.771C258.392 208.029 259.374 207.658 260.638 207.658C261.424 207.658 262.118 207.829 262.718 208.17C263.319 208.512 263.78 209.003 264.103 209.643C264.425 210.282 264.586 211.032 264.586 211.891ZM273.99 216H271.756V211.217C271.756 210.626 271.651 210.185 271.441 209.892C271.231 209.594 270.897 209.445 270.438 209.445C269.813 209.445 269.361 209.655 269.083 210.075C268.805 210.49 268.666 211.181 268.666 212.147V216H266.432V207.812H268.138L268.438 208.859H268.563C268.812 208.463 269.154 208.166 269.588 207.965C270.028 207.76 270.526 207.658 271.083 207.658C272.035 207.658 272.757 207.917 273.25 208.434C273.744 208.947 273.99 209.689 273.99 210.661V216Z" fill="black"/>
<path d="M100.077 271.695C100.077 270.967 100.482 270.604 101.292 270.604C102.103 270.604 102.508 270.967 102.508 271.695C102.508 272.042 102.406 272.312 102.201 272.508C102 272.698 101.698 272.793 101.292 272.793C100.482 272.793 100.077 272.427 100.077 271.695ZM102.406 282H100.172V273.812H102.406V282ZM112.315 282H110.082V277.217C110.082 276.626 109.977 276.185 109.767 275.892C109.557 275.594 109.222 275.445 108.763 275.445C108.138 275.445 107.687 275.655 107.408 276.075C107.13 276.49 106.991 277.181 106.991 278.147V282H104.757V273.812H106.463L106.764 274.859H106.888C107.137 274.463 107.479 274.166 107.914 273.965C108.353 273.76 108.851 273.658 109.408 273.658C110.36 273.658 111.083 273.917 111.576 274.434C112.069 274.947 112.315 275.689 112.315 276.661V282ZM118.065 280.367C118.456 280.367 118.924 280.281 119.471 280.11V281.773C118.915 282.022 118.231 282.146 117.42 282.146C116.527 282.146 115.875 281.922 115.465 281.473C115.06 281.019 114.857 280.34 114.857 279.437V275.489H113.788V274.544L115.018 273.797L115.663 272.068H117.091V273.812H119.383V275.489H117.091V279.437C117.091 279.754 117.179 279.988 117.354 280.14C117.535 280.291 117.772 280.367 118.065 280.367ZM124.525 275.247C124.051 275.247 123.68 275.398 123.412 275.701C123.143 275.999 122.989 276.424 122.95 276.976H126.085C126.075 276.424 125.931 275.999 125.653 275.701C125.375 275.398 124.999 275.247 124.525 275.247ZM124.84 282.146C123.521 282.146 122.491 281.783 121.749 281.055C121.007 280.328 120.636 279.297 120.636 277.964C120.636 276.592 120.978 275.533 121.661 274.786C122.35 274.034 123.299 273.658 124.51 273.658C125.667 273.658 126.568 273.987 127.213 274.646C127.857 275.306 128.18 276.216 128.18 277.378V278.462H122.899C122.923 279.097 123.111 279.593 123.463 279.949C123.814 280.306 124.308 280.484 124.942 280.484C125.436 280.484 125.902 280.433 126.341 280.33C126.781 280.228 127.24 280.064 127.718 279.839V281.568C127.328 281.763 126.91 281.907 126.466 282C126.021 282.098 125.479 282.146 124.84 282.146ZM137.555 282H135.321V277.217C135.321 276.626 135.216 276.185 135.006 275.892C134.796 275.594 134.461 275.445 134.002 275.445C133.377 275.445 132.926 275.655 132.647 276.075C132.369 276.49 132.23 277.181 132.23 278.147V282H129.996V273.812H131.703L132.003 274.859H132.127C132.376 274.463 132.718 274.166 133.153 273.965C133.592 273.76 134.09 273.658 134.647 273.658C135.599 273.658 136.322 273.917 136.815 274.434C137.308 274.947 137.555 275.689 137.555 276.661V282ZM145.567 279.568C145.567 280.408 145.274 281.048 144.688 281.487C144.107 281.927 143.236 282.146 142.074 282.146C141.478 282.146 140.97 282.105 140.55 282.022C140.13 281.944 139.737 281.827 139.371 281.67V279.825C139.786 280.02 140.252 280.184 140.77 280.315C141.292 280.447 141.751 280.513 142.147 280.513C142.958 280.513 143.363 280.279 143.363 279.81C143.363 279.634 143.309 279.493 143.202 279.385C143.094 279.273 142.909 279.148 142.645 279.012C142.381 278.87 142.03 278.707 141.59 278.521C140.96 278.257 140.497 278.013 140.199 277.789C139.906 277.564 139.691 277.308 139.554 277.02C139.422 276.727 139.356 276.368 139.356 275.943C139.356 275.215 139.637 274.654 140.199 274.258C140.765 273.858 141.566 273.658 142.601 273.658C143.587 273.658 144.547 273.873 145.479 274.302L144.806 275.914C144.396 275.738 144.012 275.594 143.656 275.481C143.299 275.369 142.936 275.313 142.564 275.313C141.905 275.313 141.576 275.491 141.576 275.848C141.576 276.048 141.681 276.221 141.891 276.368C142.105 276.514 142.572 276.731 143.29 277.02C143.929 277.278 144.398 277.52 144.696 277.745C144.994 277.969 145.213 278.228 145.355 278.521C145.497 278.814 145.567 279.163 145.567 279.568ZM147.215 271.695C147.215 270.967 147.621 270.604 148.431 270.604C149.242 270.604 149.647 270.967 149.647 271.695C149.647 272.042 149.544 272.312 149.339 272.508C149.139 272.698 148.836 272.793 148.431 272.793C147.621 272.793 147.215 272.427 147.215 271.695ZM149.544 282H147.311V273.812H149.544V282ZM153.844 282L150.724 273.812H153.06L154.642 278.477C154.803 278.985 154.908 279.544 154.957 280.154H155.016C155.045 279.603 155.155 279.043 155.345 278.477L156.92 273.812H159.256L156.136 282H153.844ZM163.827 275.247C163.353 275.247 162.982 275.398 162.713 275.701C162.445 275.999 162.291 276.424 162.252 276.976H165.387C165.377 276.424 165.233 275.999 164.955 275.701C164.676 275.398 164.3 275.247 163.827 275.247ZM164.142 282.146C162.823 282.146 161.793 281.783 161.051 281.055C160.309 280.328 159.938 279.297 159.938 277.964C159.938 276.592 160.279 275.533 160.963 274.786C161.651 274.034 162.601 273.658 163.812 273.658C164.969 273.658 165.87 273.987 166.515 274.646C167.159 275.306 167.481 276.216 167.481 277.378V278.462H162.201C162.225 279.097 162.413 279.593 162.765 279.949C163.116 280.306 163.609 280.484 164.244 280.484C164.737 280.484 165.204 280.433 165.643 280.33C166.083 280.228 166.542 280.064 167.02 279.839V281.568C166.629 281.763 166.212 281.907 165.768 282C165.323 282.098 164.781 282.146 164.142 282.146ZM178.907 279.568C178.907 280.408 178.614 281.048 178.028 281.487C177.447 281.927 176.576 282.146 175.414 282.146C174.818 282.146 174.31 282.105 173.89 282.022C173.47 281.944 173.077 281.827 172.711 281.67V279.825C173.126 280.02 173.592 280.184 174.11 280.315C174.632 280.447 175.091 280.513 175.487 280.513C176.297 280.513 176.703 280.279 176.703 279.81C176.703 279.634 176.649 279.493 176.542 279.385C176.434 279.273 176.249 279.148 175.985 279.012C175.721 278.87 175.37 278.707 174.93 278.521C174.3 278.257 173.836 278.013 173.539 277.789C173.246 277.564 173.031 277.308 172.894 277.02C172.762 276.727 172.696 276.368 172.696 275.943C172.696 275.215 172.977 274.654 173.539 274.258C174.105 273.858 174.906 273.658 175.941 273.658C176.927 273.658 177.887 273.873 178.819 274.302L178.146 275.914C177.735 275.738 177.352 275.594 176.996 275.481C176.639 275.369 176.275 275.313 175.904 275.313C175.245 275.313 174.916 275.491 174.916 275.848C174.916 276.048 175.021 276.221 175.23 276.368C175.445 276.514 175.912 276.731 176.629 277.02C177.269 277.278 177.738 277.52 178.036 277.745C178.333 277.969 178.553 278.228 178.695 278.521C178.836 278.814 178.907 279.163 178.907 279.568ZM184.042 275.247C183.568 275.247 183.197 275.398 182.928 275.701C182.66 275.999 182.506 276.424 182.467 276.976H185.602C185.592 276.424 185.448 275.999 185.169 275.701C184.891 275.398 184.515 275.247 184.042 275.247ZM184.356 282.146C183.038 282.146 182.008 281.783 181.266 281.055C180.523 280.328 180.152 279.297 180.152 277.964C180.152 276.592 180.494 275.533 181.178 274.786C181.866 274.034 182.816 273.658 184.027 273.658C185.184 273.658 186.085 273.987 186.729 274.646C187.374 275.306 187.696 276.216 187.696 277.378V278.462H182.416C182.44 279.097 182.628 279.593 182.979 279.949C183.331 280.306 183.824 280.484 184.459 280.484C184.952 280.484 185.418 280.433 185.858 280.33C186.297 280.228 186.756 280.064 187.235 279.839V281.568C186.844 281.763 186.427 281.907 185.982 282C185.538 282.098 184.996 282.146 184.356 282.146ZM195.226 279.568C195.226 280.408 194.933 281.048 194.347 281.487C193.766 281.927 192.894 282.146 191.732 282.146C191.136 282.146 190.628 282.105 190.208 282.022C189.789 281.944 189.396 281.827 189.029 281.67V279.825C189.444 280.02 189.911 280.184 190.428 280.315C190.951 280.447 191.41 280.513 191.805 280.513C192.616 280.513 193.021 280.279 193.021 279.81C193.021 279.634 192.967 279.493 192.86 279.385C192.752 279.273 192.567 279.148 192.303 279.012C192.04 278.87 191.688 278.707 191.249 278.521C190.619 278.257 190.155 278.013 189.857 277.789C189.564 277.564 189.349 277.308 189.212 277.02C189.081 276.727 189.015 276.368 189.015 275.943C189.015 275.215 189.295 274.654 189.857 274.258C190.423 273.858 191.224 273.658 192.259 273.658C193.246 273.658 194.205 273.873 195.138 274.302L194.464 275.914C194.054 275.738 193.67 275.594 193.314 275.481C192.958 275.369 192.594 275.313 192.223 275.313C191.563 275.313 191.234 275.491 191.234 275.848C191.234 276.048 191.339 276.221 191.549 276.368C191.764 276.514 192.23 276.731 192.948 277.02C193.587 277.278 194.056 277.52 194.354 277.745C194.652 277.969 194.872 278.228 195.013 278.521C195.155 278.814 195.226 279.163 195.226 279.568ZM202.682 279.568C202.682 280.408 202.389 281.048 201.803 281.487C201.222 281.927 200.35 282.146 199.188 282.146C198.592 282.146 198.084 282.105 197.665 282.022C197.245 281.944 196.852 281.827 196.485 281.67V279.825C196.9 280.02 197.367 280.184 197.884 280.315C198.407 280.447 198.866 280.513 199.261 280.513C200.072 280.513 200.477 280.279 200.477 279.81C200.477 279.634 200.423 279.493 200.316 279.385C200.208 279.273 200.023 279.148 199.759 279.012C199.496 278.87 199.144 278.707 198.705 278.521C198.075 278.257 197.611 278.013 197.313 277.789C197.02 277.564 196.805 277.308 196.668 277.02C196.537 276.727 196.471 276.368 196.471 275.943C196.471 275.215 196.751 274.654 197.313 274.258C197.879 273.858 198.68 273.658 199.715 273.658C200.702 273.658 201.661 273.873 202.594 274.302L201.92 275.914C201.51 275.738 201.126 275.594 200.77 275.481C200.414 275.369 200.05 275.313 199.679 275.313C199.02 275.313 198.69 275.491 198.69 275.848C198.69 276.048 198.795 276.221 199.005 276.368C199.22 276.514 199.686 276.731 200.404 277.02C201.043 277.278 201.512 277.52 201.81 277.745C202.108 277.969 202.328 278.228 202.469 278.521C202.611 278.814 202.682 279.163 202.682 279.568ZM204.33 271.695C204.33 270.967 204.735 270.604 205.545 270.604C206.356 270.604 206.761 270.967 206.761 271.695C206.761 272.042 206.659 272.312 206.454 272.508C206.253 272.698 205.951 272.793 205.545 272.793C204.735 272.793 204.33 272.427 204.33 271.695ZM206.659 282H204.425V273.812H206.659V282ZM210.79 277.891C210.79 278.702 210.921 279.314 211.185 279.729C211.454 280.145 211.888 280.352 212.489 280.352C213.084 280.352 213.512 280.147 213.771 279.737C214.034 279.322 214.166 278.707 214.166 277.891C214.166 277.081 214.034 276.473 213.771 276.067C213.507 275.662 213.075 275.459 212.474 275.459C211.878 275.459 211.449 275.662 211.185 276.067C210.921 276.468 210.79 277.076 210.79 277.891ZM216.451 277.891C216.451 279.224 216.1 280.267 215.396 281.019C214.693 281.771 213.714 282.146 212.459 282.146C211.673 282.146 210.98 281.976 210.379 281.634C209.779 281.287 209.317 280.792 208.995 280.147C208.673 279.502 208.512 278.75 208.512 277.891C208.512 276.553 208.861 275.513 209.559 274.771C210.257 274.029 211.239 273.658 212.503 273.658C213.29 273.658 213.983 273.829 214.583 274.17C215.184 274.512 215.646 275.003 215.968 275.643C216.29 276.282 216.451 277.032 216.451 277.891ZM225.855 282H223.622V277.217C223.622 276.626 223.517 276.185 223.307 275.892C223.097 275.594 222.762 275.445 222.303 275.445C221.678 275.445 221.227 275.655 220.948 276.075C220.67 276.49 220.531 277.181 220.531 278.147V282H218.297V273.812H220.003L220.304 274.859H220.428C220.677 274.463 221.019 274.166 221.454 273.965C221.893 273.76 222.391 273.658 222.948 273.658C223.9 273.658 224.623 273.917 225.116 274.434C225.609 274.947 225.855 275.689 225.855 276.661V282ZM233.868 279.568C233.868 280.408 233.575 281.048 232.989 281.487C232.408 281.927 231.537 282.146 230.375 282.146C229.779 282.146 229.271 282.105 228.851 282.022C228.431 281.944 228.038 281.827 227.672 281.67V279.825C228.087 280.02 228.553 280.184 229.071 280.315C229.593 280.447 230.052 280.513 230.448 280.513C231.258 280.513 231.664 280.279 231.664 279.81C231.664 279.634 231.61 279.493 231.502 279.385C231.395 279.273 231.209 279.148 230.946 279.012C230.682 278.87 230.331 278.707 229.891 278.521C229.261 278.257 228.797 278.013 228.5 277.789C228.207 277.564 227.992 277.308 227.855 277.02C227.723 276.727 227.657 276.368 227.657 275.943C227.657 275.215 227.938 274.654 228.5 274.258C229.066 273.858 229.867 273.658 230.902 273.658C231.888 273.658 232.848 273.873 233.78 274.302L233.106 275.914C232.696 275.738 232.313 275.594 231.957 275.481C231.6 275.369 231.236 275.313 230.865 275.313C230.206 275.313 229.876 275.491 229.876 275.848C229.876 276.048 229.981 276.221 230.191 276.368C230.406 276.514 230.873 276.731 231.59 277.02C232.23 277.278 232.699 277.52 232.997 277.745C233.294 277.969 233.514 278.228 233.656 278.521C233.797 278.814 233.868 279.163 233.868 279.568Z" fill="black"/>
<path d="M102.563 341.247C102.089 341.247 101.718 341.398 101.45 341.701C101.181 341.999 101.027 342.424 100.988 342.976H104.123C104.113 342.424 103.969 341.999 103.691 341.701C103.413 341.398 103.037 341.247 102.563 341.247ZM102.878 348.146C101.56 348.146 100.529 347.783 99.7871 347.055C99.0449 346.328 98.6738 345.297 98.6738 343.964C98.6738 342.592 99.0156 341.533 99.6992 340.786C100.388 340.034 101.337 339.658 102.548 339.658C103.706 339.658 104.606 339.987 105.251 340.646C105.896 341.306 106.218 342.216 106.218 343.378V344.462H100.937C100.961 345.097 101.149 345.593 101.501 345.949C101.853 346.306 102.346 346.484 102.98 346.484C103.474 346.484 103.94 346.433 104.379 346.33C104.819 346.228 105.278 346.064 105.756 345.839V347.568C105.366 347.763 104.948 347.907 104.504 348C104.06 348.098 103.518 348.146 102.878 348.146ZM115.593 348H113.359V343.217C113.359 342.626 113.254 342.185 113.044 341.892C112.834 341.594 112.5 341.445 112.041 341.445C111.416 341.445 110.964 341.655 110.686 342.075C110.407 342.49 110.268 343.181 110.268 344.147V348H108.034V339.812H109.741L110.041 340.859H110.166C110.415 340.463 110.756 340.166 111.191 339.965C111.63 339.76 112.128 339.658 112.685 339.658C113.637 339.658 114.36 339.917 114.853 340.434C115.346 340.947 115.593 341.689 115.593 342.661V348ZM125.451 348H123.217V343.217C123.217 342.036 122.778 341.445 121.899 341.445C121.274 341.445 120.822 341.657 120.544 342.082C120.266 342.507 120.126 343.195 120.126 344.147V348H117.893V336.604H120.126V338.925C120.126 339.106 120.109 339.531 120.075 340.2L120.024 340.859H120.141C120.639 340.058 121.43 339.658 122.514 339.658C123.476 339.658 124.206 339.917 124.704 340.434C125.202 340.952 125.451 341.694 125.451 342.661V348ZM132.951 348L132.519 346.887H132.46C132.084 347.36 131.696 347.69 131.296 347.875C130.9 348.056 130.383 348.146 129.743 348.146C128.957 348.146 128.337 347.922 127.883 347.473C127.434 347.023 127.209 346.384 127.209 345.554C127.209 344.685 127.512 344.045 128.117 343.635C128.728 343.22 129.646 342.99 130.871 342.946L132.292 342.902V342.543C132.292 341.713 131.867 341.298 131.018 341.298C130.363 341.298 129.594 341.496 128.71 341.892L127.971 340.383C128.913 339.89 129.958 339.643 131.105 339.643C132.204 339.643 133.046 339.882 133.632 340.361C134.218 340.839 134.511 341.567 134.511 342.543V348H132.951ZM132.292 344.206L131.428 344.235C130.778 344.255 130.295 344.372 129.978 344.587C129.66 344.802 129.501 345.129 129.501 345.568C129.501 346.198 129.863 346.513 130.585 346.513C131.103 346.513 131.516 346.364 131.823 346.066C132.136 345.769 132.292 345.373 132.292 344.88V344.206ZM144.377 348H142.143V343.217C142.143 342.626 142.038 342.185 141.828 341.892C141.618 341.594 141.284 341.445 140.825 341.445C140.2 341.445 139.748 341.655 139.47 342.075C139.191 342.49 139.052 343.181 139.052 344.147V348H136.818V339.812H138.525L138.825 340.859H138.95C139.199 340.463 139.541 340.166 139.975 339.965C140.415 339.76 140.913 339.658 141.469 339.658C142.421 339.658 143.144 339.917 143.637 340.434C144.13 340.947 144.377 341.689 144.377 342.661V348ZM150.002 348.146C147.453 348.146 146.179 346.748 146.179 343.95C146.179 342.558 146.525 341.496 147.219 340.764C147.912 340.026 148.906 339.658 150.2 339.658C151.147 339.658 151.997 339.843 152.749 340.214L152.089 341.943C151.738 341.801 151.411 341.687 151.108 341.599C150.805 341.506 150.502 341.459 150.2 341.459C149.038 341.459 148.457 342.285 148.457 343.935C148.457 345.537 149.038 346.337 150.2 346.337C150.629 346.337 151.027 346.281 151.394 346.169C151.76 346.052 152.126 345.871 152.492 345.627V347.539C152.131 347.768 151.765 347.927 151.394 348.015C151.027 348.103 150.563 348.146 150.002 348.146ZM157.788 341.247C157.314 341.247 156.943 341.398 156.674 341.701C156.406 341.999 156.252 342.424 156.213 342.976H159.348C159.338 342.424 159.194 341.999 158.916 341.701C158.637 341.398 158.261 341.247 157.788 341.247ZM158.103 348.146C156.784 348.146 155.754 347.783 155.012 347.055C154.27 346.328 153.898 345.297 153.898 343.964C153.898 342.592 154.24 341.533 154.924 340.786C155.612 340.034 156.562 339.658 157.773 339.658C158.93 339.658 159.831 339.987 160.476 340.646C161.12 341.306 161.442 342.216 161.442 343.378V344.462H156.162C156.186 345.097 156.374 345.593 156.726 345.949C157.077 346.306 157.57 346.484 158.205 346.484C158.698 346.484 159.165 346.433 159.604 346.33C160.043 346.228 160.502 346.064 160.981 345.839V347.568C160.59 347.763 160.173 347.907 159.729 348C159.284 348.098 158.742 348.146 158.103 348.146ZM170.59 348H168.356V343.217C168.356 342.626 168.256 342.185 168.056 341.892C167.861 341.594 167.551 341.445 167.126 341.445C166.555 341.445 166.14 341.655 165.881 342.075C165.622 342.495 165.493 343.186 165.493 344.147V348H163.259V339.812H164.965L165.266 340.859H165.39C165.61 340.483 165.927 340.19 166.342 339.98C166.757 339.765 167.233 339.658 167.771 339.658C168.996 339.658 169.826 340.058 170.261 340.859H170.458C170.678 340.478 171 340.183 171.425 339.973C171.855 339.763 172.338 339.658 172.875 339.658C173.803 339.658 174.504 339.897 174.978 340.375C175.456 340.849 175.695 341.611 175.695 342.661V348H173.454V343.217C173.454 342.626 173.354 342.185 173.154 341.892C172.958 341.594 172.648 341.445 172.224 341.445C171.677 341.445 171.267 341.64 170.993 342.031C170.725 342.421 170.59 343.042 170.59 343.891V348ZM181.386 341.247C180.913 341.247 180.542 341.398 180.273 341.701C180.004 341.999 179.851 342.424 179.812 342.976H182.946C182.937 342.424 182.792 341.999 182.514 341.701C182.236 341.398 181.86 341.247 181.386 341.247ZM181.701 348.146C180.383 348.146 179.353 347.783 178.61 347.055C177.868 346.328 177.497 345.297 177.497 343.964C177.497 342.592 177.839 341.533 178.522 340.786C179.211 340.034 180.161 339.658 181.372 339.658C182.529 339.658 183.43 339.987 184.074 340.646C184.719 341.306 185.041 342.216 185.041 343.378V344.462H179.76C179.785 345.097 179.973 345.593 180.324 345.949C180.676 346.306 181.169 346.484 181.804 346.484C182.297 346.484 182.763 346.433 183.203 346.33C183.642 346.228 184.101 346.064 184.58 345.839V347.568C184.189 347.763 183.771 347.907 183.327 348C182.883 348.098 182.341 348.146 181.701 348.146ZM194.416 348H192.182V343.217C192.182 342.626 192.077 342.185 191.867 341.892C191.657 341.594 191.323 341.445 190.864 341.445C190.239 341.445 189.787 341.655 189.509 342.075C189.23 342.49 189.091 343.181 189.091 344.147V348H186.857V339.812H188.564L188.864 340.859H188.989C189.238 340.463 189.58 340.166 190.014 339.965C190.454 339.76 190.952 339.658 191.508 339.658C192.46 339.658 193.183 339.917 193.676 340.434C194.169 340.947 194.416 341.689 194.416 342.661V348ZM200.166 346.367C200.556 346.367 201.025 346.281 201.572 346.11V347.773C201.015 348.022 200.332 348.146 199.521 348.146C198.627 348.146 197.976 347.922 197.565 347.473C197.16 347.019 196.958 346.34 196.958 345.437V341.489H195.888V340.544L197.119 339.797L197.763 338.068H199.191V339.812H201.484V341.489H199.191V345.437C199.191 345.754 199.279 345.988 199.455 346.14C199.636 346.291 199.873 346.367 200.166 346.367ZM212.331 348L211.899 346.887H211.84C211.464 347.36 211.076 347.69 210.676 347.875C210.28 348.056 209.763 348.146 209.123 348.146C208.337 348.146 207.717 347.922 207.263 347.473C206.813 347.023 206.589 346.384 206.589 345.554C206.589 344.685 206.892 344.045 207.497 343.635C208.107 343.22 209.025 342.99 210.251 342.946L211.672 342.902V342.543C211.672 341.713 211.247 341.298 210.397 341.298C209.743 341.298 208.974 341.496 208.09 341.892L207.351 340.383C208.293 339.89 209.338 339.643 210.485 339.643C211.584 339.643 212.426 339.882 213.012 340.361C213.598 340.839 213.891 341.567 213.891 342.543V348H212.331ZM211.672 344.206L210.808 344.235C210.158 344.255 209.675 344.372 209.357 344.587C209.04 344.802 208.881 345.129 208.881 345.568C208.881 346.198 209.243 346.513 209.965 346.513C210.483 346.513 210.896 346.364 211.203 346.066C211.516 345.769 211.672 345.373 211.672 344.88V344.206ZM219.523 348.146C216.975 348.146 215.7 346.748 215.7 343.95C215.7 342.558 216.047 341.496 216.74 340.764C217.434 340.026 218.427 339.658 219.721 339.658C220.668 339.658 221.518 339.843 222.27 340.214L221.611 341.943C221.259 341.801 220.932 341.687 220.629 341.599C220.327 341.506 220.024 341.459 219.721 341.459C218.559 341.459 217.978 342.285 217.978 343.935C217.978 345.537 218.559 346.337 219.721 346.337C220.151 346.337 220.549 346.281 220.915 346.169C221.281 346.052 221.647 345.871 222.014 345.627V347.539C221.652 347.768 221.286 347.927 220.915 348.015C220.549 348.103 220.085 348.146 219.523 348.146ZM227.368 346.367C227.758 346.367 228.227 346.281 228.774 346.11V347.773C228.217 348.022 227.534 348.146 226.723 348.146C225.83 348.146 225.178 347.922 224.768 347.473C224.362 347.019 224.16 346.34 224.16 345.437V341.489H223.09V340.544L224.321 339.797L224.965 338.068H226.394V339.812H228.686V341.489H226.394V345.437C226.394 345.754 226.481 345.988 226.657 346.14C226.838 346.291 227.075 346.367 227.368 346.367ZM230.341 337.695C230.341 336.967 230.747 336.604 231.557 336.604C232.368 336.604 232.773 336.967 232.773 337.695C232.773 338.042 232.67 338.312 232.465 338.508C232.265 338.698 231.962 338.793 231.557 338.793C230.747 338.793 230.341 338.427 230.341 337.695ZM232.67 348H230.437V339.812H232.67V348ZM236.97 348L233.85 339.812H236.186L237.768 344.477C237.929 344.985 238.034 345.544 238.083 346.154H238.142C238.171 345.603 238.281 345.043 238.471 344.477L240.046 339.812H242.382L239.262 348H236.97ZM243.466 337.695C243.466 336.967 243.872 336.604 244.682 336.604C245.493 336.604 245.898 336.967 245.898 337.695C245.898 338.042 245.795 338.312 245.59 338.508C245.39 338.698 245.087 338.793 244.682 338.793C243.872 338.793 243.466 338.427 243.466 337.695ZM245.795 348H243.562V339.812H245.795V348ZM251.596 346.367C251.987 346.367 252.456 346.281 253.002 346.11V347.773C252.446 348.022 251.762 348.146 250.952 348.146C250.058 348.146 249.406 347.922 248.996 347.473C248.591 347.019 248.388 346.34 248.388 345.437V341.489H247.319V340.544L248.549 339.797L249.194 338.068H250.622V339.812H252.915V341.489H250.622V345.437C250.622 345.754 250.71 345.988 250.886 346.14C251.066 346.291 251.303 346.367 251.596 346.367ZM254.57 337.695C254.57 336.967 254.975 336.604 255.786 336.604C256.596 336.604 257.001 336.967 257.001 337.695C257.001 338.042 256.899 338.312 256.694 338.508C256.494 338.698 256.191 338.793 255.786 338.793C254.975 338.793 254.57 338.427 254.57 337.695ZM256.899 348H254.665V339.812H256.899V348ZM262.641 341.247C262.167 341.247 261.796 341.398 261.528 341.701C261.259 341.999 261.105 342.424 261.066 342.976H264.201C264.191 342.424 264.047 341.999 263.769 341.701C263.491 341.398 263.115 341.247 262.641 341.247ZM262.956 348.146C261.638 348.146 260.607 347.783 259.865 347.055C259.123 346.328 258.752 345.297 258.752 343.964C258.752 342.592 259.094 341.533 259.777 340.786C260.466 340.034 261.416 339.658 262.626 339.658C263.784 339.658 264.685 339.987 265.329 340.646C265.974 341.306 266.296 342.216 266.296 343.378V344.462H261.015C261.04 345.097 261.228 345.593 261.579 345.949C261.931 346.306 262.424 346.484 263.059 346.484C263.552 346.484 264.018 346.433 264.458 346.33C264.897 346.228 265.356 346.064 265.834 345.839V347.568C265.444 347.763 265.026 347.907 264.582 348C264.138 348.098 263.596 348.146 262.956 348.146ZM273.825 345.568C273.825 346.408 273.532 347.048 272.946 347.487C272.365 347.927 271.494 348.146 270.332 348.146C269.736 348.146 269.228 348.105 268.808 348.022C268.388 347.944 267.995 347.827 267.629 347.67V345.825C268.044 346.02 268.51 346.184 269.028 346.315C269.55 346.447 270.009 346.513 270.405 346.513C271.215 346.513 271.621 346.279 271.621 345.81C271.621 345.634 271.567 345.493 271.459 345.385C271.352 345.273 271.167 345.148 270.903 345.012C270.639 344.87 270.288 344.707 269.848 344.521C269.218 344.257 268.754 344.013 268.457 343.789C268.164 343.564 267.949 343.308 267.812 343.02C267.68 342.727 267.614 342.368 267.614 341.943C267.614 341.215 267.895 340.654 268.457 340.258C269.023 339.858 269.824 339.658 270.859 339.658C271.845 339.658 272.805 339.873 273.737 340.302L273.063 341.914C272.653 341.738 272.27 341.594 271.914 341.481C271.557 341.369 271.193 341.313 270.822 341.313C270.163 341.313 269.833 341.491 269.833 341.848C269.833 342.048 269.938 342.221 270.148 342.368C270.363 342.514 270.83 342.731 271.547 343.02C272.187 343.278 272.656 343.52 272.954 343.745C273.251 343.969 273.471 344.228 273.613 344.521C273.754 344.814 273.825 345.163 273.825 345.568Z" fill="black"/>
</svg>
