<svg width="616" height="824" viewBox="0 0 616 824" fill="none" xmlns="http://www.w3.org/2000/svg">
<rect width="616" height="824" fill="white"/>
<path d="M131.675 55.85H124.85L123.548 59H120.062L126.614 44.3H129.974L136.547 59H132.977L131.675 55.85ZM130.604 53.267L128.273 47.639L125.942 53.267H130.604ZM144.902 59.252C143.404 59.252 142.046 58.93 140.828 58.286C139.624 57.628 138.672 56.725 137.972 55.577C137.286 54.415 136.943 53.106 136.943 51.65C136.943 50.194 137.286 48.892 137.972 47.744C138.672 46.582 139.624 45.679 140.828 45.035C142.046 44.377 143.411 44.048 144.923 44.048C146.197 44.048 147.345 44.272 148.367 44.72C149.403 45.168 150.271 45.812 150.971 46.652L148.787 48.668C147.793 47.52 146.561 46.946 145.091 46.946C144.181 46.946 143.369 47.149 142.655 47.555C141.941 47.947 141.381 48.5 140.975 49.214C140.583 49.928 140.387 50.74 140.387 51.65C140.387 52.56 140.583 53.372 140.975 54.086C141.381 54.8 141.941 55.36 142.655 55.766C143.369 56.158 144.181 56.354 145.091 56.354C146.561 56.354 147.793 55.773 148.787 54.611L150.971 56.627C150.271 57.481 149.403 58.132 148.367 58.58C147.331 59.028 146.176 59.252 144.902 59.252ZM159.996 59.252C158.498 59.252 157.14 58.93 155.922 58.286C154.718 57.628 153.766 56.725 153.066 55.577C152.38 54.415 152.037 53.106 152.037 51.65C152.037 50.194 152.38 48.892 153.066 47.744C153.766 46.582 154.718 45.679 155.922 45.035C157.14 44.377 158.505 44.048 160.017 44.048C161.291 44.048 162.439 44.272 163.461 44.72C164.497 45.168 165.365 45.812 166.065 46.652L163.881 48.668C162.887 47.52 161.655 46.946 160.185 46.946C159.275 46.946 158.463 47.149 157.749 47.555C157.035 47.947 156.475 48.5 156.069 49.214C155.677 49.928 155.481 50.74 155.481 51.65C155.481 52.56 155.677 53.372 156.069 54.086C156.475 54.8 157.035 55.36 157.749 55.766C158.463 56.158 159.275 56.354 160.185 56.354C161.655 56.354 162.887 55.773 163.881 54.611L166.065 56.627C165.365 57.481 164.497 58.132 163.461 58.58C162.425 59.028 161.27 59.252 159.996 59.252ZM179.744 56.27V59H168.362V44.3H179.471V47.03H171.743V50.222H178.568V52.868H171.743V56.27H179.744ZM187.281 59.252C186.119 59.252 184.992 59.098 183.9 58.79C182.822 58.468 181.954 58.055 181.296 57.551L182.451 54.989C183.081 55.451 183.83 55.822 184.698 56.102C185.566 56.382 186.434 56.522 187.302 56.522C188.268 56.522 188.982 56.382 189.444 56.102C189.906 55.808 190.137 55.423 190.137 54.947C190.137 54.597 189.997 54.31 189.717 54.086C189.451 53.848 189.101 53.659 188.667 53.519C188.247 53.379 187.673 53.225 186.945 53.057C185.825 52.791 184.908 52.525 184.194 52.259C183.48 51.993 182.864 51.566 182.346 50.978C181.842 50.39 181.59 49.606 181.59 48.626C181.59 47.772 181.821 47.002 182.283 46.316C182.745 45.616 183.438 45.063 184.362 44.657C185.3 44.251 186.441 44.048 187.785 44.048C188.723 44.048 189.64 44.16 190.536 44.384C191.432 44.608 192.216 44.93 192.888 45.35L191.838 47.933C190.48 47.163 189.122 46.778 187.764 46.778C186.812 46.778 186.105 46.932 185.643 47.24C185.195 47.548 184.971 47.954 184.971 48.458C184.971 48.962 185.23 49.34 185.748 49.592C186.28 49.83 187.085 50.068 188.163 50.306C189.283 50.572 190.2 50.838 190.914 51.104C191.628 51.37 192.237 51.79 192.741 52.364C193.259 52.938 193.518 53.715 193.518 54.695C193.518 55.535 193.28 56.305 192.804 57.005C192.342 57.691 191.642 58.237 190.704 58.643C189.766 59.049 188.625 59.252 187.281 59.252ZM200.673 59.252C199.511 59.252 198.384 59.098 197.292 58.79C196.214 58.468 195.346 58.055 194.688 57.551L195.843 54.989C196.473 55.451 197.222 55.822 198.09 56.102C198.958 56.382 199.826 56.522 200.694 56.522C201.66 56.522 202.374 56.382 202.836 56.102C203.298 55.808 203.529 55.423 203.529 54.947C203.529 54.597 203.389 54.31 203.109 54.086C202.843 53.848 202.493 53.659 202.059 53.519C201.639 53.379 201.065 53.225 200.337 53.057C199.217 52.791 198.3 52.525 197.586 52.259C196.872 51.993 196.256 51.566 195.738 50.978C195.234 50.39 194.982 49.606 194.982 48.626C194.982 47.772 195.213 47.002 195.675 46.316C196.137 45.616 196.83 45.063 197.754 44.657C198.692 44.251 199.833 44.048 201.177 44.048C202.115 44.048 203.032 44.16 203.928 44.384C204.824 44.608 205.608 44.93 206.28 45.35L205.23 47.933C203.872 47.163 202.514 46.778 201.156 46.778C200.204 46.778 199.497 46.932 199.035 47.24C198.587 47.548 198.363 47.954 198.363 48.458C198.363 48.962 198.622 49.34 199.14 49.592C199.672 49.83 200.477 50.068 201.555 50.306C202.675 50.572 203.592 50.838 204.306 51.104C205.02 51.37 205.629 51.79 206.133 52.364C206.651 52.938 206.91 53.715 206.91 54.695C206.91 55.535 206.672 56.305 206.196 57.005C205.734 57.691 205.034 58.237 204.096 58.643C203.158 59.049 202.017 59.252 200.673 59.252ZM221.544 44.3C222.846 44.3 223.973 44.517 224.925 44.951C225.891 45.385 226.633 46.001 227.151 46.799C227.669 47.597 227.928 48.542 227.928 49.634C227.928 50.712 227.669 51.657 227.151 52.469C226.633 53.267 225.891 53.883 224.925 54.317C223.973 54.737 222.846 54.947 221.544 54.947H218.583V59H215.181V44.3H221.544ZM221.355 52.175C222.377 52.175 223.154 51.958 223.686 51.524C224.218 51.076 224.484 50.446 224.484 49.634C224.484 48.808 224.218 48.178 223.686 47.744C223.154 47.296 222.377 47.072 221.355 47.072H218.583V52.175H221.355ZM239.723 59L236.888 54.905H236.72H233.759V59H230.357V44.3H236.72C238.022 44.3 239.149 44.517 240.101 44.951C241.067 45.385 241.809 46.001 242.327 46.799C242.845 47.597 243.104 48.542 243.104 49.634C243.104 50.726 242.838 51.671 242.306 52.469C241.788 53.253 241.046 53.855 240.08 54.275L243.377 59H239.723ZM239.66 49.634C239.66 48.808 239.394 48.178 238.862 47.744C238.33 47.296 237.553 47.072 236.531 47.072H233.759V52.196H236.531C237.553 52.196 238.33 51.972 238.862 51.524C239.394 51.076 239.66 50.446 239.66 49.634ZM252.919 59.252C251.393 59.252 250.014 58.923 248.782 58.265C247.564 57.607 246.605 56.704 245.905 55.556C245.219 54.394 244.876 53.092 244.876 51.65C244.876 50.208 245.219 48.913 245.905 47.765C246.605 46.603 247.564 45.693 248.782 45.035C250.014 44.377 251.393 44.048 252.919 44.048C254.445 44.048 255.817 44.377 257.035 45.035C258.253 45.693 259.212 46.603 259.912 47.765C260.612 48.913 260.962 50.208 260.962 51.65C260.962 53.092 260.612 54.394 259.912 55.556C259.212 56.704 258.253 57.607 257.035 58.265C255.817 58.923 254.445 59.252 252.919 59.252ZM252.919 56.354C253.787 56.354 254.571 56.158 255.271 55.766C255.971 55.36 256.517 54.8 256.909 54.086C257.315 53.372 257.518 52.56 257.518 51.65C257.518 50.74 257.315 49.928 256.909 49.214C256.517 48.5 255.971 47.947 255.271 47.555C254.571 47.149 253.787 46.946 252.919 46.946C252.051 46.946 251.267 47.149 250.567 47.555C249.867 47.947 249.314 48.5 248.908 49.214C248.516 49.928 248.32 50.74 248.32 51.65C248.32 52.56 248.516 53.372 248.908 54.086C249.314 54.8 249.867 55.36 250.567 55.766C251.267 56.158 252.051 56.354 252.919 56.354ZM273.451 51.419H276.559V57.383C275.761 57.985 274.837 58.447 273.787 58.769C272.737 59.091 271.68 59.252 270.616 59.252C269.09 59.252 267.718 58.93 266.5 58.286C265.282 57.628 264.323 56.725 263.623 55.577C262.937 54.415 262.594 53.106 262.594 51.65C262.594 50.194 262.937 48.892 263.623 47.744C264.323 46.582 265.289 45.679 266.521 45.035C267.753 44.377 269.139 44.048 270.679 44.048C271.967 44.048 273.136 44.265 274.186 44.699C275.236 45.133 276.118 45.763 276.832 46.589L274.648 48.605C273.598 47.499 272.331 46.946 270.847 46.946C269.909 46.946 269.076 47.142 268.348 47.534C267.62 47.926 267.053 48.479 266.647 49.193C266.241 49.907 266.038 50.726 266.038 51.65C266.038 52.56 266.241 53.372 266.647 54.086C267.053 54.8 267.613 55.36 268.327 55.766C269.055 56.158 269.881 56.354 270.805 56.354C271.785 56.354 272.667 56.144 273.451 55.724V51.419ZM289.086 59L286.251 54.905H286.083H283.122V59H279.72V44.3H286.083C287.385 44.3 288.512 44.517 289.464 44.951C290.43 45.385 291.172 46.001 291.69 46.799C292.208 47.597 292.467 48.542 292.467 49.634C292.467 50.726 292.201 51.671 291.669 52.469C291.151 53.253 290.409 53.855 289.443 54.275L292.74 59H289.086ZM289.023 49.634C289.023 48.808 288.757 48.178 288.225 47.744C287.693 47.296 286.916 47.072 285.894 47.072H283.122V52.196H285.894C286.916 52.196 287.693 51.972 288.225 51.524C288.757 51.076 289.023 50.446 289.023 49.634ZM304.843 55.85H298.018L296.716 59H293.23L299.782 44.3H303.142L309.715 59H306.145L304.843 55.85ZM303.772 53.267L301.441 47.639L299.11 53.267H303.772ZM324.617 59L324.596 50.18L320.27 57.446H318.737L314.432 50.369V59H311.24V44.3H314.054L319.556 53.435L324.974 44.3H327.767L327.809 59H324.617ZM344.279 59.252C342.781 59.252 341.423 58.93 340.205 58.286C339.001 57.628 338.049 56.725 337.349 55.577C336.663 54.415 336.32 53.106 336.32 51.65C336.32 50.194 336.663 48.892 337.349 47.744C338.049 46.582 339.001 45.679 340.205 45.035C341.423 44.377 342.788 44.048 344.3 44.048C345.574 44.048 346.722 44.272 347.744 44.72C348.78 45.168 349.648 45.812 350.348 46.652L348.164 48.668C347.17 47.52 345.938 46.946 344.468 46.946C343.558 46.946 342.746 47.149 342.032 47.555C341.318 47.947 340.758 48.5 340.352 49.214C339.96 49.928 339.764 50.74 339.764 51.65C339.764 52.56 339.96 53.372 340.352 54.086C340.758 54.8 341.318 55.36 342.032 55.766C342.746 56.158 343.558 56.354 344.468 56.354C345.938 56.354 347.17 55.773 348.164 54.611L350.348 56.627C349.648 57.481 348.78 58.132 347.744 58.58C346.708 59.028 345.553 59.252 344.279 59.252ZM359.457 59.252C357.931 59.252 356.552 58.923 355.32 58.265C354.102 57.607 353.143 56.704 352.443 55.556C351.757 54.394 351.414 53.092 351.414 51.65C351.414 50.208 351.757 48.913 352.443 47.765C353.143 46.603 354.102 45.693 355.32 45.035C356.552 44.377 357.931 44.048 359.457 44.048C360.983 44.048 362.355 44.377 363.573 45.035C364.791 45.693 365.75 46.603 366.45 47.765C367.15 48.913 367.5 50.208 367.5 51.65C367.5 53.092 367.15 54.394 366.45 55.556C365.75 56.704 364.791 57.607 363.573 58.265C362.355 58.923 360.983 59.252 359.457 59.252ZM359.457 56.354C360.325 56.354 361.109 56.158 361.809 55.766C362.509 55.36 363.055 54.8 363.447 54.086C363.853 53.372 364.056 52.56 364.056 51.65C364.056 50.74 363.853 49.928 363.447 49.214C363.055 48.5 362.509 47.947 361.809 47.555C361.109 47.149 360.325 46.946 359.457 46.946C358.589 46.946 357.805 47.149 357.105 47.555C356.405 47.947 355.852 48.5 355.446 49.214C355.054 49.928 354.858 50.74 354.858 51.65C354.858 52.56 355.054 53.372 355.446 54.086C355.852 54.8 356.405 55.36 357.105 55.766C357.805 56.158 358.589 56.354 359.457 56.354ZM383.433 59L383.412 50.18L379.086 57.446H377.553L373.248 50.369V59H370.056V44.3H372.87L378.372 53.435L383.79 44.3H386.583L386.625 59H383.433ZM396.476 44.3C397.778 44.3 398.905 44.517 399.857 44.951C400.823 45.385 401.565 46.001 402.083 46.799C402.601 47.597 402.86 48.542 402.86 49.634C402.86 50.712 402.601 51.657 402.083 52.469C401.565 53.267 400.823 53.883 399.857 54.317C398.905 54.737 397.778 54.947 396.476 54.947H393.515V59H390.113V44.3H396.476ZM396.287 52.175C397.309 52.175 398.086 51.958 398.618 51.524C399.15 51.076 399.416 50.446 399.416 49.634C399.416 48.808 399.15 48.178 398.618 47.744C398.086 47.296 397.309 47.072 396.287 47.072H393.515V52.175H396.287ZM412.613 59.252C411.087 59.252 409.708 58.923 408.476 58.265C407.258 57.607 406.299 56.704 405.599 55.556C404.913 54.394 404.57 53.092 404.57 51.65C404.57 50.208 404.913 48.913 405.599 47.765C406.299 46.603 407.258 45.693 408.476 45.035C409.708 44.377 411.087 44.048 412.613 44.048C414.139 44.048 415.511 44.377 416.729 45.035C417.947 45.693 418.906 46.603 419.606 47.765C420.306 48.913 420.656 50.208 420.656 51.65C420.656 53.092 420.306 54.394 419.606 55.556C418.906 56.704 417.947 57.607 416.729 58.265C415.511 58.923 414.139 59.252 412.613 59.252ZM412.613 56.354C413.481 56.354 414.265 56.158 414.965 55.766C415.665 55.36 416.211 54.8 416.603 54.086C417.009 53.372 417.212 52.56 417.212 51.65C417.212 50.74 417.009 49.928 416.603 49.214C416.211 48.5 415.665 47.947 414.965 47.555C414.265 47.149 413.481 46.946 412.613 46.946C411.745 46.946 410.961 47.149 410.261 47.555C409.561 47.947 409.008 48.5 408.602 49.214C408.21 49.928 408.014 50.74 408.014 51.65C408.014 52.56 408.21 53.372 408.602 54.086C409.008 54.8 409.561 55.36 410.261 55.766C410.961 56.158 411.745 56.354 412.613 56.354ZM436.695 44.3V59H433.902L426.573 50.075V59H423.213V44.3H426.027L433.335 53.225V44.3H436.695ZM451.555 56.27V59H440.173V44.3H451.282V47.03H443.554V50.222H450.379V52.868H443.554V56.27H451.555ZM467.744 44.3V59H464.951L457.622 50.075V59H454.262V44.3H457.076L464.384 53.225V44.3H467.744ZM474.267 47.072H469.563V44.3H482.373V47.072H477.669V59H474.267V47.072ZM488.93 59.252C487.768 59.252 486.641 59.098 485.549 58.79C484.471 58.468 483.603 58.055 482.945 57.551L484.1 54.989C484.73 55.451 485.479 55.822 486.347 56.102C487.215 56.382 488.083 56.522 488.951 56.522C489.917 56.522 490.631 56.382 491.093 56.102C491.555 55.808 491.786 55.423 491.786 54.947C491.786 54.597 491.646 54.31 491.366 54.086C491.1 53.848 490.75 53.659 490.316 53.519C489.896 53.379 489.322 53.225 488.594 53.057C487.474 52.791 486.557 52.525 485.843 52.259C485.129 51.993 484.513 51.566 483.995 50.978C483.491 50.39 483.239 49.606 483.239 48.626C483.239 47.772 483.47 47.002 483.932 46.316C484.394 45.616 485.087 45.063 486.011 44.657C486.949 44.251 488.09 44.048 489.434 44.048C490.372 44.048 491.289 44.16 492.185 44.384C493.081 44.608 493.865 44.93 494.537 45.35L493.487 47.933C492.129 47.163 490.771 46.778 489.413 46.778C488.461 46.778 487.754 46.932 487.292 47.24C486.844 47.548 486.62 47.954 486.62 48.458C486.62 48.962 486.879 49.34 487.397 49.592C487.929 49.83 488.734 50.068 489.812 50.306C490.932 50.572 491.849 50.838 492.563 51.104C493.277 51.37 493.886 51.79 494.39 52.364C494.908 52.938 495.167 53.715 495.167 54.695C495.167 55.535 494.929 56.305 494.453 57.005C493.991 57.691 493.291 58.237 492.353 58.643C491.415 59.049 490.274 59.252 488.93 59.252Z" fill="black"/>
<path d="M459 142C489.694 142 519.538 152.087 543.938 170.709C568.338 189.332 585.941 215.456 594.039 245.063C602.138 274.67 600.282 306.117 588.757 334.566C577.232 363.014 556.677 386.887 530.256 402.509C503.835 418.132 473.012 424.639 442.531 421.028C412.05 417.417 383.6 403.889 361.561 382.526C339.521 361.163 325.112 333.149 320.553 302.795C315.994 272.442 321.536 241.431 336.328 214.536L459 282V142Z" fill="#002D62"/>
<path d="M369.678 174.197C394.854 153.336 426.538 141.946 459.234 142L459 282L369.678 174.197Z" fill="#D11242"/>
<path d="M336.494 214.234C345.106 198.666 356.605 184.882 370.378 173.62L459 282L336.494 214.234Z" fill="#F5F5F5"/>
<circle cx="459" cy="282.001" r="22.7437" fill="white"/>
<path d="M403.214 352.582C404.502 352.792 405.489 353.275 406.175 354.031C406.861 354.773 407.204 355.697 407.204 356.803C407.204 357.657 406.98 358.448 406.532 359.176C406.084 359.89 405.398 360.464 404.474 360.898C403.564 361.332 402.444 361.549 401.114 361.549C400.078 361.549 399.056 361.416 398.048 361.15C397.054 360.87 396.207 360.478 395.507 359.974L396.83 357.37C397.39 357.79 398.034 358.119 398.762 358.357C399.504 358.581 400.26 358.693 401.03 358.693C401.884 358.693 402.556 358.532 403.046 358.21C403.536 357.874 403.781 357.405 403.781 356.803C403.781 355.599 402.864 354.997 401.03 354.997H399.476V352.75L402.5 349.327H396.242V346.597H406.532V348.802L403.214 352.582ZM415.075 361.549C413.857 361.549 412.772 361.248 411.82 360.646C410.868 360.044 410.119 359.176 409.573 358.042C409.041 356.894 408.775 355.529 408.775 353.947C408.775 352.365 409.041 351.007 409.573 349.873C410.119 348.725 410.868 347.85 411.82 347.248C412.772 346.646 413.857 346.345 415.075 346.345C416.293 346.345 417.378 346.646 418.33 347.248C419.282 347.85 420.024 348.725 420.556 349.873C421.102 351.007 421.375 352.365 421.375 353.947C421.375 355.529 421.102 356.894 420.556 358.042C420.024 359.176 419.282 360.044 418.33 360.646C417.378 361.248 416.293 361.549 415.075 361.549ZM415.075 358.672C415.971 358.672 416.671 358.287 417.175 357.517C417.693 356.747 417.952 355.557 417.952 353.947C417.952 352.337 417.693 351.147 417.175 350.377C416.671 349.607 415.971 349.222 415.075 349.222C414.193 349.222 413.493 349.607 412.975 350.377C412.471 351.147 412.219 352.337 412.219 353.947C412.219 355.557 412.471 356.747 412.975 357.517C413.493 358.287 414.193 358.672 415.075 358.672ZM429.328 361.549C428.11 361.549 427.025 361.248 426.073 360.646C425.121 360.044 424.372 359.176 423.826 358.042C423.294 356.894 423.028 355.529 423.028 353.947C423.028 352.365 423.294 351.007 423.826 349.873C424.372 348.725 425.121 347.85 426.073 347.248C427.025 346.646 428.11 346.345 429.328 346.345C430.546 346.345 431.631 346.646 432.583 347.248C433.535 347.85 434.277 348.725 434.809 349.873C435.355 351.007 435.628 352.365 435.628 353.947C435.628 355.529 435.355 356.894 434.809 358.042C434.277 359.176 433.535 360.044 432.583 360.646C431.631 361.248 430.546 361.549 429.328 361.549ZM429.328 358.672C430.224 358.672 430.924 358.287 431.428 357.517C431.946 356.747 432.205 355.557 432.205 353.947C432.205 352.337 431.946 351.147 431.428 350.377C430.924 349.607 430.224 349.222 429.328 349.222C428.446 349.222 427.746 349.607 427.228 350.377C426.724 351.147 426.472 352.337 426.472 353.947C426.472 355.557 426.724 356.747 427.228 357.517C427.746 358.287 428.446 358.672 429.328 358.672ZM457.634 346.597V361.297H454.232V355.27H447.554V361.297H444.152V346.597H447.554V352.393H454.232V346.597H457.634ZM468.231 361.549C466.705 361.549 465.326 361.22 464.094 360.562C462.876 359.904 461.917 359.001 461.217 357.853C460.531 356.691 460.188 355.389 460.188 353.947C460.188 352.505 460.531 351.21 461.217 350.062C461.917 348.9 462.876 347.99 464.094 347.332C465.326 346.674 466.705 346.345 468.231 346.345C469.757 346.345 471.129 346.674 472.347 347.332C473.565 347.99 474.524 348.9 475.224 350.062C475.924 351.21 476.274 352.505 476.274 353.947C476.274 355.389 475.924 356.691 475.224 357.853C474.524 359.001 473.565 359.904 472.347 360.562C471.129 361.22 469.757 361.549 468.231 361.549ZM468.231 358.651C469.099 358.651 469.883 358.455 470.583 358.063C471.283 357.657 471.829 357.097 472.221 356.383C472.627 355.669 472.83 354.857 472.83 353.947C472.83 353.037 472.627 352.225 472.221 351.511C471.829 350.797 471.283 350.244 470.583 349.852C469.883 349.446 469.099 349.243 468.231 349.243C467.363 349.243 466.579 349.446 465.879 349.852C465.179 350.244 464.626 350.797 464.22 351.511C463.828 352.225 463.632 353.037 463.632 353.947C463.632 354.857 463.828 355.669 464.22 356.383C464.626 357.097 465.179 357.657 465.879 358.063C466.579 358.455 467.363 358.651 468.231 358.651ZM485.362 361.549C483.262 361.549 481.624 360.968 480.448 359.806C479.286 358.644 478.705 356.985 478.705 354.829V346.597H482.107V354.703C482.107 357.335 483.199 358.651 485.383 358.651C486.447 358.651 487.259 358.336 487.819 357.706C488.379 357.062 488.659 356.061 488.659 354.703V346.597H492.019V354.829C492.019 356.985 491.431 358.644 490.255 359.806C489.093 360.968 487.462 361.549 485.362 361.549ZM504.747 361.297L501.912 357.202H501.744H498.783V361.297H495.381V346.597H501.744C503.046 346.597 504.173 346.814 505.125 347.248C506.091 347.682 506.833 348.298 507.351 349.096C507.869 349.894 508.128 350.839 508.128 351.931C508.128 353.023 507.862 353.968 507.33 354.766C506.812 355.55 506.07 356.152 505.104 356.572L508.401 361.297H504.747ZM504.684 351.931C504.684 351.105 504.418 350.475 503.886 350.041C503.354 349.593 502.577 349.369 501.555 349.369H498.783V354.493H501.555C502.577 354.493 503.354 354.269 503.886 353.821C504.418 353.373 504.684 352.743 504.684 351.931ZM515.653 361.549C514.491 361.549 513.364 361.395 512.272 361.087C511.194 360.765 510.326 360.352 509.668 359.848L510.823 357.286C511.453 357.748 512.202 358.119 513.07 358.399C513.938 358.679 514.806 358.819 515.674 358.819C516.64 358.819 517.354 358.679 517.816 358.399C518.278 358.105 518.509 357.72 518.509 357.244C518.509 356.894 518.369 356.607 518.089 356.383C517.823 356.145 517.473 355.956 517.039 355.816C516.619 355.676 516.045 355.522 515.317 355.354C514.197 355.088 513.28 354.822 512.566 354.556C511.852 354.29 511.236 353.863 510.718 353.275C510.214 352.687 509.962 351.903 509.962 350.923C509.962 350.069 510.193 349.299 510.655 348.613C511.117 347.913 511.81 347.36 512.734 346.954C513.672 346.548 514.813 346.345 516.157 346.345C517.095 346.345 518.012 346.457 518.908 346.681C519.804 346.905 520.588 347.227 521.26 347.647L520.21 350.23C518.852 349.46 517.494 349.075 516.136 349.075C515.184 349.075 514.477 349.229 514.015 349.537C513.567 349.845 513.343 350.251 513.343 350.755C513.343 351.259 513.602 351.637 514.12 351.889C514.652 352.127 515.457 352.365 516.535 352.603C517.655 352.869 518.572 353.135 519.286 353.401C520 353.667 520.609 354.087 521.113 354.661C521.631 355.235 521.89 356.012 521.89 356.992C521.89 357.832 521.652 358.602 521.176 359.302C520.714 359.988 520.014 360.534 519.076 360.94C518.138 361.346 516.997 361.549 515.653 361.549Z" fill="white"/>
<path d="M426.752 193.995H424.358V197.082H421.04V193.995H413.123V191.706L420.053 182.382H423.623L417.197 191.223H421.145V188.472H424.358V191.223H426.752V193.995ZM434.07 197.334C432.852 197.334 431.767 197.033 430.815 196.431C429.863 195.829 429.114 194.961 428.568 193.827C428.036 192.679 427.77 191.314 427.77 189.732C427.77 188.15 428.036 186.792 428.568 185.658C429.114 184.51 429.863 183.635 430.815 183.033C431.767 182.431 432.852 182.13 434.07 182.13C435.288 182.13 436.373 182.431 437.325 183.033C438.277 183.635 439.019 184.51 439.551 185.658C440.097 186.792 440.37 188.15 440.37 189.732C440.37 191.314 440.097 192.679 439.551 193.827C439.019 194.961 438.277 195.829 437.325 196.431C436.373 197.033 435.288 197.334 434.07 197.334ZM434.07 194.457C434.966 194.457 435.666 194.072 436.17 193.302C436.688 192.532 436.947 191.342 436.947 189.732C436.947 188.122 436.688 186.932 436.17 186.162C435.666 185.392 434.966 185.007 434.07 185.007C433.188 185.007 432.488 185.392 431.97 186.162C431.466 186.932 431.214 188.122 431.214 189.732C431.214 191.342 431.466 192.532 431.97 193.302C432.488 194.072 433.188 194.457 434.07 194.457Z" fill="white"/>
<path d="M380.692 223.824V226.596H369.583V224.391L375.253 219.036C375.855 218.462 376.261 217.972 376.471 217.566C376.681 217.146 376.786 216.733 376.786 216.327C376.786 215.739 376.583 215.291 376.177 214.983C375.785 214.661 375.204 214.5 374.434 214.5C373.79 214.5 373.209 214.626 372.691 214.878C372.173 215.116 371.739 215.48 371.389 215.97L368.911 214.374C369.485 213.52 370.276 212.855 371.284 212.379C372.292 211.889 373.447 211.644 374.749 211.644C375.841 211.644 376.793 211.826 377.605 212.19C378.431 212.54 379.068 213.044 379.516 213.702C379.978 214.346 380.209 215.109 380.209 215.991C380.209 216.789 380.041 217.538 379.705 218.238C379.369 218.938 378.718 219.736 377.752 220.632L374.371 223.824H380.692ZM388.354 226.848C387.136 226.848 386.051 226.547 385.099 225.945C384.147 225.343 383.398 224.475 382.852 223.341C382.32 222.193 382.054 220.828 382.054 219.246C382.054 217.664 382.32 216.306 382.852 215.172C383.398 214.024 384.147 213.149 385.099 212.547C386.051 211.945 387.136 211.644 388.354 211.644C389.572 211.644 390.657 211.945 391.609 212.547C392.561 213.149 393.303 214.024 393.835 215.172C394.381 216.306 394.654 217.664 394.654 219.246C394.654 220.828 394.381 222.193 393.835 223.341C393.303 224.475 392.561 225.343 391.609 225.945C390.657 226.547 389.572 226.848 388.354 226.848ZM388.354 223.971C389.25 223.971 389.95 223.586 390.454 222.816C390.972 222.046 391.231 220.856 391.231 219.246C391.231 217.636 390.972 216.446 390.454 215.676C389.95 214.906 389.25 214.521 388.354 214.521C387.472 214.521 386.772 214.906 386.254 215.676C385.75 216.446 385.498 217.636 385.498 219.246C385.498 220.856 385.75 222.046 386.254 222.816C386.772 223.586 387.472 223.971 388.354 223.971Z" fill="black"/>
<path d="M459 459C488.941 459 518.093 468.599 542.177 486.387C566.261 504.176 584.007 529.217 592.811 557.834C601.615 586.452 601.012 617.138 591.092 645.387C581.171 673.637 562.455 697.962 537.692 714.791C512.928 731.621 483.421 740.068 453.504 738.892C423.586 737.717 394.833 726.981 371.466 708.26C348.099 689.54 331.35 663.821 323.676 634.88C316.002 605.94 317.809 575.301 328.831 547.463L459 599V459Z" fill="#002D62"/>
<path d="M336.982 530.359C349.275 508.507 367.211 490.357 388.915 477.805C410.62 465.254 435.297 458.762 460.368 459.007L459 599L336.982 530.359Z" fill="#D11242"/>
<path d="M329.149 546.668C333.098 536.867 338.145 527.545 344.193 518.88L459 599L329.149 546.668Z" fill="#F5F5F5"/>
<circle cx="459" cy="599" r="22.7437" fill="white"/>
<path d="M407.792 675.525V678.297H396.683V676.092L402.353 670.737C402.955 670.163 403.361 669.673 403.571 669.267C403.781 668.847 403.886 668.434 403.886 668.028C403.886 667.44 403.683 666.992 403.277 666.684C402.885 666.362 402.304 666.201 401.534 666.201C400.89 666.201 400.309 666.327 399.791 666.579C399.273 666.817 398.839 667.181 398.489 667.671L396.011 666.075C396.585 665.221 397.376 664.556 398.384 664.08C399.392 663.59 400.547 663.345 401.849 663.345C402.941 663.345 403.893 663.527 404.705 663.891C405.531 664.241 406.168 664.745 406.616 665.403C407.078 666.047 407.309 666.81 407.309 667.692C407.309 668.49 407.141 669.239 406.805 669.939C406.469 670.639 405.818 671.437 404.852 672.333L401.471 675.525H407.792ZM414.361 663.345C416.419 663.345 418.029 663.975 419.191 665.235C420.353 666.481 420.934 668.28 420.934 670.632C420.934 672.298 420.619 673.726 419.989 674.916C419.373 676.106 418.498 677.009 417.364 677.625C416.23 678.241 414.921 678.549 413.437 678.549C412.653 678.549 411.904 678.465 411.19 678.297C410.476 678.115 409.867 677.863 409.363 677.541L410.623 675.042C411.337 675.532 412.254 675.777 413.374 675.777C414.62 675.777 415.607 675.413 416.335 674.685C417.063 673.943 417.455 672.879 417.511 671.493C416.629 672.375 415.411 672.816 413.857 672.816C412.919 672.816 412.065 672.627 411.295 672.249C410.525 671.871 409.916 671.339 409.468 670.653C409.02 669.953 408.796 669.148 408.796 668.238C408.796 667.258 409.041 666.397 409.531 665.655C410.021 664.913 410.686 664.346 411.526 663.954C412.38 663.548 413.325 663.345 414.361 663.345ZM414.613 670.275C415.355 670.275 415.957 670.072 416.419 669.666C416.895 669.246 417.133 668.714 417.133 668.07C417.133 667.426 416.902 666.901 416.44 666.495C415.992 666.089 415.369 665.886 414.571 665.886C413.843 665.886 413.248 666.082 412.786 666.474C412.338 666.866 412.114 667.398 412.114 668.07C412.114 668.742 412.338 669.281 412.786 669.687C413.248 670.079 413.857 670.275 414.613 670.275ZM428.867 678.549C427.649 678.549 426.564 678.248 425.612 677.646C424.66 677.044 423.911 676.176 423.365 675.042C422.833 673.894 422.567 672.529 422.567 670.947C422.567 669.365 422.833 668.007 423.365 666.873C423.911 665.725 424.66 664.85 425.612 664.248C426.564 663.646 427.649 663.345 428.867 663.345C430.085 663.345 431.17 663.646 432.122 664.248C433.074 664.85 433.816 665.725 434.348 666.873C434.894 668.007 435.167 669.365 435.167 670.947C435.167 672.529 434.894 673.894 434.348 675.042C433.816 676.176 433.074 677.044 432.122 677.646C431.17 678.248 430.085 678.549 428.867 678.549ZM428.867 675.672C429.763 675.672 430.463 675.287 430.967 674.517C431.485 673.747 431.744 672.557 431.744 670.947C431.744 669.337 431.485 668.147 430.967 667.377C430.463 666.607 429.763 666.222 428.867 666.222C427.985 666.222 427.285 666.607 426.767 667.377C426.263 668.147 426.011 669.337 426.011 670.947C426.011 672.557 426.263 673.747 426.767 674.517C427.285 675.287 427.985 675.672 428.867 675.672ZM457.173 663.597V678.297H453.771V672.27H447.093V678.297H443.691V663.597H447.093V669.393H453.771V663.597H457.173ZM467.77 678.549C466.244 678.549 464.865 678.22 463.633 677.562C462.415 676.904 461.456 676.001 460.756 674.853C460.07 673.691 459.727 672.389 459.727 670.947C459.727 669.505 460.07 668.21 460.756 667.062C461.456 665.9 462.415 664.99 463.633 664.332C464.865 663.674 466.244 663.345 467.77 663.345C469.296 663.345 470.668 663.674 471.886 664.332C473.104 664.99 474.063 665.9 474.763 667.062C475.463 668.21 475.813 669.505 475.813 670.947C475.813 672.389 475.463 673.691 474.763 674.853C474.063 676.001 473.104 676.904 471.886 677.562C470.668 678.22 469.296 678.549 467.77 678.549ZM467.77 675.651C468.638 675.651 469.422 675.455 470.122 675.063C470.822 674.657 471.368 674.097 471.76 673.383C472.166 672.669 472.369 671.857 472.369 670.947C472.369 670.037 472.166 669.225 471.76 668.511C471.368 667.797 470.822 667.244 470.122 666.852C469.422 666.446 468.638 666.243 467.77 666.243C466.902 666.243 466.118 666.446 465.418 666.852C464.718 667.244 464.165 667.797 463.759 668.511C463.367 669.225 463.171 670.037 463.171 670.947C463.171 671.857 463.367 672.669 463.759 673.383C464.165 674.097 464.718 674.657 465.418 675.063C466.118 675.455 466.902 675.651 467.77 675.651ZM484.9 678.549C482.8 678.549 481.162 677.968 479.986 676.806C478.824 675.644 478.243 673.985 478.243 671.829V663.597H481.645V671.703C481.645 674.335 482.737 675.651 484.921 675.651C485.985 675.651 486.797 675.336 487.357 674.706C487.917 674.062 488.197 673.061 488.197 671.703V663.597H491.557V671.829C491.557 673.985 490.969 675.644 489.793 676.806C488.631 677.968 487 678.549 484.9 678.549ZM504.285 678.297L501.45 674.202H501.282H498.321V678.297H494.919V663.597H501.282C502.584 663.597 503.711 663.814 504.663 664.248C505.629 664.682 506.371 665.298 506.889 666.096C507.407 666.894 507.666 667.839 507.666 668.931C507.666 670.023 507.4 670.968 506.868 671.766C506.35 672.55 505.608 673.152 504.642 673.572L507.939 678.297H504.285ZM504.222 668.931C504.222 668.105 503.956 667.475 503.424 667.041C502.892 666.593 502.115 666.369 501.093 666.369H498.321V671.493H501.093C502.115 671.493 502.892 671.269 503.424 670.821C503.956 670.373 504.222 669.743 504.222 668.931ZM515.192 678.549C514.03 678.549 512.903 678.395 511.811 678.087C510.733 677.765 509.865 677.352 509.207 676.848L510.362 674.286C510.992 674.748 511.741 675.119 512.609 675.399C513.477 675.679 514.345 675.819 515.213 675.819C516.179 675.819 516.893 675.679 517.355 675.399C517.817 675.105 518.048 674.72 518.048 674.244C518.048 673.894 517.908 673.607 517.628 673.383C517.362 673.145 517.012 672.956 516.578 672.816C516.158 672.676 515.584 672.522 514.856 672.354C513.736 672.088 512.819 671.822 512.105 671.556C511.391 671.29 510.775 670.863 510.257 670.275C509.753 669.687 509.501 668.903 509.501 667.923C509.501 667.069 509.732 666.299 510.194 665.613C510.656 664.913 511.349 664.36 512.273 663.954C513.211 663.548 514.352 663.345 515.696 663.345C516.634 663.345 517.551 663.457 518.447 663.681C519.343 663.905 520.127 664.227 520.799 664.647L519.749 667.23C518.391 666.46 517.033 666.075 515.675 666.075C514.723 666.075 514.016 666.229 513.554 666.537C513.106 666.845 512.882 667.251 512.882 667.755C512.882 668.259 513.141 668.637 513.659 668.889C514.191 669.127 514.996 669.365 516.074 669.603C517.194 669.869 518.111 670.135 518.825 670.401C519.539 670.667 520.148 671.087 520.652 671.661C521.17 672.235 521.429 673.012 521.429 673.992C521.429 674.832 521.191 675.602 520.715 676.302C520.253 676.988 519.553 677.534 518.615 677.94C517.677 678.346 516.536 678.549 515.192 678.549Z" fill="white"/>
<path d="M408.057 507.89C408.995 507.89 409.849 508.079 410.619 508.457C411.389 508.835 411.998 509.374 412.446 510.074C412.894 510.76 413.118 511.558 413.118 512.468C413.118 513.448 412.873 514.309 412.383 515.051C411.893 515.793 411.221 516.367 410.367 516.773C409.527 517.165 408.589 517.361 407.553 517.361C405.495 517.361 403.885 516.731 402.723 515.471C401.561 514.211 400.98 512.412 400.98 510.074C400.98 508.408 401.295 506.98 401.925 505.79C402.555 504.6 403.43 503.697 404.55 503.081C405.684 502.465 406.993 502.157 408.477 502.157C409.261 502.157 410.01 502.248 410.724 502.43C411.452 502.598 412.068 502.843 412.572 503.165L411.312 505.664C410.584 505.174 409.667 504.929 408.561 504.929C407.315 504.929 406.328 505.293 405.6 506.021C404.872 506.749 404.48 507.806 404.424 509.192C405.292 508.324 406.503 507.89 408.057 507.89ZM407.364 514.82C408.092 514.82 408.68 514.624 409.128 514.232C409.59 513.84 409.821 513.308 409.821 512.636C409.821 511.964 409.59 511.432 409.128 511.04C408.68 510.634 408.078 510.431 407.322 510.431C406.58 510.431 405.971 510.641 405.495 511.061C405.019 511.467 404.781 511.992 404.781 512.636C404.781 513.28 405.012 513.805 405.474 514.211C405.936 514.617 406.566 514.82 407.364 514.82ZM420.651 517.361C419.433 517.361 418.348 517.06 417.396 516.458C416.444 515.856 415.695 514.988 415.149 513.854C414.617 512.706 414.351 511.341 414.351 509.759C414.351 508.177 414.617 506.819 415.149 505.685C415.695 504.537 416.444 503.662 417.396 503.06C418.348 502.458 419.433 502.157 420.651 502.157C421.869 502.157 422.954 502.458 423.906 503.06C424.858 503.662 425.6 504.537 426.132 505.685C426.678 506.819 426.951 508.177 426.951 509.759C426.951 511.341 426.678 512.706 426.132 513.854C425.6 514.988 424.858 515.856 423.906 516.458C422.954 517.06 421.869 517.361 420.651 517.361ZM420.651 514.484C421.547 514.484 422.247 514.099 422.751 513.329C423.269 512.559 423.528 511.369 423.528 509.759C423.528 508.149 423.269 506.959 422.751 506.189C422.247 505.419 421.547 505.034 420.651 505.034C419.769 505.034 419.069 505.419 418.551 506.189C418.047 506.959 417.795 508.149 417.795 509.759C417.795 511.369 418.047 512.559 418.551 513.329C419.069 514.099 419.769 514.484 420.651 514.484Z" fill="white"/>
<path d="M363.818 542.519V557.219H360.416V545.249H357.476V542.519H363.818ZM372.672 557.471C371.454 557.471 370.369 557.17 369.417 556.568C368.465 555.966 367.716 555.098 367.17 553.964C366.638 552.816 366.372 551.451 366.372 549.869C366.372 548.287 366.638 546.929 367.17 545.795C367.716 544.647 368.465 543.772 369.417 543.17C370.369 542.568 371.454 542.267 372.672 542.267C373.89 542.267 374.975 542.568 375.927 543.17C376.879 543.772 377.621 544.647 378.153 545.795C378.699 546.929 378.972 548.287 378.972 549.869C378.972 551.451 378.699 552.816 378.153 553.964C377.621 555.098 376.879 555.966 375.927 556.568C374.975 557.17 373.89 557.471 372.672 557.471ZM372.672 554.594C373.568 554.594 374.268 554.209 374.772 553.439C375.29 552.669 375.549 551.479 375.549 549.869C375.549 548.259 375.29 547.069 374.772 546.299C374.268 545.529 373.568 545.144 372.672 545.144C371.79 545.144 371.09 545.529 370.572 546.299C370.068 547.069 369.816 548.259 369.816 549.869C369.816 551.479 370.068 552.669 370.572 553.439C371.09 554.209 371.79 554.594 372.672 554.594Z" fill="black"/>
<path d="M153 459C184.824 459 215.698 469.842 240.534 489.74C265.37 509.637 282.686 537.403 289.628 568.46C296.57 599.517 292.724 632.013 278.724 660.591C264.723 689.17 241.404 712.126 212.609 725.676C183.814 739.226 151.262 742.561 120.318 735.132C89.3732 727.703 61.8832 709.953 42.3783 684.807C22.8733 659.661 12.5174 628.621 13.0173 596.801C13.5171 564.981 24.843 534.281 45.1282 509.761L153 599V459Z" fill="#002D62"/>
<path d="M101.372 468.867C117.773 462.36 135.257 459.012 152.902 459L153 599L101.372 468.867Z" fill="#D11242"/>
<path d="M30.494 531.234C46.2635 502.726 71.4814 480.61 101.803 468.697L153 599L30.494 531.234Z" fill="#F5F5F5"/>
<circle cx="153.001" cy="599.001" r="22.7437" fill="white"/>
<path d="M100.229 669.583C101.517 669.793 102.504 670.276 103.19 671.032C103.876 671.774 104.219 672.698 104.219 673.804C104.219 674.658 103.995 675.449 103.547 676.177C103.099 676.891 102.413 677.465 101.489 677.899C100.579 678.333 99.459 678.55 98.129 678.55C97.093 678.55 96.071 678.417 95.063 678.151C94.069 677.871 93.222 677.479 92.522 676.975L93.845 674.371C94.405 674.791 95.049 675.12 95.777 675.358C96.519 675.582 97.275 675.694 98.045 675.694C98.899 675.694 99.571 675.533 100.061 675.211C100.551 674.875 100.796 674.406 100.796 673.804C100.796 672.6 99.879 671.998 98.045 671.998H96.491V669.751L99.515 666.328H93.257V663.598H103.547V665.803L100.229 669.583ZM111.46 663.598V678.298H108.058V666.328H105.118V663.598H111.46ZM120.313 678.55C119.095 678.55 118.01 678.249 117.058 677.647C116.106 677.045 115.357 676.177 114.811 675.043C114.279 673.895 114.013 672.53 114.013 670.948C114.013 669.366 114.279 668.008 114.811 666.874C115.357 665.726 116.106 664.851 117.058 664.249C118.01 663.647 119.095 663.346 120.313 663.346C121.531 663.346 122.616 663.647 123.568 664.249C124.52 664.851 125.262 665.726 125.794 666.874C126.34 668.008 126.613 669.366 126.613 670.948C126.613 672.53 126.34 673.895 125.794 675.043C125.262 676.177 124.52 677.045 123.568 677.647C122.616 678.249 121.531 678.55 120.313 678.55ZM120.313 675.673C121.209 675.673 121.909 675.288 122.413 674.518C122.931 673.748 123.19 672.558 123.19 670.948C123.19 669.338 122.931 668.148 122.413 667.378C121.909 666.608 121.209 666.223 120.313 666.223C119.431 666.223 118.731 666.608 118.213 667.378C117.709 668.148 117.457 669.338 117.457 670.948C117.457 672.558 117.709 673.748 118.213 674.518C118.731 675.288 119.431 675.673 120.313 675.673ZM148.62 663.598V678.298H145.218V672.271H138.54V678.298H135.138V663.598H138.54V669.394H145.218V663.598H148.62ZM159.216 678.55C157.69 678.55 156.311 678.221 155.079 677.563C153.861 676.905 152.902 676.002 152.202 674.854C151.516 673.692 151.173 672.39 151.173 670.948C151.173 669.506 151.516 668.211 152.202 667.063C152.902 665.901 153.861 664.991 155.079 664.333C156.311 663.675 157.69 663.346 159.216 663.346C160.742 663.346 162.114 663.675 163.332 664.333C164.55 664.991 165.509 665.901 166.209 667.063C166.909 668.211 167.259 669.506 167.259 670.948C167.259 672.39 166.909 673.692 166.209 674.854C165.509 676.002 164.55 676.905 163.332 677.563C162.114 678.221 160.742 678.55 159.216 678.55ZM159.216 675.652C160.084 675.652 160.868 675.456 161.568 675.064C162.268 674.658 162.814 674.098 163.206 673.384C163.612 672.67 163.815 671.858 163.815 670.948C163.815 670.038 163.612 669.226 163.206 668.512C162.814 667.798 162.268 667.245 161.568 666.853C160.868 666.447 160.084 666.244 159.216 666.244C158.348 666.244 157.564 666.447 156.864 666.853C156.164 667.245 155.611 667.798 155.205 668.512C154.813 669.226 154.617 670.038 154.617 670.948C154.617 671.858 154.813 672.67 155.205 673.384C155.611 674.098 156.164 674.658 156.864 675.064C157.564 675.456 158.348 675.652 159.216 675.652ZM176.347 678.55C174.247 678.55 172.609 677.969 171.433 676.807C170.271 675.645 169.69 673.986 169.69 671.83V663.598H173.092V671.704C173.092 674.336 174.184 675.652 176.368 675.652C177.432 675.652 178.244 675.337 178.804 674.707C179.364 674.063 179.644 673.062 179.644 671.704V663.598H183.004V671.83C183.004 673.986 182.416 675.645 181.24 676.807C180.078 677.969 178.447 678.55 176.347 678.55ZM195.732 678.298L192.897 674.203H192.729H189.768V678.298H186.366V663.598H192.729C194.031 663.598 195.158 663.815 196.11 664.249C197.076 664.683 197.818 665.299 198.336 666.097C198.854 666.895 199.113 667.84 199.113 668.932C199.113 670.024 198.847 670.969 198.315 671.767C197.797 672.551 197.055 673.153 196.089 673.573L199.386 678.298H195.732ZM195.669 668.932C195.669 668.106 195.403 667.476 194.871 667.042C194.339 666.594 193.562 666.37 192.54 666.37H189.768V671.494H192.54C193.562 671.494 194.339 671.27 194.871 670.822C195.403 670.374 195.669 669.744 195.669 668.932ZM206.638 678.55C205.476 678.55 204.349 678.396 203.257 678.088C202.179 677.766 201.311 677.353 200.653 676.849L201.808 674.287C202.438 674.749 203.187 675.12 204.055 675.4C204.923 675.68 205.791 675.82 206.659 675.82C207.625 675.82 208.339 675.68 208.801 675.4C209.263 675.106 209.494 674.721 209.494 674.245C209.494 673.895 209.354 673.608 209.074 673.384C208.808 673.146 208.458 672.957 208.024 672.817C207.604 672.677 207.03 672.523 206.302 672.355C205.182 672.089 204.265 671.823 203.551 671.557C202.837 671.291 202.221 670.864 201.703 670.276C201.199 669.688 200.947 668.904 200.947 667.924C200.947 667.07 201.178 666.3 201.64 665.614C202.102 664.914 202.795 664.361 203.719 663.955C204.657 663.549 205.798 663.346 207.142 663.346C208.08 663.346 208.997 663.458 209.893 663.682C210.789 663.906 211.573 664.228 212.245 664.648L211.195 667.231C209.837 666.461 208.479 666.076 207.121 666.076C206.169 666.076 205.462 666.23 205 666.538C204.552 666.846 204.328 667.252 204.328 667.756C204.328 668.26 204.587 668.638 205.105 668.89C205.637 669.128 206.442 669.366 207.52 669.604C208.64 669.87 209.557 670.136 210.271 670.402C210.985 670.668 211.594 671.088 212.098 671.662C212.616 672.236 212.875 673.013 212.875 673.993C212.875 674.833 212.637 675.603 212.161 676.303C211.699 676.989 210.999 677.535 210.061 677.941C209.123 678.347 207.982 678.55 206.638 678.55Z" fill="white"/>
<path d="M132.962 506.77V509.542H121.853V507.337L127.523 501.982C128.125 501.408 128.531 500.918 128.741 500.512C128.951 500.092 129.056 499.679 129.056 499.273C129.056 498.685 128.853 498.237 128.447 497.929C128.055 497.607 127.474 497.446 126.704 497.446C126.06 497.446 125.479 497.572 124.961 497.824C124.443 498.062 124.009 498.426 123.659 498.916L121.181 497.32C121.755 496.466 122.546 495.801 123.554 495.325C124.562 494.835 125.717 494.59 127.019 494.59C128.111 494.59 129.063 494.772 129.875 495.136C130.701 495.486 131.338 495.99 131.786 496.648C132.248 497.292 132.479 498.055 132.479 498.937C132.479 499.735 132.311 500.484 131.975 501.184C131.639 501.884 130.988 502.682 130.022 503.578L126.641 506.77H132.962ZM140.624 509.794C139.406 509.794 138.321 509.493 137.369 508.891C136.417 508.289 135.668 507.421 135.122 506.287C134.59 505.139 134.324 503.774 134.324 502.192C134.324 500.61 134.59 499.252 135.122 498.118C135.668 496.97 136.417 496.095 137.369 495.493C138.321 494.891 139.406 494.59 140.624 494.59C141.842 494.59 142.927 494.891 143.879 495.493C144.831 496.095 145.573 496.97 146.105 498.118C146.651 499.252 146.924 500.61 146.924 502.192C146.924 503.774 146.651 505.139 146.105 506.287C145.573 507.421 144.831 508.289 143.879 508.891C142.927 509.493 141.842 509.794 140.624 509.794ZM140.624 506.917C141.52 506.917 142.22 506.532 142.724 505.762C143.242 504.992 143.501 503.802 143.501 502.192C143.501 500.582 143.242 499.392 142.724 498.622C142.22 497.852 141.52 497.467 140.624 497.467C139.742 497.467 139.042 497.852 138.524 498.622C138.02 499.392 137.768 500.582 137.768 502.192C137.768 503.802 138.02 504.992 138.524 505.762C139.042 506.532 139.742 506.917 140.624 506.917Z" fill="white"/>
<path d="M81.1294 525.799C82.4174 526.009 83.4044 526.492 84.0904 527.248C84.7764 527.99 85.1194 528.914 85.1194 530.02C85.1194 530.874 84.8954 531.665 84.4474 532.393C83.9994 533.107 83.3134 533.681 82.3894 534.115C81.4794 534.549 80.3594 534.766 79.0294 534.766C77.9934 534.766 76.9714 534.633 75.9634 534.367C74.9694 534.087 74.1224 533.695 73.4224 533.191L74.7454 530.587C75.3054 531.007 75.9494 531.336 76.6774 531.574C77.4194 531.798 78.1754 531.91 78.9454 531.91C79.7994 531.91 80.4714 531.749 80.9614 531.427C81.4514 531.091 81.6964 530.622 81.6964 530.02C81.6964 528.816 80.7794 528.214 78.9454 528.214H77.3914V525.967L80.4154 522.544H74.1574V519.814H84.4474V522.019L81.1294 525.799ZM92.9901 534.766C91.7721 534.766 90.6871 534.465 89.7351 533.863C88.7831 533.261 88.0341 532.393 87.4881 531.259C86.9561 530.111 86.6901 528.746 86.6901 527.164C86.6901 525.582 86.9561 524.224 87.4881 523.09C88.0341 521.942 88.7831 521.067 89.7351 520.465C90.6871 519.863 91.7721 519.562 92.9901 519.562C94.2081 519.562 95.2931 519.863 96.2451 520.465C97.1971 521.067 97.9391 521.942 98.4711 523.09C99.0171 524.224 99.2901 525.582 99.2901 527.164C99.2901 528.746 99.0171 530.111 98.4711 531.259C97.9391 532.393 97.1971 533.261 96.2451 533.863C95.2931 534.465 94.2081 534.766 92.9901 534.766ZM92.9901 531.889C93.8861 531.889 94.5861 531.504 95.0901 530.734C95.6081 529.964 95.8671 528.774 95.8671 527.164C95.8671 525.554 95.6081 524.364 95.0901 523.594C94.5861 522.824 93.8861 522.439 92.9901 522.439C92.1081 522.439 91.4081 522.824 90.8901 523.594C90.3861 524.364 90.1341 525.554 90.1341 527.164C90.1341 528.774 90.3861 529.964 90.8901 530.734C91.4081 531.504 92.1081 531.889 92.9901 531.889Z" fill="black"/>
<circle cx="66" cy="211" r="15.5" fill="#002D62" stroke="black"/>
<circle cx="66" cy="277" r="15.5" fill="#D11242" stroke="black"/>
<circle cx="65" cy="343" r="15.5" fill="#F5F5F5" stroke="black"/>
<path d="M103.335 207.81C104.585 207.81 105.545 208.11 106.215 208.71C106.885 209.3 107.22 210.195 107.22 211.395V216H105.03V214.995C104.59 215.745 103.77 216.12 102.57 216.12C101.95 216.12 101.41 216.015 100.95 215.805C100.5 215.595 100.155 215.305 99.915 214.935C99.675 214.565 99.555 214.145 99.555 213.675C99.555 212.925 99.835 212.335 100.395 211.905C100.965 211.475 101.84 211.26 103.02 211.26H104.88C104.88 210.75 104.725 210.36 104.415 210.09C104.105 209.81 103.64 209.67 103.02 209.67C102.59 209.67 102.165 209.74 101.745 209.88C101.335 210.01 100.985 210.19 100.695 210.42L99.855 208.785C100.295 208.475 100.82 208.235 101.43 208.065C102.05 207.895 102.685 207.81 103.335 207.81ZM103.155 214.545C103.555 214.545 103.91 214.455 104.22 214.275C104.53 214.085 104.75 213.81 104.88 213.45V212.625H103.275C102.315 212.625 101.835 212.94 101.835 213.57C101.835 213.87 101.95 214.11 102.18 214.29C102.42 214.46 102.745 214.545 103.155 214.545ZM111.903 208.11H113.973V209.91H111.963V216H109.623V209.91H108.378V208.11H109.623V207.75C109.623 206.83 109.893 206.1 110.433 205.56C110.983 205.02 111.753 204.75 112.743 204.75C113.093 204.75 113.423 204.79 113.733 204.87C114.053 204.94 114.318 205.045 114.528 205.185L113.913 206.88C113.643 206.69 113.328 206.595 112.968 206.595C112.258 206.595 111.903 206.985 111.903 207.765V208.11ZM120.344 215.61C120.114 215.78 119.829 215.91 119.489 216C119.159 216.08 118.809 216.12 118.439 216.12C117.479 216.12 116.734 215.875 116.204 215.385C115.684 214.895 115.424 214.175 115.424 213.225V209.91H114.179V208.11H115.424V206.145H117.764V208.11H119.774V209.91H117.764V213.195C117.764 213.535 117.849 213.8 118.019 213.99C118.199 214.17 118.449 214.26 118.769 214.26C119.139 214.26 119.454 214.16 119.714 213.96L120.344 215.61ZM129.313 211.995C129.313 212.025 129.298 212.235 129.268 212.625H123.163C123.273 213.125 123.533 213.52 123.943 213.81C124.353 214.1 124.863 214.245 125.473 214.245C125.893 214.245 126.263 214.185 126.583 214.065C126.913 213.935 127.218 213.735 127.498 213.465L128.743 214.815C127.983 215.685 126.873 216.12 125.413 216.12C124.503 216.12 123.698 215.945 122.998 215.595C122.298 215.235 121.758 214.74 121.378 214.11C120.998 213.48 120.808 212.765 120.808 211.965C120.808 211.175 120.993 210.465 121.363 209.835C121.743 209.195 122.258 208.7 122.908 208.35C123.568 207.99 124.303 207.81 125.113 207.81C125.903 207.81 126.618 207.98 127.258 208.32C127.898 208.66 128.398 209.15 128.758 209.79C129.128 210.42 129.313 211.155 129.313 211.995ZM125.128 209.58C124.598 209.58 124.153 209.73 123.793 210.03C123.433 210.33 123.213 210.74 123.133 211.26H127.108C127.028 210.75 126.808 210.345 126.448 210.045C126.088 209.735 125.648 209.58 125.128 209.58ZM133.106 208.995C133.386 208.605 133.761 208.31 134.231 208.11C134.711 207.91 135.261 207.81 135.881 207.81V209.97C135.621 209.95 135.446 209.94 135.356 209.94C134.686 209.94 134.161 210.13 133.781 210.51C133.401 210.88 133.211 211.44 133.211 212.19V216H130.871V207.93H133.106V208.995ZM144.294 216.12C143.624 216.12 142.969 216.04 142.329 215.88C141.689 215.71 141.179 215.5 140.799 215.25L141.579 213.57C141.939 213.8 142.374 213.99 142.884 214.14C143.394 214.28 143.894 214.35 144.384 214.35C145.374 214.35 145.869 214.105 145.869 213.615C145.869 213.385 145.734 213.22 145.464 213.12C145.194 213.02 144.779 212.935 144.219 212.865C143.559 212.765 143.014 212.65 142.584 212.52C142.154 212.39 141.779 212.16 141.459 211.83C141.149 211.5 140.994 211.03 140.994 210.42C140.994 209.91 141.139 209.46 141.429 209.07C141.729 208.67 142.159 208.36 142.719 208.14C143.289 207.92 143.959 207.81 144.729 207.81C145.299 207.81 145.864 207.875 146.424 208.005C146.994 208.125 147.464 208.295 147.834 208.515L147.054 210.18C146.344 209.78 145.569 209.58 144.729 209.58C144.229 209.58 143.854 209.65 143.604 209.79C143.354 209.93 143.229 210.11 143.229 210.33C143.229 210.58 143.364 210.755 143.634 210.855C143.904 210.955 144.334 211.05 144.924 211.14C145.584 211.25 146.124 211.37 146.544 211.5C146.964 211.62 147.329 211.845 147.639 212.175C147.949 212.505 148.104 212.965 148.104 213.555C148.104 214.055 147.954 214.5 147.654 214.89C147.354 215.28 146.914 215.585 146.334 215.805C145.764 216.015 145.084 216.12 144.294 216.12ZM153.448 216.12C152.588 216.12 151.813 215.945 151.123 215.595C150.443 215.235 149.908 214.74 149.518 214.11C149.138 213.48 148.948 212.765 148.948 211.965C148.948 211.165 149.138 210.45 149.518 209.82C149.908 209.19 150.443 208.7 151.123 208.35C151.813 207.99 152.588 207.81 153.448 207.81C154.298 207.81 155.038 207.99 155.668 208.35C156.308 208.7 156.773 209.205 157.063 209.865L155.248 210.84C154.828 210.1 154.223 209.73 153.433 209.73C152.823 209.73 152.318 209.93 151.918 210.33C151.518 210.73 151.318 211.275 151.318 211.965C151.318 212.655 151.518 213.2 151.918 213.6C152.318 214 152.823 214.2 153.433 214.2C154.233 214.2 154.838 213.83 155.248 213.09L157.063 214.08C156.773 214.72 156.308 215.22 155.668 215.58C155.038 215.94 154.298 216.12 153.448 216.12ZM163.256 207.81C164.256 207.81 165.061 208.11 165.671 208.71C166.291 209.31 166.601 210.2 166.601 211.38V216H164.261V211.74C164.261 211.1 164.121 210.625 163.841 210.315C163.561 209.995 163.156 209.835 162.626 209.835C162.036 209.835 161.566 210.02 161.216 210.39C160.866 210.75 160.691 211.29 160.691 212.01V216H158.351V204.87H160.691V208.77C161.001 208.46 161.376 208.225 161.816 208.065C162.256 207.895 162.736 207.81 163.256 207.81ZM172.65 216.12C171.8 216.12 171.035 215.945 170.355 215.595C169.685 215.235 169.16 214.74 168.78 214.11C168.4 213.48 168.21 212.765 168.21 211.965C168.21 211.165 168.4 210.45 168.78 209.82C169.16 209.19 169.685 208.7 170.355 208.35C171.035 207.99 171.8 207.81 172.65 207.81C173.5 207.81 174.26 207.99 174.93 208.35C175.6 208.7 176.125 209.19 176.505 209.82C176.885 210.45 177.075 211.165 177.075 211.965C177.075 212.765 176.885 213.48 176.505 214.11C176.125 214.74 175.6 215.235 174.93 215.595C174.26 215.945 173.5 216.12 172.65 216.12ZM172.65 214.2C173.25 214.2 173.74 214 174.12 213.6C174.51 213.19 174.705 212.645 174.705 211.965C174.705 211.285 174.51 210.745 174.12 210.345C173.74 209.935 173.25 209.73 172.65 209.73C172.05 209.73 171.555 209.935 171.165 210.345C170.775 210.745 170.58 211.285 170.58 211.965C170.58 212.645 170.775 213.19 171.165 213.6C171.555 214 172.05 214.2 172.65 214.2ZM182.48 216.12C181.63 216.12 180.865 215.945 180.185 215.595C179.515 215.235 178.99 214.74 178.61 214.11C178.23 213.48 178.04 212.765 178.04 211.965C178.04 211.165 178.23 210.45 178.61 209.82C178.99 209.19 179.515 208.7 180.185 208.35C180.865 207.99 181.63 207.81 182.48 207.81C183.33 207.81 184.09 207.99 184.76 208.35C185.43 208.7 185.955 209.19 186.335 209.82C186.715 210.45 186.905 211.165 186.905 211.965C186.905 212.765 186.715 213.48 186.335 214.11C185.955 214.74 185.43 215.235 184.76 215.595C184.09 215.945 183.33 216.12 182.48 216.12ZM182.48 214.2C183.08 214.2 183.57 214 183.95 213.6C184.34 213.19 184.535 212.645 184.535 211.965C184.535 211.285 184.34 210.745 183.95 210.345C183.57 209.935 183.08 209.73 182.48 209.73C181.88 209.73 181.385 209.935 180.995 210.345C180.605 210.745 180.41 211.285 180.41 211.965C180.41 212.645 180.605 213.19 180.995 213.6C181.385 214 181.88 214.2 182.48 214.2ZM188.469 204.87H190.809V216H188.469V204.87ZM197.228 207.93H199.568V216H197.228V207.93ZM198.398 206.805C197.968 206.805 197.618 206.68 197.348 206.43C197.078 206.18 196.943 205.87 196.943 205.5C196.943 205.13 197.078 204.82 197.348 204.57C197.618 204.32 197.968 204.195 198.398 204.195C198.828 204.195 199.178 204.315 199.448 204.555C199.718 204.795 199.853 205.095 199.853 205.455C199.853 205.845 199.718 206.17 199.448 206.43C199.178 206.68 198.828 206.805 198.398 206.805ZM206.645 207.81C207.645 207.81 208.45 208.11 209.06 208.71C209.68 209.31 209.99 210.2 209.99 211.38V216H207.65V211.74C207.65 211.1 207.51 210.625 207.23 210.315C206.95 209.995 206.545 209.835 206.015 209.835C205.425 209.835 204.955 210.02 204.605 210.39C204.255 210.75 204.08 211.29 204.08 212.01V216H201.74V207.93H203.975V208.875C204.285 208.535 204.67 208.275 205.13 208.095C205.59 207.905 206.095 207.81 206.645 207.81ZM214.826 216.12C214.156 216.12 213.501 216.04 212.861 215.88C212.221 215.71 211.711 215.5 211.331 215.25L212.111 213.57C212.471 213.8 212.906 213.99 213.416 214.14C213.926 214.28 214.426 214.35 214.916 214.35C215.906 214.35 216.401 214.105 216.401 213.615C216.401 213.385 216.266 213.22 215.996 213.12C215.726 213.02 215.311 212.935 214.751 212.865C214.091 212.765 213.546 212.65 213.116 212.52C212.686 212.39 212.311 212.16 211.991 211.83C211.681 211.5 211.526 211.03 211.526 210.42C211.526 209.91 211.671 209.46 211.961 209.07C212.261 208.67 212.691 208.36 213.251 208.14C213.821 207.92 214.491 207.81 215.261 207.81C215.831 207.81 216.396 207.875 216.956 208.005C217.526 208.125 217.996 208.295 218.366 208.515L217.586 210.18C216.876 209.78 216.101 209.58 215.261 209.58C214.761 209.58 214.386 209.65 214.136 209.79C213.886 209.93 213.761 210.11 213.761 210.33C213.761 210.58 213.896 210.755 214.166 210.855C214.436 210.955 214.866 211.05 215.456 211.14C216.116 211.25 216.656 211.37 217.076 211.5C217.496 211.62 217.861 211.845 218.171 212.175C218.481 212.505 218.636 212.965 218.636 213.555C218.636 214.055 218.486 214.5 218.186 214.89C217.886 215.28 217.446 215.585 216.866 215.805C216.296 216.015 215.616 216.12 214.826 216.12ZM225.285 215.61C225.055 215.78 224.77 215.91 224.43 216C224.1 216.08 223.75 216.12 223.38 216.12C222.42 216.12 221.675 215.875 221.145 215.385C220.625 214.895 220.365 214.175 220.365 213.225V209.91H219.12V208.11H220.365V206.145H222.705V208.11H224.715V209.91H222.705V213.195C222.705 213.535 222.79 213.8 222.96 213.99C223.14 214.17 223.39 214.26 223.71 214.26C224.08 214.26 224.395 214.16 224.655 213.96L225.285 215.61ZM228.834 208.995C229.114 208.605 229.489 208.31 229.959 208.11C230.439 207.91 230.989 207.81 231.609 207.81V209.97C231.349 209.95 231.174 209.94 231.084 209.94C230.414 209.94 229.889 210.13 229.509 210.51C229.129 210.88 228.939 211.44 228.939 212.19V216H226.599V207.93H228.834V208.995ZM241.189 207.93V216H238.969V215.04C238.659 215.39 238.289 215.66 237.859 215.85C237.429 216.03 236.964 216.12 236.464 216.12C235.404 216.12 234.564 215.815 233.944 215.205C233.324 214.595 233.014 213.69 233.014 212.49V207.93H235.354V212.145C235.354 213.445 235.899 214.095 236.989 214.095C237.549 214.095 237.999 213.915 238.339 213.555C238.679 213.185 238.849 212.64 238.849 211.92V207.93H241.189ZM247.256 216.12C246.396 216.12 245.621 215.945 244.931 215.595C244.251 215.235 243.716 214.74 243.326 214.11C242.946 213.48 242.756 212.765 242.756 211.965C242.756 211.165 242.946 210.45 243.326 209.82C243.716 209.19 244.251 208.7 244.931 208.35C245.621 207.99 246.396 207.81 247.256 207.81C248.106 207.81 248.846 207.99 249.476 208.35C250.116 208.7 250.581 209.205 250.871 209.865L249.056 210.84C248.636 210.1 248.031 209.73 247.241 209.73C246.631 209.73 246.126 209.93 245.726 210.33C245.326 210.73 245.126 211.275 245.126 211.965C245.126 212.655 245.326 213.2 245.726 213.6C246.126 214 246.631 214.2 247.241 214.2C248.041 214.2 248.646 213.83 249.056 213.09L250.871 214.08C250.581 214.72 250.116 215.22 249.476 215.58C248.846 215.94 248.106 216.12 247.256 216.12ZM257.541 215.61C257.311 215.78 257.026 215.91 256.686 216C256.356 216.08 256.006 216.12 255.636 216.12C254.676 216.12 253.931 215.875 253.401 215.385C252.881 214.895 252.621 214.175 252.621 213.225V209.91H251.376V208.11H252.621V206.145H254.961V208.11H256.971V209.91H254.961V213.195C254.961 213.535 255.046 213.8 255.216 213.99C255.396 214.17 255.646 214.26 255.966 214.26C256.336 214.26 256.651 214.16 256.911 213.96L257.541 215.61ZM258.854 207.93H261.194V216H258.854V207.93ZM260.024 206.805C259.594 206.805 259.244 206.68 258.974 206.43C258.704 206.18 258.569 205.87 258.569 205.5C258.569 205.13 258.704 204.82 258.974 204.57C259.244 204.32 259.594 204.195 260.024 204.195C260.454 204.195 260.804 204.315 261.074 204.555C261.344 204.795 261.479 205.095 261.479 205.455C261.479 205.845 261.344 206.17 261.074 206.43C260.804 206.68 260.454 206.805 260.024 206.805ZM267.206 216.12C266.356 216.12 265.591 215.945 264.911 215.595C264.241 215.235 263.716 214.74 263.336 214.11C262.956 213.48 262.766 212.765 262.766 211.965C262.766 211.165 262.956 210.45 263.336 209.82C263.716 209.19 264.241 208.7 264.911 208.35C265.591 207.99 266.356 207.81 267.206 207.81C268.056 207.81 268.816 207.99 269.486 208.35C270.156 208.7 270.681 209.19 271.061 209.82C271.441 210.45 271.631 211.165 271.631 211.965C271.631 212.765 271.441 213.48 271.061 214.11C270.681 214.74 270.156 215.235 269.486 215.595C268.816 215.945 268.056 216.12 267.206 216.12ZM267.206 214.2C267.806 214.2 268.296 214 268.676 213.6C269.066 213.19 269.261 212.645 269.261 211.965C269.261 211.285 269.066 210.745 268.676 210.345C268.296 209.935 267.806 209.73 267.206 209.73C266.606 209.73 266.111 209.935 265.721 210.345C265.331 210.745 265.136 211.285 265.136 211.965C265.136 212.645 265.331 213.19 265.721 213.6C266.111 214 266.606 214.2 267.206 214.2ZM278.1 207.81C279.1 207.81 279.905 208.11 280.515 208.71C281.135 209.31 281.445 210.2 281.445 211.38V216H279.105V211.74C279.105 211.1 278.965 210.625 278.685 210.315C278.405 209.995 278 209.835 277.47 209.835C276.88 209.835 276.41 210.02 276.06 210.39C275.71 210.75 275.535 211.29 275.535 212.01V216H273.195V207.93H275.43V208.875C275.74 208.535 276.125 208.275 276.585 208.095C277.045 207.905 277.55 207.81 278.1 207.81Z" fill="black"/>
<path d="M100.08 273.93H102.42V282H100.08V273.93ZM101.25 272.805C100.82 272.805 100.47 272.68 100.2 272.43C99.93 272.18 99.795 271.87 99.795 271.5C99.795 271.13 99.93 270.82 100.2 270.57C100.47 270.32 100.82 270.195 101.25 270.195C101.68 270.195 102.03 270.315 102.3 270.555C102.57 270.795 102.705 271.095 102.705 271.455C102.705 271.845 102.57 272.17 102.3 272.43C102.03 272.68 101.68 272.805 101.25 272.805ZM109.497 273.81C110.497 273.81 111.302 274.11 111.912 274.71C112.532 275.31 112.842 276.2 112.842 277.38V282H110.502V277.74C110.502 277.1 110.362 276.625 110.082 276.315C109.802 275.995 109.397 275.835 108.867 275.835C108.277 275.835 107.807 276.02 107.457 276.39C107.107 276.75 106.932 277.29 106.932 278.01V282H104.592V273.93H106.827V274.875C107.137 274.535 107.522 274.275 107.982 274.095C108.442 273.905 108.947 273.81 109.497 273.81ZM120.168 281.61C119.938 281.78 119.653 281.91 119.313 282C118.983 282.08 118.633 282.12 118.263 282.12C117.303 282.12 116.558 281.875 116.028 281.385C115.508 280.895 115.248 280.175 115.248 279.225V275.91H114.003V274.11H115.248V272.145H117.588V274.11H119.598V275.91H117.588V279.195C117.588 279.535 117.673 279.8 117.843 279.99C118.023 280.17 118.273 280.26 118.593 280.26C118.963 280.26 119.278 280.16 119.538 279.96L120.168 281.61ZM129.137 277.995C129.137 278.025 129.122 278.235 129.092 278.625H122.987C123.097 279.125 123.357 279.52 123.767 279.81C124.177 280.1 124.687 280.245 125.297 280.245C125.717 280.245 126.087 280.185 126.407 280.065C126.737 279.935 127.042 279.735 127.322 279.465L128.567 280.815C127.807 281.685 126.697 282.12 125.237 282.12C124.327 282.12 123.522 281.945 122.822 281.595C122.122 281.235 121.582 280.74 121.202 280.11C120.822 279.48 120.632 278.765 120.632 277.965C120.632 277.175 120.817 276.465 121.187 275.835C121.567 275.195 122.082 274.7 122.732 274.35C123.392 273.99 124.127 273.81 124.937 273.81C125.727 273.81 126.442 273.98 127.082 274.32C127.722 274.66 128.222 275.15 128.582 275.79C128.952 276.42 129.137 277.155 129.137 277.995ZM124.952 275.58C124.422 275.58 123.977 275.73 123.617 276.03C123.257 276.33 123.037 276.74 122.957 277.26H126.932C126.852 276.75 126.632 276.345 126.272 276.045C125.912 275.735 125.472 275.58 124.952 275.58ZM135.6 273.81C136.6 273.81 137.405 274.11 138.015 274.71C138.635 275.31 138.945 276.2 138.945 277.38V282H136.605V277.74C136.605 277.1 136.465 276.625 136.185 276.315C135.905 275.995 135.5 275.835 134.97 275.835C134.38 275.835 133.91 276.02 133.56 276.39C133.21 276.75 133.035 277.29 133.035 278.01V282H130.695V273.93H132.93V274.875C133.24 274.535 133.625 274.275 134.085 274.095C134.545 273.905 135.05 273.81 135.6 273.81ZM143.781 282.12C143.111 282.12 142.456 282.04 141.816 281.88C141.176 281.71 140.666 281.5 140.286 281.25L141.066 279.57C141.426 279.8 141.861 279.99 142.371 280.14C142.881 280.28 143.381 280.35 143.871 280.35C144.861 280.35 145.356 280.105 145.356 279.615C145.356 279.385 145.221 279.22 144.951 279.12C144.681 279.02 144.266 278.935 143.706 278.865C143.046 278.765 142.501 278.65 142.071 278.52C141.641 278.39 141.266 278.16 140.946 277.83C140.636 277.5 140.481 277.03 140.481 276.42C140.481 275.91 140.626 275.46 140.916 275.07C141.216 274.67 141.646 274.36 142.206 274.14C142.776 273.92 143.446 273.81 144.216 273.81C144.786 273.81 145.351 273.875 145.911 274.005C146.481 274.125 146.951 274.295 147.321 274.515L146.541 276.18C145.831 275.78 145.056 275.58 144.216 275.58C143.716 275.58 143.341 275.65 143.091 275.79C142.841 275.93 142.716 276.11 142.716 276.33C142.716 276.58 142.851 276.755 143.121 276.855C143.391 276.955 143.821 277.05 144.411 277.14C145.071 277.25 145.611 277.37 146.031 277.5C146.451 277.62 146.816 277.845 147.126 278.175C147.436 278.505 147.591 278.965 147.591 279.555C147.591 280.055 147.441 280.5 147.141 280.89C146.841 281.28 146.401 281.585 145.821 281.805C145.251 282.015 144.571 282.12 143.781 282.12ZM149.035 273.93H151.375V282H149.035V273.93ZM150.205 272.805C149.775 272.805 149.425 272.68 149.155 272.43C148.885 272.18 148.75 271.87 148.75 271.5C148.75 271.13 148.885 270.82 149.155 270.57C149.425 270.32 149.775 270.195 150.205 270.195C150.635 270.195 150.985 270.315 151.255 270.555C151.525 270.795 151.66 271.095 151.66 271.455C151.66 271.845 151.525 272.17 151.255 272.43C150.985 272.68 150.635 272.805 150.205 272.805ZM161.557 273.93L158.152 282H155.737L152.347 273.93H154.762L156.997 279.42L159.307 273.93H161.557ZM170.197 277.995C170.197 278.025 170.182 278.235 170.152 278.625H164.047C164.157 279.125 164.417 279.52 164.827 279.81C165.237 280.1 165.747 280.245 166.357 280.245C166.777 280.245 167.147 280.185 167.467 280.065C167.797 279.935 168.102 279.735 168.382 279.465L169.627 280.815C168.867 281.685 167.757 282.12 166.297 282.12C165.387 282.12 164.582 281.945 163.882 281.595C163.182 281.235 162.642 280.74 162.262 280.11C161.882 279.48 161.692 278.765 161.692 277.965C161.692 277.175 161.877 276.465 162.247 275.835C162.627 275.195 163.142 274.7 163.792 274.35C164.452 273.99 165.187 273.81 165.997 273.81C166.787 273.81 167.502 273.98 168.142 274.32C168.782 274.66 169.282 275.15 169.642 275.79C170.012 276.42 170.197 277.155 170.197 277.995ZM166.012 275.58C165.482 275.58 165.037 275.73 164.677 276.03C164.317 276.33 164.097 276.74 164.017 277.26H167.992C167.912 276.75 167.692 276.345 167.332 276.045C166.972 275.735 166.532 275.58 166.012 275.58ZM178.718 282.12C178.048 282.12 177.393 282.04 176.753 281.88C176.113 281.71 175.603 281.5 175.223 281.25L176.003 279.57C176.363 279.8 176.798 279.99 177.308 280.14C177.818 280.28 178.318 280.35 178.808 280.35C179.798 280.35 180.293 280.105 180.293 279.615C180.293 279.385 180.158 279.22 179.888 279.12C179.618 279.02 179.203 278.935 178.643 278.865C177.983 278.765 177.438 278.65 177.008 278.52C176.578 278.39 176.203 278.16 175.883 277.83C175.573 277.5 175.418 277.03 175.418 276.42C175.418 275.91 175.563 275.46 175.853 275.07C176.153 274.67 176.583 274.36 177.143 274.14C177.713 273.92 178.383 273.81 179.153 273.81C179.723 273.81 180.288 273.875 180.848 274.005C181.418 274.125 181.888 274.295 182.258 274.515L181.478 276.18C180.768 275.78 179.993 275.58 179.153 275.58C178.653 275.58 178.278 275.65 178.028 275.79C177.778 275.93 177.653 276.11 177.653 276.33C177.653 276.58 177.788 276.755 178.058 276.855C178.328 276.955 178.758 277.05 179.348 277.14C180.008 277.25 180.548 277.37 180.968 277.5C181.388 277.62 181.753 277.845 182.063 278.175C182.373 278.505 182.528 278.965 182.528 279.555C182.528 280.055 182.378 280.5 182.078 280.89C181.778 281.28 181.338 281.585 180.758 281.805C180.188 282.015 179.508 282.12 178.718 282.12ZM191.877 277.995C191.877 278.025 191.862 278.235 191.832 278.625H185.727C185.837 279.125 186.097 279.52 186.507 279.81C186.917 280.1 187.427 280.245 188.037 280.245C188.457 280.245 188.827 280.185 189.147 280.065C189.477 279.935 189.782 279.735 190.062 279.465L191.307 280.815C190.547 281.685 189.437 282.12 187.977 282.12C187.067 282.12 186.262 281.945 185.562 281.595C184.862 281.235 184.322 280.74 183.942 280.11C183.562 279.48 183.372 278.765 183.372 277.965C183.372 277.175 183.557 276.465 183.927 275.835C184.307 275.195 184.822 274.7 185.472 274.35C186.132 273.99 186.867 273.81 187.677 273.81C188.467 273.81 189.182 273.98 189.822 274.32C190.462 274.66 190.962 275.15 191.322 275.79C191.692 276.42 191.877 277.155 191.877 277.995ZM187.692 275.58C187.162 275.58 186.717 275.73 186.357 276.03C185.997 276.33 185.777 276.74 185.697 277.26H189.672C189.592 276.75 189.372 276.345 189.012 276.045C188.652 275.735 188.212 275.58 187.692 275.58ZM196.149 282.12C195.479 282.12 194.824 282.04 194.184 281.88C193.544 281.71 193.034 281.5 192.654 281.25L193.434 279.57C193.794 279.8 194.229 279.99 194.739 280.14C195.249 280.28 195.749 280.35 196.239 280.35C197.229 280.35 197.724 280.105 197.724 279.615C197.724 279.385 197.589 279.22 197.319 279.12C197.049 279.02 196.634 278.935 196.074 278.865C195.414 278.765 194.869 278.65 194.439 278.52C194.009 278.39 193.634 278.16 193.314 277.83C193.004 277.5 192.849 277.03 192.849 276.42C192.849 275.91 192.994 275.46 193.284 275.07C193.584 274.67 194.014 274.36 194.574 274.14C195.144 273.92 195.814 273.81 196.584 273.81C197.154 273.81 197.719 273.875 198.279 274.005C198.849 274.125 199.319 274.295 199.689 274.515L198.909 276.18C198.199 275.78 197.424 275.58 196.584 275.58C196.084 275.58 195.709 275.65 195.459 275.79C195.209 275.93 195.084 276.11 195.084 276.33C195.084 276.58 195.219 276.755 195.489 276.855C195.759 276.955 196.189 277.05 196.779 277.14C197.439 277.25 197.979 277.37 198.399 277.5C198.819 277.62 199.184 277.845 199.494 278.175C199.804 278.505 199.959 278.965 199.959 279.555C199.959 280.055 199.809 280.5 199.509 280.89C199.209 281.28 198.769 281.585 198.189 281.805C197.619 282.015 196.939 282.12 196.149 282.12ZM204.118 282.12C203.448 282.12 202.793 282.04 202.153 281.88C201.513 281.71 201.003 281.5 200.623 281.25L201.403 279.57C201.763 279.8 202.198 279.99 202.708 280.14C203.218 280.28 203.718 280.35 204.208 280.35C205.198 280.35 205.693 280.105 205.693 279.615C205.693 279.385 205.558 279.22 205.288 279.12C205.018 279.02 204.603 278.935 204.043 278.865C203.383 278.765 202.838 278.65 202.408 278.52C201.978 278.39 201.603 278.16 201.283 277.83C200.973 277.5 200.818 277.03 200.818 276.42C200.818 275.91 200.963 275.46 201.253 275.07C201.553 274.67 201.983 274.36 202.543 274.14C203.113 273.92 203.783 273.81 204.553 273.81C205.123 273.81 205.688 273.875 206.248 274.005C206.818 274.125 207.288 274.295 207.658 274.515L206.878 276.18C206.168 275.78 205.393 275.58 204.553 275.58C204.053 275.58 203.678 275.65 203.428 275.79C203.178 275.93 203.053 276.11 203.053 276.33C203.053 276.58 203.188 276.755 203.458 276.855C203.728 276.955 204.158 277.05 204.748 277.14C205.408 277.25 205.948 277.37 206.368 277.5C206.788 277.62 207.153 277.845 207.463 278.175C207.773 278.505 207.928 278.965 207.928 279.555C207.928 280.055 207.778 280.5 207.478 280.89C207.178 281.28 206.738 281.585 206.158 281.805C205.588 282.015 204.908 282.12 204.118 282.12ZM209.372 273.93H211.712V282H209.372V273.93ZM210.542 272.805C210.112 272.805 209.762 272.68 209.492 272.43C209.222 272.18 209.087 271.87 209.087 271.5C209.087 271.13 209.222 270.82 209.492 270.57C209.762 270.32 210.112 270.195 210.542 270.195C210.972 270.195 211.322 270.315 211.592 270.555C211.862 270.795 211.997 271.095 211.997 271.455C211.997 271.845 211.862 272.17 211.592 272.43C211.322 272.68 210.972 272.805 210.542 272.805ZM217.724 282.12C216.874 282.12 216.109 281.945 215.429 281.595C214.759 281.235 214.234 280.74 213.854 280.11C213.474 279.48 213.284 278.765 213.284 277.965C213.284 277.165 213.474 276.45 213.854 275.82C214.234 275.19 214.759 274.7 215.429 274.35C216.109 273.99 216.874 273.81 217.724 273.81C218.574 273.81 219.334 273.99 220.004 274.35C220.674 274.7 221.199 275.19 221.579 275.82C221.959 276.45 222.149 277.165 222.149 277.965C222.149 278.765 221.959 279.48 221.579 280.11C221.199 280.74 220.674 281.235 220.004 281.595C219.334 281.945 218.574 282.12 217.724 282.12ZM217.724 280.2C218.324 280.2 218.814 280 219.194 279.6C219.584 279.19 219.779 278.645 219.779 277.965C219.779 277.285 219.584 276.745 219.194 276.345C218.814 275.935 218.324 275.73 217.724 275.73C217.124 275.73 216.629 275.935 216.239 276.345C215.849 276.745 215.654 277.285 215.654 277.965C215.654 278.645 215.849 279.19 216.239 279.6C216.629 280 217.124 280.2 217.724 280.2ZM228.618 273.81C229.618 273.81 230.423 274.11 231.033 274.71C231.653 275.31 231.963 276.2 231.963 277.38V282H229.623V277.74C229.623 277.1 229.483 276.625 229.203 276.315C228.923 275.995 228.518 275.835 227.988 275.835C227.398 275.835 226.928 276.02 226.578 276.39C226.228 276.75 226.053 277.29 226.053 278.01V282H223.713V273.93H225.948V274.875C226.258 274.535 226.643 274.275 227.103 274.095C227.563 273.905 228.068 273.81 228.618 273.81ZM236.799 282.12C236.129 282.12 235.474 282.04 234.834 281.88C234.194 281.71 233.684 281.5 233.304 281.25L234.084 279.57C234.444 279.8 234.879 279.99 235.389 280.14C235.899 280.28 236.399 280.35 236.889 280.35C237.879 280.35 238.374 280.105 238.374 279.615C238.374 279.385 238.239 279.22 237.969 279.12C237.699 279.02 237.284 278.935 236.724 278.865C236.064 278.765 235.519 278.65 235.089 278.52C234.659 278.39 234.284 278.16 233.964 277.83C233.654 277.5 233.499 277.03 233.499 276.42C233.499 275.91 233.644 275.46 233.934 275.07C234.234 274.67 234.664 274.36 235.224 274.14C235.794 273.92 236.464 273.81 237.234 273.81C237.804 273.81 238.369 273.875 238.929 274.005C239.499 274.125 239.969 274.295 240.339 274.515L239.559 276.18C238.849 275.78 238.074 275.58 237.234 275.58C236.734 275.58 236.359 275.65 236.109 275.79C235.859 275.93 235.734 276.11 235.734 276.33C235.734 276.58 235.869 276.755 236.139 276.855C236.409 276.955 236.839 277.05 237.429 277.14C238.089 277.25 238.629 277.37 239.049 277.5C239.469 277.62 239.834 277.845 240.144 278.175C240.454 278.505 240.609 278.965 240.609 279.555C240.609 280.055 240.459 280.5 240.159 280.89C239.859 281.28 239.419 281.585 238.839 281.805C238.269 282.015 237.589 282.12 236.799 282.12Z" fill="black"/>
<path d="M106.985 343.995C106.985 344.025 106.97 344.235 106.94 344.625H100.835C100.945 345.125 101.205 345.52 101.615 345.81C102.025 346.1 102.535 346.245 103.145 346.245C103.565 346.245 103.935 346.185 104.255 346.065C104.585 345.935 104.89 345.735 105.17 345.465L106.415 346.815C105.655 347.685 104.545 348.12 103.085 348.12C102.175 348.12 101.37 347.945 100.67 347.595C99.97 347.235 99.43 346.74 99.05 346.11C98.67 345.48 98.48 344.765 98.48 343.965C98.48 343.175 98.665 342.465 99.035 341.835C99.415 341.195 99.93 340.7 100.58 340.35C101.24 339.99 101.975 339.81 102.785 339.81C103.575 339.81 104.29 339.98 104.93 340.32C105.57 340.66 106.07 341.15 106.43 341.79C106.8 342.42 106.985 343.155 106.985 343.995ZM102.8 341.58C102.27 341.58 101.825 341.73 101.465 342.03C101.105 342.33 100.885 342.74 100.805 343.26H104.78C104.7 342.75 104.48 342.345 104.12 342.045C103.76 341.735 103.32 341.58 102.8 341.58ZM113.448 339.81C114.448 339.81 115.253 340.11 115.863 340.71C116.483 341.31 116.793 342.2 116.793 343.38V348H114.453V343.74C114.453 343.1 114.313 342.625 114.033 342.315C113.753 341.995 113.348 341.835 112.818 341.835C112.228 341.835 111.758 342.02 111.408 342.39C111.058 342.75 110.883 343.29 110.883 344.01V348H108.543V339.93H110.778V340.875C111.088 340.535 111.473 340.275 111.933 340.095C112.393 339.905 112.898 339.81 113.448 339.81ZM123.819 339.81C124.819 339.81 125.624 340.11 126.234 340.71C126.854 341.31 127.164 342.2 127.164 343.38V348H124.824V343.74C124.824 343.1 124.684 342.625 124.404 342.315C124.124 341.995 123.719 341.835 123.189 341.835C122.599 341.835 122.129 342.02 121.779 342.39C121.429 342.75 121.254 343.29 121.254 344.01V348H118.914V336.87H121.254V340.77C121.564 340.46 121.939 340.225 122.379 340.065C122.819 339.895 123.299 339.81 123.819 339.81ZM132.54 339.81C133.79 339.81 134.75 340.11 135.42 340.71C136.09 341.3 136.425 342.195 136.425 343.395V348H134.235V346.995C133.795 347.745 132.975 348.12 131.775 348.12C131.155 348.12 130.615 348.015 130.155 347.805C129.705 347.595 129.36 347.305 129.12 346.935C128.88 346.565 128.76 346.145 128.76 345.675C128.76 344.925 129.04 344.335 129.6 343.905C130.17 343.475 131.045 343.26 132.225 343.26H134.085C134.085 342.75 133.93 342.36 133.62 342.09C133.31 341.81 132.845 341.67 132.225 341.67C131.795 341.67 131.37 341.74 130.95 341.88C130.54 342.01 130.19 342.19 129.9 342.42L129.06 340.785C129.5 340.475 130.025 340.235 130.635 340.065C131.255 339.895 131.89 339.81 132.54 339.81ZM132.36 346.545C132.76 346.545 133.115 346.455 133.425 346.275C133.735 346.085 133.955 345.81 134.085 345.45V344.625H132.48C131.52 344.625 131.04 344.94 131.04 345.57C131.04 345.87 131.155 346.11 131.385 346.29C131.625 346.46 131.95 346.545 132.36 346.545ZM143.448 339.81C144.448 339.81 145.253 340.11 145.863 340.71C146.483 341.31 146.793 342.2 146.793 343.38V348H144.453V343.74C144.453 343.1 144.313 342.625 144.033 342.315C143.753 341.995 143.348 341.835 142.818 341.835C142.228 341.835 141.758 342.02 141.408 342.39C141.058 342.75 140.883 343.29 140.883 344.01V348H138.543V339.93H140.778V340.875C141.088 340.535 141.473 340.275 141.933 340.095C142.393 339.905 142.898 339.81 143.448 339.81ZM152.902 348.12C152.042 348.12 151.267 347.945 150.577 347.595C149.897 347.235 149.362 346.74 148.972 346.11C148.592 345.48 148.402 344.765 148.402 343.965C148.402 343.165 148.592 342.45 148.972 341.82C149.362 341.19 149.897 340.7 150.577 340.35C151.267 339.99 152.042 339.81 152.902 339.81C153.752 339.81 154.492 339.99 155.122 340.35C155.762 340.7 156.227 341.205 156.517 341.865L154.702 342.84C154.282 342.1 153.677 341.73 152.887 341.73C152.277 341.73 151.772 341.93 151.372 342.33C150.972 342.73 150.772 343.275 150.772 343.965C150.772 344.655 150.972 345.2 151.372 345.6C151.772 346 152.277 346.2 152.887 346.2C153.687 346.2 154.292 345.83 154.702 345.09L156.517 346.08C156.227 346.72 155.762 347.22 155.122 347.58C154.492 347.94 153.752 348.12 152.902 348.12ZM165.667 343.995C165.667 344.025 165.652 344.235 165.622 344.625H159.517C159.627 345.125 159.887 345.52 160.297 345.81C160.707 346.1 161.217 346.245 161.827 346.245C162.247 346.245 162.617 346.185 162.937 346.065C163.267 345.935 163.572 345.735 163.852 345.465L165.097 346.815C164.337 347.685 163.227 348.12 161.767 348.12C160.857 348.12 160.052 347.945 159.352 347.595C158.652 347.235 158.112 346.74 157.732 346.11C157.352 345.48 157.162 344.765 157.162 343.965C157.162 343.175 157.347 342.465 157.717 341.835C158.097 341.195 158.612 340.7 159.262 340.35C159.922 339.99 160.657 339.81 161.467 339.81C162.257 339.81 162.972 339.98 163.612 340.32C164.252 340.66 164.752 341.15 165.112 341.79C165.482 342.42 165.667 343.155 165.667 343.995ZM161.482 341.58C160.952 341.58 160.507 341.73 160.147 342.03C159.787 342.33 159.567 342.74 159.487 343.26H163.462C163.382 342.75 163.162 342.345 162.802 342.045C162.442 341.735 162.002 341.58 161.482 341.58ZM177.56 339.81C178.57 339.81 179.37 340.11 179.96 340.71C180.56 341.3 180.86 342.19 180.86 343.38V348H178.52V343.74C178.52 343.1 178.385 342.625 178.115 342.315C177.855 341.995 177.48 341.835 176.99 341.835C176.44 341.835 176.005 342.015 175.685 342.375C175.365 342.725 175.205 343.25 175.205 343.95V348H172.865V343.74C172.865 342.47 172.355 341.835 171.335 341.835C170.795 341.835 170.365 342.015 170.045 342.375C169.725 342.725 169.565 343.25 169.565 343.95V348H167.225V339.93H169.46V340.86C169.76 340.52 170.125 340.26 170.555 340.08C170.995 339.9 171.475 339.81 171.995 339.81C172.565 339.81 173.08 339.925 173.54 340.155C174 340.375 174.37 340.7 174.65 341.13C174.98 340.71 175.395 340.385 175.895 340.155C176.405 339.925 176.96 339.81 177.56 339.81ZM190.95 343.995C190.95 344.025 190.935 344.235 190.905 344.625H184.8C184.91 345.125 185.17 345.52 185.58 345.81C185.99 346.1 186.5 346.245 187.11 346.245C187.53 346.245 187.9 346.185 188.22 346.065C188.55 345.935 188.855 345.735 189.135 345.465L190.38 346.815C189.62 347.685 188.51 348.12 187.05 348.12C186.14 348.12 185.335 347.945 184.635 347.595C183.935 347.235 183.395 346.74 183.015 346.11C182.635 345.48 182.445 344.765 182.445 343.965C182.445 343.175 182.63 342.465 183 341.835C183.38 341.195 183.895 340.7 184.545 340.35C185.205 339.99 185.94 339.81 186.75 339.81C187.54 339.81 188.255 339.98 188.895 340.32C189.535 340.66 190.035 341.15 190.395 341.79C190.765 342.42 190.95 343.155 190.95 343.995ZM186.765 341.58C186.235 341.58 185.79 341.73 185.43 342.03C185.07 342.33 184.85 342.74 184.77 343.26H188.745C188.665 342.75 188.445 342.345 188.085 342.045C187.725 341.735 187.285 341.58 186.765 341.58ZM197.413 339.81C198.413 339.81 199.218 340.11 199.828 340.71C200.448 341.31 200.758 342.2 200.758 343.38V348H198.418V343.74C198.418 343.1 198.278 342.625 197.998 342.315C197.718 341.995 197.313 341.835 196.783 341.835C196.193 341.835 195.723 342.02 195.373 342.39C195.023 342.75 194.848 343.29 194.848 344.01V348H192.508V339.93H194.743V340.875C195.053 340.535 195.438 340.275 195.898 340.095C196.358 339.905 196.863 339.81 197.413 339.81ZM208.084 347.61C207.854 347.78 207.569 347.91 207.229 348C206.899 348.08 206.549 348.12 206.179 348.12C205.219 348.12 204.474 347.875 203.944 347.385C203.424 346.895 203.164 346.175 203.164 345.225V341.91H201.919V340.11H203.164V338.145H205.504V340.11H207.514V341.91H205.504V345.195C205.504 345.535 205.589 345.8 205.759 345.99C205.939 346.17 206.189 346.26 206.509 346.26C206.879 346.26 207.194 346.16 207.454 345.96L208.084 347.61ZM216.9 339.81C218.15 339.81 219.11 340.11 219.78 340.71C220.45 341.3 220.785 342.195 220.785 343.395V348H218.595V346.995C218.155 347.745 217.335 348.12 216.135 348.12C215.515 348.12 214.975 348.015 214.515 347.805C214.065 347.595 213.72 347.305 213.48 346.935C213.24 346.565 213.12 346.145 213.12 345.675C213.12 344.925 213.4 344.335 213.96 343.905C214.53 343.475 215.405 343.26 216.585 343.26H218.445C218.445 342.75 218.29 342.36 217.98 342.09C217.67 341.81 217.205 341.67 216.585 341.67C216.155 341.67 215.73 341.74 215.31 341.88C214.9 342.01 214.55 342.19 214.26 342.42L213.42 340.785C213.86 340.475 214.385 340.235 214.995 340.065C215.615 339.895 216.25 339.81 216.9 339.81ZM216.72 346.545C217.12 346.545 217.475 346.455 217.785 346.275C218.095 346.085 218.315 345.81 218.445 345.45V344.625H216.84C215.88 344.625 215.4 344.94 215.4 345.57C215.4 345.87 215.515 346.11 215.745 346.29C215.985 346.46 216.31 346.545 216.72 346.545ZM226.891 348.12C226.031 348.12 225.256 347.945 224.566 347.595C223.886 347.235 223.351 346.74 222.961 346.11C222.581 345.48 222.391 344.765 222.391 343.965C222.391 343.165 222.581 342.45 222.961 341.82C223.351 341.19 223.886 340.7 224.566 340.35C225.256 339.99 226.031 339.81 226.891 339.81C227.741 339.81 228.481 339.99 229.111 340.35C229.751 340.7 230.216 341.205 230.506 341.865L228.691 342.84C228.271 342.1 227.666 341.73 226.876 341.73C226.266 341.73 225.761 341.93 225.361 342.33C224.961 342.73 224.761 343.275 224.761 343.965C224.761 344.655 224.961 345.2 225.361 345.6C225.761 346 226.266 346.2 226.876 346.2C227.676 346.2 228.281 345.83 228.691 345.09L230.506 346.08C230.216 346.72 229.751 347.22 229.111 347.58C228.481 347.94 227.741 348.12 226.891 348.12ZM237.176 347.61C236.946 347.78 236.661 347.91 236.321 348C235.991 348.08 235.641 348.12 235.271 348.12C234.311 348.12 233.566 347.875 233.036 347.385C232.516 346.895 232.256 346.175 232.256 345.225V341.91H231.011V340.11H232.256V338.145H234.596V340.11H236.606V341.91H234.596V345.195C234.596 345.535 234.681 345.8 234.851 345.99C235.031 346.17 235.281 346.26 235.601 346.26C235.971 346.26 236.286 346.16 236.546 345.96L237.176 347.61ZM238.489 339.93H240.829V348H238.489V339.93ZM239.659 338.805C239.229 338.805 238.879 338.68 238.609 338.43C238.339 338.18 238.204 337.87 238.204 337.5C238.204 337.13 238.339 336.82 238.609 336.57C238.879 336.32 239.229 336.195 239.659 336.195C240.089 336.195 240.439 336.315 240.709 336.555C240.979 336.795 241.114 337.095 241.114 337.455C241.114 337.845 240.979 338.17 240.709 338.43C240.439 338.68 240.089 338.805 239.659 338.805ZM251.011 339.93L247.606 348H245.191L241.801 339.93H244.216L246.451 345.42L248.761 339.93H251.011ZM251.966 339.93H254.306V348H251.966V339.93ZM253.136 338.805C252.706 338.805 252.356 338.68 252.086 338.43C251.816 338.18 251.681 337.87 251.681 337.5C251.681 337.13 251.816 336.82 252.086 336.57C252.356 336.32 252.706 336.195 253.136 336.195C253.566 336.195 253.916 336.315 254.186 336.555C254.456 336.795 254.591 337.095 254.591 337.455C254.591 337.845 254.456 338.17 254.186 338.43C253.916 338.68 253.566 338.805 253.136 338.805ZM261.682 347.61C261.452 347.78 261.167 347.91 260.827 348C260.497 348.08 260.147 348.12 259.777 348.12C258.817 348.12 258.072 347.875 257.542 347.385C257.022 346.895 256.762 346.175 256.762 345.225V341.91H255.517V340.11H256.762V338.145H259.102V340.11H261.112V341.91H259.102V345.195C259.102 345.535 259.187 345.8 259.357 345.99C259.537 346.17 259.787 346.26 260.107 346.26C260.477 346.26 260.792 346.16 261.052 345.96L261.682 347.61ZM262.996 339.93H265.336V348H262.996V339.93ZM264.166 338.805C263.736 338.805 263.386 338.68 263.116 338.43C262.846 338.18 262.711 337.87 262.711 337.5C262.711 337.13 262.846 336.82 263.116 336.57C263.386 336.32 263.736 336.195 264.166 336.195C264.596 336.195 264.946 336.315 265.216 336.555C265.486 336.795 265.621 337.095 265.621 337.455C265.621 337.845 265.486 338.17 265.216 338.43C264.946 338.68 264.596 338.805 264.166 338.805ZM275.413 343.995C275.413 344.025 275.398 344.235 275.368 344.625H269.263C269.373 345.125 269.633 345.52 270.043 345.81C270.453 346.1 270.963 346.245 271.573 346.245C271.993 346.245 272.363 346.185 272.683 346.065C273.013 345.935 273.318 345.735 273.598 345.465L274.843 346.815C274.083 347.685 272.973 348.12 271.513 348.12C270.603 348.12 269.798 347.945 269.098 347.595C268.398 347.235 267.858 346.74 267.478 346.11C267.098 345.48 266.908 344.765 266.908 343.965C266.908 343.175 267.093 342.465 267.463 341.835C267.843 341.195 268.358 340.7 269.008 340.35C269.668 339.99 270.403 339.81 271.213 339.81C272.003 339.81 272.718 339.98 273.358 340.32C273.998 340.66 274.498 341.15 274.858 341.79C275.228 342.42 275.413 343.155 275.413 343.995ZM271.228 341.58C270.698 341.58 270.253 341.73 269.893 342.03C269.533 342.33 269.313 342.74 269.233 343.26H273.208C273.128 342.75 272.908 342.345 272.548 342.045C272.188 341.735 271.748 341.58 271.228 341.58ZM279.686 348.12C279.016 348.12 278.361 348.04 277.721 347.88C277.081 347.71 276.571 347.5 276.191 347.25L276.971 345.57C277.331 345.8 277.766 345.99 278.276 346.14C278.786 346.28 279.286 346.35 279.776 346.35C280.766 346.35 281.261 346.105 281.261 345.615C281.261 345.385 281.126 345.22 280.856 345.12C280.586 345.02 280.171 344.935 279.611 344.865C278.951 344.765 278.406 344.65 277.976 344.52C277.546 344.39 277.171 344.16 276.851 343.83C276.541 343.5 276.386 343.03 276.386 342.42C276.386 341.91 276.531 341.46 276.821 341.07C277.121 340.67 277.551 340.36 278.111 340.14C278.681 339.92 279.351 339.81 280.121 339.81C280.691 339.81 281.256 339.875 281.816 340.005C282.386 340.125 282.856 340.295 283.226 340.515L282.446 342.18C281.736 341.78 280.961 341.58 280.121 341.58C279.621 341.58 279.246 341.65 278.996 341.79C278.746 341.93 278.621 342.11 278.621 342.33C278.621 342.58 278.756 342.755 279.026 342.855C279.296 342.955 279.726 343.05 280.316 343.14C280.976 343.25 281.516 343.37 281.936 343.5C282.356 343.62 282.721 343.845 283.031 344.175C283.341 344.505 283.496 344.965 283.496 345.555C283.496 346.055 283.346 346.5 283.046 346.89C282.746 347.28 282.306 347.585 281.726 347.805C281.156 348.015 280.476 348.12 279.686 348.12Z" fill="black"/>
</svg>
