<svg width="820" height="720" viewBox="0 0 820 720" fill="none" xmlns="http://www.w3.org/2000/svg"><g clip-path="url(#clip0)"><rect width="820" height="720" fill="white"/><rect y="576" width="185" height="144" fill="#3470B7" fill-opacity="0.8"/><rect width="185" height="144" fill="#002D62"/><rect y="288" width="185" height="144" fill="#1B58A0"/><rect y="432" width="185" height="144" fill="#3470B7"/><path d="M49.9976 68.3618C49.9976 68.8813 49.9121 69.3496 49.7412 69.7666C49.5771 70.1768 49.3481 70.5391 49.0542 70.8535C48.7671 71.1611 48.4253 71.4209 48.0288 71.6328C47.6392 71.8379 47.2153 71.9951 46.7573 72.1045V72.166C47.9673 72.3164 48.8833 72.6855 49.5054 73.2734C50.1274 73.8545 50.4385 74.6406 50.4385 75.6318C50.4385 76.2881 50.3188 76.8965 50.0796 77.457C49.8472 78.0107 49.4849 78.4927 48.9927 78.9028C48.5073 79.313 47.8921 79.6343 47.147 79.8667C46.4087 80.0923 45.5371 80.2051 44.5322 80.2051C43.7256 80.2051 42.9668 80.1367 42.2559 80C41.5449 79.8701 40.8818 79.6685 40.2666 79.395V76.6982C40.5742 76.8623 40.8989 77.0059 41.2407 77.1289C41.5825 77.252 41.9243 77.3579 42.2661 77.4468C42.6079 77.5288 42.9429 77.5903 43.271 77.6313C43.606 77.6724 43.9204 77.6929 44.2144 77.6929C44.8022 77.6929 45.291 77.6382 45.6807 77.5288C46.0703 77.4194 46.3813 77.2656 46.6138 77.0674C46.8462 76.8691 47.0103 76.6333 47.106 76.3599C47.2085 76.0796 47.2598 75.7754 47.2598 75.4473C47.2598 75.1396 47.1948 74.8628 47.0649 74.6167C46.9419 74.3638 46.7368 74.1519 46.4497 73.981C46.1694 73.8032 45.8003 73.6665 45.3423 73.5708C44.8843 73.4751 44.3203 73.4272 43.6504 73.4272H42.584V71.2021H43.6299C44.2588 71.2021 44.7817 71.1475 45.1987 71.0381C45.6157 70.9219 45.9473 70.7681 46.1934 70.5767C46.4463 70.3784 46.624 70.1494 46.7266 69.8896C46.8291 69.6299 46.8804 69.353 46.8804 69.0591C46.8804 68.5259 46.7129 68.1089 46.3779 67.8081C46.0498 67.5073 45.5269 67.3569 44.8091 67.3569C44.481 67.3569 44.1733 67.3911 43.8862 67.4595C43.606 67.521 43.3428 67.603 43.0967 67.7056C42.8574 67.8013 42.6353 67.9106 42.4302 68.0337C42.2319 68.1499 42.0508 68.2661 41.8867 68.3823L40.2871 66.27C40.5742 66.0581 40.8853 65.8633 41.2202 65.6855C41.562 65.5078 41.9312 65.354 42.3276 65.2241C42.7241 65.0874 43.1514 64.9814 43.6094 64.9062C44.0674 64.8311 44.5562 64.7935 45.0757 64.7935C45.814 64.7935 46.4839 64.8755 47.0854 65.0396C47.6938 65.1968 48.2134 65.4292 48.644 65.7368C49.0747 66.0376 49.4062 66.4102 49.6387 66.8545C49.8779 67.292 49.9976 67.7944 49.9976 68.3618ZM52.3354 75.0371V72.4736H57.8418V75.0371H52.3354ZM70.0645 76.8931H68.2598V80H65.1733V76.8931H58.98V74.6885L65.3477 65.0088H68.2598V74.4321H70.0645V76.8931ZM65.1733 74.4321V71.8892C65.1733 71.8003 65.1733 71.6738 65.1733 71.5098C65.1802 71.3389 65.187 71.1475 65.1938 70.9355C65.2007 70.7236 65.2075 70.5049 65.2144 70.2793C65.228 70.0537 65.2383 69.8384 65.2451 69.6333C65.2588 69.4282 65.269 69.2505 65.2759 69.1001C65.2896 68.9429 65.2998 68.8301 65.3066 68.7617H65.2144C65.0913 69.0488 64.9512 69.353 64.7939 69.6743C64.6436 69.9956 64.4692 70.3169 64.271 70.6382L61.769 74.4321H65.1733ZM92.4487 80H88.8291L86.7988 72.125C86.7236 71.8447 86.5938 71.2671 86.4092 70.3921C86.2314 69.5103 86.1289 68.9189 86.1016 68.6182C86.0605 68.9873 85.958 69.582 85.7939 70.4023C85.6299 71.2158 85.5034 71.7969 85.4146 72.1455L83.3945 80H79.7852L75.9604 65.0088H79.0879L81.0054 73.1914C81.3403 74.7021 81.583 76.0112 81.7334 77.1187C81.7744 76.729 81.8667 76.1274 82.0103 75.314C82.1606 74.4937 82.3008 73.8579 82.4307 73.4067L84.6147 65.0088H87.6191L89.8032 73.4067C89.8989 73.7827 90.0186 74.3569 90.1621 75.1294C90.3057 75.9019 90.415 76.5649 90.4902 77.1187C90.5586 76.5854 90.668 75.9224 90.8184 75.1294C90.9688 74.3296 91.1055 73.6836 91.2285 73.1914L93.1357 65.0088H96.2632L92.4487 80ZM106.784 80H98.1499V65.0088H106.784V67.6133H101.329V70.9048H106.404V73.5093H101.329V77.375H106.784V80ZM118.555 80H109.921V65.0088H118.555V67.6133H113.1V70.9048H118.176V73.5093H113.1V77.375H118.555V80ZM133.751 80H130.142L126.215 73.6836L124.872 74.6475V80H121.693V65.0088H124.872V71.8687L126.123 70.105L130.183 65.0088H133.71L128.481 71.6431L133.751 80ZM144.487 75.8369C144.487 77.1904 143.999 78.2568 143.021 79.0361C142.05 79.8154 140.697 80.2051 138.96 80.2051C137.361 80.2051 135.946 79.9043 134.715 79.3027V76.3496C135.727 76.8008 136.582 77.1187 137.279 77.3032C137.983 77.4878 138.625 77.5801 139.207 77.5801C139.904 77.5801 140.437 77.4468 140.806 77.1802C141.182 76.9136 141.37 76.5171 141.37 75.9907C141.37 75.6968 141.288 75.437 141.124 75.2114C140.96 74.979 140.717 74.7568 140.396 74.5449C140.082 74.333 139.436 73.9946 138.458 73.5298C137.542 73.0991 136.855 72.6855 136.397 72.2891C135.939 71.8926 135.573 71.4312 135.3 70.9048C135.026 70.3784 134.89 69.7632 134.89 69.0591C134.89 67.7329 135.337 66.6904 136.233 65.9316C137.135 65.1729 138.379 64.7935 139.965 64.7935C140.745 64.7935 141.486 64.8857 142.19 65.0703C142.901 65.2549 143.643 65.5146 144.416 65.8496L143.39 68.3208C142.59 67.9927 141.927 67.7637 141.401 67.6338C140.881 67.5039 140.369 67.439 139.863 67.439C139.261 67.439 138.8 67.5791 138.479 67.8594C138.157 68.1396 137.997 68.5054 137.997 68.9565C137.997 69.2368 138.062 69.4829 138.191 69.6948C138.321 69.8999 138.526 70.1016 138.807 70.2998C139.094 70.4912 139.767 70.8398 140.827 71.3457C142.228 72.0156 143.188 72.689 143.708 73.3657C144.228 74.0356 144.487 74.8594 144.487 75.8369Z" fill="white"/><path d="M28.813 368H25.6445V359.325C25.6445 359.147 25.6445 358.936 25.6445 358.689C25.6514 358.437 25.6582 358.177 25.665 357.91C25.6787 357.637 25.689 357.363 25.6958 357.09C25.7095 356.816 25.7197 356.567 25.7266 356.341C25.6924 356.382 25.6343 356.444 25.5522 356.526C25.4702 356.608 25.3779 356.7 25.2754 356.803C25.1729 356.898 25.0669 356.998 24.9575 357.1C24.8481 357.203 24.7422 357.295 24.6396 357.377L22.917 358.761L21.3789 356.854L26.2085 353.009H28.813V368ZM33.0889 363.037V360.474H38.5952V363.037H33.0889ZM48.0698 368H44.9014V359.325C44.9014 359.147 44.9014 358.936 44.9014 358.689C44.9082 358.437 44.915 358.177 44.9219 357.91C44.9355 357.637 44.9458 357.363 44.9526 357.09C44.9663 356.816 44.9766 356.567 44.9834 356.341C44.9492 356.382 44.8911 356.444 44.8091 356.526C44.7271 356.608 44.6348 356.7 44.5322 356.803C44.4297 356.898 44.3237 356.998 44.2144 357.1C44.105 357.203 43.999 357.295 43.8965 357.377L42.1738 358.761L40.6357 356.854L45.4653 353.009H48.0698V368ZM65.0913 368H61.9229V359.325C61.9229 359.147 61.9229 358.936 61.9229 358.689C61.9297 358.437 61.9365 358.177 61.9434 357.91C61.957 357.637 61.9673 357.363 61.9741 357.09C61.9878 356.816 61.998 356.567 62.0049 356.341C61.9707 356.382 61.9126 356.444 61.8306 356.526C61.7485 356.608 61.6562 356.7 61.5537 356.803C61.4512 356.898 61.3452 356.998 61.2358 357.1C61.1265 357.203 61.0205 357.295 60.918 357.377L59.1953 358.761L57.6572 356.854L62.4868 353.009H65.0913V368ZM77.4473 350.517L71.7051 371.476H69.0186L74.7607 350.517H77.4473ZM89.0854 368H79.0264V365.795L82.5537 361.991C82.998 361.513 83.4014 361.072 83.7637 360.668C84.126 360.265 84.437 359.872 84.6968 359.489C84.9565 359.106 85.1582 358.717 85.3018 358.32C85.4453 357.924 85.5171 357.497 85.5171 357.039C85.5171 356.533 85.3633 356.14 85.0557 355.859C84.7549 355.579 84.3481 355.439 83.8354 355.439C83.2954 355.439 82.7759 355.572 82.2769 355.839C81.7778 356.105 81.2549 356.485 80.708 356.977L78.9854 354.937C79.293 354.656 79.6143 354.39 79.9492 354.137C80.2842 353.877 80.6533 353.648 81.0566 353.45C81.46 353.251 81.9043 353.094 82.3896 352.978C82.875 352.855 83.4185 352.793 84.02 352.793C84.7378 352.793 85.3804 352.893 85.9478 353.091C86.522 353.289 87.0107 353.573 87.4141 353.942C87.8174 354.304 88.125 354.745 88.3369 355.265C88.5557 355.784 88.665 356.369 88.665 357.018C88.665 357.606 88.5625 358.17 88.3574 358.71C88.1523 359.243 87.8721 359.77 87.5166 360.289C87.1611 360.802 86.7476 361.314 86.2759 361.827C85.811 362.333 85.312 362.849 84.7788 363.375L82.9741 365.19V365.334H89.0854V368ZM111.695 368H108.076L106.045 360.125C105.97 359.845 105.84 359.267 105.656 358.392C105.478 357.51 105.375 356.919 105.348 356.618C105.307 356.987 105.205 357.582 105.041 358.402C104.876 359.216 104.75 359.797 104.661 360.146L102.641 368H99.0317L95.207 353.009H98.3345L100.252 361.191C100.587 362.702 100.83 364.011 100.98 365.119C101.021 364.729 101.113 364.127 101.257 363.314C101.407 362.494 101.547 361.858 101.677 361.407L103.861 353.009H106.866L109.05 361.407C109.146 361.783 109.265 362.357 109.409 363.129C109.552 363.902 109.662 364.565 109.737 365.119C109.805 364.585 109.915 363.922 110.065 363.129C110.215 362.33 110.352 361.684 110.475 361.191L112.382 353.009H115.51L111.695 368ZM126.03 368H117.396V353.009H126.03V355.613H120.575V358.905H125.651V361.509H120.575V365.375H126.03V368ZM137.802 368H129.168V353.009H137.802V355.613H132.347V358.905H137.422V361.509H132.347V365.375H137.802V368ZM152.998 368H149.389L145.461 361.684L144.118 362.647V368H140.939V353.009H144.118V359.869L145.369 358.105L149.43 353.009H152.957L147.728 359.643L152.998 368ZM163.734 363.837C163.734 365.19 163.245 366.257 162.268 367.036C161.297 367.815 159.943 368.205 158.207 368.205C156.607 368.205 155.192 367.904 153.962 367.303V364.35C154.974 364.801 155.828 365.119 156.525 365.303C157.229 365.488 157.872 365.58 158.453 365.58C159.15 365.58 159.684 365.447 160.053 365.18C160.429 364.914 160.617 364.517 160.617 363.991C160.617 363.697 160.535 363.437 160.371 363.211C160.207 362.979 159.964 362.757 159.643 362.545C159.328 362.333 158.682 361.995 157.705 361.53C156.789 361.099 156.102 360.686 155.644 360.289C155.186 359.893 154.82 359.431 154.546 358.905C154.273 358.378 154.136 357.763 154.136 357.059C154.136 355.733 154.584 354.69 155.479 353.932C156.382 353.173 157.626 352.793 159.212 352.793C159.991 352.793 160.733 352.886 161.437 353.07C162.148 353.255 162.89 353.515 163.662 353.85L162.637 356.321C161.837 355.993 161.174 355.764 160.647 355.634C160.128 355.504 159.615 355.439 159.109 355.439C158.508 355.439 158.046 355.579 157.725 355.859C157.404 356.14 157.243 356.505 157.243 356.957C157.243 357.237 157.308 357.483 157.438 357.695C157.568 357.9 157.773 358.102 158.053 358.3C158.34 358.491 159.014 358.84 160.073 359.346C161.475 360.016 162.435 360.689 162.955 361.366C163.474 362.036 163.734 362.859 163.734 363.837Z" fill="white"/><path d="M63.4712 512H60.3027V503.325C60.3027 503.147 60.3027 502.936 60.3027 502.689C60.3096 502.437 60.3164 502.177 60.3232 501.91C60.3369 501.637 60.3472 501.363 60.354 501.09C60.3677 500.816 60.3779 500.567 60.3848 500.341C60.3506 500.382 60.2925 500.444 60.2104 500.526C60.1284 500.608 60.0361 500.7 59.9336 500.803C59.8311 500.898 59.7251 500.998 59.6157 501.1C59.5063 501.203 59.4004 501.295 59.2979 501.377L57.5752 502.761L56.0371 500.854L60.8667 497.009H63.4712V512ZM88.6035 512H84.9839L82.9536 504.125C82.8784 503.845 82.7485 503.267 82.564 502.392C82.3862 501.51 82.2837 500.919 82.2563 500.618C82.2153 500.987 82.1128 501.582 81.9487 502.402C81.7847 503.216 81.6582 503.797 81.5693 504.146L79.5493 512H75.9399L72.1152 497.009H75.2427L77.1602 505.191C77.4951 506.702 77.7378 508.011 77.8882 509.119C77.9292 508.729 78.0215 508.127 78.165 507.314C78.3154 506.494 78.4556 505.858 78.5854 505.407L80.7695 497.009H83.7739L85.958 505.407C86.0537 505.783 86.1733 506.357 86.3169 507.129C86.4604 507.902 86.5698 508.565 86.645 509.119C86.7134 508.585 86.8228 507.922 86.9731 507.129C87.1235 506.33 87.2603 505.684 87.3833 505.191L89.2905 497.009H92.418L88.6035 512ZM102.938 512H94.3047V497.009H102.938V499.613H97.4834V502.905H102.559V505.509H97.4834V509.375H102.938V512ZM114.71 512H106.076V497.009H114.71V499.613H109.255V502.905H114.331V505.509H109.255V509.375H114.71V512ZM129.906 512H126.297L122.37 505.684L121.026 506.647V512H117.848V497.009H121.026V503.869L122.277 502.105L126.338 497.009H129.865L124.636 503.643L129.906 512Z" fill="white"/><path d="M185 0L221.248 26.8475L258 0V117.153L221.248 144L185 117.153V0Z" fill="#F2F2F2"/><path d="M63.4712 656H60.3027V647.325C60.3027 647.147 60.3027 646.936 60.3027 646.689C60.3096 646.437 60.3164 646.177 60.3232 645.91C60.3369 645.637 60.3472 645.363 60.354 645.09C60.3677 644.816 60.3779 644.567 60.3848 644.341C60.3506 644.382 60.2925 644.444 60.2104 644.526C60.1284 644.608 60.0361 644.7 59.9336 644.803C59.8311 644.898 59.7251 644.998 59.6157 645.1C59.5063 645.203 59.4004 645.295 59.2979 645.377L57.5752 646.761L56.0371 644.854L60.8667 641.009H63.4712V656ZM88.6035 656H84.9839L82.9536 648.125C82.8784 647.845 82.7485 647.267 82.564 646.392C82.3862 645.51 82.2837 644.919 82.2563 644.618C82.2153 644.987 82.1128 645.582 81.9487 646.402C81.7847 647.216 81.6582 647.797 81.5693 648.146L79.5493 656H75.9399L72.1152 641.009H75.2427L77.1602 649.191C77.4951 650.702 77.7378 652.011 77.8882 653.119C77.9292 652.729 78.0215 652.127 78.165 651.314C78.3154 650.494 78.4556 649.858 78.5854 649.407L80.7695 641.009H83.7739L85.958 649.407C86.0537 649.783 86.1733 650.357 86.3169 651.129C86.4604 651.902 86.5698 652.565 86.645 653.119C86.7134 652.585 86.8228 651.922 86.9731 651.129C87.1235 650.33 87.2603 649.684 87.3833 649.191L89.2905 641.009H92.418L88.6035 656ZM102.938 656H94.3047V641.009H102.938V643.613H97.4834V646.905H102.559V649.509H97.4834V653.375H102.938V656ZM114.71 656H106.076V641.009H114.71V643.613H109.255V646.905H114.331V649.509H109.255V653.375H114.71V656ZM129.906 656H126.297L122.37 649.684L121.026 650.647V656H117.848V641.009H121.026V647.869L122.277 646.105L126.338 641.009H129.865L124.636 647.643L129.906 656Z" fill="white"/><path d="M185 144L221.248 170.847L258 144V261.153L221.248 288L185 261.153V144Z" fill="#F2F2F2"/><path d="M185 288L221.248 314.847L258 288V405.153L221.248 432L185 405.153V288Z" fill="#F2F2F2"/><path d="M185 576L221.248 602.847L258 576V693.153L221.248 720L185 693.153V576Z" fill="#F2F2F2"/><path d="M185 432L221.248 458.847L258 432V549.153L221.248 576L185 549.153V432Z" fill="#F2F2F2"/><path d="M224.094 80H220.926V71.3252C220.926 71.1475 220.926 70.9355 220.926 70.6895C220.933 70.4365 220.939 70.1768 220.946 69.9102C220.96 69.6367 220.97 69.3633 220.977 69.0898C220.991 68.8164 221.001 68.5669 221.008 68.3413C220.974 68.3823 220.916 68.4438 220.833 68.5259C220.751 68.6079 220.659 68.7002 220.557 68.8027C220.454 68.8984 220.348 68.9976 220.239 69.1001C220.129 69.2026 220.023 69.2949 219.921 69.377L218.198 70.7612L216.66 68.854L221.49 65.0088H224.094V80Z" fill="black"/><path d="M226.617 224H216.558V221.795L220.085 217.991C220.529 217.513 220.933 217.072 221.295 216.668C221.657 216.265 221.968 215.872 222.228 215.489C222.488 215.106 222.689 214.717 222.833 214.32C222.977 213.924 223.048 213.497 223.048 213.039C223.048 212.533 222.895 212.14 222.587 211.859C222.286 211.579 221.879 211.439 221.367 211.439C220.827 211.439 220.307 211.572 219.808 211.839C219.309 212.105 218.786 212.485 218.239 212.977L216.517 210.937C216.824 210.656 217.146 210.39 217.48 210.137C217.815 209.877 218.185 209.648 218.588 209.45C218.991 209.251 219.436 209.094 219.921 208.978C220.406 208.855 220.95 208.793 221.551 208.793C222.269 208.793 222.912 208.893 223.479 209.091C224.053 209.289 224.542 209.573 224.945 209.942C225.349 210.304 225.656 210.745 225.868 211.265C226.087 211.784 226.196 212.369 226.196 213.018C226.196 213.606 226.094 214.17 225.889 214.71C225.684 215.243 225.403 215.77 225.048 216.289C224.692 216.802 224.279 217.314 223.807 217.827C223.342 218.333 222.843 218.849 222.31 219.375L220.505 221.19V221.334H226.617V224Z" fill="black"/><path d="M226.032 356.362C226.032 356.881 225.947 357.35 225.776 357.767C225.612 358.177 225.383 358.539 225.089 358.854C224.802 359.161 224.46 359.421 224.063 359.633C223.674 359.838 223.25 359.995 222.792 360.104V360.166C224.002 360.316 224.918 360.686 225.54 361.273C226.162 361.854 226.473 362.641 226.473 363.632C226.473 364.288 226.354 364.896 226.114 365.457C225.882 366.011 225.52 366.493 225.027 366.903C224.542 367.313 223.927 367.634 223.182 367.867C222.443 368.092 221.572 368.205 220.567 368.205C219.76 368.205 219.001 368.137 218.291 368C217.58 367.87 216.917 367.668 216.301 367.395V364.698C216.609 364.862 216.934 365.006 217.275 365.129C217.617 365.252 217.959 365.358 218.301 365.447C218.643 365.529 218.978 365.59 219.306 365.631C219.641 365.672 219.955 365.693 220.249 365.693C220.837 365.693 221.326 365.638 221.715 365.529C222.105 365.419 222.416 365.266 222.648 365.067C222.881 364.869 223.045 364.633 223.141 364.36C223.243 364.08 223.294 363.775 223.294 363.447C223.294 363.14 223.229 362.863 223.1 362.617C222.977 362.364 222.771 362.152 222.484 361.981C222.204 361.803 221.835 361.667 221.377 361.571C220.919 361.475 220.355 361.427 219.685 361.427H218.619V359.202H219.665C220.293 359.202 220.816 359.147 221.233 359.038C221.65 358.922 221.982 358.768 222.228 358.577C222.481 358.378 222.659 358.149 222.761 357.89C222.864 357.63 222.915 357.353 222.915 357.059C222.915 356.526 222.748 356.109 222.413 355.808C222.084 355.507 221.562 355.357 220.844 355.357C220.516 355.357 220.208 355.391 219.921 355.459C219.641 355.521 219.377 355.603 219.131 355.706C218.892 355.801 218.67 355.911 218.465 356.034C218.267 356.15 218.085 356.266 217.921 356.382L216.322 354.27C216.609 354.058 216.92 353.863 217.255 353.686C217.597 353.508 217.966 353.354 218.362 353.224C218.759 353.087 219.186 352.981 219.644 352.906C220.102 352.831 220.591 352.793 221.11 352.793C221.849 352.793 222.519 352.875 223.12 353.04C223.729 353.197 224.248 353.429 224.679 353.737C225.109 354.038 225.441 354.41 225.673 354.854C225.913 355.292 226.032 355.794 226.032 356.362Z" fill="black"/><path d="M226.842 508.893H225.038V512H221.951V508.893H215.758V506.688L222.125 497.009H225.038V506.432H226.842V508.893ZM221.951 506.432V503.889C221.951 503.8 221.951 503.674 221.951 503.51C221.958 503.339 221.965 503.147 221.972 502.936C221.979 502.724 221.985 502.505 221.992 502.279C222.006 502.054 222.016 501.838 222.023 501.633C222.037 501.428 222.047 501.25 222.054 501.1C222.067 500.943 222.078 500.83 222.084 500.762H221.992C221.869 501.049 221.729 501.353 221.572 501.674C221.421 501.996 221.247 502.317 221.049 502.638L218.547 506.432H221.951Z" fill="black"/><path d="M221.849 646.423C222.491 646.423 223.089 646.522 223.643 646.72C224.197 646.918 224.679 647.209 225.089 647.592C225.499 647.975 225.82 648.453 226.053 649.027C226.285 649.595 226.401 650.248 226.401 650.986C226.401 651.799 226.275 652.531 226.022 653.18C225.769 653.823 225.396 654.37 224.904 654.821C224.412 655.265 223.8 655.607 223.069 655.846C222.344 656.085 221.51 656.205 220.567 656.205C220.191 656.205 219.818 656.188 219.449 656.154C219.08 656.12 218.725 656.068 218.383 656C218.048 655.938 217.727 655.856 217.419 655.754C217.118 655.651 216.845 655.532 216.599 655.395V652.657C216.838 652.794 217.115 652.924 217.429 653.047C217.744 653.163 218.068 653.266 218.403 653.354C218.745 653.437 219.087 653.505 219.429 653.56C219.771 653.607 220.095 653.631 220.403 653.631C221.319 653.631 222.016 653.443 222.495 653.067C222.973 652.685 223.212 652.08 223.212 651.252C223.212 650.514 222.977 649.954 222.505 649.571C222.04 649.181 221.319 648.986 220.341 648.986C220.164 648.986 219.972 648.997 219.767 649.017C219.569 649.038 219.371 649.065 219.172 649.099C218.981 649.133 218.796 649.171 218.619 649.212C218.441 649.246 218.287 649.284 218.157 649.325L216.896 648.648L217.46 641.009H225.376V643.695H220.208L219.962 646.638C220.181 646.59 220.434 646.542 220.721 646.495C221.015 646.447 221.391 646.423 221.849 646.423Z" fill="black"/><rect x="258" width="562" height="144" fill="#002D62"/><rect x="258" y="144" width="562" height="144" fill="#002D62" fill-opacity="0.8"/><rect y="144" width="185" height="144" fill="#002D62" fill-opacity="0.8"/><rect x="258" y="432" width="562" height="144" fill="#3470B7"/><rect x="258" y="576" width="562" height="144" fill="#3470B7" fill-opacity="0.8"/><rect x="258" y="288" width="562" height="144" fill="#1B58A0"/><path d="M493.974 80L492.887 76.4316H487.421L486.334 80H482.91L488.201 64.9473H492.087L497.398 80H493.974ZM492.128 73.7656C491.123 70.5322 490.556 68.7036 490.426 68.2798C490.303 67.856 490.214 67.521 490.159 67.2749C489.934 68.1499 489.288 70.3135 488.221 73.7656H492.128ZM502.679 80.2051C501.333 80.2051 500.273 79.6821 499.5 78.6362C498.735 77.5903 498.352 76.1411 498.352 74.2886C498.352 72.4087 498.742 70.9458 499.521 69.8999C500.307 68.8472 501.387 68.3208 502.761 68.3208C504.204 68.3208 505.304 68.8813 506.063 70.0024H506.166C506.008 69.1479 505.93 68.3857 505.93 67.7158V64.0449H509.067V80H506.668L506.063 78.5132H505.93C505.219 79.6411 504.135 80.2051 502.679 80.2051ZM503.776 77.7134C504.576 77.7134 505.161 77.481 505.53 77.0161C505.906 76.5513 506.111 75.7617 506.145 74.6475V74.3091C506.145 73.0786 505.954 72.1968 505.571 71.6636C505.195 71.1304 504.58 70.8638 503.725 70.8638C503.028 70.8638 502.484 71.1611 502.095 71.7559C501.712 72.3438 501.521 73.2017 501.521 74.3296C501.521 75.4575 501.715 76.3052 502.105 76.8726C502.495 77.4331 503.052 77.7134 503.776 77.7134ZM515.066 80L510.698 68.5361H513.969L516.184 75.0679C516.409 75.7788 516.556 76.5615 516.625 77.416H516.707C516.748 76.6436 516.901 75.8608 517.168 75.0679L519.373 68.5361H522.644L518.275 80H515.066ZM529.042 70.5459C528.379 70.5459 527.859 70.7578 527.483 71.1816C527.107 71.5986 526.892 72.1934 526.837 72.9658H531.226C531.212 72.1934 531.011 71.5986 530.621 71.1816C530.231 70.7578 529.705 70.5459 529.042 70.5459ZM529.483 80.2051C527.637 80.2051 526.195 79.6958 525.156 78.6772C524.117 77.6587 523.597 76.2163 523.597 74.3501C523.597 72.4292 524.076 70.9458 525.033 69.8999C525.997 68.8472 527.326 68.3208 529.021 68.3208C530.642 68.3208 531.903 68.7822 532.805 69.7051C533.708 70.6279 534.159 71.9028 534.159 73.5298V75.0474H526.766C526.8 75.936 527.063 76.6299 527.555 77.1289C528.047 77.6279 528.738 77.8774 529.626 77.8774C530.317 77.8774 530.97 77.8057 531.585 77.6621C532.2 77.5186 532.843 77.2896 533.513 76.9751V79.395C532.966 79.6685 532.381 79.8701 531.759 80C531.137 80.1367 530.378 80.2051 529.483 80.2051ZM543.1 68.3208C543.524 68.3208 543.876 68.3516 544.156 68.4131L543.92 71.3457C543.667 71.2773 543.36 71.2432 542.998 71.2432C542 71.2432 541.22 71.4995 540.66 72.0122C540.106 72.5249 539.829 73.2427 539.829 74.1655V80H536.702V68.5361H539.07L539.532 70.4639H539.686C540.041 69.8213 540.52 69.3052 541.121 68.9155C541.729 68.519 542.389 68.3208 543.1 68.3208ZM551.067 77.7134C551.614 77.7134 552.271 77.5938 553.036 77.3545V79.6821C552.257 80.0308 551.3 80.2051 550.165 80.2051C548.914 80.2051 548.001 79.8906 547.427 79.2617C546.86 78.626 546.576 77.6758 546.576 76.4111V70.8843H545.079V69.5615L546.802 68.5156L547.704 66.0957H549.704V68.5361H552.913V70.8843H549.704V76.4111C549.704 76.8555 549.827 77.1836 550.073 77.3955C550.326 77.6074 550.657 77.7134 551.067 77.7134ZM555.23 65.5728C555.23 64.5542 555.798 64.0449 556.933 64.0449C558.067 64.0449 558.635 64.5542 558.635 65.5728C558.635 66.0581 558.491 66.4375 558.204 66.7109C557.924 66.9775 557.5 67.1108 556.933 67.1108C555.798 67.1108 555.23 66.5981 555.23 65.5728ZM558.491 80H555.364V68.5361H558.491V80ZM569.781 76.5957C569.781 77.7715 569.371 78.667 568.55 79.2822C567.737 79.8975 566.517 80.2051 564.89 80.2051C564.056 80.2051 563.345 80.147 562.757 80.0308C562.169 79.9214 561.619 79.7573 561.106 79.5386V76.9546C561.687 77.228 562.34 77.457 563.064 77.6416C563.796 77.8262 564.438 77.9185 564.992 77.9185C566.127 77.9185 566.694 77.5903 566.694 76.9341C566.694 76.688 566.619 76.4897 566.469 76.3394C566.318 76.1821 566.059 76.0078 565.689 75.8164C565.32 75.6182 564.828 75.3892 564.213 75.1294C563.331 74.7603 562.682 74.4185 562.265 74.104C561.854 73.7896 561.554 73.4307 561.362 73.0273C561.178 72.6172 561.085 72.1147 561.085 71.52C561.085 70.5015 561.479 69.7153 562.265 69.1616C563.058 68.6011 564.179 68.3208 565.628 68.3208C567.009 68.3208 568.352 68.6216 569.658 69.2231L568.714 71.479C568.14 71.2329 567.604 71.0312 567.104 70.874C566.605 70.7168 566.096 70.6382 565.577 70.6382C564.654 70.6382 564.192 70.8877 564.192 71.3867C564.192 71.667 564.339 71.9097 564.633 72.1147C564.934 72.3198 565.587 72.624 566.592 73.0273C567.487 73.3896 568.144 73.728 568.561 74.0425C568.978 74.3569 569.285 74.7192 569.483 75.1294C569.682 75.5396 569.781 76.0283 569.781 76.5957ZM572.088 65.5728C572.088 64.5542 572.655 64.0449 573.79 64.0449C574.925 64.0449 575.492 64.5542 575.492 65.5728C575.492 66.0581 575.349 66.4375 575.062 66.7109C574.781 66.9775 574.357 67.1108 573.79 67.1108C572.655 67.1108 572.088 66.5981 572.088 65.5728ZM575.349 80H572.221V68.5361H575.349V80ZM589.222 80H586.095V73.3042C586.095 72.4771 585.948 71.8584 585.654 71.4482C585.36 71.0312 584.892 70.8228 584.249 70.8228C583.374 70.8228 582.742 71.1167 582.352 71.7046C581.962 72.2856 581.768 73.2529 581.768 74.6064V80H578.64V68.5361H581.029L581.45 70.0024H581.624C581.973 69.4487 582.451 69.0317 583.06 68.7515C583.675 68.4644 584.372 68.3208 585.151 68.3208C586.484 68.3208 587.496 68.6831 588.187 69.4077C588.877 70.1255 589.222 71.1646 589.222 72.5249V80ZM597.189 77.7544C598.03 77.7544 598.632 77.5151 598.994 77.0366C599.356 76.5513 599.538 75.7686 599.538 74.6885V74.3091C599.538 73.0854 599.346 72.207 598.963 71.6738C598.587 71.1338 597.979 70.8638 597.138 70.8638C595.668 70.8638 594.934 72.019 594.934 74.3296C594.934 75.478 595.115 76.3359 595.477 76.9033C595.846 77.4707 596.417 77.7544 597.189 77.7544ZM602.46 80.0205C602.46 81.668 601.978 82.9155 601.014 83.7632C600.057 84.6177 598.628 85.0449 596.728 85.0449C595.053 85.0449 593.625 84.8193 592.442 84.3682V81.8662C593.83 82.4541 595.32 82.748 596.913 82.748C598.519 82.748 599.322 81.8799 599.322 80.1436V79.918L599.415 78.5132H599.322C598.591 79.6411 597.507 80.2051 596.072 80.2051C594.698 80.2051 593.631 79.6753 592.873 78.6157C592.121 77.5562 591.745 76.1138 591.745 74.2886C591.745 72.4087 592.134 70.9458 592.914 69.8999C593.7 68.8472 594.78 68.3208 596.154 68.3208C597.562 68.3208 598.669 68.8813 599.476 70.0024H599.558L599.814 68.5361H602.46V80.0205Z" fill="white"/><path d="M440.602 215.664H441.627C442.632 215.664 443.374 215.496 443.853 215.161C444.331 214.826 444.57 214.3 444.57 213.582C444.57 212.871 444.324 212.365 443.832 212.064C443.347 211.764 442.591 211.613 441.566 211.613H440.602V215.664ZM440.602 218.248V224H437.423V209.009H441.792C443.829 209.009 445.336 209.381 446.313 210.126C447.291 210.865 447.78 211.989 447.78 213.5C447.78 214.382 447.537 215.168 447.052 215.858C446.566 216.542 445.879 217.079 444.991 217.468L449.4 224H445.873L442.294 218.248H440.602ZM455.788 214.546C455.125 214.546 454.605 214.758 454.229 215.182C453.854 215.599 453.638 216.193 453.583 216.966H457.972C457.958 216.193 457.757 215.599 457.367 215.182C456.978 214.758 456.451 214.546 455.788 214.546ZM456.229 224.205C454.383 224.205 452.941 223.696 451.902 222.677C450.863 221.659 450.343 220.216 450.343 218.35C450.343 216.429 450.822 214.946 451.779 213.9C452.743 212.847 454.072 212.321 455.768 212.321C457.388 212.321 458.649 212.782 459.551 213.705C460.454 214.628 460.905 215.903 460.905 217.53V219.047H453.512C453.546 219.936 453.809 220.63 454.301 221.129C454.793 221.628 455.484 221.877 456.373 221.877C457.063 221.877 457.716 221.806 458.331 221.662C458.946 221.519 459.589 221.29 460.259 220.975V223.395C459.712 223.668 459.127 223.87 458.505 224C457.883 224.137 457.125 224.205 456.229 224.205ZM468.103 224.205C464.535 224.205 462.75 222.247 462.75 218.33C462.75 216.381 463.236 214.895 464.207 213.869C465.177 212.837 466.568 212.321 468.38 212.321C469.706 212.321 470.896 212.581 471.948 213.1L471.025 215.52C470.533 215.322 470.075 215.161 469.651 215.038C469.228 214.908 468.804 214.843 468.38 214.843C466.753 214.843 465.939 215.999 465.939 218.309C465.939 220.551 466.753 221.672 468.38 221.672C468.981 221.672 469.539 221.594 470.051 221.437C470.564 221.272 471.077 221.02 471.589 220.678V223.354C471.083 223.675 470.571 223.897 470.051 224.021C469.539 224.144 468.889 224.205 468.103 224.205ZM479.003 214.546C478.34 214.546 477.82 214.758 477.444 215.182C477.068 215.599 476.853 216.193 476.798 216.966H481.187C481.173 216.193 480.972 215.599 480.582 215.182C480.192 214.758 479.666 214.546 479.003 214.546ZM479.444 224.205C477.598 224.205 476.156 223.696 475.117 222.677C474.078 221.659 473.558 220.216 473.558 218.35C473.558 216.429 474.037 214.946 474.994 213.9C475.958 212.847 477.287 212.321 478.982 212.321C480.603 212.321 481.864 212.782 482.766 213.705C483.668 214.628 484.12 215.903 484.12 217.53V219.047H476.727C476.761 219.936 477.024 220.63 477.516 221.129C478.008 221.628 478.699 221.877 479.587 221.877C480.278 221.877 480.931 221.806 481.546 221.662C482.161 221.519 482.804 221.29 483.474 220.975V223.395C482.927 223.668 482.342 223.87 481.72 224C481.098 224.137 480.339 224.205 479.444 224.205ZM486.529 209.573C486.529 208.554 487.097 208.045 488.231 208.045C489.366 208.045 489.934 208.554 489.934 209.573C489.934 210.058 489.79 210.438 489.503 210.711C489.223 210.978 488.799 211.111 488.231 211.111C487.097 211.111 486.529 210.598 486.529 209.573ZM489.79 224H486.663V212.536H489.79V224ZM495.809 224L491.441 212.536H494.712L496.927 219.068C497.152 219.779 497.299 220.562 497.368 221.416H497.45C497.491 220.644 497.645 219.861 497.911 219.068L500.116 212.536H503.387L499.019 224H495.809ZM509.785 214.546C509.122 214.546 508.603 214.758 508.227 215.182C507.851 215.599 507.635 216.193 507.581 216.966H511.969C511.956 216.193 511.754 215.599 511.364 215.182C510.975 214.758 510.448 214.546 509.785 214.546ZM510.226 224.205C508.38 224.205 506.938 223.696 505.899 222.677C504.86 221.659 504.34 220.216 504.34 218.35C504.34 216.429 504.819 214.946 505.776 213.9C506.74 212.847 508.069 212.321 509.765 212.321C511.385 212.321 512.646 212.782 513.548 213.705C514.451 214.628 514.902 215.903 514.902 217.53V219.047H507.509C507.543 219.936 507.806 220.63 508.298 221.129C508.791 221.628 509.481 221.877 510.37 221.877C511.06 221.877 511.713 221.806 512.328 221.662C512.943 221.519 513.586 221.29 514.256 220.975V223.395C513.709 223.668 513.125 223.87 512.502 224C511.88 224.137 511.122 224.205 510.226 224.205ZM532.323 224L531.236 220.432H525.771L524.684 224H521.259L526.55 208.947H530.437L535.748 224H532.323ZM530.478 217.766C529.473 214.532 528.905 212.704 528.775 212.28C528.652 211.856 528.563 211.521 528.509 211.275C528.283 212.15 527.637 214.313 526.571 217.766H530.478ZM543.695 224.205C542.348 224.205 541.292 223.716 540.526 222.739H540.362C540.472 223.696 540.526 224.25 540.526 224.4V229.045H537.399V212.536H539.942L540.383 214.023H540.526C541.258 212.888 542.341 212.321 543.777 212.321C545.13 212.321 546.19 212.844 546.956 213.89C547.721 214.936 548.104 216.388 548.104 218.248C548.104 219.471 547.923 220.534 547.561 221.437C547.205 222.339 546.696 223.026 546.033 223.498C545.37 223.969 544.59 224.205 543.695 224.205ZM542.772 214.823C542 214.823 541.436 215.062 541.08 215.541C540.725 216.012 540.54 216.795 540.526 217.889V218.227C540.526 219.458 540.708 220.339 541.07 220.873C541.439 221.406 542.02 221.672 542.813 221.672C544.214 221.672 544.915 220.517 544.915 218.207C544.915 217.079 544.741 216.234 544.392 215.674C544.05 215.106 543.51 214.823 542.772 214.823ZM556.984 224.205C555.637 224.205 554.581 223.716 553.815 222.739H553.651C553.761 223.696 553.815 224.25 553.815 224.4V229.045H550.688V212.536H553.231L553.672 214.023H553.815C554.547 212.888 555.63 212.321 557.066 212.321C558.419 212.321 559.479 212.844 560.245 213.89C561.01 214.936 561.393 216.388 561.393 218.248C561.393 219.471 561.212 220.534 560.85 221.437C560.494 222.339 559.985 223.026 559.322 223.498C558.659 223.969 557.879 224.205 556.984 224.205ZM556.061 214.823C555.289 214.823 554.725 215.062 554.369 215.541C554.014 216.012 553.829 216.795 553.815 217.889V218.227C553.815 219.458 553.997 220.339 554.359 220.873C554.728 221.406 555.309 221.672 556.102 221.672C557.503 221.672 558.204 220.517 558.204 218.207C558.204 217.079 558.03 216.234 557.681 215.674C557.339 215.106 556.799 214.823 556.061 214.823ZM567.104 224H563.977V208.045H567.104V224ZM570.263 209.573C570.263 208.554 570.83 208.045 571.965 208.045C573.1 208.045 573.667 208.554 573.667 209.573C573.667 210.058 573.523 210.438 573.236 210.711C572.956 210.978 572.532 211.111 571.965 211.111C570.83 211.111 570.263 210.598 570.263 209.573ZM573.523 224H570.396V212.536H573.523V224ZM581.47 224.205C577.902 224.205 576.118 222.247 576.118 218.33C576.118 216.381 576.603 214.895 577.574 213.869C578.544 212.837 579.936 212.321 581.747 212.321C583.073 212.321 584.263 212.581 585.315 213.1L584.393 215.52C583.9 215.322 583.442 215.161 583.019 215.038C582.595 214.908 582.171 214.843 581.747 214.843C580.12 214.843 579.307 215.999 579.307 218.309C579.307 220.551 580.12 221.672 581.747 221.672C582.349 221.672 582.906 221.594 583.418 221.437C583.931 221.272 584.444 221.02 584.957 220.678V223.354C584.451 223.675 583.938 223.897 583.418 224.021C582.906 224.144 582.256 224.205 581.47 224.205ZM594.903 224L594.298 222.441H594.216C593.689 223.104 593.146 223.566 592.585 223.826C592.032 224.079 591.307 224.205 590.412 224.205C589.311 224.205 588.443 223.891 587.807 223.262C587.178 222.633 586.864 221.737 586.864 220.575C586.864 219.358 587.288 218.463 588.135 217.889C588.99 217.308 590.275 216.986 591.991 216.925L593.98 216.863V216.361C593.98 215.199 593.385 214.618 592.196 214.618C591.28 214.618 590.203 214.895 588.966 215.448L587.93 213.336C589.25 212.646 590.712 212.3 592.319 212.3C593.857 212.3 595.036 212.635 595.856 213.305C596.677 213.975 597.087 214.994 597.087 216.361V224H594.903ZM593.98 218.688L592.77 218.729C591.861 218.757 591.184 218.921 590.74 219.222C590.295 219.522 590.073 219.98 590.073 220.596C590.073 221.478 590.579 221.918 591.591 221.918C592.315 221.918 592.893 221.71 593.324 221.293C593.761 220.876 593.98 220.322 593.98 219.632V218.688ZM605.146 221.713C605.693 221.713 606.35 221.594 607.115 221.354V223.682C606.336 224.031 605.379 224.205 604.244 224.205C602.993 224.205 602.081 223.891 601.506 223.262C600.939 222.626 600.655 221.676 600.655 220.411V214.884H599.158V213.562L600.881 212.516L601.783 210.096H603.783V212.536H606.992V214.884H603.783V220.411C603.783 220.855 603.906 221.184 604.152 221.396C604.405 221.607 604.736 221.713 605.146 221.713ZM609.31 209.573C609.31 208.554 609.877 208.045 611.012 208.045C612.146 208.045 612.714 208.554 612.714 209.573C612.714 210.058 612.57 210.438 612.283 210.711C612.003 210.978 611.579 211.111 611.012 211.111C609.877 211.111 609.31 210.598 609.31 209.573ZM612.57 224H609.443V212.536H612.57V224ZM618.354 218.248C618.354 219.382 618.538 220.24 618.907 220.821C619.283 221.402 619.892 221.693 620.732 221.693C621.566 221.693 622.165 221.406 622.527 220.832C622.896 220.25 623.081 219.389 623.081 218.248C623.081 217.113 622.896 216.262 622.527 215.694C622.158 215.127 621.553 214.843 620.712 214.843C619.878 214.843 619.276 215.127 618.907 215.694C618.538 216.255 618.354 217.106 618.354 218.248ZM626.28 218.248C626.28 220.114 625.788 221.573 624.803 222.626C623.819 223.679 622.448 224.205 620.691 224.205C619.591 224.205 618.62 223.966 617.779 223.487C616.938 223.002 616.292 222.308 615.841 221.406C615.39 220.503 615.165 219.451 615.165 218.248C615.165 216.375 615.653 214.918 616.631 213.879C617.608 212.84 618.982 212.321 620.753 212.321C621.854 212.321 622.824 212.56 623.665 213.039C624.506 213.517 625.152 214.204 625.603 215.1C626.054 215.995 626.28 217.044 626.28 218.248ZM639.446 224H636.318V217.304C636.318 216.477 636.171 215.858 635.877 215.448C635.583 215.031 635.115 214.823 634.473 214.823C633.598 214.823 632.965 215.117 632.576 215.705C632.186 216.286 631.991 217.253 631.991 218.606V224H628.864V212.536H631.253L631.673 214.002H631.848C632.196 213.449 632.675 213.032 633.283 212.751C633.898 212.464 634.596 212.321 635.375 212.321C636.708 212.321 637.72 212.683 638.41 213.408C639.101 214.125 639.446 215.165 639.446 216.525V224ZM650.664 220.596C650.664 221.771 650.253 222.667 649.433 223.282C648.62 223.897 647.399 224.205 645.772 224.205C644.938 224.205 644.228 224.147 643.64 224.031C643.052 223.921 642.501 223.757 641.989 223.539V220.955C642.57 221.228 643.223 221.457 643.947 221.642C644.679 221.826 645.321 221.918 645.875 221.918C647.01 221.918 647.577 221.59 647.577 220.934C647.577 220.688 647.502 220.49 647.352 220.339C647.201 220.182 646.941 220.008 646.572 219.816C646.203 219.618 645.711 219.389 645.096 219.129C644.214 218.76 643.564 218.418 643.147 218.104C642.737 217.79 642.437 217.431 642.245 217.027C642.061 216.617 641.968 216.115 641.968 215.52C641.968 214.501 642.361 213.715 643.147 213.162C643.94 212.601 645.062 212.321 646.511 212.321C647.892 212.321 649.235 212.622 650.541 213.223L649.597 215.479C649.023 215.233 648.486 215.031 647.987 214.874C647.488 214.717 646.979 214.638 646.459 214.638C645.537 214.638 645.075 214.888 645.075 215.387C645.075 215.667 645.222 215.91 645.516 216.115C645.817 216.32 646.47 216.624 647.475 217.027C648.37 217.39 649.026 217.728 649.443 218.042C649.86 218.357 650.168 218.719 650.366 219.129C650.564 219.54 650.664 220.028 650.664 220.596Z" fill="white"/><path d="M449.39 499.439C448.193 499.439 447.267 499.89 446.611 500.792C445.955 501.688 445.626 502.939 445.626 504.545C445.626 507.888 446.881 509.56 449.39 509.56C450.442 509.56 451.717 509.296 453.214 508.77V511.436C451.984 511.949 450.61 512.205 449.092 512.205C446.912 512.205 445.244 511.545 444.088 510.226C442.933 508.9 442.355 507 442.355 504.525C442.355 502.966 442.639 501.603 443.207 500.434C443.774 499.258 444.587 498.359 445.647 497.737C446.713 497.108 447.961 496.793 449.39 496.793C450.846 496.793 452.309 497.146 453.778 497.85L452.753 500.434C452.192 500.167 451.628 499.935 451.061 499.736C450.494 499.538 449.937 499.439 449.39 499.439ZM458.659 506.248C458.659 507.382 458.844 508.24 459.213 508.821C459.589 509.402 460.197 509.693 461.038 509.693C461.872 509.693 462.47 509.406 462.833 508.832C463.202 508.25 463.386 507.389 463.386 506.248C463.386 505.113 463.202 504.262 462.833 503.694C462.463 503.127 461.858 502.843 461.018 502.843C460.184 502.843 459.582 503.127 459.213 503.694C458.844 504.255 458.659 505.106 458.659 506.248ZM466.585 506.248C466.585 508.114 466.093 509.573 465.109 510.626C464.125 511.679 462.754 512.205 460.997 512.205C459.896 512.205 458.926 511.966 458.085 511.487C457.244 511.002 456.598 510.308 456.147 509.406C455.696 508.503 455.47 507.451 455.47 506.248C455.47 504.375 455.959 502.918 456.937 501.879C457.914 500.84 459.288 500.321 461.059 500.321C462.159 500.321 463.13 500.56 463.971 501.039C464.812 501.517 465.458 502.204 465.909 503.1C466.36 503.995 466.585 505.044 466.585 506.248ZM479.751 512H476.624V505.304C476.624 504.477 476.477 503.858 476.183 503.448C475.889 503.031 475.421 502.823 474.778 502.823C473.903 502.823 473.271 503.117 472.881 503.705C472.492 504.286 472.297 505.253 472.297 506.606V512H469.169V500.536H471.559L471.979 502.002H472.153C472.502 501.449 472.98 501.032 473.589 500.751C474.204 500.464 474.901 500.321 475.681 500.321C477.014 500.321 478.025 500.683 478.716 501.408C479.406 502.125 479.751 503.165 479.751 504.525V512ZM486.601 512.205C485.254 512.205 484.195 511.682 483.422 510.636C482.657 509.59 482.274 508.141 482.274 506.289C482.274 504.409 482.664 502.946 483.443 501.9C484.229 500.847 485.309 500.321 486.683 500.321C488.125 500.321 489.226 500.881 489.985 502.002H490.087C489.93 501.148 489.852 500.386 489.852 499.716V496.045H492.989V512H490.59L489.985 510.513H489.852C489.141 511.641 488.057 512.205 486.601 512.205ZM487.698 509.713C488.498 509.713 489.083 509.481 489.452 509.016C489.828 508.551 490.033 507.762 490.067 506.647V506.309C490.067 505.079 489.875 504.197 489.493 503.664C489.117 503.13 488.501 502.864 487.647 502.864C486.95 502.864 486.406 503.161 486.017 503.756C485.634 504.344 485.442 505.202 485.442 506.33C485.442 507.458 485.637 508.305 486.027 508.873C486.417 509.433 486.974 509.713 487.698 509.713ZM504.381 512L503.961 510.534H503.797C503.462 511.067 502.987 511.48 502.372 511.774C501.756 512.062 501.056 512.205 500.27 512.205C498.923 512.205 497.908 511.846 497.224 511.128C496.541 510.404 496.199 509.365 496.199 508.011V500.536H499.326V507.232C499.326 508.059 499.473 508.681 499.767 509.098C500.061 509.508 500.529 509.713 501.172 509.713C502.047 509.713 502.679 509.423 503.069 508.842C503.458 508.254 503.653 507.283 503.653 505.93V500.536H506.781V512H504.381ZM514.717 512.205C511.149 512.205 509.365 510.247 509.365 506.33C509.365 504.381 509.85 502.895 510.821 501.869C511.792 500.837 513.183 500.321 514.994 500.321C516.32 500.321 517.51 500.581 518.562 501.1L517.64 503.52C517.147 503.322 516.689 503.161 516.266 503.038C515.842 502.908 515.418 502.843 514.994 502.843C513.367 502.843 512.554 503.999 512.554 506.309C512.554 508.551 513.367 509.672 514.994 509.672C515.596 509.672 516.153 509.594 516.666 509.437C517.178 509.272 517.691 509.02 518.204 508.678V511.354C517.698 511.675 517.185 511.897 516.666 512.021C516.153 512.144 515.503 512.205 514.717 512.205ZM525.699 509.713C526.246 509.713 526.902 509.594 527.668 509.354V511.682C526.889 512.031 525.932 512.205 524.797 512.205C523.546 512.205 522.633 511.891 522.059 511.262C521.492 510.626 521.208 509.676 521.208 508.411V502.884H519.711V501.562L521.434 500.516L522.336 498.096H524.335V500.536H527.545V502.884H524.335V508.411C524.335 508.855 524.458 509.184 524.705 509.396C524.958 509.607 525.289 509.713 525.699 509.713ZM541.306 512H534.487V510.195L536.312 509.354V499.654L534.487 498.813V497.009H541.306V498.813L539.48 499.654V509.354L541.306 510.195V512ZM554.215 512H551.088V505.304C551.088 504.477 550.941 503.858 550.647 503.448C550.353 503.031 549.885 502.823 549.242 502.823C548.367 502.823 547.735 503.117 547.345 503.705C546.956 504.286 546.761 505.253 546.761 506.606V512H543.633V500.536H546.022L546.443 502.002H546.617C546.966 501.449 547.444 501.032 548.053 500.751C548.668 500.464 549.365 500.321 550.145 500.321C551.478 500.321 552.489 500.683 553.18 501.408C553.87 502.125 554.215 503.165 554.215 504.525V512ZM562.265 509.713C562.812 509.713 563.468 509.594 564.233 509.354V511.682C563.454 512.031 562.497 512.205 561.362 512.205C560.111 512.205 559.199 511.891 558.625 511.262C558.057 510.626 557.773 509.676 557.773 508.411V502.884H556.276V501.562L557.999 500.516L558.901 498.096H560.901V500.536H564.11V502.884H560.901V508.411C560.901 508.855 561.024 509.184 561.27 509.396C561.523 509.607 561.854 509.713 562.265 509.713ZM571.309 502.546C570.646 502.546 570.126 502.758 569.75 503.182C569.374 503.599 569.159 504.193 569.104 504.966H573.493C573.479 504.193 573.277 503.599 572.888 503.182C572.498 502.758 571.972 502.546 571.309 502.546ZM571.75 512.205C569.904 512.205 568.461 511.696 567.422 510.677C566.383 509.659 565.864 508.216 565.864 506.35C565.864 504.429 566.342 502.946 567.299 501.9C568.263 500.847 569.593 500.321 571.288 500.321C572.908 500.321 574.169 500.782 575.072 501.705C575.974 502.628 576.425 503.903 576.425 505.53V507.047H569.032C569.066 507.936 569.33 508.63 569.822 509.129C570.314 509.628 571.004 509.877 571.893 509.877C572.583 509.877 573.236 509.806 573.852 509.662C574.467 509.519 575.109 509.29 575.779 508.975V511.395C575.232 511.668 574.648 511.87 574.026 512C573.404 512.137 572.645 512.205 571.75 512.205ZM585.367 500.321C585.791 500.321 586.143 500.352 586.423 500.413L586.187 503.346C585.934 503.277 585.626 503.243 585.264 503.243C584.266 503.243 583.487 503.5 582.926 504.012C582.373 504.525 582.096 505.243 582.096 506.166V512H578.968V500.536H581.337L581.798 502.464H581.952C582.308 501.821 582.786 501.305 583.388 500.916C583.996 500.519 584.656 500.321 585.367 500.321ZM591.232 512L586.864 500.536H590.135L592.35 507.068C592.575 507.779 592.722 508.562 592.791 509.416H592.873C592.914 508.644 593.067 507.861 593.334 507.068L595.539 500.536H598.81L594.441 512H591.232ZM600.327 497.573C600.327 496.554 600.895 496.045 602.029 496.045C603.164 496.045 603.731 496.554 603.731 497.573C603.731 498.058 603.588 498.438 603.301 498.711C603.021 498.978 602.597 499.111 602.029 499.111C600.895 499.111 600.327 498.598 600.327 497.573ZM603.588 512H600.46V500.536H603.588V512ZM611.627 502.546C610.964 502.546 610.444 502.758 610.068 503.182C609.692 503.599 609.477 504.193 609.422 504.966H613.811C613.797 504.193 613.596 503.599 613.206 503.182C612.816 502.758 612.29 502.546 611.627 502.546ZM612.068 512.205C610.222 512.205 608.78 511.696 607.741 510.677C606.702 509.659 606.182 508.216 606.182 506.35C606.182 504.429 606.661 502.946 607.618 501.9C608.582 500.847 609.911 500.321 611.606 500.321C613.227 500.321 614.488 500.782 615.39 501.705C616.292 502.628 616.744 503.903 616.744 505.53V507.047H609.351C609.385 507.936 609.648 508.63 610.14 509.129C610.632 509.628 611.323 509.877 612.211 509.877C612.902 509.877 613.555 509.806 614.17 509.662C614.785 509.519 615.428 509.29 616.098 508.975V511.395C615.551 511.668 614.966 511.87 614.344 512C613.722 512.137 612.963 512.205 612.068 512.205ZM628.505 512L627.623 507.991L626.454 502.925H626.362L624.27 512H620.907L617.646 500.536H620.763L622.086 505.612C622.236 506.213 622.445 507.468 622.711 509.375H622.793C622.821 508.855 622.94 508.032 623.152 506.904L623.316 506.032L624.731 500.536H628.177L629.52 506.032C629.602 506.408 629.701 506.962 629.817 507.693C629.94 508.418 630.009 508.979 630.022 509.375H630.104C630.18 508.767 630.286 508.076 630.422 507.304C630.559 506.524 630.675 505.96 630.771 505.612L632.145 500.536H635.211L631.909 512H628.505ZM645.065 508.596C645.065 509.771 644.655 510.667 643.834 511.282C643.021 511.897 641.801 512.205 640.174 512.205C639.34 512.205 638.629 512.147 638.041 512.031C637.453 511.921 636.903 511.757 636.39 511.539V508.955C636.971 509.228 637.624 509.457 638.349 509.642C639.08 509.826 639.723 509.918 640.276 509.918C641.411 509.918 641.979 509.59 641.979 508.934C641.979 508.688 641.903 508.49 641.753 508.339C641.603 508.182 641.343 508.008 640.974 507.816C640.604 507.618 640.112 507.389 639.497 507.129C638.615 506.76 637.966 506.418 637.549 506.104C637.139 505.79 636.838 505.431 636.646 505.027C636.462 504.617 636.37 504.115 636.37 503.52C636.37 502.501 636.763 501.715 637.549 501.162C638.342 500.601 639.463 500.321 640.912 500.321C642.293 500.321 643.636 500.622 644.942 501.223L643.999 503.479C643.424 503.233 642.888 503.031 642.389 502.874C641.89 502.717 641.38 502.638 640.861 502.638C639.938 502.638 639.477 502.888 639.477 503.387C639.477 503.667 639.624 503.91 639.917 504.115C640.218 504.32 640.871 504.624 641.876 505.027C642.771 505.39 643.428 505.728 643.845 506.042C644.262 506.357 644.569 506.719 644.768 507.129C644.966 507.54 645.065 508.028 645.065 508.596Z" fill="white"/><path d="M413.429 656H409.389L402.868 644.659H402.775C402.905 646.662 402.97 648.091 402.97 648.945V656H400.13V641.009H404.139L410.65 652.237H410.722C410.62 650.289 410.568 648.911 410.568 648.104V641.009H413.429V656ZM419.458 650.248C419.458 651.382 419.643 652.24 420.012 652.821C420.388 653.402 420.997 653.693 421.837 653.693C422.671 653.693 423.27 653.406 423.632 652.832C424.001 652.25 424.186 651.389 424.186 650.248C424.186 649.113 424.001 648.262 423.632 647.694C423.263 647.127 422.658 646.843 421.817 646.843C420.983 646.843 420.381 647.127 420.012 647.694C419.643 648.255 419.458 649.106 419.458 650.248ZM427.385 650.248C427.385 652.114 426.893 653.573 425.908 654.626C424.924 655.679 423.553 656.205 421.796 656.205C420.696 656.205 419.725 655.966 418.884 655.487C418.043 655.002 417.397 654.308 416.946 653.406C416.495 652.503 416.27 651.451 416.27 650.248C416.27 648.375 416.758 646.918 417.736 645.879C418.713 644.84 420.087 644.321 421.858 644.321C422.958 644.321 423.929 644.56 424.77 645.039C425.611 645.517 426.257 646.204 426.708 647.1C427.159 647.995 427.385 649.044 427.385 650.248ZM434.798 653.713C435.345 653.713 436.001 653.594 436.767 653.354V655.682C435.988 656.031 435.031 656.205 433.896 656.205C432.645 656.205 431.732 655.891 431.158 655.262C430.591 654.626 430.307 653.676 430.307 652.411V646.884H428.81V645.562L430.533 644.516L431.435 642.096H433.435V644.536H436.644V646.884H433.435V652.411C433.435 652.855 433.558 653.184 433.804 653.396C434.057 653.607 434.388 653.713 434.798 653.713ZM438.961 641.573C438.961 640.554 439.529 640.045 440.664 640.045C441.798 640.045 442.366 640.554 442.366 641.573C442.366 642.058 442.222 642.438 441.935 642.711C441.655 642.978 441.231 643.111 440.664 643.111C439.529 643.111 438.961 642.598 438.961 641.573ZM442.222 656H439.095V644.536H442.222V656ZM451.851 646.884H449.144V656H446.016V646.884H444.293V645.377L446.016 644.536V643.695C446.016 642.39 446.337 641.436 446.98 640.834C447.623 640.233 448.651 639.932 450.066 639.932C451.146 639.932 452.107 640.093 452.948 640.414L452.148 642.711C451.519 642.513 450.938 642.414 450.405 642.414C449.96 642.414 449.639 642.547 449.441 642.813C449.243 643.073 449.144 643.408 449.144 643.818V644.536H451.851V646.884ZM452.015 644.536H455.439L457.603 650.986C457.788 651.546 457.914 652.209 457.982 652.975H458.044C458.119 652.271 458.266 651.608 458.485 650.986L460.607 644.536H463.96L459.11 657.466C458.666 658.663 458.03 659.558 457.203 660.153C456.383 660.748 455.422 661.045 454.322 661.045C453.782 661.045 453.252 660.987 452.732 660.871V658.389C453.108 658.478 453.519 658.522 453.963 658.522C454.517 658.522 454.999 658.352 455.409 658.01C455.826 657.675 456.15 657.166 456.383 656.482L456.567 655.918L452.015 644.536ZM480.49 656L479.403 652.432H473.938L472.851 656H469.426L474.717 640.947H478.603L483.915 656H480.49ZM478.644 649.766C477.639 646.532 477.072 644.704 476.942 644.28C476.819 643.856 476.73 643.521 476.675 643.275C476.45 644.15 475.804 646.313 474.737 649.766H478.644ZM491.861 656.205C490.515 656.205 489.458 655.716 488.693 654.739H488.529C488.638 655.696 488.693 656.25 488.693 656.4V661.045H485.565V644.536H488.108L488.549 646.023H488.693C489.424 644.888 490.508 644.321 491.943 644.321C493.297 644.321 494.356 644.844 495.122 645.89C495.888 646.936 496.271 648.388 496.271 650.248C496.271 651.471 496.089 652.534 495.727 653.437C495.372 654.339 494.862 655.026 494.199 655.498C493.536 655.969 492.757 656.205 491.861 656.205ZM490.938 646.823C490.166 646.823 489.602 647.062 489.247 647.541C488.891 648.012 488.707 648.795 488.693 649.889V650.227C488.693 651.458 488.874 652.339 489.236 652.873C489.605 653.406 490.187 653.672 490.979 653.672C492.381 653.672 493.082 652.517 493.082 650.207C493.082 649.079 492.907 648.234 492.559 647.674C492.217 647.106 491.677 646.823 490.938 646.823ZM505.15 656.205C503.804 656.205 502.748 655.716 501.982 654.739H501.818C501.927 655.696 501.982 656.25 501.982 656.4V661.045H498.854V644.536H501.397L501.838 646.023H501.982C502.713 644.888 503.797 644.321 505.232 644.321C506.586 644.321 507.646 644.844 508.411 645.89C509.177 646.936 509.56 648.388 509.56 650.248C509.56 651.471 509.378 652.534 509.016 653.437C508.661 654.339 508.151 655.026 507.488 655.498C506.825 655.969 506.046 656.205 505.15 656.205ZM504.228 646.823C503.455 646.823 502.891 647.062 502.536 647.541C502.18 648.012 501.996 648.795 501.982 649.889V650.227C501.982 651.458 502.163 652.339 502.525 652.873C502.895 653.406 503.476 653.672 504.269 653.672C505.67 653.672 506.371 652.517 506.371 650.207C506.371 649.079 506.196 648.234 505.848 647.674C505.506 647.106 504.966 646.823 504.228 646.823ZM515.271 656H512.144V640.045H515.271V656ZM518.429 641.573C518.429 640.554 518.997 640.045 520.131 640.045C521.266 640.045 521.833 640.554 521.833 641.573C521.833 642.058 521.69 642.438 521.403 642.711C521.123 642.978 520.699 643.111 520.131 643.111C518.997 643.111 518.429 642.598 518.429 641.573ZM521.69 656H518.562V644.536H521.69V656ZM529.637 656.205C526.068 656.205 524.284 654.247 524.284 650.33C524.284 648.381 524.77 646.895 525.74 645.869C526.711 644.837 528.102 644.321 529.914 644.321C531.24 644.321 532.429 644.581 533.482 645.1L532.559 647.52C532.067 647.322 531.609 647.161 531.185 647.038C530.761 646.908 530.337 646.843 529.914 646.843C528.287 646.843 527.473 647.999 527.473 650.309C527.473 652.551 528.287 653.672 529.914 653.672C530.515 653.672 531.072 653.594 531.585 653.437C532.098 653.272 532.61 653.02 533.123 652.678V655.354C532.617 655.675 532.104 655.897 531.585 656.021C531.072 656.144 530.423 656.205 529.637 656.205ZM543.069 656L542.464 654.441H542.382C541.856 655.104 541.312 655.566 540.752 655.826C540.198 656.079 539.474 656.205 538.578 656.205C537.478 656.205 536.609 655.891 535.974 655.262C535.345 654.633 535.03 653.737 535.03 652.575C535.03 651.358 535.454 650.463 536.302 649.889C537.156 649.308 538.441 648.986 540.157 648.925L542.146 648.863V648.361C542.146 647.199 541.552 646.618 540.362 646.618C539.446 646.618 538.37 646.895 537.132 647.448L536.097 645.336C537.416 644.646 538.879 644.3 540.485 644.3C542.023 644.3 543.203 644.635 544.023 645.305C544.843 645.975 545.253 646.994 545.253 648.361V656H543.069ZM542.146 650.688L540.937 650.729C540.027 650.757 539.351 650.921 538.906 651.222C538.462 651.522 538.24 651.98 538.24 652.596C538.24 653.478 538.746 653.918 539.757 653.918C540.482 653.918 541.06 653.71 541.49 653.293C541.928 652.876 542.146 652.322 542.146 651.632V650.688ZM559.065 656H555.938V649.304C555.938 648.477 555.791 647.858 555.497 647.448C555.203 647.031 554.735 646.823 554.092 646.823C553.217 646.823 552.585 647.117 552.195 647.705C551.806 648.286 551.611 649.253 551.611 650.606V656H548.483V644.536H550.873L551.293 646.002H551.467C551.816 645.449 552.294 645.032 552.903 644.751C553.518 644.464 554.215 644.321 554.995 644.321C556.328 644.321 557.339 644.683 558.03 645.408C558.72 646.125 559.065 647.165 559.065 648.525V656ZM567.115 653.713C567.662 653.713 568.318 653.594 569.083 653.354V655.682C568.304 656.031 567.347 656.205 566.212 656.205C564.961 656.205 564.049 655.891 563.475 655.262C562.907 654.626 562.624 653.676 562.624 652.411V646.884H561.126V645.562L562.849 644.516L563.751 642.096H565.751V644.536H568.96V646.884H565.751V652.411C565.751 652.855 565.874 653.184 566.12 653.396C566.373 653.607 566.705 653.713 567.115 653.713ZM579.409 652.596C579.409 653.771 578.999 654.667 578.179 655.282C577.365 655.897 576.145 656.205 574.518 656.205C573.684 656.205 572.973 656.147 572.385 656.031C571.797 655.921 571.247 655.757 570.734 655.539V652.955C571.315 653.228 571.968 653.457 572.693 653.642C573.424 653.826 574.067 653.918 574.621 653.918C575.755 653.918 576.323 653.59 576.323 652.934C576.323 652.688 576.248 652.49 576.097 652.339C575.947 652.182 575.687 652.008 575.318 651.816C574.949 651.618 574.457 651.389 573.841 651.129C572.959 650.76 572.31 650.418 571.893 650.104C571.483 649.79 571.182 649.431 570.991 649.027C570.806 648.617 570.714 648.115 570.714 647.52C570.714 646.501 571.107 645.715 571.893 645.162C572.686 644.601 573.807 644.321 575.256 644.321C576.637 644.321 577.98 644.622 579.286 645.223L578.343 647.479C577.769 647.233 577.232 647.031 576.733 646.874C576.234 646.717 575.725 646.638 575.205 646.638C574.282 646.638 573.821 646.888 573.821 647.387C573.821 647.667 573.968 647.91 574.262 648.115C574.562 648.32 575.215 648.624 576.22 649.027C577.116 649.39 577.772 649.728 578.189 650.042C578.606 650.357 578.914 650.719 579.112 651.129C579.31 651.54 579.409 652.028 579.409 652.596ZM589.796 650.248C589.796 651.382 589.981 652.24 590.35 652.821C590.726 653.402 591.334 653.693 592.175 653.693C593.009 653.693 593.607 653.406 593.97 652.832C594.339 652.25 594.523 651.389 594.523 650.248C594.523 649.113 594.339 648.262 593.97 647.694C593.601 647.127 592.996 646.843 592.155 646.843C591.321 646.843 590.719 647.127 590.35 647.694C589.981 648.255 589.796 649.106 589.796 650.248ZM597.723 650.248C597.723 652.114 597.23 653.573 596.246 654.626C595.262 655.679 593.891 656.205 592.134 656.205C591.034 656.205 590.063 655.966 589.222 655.487C588.381 655.002 587.735 654.308 587.284 653.406C586.833 652.503 586.607 651.451 586.607 650.248C586.607 648.375 587.096 646.918 588.074 645.879C589.051 644.84 590.425 644.321 592.196 644.321C593.296 644.321 594.267 644.56 595.108 645.039C595.949 645.517 596.595 646.204 597.046 647.1C597.497 647.995 597.723 649.044 597.723 650.248ZM606.644 646.884H603.937V656H600.809V646.884H599.086V645.377L600.809 644.536V643.695C600.809 642.39 601.13 641.436 601.773 640.834C602.416 640.233 603.444 639.932 604.859 639.932C605.939 639.932 606.9 640.093 607.741 640.414L606.941 642.711C606.312 642.513 605.731 642.414 605.198 642.414C604.753 642.414 604.432 642.547 604.234 642.813C604.036 643.073 603.937 643.408 603.937 643.818V644.536H606.644V646.884ZM617.328 647.664H618.354C619.358 647.664 620.1 647.496 620.579 647.161C621.057 646.826 621.296 646.3 621.296 645.582C621.296 644.871 621.05 644.365 620.558 644.064C620.073 643.764 619.317 643.613 618.292 643.613H617.328V647.664ZM617.328 650.248V656H614.149V641.009H618.518C620.555 641.009 622.062 641.381 623.04 642.126C624.017 642.865 624.506 643.989 624.506 645.5C624.506 646.382 624.263 647.168 623.778 647.858C623.292 648.542 622.605 649.079 621.717 649.468L626.126 656H622.599L619.02 650.248H617.328ZM632.514 646.546C631.851 646.546 631.332 646.758 630.956 647.182C630.58 647.599 630.364 648.193 630.31 648.966H634.698C634.685 648.193 634.483 647.599 634.093 647.182C633.704 646.758 633.177 646.546 632.514 646.546ZM632.955 656.205C631.109 656.205 629.667 655.696 628.628 654.677C627.589 653.659 627.069 652.216 627.069 650.35C627.069 648.429 627.548 646.946 628.505 645.9C629.469 644.847 630.798 644.321 632.494 644.321C634.114 644.321 635.375 644.782 636.277 645.705C637.18 646.628 637.631 647.903 637.631 649.53V651.047H630.238C630.272 651.936 630.535 652.63 631.027 653.129C631.52 653.628 632.21 653.877 633.099 653.877C633.789 653.877 634.442 653.806 635.057 653.662C635.672 653.519 636.315 653.29 636.985 652.975V655.395C636.438 655.668 635.854 655.87 635.231 656C634.609 656.137 633.851 656.205 632.955 656.205ZM648.172 652.596C648.172 653.771 647.762 654.667 646.941 655.282C646.128 655.897 644.908 656.205 643.281 656.205C642.447 656.205 641.736 656.147 641.148 656.031C640.56 655.921 640.01 655.757 639.497 655.539V652.955C640.078 653.228 640.731 653.457 641.456 653.642C642.187 653.826 642.83 653.918 643.383 653.918C644.518 653.918 645.085 653.59 645.085 652.934C645.085 652.688 645.01 652.49 644.86 652.339C644.709 652.182 644.45 652.008 644.081 651.816C643.711 651.618 643.219 651.389 642.604 651.129C641.722 650.76 641.073 650.418 640.656 650.104C640.246 649.79 639.945 649.431 639.753 649.027C639.569 648.617 639.477 648.115 639.477 647.52C639.477 646.501 639.87 645.715 640.656 645.162C641.449 644.601 642.57 644.321 644.019 644.321C645.4 644.321 646.743 644.622 648.049 645.223L647.105 647.479C646.531 647.233 645.995 647.031 645.496 646.874C644.997 646.717 644.487 646.638 643.968 646.638C643.045 646.638 642.583 646.888 642.583 647.387C642.583 647.667 642.73 647.91 643.024 648.115C643.325 648.32 643.978 648.624 644.983 649.027C645.878 649.39 646.535 649.728 646.952 650.042C647.369 650.357 647.676 650.719 647.875 651.129C648.073 651.54 648.172 652.028 648.172 652.596ZM658.733 656L658.313 654.534H658.149C657.814 655.067 657.339 655.48 656.724 655.774C656.108 656.062 655.408 656.205 654.622 656.205C653.275 656.205 652.26 655.846 651.576 655.128C650.893 654.404 650.551 653.365 650.551 652.011V644.536H653.678V651.232C653.678 652.059 653.825 652.681 654.119 653.098C654.413 653.508 654.881 653.713 655.524 653.713C656.399 653.713 657.031 653.423 657.421 652.842C657.811 652.254 658.005 651.283 658.005 649.93V644.536H661.133V656H658.733ZM667.542 656H664.414V640.045H667.542V656ZM675.663 653.713C676.209 653.713 676.866 653.594 677.631 653.354V655.682C676.852 656.031 675.895 656.205 674.76 656.205C673.509 656.205 672.597 655.891 672.022 655.262C671.455 654.626 671.171 653.676 671.171 652.411V646.884H669.674V645.562L671.397 644.516L672.299 642.096H674.299V644.536H677.508V646.884H674.299V652.411C674.299 652.855 674.422 653.184 674.668 653.396C674.921 653.607 675.252 653.713 675.663 653.713ZM687.957 652.596C687.957 653.771 687.547 654.667 686.727 655.282C685.913 655.897 684.693 656.205 683.066 656.205C682.232 656.205 681.521 656.147 680.933 656.031C680.345 655.921 679.795 655.757 679.282 655.539V652.955C679.863 653.228 680.516 653.457 681.241 653.642C681.972 653.826 682.615 653.918 683.168 653.918C684.303 653.918 684.871 653.59 684.871 652.934C684.871 652.688 684.795 652.49 684.645 652.339C684.495 652.182 684.235 652.008 683.866 651.816C683.497 651.618 683.004 651.389 682.389 651.129C681.507 650.76 680.858 650.418 680.441 650.104C680.031 649.79 679.73 649.431 679.539 649.027C679.354 648.617 679.262 648.115 679.262 647.52C679.262 646.501 679.655 645.715 680.441 645.162C681.234 644.601 682.355 644.321 683.804 644.321C685.185 644.321 686.528 644.622 687.834 645.223L686.891 647.479C686.316 647.233 685.78 647.031 685.281 646.874C684.782 646.717 684.272 646.638 683.753 646.638C682.83 646.638 682.369 646.888 682.369 647.387C682.369 647.667 682.516 647.91 682.81 648.115C683.11 648.32 683.763 648.624 684.768 649.027C685.664 649.39 686.32 649.728 686.737 650.042C687.154 650.357 687.461 650.719 687.66 651.129C687.858 651.54 687.957 652.028 687.957 652.596Z" fill="white"/><path d="M334.32 363.837C334.32 365.19 333.832 366.257 332.854 367.036C331.883 367.815 330.53 368.205 328.793 368.205C327.194 368.205 325.779 367.904 324.548 367.303V364.35C325.56 364.801 326.415 365.119 327.112 365.303C327.816 365.488 328.458 365.58 329.04 365.58C329.737 365.58 330.27 365.447 330.639 365.18C331.015 364.914 331.203 364.517 331.203 363.991C331.203 363.697 331.121 363.437 330.957 363.211C330.793 362.979 330.55 362.757 330.229 362.545C329.915 362.333 329.269 361.995 328.291 361.53C327.375 361.099 326.688 360.686 326.23 360.289C325.772 359.893 325.406 359.431 325.133 358.905C324.859 358.378 324.723 357.763 324.723 357.059C324.723 355.733 325.17 354.69 326.066 353.932C326.968 353.173 328.212 352.793 329.798 352.793C330.578 352.793 331.319 352.886 332.023 353.07C332.734 353.255 333.476 353.515 334.249 353.85L333.223 356.321C332.423 355.993 331.76 355.764 331.234 355.634C330.714 355.504 330.202 355.439 329.696 355.439C329.094 355.439 328.633 355.579 328.312 355.859C327.99 356.14 327.83 356.505 327.83 356.957C327.83 357.237 327.895 357.483 328.024 357.695C328.154 357.9 328.359 358.102 328.64 358.3C328.927 358.491 329.6 358.84 330.66 359.346C332.061 360.016 333.021 360.689 333.541 361.366C334.061 362.036 334.32 362.859 334.32 363.837ZM341.447 368.205C337.878 368.205 336.094 366.247 336.094 362.33C336.094 360.381 336.58 358.895 337.55 357.869C338.521 356.837 339.912 356.321 341.724 356.321C343.05 356.321 344.239 356.581 345.292 357.1L344.369 359.52C343.877 359.322 343.419 359.161 342.995 359.038C342.571 358.908 342.147 358.843 341.724 358.843C340.097 358.843 339.283 359.999 339.283 362.309C339.283 364.551 340.097 365.672 341.724 365.672C342.325 365.672 342.882 365.594 343.395 365.437C343.908 365.272 344.42 365.02 344.933 364.678V367.354C344.427 367.675 343.915 367.897 343.395 368.021C342.882 368.144 342.233 368.205 341.447 368.205ZM353.998 356.321C354.421 356.321 354.773 356.352 355.054 356.413L354.818 359.346C354.565 359.277 354.257 359.243 353.895 359.243C352.897 359.243 352.118 359.5 351.557 360.012C351.003 360.525 350.727 361.243 350.727 362.166V368H347.599V356.536H349.968L350.429 358.464H350.583C350.938 357.821 351.417 357.305 352.019 356.916C352.627 356.519 353.287 356.321 353.998 356.321ZM361.678 358.546C361.015 358.546 360.495 358.758 360.119 359.182C359.743 359.599 359.528 360.193 359.473 360.966H363.862C363.848 360.193 363.646 359.599 363.257 359.182C362.867 358.758 362.341 358.546 361.678 358.546ZM362.119 368.205C360.273 368.205 358.831 367.696 357.792 366.677C356.752 365.659 356.233 364.216 356.233 362.35C356.233 360.429 356.711 358.946 357.668 357.9C358.632 356.847 359.962 356.321 361.657 356.321C363.277 356.321 364.539 356.782 365.441 357.705C366.343 358.628 366.794 359.903 366.794 361.53V363.047H359.401C359.436 363.936 359.699 364.63 360.191 365.129C360.683 365.628 361.374 365.877 362.262 365.877C362.953 365.877 363.605 365.806 364.221 365.662C364.836 365.519 365.479 365.29 366.148 364.975V367.395C365.602 367.668 365.017 367.87 364.395 368C363.773 368.137 363.014 368.205 362.119 368.205ZM374.085 358.546C373.422 358.546 372.902 358.758 372.526 359.182C372.15 359.599 371.935 360.193 371.88 360.966H376.269C376.255 360.193 376.054 359.599 375.664 359.182C375.274 358.758 374.748 358.546 374.085 358.546ZM374.526 368.205C372.68 368.205 371.238 367.696 370.199 366.677C369.16 365.659 368.64 364.216 368.64 362.35C368.64 360.429 369.119 358.946 370.076 357.9C371.04 356.847 372.369 356.321 374.064 356.321C375.685 356.321 376.946 356.782 377.848 357.705C378.75 358.628 379.202 359.903 379.202 361.53V363.047H371.809C371.843 363.936 372.106 364.63 372.598 365.129C373.09 365.628 373.781 365.877 374.669 365.877C375.36 365.877 376.013 365.806 376.628 365.662C377.243 365.519 377.886 365.29 378.556 364.975V367.395C378.009 367.668 377.424 367.87 376.802 368C376.18 368.137 375.421 368.205 374.526 368.205ZM392.327 368H389.199V361.304C389.199 360.477 389.052 359.858 388.758 359.448C388.464 359.031 387.996 358.823 387.354 358.823C386.479 358.823 385.846 359.117 385.457 359.705C385.067 360.286 384.872 361.253 384.872 362.606V368H381.745V356.536H384.134L384.554 358.002H384.729C385.077 357.449 385.556 357.032 386.164 356.751C386.779 356.464 387.477 356.321 388.256 356.321C389.589 356.321 390.601 356.683 391.291 357.408C391.981 358.125 392.327 359.165 392.327 360.525V368ZM410.425 368L409.338 364.432H403.873L402.786 368H399.361L404.652 352.947H408.538L413.85 368H410.425ZM408.579 361.766C407.574 358.532 407.007 356.704 406.877 356.28C406.754 355.856 406.665 355.521 406.61 355.275C406.385 356.15 405.739 358.313 404.672 361.766H408.579ZM421.796 368.205C420.45 368.205 419.394 367.716 418.628 366.739H418.464C418.573 367.696 418.628 368.25 418.628 368.4V373.045H415.5V356.536H418.043L418.484 358.023H418.628C419.359 356.888 420.443 356.321 421.878 356.321C423.232 356.321 424.292 356.844 425.057 357.89C425.823 358.936 426.206 360.388 426.206 362.248C426.206 363.471 426.024 364.534 425.662 365.437C425.307 366.339 424.797 367.026 424.134 367.498C423.471 367.969 422.692 368.205 421.796 368.205ZM420.874 358.823C420.101 358.823 419.537 359.062 419.182 359.541C418.826 360.012 418.642 360.795 418.628 361.889V362.227C418.628 363.458 418.809 364.339 419.171 364.873C419.541 365.406 420.122 365.672 420.915 365.672C422.316 365.672 423.017 364.517 423.017 362.207C423.017 361.079 422.842 360.234 422.494 359.674C422.152 359.106 421.612 358.823 420.874 358.823ZM435.085 368.205C433.739 368.205 432.683 367.716 431.917 366.739H431.753C431.862 367.696 431.917 368.25 431.917 368.4V373.045H428.79V356.536H431.333L431.773 358.023H431.917C432.648 356.888 433.732 356.321 435.167 356.321C436.521 356.321 437.581 356.844 438.346 357.89C439.112 358.936 439.495 360.388 439.495 362.248C439.495 363.471 439.313 364.534 438.951 365.437C438.596 366.339 438.086 367.026 437.423 367.498C436.76 367.969 435.981 368.205 435.085 368.205ZM434.163 358.823C433.39 358.823 432.826 359.062 432.471 359.541C432.115 360.012 431.931 360.795 431.917 361.889V362.227C431.917 363.458 432.098 364.339 432.46 364.873C432.83 365.406 433.411 365.672 434.204 365.672C435.605 365.672 436.306 364.517 436.306 362.207C436.306 361.079 436.131 360.234 435.783 359.674C435.441 359.106 434.901 358.823 434.163 358.823ZM445.206 368H442.079V352.045H445.206V368ZM448.364 353.573C448.364 352.554 448.932 352.045 450.066 352.045C451.201 352.045 451.769 352.554 451.769 353.573C451.769 354.058 451.625 354.438 451.338 354.711C451.058 354.978 450.634 355.111 450.066 355.111C448.932 355.111 448.364 354.598 448.364 353.573ZM451.625 368H448.498V356.536H451.625V368ZM459.572 368.205C456.003 368.205 454.219 366.247 454.219 362.33C454.219 360.381 454.705 358.895 455.675 357.869C456.646 356.837 458.037 356.321 459.849 356.321C461.175 356.321 462.364 356.581 463.417 357.1L462.494 359.52C462.002 359.322 461.544 359.161 461.12 359.038C460.696 358.908 460.272 358.843 459.849 358.843C458.222 358.843 457.408 359.999 457.408 362.309C457.408 364.551 458.222 365.672 459.849 365.672C460.45 365.672 461.007 365.594 461.52 365.437C462.033 365.272 462.545 365.02 463.058 364.678V367.354C462.552 367.675 462.04 367.897 461.52 368.021C461.007 368.144 460.358 368.205 459.572 368.205ZM473.004 368L472.399 366.441H472.317C471.791 367.104 471.248 367.566 470.687 367.826C470.133 368.079 469.409 368.205 468.513 368.205C467.413 368.205 466.544 367.891 465.909 367.262C465.28 366.633 464.965 365.737 464.965 364.575C464.965 363.358 465.389 362.463 466.237 361.889C467.091 361.308 468.376 360.986 470.092 360.925L472.082 360.863V360.361C472.082 359.199 471.487 358.618 470.297 358.618C469.381 358.618 468.305 358.895 467.067 359.448L466.032 357.336C467.351 356.646 468.814 356.3 470.42 356.3C471.958 356.3 473.138 356.635 473.958 357.305C474.778 357.975 475.188 358.994 475.188 360.361V368H473.004ZM472.082 362.688L470.872 362.729C469.962 362.757 469.286 362.921 468.841 363.222C468.397 363.522 468.175 363.98 468.175 364.596C468.175 365.478 468.681 365.918 469.692 365.918C470.417 365.918 470.995 365.71 471.425 365.293C471.863 364.876 472.082 364.322 472.082 363.632V362.688ZM483.248 365.713C483.795 365.713 484.451 365.594 485.217 365.354V367.682C484.438 368.031 483.48 368.205 482.346 368.205C481.095 368.205 480.182 367.891 479.608 367.262C479.041 366.626 478.757 365.676 478.757 364.411V358.884H477.26V357.562L478.982 356.516L479.885 354.096H481.884V356.536H485.094V358.884H481.884V364.411C481.884 364.855 482.007 365.184 482.253 365.396C482.506 365.607 482.838 365.713 483.248 365.713ZM487.411 353.573C487.411 352.554 487.979 352.045 489.113 352.045C490.248 352.045 490.815 352.554 490.815 353.573C490.815 354.058 490.672 354.438 490.385 354.711C490.104 354.978 489.681 355.111 489.113 355.111C487.979 355.111 487.411 354.598 487.411 353.573ZM490.672 368H487.544V356.536H490.672V368ZM496.455 362.248C496.455 363.382 496.64 364.24 497.009 364.821C497.385 365.402 497.993 365.693 498.834 365.693C499.668 365.693 500.266 365.406 500.628 364.832C500.998 364.25 501.182 363.389 501.182 362.248C501.182 361.113 500.998 360.262 500.628 359.694C500.259 359.127 499.654 358.843 498.813 358.843C497.979 358.843 497.378 359.127 497.009 359.694C496.64 360.255 496.455 361.106 496.455 362.248ZM504.381 362.248C504.381 364.114 503.889 365.573 502.905 366.626C501.92 367.679 500.55 368.205 498.793 368.205C497.692 368.205 496.722 367.966 495.881 367.487C495.04 367.002 494.394 366.308 493.943 365.406C493.492 364.503 493.266 363.451 493.266 362.248C493.266 360.375 493.755 358.918 494.732 357.879C495.71 356.84 497.084 356.321 498.854 356.321C499.955 356.321 500.926 356.56 501.767 357.039C502.607 357.517 503.253 358.204 503.705 359.1C504.156 359.995 504.381 361.044 504.381 362.248ZM517.547 368H514.42V361.304C514.42 360.477 514.273 359.858 513.979 359.448C513.685 359.031 513.217 358.823 512.574 358.823C511.699 358.823 511.067 359.117 510.677 359.705C510.288 360.286 510.093 361.253 510.093 362.606V368H506.965V356.536H509.354L509.775 358.002H509.949C510.298 357.449 510.776 357.032 511.385 356.751C512 356.464 512.697 356.321 513.477 356.321C514.81 356.321 515.821 356.683 516.512 357.408C517.202 358.125 517.547 359.165 517.547 360.525V368ZM528.765 364.596C528.765 365.771 528.355 366.667 527.535 367.282C526.721 367.897 525.501 368.205 523.874 368.205C523.04 368.205 522.329 368.147 521.741 368.031C521.153 367.921 520.603 367.757 520.09 367.539V364.955C520.671 365.228 521.324 365.457 522.049 365.642C522.78 365.826 523.423 365.918 523.977 365.918C525.111 365.918 525.679 365.59 525.679 364.934C525.679 364.688 525.604 364.49 525.453 364.339C525.303 364.182 525.043 364.008 524.674 363.816C524.305 363.618 523.812 363.389 523.197 363.129C522.315 362.76 521.666 362.418 521.249 362.104C520.839 361.79 520.538 361.431 520.347 361.027C520.162 360.617 520.07 360.115 520.07 359.52C520.07 358.501 520.463 357.715 521.249 357.162C522.042 356.601 523.163 356.321 524.612 356.321C525.993 356.321 527.336 356.622 528.642 357.223L527.699 359.479C527.125 359.233 526.588 359.031 526.089 358.874C525.59 358.717 525.081 358.638 524.561 358.638C523.638 358.638 523.177 358.888 523.177 359.387C523.177 359.667 523.324 359.91 523.618 360.115C523.918 360.32 524.571 360.624 525.576 361.027C526.472 361.39 527.128 361.728 527.545 362.042C527.962 362.357 528.27 362.719 528.468 363.129C528.666 363.54 528.765 364.028 528.765 364.596ZM543.941 368L543.336 366.441H543.254C542.728 367.104 542.184 367.566 541.624 367.826C541.07 368.079 540.345 368.205 539.45 368.205C538.349 368.205 537.481 367.891 536.845 367.262C536.216 366.633 535.902 365.737 535.902 364.575C535.902 363.358 536.326 362.463 537.173 361.889C538.028 361.308 539.313 360.986 541.029 360.925L543.018 360.863V360.361C543.018 359.199 542.423 358.618 541.234 358.618C540.318 358.618 539.241 358.895 538.004 359.448L536.968 357.336C538.288 356.646 539.75 356.3 541.357 356.3C542.895 356.3 544.074 356.635 544.895 357.305C545.715 357.975 546.125 358.994 546.125 360.361V368H543.941ZM543.018 362.688L541.808 362.729C540.899 362.757 540.222 362.921 539.778 363.222C539.333 363.522 539.111 363.98 539.111 364.596C539.111 365.478 539.617 365.918 540.629 365.918C541.354 365.918 541.931 365.71 542.362 365.293C542.799 364.876 543.018 364.322 543.018 363.632V362.688ZM559.937 368H556.81V361.304C556.81 360.477 556.663 359.858 556.369 359.448C556.075 359.031 555.606 358.823 554.964 358.823C554.089 358.823 553.457 359.117 553.067 359.705C552.677 360.286 552.482 361.253 552.482 362.606V368H549.355V356.536H551.744L552.165 358.002H552.339C552.688 357.449 553.166 357.032 553.774 356.751C554.39 356.464 555.087 356.321 555.866 356.321C557.199 356.321 558.211 356.683 558.901 357.408C559.592 358.125 559.937 359.165 559.937 360.525V368ZM566.787 368.205C565.44 368.205 564.38 367.682 563.608 366.636C562.842 365.59 562.459 364.141 562.459 362.289C562.459 360.409 562.849 358.946 563.628 357.9C564.415 356.847 565.495 356.321 566.869 356.321C568.311 356.321 569.412 356.881 570.17 358.002H570.273C570.116 357.148 570.037 356.386 570.037 355.716V352.045H573.175V368H570.775L570.17 366.513H570.037C569.326 367.641 568.243 368.205 566.787 368.205ZM567.884 365.713C568.684 365.713 569.268 365.481 569.637 365.016C570.013 364.551 570.218 363.762 570.252 362.647V362.309C570.252 361.079 570.061 360.197 569.678 359.664C569.302 359.13 568.687 358.864 567.833 358.864C567.135 358.864 566.592 359.161 566.202 359.756C565.819 360.344 565.628 361.202 565.628 362.33C565.628 363.458 565.823 364.305 566.212 364.873C566.602 365.433 567.159 365.713 567.884 365.713ZM590.996 363.837C590.996 365.19 590.507 366.257 589.53 367.036C588.559 367.815 587.206 368.205 585.469 368.205C583.87 368.205 582.455 367.904 581.224 367.303V364.35C582.236 364.801 583.09 365.119 583.788 365.303C584.492 365.488 585.134 365.58 585.715 365.58C586.413 365.58 586.946 365.447 587.315 365.18C587.691 364.914 587.879 364.517 587.879 363.991C587.879 363.697 587.797 363.437 587.633 363.211C587.469 362.979 587.226 362.757 586.905 362.545C586.59 362.333 585.944 361.995 584.967 361.53C584.051 361.099 583.364 360.686 582.906 360.289C582.448 359.893 582.082 359.431 581.809 358.905C581.535 358.378 581.398 357.763 581.398 357.059C581.398 355.733 581.846 354.69 582.742 353.932C583.644 353.173 584.888 352.793 586.474 352.793C587.253 352.793 587.995 352.886 588.699 353.07C589.41 353.255 590.152 353.515 590.924 353.85L589.899 356.321C589.099 355.993 588.436 355.764 587.91 355.634C587.39 355.504 586.877 355.439 586.372 355.439C585.77 355.439 585.309 355.579 584.987 355.859C584.666 356.14 584.505 356.505 584.505 356.957C584.505 357.237 584.57 357.483 584.7 357.695C584.83 357.9 585.035 358.102 585.315 358.3C585.603 358.491 586.276 358.84 587.335 359.346C588.737 360.016 589.697 360.689 590.217 361.366C590.736 362.036 590.996 362.859 590.996 363.837ZM598.215 358.546C597.552 358.546 597.032 358.758 596.656 359.182C596.28 359.599 596.065 360.193 596.01 360.966H600.399C600.385 360.193 600.184 359.599 599.794 359.182C599.404 358.758 598.878 358.546 598.215 358.546ZM598.656 368.205C596.81 368.205 595.368 367.696 594.329 366.677C593.29 365.659 592.77 364.216 592.77 362.35C592.77 360.429 593.249 358.946 594.206 357.9C595.169 356.847 596.499 356.321 598.194 356.321C599.814 356.321 601.076 356.782 601.978 357.705C602.88 358.628 603.332 359.903 603.332 361.53V363.047H595.938C595.973 363.936 596.236 364.63 596.728 365.129C597.22 365.628 597.911 365.877 598.799 365.877C599.49 365.877 600.143 365.806 600.758 365.662C601.373 365.519 602.016 365.29 602.686 364.975V367.395C602.139 367.668 601.554 367.87 600.932 368C600.31 368.137 599.551 368.205 598.656 368.205ZM610.704 365.713C611.251 365.713 611.907 365.594 612.673 365.354V367.682C611.894 368.031 610.937 368.205 609.802 368.205C608.551 368.205 607.638 367.891 607.064 367.262C606.497 366.626 606.213 365.676 606.213 364.411V358.884H604.716V357.562L606.438 356.516L607.341 354.096H609.34V356.536H612.55V358.884H609.34V364.411C609.34 364.855 609.463 365.184 609.709 365.396C609.962 365.607 610.294 365.713 610.704 365.713ZM628.577 368L628.156 366.534H627.992C627.657 367.067 627.182 367.48 626.567 367.774C625.952 368.062 625.251 368.205 624.465 368.205C623.118 368.205 622.103 367.846 621.419 367.128C620.736 366.404 620.394 365.365 620.394 364.011V356.536H623.521V363.232C623.521 364.059 623.668 364.681 623.962 365.098C624.256 365.508 624.725 365.713 625.367 365.713C626.242 365.713 626.875 365.423 627.264 364.842C627.654 364.254 627.849 363.283 627.849 361.93V356.536H630.976V368H628.577ZM640.553 368.205C639.207 368.205 638.15 367.716 637.385 366.739H637.221C637.33 367.696 637.385 368.25 637.385 368.4V373.045H634.257V356.536H636.8L637.241 358.023H637.385C638.116 356.888 639.2 356.321 640.635 356.321C641.989 356.321 643.048 356.844 643.814 357.89C644.58 358.936 644.962 360.388 644.962 362.248C644.962 363.471 644.781 364.534 644.419 365.437C644.063 366.339 643.554 367.026 642.891 367.498C642.228 367.969 641.449 368.205 640.553 368.205ZM639.63 358.823C638.858 358.823 638.294 359.062 637.938 359.541C637.583 360.012 637.398 360.795 637.385 361.889V362.227C637.385 363.458 637.566 364.339 637.928 364.873C638.297 365.406 638.878 365.672 639.671 365.672C641.073 365.672 641.773 364.517 641.773 362.207C641.773 361.079 641.599 360.234 641.25 359.674C640.909 359.106 640.369 358.823 639.63 358.823ZM658.856 368H652.038V366.195L653.863 365.354V355.654L652.038 354.813V353.009H658.856V354.813L657.031 355.654V365.354L658.856 366.195V368ZM671.766 368H668.639V361.304C668.639 360.477 668.492 359.858 668.198 359.448C667.904 359.031 667.436 358.823 666.793 358.823C665.918 358.823 665.286 359.117 664.896 359.705C664.506 360.286 664.312 361.253 664.312 362.606V368H661.184V356.536H663.573L663.994 358.002H664.168C664.517 357.449 664.995 357.032 665.604 356.751C666.219 356.464 666.916 356.321 667.695 356.321C669.028 356.321 670.04 356.683 670.73 357.408C671.421 358.125 671.766 359.165 671.766 360.525V368ZM679.815 365.713C680.362 365.713 681.019 365.594 681.784 365.354V367.682C681.005 368.031 680.048 368.205 678.913 368.205C677.662 368.205 676.75 367.891 676.175 367.262C675.608 366.626 675.324 365.676 675.324 364.411V358.884H673.827V357.562L675.55 356.516L676.452 354.096H678.452V356.536H681.661V358.884H678.452V364.411C678.452 364.855 678.575 365.184 678.821 365.396C679.074 365.607 679.405 365.713 679.815 365.713ZM688.859 358.546C688.196 358.546 687.677 358.758 687.301 359.182C686.925 359.599 686.709 360.193 686.655 360.966H691.043C691.03 360.193 690.828 359.599 690.438 359.182C690.049 358.758 689.522 358.546 688.859 358.546ZM689.3 368.205C687.455 368.205 686.012 367.696 684.973 366.677C683.934 365.659 683.415 364.216 683.415 362.35C683.415 360.429 683.893 358.946 684.85 357.9C685.814 356.847 687.144 356.321 688.839 356.321C690.459 356.321 691.72 356.782 692.623 357.705C693.525 358.628 693.976 359.903 693.976 361.53V363.047H686.583C686.617 363.936 686.88 364.63 687.373 365.129C687.865 365.628 688.555 365.877 689.444 365.877C690.134 365.877 690.787 365.806 691.402 365.662C692.018 365.519 692.66 365.29 693.33 364.975V367.395C692.783 367.668 692.199 367.87 691.577 368C690.955 368.137 690.196 368.205 689.3 368.205ZM702.917 356.321C703.341 356.321 703.693 356.352 703.974 356.413L703.738 359.346C703.485 359.277 703.177 359.243 702.815 359.243C701.817 359.243 701.038 359.5 700.477 360.012C699.923 360.525 699.646 361.243 699.646 362.166V368H696.519V356.536H698.888L699.349 358.464H699.503C699.858 357.821 700.337 357.305 700.938 356.916C701.547 356.519 702.207 356.321 702.917 356.321ZM708.783 368L704.415 356.536H707.686L709.9 363.068C710.126 363.779 710.273 364.562 710.341 365.416H710.423C710.464 364.644 710.618 363.861 710.885 363.068L713.089 356.536H716.36L711.992 368H708.783ZM717.878 353.573C717.878 352.554 718.445 352.045 719.58 352.045C720.715 352.045 721.282 352.554 721.282 353.573C721.282 354.058 721.139 354.438 720.852 354.711C720.571 354.978 720.147 355.111 719.58 355.111C718.445 355.111 717.878 354.598 717.878 353.573ZM721.139 368H718.011V356.536H721.139V368ZM729.178 358.546C728.515 358.546 727.995 358.758 727.619 359.182C727.243 359.599 727.028 360.193 726.973 360.966H731.362C731.348 360.193 731.146 359.599 730.757 359.182C730.367 358.758 729.841 358.546 729.178 358.546ZM729.619 368.205C727.773 368.205 726.331 367.696 725.292 366.677C724.252 365.659 723.733 364.216 723.733 362.35C723.733 360.429 724.211 358.946 725.168 357.9C726.132 356.847 727.462 356.321 729.157 356.321C730.777 356.321 732.039 356.782 732.941 357.705C733.843 358.628 734.294 359.903 734.294 361.53V363.047H726.901C726.936 363.936 727.199 364.63 727.691 365.129C728.183 365.628 728.874 365.877 729.762 365.877C730.453 365.877 731.105 365.806 731.721 365.662C732.336 365.519 732.979 365.29 733.648 364.975V367.395C733.102 367.668 732.517 367.87 731.895 368C731.273 368.137 730.514 368.205 729.619 368.205ZM746.056 368L745.174 363.991L744.005 358.925H743.913L741.821 368H738.458L735.197 356.536H738.314L739.637 361.612C739.787 362.213 739.996 363.468 740.262 365.375H740.344C740.372 364.855 740.491 364.032 740.703 362.904L740.867 362.032L742.282 356.536H745.728L747.071 362.032C747.153 362.408 747.252 362.962 747.368 363.693C747.491 364.418 747.56 364.979 747.573 365.375H747.655C747.73 364.767 747.836 364.076 747.973 363.304C748.11 362.524 748.226 361.96 748.322 361.612L749.696 356.536H752.762L749.46 368H746.056ZM762.616 364.596C762.616 365.771 762.206 366.667 761.385 367.282C760.572 367.897 759.352 368.205 757.725 368.205C756.891 368.205 756.18 368.147 755.592 368.031C755.004 367.921 754.454 367.757 753.941 367.539V364.955C754.522 365.228 755.175 365.457 755.899 365.642C756.631 365.826 757.273 365.918 757.827 365.918C758.962 365.918 759.529 365.59 759.529 364.934C759.529 364.688 759.454 364.49 759.304 364.339C759.153 364.182 758.894 364.008 758.524 363.816C758.155 363.618 757.663 363.389 757.048 363.129C756.166 362.76 755.517 362.418 755.1 362.104C754.689 361.79 754.389 361.431 754.197 361.027C754.013 360.617 753.92 360.115 753.92 359.52C753.92 358.501 754.313 357.715 755.1 357.162C755.893 356.601 757.014 356.321 758.463 356.321C759.844 356.321 761.187 356.622 762.493 357.223L761.549 359.479C760.975 359.233 760.438 359.031 759.939 358.874C759.44 358.717 758.931 358.638 758.412 358.638C757.489 358.638 757.027 358.888 757.027 359.387C757.027 359.667 757.174 359.91 757.468 360.115C757.769 360.32 758.422 360.624 759.427 361.027C760.322 361.39 760.979 361.728 761.396 362.042C761.812 362.357 762.12 362.719 762.318 363.129C762.517 363.54 762.616 364.028 762.616 364.596Z" fill="white"/><path d="M60.2104 224H50.1514V221.795L53.6787 217.991C54.123 217.513 54.5264 217.072 54.8887 216.668C55.251 216.265 55.562 215.872 55.8218 215.489C56.0815 215.106 56.2832 214.717 56.4268 214.32C56.5703 213.924 56.6421 213.497 56.6421 213.039C56.6421 212.533 56.4883 212.14 56.1807 211.859C55.8799 211.579 55.4731 211.439 54.9604 211.439C54.4204 211.439 53.9009 211.572 53.4019 211.839C52.9028 212.105 52.3799 212.485 51.833 212.977L50.1104 210.937C50.418 210.656 50.7393 210.39 51.0742 210.137C51.4092 209.877 51.7783 209.648 52.1816 209.45C52.585 209.251 53.0293 209.094 53.5146 208.978C54 208.855 54.5435 208.793 55.145 208.793C55.8628 208.793 56.5054 208.893 57.0728 209.091C57.647 209.289 58.1357 209.573 58.5391 209.942C58.9424 210.304 59.25 210.745 59.4619 211.265C59.6807 211.784 59.79 212.369 59.79 213.018C59.79 213.606 59.6875 214.17 59.4824 214.71C59.2773 215.243 58.9971 215.77 58.6416 216.289C58.2861 216.802 57.8726 217.314 57.4009 217.827C56.936 218.333 56.437 218.849 55.9038 219.375L54.0991 221.19V221.334H60.2104V224ZM82.8203 224H79.2007L77.1704 216.125C77.0952 215.845 76.9653 215.267 76.7808 214.392C76.603 213.51 76.5005 212.919 76.4731 212.618C76.4321 212.987 76.3296 213.582 76.1655 214.402C76.0015 215.216 75.875 215.797 75.7861 216.146L73.7661 224H70.1567L66.332 209.009H69.4595L71.377 217.191C71.7119 218.702 71.9546 220.011 72.105 221.119C72.146 220.729 72.2383 220.127 72.3818 219.314C72.5322 218.494 72.6724 217.858 72.8022 217.407L74.9863 209.009H77.9907L80.1748 217.407C80.2705 217.783 80.3901 218.357 80.5337 219.129C80.6772 219.902 80.7866 220.565 80.8618 221.119C80.9302 220.585 81.0396 219.922 81.1899 219.129C81.3403 218.33 81.4771 217.684 81.6001 217.191L83.5073 209.009H86.6348L82.8203 224ZM97.1553 224H88.5215V209.009H97.1553V211.613H91.7002V214.905H96.7759V217.509H91.7002V221.375H97.1553V224ZM108.927 224H100.293V209.009H108.927V211.613H103.472V214.905H108.547V217.509H103.472V221.375H108.927V224ZM124.123 224H120.514L116.586 217.684L115.243 218.647V224H112.064V209.009H115.243V215.869L116.494 214.105L120.555 209.009H124.082L118.853 215.643L124.123 224ZM134.859 219.837C134.859 221.19 134.37 222.257 133.393 223.036C132.422 223.815 131.068 224.205 129.332 224.205C127.732 224.205 126.317 223.904 125.087 223.303V220.35C126.099 220.801 126.953 221.119 127.65 221.303C128.354 221.488 128.997 221.58 129.578 221.58C130.275 221.58 130.809 221.447 131.178 221.18C131.554 220.914 131.742 220.517 131.742 219.991C131.742 219.697 131.66 219.437 131.496 219.211C131.332 218.979 131.089 218.757 130.768 218.545C130.453 218.333 129.807 217.995 128.83 217.53C127.914 217.099 127.227 216.686 126.769 216.289C126.311 215.893 125.945 215.431 125.671 214.905C125.398 214.378 125.261 213.763 125.261 213.059C125.261 211.733 125.709 210.69 126.604 209.932C127.507 209.173 128.751 208.793 130.337 208.793C131.116 208.793 131.858 208.886 132.562 209.07C133.273 209.255 134.015 209.515 134.787 209.85L133.762 212.321C132.962 211.993 132.299 211.764 131.772 211.634C131.253 211.504 130.74 211.439 130.234 211.439C129.633 211.439 129.171 211.579 128.85 211.859C128.529 212.14 128.368 212.505 128.368 212.957C128.368 213.237 128.433 213.483 128.563 213.695C128.693 213.9 128.898 214.102 129.178 214.3C129.465 214.491 130.139 214.84 131.198 215.346C132.6 216.016 133.56 216.689 134.08 217.366C134.599 218.036 134.859 218.859 134.859 219.837Z" fill="white"/></g><defs><clipPath id="clip0"><rect width="820" height="720" fill="white"/></clipPath></defs></svg>