<svg width="820" height="720" viewBox="0 0 820 720" fill="none" xmlns="http://www.w3.org/2000/svg"><g clip-path="url(#clip0)"><rect width="820" height="720" fill="white"/><rect y="576" width="185" height="144" fill="#3470B7" fill-opacity="0.8"/><rect width="185" height="144" fill="#002D62"/><rect y="288" width="185" height="144" fill="#1B58A0"/><rect y="432" width="185" height="144" fill="#3470B7"/><path d="M39.206 71.285C40.494 71.495 41.481 71.978 42.167 72.734C42.853 73.476 43.196 74.4 43.196 75.506C43.196 76.36 42.972 77.151 42.524 77.879C42.076 78.593 41.39 79.167 40.466 79.601C39.556 80.035 38.436 80.252 37.106 80.252C36.07 80.252 35.048 80.119 34.04 79.853C33.046 79.573 32.199 79.181 31.499 78.677L32.822 76.073C33.382 76.493 34.026 76.822 34.754 77.06C35.496 77.284 36.252 77.396 37.022 77.396C37.876 77.396 38.548 77.235 39.038 76.913C39.528 76.577 39.773 76.108 39.773 75.506C39.773 74.302 38.856 73.7 37.022 73.7H35.468V71.453L38.492 68.03H32.234V65.3H42.524V67.505L39.206 71.285ZM45.0398 72.776H50.9828V75.401H45.0398V72.776ZM66.4104 76.913H64.0164V80H60.6984V76.913H52.7814V74.624L59.7114 65.3H63.2814L56.8554 74.141H60.8034V71.39H64.0164V74.141H66.4104V76.913ZM96.5172 65.3L91.7082 80H88.0542L84.8202 70.046L81.4812 80H77.8482L73.0182 65.3H76.5462L79.8642 75.632L83.3292 65.3H86.4792L89.8392 75.716L93.2622 65.3H96.5172ZM109.798 77.27V80H98.4163V65.3H109.525V68.03H101.797V71.222H108.622V73.868H101.797V77.27H109.798ZM123.887 77.27V80H112.505V65.3H123.614V68.03H115.886V71.222H122.711V73.868H115.886V77.27H123.887ZM131.949 74.225L129.975 76.283V80H126.594V65.3H129.975V72.167L136.485 65.3H140.265L134.175 71.852L140.622 80H136.653L131.949 74.225ZM146.661 80.252C145.499 80.252 144.372 80.098 143.28 79.79C142.202 79.468 141.334 79.055 140.676 78.551L141.831 75.989C142.461 76.451 143.21 76.822 144.078 77.102C144.946 77.382 145.814 77.522 146.682 77.522C147.648 77.522 148.362 77.382 148.824 77.102C149.286 76.808 149.517 76.423 149.517 75.947C149.517 75.597 149.377 75.31 149.097 75.086C148.831 74.848 148.481 74.659 148.047 74.519C147.627 74.379 147.053 74.225 146.325 74.057C145.205 73.791 144.288 73.525 143.574 73.259C142.86 72.993 142.244 72.566 141.726 71.978C141.222 71.39 140.97 70.606 140.97 69.626C140.97 68.772 141.201 68.002 141.663 67.316C142.125 66.616 142.818 66.063 143.742 65.657C144.68 65.251 145.821 65.048 147.165 65.048C148.103 65.048 149.02 65.16 149.916 65.384C150.812 65.608 151.596 65.93 152.268 66.35L151.218 68.933C149.86 68.163 148.502 67.778 147.144 67.778C146.192 67.778 145.485 67.932 145.023 68.24C144.575 68.548 144.351 68.954 144.351 69.458C144.351 69.962 144.61 70.34 145.128 70.592C145.66 70.83 146.465 71.068 147.543 71.306C148.663 71.572 149.58 71.838 150.294 72.104C151.008 72.37 151.617 72.79 152.121 73.364C152.639 73.938 152.898 74.715 152.898 75.695C152.898 76.535 152.66 77.305 152.184 78.005C151.722 78.691 151.022 79.237 150.084 79.643C149.146 80.049 148.005 80.252 146.661 80.252Z" fill="white"/><path d="M26.1145 353.3V368H22.7125V356.03H19.7725V353.3H26.1145ZM28.9411 360.776H34.8841V363.401H28.9411V360.776ZM41.9875 353.3V368H38.5855V356.03H35.6455V353.3H41.9875ZM56.1584 353.3V368H52.7564V356.03H49.8164V353.3H56.1584ZM64.1301 350.318H67.0491L60.1191 370.1H57.2001L64.1301 350.318ZM77.9187 365.228V368H66.8097V365.795L72.4797 360.44C73.0817 359.866 73.4877 359.376 73.6977 358.97C73.9077 358.55 74.0127 358.137 74.0127 357.731C74.0127 357.143 73.8097 356.695 73.4037 356.387C73.0117 356.065 72.4307 355.904 71.6607 355.904C71.0167 355.904 70.4357 356.03 69.9177 356.282C69.3997 356.52 68.9657 356.884 68.6157 357.374L66.1377 355.778C66.7117 354.924 67.5027 354.259 68.5107 353.783C69.5187 353.293 70.6737 353.048 71.9757 353.048C73.0677 353.048 74.0197 353.23 74.8317 353.594C75.6577 353.944 76.2947 354.448 76.7427 355.106C77.2047 355.75 77.4357 356.513 77.4357 357.395C77.4357 358.193 77.2677 358.942 76.9317 359.642C76.5957 360.342 75.9447 361.14 74.9787 362.036L71.5977 365.228H77.9187ZM108.412 353.3L103.603 368H99.9487L96.7147 358.046L93.3757 368H89.7427L84.9127 353.3H88.4407L91.7587 363.632L95.2237 353.3H98.3737L101.734 363.716L105.157 353.3H108.412ZM121.693 365.27V368H110.311V353.3H121.42V356.03H113.692V359.222H120.517V361.868H113.692V365.27H121.693ZM135.782 365.27V368H124.4V353.3H135.509V356.03H127.781V359.222H134.606V361.868H127.781V365.27H135.782ZM143.844 362.225L141.87 364.283V368H138.489V353.3H141.87V360.167L148.38 353.3H152.16L146.07 359.852L152.517 368H148.548L143.844 362.225ZM158.556 368.252C157.394 368.252 156.267 368.098 155.175 367.79C154.097 367.468 153.229 367.055 152.571 366.551L153.726 363.989C154.356 364.451 155.105 364.822 155.973 365.102C156.841 365.382 157.709 365.522 158.577 365.522C159.543 365.522 160.257 365.382 160.719 365.102C161.181 364.808 161.412 364.423 161.412 363.947C161.412 363.597 161.272 363.31 160.992 363.086C160.726 362.848 160.376 362.659 159.942 362.519C159.522 362.379 158.948 362.225 158.22 362.057C157.1 361.791 156.183 361.525 155.469 361.259C154.755 360.993 154.139 360.566 153.621 359.978C153.117 359.39 152.865 358.606 152.865 357.626C152.865 356.772 153.096 356.002 153.558 355.316C154.02 354.616 154.713 354.063 155.637 353.657C156.575 353.251 157.716 353.048 159.06 353.048C159.998 353.048 160.915 353.16 161.811 353.384C162.707 353.608 163.491 353.93 164.163 354.35L163.113 356.933C161.755 356.163 160.397 355.778 159.039 355.778C158.087 355.778 157.38 355.932 156.918 356.24C156.47 356.548 156.246 356.954 156.246 357.458C156.246 357.962 156.505 358.34 157.023 358.592C157.555 358.83 158.36 359.068 159.438 359.306C160.558 359.572 161.475 359.838 162.189 360.104C162.903 360.37 163.512 360.79 164.016 361.364C164.534 361.938 164.793 362.715 164.793 363.695C164.793 364.535 164.555 365.305 164.079 366.005C163.617 366.691 162.917 367.237 161.979 367.643C161.041 368.049 159.9 368.252 158.556 368.252Z" fill="white"/><path d="M57.9836 497.3V512H54.5816V500.03H51.6416V497.3H57.9836ZM89.6265 497.3L84.8175 512H81.1635L77.9295 502.046L74.5905 512H70.9575L66.1275 497.3H69.6555L72.9735 507.632L76.4385 497.3H79.5885L82.9485 507.716L86.3715 497.3H89.6265ZM102.908 509.27V512H91.5257V497.3H102.635V500.03H94.9067V503.222H101.732V505.868H94.9067V509.27H102.908ZM116.997 509.27V512H105.615V497.3H116.724V500.03H108.996V503.222H115.821V505.868H108.996V509.27H116.997ZM125.058 506.225L123.084 508.283V512H119.703V497.3H123.084V504.167L129.594 497.3H133.374L127.284 503.852L133.731 512H129.762L125.058 506.225Z" fill="white"/><path d="M185 0L221.248 26.8475L258 0V117.153L221.248 144L185 117.153V0Z" fill="#F2F2F2"/><path d="M57.9836 641.3V656H54.5816V644.03H51.6416V641.3H57.9836ZM89.6265 641.3L84.8175 656H81.1635L77.9295 646.046L74.5905 656H70.9575L66.1275 641.3H69.6555L72.9735 651.632L76.4385 641.3H79.5885L82.9485 651.716L86.3715 641.3H89.6265ZM102.908 653.27V656H91.5257V641.3H102.635V644.03H94.9067V647.222H101.732V649.868H94.9067V653.27H102.908ZM116.997 653.27V656H105.615V641.3H116.724V644.03H108.996V647.222H115.821V649.868H108.996V653.27H116.997ZM125.058 650.225L123.084 652.283V656H119.703V641.3H123.084V648.167L129.594 641.3H133.374L127.284 647.852L133.731 656H129.762L125.058 650.225Z" fill="white"/><path d="M185 144L221.248 170.847L258 144V261.153L221.248 288L185 261.153V144Z" fill="#F2F2F2"/><path d="M185 288L221.248 314.847L258 288V405.153L221.248 432L185 405.153V288Z" fill="#F2F2F2"/><path d="M185 576L221.248 602.847L258 576V693.153L221.248 720L185 693.153V576Z" fill="#F2F2F2"/><path d="M185 432L221.248 458.847L258 432V549.153L221.248 576L185 549.153V432Z" fill="#F2F2F2"/><path d="M223.877 65.3V80H220.475V68.03H217.535V65.3H223.877Z" fill="black"/><path d="M227.109 221.228V224H216V221.795L221.67 216.44C222.272 215.866 222.678 215.376 222.888 214.97C223.098 214.55 223.203 214.137 223.203 213.731C223.203 213.143 223 212.695 222.594 212.387C222.202 212.065 221.621 211.904 220.851 211.904C220.207 211.904 219.626 212.03 219.108 212.282C218.59 212.52 218.156 212.884 217.806 213.374L215.328 211.778C215.902 210.924 216.693 210.259 217.701 209.783C218.709 209.293 219.864 209.048 221.166 209.048C222.258 209.048 223.21 209.23 224.022 209.594C224.848 209.944 225.485 210.448 225.933 211.106C226.395 211.75 226.626 212.513 226.626 213.395C226.626 214.193 226.458 214.942 226.122 215.642C225.786 216.342 225.135 217.14 224.169 218.036L220.788 221.228H227.109Z" fill="black"/><path d="M222.972 359.285C224.26 359.495 225.247 359.978 225.933 360.734C226.619 361.476 226.962 362.4 226.962 363.506C226.962 364.36 226.738 365.151 226.29 365.879C225.842 366.593 225.156 367.167 224.232 367.601C223.322 368.035 222.202 368.252 220.872 368.252C219.836 368.252 218.814 368.119 217.806 367.853C216.812 367.573 215.965 367.181 215.265 366.677L216.588 364.073C217.148 364.493 217.792 364.822 218.52 365.06C219.262 365.284 220.018 365.396 220.788 365.396C221.642 365.396 222.314 365.235 222.804 364.913C223.294 364.577 223.539 364.108 223.539 363.506C223.539 362.302 222.622 361.7 220.788 361.7H219.234V359.453L222.258 356.03H216V353.3H226.29V355.505L222.972 359.285Z" fill="black"/><path d="M228.541 508.913H226.147V512H222.829V508.913H214.912V506.624L221.842 497.3H225.412L218.986 506.141H222.934V503.39H226.147V506.141H228.541V508.913Z" fill="black"/><path d="M221.114 646.823C223.186 646.823 224.712 647.236 225.692 648.062C226.686 648.888 227.183 649.994 227.183 651.38C227.183 652.276 226.959 653.095 226.511 653.837C226.063 654.565 225.377 655.153 224.453 655.601C223.543 656.035 222.416 656.252 221.072 656.252C220.036 656.252 219.014 656.119 218.006 655.853C217.012 655.573 216.165 655.181 215.465 654.677L216.809 652.073C217.369 652.493 218.013 652.822 218.741 653.06C219.469 653.284 220.218 653.396 220.988 653.396C221.842 653.396 222.514 653.228 223.004 652.892C223.494 652.556 223.739 652.087 223.739 651.485C223.739 650.855 223.48 650.379 222.962 650.057C222.458 649.735 221.576 649.574 220.316 649.574H216.557L217.313 641.3H226.28V644.03H220.148L219.917 646.823H221.114Z" fill="black"/><rect x="258" width="562" height="144" fill="#002D62"/><rect x="258" y="144" width="562" height="144" fill="#002D62" fill-opacity="0.8"/><rect y="144" width="185" height="144" fill="#002D62" fill-opacity="0.8"/><rect x="258" y="432" width="562" height="144" fill="#3470B7"/><rect x="258" y="576" width="562" height="144" fill="#3470B7" fill-opacity="0.8"/><rect x="258" y="288" width="562" height="144" fill="#1B58A0"/><path d="M491.114 76.85H484.289L482.987 80H479.501L486.053 65.3H489.413L495.986 80H492.416L491.114 76.85ZM490.043 74.267L487.712 68.639L485.381 74.267H490.043ZM508.686 64.418V80H505.557V78.698C504.745 79.678 503.569 80.168 502.029 80.168C500.965 80.168 499.999 79.93 499.131 79.454C498.277 78.978 497.605 78.299 497.115 77.417C496.625 76.535 496.38 75.513 496.38 74.351C496.38 73.189 496.625 72.167 497.115 71.285C497.605 70.403 498.277 69.724 499.131 69.248C499.999 68.772 500.965 68.534 502.029 68.534C503.471 68.534 504.598 68.989 505.41 69.899V64.418H508.686ZM502.596 77.48C503.422 77.48 504.108 77.2 504.654 76.64C505.2 76.066 505.473 75.303 505.473 74.351C505.473 73.399 505.2 72.643 504.654 72.083C504.108 71.509 503.422 71.222 502.596 71.222C501.756 71.222 501.063 71.509 500.517 72.083C499.971 72.643 499.698 73.399 499.698 74.351C499.698 75.303 499.971 76.066 500.517 76.64C501.063 77.2 501.756 77.48 502.596 77.48ZM522.932 68.702L518.165 80H514.784L510.038 68.702H513.419L516.548 76.388L519.782 68.702H522.932ZM535.028 74.393C535.028 74.435 535.007 74.729 534.965 75.275H526.418C526.572 75.975 526.936 76.528 527.51 76.934C528.084 77.34 528.798 77.543 529.652 77.543C530.24 77.543 530.758 77.459 531.206 77.291C531.668 77.109 532.095 76.829 532.487 76.451L534.23 78.341C533.166 79.559 531.612 80.168 529.568 80.168C528.294 80.168 527.167 79.923 526.187 79.433C525.207 78.929 524.451 78.236 523.919 77.354C523.387 76.472 523.121 75.471 523.121 74.351C523.121 73.245 523.38 72.251 523.898 71.369C524.43 70.473 525.151 69.78 526.061 69.29C526.985 68.786 528.014 68.534 529.148 68.534C530.254 68.534 531.255 68.772 532.151 69.248C533.047 69.724 533.747 70.41 534.251 71.306C534.769 72.188 535.028 73.217 535.028 74.393ZM529.169 71.012C528.427 71.012 527.804 71.222 527.3 71.642C526.796 72.062 526.488 72.636 526.376 73.364H531.941C531.829 72.65 531.521 72.083 531.017 71.663C530.513 71.229 529.897 71.012 529.169 71.012ZM540.338 70.193C540.73 69.647 541.255 69.234 541.913 68.954C542.585 68.674 543.355 68.534 544.223 68.534V71.558C543.859 71.53 543.614 71.516 543.488 71.516C542.55 71.516 541.815 71.782 541.283 72.314C540.751 72.832 540.485 73.616 540.485 74.666V80H537.209V68.702H540.338V70.193ZM553.847 79.454C553.525 79.692 553.126 79.874 552.65 80C552.188 80.112 551.698 80.168 551.18 80.168C549.836 80.168 548.793 79.825 548.051 79.139C547.323 78.453 546.959 77.445 546.959 76.115V71.474H545.216V68.954H546.959V66.203H550.235V68.954H553.049V71.474H550.235V76.073C550.235 76.549 550.354 76.92 550.592 77.186C550.844 77.438 551.194 77.564 551.642 77.564C552.16 77.564 552.601 77.424 552.965 77.144L553.847 79.454ZM555.686 68.702H558.962V80H555.686V68.702ZM557.324 67.127C556.722 67.127 556.232 66.952 555.854 66.602C555.476 66.252 555.287 65.818 555.287 65.3C555.287 64.782 555.476 64.348 555.854 63.998C556.232 63.648 556.722 63.473 557.324 63.473C557.926 63.473 558.416 63.641 558.794 63.977C559.172 64.313 559.361 64.733 559.361 65.237C559.361 65.783 559.172 66.238 558.794 66.602C558.416 66.952 557.926 67.127 557.324 67.127ZM565.804 80.168C564.866 80.168 563.949 80.056 563.053 79.832C562.157 79.594 561.443 79.3 560.911 78.95L562.003 76.598C562.507 76.92 563.116 77.186 563.83 77.396C564.544 77.592 565.244 77.69 565.93 77.69C567.316 77.69 568.009 77.347 568.009 76.661C568.009 76.339 567.82 76.108 567.442 75.968C567.064 75.828 566.483 75.709 565.699 75.611C564.775 75.471 564.012 75.31 563.41 75.128C562.808 74.946 562.283 74.624 561.835 74.162C561.401 73.7 561.184 73.042 561.184 72.188C561.184 71.474 561.387 70.844 561.793 70.298C562.213 69.738 562.815 69.304 563.599 68.996C564.397 68.688 565.335 68.534 566.413 68.534C567.211 68.534 568.002 68.625 568.786 68.807C569.584 68.975 570.242 69.213 570.76 69.521L569.668 71.852C568.674 71.292 567.589 71.012 566.413 71.012C565.713 71.012 565.188 71.11 564.838 71.306C564.488 71.502 564.313 71.754 564.313 72.062C564.313 72.412 564.502 72.657 564.88 72.797C565.258 72.937 565.86 73.07 566.686 73.196C567.61 73.35 568.366 73.518 568.954 73.7C569.542 73.868 570.053 74.183 570.487 74.645C570.921 75.107 571.138 75.751 571.138 76.577C571.138 77.277 570.928 77.9 570.508 78.446C570.088 78.992 569.472 79.419 568.66 79.727C567.862 80.021 566.91 80.168 565.804 80.168ZM573.159 68.702H576.435V80H573.159V68.702ZM574.797 67.127C574.195 67.127 573.705 66.952 573.327 66.602C572.949 66.252 572.76 65.818 572.76 65.3C572.76 64.782 572.949 64.348 573.327 63.998C573.705 63.648 574.195 63.473 574.797 63.473C575.399 63.473 575.889 63.641 576.267 63.977C576.645 64.313 576.834 64.733 576.834 65.237C576.834 65.783 576.645 66.238 576.267 66.602C575.889 66.952 575.399 67.127 574.797 67.127ZM586.342 68.534C587.742 68.534 588.869 68.954 589.723 69.794C590.591 70.634 591.025 71.88 591.025 73.532V80H587.749V74.036C587.749 73.14 587.553 72.475 587.161 72.041C586.769 71.593 586.202 71.369 585.46 71.369C584.634 71.369 583.976 71.628 583.486 72.146C582.996 72.65 582.751 73.406 582.751 74.414V80H579.475V68.702H582.604V70.025C583.038 69.549 583.577 69.185 584.221 68.933C584.865 68.667 585.572 68.534 586.342 68.534ZM605.773 68.702V78.11C605.773 80.182 605.234 81.722 604.156 82.73C603.078 83.738 601.503 84.242 599.431 84.242C598.339 84.242 597.303 84.109 596.323 83.843C595.343 83.577 594.531 83.192 593.887 82.688L595.189 80.336C595.665 80.728 596.267 81.036 596.995 81.26C597.723 81.498 598.451 81.617 599.179 81.617C600.313 81.617 601.146 81.358 601.678 80.84C602.224 80.336 602.497 79.566 602.497 78.53V78.047C601.643 78.985 600.453 79.454 598.927 79.454C597.891 79.454 596.939 79.23 596.071 78.782C595.217 78.32 594.538 77.676 594.034 76.85C593.53 76.024 593.278 75.072 593.278 73.994C593.278 72.916 593.53 71.964 594.034 71.138C594.538 70.312 595.217 69.675 596.071 69.227C596.939 68.765 597.891 68.534 598.927 68.534C600.565 68.534 601.811 69.073 602.665 70.151V68.702H605.773ZM599.578 76.766C600.446 76.766 601.153 76.514 601.699 76.01C602.259 75.492 602.539 74.82 602.539 73.994C602.539 73.168 602.259 72.503 601.699 71.999C601.153 71.481 600.446 71.222 599.578 71.222C598.71 71.222 597.996 71.481 597.436 71.999C596.876 72.503 596.596 73.168 596.596 73.994C596.596 74.82 596.876 75.492 597.436 76.01C597.996 76.514 598.71 76.766 599.578 76.766Z" fill="white"/><path d="M439.652 224L436.817 219.905H436.649H433.688V224H430.286V209.3H436.649C437.951 209.3 439.078 209.517 440.03 209.951C440.996 210.385 441.738 211.001 442.256 211.799C442.774 212.597 443.033 213.542 443.033 214.634C443.033 215.726 442.767 216.671 442.235 217.469C441.717 218.253 440.975 218.855 440.009 219.275L443.306 224H439.652ZM439.589 214.634C439.589 213.808 439.323 213.178 438.791 212.744C438.259 212.296 437.482 212.072 436.46 212.072H433.688V217.196H436.46C437.482 217.196 438.259 216.972 438.791 216.524C439.323 216.076 439.589 215.446 439.589 214.634ZM456.565 218.393C456.565 218.435 456.544 218.729 456.502 219.275H447.955C448.109 219.975 448.473 220.528 449.047 220.934C449.621 221.34 450.335 221.543 451.189 221.543C451.777 221.543 452.295 221.459 452.743 221.291C453.205 221.109 453.632 220.829 454.024 220.451L455.767 222.341C454.703 223.559 453.149 224.168 451.105 224.168C449.831 224.168 448.704 223.923 447.724 223.433C446.744 222.929 445.988 222.236 445.456 221.354C444.924 220.472 444.658 219.471 444.658 218.351C444.658 217.245 444.917 216.251 445.435 215.369C445.967 214.473 446.688 213.78 447.598 213.29C448.522 212.786 449.551 212.534 450.685 212.534C451.791 212.534 452.792 212.772 453.688 213.248C454.584 213.724 455.284 214.41 455.788 215.306C456.306 216.188 456.565 217.217 456.565 218.393ZM450.706 215.012C449.964 215.012 449.341 215.222 448.837 215.642C448.333 216.062 448.025 216.636 447.913 217.364H453.478C453.366 216.65 453.058 216.083 452.554 215.663C452.05 215.229 451.434 215.012 450.706 215.012ZM464.206 224.168C463.002 224.168 461.917 223.923 460.951 223.433C459.999 222.929 459.25 222.236 458.704 221.354C458.172 220.472 457.906 219.471 457.906 218.351C457.906 217.231 458.172 216.23 458.704 215.348C459.25 214.466 459.999 213.78 460.951 213.29C461.917 212.786 463.002 212.534 464.206 212.534C465.396 212.534 466.432 212.786 467.314 213.29C468.21 213.78 468.861 214.487 469.267 215.411L466.726 216.776C466.138 215.74 465.291 215.222 464.185 215.222C463.331 215.222 462.624 215.502 462.064 216.062C461.504 216.622 461.224 217.385 461.224 218.351C461.224 219.317 461.504 220.08 462.064 220.64C462.624 221.2 463.331 221.48 464.185 221.48C465.305 221.48 466.152 220.962 466.726 219.926L469.267 221.312C468.861 222.208 468.21 222.908 467.314 223.412C466.432 223.916 465.396 224.168 464.206 224.168ZM482.077 218.393C482.077 218.435 482.056 218.729 482.014 219.275H473.467C473.621 219.975 473.985 220.528 474.559 220.934C475.133 221.34 475.847 221.543 476.701 221.543C477.289 221.543 477.807 221.459 478.255 221.291C478.717 221.109 479.144 220.829 479.536 220.451L481.279 222.341C480.215 223.559 478.661 224.168 476.617 224.168C475.343 224.168 474.216 223.923 473.236 223.433C472.256 222.929 471.5 222.236 470.968 221.354C470.436 220.472 470.17 219.471 470.17 218.351C470.17 217.245 470.429 216.251 470.947 215.369C471.479 214.473 472.2 213.78 473.11 213.29C474.034 212.786 475.063 212.534 476.197 212.534C477.303 212.534 478.304 212.772 479.2 213.248C480.096 213.724 480.796 214.41 481.3 215.306C481.818 216.188 482.077 217.217 482.077 218.393ZM476.218 215.012C475.476 215.012 474.853 215.222 474.349 215.642C473.845 216.062 473.537 216.636 473.425 217.364H478.99C478.878 216.65 478.57 216.083 478.066 215.663C477.562 215.229 476.946 215.012 476.218 215.012ZM484.258 212.702H487.534V224H484.258V212.702ZM485.896 211.127C485.294 211.127 484.804 210.952 484.426 210.602C484.048 210.252 483.859 209.818 483.859 209.3C483.859 208.782 484.048 208.348 484.426 207.998C484.804 207.648 485.294 207.473 485.896 207.473C486.498 207.473 486.988 207.641 487.366 207.977C487.744 208.313 487.933 208.733 487.933 209.237C487.933 209.783 487.744 210.238 487.366 210.602C486.988 210.952 486.498 211.127 485.896 211.127ZM501.788 212.702L497.021 224H493.64L488.894 212.702H492.275L495.404 220.388L498.638 212.702H501.788ZM513.884 218.393C513.884 218.435 513.863 218.729 513.821 219.275H505.274C505.428 219.975 505.792 220.528 506.366 220.934C506.94 221.34 507.654 221.543 508.508 221.543C509.096 221.543 509.614 221.459 510.062 221.291C510.524 221.109 510.951 220.829 511.343 220.451L513.086 222.341C512.022 223.559 510.468 224.168 508.424 224.168C507.15 224.168 506.023 223.923 505.043 223.433C504.063 222.929 503.307 222.236 502.775 221.354C502.243 220.472 501.977 219.471 501.977 218.351C501.977 217.245 502.236 216.251 502.754 215.369C503.286 214.473 504.007 213.78 504.917 213.29C505.841 212.786 506.87 212.534 508.004 212.534C509.11 212.534 510.111 212.772 511.007 213.248C511.903 213.724 512.603 214.41 513.107 215.306C513.625 216.188 513.884 217.217 513.884 218.393ZM508.025 215.012C507.283 215.012 506.66 215.222 506.156 215.642C505.652 216.062 505.344 216.636 505.232 217.364H510.797C510.685 216.65 510.377 216.083 509.873 215.663C509.369 215.229 508.753 215.012 508.025 215.012ZM531.924 220.85H525.099L523.797 224H520.311L526.863 209.3H530.223L536.796 224H533.226L531.924 220.85ZM530.853 218.267L528.522 212.639L526.191 218.267H530.853ZM544.769 212.534C545.819 212.534 546.771 212.779 547.625 213.269C548.493 213.745 549.172 214.424 549.662 215.306C550.152 216.174 550.397 217.189 550.397 218.351C550.397 219.513 550.152 220.535 549.662 221.417C549.172 222.285 548.493 222.964 547.625 223.454C546.771 223.93 545.819 224.168 544.769 224.168C543.327 224.168 542.193 223.713 541.367 222.803V228.074H538.091V212.702H541.22V214.004C542.032 213.024 543.215 212.534 544.769 212.534ZM544.202 221.48C545.042 221.48 545.728 221.2 546.26 220.64C546.806 220.066 547.079 219.303 547.079 218.351C547.079 217.399 546.806 216.643 546.26 216.083C545.728 215.509 545.042 215.222 544.202 215.222C543.362 215.222 542.669 215.509 542.123 216.083C541.591 216.643 541.325 217.399 541.325 218.351C541.325 219.303 541.591 220.066 542.123 220.64C542.669 221.2 543.362 221.48 544.202 221.48ZM559.268 212.534C560.318 212.534 561.27 212.779 562.124 213.269C562.992 213.745 563.671 214.424 564.161 215.306C564.651 216.174 564.896 217.189 564.896 218.351C564.896 219.513 564.651 220.535 564.161 221.417C563.671 222.285 562.992 222.964 562.124 223.454C561.27 223.93 560.318 224.168 559.268 224.168C557.826 224.168 556.692 223.713 555.866 222.803V228.074H552.59V212.702H555.719V214.004C556.531 213.024 557.714 212.534 559.268 212.534ZM558.701 221.48C559.541 221.48 560.227 221.2 560.759 220.64C561.305 220.066 561.578 219.303 561.578 218.351C561.578 217.399 561.305 216.643 560.759 216.083C560.227 215.509 559.541 215.222 558.701 215.222C557.861 215.222 557.168 215.509 556.622 216.083C556.09 216.643 555.824 217.399 555.824 218.351C555.824 219.303 556.09 220.066 556.622 220.64C557.168 221.2 557.861 221.48 558.701 221.48ZM567.089 208.418H570.365V224H567.089V208.418ZM573.405 212.702H576.681V224H573.405V212.702ZM575.043 211.127C574.441 211.127 573.951 210.952 573.573 210.602C573.195 210.252 573.006 209.818 573.006 209.3C573.006 208.782 573.195 208.348 573.573 207.998C573.951 207.648 574.441 207.473 575.043 207.473C575.645 207.473 576.135 207.641 576.513 207.977C576.891 208.313 577.08 208.733 577.08 209.237C577.08 209.783 576.891 210.238 576.513 210.602C576.135 210.952 575.645 211.127 575.043 211.127ZM585.181 224.168C583.977 224.168 582.892 223.923 581.926 223.433C580.974 222.929 580.225 222.236 579.679 221.354C579.147 220.472 578.881 219.471 578.881 218.351C578.881 217.231 579.147 216.23 579.679 215.348C580.225 214.466 580.974 213.78 581.926 213.29C582.892 212.786 583.977 212.534 585.181 212.534C586.371 212.534 587.407 212.786 588.289 213.29C589.185 213.78 589.836 214.487 590.242 215.411L587.701 216.776C587.113 215.74 586.266 215.222 585.16 215.222C584.306 215.222 583.599 215.502 583.039 216.062C582.479 216.622 582.199 217.385 582.199 218.351C582.199 219.317 582.479 220.08 583.039 220.64C583.599 221.2 584.306 221.48 585.16 221.48C586.28 221.48 587.127 220.962 587.701 219.926L590.242 221.312C589.836 222.208 589.185 222.908 588.289 223.412C587.407 223.916 586.371 224.168 585.181 224.168ZM596.686 212.534C598.436 212.534 599.78 212.954 600.718 213.794C601.656 214.62 602.125 215.873 602.125 217.553V224H599.059V222.593C598.443 223.643 597.295 224.168 595.615 224.168C594.747 224.168 593.991 224.021 593.347 223.727C592.717 223.433 592.234 223.027 591.898 222.509C591.562 221.991 591.394 221.403 591.394 220.745C591.394 219.695 591.786 218.869 592.57 218.267C593.368 217.665 594.593 217.364 596.245 217.364H598.849C598.849 216.65 598.632 216.104 598.198 215.726C597.764 215.334 597.113 215.138 596.245 215.138C595.643 215.138 595.048 215.236 594.46 215.432C593.886 215.614 593.396 215.866 592.99 216.188L591.814 213.899C592.43 213.465 593.165 213.129 594.019 212.891C594.887 212.653 595.776 212.534 596.686 212.534ZM596.434 221.963C596.994 221.963 597.491 221.837 597.925 221.585C598.359 221.319 598.667 220.934 598.849 220.43V219.275H596.602C595.258 219.275 594.586 219.716 594.586 220.598C594.586 221.018 594.747 221.354 595.069 221.606C595.405 221.844 595.86 221.963 596.434 221.963ZM612.377 223.454C612.055 223.692 611.656 223.874 611.18 224C610.718 224.112 610.228 224.168 609.71 224.168C608.366 224.168 607.323 223.825 606.581 223.139C605.853 222.453 605.489 221.445 605.489 220.115V215.474H603.746V212.954H605.489V210.203H608.765V212.954H611.579V215.474H608.765V220.073C608.765 220.549 608.884 220.92 609.122 221.186C609.374 221.438 609.724 221.564 610.172 221.564C610.69 221.564 611.131 221.424 611.495 221.144L612.377 223.454ZM614.216 212.702H617.492V224H614.216V212.702ZM615.854 211.127C615.252 211.127 614.762 210.952 614.384 210.602C614.006 210.252 613.817 209.818 613.817 209.3C613.817 208.782 614.006 208.348 614.384 207.998C614.762 207.648 615.252 207.473 615.854 207.473C616.456 207.473 616.946 207.641 617.324 207.977C617.702 208.313 617.891 208.733 617.891 209.237C617.891 209.783 617.702 210.238 617.324 210.602C616.946 210.952 616.456 211.127 615.854 211.127ZM625.908 224.168C624.718 224.168 623.647 223.923 622.695 223.433C621.757 222.929 621.022 222.236 620.49 221.354C619.958 220.472 619.692 219.471 619.692 218.351C619.692 217.231 619.958 216.23 620.49 215.348C621.022 214.466 621.757 213.78 622.695 213.29C623.647 212.786 624.718 212.534 625.908 212.534C627.098 212.534 628.162 212.786 629.1 213.29C630.038 213.78 630.773 214.466 631.305 215.348C631.837 216.23 632.103 217.231 632.103 218.351C632.103 219.471 631.837 220.472 631.305 221.354C630.773 222.236 630.038 222.929 629.1 223.433C628.162 223.923 627.098 224.168 625.908 224.168ZM625.908 221.48C626.748 221.48 627.434 221.2 627.966 220.64C628.512 220.066 628.785 219.303 628.785 218.351C628.785 217.399 628.512 216.643 627.966 216.083C627.434 215.509 626.748 215.222 625.908 215.222C625.068 215.222 624.375 215.509 623.829 216.083C623.283 216.643 623.01 217.399 623.01 218.351C623.01 219.303 623.283 220.066 623.829 220.64C624.375 221.2 625.068 221.48 625.908 221.48ZM641.16 212.534C642.56 212.534 643.687 212.954 644.541 213.794C645.409 214.634 645.843 215.88 645.843 217.532V224H642.567V218.036C642.567 217.14 642.371 216.475 641.979 216.041C641.587 215.593 641.02 215.369 640.278 215.369C639.452 215.369 638.794 215.628 638.304 216.146C637.814 216.65 637.569 217.406 637.569 218.414V224H634.293V212.702H637.422V214.025C637.856 213.549 638.395 213.185 639.039 212.933C639.683 212.667 640.39 212.534 641.16 212.534ZM652.613 224.168C651.675 224.168 650.758 224.056 649.862 223.832C648.966 223.594 648.252 223.3 647.72 222.95L648.812 220.598C649.316 220.92 649.925 221.186 650.639 221.396C651.353 221.592 652.053 221.69 652.739 221.69C654.125 221.69 654.818 221.347 654.818 220.661C654.818 220.339 654.629 220.108 654.251 219.968C653.873 219.828 653.292 219.709 652.508 219.611C651.584 219.471 650.821 219.31 650.219 219.128C649.617 218.946 649.092 218.624 648.644 218.162C648.21 217.7 647.993 217.042 647.993 216.188C647.993 215.474 648.196 214.844 648.602 214.298C649.022 213.738 649.624 213.304 650.408 212.996C651.206 212.688 652.144 212.534 653.222 212.534C654.02 212.534 654.811 212.625 655.595 212.807C656.393 212.975 657.051 213.213 657.569 213.521L656.477 215.852C655.483 215.292 654.398 215.012 653.222 215.012C652.522 215.012 651.997 215.11 651.647 215.306C651.297 215.502 651.122 215.754 651.122 216.062C651.122 216.412 651.311 216.657 651.689 216.797C652.067 216.937 652.669 217.07 653.495 217.196C654.419 217.35 655.175 217.518 655.763 217.7C656.351 217.868 656.862 218.183 657.296 218.645C657.73 219.107 657.947 219.751 657.947 220.577C657.947 221.277 657.737 221.9 657.317 222.446C656.897 222.992 656.281 223.419 655.469 223.727C654.671 224.021 653.719 224.168 652.613 224.168Z" fill="white"/><path d="M444.591 512.252C443.093 512.252 441.735 511.93 440.517 511.286C439.313 510.628 438.361 509.725 437.661 508.577C436.975 507.415 436.632 506.106 436.632 504.65C436.632 503.194 436.975 501.892 437.661 500.744C438.361 499.582 439.313 498.679 440.517 498.035C441.735 497.377 443.1 497.048 444.612 497.048C445.886 497.048 447.034 497.272 448.056 497.72C449.092 498.168 449.96 498.812 450.66 499.652L448.476 501.668C447.482 500.52 446.25 499.946 444.78 499.946C443.87 499.946 443.058 500.149 442.344 500.555C441.63 500.947 441.07 501.5 440.664 502.214C440.272 502.928 440.076 503.74 440.076 504.65C440.076 505.56 440.272 506.372 440.664 507.086C441.07 507.8 441.63 508.36 442.344 508.766C443.058 509.158 443.87 509.354 444.78 509.354C446.25 509.354 447.482 508.773 448.476 507.611L450.66 509.627C449.96 510.481 449.092 511.132 448.056 511.58C447.02 512.028 445.865 512.252 444.591 512.252ZM457.713 512.168C456.523 512.168 455.452 511.923 454.5 511.433C453.562 510.929 452.827 510.236 452.295 509.354C451.763 508.472 451.497 507.471 451.497 506.351C451.497 505.231 451.763 504.23 452.295 503.348C452.827 502.466 453.562 501.78 454.5 501.29C455.452 500.786 456.523 500.534 457.713 500.534C458.903 500.534 459.967 500.786 460.905 501.29C461.843 501.78 462.578 502.466 463.11 503.348C463.642 504.23 463.908 505.231 463.908 506.351C463.908 507.471 463.642 508.472 463.11 509.354C462.578 510.236 461.843 510.929 460.905 511.433C459.967 511.923 458.903 512.168 457.713 512.168ZM457.713 509.48C458.553 509.48 459.239 509.2 459.771 508.64C460.317 508.066 460.59 507.303 460.59 506.351C460.59 505.399 460.317 504.643 459.771 504.083C459.239 503.509 458.553 503.222 457.713 503.222C456.873 503.222 456.18 503.509 455.634 504.083C455.088 504.643 454.815 505.399 454.815 506.351C454.815 507.303 455.088 508.066 455.634 508.64C456.18 509.2 456.873 509.48 457.713 509.48ZM472.965 500.534C474.365 500.534 475.492 500.954 476.346 501.794C477.214 502.634 477.648 503.88 477.648 505.532V512H474.372V506.036C474.372 505.14 474.176 504.475 473.784 504.041C473.392 503.593 472.825 503.369 472.083 503.369C471.257 503.369 470.599 503.628 470.109 504.146C469.619 504.65 469.374 505.406 469.374 506.414V512H466.098V500.702H469.227V502.025C469.661 501.549 470.2 501.185 470.844 500.933C471.488 500.667 472.195 500.534 472.965 500.534ZM492.249 496.418V512H489.12V510.698C488.308 511.678 487.132 512.168 485.592 512.168C484.528 512.168 483.562 511.93 482.694 511.454C481.84 510.978 481.168 510.299 480.678 509.417C480.188 508.535 479.943 507.513 479.943 506.351C479.943 505.189 480.188 504.167 480.678 503.285C481.168 502.403 481.84 501.724 482.694 501.248C483.562 500.772 484.528 500.534 485.592 500.534C487.034 500.534 488.161 500.989 488.973 501.899V496.418H492.249ZM486.159 509.48C486.985 509.48 487.671 509.2 488.217 508.64C488.763 508.066 489.036 507.303 489.036 506.351C489.036 505.399 488.763 504.643 488.217 504.083C487.671 503.509 486.985 503.222 486.159 503.222C485.319 503.222 484.626 503.509 484.08 504.083C483.534 504.643 483.261 505.399 483.261 506.351C483.261 507.303 483.534 508.066 484.08 508.64C484.626 509.2 485.319 509.48 486.159 509.48ZM506.663 500.702V512H503.555V510.656C503.121 511.146 502.603 511.524 502.001 511.79C501.399 512.042 500.748 512.168 500.048 512.168C498.564 512.168 497.388 511.741 496.52 510.887C495.652 510.033 495.218 508.766 495.218 507.086V500.702H498.494V506.603C498.494 508.423 499.257 509.333 500.783 509.333C501.567 509.333 502.197 509.081 502.673 508.577C503.149 508.059 503.387 507.296 503.387 506.288V500.702H506.663ZM515.158 512.168C513.954 512.168 512.869 511.923 511.903 511.433C510.951 510.929 510.202 510.236 509.656 509.354C509.124 508.472 508.858 507.471 508.858 506.351C508.858 505.231 509.124 504.23 509.656 503.348C510.202 502.466 510.951 501.78 511.903 501.29C512.869 500.786 513.954 500.534 515.158 500.534C516.348 500.534 517.384 500.786 518.266 501.29C519.162 501.78 519.813 502.487 520.219 503.411L517.678 504.776C517.09 503.74 516.243 503.222 515.137 503.222C514.283 503.222 513.576 503.502 513.016 504.062C512.456 504.622 512.176 505.385 512.176 506.351C512.176 507.317 512.456 508.08 513.016 508.64C513.576 509.2 514.283 509.48 515.137 509.48C516.257 509.48 517.104 508.962 517.678 507.926L520.219 509.312C519.813 510.208 519.162 510.908 518.266 511.412C517.384 511.916 516.348 512.168 515.158 512.168ZM529.556 511.454C529.234 511.692 528.835 511.874 528.359 512C527.897 512.112 527.407 512.168 526.889 512.168C525.545 512.168 524.502 511.825 523.76 511.139C523.032 510.453 522.668 509.445 522.668 508.115V503.474H520.925V500.954H522.668V498.203H525.944V500.954H528.758V503.474H525.944V508.073C525.944 508.549 526.063 508.92 526.301 509.186C526.553 509.438 526.903 509.564 527.351 509.564C527.869 509.564 528.31 509.424 528.674 509.144L529.556 511.454ZM537.573 497.3H540.975V512H537.573V497.3ZM551.1 500.534C552.5 500.534 553.627 500.954 554.481 501.794C555.349 502.634 555.783 503.88 555.783 505.532V512H552.507V506.036C552.507 505.14 552.311 504.475 551.919 504.041C551.527 503.593 550.96 503.369 550.218 503.369C549.392 503.369 548.734 503.628 548.244 504.146C547.754 504.65 547.509 505.406 547.509 506.414V512H544.233V500.702H547.362V502.025C547.796 501.549 548.335 501.185 548.979 500.933C549.623 500.667 550.33 500.534 551.1 500.534ZM566.039 511.454C565.717 511.692 565.318 511.874 564.842 512C564.38 512.112 563.89 512.168 563.372 512.168C562.028 512.168 560.985 511.825 560.243 511.139C559.515 510.453 559.151 509.445 559.151 508.115V503.474H557.408V500.954H559.151V498.203H562.427V500.954H565.241V503.474H562.427V508.073C562.427 508.549 562.546 508.92 562.784 509.186C563.036 509.438 563.386 509.564 563.834 509.564C564.352 509.564 564.793 509.424 565.157 509.144L566.039 511.454ZM578.597 506.393C578.597 506.435 578.576 506.729 578.534 507.275H569.987C570.141 507.975 570.505 508.528 571.079 508.934C571.653 509.34 572.367 509.543 573.221 509.543C573.809 509.543 574.327 509.459 574.775 509.291C575.237 509.109 575.664 508.829 576.056 508.451L577.799 510.341C576.735 511.559 575.181 512.168 573.137 512.168C571.863 512.168 570.736 511.923 569.756 511.433C568.776 510.929 568.02 510.236 567.488 509.354C566.956 508.472 566.69 507.471 566.69 506.351C566.69 505.245 566.949 504.251 567.467 503.369C567.999 502.473 568.72 501.78 569.63 501.29C570.554 500.786 571.583 500.534 572.717 500.534C573.823 500.534 574.824 500.772 575.72 501.248C576.616 501.724 577.316 502.41 577.82 503.306C578.338 504.188 578.597 505.217 578.597 506.393ZM572.738 503.012C571.996 503.012 571.373 503.222 570.869 503.642C570.365 504.062 570.057 504.636 569.945 505.364H575.51C575.398 504.65 575.09 504.083 574.586 503.663C574.082 503.229 573.466 503.012 572.738 503.012ZM583.907 502.193C584.299 501.647 584.824 501.234 585.482 500.954C586.154 500.674 586.924 500.534 587.792 500.534V503.558C587.428 503.53 587.183 503.516 587.057 503.516C586.119 503.516 585.384 503.782 584.852 504.314C584.32 504.832 584.054 505.616 584.054 506.666V512H580.778V500.702H583.907V502.193ZM601.343 500.702L596.576 512H593.195L588.449 500.702H591.83L594.959 508.388L598.193 500.702H601.343ZM602.68 500.702H605.956V512H602.68V500.702ZM604.318 499.127C603.716 499.127 603.226 498.952 602.848 498.602C602.47 498.252 602.281 497.818 602.281 497.3C602.281 496.782 602.47 496.348 602.848 495.998C603.226 495.648 603.716 495.473 604.318 495.473C604.92 495.473 605.41 495.641 605.788 495.977C606.166 496.313 606.355 496.733 606.355 497.237C606.355 497.783 606.166 498.238 605.788 498.602C605.41 498.952 604.92 499.127 604.318 499.127ZM620.063 506.393C620.063 506.435 620.042 506.729 620 507.275H611.453C611.607 507.975 611.971 508.528 612.545 508.934C613.119 509.34 613.833 509.543 614.687 509.543C615.275 509.543 615.793 509.459 616.241 509.291C616.703 509.109 617.13 508.829 617.522 508.451L619.265 510.341C618.201 511.559 616.647 512.168 614.603 512.168C613.329 512.168 612.202 511.923 611.222 511.433C610.242 510.929 609.486 510.236 608.954 509.354C608.422 508.472 608.156 507.471 608.156 506.351C608.156 505.245 608.415 504.251 608.933 503.369C609.465 502.473 610.186 501.78 611.096 501.29C612.02 500.786 613.049 500.534 614.183 500.534C615.289 500.534 616.29 500.772 617.186 501.248C618.082 501.724 618.782 502.41 619.286 503.306C619.804 504.188 620.063 505.217 620.063 506.393ZM614.204 503.012C613.462 503.012 612.839 503.222 612.335 503.642C611.831 504.062 611.523 504.636 611.411 505.364H616.976C616.864 504.65 616.556 504.083 616.052 503.663C615.548 503.229 614.932 503.012 614.204 503.012ZM640.183 500.702L636.088 512H632.938L630.397 504.986L627.772 512H624.622L620.548 500.702H623.635L626.302 508.346L629.074 500.702H631.846L634.534 508.346L637.285 500.702H640.183ZM645.343 512.168C644.405 512.168 643.488 512.056 642.592 511.832C641.696 511.594 640.982 511.3 640.45 510.95L641.542 508.598C642.046 508.92 642.655 509.186 643.369 509.396C644.083 509.592 644.783 509.69 645.469 509.69C646.855 509.69 647.548 509.347 647.548 508.661C647.548 508.339 647.359 508.108 646.981 507.968C646.603 507.828 646.022 507.709 645.238 507.611C644.314 507.471 643.551 507.31 642.949 507.128C642.347 506.946 641.822 506.624 641.374 506.162C640.94 505.7 640.723 505.042 640.723 504.188C640.723 503.474 640.926 502.844 641.332 502.298C641.752 501.738 642.354 501.304 643.138 500.996C643.936 500.688 644.874 500.534 645.952 500.534C646.75 500.534 647.541 500.625 648.325 500.807C649.123 500.975 649.781 501.213 650.299 501.521L649.207 503.852C648.213 503.292 647.128 503.012 645.952 503.012C645.252 503.012 644.727 503.11 644.377 503.306C644.027 503.502 643.852 503.754 643.852 504.062C643.852 504.412 644.041 504.657 644.419 504.797C644.797 504.937 645.399 505.07 646.225 505.196C647.149 505.35 647.905 505.518 648.493 505.7C649.081 505.868 649.592 506.183 650.026 506.645C650.46 507.107 650.677 507.751 650.677 508.577C650.677 509.277 650.467 509.9 650.047 510.446C649.627 510.992 649.011 511.419 648.199 511.727C647.401 512.021 646.449 512.168 645.343 512.168Z" fill="white"/><path d="M405.562 641.3V656H402.769L395.44 647.075V656H392.08V641.3H394.894L402.202 650.225V641.3H405.562ZM414.185 656.168C412.995 656.168 411.924 655.923 410.972 655.433C410.034 654.929 409.299 654.236 408.767 653.354C408.235 652.472 407.969 651.471 407.969 650.351C407.969 649.231 408.235 648.23 408.767 647.348C409.299 646.466 410.034 645.78 410.972 645.29C411.924 644.786 412.995 644.534 414.185 644.534C415.375 644.534 416.439 644.786 417.377 645.29C418.315 645.78 419.05 646.466 419.582 647.348C420.114 648.23 420.38 649.231 420.38 650.351C420.38 651.471 420.114 652.472 419.582 653.354C419.05 654.236 418.315 654.929 417.377 655.433C416.439 655.923 415.375 656.168 414.185 656.168ZM414.185 653.48C415.025 653.48 415.711 653.2 416.243 652.64C416.789 652.066 417.062 651.303 417.062 650.351C417.062 649.399 416.789 648.643 416.243 648.083C415.711 647.509 415.025 647.222 414.185 647.222C413.345 647.222 412.652 647.509 412.106 648.083C411.56 648.643 411.287 649.399 411.287 650.351C411.287 651.303 411.56 652.066 412.106 652.64C412.652 653.2 413.345 653.48 414.185 653.48ZM429.857 655.454C429.535 655.692 429.136 655.874 428.66 656C428.198 656.112 427.708 656.168 427.19 656.168C425.846 656.168 424.803 655.825 424.061 655.139C423.333 654.453 422.969 653.445 422.969 652.115V647.474H421.226V644.954H422.969V642.203H426.245V644.954H429.059V647.474H426.245V652.073C426.245 652.549 426.364 652.92 426.602 653.186C426.854 653.438 427.204 653.564 427.652 653.564C428.17 653.564 428.611 653.424 428.975 653.144L429.857 655.454ZM431.696 644.702H434.972V656H431.696V644.702ZM433.334 643.127C432.732 643.127 432.242 642.952 431.864 642.602C431.486 642.252 431.297 641.818 431.297 641.3C431.297 640.782 431.486 640.348 431.864 639.998C432.242 639.648 432.732 639.473 433.334 639.473C433.936 639.473 434.426 639.641 434.804 639.977C435.182 640.313 435.371 640.733 435.371 641.237C435.371 641.783 435.182 642.238 434.804 642.602C434.426 642.952 433.936 643.127 433.334 643.127ZM441.603 644.954H444.501V647.474H441.687V656H438.411V647.474H436.668V644.954H438.411V644.45C438.411 643.162 438.789 642.14 439.545 641.384C440.315 640.628 441.393 640.25 442.779 640.25C443.269 640.25 443.731 640.306 444.165 640.418C444.613 640.516 444.984 640.663 445.278 640.859L444.417 643.232C444.039 642.966 443.598 642.833 443.094 642.833C442.1 642.833 441.603 643.379 441.603 644.471V644.954ZM457.553 644.702L452.45 656.693C451.932 657.995 451.288 658.912 450.518 659.444C449.762 659.976 448.845 660.242 447.767 660.242C447.179 660.242 446.598 660.151 446.024 659.969C445.45 659.787 444.981 659.535 444.617 659.213L445.814 656.882C446.066 657.106 446.353 657.281 446.675 657.407C447.011 657.533 447.34 657.596 447.662 657.596C448.11 657.596 448.474 657.484 448.754 657.26C449.034 657.05 449.286 656.693 449.51 656.189L449.552 656.084L444.659 644.702H448.04L451.211 652.367L454.403 644.702H457.553ZM474.749 652.85H467.924L466.622 656H463.136L469.688 641.3H473.048L479.621 656H476.051L474.749 652.85ZM473.678 650.267L471.347 644.639L469.016 650.267H473.678ZM487.593 644.534C488.643 644.534 489.595 644.779 490.449 645.269C491.317 645.745 491.996 646.424 492.486 647.306C492.976 648.174 493.221 649.189 493.221 650.351C493.221 651.513 492.976 652.535 492.486 653.417C491.996 654.285 491.317 654.964 490.449 655.454C489.595 655.93 488.643 656.168 487.593 656.168C486.151 656.168 485.017 655.713 484.191 654.803V660.074H480.915V644.702H484.044V646.004C484.856 645.024 486.039 644.534 487.593 644.534ZM487.026 653.48C487.866 653.48 488.552 653.2 489.084 652.64C489.63 652.066 489.903 651.303 489.903 650.351C489.903 649.399 489.63 648.643 489.084 648.083C488.552 647.509 487.866 647.222 487.026 647.222C486.186 647.222 485.493 647.509 484.947 648.083C484.415 648.643 484.149 649.399 484.149 650.351C484.149 651.303 484.415 652.066 484.947 652.64C485.493 653.2 486.186 653.48 487.026 653.48ZM502.092 644.534C503.142 644.534 504.094 644.779 504.948 645.269C505.816 645.745 506.495 646.424 506.985 647.306C507.475 648.174 507.72 649.189 507.72 650.351C507.72 651.513 507.475 652.535 506.985 653.417C506.495 654.285 505.816 654.964 504.948 655.454C504.094 655.93 503.142 656.168 502.092 656.168C500.65 656.168 499.516 655.713 498.69 654.803V660.074H495.414V644.702H498.543V646.004C499.355 645.024 500.538 644.534 502.092 644.534ZM501.525 653.48C502.365 653.48 503.051 653.2 503.583 652.64C504.129 652.066 504.402 651.303 504.402 650.351C504.402 649.399 504.129 648.643 503.583 648.083C503.051 647.509 502.365 647.222 501.525 647.222C500.685 647.222 499.992 647.509 499.446 648.083C498.914 648.643 498.648 649.399 498.648 650.351C498.648 651.303 498.914 652.066 499.446 652.64C499.992 653.2 500.685 653.48 501.525 653.48ZM509.913 640.418H513.189V656H509.913V640.418ZM516.229 644.702H519.505V656H516.229V644.702ZM517.867 643.127C517.265 643.127 516.775 642.952 516.397 642.602C516.019 642.252 515.83 641.818 515.83 641.3C515.83 640.782 516.019 640.348 516.397 639.998C516.775 639.648 517.265 639.473 517.867 639.473C518.469 639.473 518.959 639.641 519.337 639.977C519.715 640.313 519.904 640.733 519.904 641.237C519.904 641.783 519.715 642.238 519.337 642.602C518.959 642.952 518.469 643.127 517.867 643.127ZM528.006 656.168C526.802 656.168 525.717 655.923 524.751 655.433C523.799 654.929 523.05 654.236 522.504 653.354C521.972 652.472 521.706 651.471 521.706 650.351C521.706 649.231 521.972 648.23 522.504 647.348C523.05 646.466 523.799 645.78 524.751 645.29C525.717 644.786 526.802 644.534 528.006 644.534C529.196 644.534 530.232 644.786 531.114 645.29C532.01 645.78 532.661 646.487 533.067 647.411L530.526 648.776C529.938 647.74 529.091 647.222 527.985 647.222C527.131 647.222 526.424 647.502 525.864 648.062C525.304 648.622 525.024 649.385 525.024 650.351C525.024 651.317 525.304 652.08 525.864 652.64C526.424 653.2 527.131 653.48 527.985 653.48C529.105 653.48 529.952 652.962 530.526 651.926L533.067 653.312C532.661 654.208 532.01 654.908 531.114 655.412C530.232 655.916 529.196 656.168 528.006 656.168ZM539.51 644.534C541.26 644.534 542.604 644.954 543.542 645.794C544.48 646.62 544.949 647.873 544.949 649.553V656H541.883V654.593C541.267 655.643 540.119 656.168 538.439 656.168C537.571 656.168 536.815 656.021 536.171 655.727C535.541 655.433 535.058 655.027 534.722 654.509C534.386 653.991 534.218 653.403 534.218 652.745C534.218 651.695 534.61 650.869 535.394 650.267C536.192 649.665 537.417 649.364 539.069 649.364H541.673C541.673 648.65 541.456 648.104 541.022 647.726C540.588 647.334 539.937 647.138 539.069 647.138C538.467 647.138 537.872 647.236 537.284 647.432C536.71 647.614 536.22 647.866 535.814 648.188L534.638 645.899C535.254 645.465 535.989 645.129 536.843 644.891C537.711 644.653 538.6 644.534 539.51 644.534ZM539.258 653.963C539.818 653.963 540.315 653.837 540.749 653.585C541.183 653.319 541.491 652.934 541.673 652.43V651.275H539.426C538.082 651.275 537.41 651.716 537.41 652.598C537.41 653.018 537.571 653.354 537.893 653.606C538.229 653.844 538.684 653.963 539.258 653.963ZM554.781 644.534C556.181 644.534 557.308 644.954 558.162 645.794C559.03 646.634 559.464 647.88 559.464 649.532V656H556.188V650.036C556.188 649.14 555.992 648.475 555.6 648.041C555.208 647.593 554.641 647.369 553.899 647.369C553.073 647.369 552.415 647.628 551.925 648.146C551.435 648.65 551.19 649.406 551.19 650.414V656H547.914V644.702H551.043V646.025C551.477 645.549 552.016 645.185 552.66 644.933C553.304 644.667 554.011 644.534 554.781 644.534ZM569.72 655.454C569.398 655.692 568.999 655.874 568.523 656C568.061 656.112 567.571 656.168 567.053 656.168C565.709 656.168 564.666 655.825 563.924 655.139C563.196 654.453 562.832 653.445 562.832 652.115V647.474H561.089V644.954H562.832V642.203H566.108V644.954H568.922V647.474H566.108V652.073C566.108 652.549 566.227 652.92 566.465 653.186C566.717 653.438 567.067 653.564 567.515 653.564C568.033 653.564 568.474 653.424 568.838 653.144L569.72 655.454ZM575.36 656.168C574.422 656.168 573.505 656.056 572.609 655.832C571.713 655.594 570.999 655.3 570.467 654.95L571.559 652.598C572.063 652.92 572.672 653.186 573.386 653.396C574.1 653.592 574.8 653.69 575.486 653.69C576.872 653.69 577.565 653.347 577.565 652.661C577.565 652.339 577.376 652.108 576.998 651.968C576.62 651.828 576.039 651.709 575.255 651.611C574.331 651.471 573.568 651.31 572.966 651.128C572.364 650.946 571.839 650.624 571.391 650.162C570.957 649.7 570.74 649.042 570.74 648.188C570.74 647.474 570.943 646.844 571.349 646.298C571.769 645.738 572.371 645.304 573.155 644.996C573.953 644.688 574.891 644.534 575.969 644.534C576.767 644.534 577.558 644.625 578.342 644.807C579.14 644.975 579.798 645.213 580.316 645.521L579.224 647.852C578.23 647.292 577.145 647.012 575.969 647.012C575.269 647.012 574.744 647.11 574.394 647.306C574.044 647.502 573.869 647.754 573.869 648.062C573.869 648.412 574.058 648.657 574.436 648.797C574.814 648.937 575.416 649.07 576.242 649.196C577.166 649.35 577.922 649.518 578.51 649.7C579.098 649.868 579.609 650.183 580.043 650.645C580.477 651.107 580.694 651.751 580.694 652.577C580.694 653.277 580.484 653.9 580.064 654.446C579.644 654.992 579.028 655.419 578.216 655.727C577.418 656.021 576.466 656.168 575.36 656.168ZM594.039 656.168C592.849 656.168 591.778 655.923 590.826 655.433C589.888 654.929 589.153 654.236 588.621 653.354C588.089 652.472 587.823 651.471 587.823 650.351C587.823 649.231 588.089 648.23 588.621 647.348C589.153 646.466 589.888 645.78 590.826 645.29C591.778 644.786 592.849 644.534 594.039 644.534C595.229 644.534 596.293 644.786 597.231 645.29C598.169 645.78 598.904 646.466 599.436 647.348C599.968 648.23 600.234 649.231 600.234 650.351C600.234 651.471 599.968 652.472 599.436 653.354C598.904 654.236 598.169 654.929 597.231 655.433C596.293 655.923 595.229 656.168 594.039 656.168ZM594.039 653.48C594.879 653.48 595.565 653.2 596.097 652.64C596.643 652.066 596.916 651.303 596.916 650.351C596.916 649.399 596.643 648.643 596.097 648.083C595.565 647.509 594.879 647.222 594.039 647.222C593.199 647.222 592.506 647.509 591.96 648.083C591.414 648.643 591.141 649.399 591.141 650.351C591.141 651.303 591.414 652.066 591.96 652.64C592.506 653.2 593.199 653.48 594.039 653.48ZM606.015 644.954H608.913V647.474H606.099V656H602.823V647.474H601.08V644.954H602.823V644.45C602.823 643.162 603.201 642.14 603.957 641.384C604.727 640.628 605.805 640.25 607.191 640.25C607.681 640.25 608.143 640.306 608.577 640.418C609.025 640.516 609.396 640.663 609.69 640.859L608.829 643.232C608.451 642.966 608.01 642.833 607.506 642.833C606.512 642.833 606.015 643.379 606.015 644.471V644.954ZM626.089 656L623.254 651.905H623.086H620.125V656H616.723V641.3H623.086C624.388 641.3 625.515 641.517 626.467 641.951C627.433 642.385 628.175 643.001 628.693 643.799C629.211 644.597 629.47 645.542 629.47 646.634C629.47 647.726 629.204 648.671 628.672 649.469C628.154 650.253 627.412 650.855 626.446 651.275L629.743 656H626.089ZM626.026 646.634C626.026 645.808 625.76 645.178 625.228 644.744C624.696 644.296 623.919 644.072 622.897 644.072H620.125V649.196H622.897C623.919 649.196 624.696 648.972 625.228 648.524C625.76 648.076 626.026 647.446 626.026 646.634ZM643.001 650.393C643.001 650.435 642.98 650.729 642.938 651.275H634.391C634.545 651.975 634.909 652.528 635.483 652.934C636.057 653.34 636.771 653.543 637.625 653.543C638.213 653.543 638.731 653.459 639.179 653.291C639.641 653.109 640.068 652.829 640.46 652.451L642.203 654.341C641.139 655.559 639.585 656.168 637.541 656.168C636.267 656.168 635.14 655.923 634.16 655.433C633.18 654.929 632.424 654.236 631.892 653.354C631.36 652.472 631.094 651.471 631.094 650.351C631.094 649.245 631.353 648.251 631.871 647.369C632.403 646.473 633.124 645.78 634.034 645.29C634.958 644.786 635.987 644.534 637.121 644.534C638.227 644.534 639.228 644.772 640.124 645.248C641.02 645.724 641.72 646.41 642.224 647.306C642.742 648.188 643.001 649.217 643.001 650.393ZM637.142 647.012C636.4 647.012 635.777 647.222 635.273 647.642C634.769 648.062 634.461 648.636 634.349 649.364H639.914C639.802 648.65 639.494 648.083 638.99 647.663C638.486 647.229 637.87 647.012 637.142 647.012ZM648.983 656.168C648.045 656.168 647.128 656.056 646.232 655.832C645.336 655.594 644.622 655.3 644.09 654.95L645.182 652.598C645.686 652.92 646.295 653.186 647.009 653.396C647.723 653.592 648.423 653.69 649.109 653.69C650.495 653.69 651.188 653.347 651.188 652.661C651.188 652.339 650.999 652.108 650.621 651.968C650.243 651.828 649.662 651.709 648.878 651.611C647.954 651.471 647.191 651.31 646.589 651.128C645.987 650.946 645.462 650.624 645.014 650.162C644.58 649.7 644.363 649.042 644.363 648.188C644.363 647.474 644.566 646.844 644.972 646.298C645.392 645.738 645.994 645.304 646.778 644.996C647.576 644.688 648.514 644.534 649.592 644.534C650.39 644.534 651.181 644.625 651.965 644.807C652.763 644.975 653.421 645.213 653.939 645.521L652.847 647.852C651.853 647.292 650.768 647.012 649.592 647.012C648.892 647.012 648.367 647.11 648.017 647.306C647.667 647.502 647.492 647.754 647.492 648.062C647.492 648.412 647.681 648.657 648.059 648.797C648.437 648.937 649.039 649.07 649.865 649.196C650.789 649.35 651.545 649.518 652.133 649.7C652.721 649.868 653.232 650.183 653.666 650.645C654.1 651.107 654.317 651.751 654.317 652.577C654.317 653.277 654.107 653.9 653.687 654.446C653.267 654.992 652.651 655.419 651.839 655.727C651.041 656.021 650.089 656.168 648.983 656.168ZM667.721 644.702V656H664.613V654.656C664.179 655.146 663.661 655.524 663.059 655.79C662.457 656.042 661.806 656.168 661.106 656.168C659.622 656.168 658.446 655.741 657.578 654.887C656.71 654.033 656.276 652.766 656.276 651.086V644.702H659.552V650.603C659.552 652.423 660.315 653.333 661.841 653.333C662.625 653.333 663.255 653.081 663.731 652.577C664.207 652.059 664.445 651.296 664.445 650.288V644.702H667.721ZM670.756 640.418H674.032V656H670.756V640.418ZM685.179 655.454C684.857 655.692 684.458 655.874 683.982 656C683.52 656.112 683.03 656.168 682.512 656.168C681.168 656.168 680.125 655.825 679.383 655.139C678.655 654.453 678.291 653.445 678.291 652.115V647.474H676.548V644.954H678.291V642.203H681.567V644.954H684.381V647.474H681.567V652.073C681.567 652.549 681.686 652.92 681.924 653.186C682.176 653.438 682.526 653.564 682.974 653.564C683.492 653.564 683.933 653.424 684.297 653.144L685.179 655.454ZM690.819 656.168C689.881 656.168 688.964 656.056 688.068 655.832C687.172 655.594 686.458 655.3 685.926 654.95L687.018 652.598C687.522 652.92 688.131 653.186 688.845 653.396C689.559 653.592 690.259 653.69 690.945 653.69C692.331 653.69 693.024 653.347 693.024 652.661C693.024 652.339 692.835 652.108 692.457 651.968C692.079 651.828 691.498 651.709 690.714 651.611C689.79 651.471 689.027 651.31 688.425 651.128C687.823 650.946 687.298 650.624 686.85 650.162C686.416 649.7 686.199 649.042 686.199 648.188C686.199 647.474 686.402 646.844 686.808 646.298C687.228 645.738 687.83 645.304 688.614 644.996C689.412 644.688 690.35 644.534 691.428 644.534C692.226 644.534 693.017 644.625 693.801 644.807C694.599 644.975 695.257 645.213 695.775 645.521L694.683 647.852C693.689 647.292 692.604 647.012 691.428 647.012C690.728 647.012 690.203 647.11 689.853 647.306C689.503 647.502 689.328 647.754 689.328 648.062C689.328 648.412 689.517 648.657 689.895 648.797C690.273 648.937 690.875 649.07 691.701 649.196C692.625 649.35 693.381 649.518 693.969 649.7C694.557 649.868 695.068 650.183 695.502 650.645C695.936 651.107 696.153 651.751 696.153 652.577C696.153 653.277 695.943 653.9 695.523 654.446C695.103 654.992 694.487 655.419 693.675 655.727C692.877 656.021 691.925 656.168 690.819 656.168Z" fill="white"/><path d="M377.951 352.252C376.789 352.252 375.662 352.098 374.57 351.79C373.492 351.468 372.624 351.055 371.966 350.551L373.121 347.989C373.751 348.451 374.5 348.822 375.368 349.102C376.236 349.382 377.104 349.522 377.972 349.522C378.938 349.522 379.652 349.382 380.114 349.102C380.576 348.808 380.807 348.423 380.807 347.947C380.807 347.597 380.667 347.31 380.387 347.086C380.121 346.848 379.771 346.659 379.337 346.519C378.917 346.379 378.343 346.225 377.615 346.057C376.495 345.791 375.578 345.525 374.864 345.259C374.15 344.993 373.534 344.566 373.016 343.978C372.512 343.39 372.26 342.606 372.26 341.626C372.26 340.772 372.491 340.002 372.953 339.316C373.415 338.616 374.108 338.063 375.032 337.657C375.97 337.251 377.111 337.048 378.455 337.048C379.393 337.048 380.31 337.16 381.206 337.384C382.102 337.608 382.886 337.93 383.558 338.35L382.508 340.933C381.15 340.163 379.792 339.778 378.434 339.778C377.482 339.778 376.775 339.932 376.313 340.24C375.865 340.548 375.641 340.954 375.641 341.458C375.641 341.962 375.9 342.34 376.418 342.592C376.95 342.83 377.755 343.068 378.833 343.306C379.953 343.572 380.87 343.838 381.584 344.104C382.298 344.37 382.907 344.79 383.411 345.364C383.929 345.938 384.188 346.715 384.188 347.695C384.188 348.535 383.95 349.305 383.474 350.005C383.012 350.691 382.312 351.237 381.374 351.643C380.436 352.049 379.295 352.252 377.951 352.252ZM391.742 352.168C390.538 352.168 389.453 351.923 388.487 351.433C387.535 350.929 386.786 350.236 386.24 349.354C385.708 348.472 385.442 347.471 385.442 346.351C385.442 345.231 385.708 344.23 386.24 343.348C386.786 342.466 387.535 341.78 388.487 341.29C389.453 340.786 390.538 340.534 391.742 340.534C392.932 340.534 393.968 340.786 394.85 341.29C395.746 341.78 396.397 342.487 396.803 343.411L394.262 344.776C393.674 343.74 392.827 343.222 391.721 343.222C390.867 343.222 390.16 343.502 389.6 344.062C389.04 344.622 388.76 345.385 388.76 346.351C388.76 347.317 389.04 348.08 389.6 348.64C390.16 349.2 390.867 349.48 391.721 349.48C392.841 349.48 393.688 348.962 394.262 347.926L396.803 349.312C396.397 350.208 395.746 350.908 394.85 351.412C393.968 351.916 392.932 352.168 391.742 352.168ZM401.818 342.193C402.21 341.647 402.735 341.234 403.393 340.954C404.065 340.674 404.835 340.534 405.703 340.534V343.558C405.339 343.53 405.094 343.516 404.968 343.516C404.03 343.516 403.295 343.782 402.763 344.314C402.231 344.832 401.965 345.616 401.965 346.666V352H398.689V340.702H401.818V342.193ZM418.615 346.393C418.615 346.435 418.594 346.729 418.552 347.275H410.005C410.159 347.975 410.523 348.528 411.097 348.934C411.671 349.34 412.385 349.543 413.239 349.543C413.827 349.543 414.345 349.459 414.793 349.291C415.255 349.109 415.682 348.829 416.074 348.451L417.817 350.341C416.753 351.559 415.199 352.168 413.155 352.168C411.881 352.168 410.754 351.923 409.774 351.433C408.794 350.929 408.038 350.236 407.506 349.354C406.974 348.472 406.708 347.471 406.708 346.351C406.708 345.245 406.967 344.251 407.485 343.369C408.017 342.473 408.738 341.78 409.648 341.29C410.572 340.786 411.601 340.534 412.735 340.534C413.841 340.534 414.842 340.772 415.738 341.248C416.634 341.724 417.334 342.41 417.838 343.306C418.356 344.188 418.615 345.217 418.615 346.393ZM412.756 343.012C412.014 343.012 411.391 343.222 410.887 343.642C410.383 344.062 410.075 344.636 409.963 345.364H415.528C415.416 344.65 415.108 344.083 414.604 343.663C414.1 343.229 413.484 343.012 412.756 343.012ZM431.863 346.393C431.863 346.435 431.842 346.729 431.8 347.275H423.253C423.407 347.975 423.771 348.528 424.345 348.934C424.919 349.34 425.633 349.543 426.487 349.543C427.075 349.543 427.593 349.459 428.041 349.291C428.503 349.109 428.93 348.829 429.322 348.451L431.065 350.341C430.001 351.559 428.447 352.168 426.403 352.168C425.129 352.168 424.002 351.923 423.022 351.433C422.042 350.929 421.286 350.236 420.754 349.354C420.222 348.472 419.956 347.471 419.956 346.351C419.956 345.245 420.215 344.251 420.733 343.369C421.265 342.473 421.986 341.78 422.896 341.29C423.82 340.786 424.849 340.534 425.983 340.534C427.089 340.534 428.09 340.772 428.986 341.248C429.882 341.724 430.582 342.41 431.086 343.306C431.604 344.188 431.863 345.217 431.863 346.393ZM426.004 343.012C425.262 343.012 424.639 343.222 424.135 343.642C423.631 344.062 423.323 344.636 423.211 345.364H428.776C428.664 344.65 428.356 344.083 427.852 343.663C427.348 343.229 426.732 343.012 426.004 343.012ZM440.911 340.534C442.311 340.534 443.438 340.954 444.292 341.794C445.16 342.634 445.594 343.88 445.594 345.532V352H442.318V346.036C442.318 345.14 442.122 344.475 441.73 344.041C441.338 343.593 440.771 343.369 440.029 343.369C439.203 343.369 438.545 343.628 438.055 344.146C437.565 344.65 437.32 345.406 437.32 346.414V352H434.044V340.702H437.173V342.025C437.607 341.549 438.146 341.185 438.79 340.933C439.434 340.667 440.141 340.534 440.911 340.534ZM464.423 348.85H457.598L456.296 352H452.81L459.362 337.3H462.722L469.295 352H465.725L464.423 348.85ZM463.352 346.267L461.021 340.639L458.69 346.267H463.352ZM477.267 340.534C478.317 340.534 479.269 340.779 480.123 341.269C480.991 341.745 481.67 342.424 482.16 343.306C482.65 344.174 482.895 345.189 482.895 346.351C482.895 347.513 482.65 348.535 482.16 349.417C481.67 350.285 480.991 350.964 480.123 351.454C479.269 351.93 478.317 352.168 477.267 352.168C475.825 352.168 474.691 351.713 473.865 350.803V356.074H470.589V340.702H473.718V342.004C474.53 341.024 475.713 340.534 477.267 340.534ZM476.7 349.48C477.54 349.48 478.226 349.2 478.758 348.64C479.304 348.066 479.577 347.303 479.577 346.351C479.577 345.399 479.304 344.643 478.758 344.083C478.226 343.509 477.54 343.222 476.7 343.222C475.86 343.222 475.167 343.509 474.621 344.083C474.089 344.643 473.823 345.399 473.823 346.351C473.823 347.303 474.089 348.066 474.621 348.64C475.167 349.2 475.86 349.48 476.7 349.48ZM491.766 340.534C492.816 340.534 493.768 340.779 494.622 341.269C495.49 341.745 496.169 342.424 496.659 343.306C497.149 344.174 497.394 345.189 497.394 346.351C497.394 347.513 497.149 348.535 496.659 349.417C496.169 350.285 495.49 350.964 494.622 351.454C493.768 351.93 492.816 352.168 491.766 352.168C490.324 352.168 489.19 351.713 488.364 350.803V356.074H485.088V340.702H488.217V342.004C489.029 341.024 490.212 340.534 491.766 340.534ZM491.199 349.48C492.039 349.48 492.725 349.2 493.257 348.64C493.803 348.066 494.076 347.303 494.076 346.351C494.076 345.399 493.803 344.643 493.257 344.083C492.725 343.509 492.039 343.222 491.199 343.222C490.359 343.222 489.666 343.509 489.12 344.083C488.588 344.643 488.322 345.399 488.322 346.351C488.322 347.303 488.588 348.066 489.12 348.64C489.666 349.2 490.359 349.48 491.199 349.48ZM499.587 336.418H502.863V352H499.587V336.418ZM505.904 340.702H509.18V352H505.904V340.702ZM507.542 339.127C506.94 339.127 506.45 338.952 506.072 338.602C505.694 338.252 505.505 337.818 505.505 337.3C505.505 336.782 505.694 336.348 506.072 335.998C506.45 335.648 506.94 335.473 507.542 335.473C508.144 335.473 508.634 335.641 509.012 335.977C509.39 336.313 509.579 336.733 509.579 337.237C509.579 337.783 509.39 338.238 509.012 338.602C508.634 338.952 508.144 339.127 507.542 339.127ZM517.68 352.168C516.476 352.168 515.391 351.923 514.425 351.433C513.473 350.929 512.724 350.236 512.178 349.354C511.646 348.472 511.38 347.471 511.38 346.351C511.38 345.231 511.646 344.23 512.178 343.348C512.724 342.466 513.473 341.78 514.425 341.29C515.391 340.786 516.476 340.534 517.68 340.534C518.87 340.534 519.906 340.786 520.788 341.29C521.684 341.78 522.335 342.487 522.741 343.411L520.2 344.776C519.612 343.74 518.765 343.222 517.659 343.222C516.805 343.222 516.098 343.502 515.538 344.062C514.978 344.622 514.698 345.385 514.698 346.351C514.698 347.317 514.978 348.08 515.538 348.64C516.098 349.2 516.805 349.48 517.659 349.48C518.779 349.48 519.626 348.962 520.2 347.926L522.741 349.312C522.335 350.208 521.684 350.908 520.788 351.412C519.906 351.916 518.87 352.168 517.68 352.168ZM529.184 340.534C530.934 340.534 532.278 340.954 533.216 341.794C534.154 342.62 534.623 343.873 534.623 345.553V352H531.557V350.593C530.941 351.643 529.793 352.168 528.113 352.168C527.245 352.168 526.489 352.021 525.845 351.727C525.215 351.433 524.732 351.027 524.396 350.509C524.06 349.991 523.892 349.403 523.892 348.745C523.892 347.695 524.284 346.869 525.068 346.267C525.866 345.665 527.091 345.364 528.743 345.364H531.347C531.347 344.65 531.13 344.104 530.696 343.726C530.262 343.334 529.611 343.138 528.743 343.138C528.141 343.138 527.546 343.236 526.958 343.432C526.384 343.614 525.894 343.866 525.488 344.188L524.312 341.899C524.928 341.465 525.663 341.129 526.517 340.891C527.385 340.653 528.274 340.534 529.184 340.534ZM528.932 349.963C529.492 349.963 529.989 349.837 530.423 349.585C530.857 349.319 531.165 348.934 531.347 348.43V347.275H529.1C527.756 347.275 527.084 347.716 527.084 348.598C527.084 349.018 527.245 349.354 527.567 349.606C527.903 349.844 528.358 349.963 528.932 349.963ZM544.875 351.454C544.553 351.692 544.154 351.874 543.678 352C543.216 352.112 542.726 352.168 542.208 352.168C540.864 352.168 539.821 351.825 539.079 351.139C538.351 350.453 537.987 349.445 537.987 348.115V343.474H536.244V340.954H537.987V338.203H541.263V340.954H544.077V343.474H541.263V348.073C541.263 348.549 541.382 348.92 541.62 349.186C541.872 349.438 542.222 349.564 542.67 349.564C543.188 349.564 543.629 349.424 543.993 349.144L544.875 351.454ZM546.714 340.702H549.99V352H546.714V340.702ZM548.352 339.127C547.75 339.127 547.26 338.952 546.882 338.602C546.504 338.252 546.315 337.818 546.315 337.3C546.315 336.782 546.504 336.348 546.882 335.998C547.26 335.648 547.75 335.473 548.352 335.473C548.954 335.473 549.444 335.641 549.822 335.977C550.2 336.313 550.389 336.733 550.389 337.237C550.389 337.783 550.2 338.238 549.822 338.602C549.444 338.952 548.954 339.127 548.352 339.127ZM558.407 352.168C557.217 352.168 556.146 351.923 555.194 351.433C554.256 350.929 553.521 350.236 552.989 349.354C552.457 348.472 552.191 347.471 552.191 346.351C552.191 345.231 552.457 344.23 552.989 343.348C553.521 342.466 554.256 341.78 555.194 341.29C556.146 340.786 557.217 340.534 558.407 340.534C559.597 340.534 560.661 340.786 561.599 341.29C562.537 341.78 563.272 342.466 563.804 343.348C564.336 344.23 564.602 345.231 564.602 346.351C564.602 347.471 564.336 348.472 563.804 349.354C563.272 350.236 562.537 350.929 561.599 351.433C560.661 351.923 559.597 352.168 558.407 352.168ZM558.407 349.48C559.247 349.48 559.933 349.2 560.465 348.64C561.011 348.066 561.284 347.303 561.284 346.351C561.284 345.399 561.011 344.643 560.465 344.083C559.933 343.509 559.247 343.222 558.407 343.222C557.567 343.222 556.874 343.509 556.328 344.083C555.782 344.643 555.509 345.399 555.509 346.351C555.509 347.303 555.782 348.066 556.328 348.64C556.874 349.2 557.567 349.48 558.407 349.48ZM573.658 340.534C575.058 340.534 576.185 340.954 577.039 341.794C577.907 342.634 578.341 343.88 578.341 345.532V352H575.065V346.036C575.065 345.14 574.869 344.475 574.477 344.041C574.085 343.593 573.518 343.369 572.776 343.369C571.95 343.369 571.292 343.628 570.802 344.146C570.312 344.65 570.067 345.406 570.067 346.414V352H566.791V340.702H569.92V342.025C570.354 341.549 570.893 341.185 571.537 340.933C572.181 340.667 572.888 340.534 573.658 340.534ZM585.112 352.168C584.174 352.168 583.257 352.056 582.361 351.832C581.465 351.594 580.751 351.3 580.219 350.95L581.311 348.598C581.815 348.92 582.424 349.186 583.138 349.396C583.852 349.592 584.552 349.69 585.238 349.69C586.624 349.69 587.317 349.347 587.317 348.661C587.317 348.339 587.128 348.108 586.75 347.968C586.372 347.828 585.791 347.709 585.007 347.611C584.083 347.471 583.32 347.31 582.718 347.128C582.116 346.946 581.591 346.624 581.143 346.162C580.709 345.7 580.492 345.042 580.492 344.188C580.492 343.474 580.695 342.844 581.101 342.298C581.521 341.738 582.123 341.304 582.907 340.996C583.705 340.688 584.643 340.534 585.721 340.534C586.519 340.534 587.31 340.625 588.094 340.807C588.892 340.975 589.55 341.213 590.068 341.521L588.976 343.852C587.982 343.292 586.897 343.012 585.721 343.012C585.021 343.012 584.496 343.11 584.146 343.306C583.796 343.502 583.621 343.754 583.621 344.062C583.621 344.412 583.81 344.657 584.188 344.797C584.566 344.937 585.168 345.07 585.994 345.196C586.918 345.35 587.674 345.518 588.262 345.7C588.85 345.868 589.361 346.183 589.795 346.645C590.229 347.107 590.446 347.751 590.446 348.577C590.446 349.277 590.236 349.9 589.816 350.446C589.396 350.992 588.78 351.419 587.968 351.727C587.17 352.021 586.218 352.168 585.112 352.168ZM602.971 340.534C604.721 340.534 606.065 340.954 607.003 341.794C607.941 342.62 608.41 343.873 608.41 345.553V352H605.344V350.593C604.728 351.643 603.58 352.168 601.9 352.168C601.032 352.168 600.276 352.021 599.632 351.727C599.002 351.433 598.519 351.027 598.183 350.509C597.847 349.991 597.679 349.403 597.679 348.745C597.679 347.695 598.071 346.869 598.855 346.267C599.653 345.665 600.878 345.364 602.53 345.364H605.134C605.134 344.65 604.917 344.104 604.483 343.726C604.049 343.334 603.398 343.138 602.53 343.138C601.928 343.138 601.333 343.236 600.745 343.432C600.171 343.614 599.681 343.866 599.275 344.188L598.099 341.899C598.715 341.465 599.45 341.129 600.304 340.891C601.172 340.653 602.061 340.534 602.971 340.534ZM602.719 349.963C603.279 349.963 603.776 349.837 604.21 349.585C604.644 349.319 604.952 348.934 605.134 348.43V347.275H602.887C601.543 347.275 600.871 347.716 600.871 348.598C600.871 349.018 601.032 349.354 601.354 349.606C601.69 349.844 602.145 349.963 602.719 349.963ZM618.242 340.534C619.642 340.534 620.769 340.954 621.623 341.794C622.491 342.634 622.925 343.88 622.925 345.532V352H619.649V346.036C619.649 345.14 619.453 344.475 619.061 344.041C618.669 343.593 618.102 343.369 617.36 343.369C616.534 343.369 615.876 343.628 615.386 344.146C614.896 344.65 614.651 345.406 614.651 346.414V352H611.375V340.702H614.504V342.025C614.938 341.549 615.477 341.185 616.121 340.933C616.765 340.667 617.472 340.534 618.242 340.534ZM637.526 336.418V352H634.397V350.698C633.585 351.678 632.409 352.168 630.869 352.168C629.805 352.168 628.839 351.93 627.971 351.454C627.117 350.978 626.445 350.299 625.955 349.417C625.465 348.535 625.22 347.513 625.22 346.351C625.22 345.189 625.465 344.167 625.955 343.285C626.445 342.403 627.117 341.724 627.971 341.248C628.839 340.772 629.805 340.534 630.869 340.534C632.311 340.534 633.438 340.989 634.25 341.899V336.418H637.526ZM631.436 349.48C632.262 349.48 632.948 349.2 633.494 348.64C634.04 348.066 634.313 347.303 634.313 346.351C634.313 345.399 634.04 344.643 633.494 344.083C632.948 343.509 632.262 343.222 631.436 343.222C630.596 343.222 629.903 343.509 629.357 344.083C628.811 344.643 628.538 345.399 628.538 346.351C628.538 347.303 628.811 348.066 629.357 348.64C629.903 349.2 630.596 349.48 631.436 349.48ZM651.566 352.252C650.404 352.252 649.277 352.098 648.185 351.79C647.107 351.468 646.239 351.055 645.581 350.551L646.736 347.989C647.366 348.451 648.115 348.822 648.983 349.102C649.851 349.382 650.719 349.522 651.587 349.522C652.553 349.522 653.267 349.382 653.729 349.102C654.191 348.808 654.422 348.423 654.422 347.947C654.422 347.597 654.282 347.31 654.002 347.086C653.736 346.848 653.386 346.659 652.952 346.519C652.532 346.379 651.958 346.225 651.23 346.057C650.11 345.791 649.193 345.525 648.479 345.259C647.765 344.993 647.149 344.566 646.631 343.978C646.127 343.39 645.875 342.606 645.875 341.626C645.875 340.772 646.106 340.002 646.568 339.316C647.03 338.616 647.723 338.063 648.647 337.657C649.585 337.251 650.726 337.048 652.07 337.048C653.008 337.048 653.925 337.16 654.821 337.384C655.717 337.608 656.501 337.93 657.173 338.35L656.123 340.933C654.765 340.163 653.407 339.778 652.049 339.778C651.097 339.778 650.39 339.932 649.928 340.24C649.48 340.548 649.256 340.954 649.256 341.458C649.256 341.962 649.515 342.34 650.033 342.592C650.565 342.83 651.37 343.068 652.448 343.306C653.568 343.572 654.485 343.838 655.199 344.104C655.913 344.37 656.522 344.79 657.026 345.364C657.544 345.938 657.803 346.715 657.803 347.695C657.803 348.535 657.565 349.305 657.089 350.005C656.627 350.691 655.927 351.237 654.989 351.643C654.051 352.049 652.91 352.252 651.566 352.252ZM670.964 346.393C670.964 346.435 670.943 346.729 670.901 347.275H662.354C662.508 347.975 662.872 348.528 663.446 348.934C664.02 349.34 664.734 349.543 665.588 349.543C666.176 349.543 666.694 349.459 667.142 349.291C667.604 349.109 668.031 348.829 668.423 348.451L670.166 350.341C669.102 351.559 667.548 352.168 665.504 352.168C664.23 352.168 663.103 351.923 662.123 351.433C661.143 350.929 660.387 350.236 659.855 349.354C659.323 348.472 659.057 347.471 659.057 346.351C659.057 345.245 659.316 344.251 659.834 343.369C660.366 342.473 661.087 341.78 661.997 341.29C662.921 340.786 663.95 340.534 665.084 340.534C666.19 340.534 667.191 340.772 668.087 341.248C668.983 341.724 669.683 342.41 670.187 343.306C670.705 344.188 670.964 345.217 670.964 346.393ZM665.105 343.012C664.363 343.012 663.74 343.222 663.236 343.642C662.732 344.062 662.424 344.636 662.312 345.364H667.877C667.765 344.65 667.457 344.083 666.953 343.663C666.449 343.229 665.833 343.012 665.105 343.012ZM680.432 351.454C680.11 351.692 679.711 351.874 679.235 352C678.773 352.112 678.283 352.168 677.765 352.168C676.421 352.168 675.378 351.825 674.636 351.139C673.908 350.453 673.544 349.445 673.544 348.115V343.474H671.801V340.954H673.544V338.203H676.82V340.954H679.634V343.474H676.82V348.073C676.82 348.549 676.939 348.92 677.177 349.186C677.429 349.438 677.779 349.564 678.227 349.564C678.745 349.564 679.186 349.424 679.55 349.144L680.432 351.454ZM699.6 340.702V352H696.492V350.656C696.058 351.146 695.54 351.524 694.938 351.79C694.336 352.042 693.685 352.168 692.985 352.168C691.501 352.168 690.325 351.741 689.457 350.887C688.589 350.033 688.155 348.766 688.155 347.086V340.702H691.431V346.603C691.431 348.423 692.194 349.333 693.72 349.333C694.504 349.333 695.134 349.081 695.61 348.577C696.086 348.059 696.324 347.296 696.324 346.288V340.702H699.6ZM709.313 340.534C710.363 340.534 711.315 340.779 712.169 341.269C713.037 341.745 713.716 342.424 714.206 343.306C714.696 344.174 714.941 345.189 714.941 346.351C714.941 347.513 714.696 348.535 714.206 349.417C713.716 350.285 713.037 350.964 712.169 351.454C711.315 351.93 710.363 352.168 709.313 352.168C707.871 352.168 706.737 351.713 705.911 350.803V356.074H702.635V340.702H705.764V342.004C706.576 341.024 707.759 340.534 709.313 340.534ZM708.746 349.48C709.586 349.48 710.272 349.2 710.804 348.64C711.35 348.066 711.623 347.303 711.623 346.351C711.623 345.399 711.35 344.643 710.804 344.083C710.272 343.509 709.586 343.222 708.746 343.222C707.906 343.222 707.213 343.509 706.667 344.083C706.135 344.643 705.869 345.399 705.869 346.351C705.869 347.303 706.135 348.066 706.667 348.64C707.213 349.2 707.906 349.48 708.746 349.48ZM487.565 369.3H490.967V384H487.565V369.3ZM501.091 372.534C502.491 372.534 503.618 372.954 504.472 373.794C505.34 374.634 505.774 375.88 505.774 377.532V384H502.498V378.036C502.498 377.14 502.302 376.475 501.91 376.041C501.518 375.593 500.951 375.369 500.209 375.369C499.383 375.369 498.725 375.628 498.235 376.146C497.745 376.65 497.5 377.406 497.5 378.414V384H494.224V372.702H497.353V374.025C497.787 373.549 498.326 373.185 498.97 372.933C499.614 372.667 500.321 372.534 501.091 372.534ZM516.031 383.454C515.709 383.692 515.31 383.874 514.834 384C514.372 384.112 513.882 384.168 513.364 384.168C512.02 384.168 510.977 383.825 510.235 383.139C509.507 382.453 509.143 381.445 509.143 380.115V375.474H507.4V372.954H509.143V370.203H512.419V372.954H515.233V375.474H512.419V380.073C512.419 380.549 512.538 380.92 512.776 381.186C513.028 381.438 513.378 381.564 513.826 381.564C514.344 381.564 514.785 381.424 515.149 381.144L516.031 383.454ZM528.588 378.393C528.588 378.435 528.567 378.729 528.525 379.275H519.978C520.132 379.975 520.496 380.528 521.07 380.934C521.644 381.34 522.358 381.543 523.212 381.543C523.8 381.543 524.318 381.459 524.766 381.291C525.228 381.109 525.655 380.829 526.047 380.451L527.79 382.341C526.726 383.559 525.172 384.168 523.128 384.168C521.854 384.168 520.727 383.923 519.747 383.433C518.767 382.929 518.011 382.236 517.479 381.354C516.947 380.472 516.681 379.471 516.681 378.351C516.681 377.245 516.94 376.251 517.458 375.369C517.99 374.473 518.711 373.78 519.621 373.29C520.545 372.786 521.574 372.534 522.708 372.534C523.814 372.534 524.815 372.772 525.711 373.248C526.607 373.724 527.307 374.41 527.811 375.306C528.329 376.188 528.588 377.217 528.588 378.393ZM522.729 375.012C521.987 375.012 521.364 375.222 520.86 375.642C520.356 376.062 520.048 376.636 519.936 377.364H525.501C525.389 376.65 525.081 376.083 524.577 375.663C524.073 375.229 523.457 375.012 522.729 375.012ZM533.898 374.193C534.29 373.647 534.815 373.234 535.473 372.954C536.145 372.674 536.915 372.534 537.783 372.534V375.558C537.419 375.53 537.174 375.516 537.048 375.516C536.11 375.516 535.375 375.782 534.843 376.314C534.311 376.832 534.045 377.616 534.045 378.666V384H530.769V372.702H533.898V374.193ZM551.335 372.702L546.568 384H543.187L538.441 372.702H541.822L544.951 380.388L548.185 372.702H551.335ZM552.672 372.702H555.948V384H552.672V372.702ZM554.31 371.127C553.708 371.127 553.218 370.952 552.84 370.602C552.462 370.252 552.273 369.818 552.273 369.3C552.273 368.782 552.462 368.348 552.84 367.998C553.218 367.648 553.708 367.473 554.31 367.473C554.912 367.473 555.402 367.641 555.78 367.977C556.158 368.313 556.347 368.733 556.347 369.237C556.347 369.783 556.158 370.238 555.78 370.602C555.402 370.952 554.912 371.127 554.31 371.127ZM570.055 378.393C570.055 378.435 570.034 378.729 569.992 379.275H561.445C561.599 379.975 561.963 380.528 562.537 380.934C563.111 381.34 563.825 381.543 564.679 381.543C565.267 381.543 565.785 381.459 566.233 381.291C566.695 381.109 567.122 380.829 567.514 380.451L569.257 382.341C568.193 383.559 566.639 384.168 564.595 384.168C563.321 384.168 562.194 383.923 561.214 383.433C560.234 382.929 559.478 382.236 558.946 381.354C558.414 380.472 558.148 379.471 558.148 378.351C558.148 377.245 558.407 376.251 558.925 375.369C559.457 374.473 560.178 373.78 561.088 373.29C562.012 372.786 563.041 372.534 564.175 372.534C565.281 372.534 566.282 372.772 567.178 373.248C568.074 373.724 568.774 374.41 569.278 375.306C569.796 376.188 570.055 377.217 570.055 378.393ZM564.196 375.012C563.454 375.012 562.831 375.222 562.327 375.642C561.823 376.062 561.515 376.636 561.403 377.364H566.968C566.856 376.65 566.548 376.083 566.044 375.663C565.54 375.229 564.924 375.012 564.196 375.012ZM590.175 372.702L586.08 384H582.93L580.389 376.986L577.764 384H574.614L570.54 372.702H573.627L576.294 380.346L579.066 372.702H581.838L584.526 380.346L587.277 372.702H590.175ZM595.335 384.168C594.397 384.168 593.48 384.056 592.584 383.832C591.688 383.594 590.974 383.3 590.442 382.95L591.534 380.598C592.038 380.92 592.647 381.186 593.361 381.396C594.075 381.592 594.775 381.69 595.461 381.69C596.847 381.69 597.54 381.347 597.54 380.661C597.54 380.339 597.351 380.108 596.973 379.968C596.595 379.828 596.014 379.709 595.23 379.611C594.306 379.471 593.543 379.31 592.941 379.128C592.339 378.946 591.814 378.624 591.366 378.162C590.932 377.7 590.715 377.042 590.715 376.188C590.715 375.474 590.918 374.844 591.324 374.298C591.744 373.738 592.346 373.304 593.13 372.996C593.928 372.688 594.866 372.534 595.944 372.534C596.742 372.534 597.533 372.625 598.317 372.807C599.115 372.975 599.773 373.213 600.291 373.521L599.199 375.852C598.205 375.292 597.12 375.012 595.944 375.012C595.244 375.012 594.719 375.11 594.369 375.306C594.019 375.502 593.844 375.754 593.844 376.062C593.844 376.412 594.033 376.657 594.411 376.797C594.789 376.937 595.391 377.07 596.217 377.196C597.141 377.35 597.897 377.518 598.485 377.7C599.073 377.868 599.584 378.183 600.018 378.645C600.452 379.107 600.669 379.751 600.669 380.577C600.669 381.277 600.459 381.9 600.039 382.446C599.619 382.992 599.003 383.419 598.191 383.727C597.393 384.021 596.441 384.168 595.335 384.168Z" fill="white"/><path d="M54.6731 221.228V224H43.5641V221.795L49.2341 216.44C49.8361 215.866 50.2421 215.376 50.4521 214.97C50.6621 214.55 50.7671 214.137 50.7671 213.731C50.7671 213.143 50.5641 212.695 50.1581 212.387C49.7661 212.065 49.1851 211.904 48.4151 211.904C47.7711 211.904 47.1901 212.03 46.6721 212.282C46.1541 212.52 45.7201 212.884 45.3701 213.374L42.8921 211.778C43.4661 210.924 44.2571 210.259 45.2651 209.783C46.2731 209.293 47.4281 209.048 48.7301 209.048C49.8221 209.048 50.7741 209.23 51.5861 209.594C52.4121 209.944 53.0491 210.448 53.4971 211.106C53.9591 211.75 54.1901 212.513 54.1901 213.395C54.1901 214.193 54.0221 214.942 53.6861 215.642C53.3501 216.342 52.6991 217.14 51.7331 218.036L48.3521 221.228H54.6731ZM85.1661 209.3L80.3571 224H76.7031L73.4691 214.046L70.1301 224H66.4971L61.6671 209.3H65.1951L68.5131 219.632L71.9781 209.3H75.1281L78.4881 219.716L81.9111 209.3H85.1661ZM98.4473 221.27V224H87.0653V209.3H98.1743V212.03H90.4463V215.222H97.2713V217.868H90.4463V221.27H98.4473ZM112.536 221.27V224H101.154V209.3H112.263V212.03H104.535V215.222H111.36V217.868H104.535V221.27H112.536ZM120.598 218.225L118.624 220.283V224H115.243V209.3H118.624V216.167L125.134 209.3H128.914L122.824 215.852L129.271 224H125.302L120.598 218.225ZM135.31 224.252C134.148 224.252 133.021 224.098 131.929 223.79C130.851 223.468 129.983 223.055 129.325 222.551L130.48 219.989C131.11 220.451 131.859 220.822 132.727 221.102C133.595 221.382 134.463 221.522 135.331 221.522C136.297 221.522 137.011 221.382 137.473 221.102C137.935 220.808 138.166 220.423 138.166 219.947C138.166 219.597 138.026 219.31 137.746 219.086C137.48 218.848 137.13 218.659 136.696 218.519C136.276 218.379 135.702 218.225 134.974 218.057C133.854 217.791 132.937 217.525 132.223 217.259C131.509 216.993 130.893 216.566 130.375 215.978C129.871 215.39 129.619 214.606 129.619 213.626C129.619 212.772 129.85 212.002 130.312 211.316C130.774 210.616 131.467 210.063 132.391 209.657C133.329 209.251 134.47 209.048 135.814 209.048C136.752 209.048 137.669 209.16 138.565 209.384C139.461 209.608 140.245 209.93 140.917 210.35L139.867 212.933C138.509 212.163 137.151 211.778 135.793 211.778C134.841 211.778 134.134 211.932 133.672 212.24C133.224 212.548 133 212.954 133 213.458C133 213.962 133.259 214.34 133.777 214.592C134.309 214.83 135.114 215.068 136.192 215.306C137.312 215.572 138.229 215.838 138.943 216.104C139.657 216.37 140.266 216.79 140.77 217.364C141.288 217.938 141.547 218.715 141.547 219.695C141.547 220.535 141.309 221.305 140.833 222.005C140.371 222.691 139.671 223.237 138.733 223.643C137.795 224.049 136.654 224.252 135.31 224.252Z" fill="white"/></g><defs><clipPath id="clip0"><rect width="820" height="720" fill="white"/></clipPath></defs></svg>