<svg width="616" height="720" viewBox="0 0 616 720" fill="none" xmlns="http://www.w3.org/2000/svg">
<rect width="616" height="720" fill="white"/>
<rect y="576" width="174" height="144" fill="#3470B7" fill-opacity="0.8"/>
<rect width="174" height="144" fill="#002D62"/>
<rect y="288" width="174" height="144" fill="#1B58A0"/>
<rect y="432" width="174" height="144" fill="#3470B7"/>
<path d="M33.706 71.285C34.994 71.495 35.981 71.978 36.667 72.734C37.353 73.476 37.696 74.4 37.696 75.506C37.696 76.36 37.472 77.151 37.024 77.879C36.576 78.593 35.89 79.167 34.966 79.601C34.056 80.035 32.936 80.252 31.606 80.252C30.57 80.252 29.548 80.119 28.54 79.853C27.546 79.573 26.699 79.181 25.999 78.677L27.322 76.073C27.882 76.493 28.526 76.822 29.254 77.06C29.996 77.284 30.752 77.396 31.522 77.396C32.376 77.396 33.048 77.235 33.538 76.913C34.028 76.577 34.273 76.108 34.273 75.506C34.273 74.302 33.356 73.7 31.522 73.7H29.968V71.453L32.992 68.03H26.734V65.3H37.024V67.505L33.706 71.285ZM39.5398 72.776H45.4828V75.401H39.5398V72.776ZM60.9104 76.913H58.5164V80H55.1984V76.913H47.2814V74.624L54.2114 65.3H57.7814L51.3554 74.141H55.3034V71.39H58.5164V74.141H60.9104V76.913ZM91.0172 65.3L86.2082 80H82.5542L79.3202 70.046L75.9812 80H72.3482L67.5182 65.3H71.0462L74.3642 75.632L77.8292 65.3H80.9792L84.3392 75.716L87.7622 65.3H91.0172ZM104.298 77.27V80H92.9163V65.3H104.025V68.03H96.2973V71.222H103.122V73.868H96.2973V77.27H104.298ZM118.387 77.27V80H107.005V65.3H118.114V68.03H110.386V71.222H117.211V73.868H110.386V77.27H118.387ZM126.449 74.225L124.475 76.283V80H121.094V65.3H124.475V72.167L130.985 65.3H134.765L128.675 71.852L135.122 80H131.153L126.449 74.225ZM141.161 80.252C139.999 80.252 138.872 80.098 137.78 79.79C136.702 79.468 135.834 79.055 135.176 78.551L136.331 75.989C136.961 76.451 137.71 76.822 138.578 77.102C139.446 77.382 140.314 77.522 141.182 77.522C142.148 77.522 142.862 77.382 143.324 77.102C143.786 76.808 144.017 76.423 144.017 75.947C144.017 75.597 143.877 75.31 143.597 75.086C143.331 74.848 142.981 74.659 142.547 74.519C142.127 74.379 141.553 74.225 140.825 74.057C139.705 73.791 138.788 73.525 138.074 73.259C137.36 72.993 136.744 72.566 136.226 71.978C135.722 71.39 135.47 70.606 135.47 69.626C135.47 68.772 135.701 68.002 136.163 67.316C136.625 66.616 137.318 66.063 138.242 65.657C139.18 65.251 140.321 65.048 141.665 65.048C142.603 65.048 143.52 65.16 144.416 65.384C145.312 65.608 146.096 65.93 146.768 66.35L145.718 68.933C144.36 68.163 143.002 67.778 141.644 67.778C140.692 67.778 139.985 67.932 139.523 68.24C139.075 68.548 138.851 68.954 138.851 69.458C138.851 69.962 139.11 70.34 139.628 70.592C140.16 70.83 140.965 71.068 142.043 71.306C143.163 71.572 144.08 71.838 144.794 72.104C145.508 72.37 146.117 72.79 146.621 73.364C147.139 73.938 147.398 74.715 147.398 75.695C147.398 76.535 147.16 77.305 146.684 78.005C146.222 78.691 145.522 79.237 144.584 79.643C143.646 80.049 142.505 80.252 141.161 80.252Z" fill="white"/>
<path d="M20.6145 353.3V368H17.2125V356.03H14.2725V353.3H20.6145ZM23.4411 360.776H29.3841V363.401H23.4411V360.776ZM36.4875 353.3V368H33.0855V356.03H30.1455V353.3H36.4875ZM50.6584 353.3V368H47.2564V356.03H44.3164V353.3H50.6584ZM58.6301 350.318H61.5491L54.6191 370.1H51.7001L58.6301 350.318ZM72.4187 365.228V368H61.3097V365.795L66.9797 360.44C67.5817 359.866 67.9877 359.376 68.1977 358.97C68.4077 358.55 68.5127 358.137 68.5127 357.731C68.5127 357.143 68.3097 356.695 67.9037 356.387C67.5117 356.065 66.9307 355.904 66.1607 355.904C65.5167 355.904 64.9357 356.03 64.4177 356.282C63.8997 356.52 63.4657 356.884 63.1157 357.374L60.6377 355.778C61.2117 354.924 62.0027 354.259 63.0107 353.783C64.0187 353.293 65.1737 353.048 66.4757 353.048C67.5677 353.048 68.5197 353.23 69.3317 353.594C70.1577 353.944 70.7947 354.448 71.2427 355.106C71.7047 355.75 71.9357 356.513 71.9357 357.395C71.9357 358.193 71.7677 358.942 71.4317 359.642C71.0957 360.342 70.4447 361.14 69.4787 362.036L66.0977 365.228H72.4187ZM102.912 353.3L98.1027 368H94.4487L91.2147 358.046L87.8757 368H84.2427L79.4127 353.3H82.9407L86.2587 363.632L89.7237 353.3H92.8737L96.2337 363.716L99.6567 353.3H102.912ZM116.193 365.27V368H104.811V353.3H115.92V356.03H108.192V359.222H115.017V361.868H108.192V365.27H116.193ZM130.282 365.27V368H118.9V353.3H130.009V356.03H122.281V359.222H129.106V361.868H122.281V365.27H130.282ZM138.344 362.225L136.37 364.283V368H132.989V353.3H136.37V360.167L142.88 353.3H146.66L140.57 359.852L147.017 368H143.048L138.344 362.225ZM153.056 368.252C151.894 368.252 150.767 368.098 149.675 367.79C148.597 367.468 147.729 367.055 147.071 366.551L148.226 363.989C148.856 364.451 149.605 364.822 150.473 365.102C151.341 365.382 152.209 365.522 153.077 365.522C154.043 365.522 154.757 365.382 155.219 365.102C155.681 364.808 155.912 364.423 155.912 363.947C155.912 363.597 155.772 363.31 155.492 363.086C155.226 362.848 154.876 362.659 154.442 362.519C154.022 362.379 153.448 362.225 152.72 362.057C151.6 361.791 150.683 361.525 149.969 361.259C149.255 360.993 148.639 360.566 148.121 359.978C147.617 359.39 147.365 358.606 147.365 357.626C147.365 356.772 147.596 356.002 148.058 355.316C148.52 354.616 149.213 354.063 150.137 353.657C151.075 353.251 152.216 353.048 153.56 353.048C154.498 353.048 155.415 353.16 156.311 353.384C157.207 353.608 157.991 353.93 158.663 354.35L157.613 356.933C156.255 356.163 154.897 355.778 153.539 355.778C152.587 355.778 151.88 355.932 151.418 356.24C150.97 356.548 150.746 356.954 150.746 357.458C150.746 357.962 151.005 358.34 151.523 358.592C152.055 358.83 152.86 359.068 153.938 359.306C155.058 359.572 155.975 359.838 156.689 360.104C157.403 360.37 158.012 360.79 158.516 361.364C159.034 361.938 159.293 362.715 159.293 363.695C159.293 364.535 159.055 365.305 158.579 366.005C158.117 366.691 157.417 367.237 156.479 367.643C155.541 368.049 154.4 368.252 153.056 368.252Z" fill="white"/>
<path d="M52.4836 497.3V512H49.0816V500.03H46.1416V497.3H52.4836ZM84.1265 497.3L79.3175 512H75.6635L72.4295 502.046L69.0905 512H65.4575L60.6275 497.3H64.1555L67.4735 507.632L70.9385 497.3H74.0885L77.4485 507.716L80.8715 497.3H84.1265ZM97.4077 509.27V512H86.0257V497.3H97.1347V500.03H89.4067V503.222H96.2317V505.868H89.4067V509.27H97.4077ZM111.497 509.27V512H100.115V497.3H111.224V500.03H103.496V503.222H110.321V505.868H103.496V509.27H111.497ZM119.558 506.225L117.584 508.283V512H114.203V497.3H117.584V504.167L124.094 497.3H127.874L121.784 503.852L128.231 512H124.262L119.558 506.225Z" fill="white"/>
<path d="M174 0L196.841 26.8475L220 0V117.153L196.841 144L174 117.153V0Z" fill="#F2F2F2"/>
<path d="M52.4836 641.3V656H49.0816V644.03H46.1416V641.3H52.4836ZM84.1265 641.3L79.3175 656H75.6635L72.4295 646.046L69.0905 656H65.4575L60.6275 641.3H64.1555L67.4735 651.632L70.9385 641.3H74.0885L77.4485 651.716L80.8715 641.3H84.1265ZM97.4077 653.27V656H86.0257V641.3H97.1347V644.03H89.4067V647.222H96.2317V649.868H89.4067V653.27H97.4077ZM111.497 653.27V656H100.115V641.3H111.224V644.03H103.496V647.222H110.321V649.868H103.496V653.27H111.497ZM119.558 650.225L117.584 652.283V656H114.203V641.3H117.584V648.167L124.094 641.3H127.874L121.784 647.852L128.231 656H124.262L119.558 650.225Z" fill="white"/>
<path d="M174 144L196.841 170.847L220 144V261.153L196.841 288L174 261.153V144Z" fill="#F2F2F2"/>
<path d="M174 288L196.841 314.847L220 288V405.153L196.841 432L174 405.153V288Z" fill="#F2F2F2"/>
<path d="M174 576L196.841 602.847L220 576V693.153L196.841 720L174 693.153V576Z" fill="#F2F2F2"/>
<path d="M174 432L196.841 458.847L220 432V549.153L196.841 576L174 549.153V432Z" fill="#F2F2F2"/>
<path d="M199.377 65.3V80H195.975V68.03H193.035V65.3H199.377Z" fill="black"/>
<path d="M202.609 221.228V224H191.5V221.795L197.17 216.44C197.772 215.866 198.178 215.376 198.388 214.97C198.598 214.55 198.703 214.137 198.703 213.731C198.703 213.143 198.5 212.695 198.094 212.387C197.702 212.065 197.121 211.904 196.351 211.904C195.707 211.904 195.126 212.03 194.608 212.282C194.09 212.52 193.656 212.884 193.306 213.374L190.828 211.778C191.402 210.924 192.193 210.259 193.201 209.783C194.209 209.293 195.364 209.048 196.666 209.048C197.758 209.048 198.71 209.23 199.522 209.594C200.348 209.944 200.985 210.448 201.433 211.106C201.895 211.75 202.126 212.513 202.126 213.395C202.126 214.193 201.958 214.942 201.622 215.642C201.286 216.342 200.635 217.14 199.669 218.036L196.288 221.228H202.609Z" fill="black"/>
<path d="M198.472 359.285C199.76 359.495 200.747 359.978 201.433 360.734C202.119 361.476 202.462 362.4 202.462 363.506C202.462 364.36 202.238 365.151 201.79 365.879C201.342 366.593 200.656 367.167 199.732 367.601C198.822 368.035 197.702 368.252 196.372 368.252C195.336 368.252 194.314 368.119 193.306 367.853C192.312 367.573 191.465 367.181 190.765 366.677L192.088 364.073C192.648 364.493 193.292 364.822 194.02 365.06C194.762 365.284 195.518 365.396 196.288 365.396C197.142 365.396 197.814 365.235 198.304 364.913C198.794 364.577 199.039 364.108 199.039 363.506C199.039 362.302 198.122 361.7 196.288 361.7H194.734V359.453L197.758 356.03H191.5V353.3H201.79V355.505L198.472 359.285Z" fill="black"/>
<path d="M204.041 508.913H201.647V512H198.329V508.913H190.412V506.624L197.342 497.3H200.912L194.486 506.141H198.434V503.39H201.647V506.141H204.041V508.913Z" fill="black"/>
<path d="M196.614 646.823C198.686 646.823 200.212 647.236 201.192 648.062C202.186 648.888 202.683 649.994 202.683 651.38C202.683 652.276 202.459 653.095 202.011 653.837C201.563 654.565 200.877 655.153 199.953 655.601C199.043 656.035 197.916 656.252 196.572 656.252C195.536 656.252 194.514 656.119 193.506 655.853C192.512 655.573 191.665 655.181 190.965 654.677L192.309 652.073C192.869 652.493 193.513 652.822 194.241 653.06C194.969 653.284 195.718 653.396 196.488 653.396C197.342 653.396 198.014 653.228 198.504 652.892C198.994 652.556 199.239 652.087 199.239 651.485C199.239 650.855 198.98 650.379 198.462 650.057C197.958 649.735 197.076 649.574 195.816 649.574H192.057L192.813 641.3H201.78V644.03H195.648L195.417 646.823H196.614Z" fill="black"/>
<rect x="220" width="396" height="144" fill="#002D62"/>
<rect x="220" y="144" width="396" height="144" fill="#002D62" fill-opacity="0.8"/>
<rect y="144" width="174" height="144" fill="#002D62" fill-opacity="0.8"/>
<rect x="220" y="432" width="396" height="144" fill="#3470B7"/>
<rect x="220" y="576" width="396" height="144" fill="#3470B7" fill-opacity="0.8"/>
<rect x="220" y="288" width="396" height="144" fill="#1B58A0"/>
<path d="M368.614 76.85H361.789L360.487 80H357.001L363.553 65.3H366.913L373.486 80H369.916L368.614 76.85ZM367.543 74.267L365.212 68.639L362.881 74.267H367.543ZM386.186 64.418V80H383.057V78.698C382.245 79.678 381.069 80.168 379.529 80.168C378.465 80.168 377.499 79.93 376.631 79.454C375.777 78.978 375.105 78.299 374.615 77.417C374.125 76.535 373.88 75.513 373.88 74.351C373.88 73.189 374.125 72.167 374.615 71.285C375.105 70.403 375.777 69.724 376.631 69.248C377.499 68.772 378.465 68.534 379.529 68.534C380.971 68.534 382.098 68.989 382.91 69.899V64.418H386.186ZM380.096 77.48C380.922 77.48 381.608 77.2 382.154 76.64C382.7 76.066 382.973 75.303 382.973 74.351C382.973 73.399 382.7 72.643 382.154 72.083C381.608 71.509 380.922 71.222 380.096 71.222C379.256 71.222 378.563 71.509 378.017 72.083C377.471 72.643 377.198 73.399 377.198 74.351C377.198 75.303 377.471 76.066 378.017 76.64C378.563 77.2 379.256 77.48 380.096 77.48ZM400.432 68.702L395.665 80H392.284L387.538 68.702H390.919L394.048 76.388L397.282 68.702H400.432ZM412.528 74.393C412.528 74.435 412.507 74.729 412.465 75.275H403.918C404.072 75.975 404.436 76.528 405.01 76.934C405.584 77.34 406.298 77.543 407.152 77.543C407.74 77.543 408.258 77.459 408.706 77.291C409.168 77.109 409.595 76.829 409.987 76.451L411.73 78.341C410.666 79.559 409.112 80.168 407.068 80.168C405.794 80.168 404.667 79.923 403.687 79.433C402.707 78.929 401.951 78.236 401.419 77.354C400.887 76.472 400.621 75.471 400.621 74.351C400.621 73.245 400.88 72.251 401.398 71.369C401.93 70.473 402.651 69.78 403.561 69.29C404.485 68.786 405.514 68.534 406.648 68.534C407.754 68.534 408.755 68.772 409.651 69.248C410.547 69.724 411.247 70.41 411.751 71.306C412.269 72.188 412.528 73.217 412.528 74.393ZM406.669 71.012C405.927 71.012 405.304 71.222 404.8 71.642C404.296 72.062 403.988 72.636 403.876 73.364H409.441C409.329 72.65 409.021 72.083 408.517 71.663C408.013 71.229 407.397 71.012 406.669 71.012ZM417.838 70.193C418.23 69.647 418.755 69.234 419.413 68.954C420.085 68.674 420.855 68.534 421.723 68.534V71.558C421.359 71.53 421.114 71.516 420.988 71.516C420.05 71.516 419.315 71.782 418.783 72.314C418.251 72.832 417.985 73.616 417.985 74.666V80H414.709V68.702H417.838V70.193ZM431.347 79.454C431.025 79.692 430.626 79.874 430.15 80C429.688 80.112 429.198 80.168 428.68 80.168C427.336 80.168 426.293 79.825 425.551 79.139C424.823 78.453 424.459 77.445 424.459 76.115V71.474H422.716V68.954H424.459V66.203H427.735V68.954H430.549V71.474H427.735V76.073C427.735 76.549 427.854 76.92 428.092 77.186C428.344 77.438 428.694 77.564 429.142 77.564C429.66 77.564 430.101 77.424 430.465 77.144L431.347 79.454ZM433.186 68.702H436.462V80H433.186V68.702ZM434.824 67.127C434.222 67.127 433.732 66.952 433.354 66.602C432.976 66.252 432.787 65.818 432.787 65.3C432.787 64.782 432.976 64.348 433.354 63.998C433.732 63.648 434.222 63.473 434.824 63.473C435.426 63.473 435.916 63.641 436.294 63.977C436.672 64.313 436.861 64.733 436.861 65.237C436.861 65.783 436.672 66.238 436.294 66.602C435.916 66.952 435.426 67.127 434.824 67.127ZM443.304 80.168C442.366 80.168 441.449 80.056 440.553 79.832C439.657 79.594 438.943 79.3 438.411 78.95L439.503 76.598C440.007 76.92 440.616 77.186 441.33 77.396C442.044 77.592 442.744 77.69 443.43 77.69C444.816 77.69 445.509 77.347 445.509 76.661C445.509 76.339 445.32 76.108 444.942 75.968C444.564 75.828 443.983 75.709 443.199 75.611C442.275 75.471 441.512 75.31 440.91 75.128C440.308 74.946 439.783 74.624 439.335 74.162C438.901 73.7 438.684 73.042 438.684 72.188C438.684 71.474 438.887 70.844 439.293 70.298C439.713 69.738 440.315 69.304 441.099 68.996C441.897 68.688 442.835 68.534 443.913 68.534C444.711 68.534 445.502 68.625 446.286 68.807C447.084 68.975 447.742 69.213 448.26 69.521L447.168 71.852C446.174 71.292 445.089 71.012 443.913 71.012C443.213 71.012 442.688 71.11 442.338 71.306C441.988 71.502 441.813 71.754 441.813 72.062C441.813 72.412 442.002 72.657 442.38 72.797C442.758 72.937 443.36 73.07 444.186 73.196C445.11 73.35 445.866 73.518 446.454 73.7C447.042 73.868 447.553 74.183 447.987 74.645C448.421 75.107 448.638 75.751 448.638 76.577C448.638 77.277 448.428 77.9 448.008 78.446C447.588 78.992 446.972 79.419 446.16 79.727C445.362 80.021 444.41 80.168 443.304 80.168ZM450.659 68.702H453.935V80H450.659V68.702ZM452.297 67.127C451.695 67.127 451.205 66.952 450.827 66.602C450.449 66.252 450.26 65.818 450.26 65.3C450.26 64.782 450.449 64.348 450.827 63.998C451.205 63.648 451.695 63.473 452.297 63.473C452.899 63.473 453.389 63.641 453.767 63.977C454.145 64.313 454.334 64.733 454.334 65.237C454.334 65.783 454.145 66.238 453.767 66.602C453.389 66.952 452.899 67.127 452.297 67.127ZM463.842 68.534C465.242 68.534 466.369 68.954 467.223 69.794C468.091 70.634 468.525 71.88 468.525 73.532V80H465.249V74.036C465.249 73.14 465.053 72.475 464.661 72.041C464.269 71.593 463.702 71.369 462.96 71.369C462.134 71.369 461.476 71.628 460.986 72.146C460.496 72.65 460.251 73.406 460.251 74.414V80H456.975V68.702H460.104V70.025C460.538 69.549 461.077 69.185 461.721 68.933C462.365 68.667 463.072 68.534 463.842 68.534ZM483.273 68.702V78.11C483.273 80.182 482.734 81.722 481.656 82.73C480.578 83.738 479.003 84.242 476.931 84.242C475.839 84.242 474.803 84.109 473.823 83.843C472.843 83.577 472.031 83.192 471.387 82.688L472.689 80.336C473.165 80.728 473.767 81.036 474.495 81.26C475.223 81.498 475.951 81.617 476.679 81.617C477.813 81.617 478.646 81.358 479.178 80.84C479.724 80.336 479.997 79.566 479.997 78.53V78.047C479.143 78.985 477.953 79.454 476.427 79.454C475.391 79.454 474.439 79.23 473.571 78.782C472.717 78.32 472.038 77.676 471.534 76.85C471.03 76.024 470.778 75.072 470.778 73.994C470.778 72.916 471.03 71.964 471.534 71.138C472.038 70.312 472.717 69.675 473.571 69.227C474.439 68.765 475.391 68.534 476.427 68.534C478.065 68.534 479.311 69.073 480.165 70.151V68.702H483.273ZM477.078 76.766C477.946 76.766 478.653 76.514 479.199 76.01C479.759 75.492 480.039 74.82 480.039 73.994C480.039 73.168 479.759 72.503 479.199 71.999C478.653 71.481 477.946 71.222 477.078 71.222C476.21 71.222 475.496 71.481 474.936 71.999C474.376 72.503 474.096 73.168 474.096 73.994C474.096 74.82 474.376 75.492 474.936 76.01C475.496 76.514 476.21 76.766 477.078 76.766Z" fill="white"/>
<path d="M317.152 224L314.317 219.905H314.149H311.188V224H307.786V209.3H314.149C315.451 209.3 316.578 209.517 317.53 209.951C318.496 210.385 319.238 211.001 319.756 211.799C320.274 212.597 320.533 213.542 320.533 214.634C320.533 215.726 320.267 216.671 319.735 217.469C319.217 218.253 318.475 218.855 317.509 219.275L320.806 224H317.152ZM317.089 214.634C317.089 213.808 316.823 213.178 316.291 212.744C315.759 212.296 314.982 212.072 313.96 212.072H311.188V217.196H313.96C314.982 217.196 315.759 216.972 316.291 216.524C316.823 216.076 317.089 215.446 317.089 214.634ZM334.065 218.393C334.065 218.435 334.044 218.729 334.002 219.275H325.455C325.609 219.975 325.973 220.528 326.547 220.934C327.121 221.34 327.835 221.543 328.689 221.543C329.277 221.543 329.795 221.459 330.243 221.291C330.705 221.109 331.132 220.829 331.524 220.451L333.267 222.341C332.203 223.559 330.649 224.168 328.605 224.168C327.331 224.168 326.204 223.923 325.224 223.433C324.244 222.929 323.488 222.236 322.956 221.354C322.424 220.472 322.158 219.471 322.158 218.351C322.158 217.245 322.417 216.251 322.935 215.369C323.467 214.473 324.188 213.78 325.098 213.29C326.022 212.786 327.051 212.534 328.185 212.534C329.291 212.534 330.292 212.772 331.188 213.248C332.084 213.724 332.784 214.41 333.288 215.306C333.806 216.188 334.065 217.217 334.065 218.393ZM328.206 215.012C327.464 215.012 326.841 215.222 326.337 215.642C325.833 216.062 325.525 216.636 325.413 217.364H330.978C330.866 216.65 330.558 216.083 330.054 215.663C329.55 215.229 328.934 215.012 328.206 215.012ZM341.706 224.168C340.502 224.168 339.417 223.923 338.451 223.433C337.499 222.929 336.75 222.236 336.204 221.354C335.672 220.472 335.406 219.471 335.406 218.351C335.406 217.231 335.672 216.23 336.204 215.348C336.75 214.466 337.499 213.78 338.451 213.29C339.417 212.786 340.502 212.534 341.706 212.534C342.896 212.534 343.932 212.786 344.814 213.29C345.71 213.78 346.361 214.487 346.767 215.411L344.226 216.776C343.638 215.74 342.791 215.222 341.685 215.222C340.831 215.222 340.124 215.502 339.564 216.062C339.004 216.622 338.724 217.385 338.724 218.351C338.724 219.317 339.004 220.08 339.564 220.64C340.124 221.2 340.831 221.48 341.685 221.48C342.805 221.48 343.652 220.962 344.226 219.926L346.767 221.312C346.361 222.208 345.71 222.908 344.814 223.412C343.932 223.916 342.896 224.168 341.706 224.168ZM359.577 218.393C359.577 218.435 359.556 218.729 359.514 219.275H350.967C351.121 219.975 351.485 220.528 352.059 220.934C352.633 221.34 353.347 221.543 354.201 221.543C354.789 221.543 355.307 221.459 355.755 221.291C356.217 221.109 356.644 220.829 357.036 220.451L358.779 222.341C357.715 223.559 356.161 224.168 354.117 224.168C352.843 224.168 351.716 223.923 350.736 223.433C349.756 222.929 349 222.236 348.468 221.354C347.936 220.472 347.67 219.471 347.67 218.351C347.67 217.245 347.929 216.251 348.447 215.369C348.979 214.473 349.7 213.78 350.61 213.29C351.534 212.786 352.563 212.534 353.697 212.534C354.803 212.534 355.804 212.772 356.7 213.248C357.596 213.724 358.296 214.41 358.8 215.306C359.318 216.188 359.577 217.217 359.577 218.393ZM353.718 215.012C352.976 215.012 352.353 215.222 351.849 215.642C351.345 216.062 351.037 216.636 350.925 217.364H356.49C356.378 216.65 356.07 216.083 355.566 215.663C355.062 215.229 354.446 215.012 353.718 215.012ZM361.758 212.702H365.034V224H361.758V212.702ZM363.396 211.127C362.794 211.127 362.304 210.952 361.926 210.602C361.548 210.252 361.359 209.818 361.359 209.3C361.359 208.782 361.548 208.348 361.926 207.998C362.304 207.648 362.794 207.473 363.396 207.473C363.998 207.473 364.488 207.641 364.866 207.977C365.244 208.313 365.433 208.733 365.433 209.237C365.433 209.783 365.244 210.238 364.866 210.602C364.488 210.952 363.998 211.127 363.396 211.127ZM379.288 212.702L374.521 224H371.14L366.394 212.702H369.775L372.904 220.388L376.138 212.702H379.288ZM391.384 218.393C391.384 218.435 391.363 218.729 391.321 219.275H382.774C382.928 219.975 383.292 220.528 383.866 220.934C384.44 221.34 385.154 221.543 386.008 221.543C386.596 221.543 387.114 221.459 387.562 221.291C388.024 221.109 388.451 220.829 388.843 220.451L390.586 222.341C389.522 223.559 387.968 224.168 385.924 224.168C384.65 224.168 383.523 223.923 382.543 223.433C381.563 222.929 380.807 222.236 380.275 221.354C379.743 220.472 379.477 219.471 379.477 218.351C379.477 217.245 379.736 216.251 380.254 215.369C380.786 214.473 381.507 213.78 382.417 213.29C383.341 212.786 384.37 212.534 385.504 212.534C386.61 212.534 387.611 212.772 388.507 213.248C389.403 213.724 390.103 214.41 390.607 215.306C391.125 216.188 391.384 217.217 391.384 218.393ZM385.525 215.012C384.783 215.012 384.16 215.222 383.656 215.642C383.152 216.062 382.844 216.636 382.732 217.364H388.297C388.185 216.65 387.877 216.083 387.373 215.663C386.869 215.229 386.253 215.012 385.525 215.012ZM409.424 220.85H402.599L401.297 224H397.811L404.363 209.3H407.723L414.296 224H410.726L409.424 220.85ZM408.353 218.267L406.022 212.639L403.691 218.267H408.353ZM422.269 212.534C423.319 212.534 424.271 212.779 425.125 213.269C425.993 213.745 426.672 214.424 427.162 215.306C427.652 216.174 427.897 217.189 427.897 218.351C427.897 219.513 427.652 220.535 427.162 221.417C426.672 222.285 425.993 222.964 425.125 223.454C424.271 223.93 423.319 224.168 422.269 224.168C420.827 224.168 419.693 223.713 418.867 222.803V228.074H415.591V212.702H418.72V214.004C419.532 213.024 420.715 212.534 422.269 212.534ZM421.702 221.48C422.542 221.48 423.228 221.2 423.76 220.64C424.306 220.066 424.579 219.303 424.579 218.351C424.579 217.399 424.306 216.643 423.76 216.083C423.228 215.509 422.542 215.222 421.702 215.222C420.862 215.222 420.169 215.509 419.623 216.083C419.091 216.643 418.825 217.399 418.825 218.351C418.825 219.303 419.091 220.066 419.623 220.64C420.169 221.2 420.862 221.48 421.702 221.48ZM436.768 212.534C437.818 212.534 438.77 212.779 439.624 213.269C440.492 213.745 441.171 214.424 441.661 215.306C442.151 216.174 442.396 217.189 442.396 218.351C442.396 219.513 442.151 220.535 441.661 221.417C441.171 222.285 440.492 222.964 439.624 223.454C438.77 223.93 437.818 224.168 436.768 224.168C435.326 224.168 434.192 223.713 433.366 222.803V228.074H430.09V212.702H433.219V214.004C434.031 213.024 435.214 212.534 436.768 212.534ZM436.201 221.48C437.041 221.48 437.727 221.2 438.259 220.64C438.805 220.066 439.078 219.303 439.078 218.351C439.078 217.399 438.805 216.643 438.259 216.083C437.727 215.509 437.041 215.222 436.201 215.222C435.361 215.222 434.668 215.509 434.122 216.083C433.59 216.643 433.324 217.399 433.324 218.351C433.324 219.303 433.59 220.066 434.122 220.64C434.668 221.2 435.361 221.48 436.201 221.48ZM444.589 208.418H447.865V224H444.589V208.418ZM450.905 212.702H454.181V224H450.905V212.702ZM452.543 211.127C451.941 211.127 451.451 210.952 451.073 210.602C450.695 210.252 450.506 209.818 450.506 209.3C450.506 208.782 450.695 208.348 451.073 207.998C451.451 207.648 451.941 207.473 452.543 207.473C453.145 207.473 453.635 207.641 454.013 207.977C454.391 208.313 454.58 208.733 454.58 209.237C454.58 209.783 454.391 210.238 454.013 210.602C453.635 210.952 453.145 211.127 452.543 211.127ZM462.681 224.168C461.477 224.168 460.392 223.923 459.426 223.433C458.474 222.929 457.725 222.236 457.179 221.354C456.647 220.472 456.381 219.471 456.381 218.351C456.381 217.231 456.647 216.23 457.179 215.348C457.725 214.466 458.474 213.78 459.426 213.29C460.392 212.786 461.477 212.534 462.681 212.534C463.871 212.534 464.907 212.786 465.789 213.29C466.685 213.78 467.336 214.487 467.742 215.411L465.201 216.776C464.613 215.74 463.766 215.222 462.66 215.222C461.806 215.222 461.099 215.502 460.539 216.062C459.979 216.622 459.699 217.385 459.699 218.351C459.699 219.317 459.979 220.08 460.539 220.64C461.099 221.2 461.806 221.48 462.66 221.48C463.78 221.48 464.627 220.962 465.201 219.926L467.742 221.312C467.336 222.208 466.685 222.908 465.789 223.412C464.907 223.916 463.871 224.168 462.681 224.168ZM474.186 212.534C475.936 212.534 477.28 212.954 478.218 213.794C479.156 214.62 479.625 215.873 479.625 217.553V224H476.559V222.593C475.943 223.643 474.795 224.168 473.115 224.168C472.247 224.168 471.491 224.021 470.847 223.727C470.217 223.433 469.734 223.027 469.398 222.509C469.062 221.991 468.894 221.403 468.894 220.745C468.894 219.695 469.286 218.869 470.07 218.267C470.868 217.665 472.093 217.364 473.745 217.364H476.349C476.349 216.65 476.132 216.104 475.698 215.726C475.264 215.334 474.613 215.138 473.745 215.138C473.143 215.138 472.548 215.236 471.96 215.432C471.386 215.614 470.896 215.866 470.49 216.188L469.314 213.899C469.93 213.465 470.665 213.129 471.519 212.891C472.387 212.653 473.276 212.534 474.186 212.534ZM473.934 221.963C474.494 221.963 474.991 221.837 475.425 221.585C475.859 221.319 476.167 220.934 476.349 220.43V219.275H474.102C472.758 219.275 472.086 219.716 472.086 220.598C472.086 221.018 472.247 221.354 472.569 221.606C472.905 221.844 473.36 221.963 473.934 221.963ZM489.877 223.454C489.555 223.692 489.156 223.874 488.68 224C488.218 224.112 487.728 224.168 487.21 224.168C485.866 224.168 484.823 223.825 484.081 223.139C483.353 222.453 482.989 221.445 482.989 220.115V215.474H481.246V212.954H482.989V210.203H486.265V212.954H489.079V215.474H486.265V220.073C486.265 220.549 486.384 220.92 486.622 221.186C486.874 221.438 487.224 221.564 487.672 221.564C488.19 221.564 488.631 221.424 488.995 221.144L489.877 223.454ZM491.716 212.702H494.992V224H491.716V212.702ZM493.354 211.127C492.752 211.127 492.262 210.952 491.884 210.602C491.506 210.252 491.317 209.818 491.317 209.3C491.317 208.782 491.506 208.348 491.884 207.998C492.262 207.648 492.752 207.473 493.354 207.473C493.956 207.473 494.446 207.641 494.824 207.977C495.202 208.313 495.391 208.733 495.391 209.237C495.391 209.783 495.202 210.238 494.824 210.602C494.446 210.952 493.956 211.127 493.354 211.127ZM503.408 224.168C502.218 224.168 501.147 223.923 500.195 223.433C499.257 222.929 498.522 222.236 497.99 221.354C497.458 220.472 497.192 219.471 497.192 218.351C497.192 217.231 497.458 216.23 497.99 215.348C498.522 214.466 499.257 213.78 500.195 213.29C501.147 212.786 502.218 212.534 503.408 212.534C504.598 212.534 505.662 212.786 506.6 213.29C507.538 213.78 508.273 214.466 508.805 215.348C509.337 216.23 509.603 217.231 509.603 218.351C509.603 219.471 509.337 220.472 508.805 221.354C508.273 222.236 507.538 222.929 506.6 223.433C505.662 223.923 504.598 224.168 503.408 224.168ZM503.408 221.48C504.248 221.48 504.934 221.2 505.466 220.64C506.012 220.066 506.285 219.303 506.285 218.351C506.285 217.399 506.012 216.643 505.466 216.083C504.934 215.509 504.248 215.222 503.408 215.222C502.568 215.222 501.875 215.509 501.329 216.083C500.783 216.643 500.51 217.399 500.51 218.351C500.51 219.303 500.783 220.066 501.329 220.64C501.875 221.2 502.568 221.48 503.408 221.48ZM518.66 212.534C520.06 212.534 521.187 212.954 522.041 213.794C522.909 214.634 523.343 215.88 523.343 217.532V224H520.067V218.036C520.067 217.14 519.871 216.475 519.479 216.041C519.087 215.593 518.52 215.369 517.778 215.369C516.952 215.369 516.294 215.628 515.804 216.146C515.314 216.65 515.069 217.406 515.069 218.414V224H511.793V212.702H514.922V214.025C515.356 213.549 515.895 213.185 516.539 212.933C517.183 212.667 517.89 212.534 518.66 212.534ZM530.113 224.168C529.175 224.168 528.258 224.056 527.362 223.832C526.466 223.594 525.752 223.3 525.22 222.95L526.312 220.598C526.816 220.92 527.425 221.186 528.139 221.396C528.853 221.592 529.553 221.69 530.239 221.69C531.625 221.69 532.318 221.347 532.318 220.661C532.318 220.339 532.129 220.108 531.751 219.968C531.373 219.828 530.792 219.709 530.008 219.611C529.084 219.471 528.321 219.31 527.719 219.128C527.117 218.946 526.592 218.624 526.144 218.162C525.71 217.7 525.493 217.042 525.493 216.188C525.493 215.474 525.696 214.844 526.102 214.298C526.522 213.738 527.124 213.304 527.908 212.996C528.706 212.688 529.644 212.534 530.722 212.534C531.52 212.534 532.311 212.625 533.095 212.807C533.893 212.975 534.551 213.213 535.069 213.521L533.977 215.852C532.983 215.292 531.898 215.012 530.722 215.012C530.022 215.012 529.497 215.11 529.147 215.306C528.797 215.502 528.622 215.754 528.622 216.062C528.622 216.412 528.811 216.657 529.189 216.797C529.567 216.937 530.169 217.07 530.995 217.196C531.919 217.35 532.675 217.518 533.263 217.7C533.851 217.868 534.362 218.183 534.796 218.645C535.23 219.107 535.447 219.751 535.447 220.577C535.447 221.277 535.237 221.9 534.817 222.446C534.397 222.992 533.781 223.419 532.969 223.727C532.171 224.021 531.219 224.168 530.113 224.168Z" fill="white"/>
<path d="M322.091 512.252C320.593 512.252 319.235 511.93 318.017 511.286C316.813 510.628 315.861 509.725 315.161 508.577C314.475 507.415 314.132 506.106 314.132 504.65C314.132 503.194 314.475 501.892 315.161 500.744C315.861 499.582 316.813 498.679 318.017 498.035C319.235 497.377 320.6 497.048 322.112 497.048C323.386 497.048 324.534 497.272 325.556 497.72C326.592 498.168 327.46 498.812 328.16 499.652L325.976 501.668C324.982 500.52 323.75 499.946 322.28 499.946C321.37 499.946 320.558 500.149 319.844 500.555C319.13 500.947 318.57 501.5 318.164 502.214C317.772 502.928 317.576 503.74 317.576 504.65C317.576 505.56 317.772 506.372 318.164 507.086C318.57 507.8 319.13 508.36 319.844 508.766C320.558 509.158 321.37 509.354 322.28 509.354C323.75 509.354 324.982 508.773 325.976 507.611L328.16 509.627C327.46 510.481 326.592 511.132 325.556 511.58C324.52 512.028 323.365 512.252 322.091 512.252ZM335.213 512.168C334.023 512.168 332.952 511.923 332 511.433C331.062 510.929 330.327 510.236 329.795 509.354C329.263 508.472 328.997 507.471 328.997 506.351C328.997 505.231 329.263 504.23 329.795 503.348C330.327 502.466 331.062 501.78 332 501.29C332.952 500.786 334.023 500.534 335.213 500.534C336.403 500.534 337.467 500.786 338.405 501.29C339.343 501.78 340.078 502.466 340.61 503.348C341.142 504.23 341.408 505.231 341.408 506.351C341.408 507.471 341.142 508.472 340.61 509.354C340.078 510.236 339.343 510.929 338.405 511.433C337.467 511.923 336.403 512.168 335.213 512.168ZM335.213 509.48C336.053 509.48 336.739 509.2 337.271 508.64C337.817 508.066 338.09 507.303 338.09 506.351C338.09 505.399 337.817 504.643 337.271 504.083C336.739 503.509 336.053 503.222 335.213 503.222C334.373 503.222 333.68 503.509 333.134 504.083C332.588 504.643 332.315 505.399 332.315 506.351C332.315 507.303 332.588 508.066 333.134 508.64C333.68 509.2 334.373 509.48 335.213 509.48ZM350.465 500.534C351.865 500.534 352.992 500.954 353.846 501.794C354.714 502.634 355.148 503.88 355.148 505.532V512H351.872V506.036C351.872 505.14 351.676 504.475 351.284 504.041C350.892 503.593 350.325 503.369 349.583 503.369C348.757 503.369 348.099 503.628 347.609 504.146C347.119 504.65 346.874 505.406 346.874 506.414V512H343.598V500.702H346.727V502.025C347.161 501.549 347.7 501.185 348.344 500.933C348.988 500.667 349.695 500.534 350.465 500.534ZM369.749 496.418V512H366.62V510.698C365.808 511.678 364.632 512.168 363.092 512.168C362.028 512.168 361.062 511.93 360.194 511.454C359.34 510.978 358.668 510.299 358.178 509.417C357.688 508.535 357.443 507.513 357.443 506.351C357.443 505.189 357.688 504.167 358.178 503.285C358.668 502.403 359.34 501.724 360.194 501.248C361.062 500.772 362.028 500.534 363.092 500.534C364.534 500.534 365.661 500.989 366.473 501.899V496.418H369.749ZM363.659 509.48C364.485 509.48 365.171 509.2 365.717 508.64C366.263 508.066 366.536 507.303 366.536 506.351C366.536 505.399 366.263 504.643 365.717 504.083C365.171 503.509 364.485 503.222 363.659 503.222C362.819 503.222 362.126 503.509 361.58 504.083C361.034 504.643 360.761 505.399 360.761 506.351C360.761 507.303 361.034 508.066 361.58 508.64C362.126 509.2 362.819 509.48 363.659 509.48ZM384.163 500.702V512H381.055V510.656C380.621 511.146 380.103 511.524 379.501 511.79C378.899 512.042 378.248 512.168 377.548 512.168C376.064 512.168 374.888 511.741 374.02 510.887C373.152 510.033 372.718 508.766 372.718 507.086V500.702H375.994V506.603C375.994 508.423 376.757 509.333 378.283 509.333C379.067 509.333 379.697 509.081 380.173 508.577C380.649 508.059 380.887 507.296 380.887 506.288V500.702H384.163ZM392.658 512.168C391.454 512.168 390.369 511.923 389.403 511.433C388.451 510.929 387.702 510.236 387.156 509.354C386.624 508.472 386.358 507.471 386.358 506.351C386.358 505.231 386.624 504.23 387.156 503.348C387.702 502.466 388.451 501.78 389.403 501.29C390.369 500.786 391.454 500.534 392.658 500.534C393.848 500.534 394.884 500.786 395.766 501.29C396.662 501.78 397.313 502.487 397.719 503.411L395.178 504.776C394.59 503.74 393.743 503.222 392.637 503.222C391.783 503.222 391.076 503.502 390.516 504.062C389.956 504.622 389.676 505.385 389.676 506.351C389.676 507.317 389.956 508.08 390.516 508.64C391.076 509.2 391.783 509.48 392.637 509.48C393.757 509.48 394.604 508.962 395.178 507.926L397.719 509.312C397.313 510.208 396.662 510.908 395.766 511.412C394.884 511.916 393.848 512.168 392.658 512.168ZM407.056 511.454C406.734 511.692 406.335 511.874 405.859 512C405.397 512.112 404.907 512.168 404.389 512.168C403.045 512.168 402.002 511.825 401.26 511.139C400.532 510.453 400.168 509.445 400.168 508.115V503.474H398.425V500.954H400.168V498.203H403.444V500.954H406.258V503.474H403.444V508.073C403.444 508.549 403.563 508.92 403.801 509.186C404.053 509.438 404.403 509.564 404.851 509.564C405.369 509.564 405.81 509.424 406.174 509.144L407.056 511.454ZM415.073 497.3H418.475V512H415.073V497.3ZM428.6 500.534C430 500.534 431.127 500.954 431.981 501.794C432.849 502.634 433.283 503.88 433.283 505.532V512H430.007V506.036C430.007 505.14 429.811 504.475 429.419 504.041C429.027 503.593 428.46 503.369 427.718 503.369C426.892 503.369 426.234 503.628 425.744 504.146C425.254 504.65 425.009 505.406 425.009 506.414V512H421.733V500.702H424.862V502.025C425.296 501.549 425.835 501.185 426.479 500.933C427.123 500.667 427.83 500.534 428.6 500.534ZM443.539 511.454C443.217 511.692 442.818 511.874 442.342 512C441.88 512.112 441.39 512.168 440.872 512.168C439.528 512.168 438.485 511.825 437.743 511.139C437.015 510.453 436.651 509.445 436.651 508.115V503.474H434.908V500.954H436.651V498.203H439.927V500.954H442.741V503.474H439.927V508.073C439.927 508.549 440.046 508.92 440.284 509.186C440.536 509.438 440.886 509.564 441.334 509.564C441.852 509.564 442.293 509.424 442.657 509.144L443.539 511.454ZM456.097 506.393C456.097 506.435 456.076 506.729 456.034 507.275H447.487C447.641 507.975 448.005 508.528 448.579 508.934C449.153 509.34 449.867 509.543 450.721 509.543C451.309 509.543 451.827 509.459 452.275 509.291C452.737 509.109 453.164 508.829 453.556 508.451L455.299 510.341C454.235 511.559 452.681 512.168 450.637 512.168C449.363 512.168 448.236 511.923 447.256 511.433C446.276 510.929 445.52 510.236 444.988 509.354C444.456 508.472 444.19 507.471 444.19 506.351C444.19 505.245 444.449 504.251 444.967 503.369C445.499 502.473 446.22 501.78 447.13 501.29C448.054 500.786 449.083 500.534 450.217 500.534C451.323 500.534 452.324 500.772 453.22 501.248C454.116 501.724 454.816 502.41 455.32 503.306C455.838 504.188 456.097 505.217 456.097 506.393ZM450.238 503.012C449.496 503.012 448.873 503.222 448.369 503.642C447.865 504.062 447.557 504.636 447.445 505.364H453.01C452.898 504.65 452.59 504.083 452.086 503.663C451.582 503.229 450.966 503.012 450.238 503.012ZM461.407 502.193C461.799 501.647 462.324 501.234 462.982 500.954C463.654 500.674 464.424 500.534 465.292 500.534V503.558C464.928 503.53 464.683 503.516 464.557 503.516C463.619 503.516 462.884 503.782 462.352 504.314C461.82 504.832 461.554 505.616 461.554 506.666V512H458.278V500.702H461.407V502.193ZM478.843 500.702L474.076 512H470.695L465.949 500.702H469.33L472.459 508.388L475.693 500.702H478.843ZM480.18 500.702H483.456V512H480.18V500.702ZM481.818 499.127C481.216 499.127 480.726 498.952 480.348 498.602C479.97 498.252 479.781 497.818 479.781 497.3C479.781 496.782 479.97 496.348 480.348 495.998C480.726 495.648 481.216 495.473 481.818 495.473C482.42 495.473 482.91 495.641 483.288 495.977C483.666 496.313 483.855 496.733 483.855 497.237C483.855 497.783 483.666 498.238 483.288 498.602C482.91 498.952 482.42 499.127 481.818 499.127ZM497.563 506.393C497.563 506.435 497.542 506.729 497.5 507.275H488.953C489.107 507.975 489.471 508.528 490.045 508.934C490.619 509.34 491.333 509.543 492.187 509.543C492.775 509.543 493.293 509.459 493.741 509.291C494.203 509.109 494.63 508.829 495.022 508.451L496.765 510.341C495.701 511.559 494.147 512.168 492.103 512.168C490.829 512.168 489.702 511.923 488.722 511.433C487.742 510.929 486.986 510.236 486.454 509.354C485.922 508.472 485.656 507.471 485.656 506.351C485.656 505.245 485.915 504.251 486.433 503.369C486.965 502.473 487.686 501.78 488.596 501.29C489.52 500.786 490.549 500.534 491.683 500.534C492.789 500.534 493.79 500.772 494.686 501.248C495.582 501.724 496.282 502.41 496.786 503.306C497.304 504.188 497.563 505.217 497.563 506.393ZM491.704 503.012C490.962 503.012 490.339 503.222 489.835 503.642C489.331 504.062 489.023 504.636 488.911 505.364H494.476C494.364 504.65 494.056 504.083 493.552 503.663C493.048 503.229 492.432 503.012 491.704 503.012ZM517.683 500.702L513.588 512H510.438L507.897 504.986L505.272 512H502.122L498.048 500.702H501.135L503.802 508.346L506.574 500.702H509.346L512.034 508.346L514.785 500.702H517.683ZM522.843 512.168C521.905 512.168 520.988 512.056 520.092 511.832C519.196 511.594 518.482 511.3 517.95 510.95L519.042 508.598C519.546 508.92 520.155 509.186 520.869 509.396C521.583 509.592 522.283 509.69 522.969 509.69C524.355 509.69 525.048 509.347 525.048 508.661C525.048 508.339 524.859 508.108 524.481 507.968C524.103 507.828 523.522 507.709 522.738 507.611C521.814 507.471 521.051 507.31 520.449 507.128C519.847 506.946 519.322 506.624 518.874 506.162C518.44 505.7 518.223 505.042 518.223 504.188C518.223 503.474 518.426 502.844 518.832 502.298C519.252 501.738 519.854 501.304 520.638 500.996C521.436 500.688 522.374 500.534 523.452 500.534C524.25 500.534 525.041 500.625 525.825 500.807C526.623 500.975 527.281 501.213 527.799 501.521L526.707 503.852C525.713 503.292 524.628 503.012 523.452 503.012C522.752 503.012 522.227 503.11 521.877 503.306C521.527 503.502 521.352 503.754 521.352 504.062C521.352 504.412 521.541 504.657 521.919 504.797C522.297 504.937 522.899 505.07 523.725 505.196C524.649 505.35 525.405 505.518 525.993 505.7C526.581 505.868 527.092 506.183 527.526 506.645C527.96 507.107 528.177 507.751 528.177 508.577C528.177 509.277 527.967 509.9 527.547 510.446C527.127 510.992 526.511 511.419 525.699 511.727C524.901 512.021 523.949 512.168 522.843 512.168Z" fill="white"/>
<path d="M283.062 641.3V656H280.269L272.94 647.075V656H269.58V641.3H272.394L279.702 650.225V641.3H283.062ZM291.685 656.168C290.495 656.168 289.424 655.923 288.472 655.433C287.534 654.929 286.799 654.236 286.267 653.354C285.735 652.472 285.469 651.471 285.469 650.351C285.469 649.231 285.735 648.23 286.267 647.348C286.799 646.466 287.534 645.78 288.472 645.29C289.424 644.786 290.495 644.534 291.685 644.534C292.875 644.534 293.939 644.786 294.877 645.29C295.815 645.78 296.55 646.466 297.082 647.348C297.614 648.23 297.88 649.231 297.88 650.351C297.88 651.471 297.614 652.472 297.082 653.354C296.55 654.236 295.815 654.929 294.877 655.433C293.939 655.923 292.875 656.168 291.685 656.168ZM291.685 653.48C292.525 653.48 293.211 653.2 293.743 652.64C294.289 652.066 294.562 651.303 294.562 650.351C294.562 649.399 294.289 648.643 293.743 648.083C293.211 647.509 292.525 647.222 291.685 647.222C290.845 647.222 290.152 647.509 289.606 648.083C289.06 648.643 288.787 649.399 288.787 650.351C288.787 651.303 289.06 652.066 289.606 652.64C290.152 653.2 290.845 653.48 291.685 653.48ZM307.357 655.454C307.035 655.692 306.636 655.874 306.16 656C305.698 656.112 305.208 656.168 304.69 656.168C303.346 656.168 302.303 655.825 301.561 655.139C300.833 654.453 300.469 653.445 300.469 652.115V647.474H298.726V644.954H300.469V642.203H303.745V644.954H306.559V647.474H303.745V652.073C303.745 652.549 303.864 652.92 304.102 653.186C304.354 653.438 304.704 653.564 305.152 653.564C305.67 653.564 306.111 653.424 306.475 653.144L307.357 655.454ZM309.196 644.702H312.472V656H309.196V644.702ZM310.834 643.127C310.232 643.127 309.742 642.952 309.364 642.602C308.986 642.252 308.797 641.818 308.797 641.3C308.797 640.782 308.986 640.348 309.364 639.998C309.742 639.648 310.232 639.473 310.834 639.473C311.436 639.473 311.926 639.641 312.304 639.977C312.682 640.313 312.871 640.733 312.871 641.237C312.871 641.783 312.682 642.238 312.304 642.602C311.926 642.952 311.436 643.127 310.834 643.127ZM319.103 644.954H322.001V647.474H319.187V656H315.911V647.474H314.168V644.954H315.911V644.45C315.911 643.162 316.289 642.14 317.045 641.384C317.815 640.628 318.893 640.25 320.279 640.25C320.769 640.25 321.231 640.306 321.665 640.418C322.113 640.516 322.484 640.663 322.778 640.859L321.917 643.232C321.539 642.966 321.098 642.833 320.594 642.833C319.6 642.833 319.103 643.379 319.103 644.471V644.954ZM335.053 644.702L329.95 656.693C329.432 657.995 328.788 658.912 328.018 659.444C327.262 659.976 326.345 660.242 325.267 660.242C324.679 660.242 324.098 660.151 323.524 659.969C322.95 659.787 322.481 659.535 322.117 659.213L323.314 656.882C323.566 657.106 323.853 657.281 324.175 657.407C324.511 657.533 324.84 657.596 325.162 657.596C325.61 657.596 325.974 657.484 326.254 657.26C326.534 657.05 326.786 656.693 327.01 656.189L327.052 656.084L322.159 644.702H325.54L328.711 652.367L331.903 644.702H335.053ZM352.249 652.85H345.424L344.122 656H340.636L347.188 641.3H350.548L357.121 656H353.551L352.249 652.85ZM351.178 650.267L348.847 644.639L346.516 650.267H351.178ZM365.093 644.534C366.143 644.534 367.095 644.779 367.949 645.269C368.817 645.745 369.496 646.424 369.986 647.306C370.476 648.174 370.721 649.189 370.721 650.351C370.721 651.513 370.476 652.535 369.986 653.417C369.496 654.285 368.817 654.964 367.949 655.454C367.095 655.93 366.143 656.168 365.093 656.168C363.651 656.168 362.517 655.713 361.691 654.803V660.074H358.415V644.702H361.544V646.004C362.356 645.024 363.539 644.534 365.093 644.534ZM364.526 653.48C365.366 653.48 366.052 653.2 366.584 652.64C367.13 652.066 367.403 651.303 367.403 650.351C367.403 649.399 367.13 648.643 366.584 648.083C366.052 647.509 365.366 647.222 364.526 647.222C363.686 647.222 362.993 647.509 362.447 648.083C361.915 648.643 361.649 649.399 361.649 650.351C361.649 651.303 361.915 652.066 362.447 652.64C362.993 653.2 363.686 653.48 364.526 653.48ZM379.592 644.534C380.642 644.534 381.594 644.779 382.448 645.269C383.316 645.745 383.995 646.424 384.485 647.306C384.975 648.174 385.22 649.189 385.22 650.351C385.22 651.513 384.975 652.535 384.485 653.417C383.995 654.285 383.316 654.964 382.448 655.454C381.594 655.93 380.642 656.168 379.592 656.168C378.15 656.168 377.016 655.713 376.19 654.803V660.074H372.914V644.702H376.043V646.004C376.855 645.024 378.038 644.534 379.592 644.534ZM379.025 653.48C379.865 653.48 380.551 653.2 381.083 652.64C381.629 652.066 381.902 651.303 381.902 650.351C381.902 649.399 381.629 648.643 381.083 648.083C380.551 647.509 379.865 647.222 379.025 647.222C378.185 647.222 377.492 647.509 376.946 648.083C376.414 648.643 376.148 649.399 376.148 650.351C376.148 651.303 376.414 652.066 376.946 652.64C377.492 653.2 378.185 653.48 379.025 653.48ZM387.413 640.418H390.689V656H387.413V640.418ZM393.729 644.702H397.005V656H393.729V644.702ZM395.367 643.127C394.765 643.127 394.275 642.952 393.897 642.602C393.519 642.252 393.33 641.818 393.33 641.3C393.33 640.782 393.519 640.348 393.897 639.998C394.275 639.648 394.765 639.473 395.367 639.473C395.969 639.473 396.459 639.641 396.837 639.977C397.215 640.313 397.404 640.733 397.404 641.237C397.404 641.783 397.215 642.238 396.837 642.602C396.459 642.952 395.969 643.127 395.367 643.127ZM405.506 656.168C404.302 656.168 403.217 655.923 402.251 655.433C401.299 654.929 400.55 654.236 400.004 653.354C399.472 652.472 399.206 651.471 399.206 650.351C399.206 649.231 399.472 648.23 400.004 647.348C400.55 646.466 401.299 645.78 402.251 645.29C403.217 644.786 404.302 644.534 405.506 644.534C406.696 644.534 407.732 644.786 408.614 645.29C409.51 645.78 410.161 646.487 410.567 647.411L408.026 648.776C407.438 647.74 406.591 647.222 405.485 647.222C404.631 647.222 403.924 647.502 403.364 648.062C402.804 648.622 402.524 649.385 402.524 650.351C402.524 651.317 402.804 652.08 403.364 652.64C403.924 653.2 404.631 653.48 405.485 653.48C406.605 653.48 407.452 652.962 408.026 651.926L410.567 653.312C410.161 654.208 409.51 654.908 408.614 655.412C407.732 655.916 406.696 656.168 405.506 656.168ZM417.01 644.534C418.76 644.534 420.104 644.954 421.042 645.794C421.98 646.62 422.449 647.873 422.449 649.553V656H419.383V654.593C418.767 655.643 417.619 656.168 415.939 656.168C415.071 656.168 414.315 656.021 413.671 655.727C413.041 655.433 412.558 655.027 412.222 654.509C411.886 653.991 411.718 653.403 411.718 652.745C411.718 651.695 412.11 650.869 412.894 650.267C413.692 649.665 414.917 649.364 416.569 649.364H419.173C419.173 648.65 418.956 648.104 418.522 647.726C418.088 647.334 417.437 647.138 416.569 647.138C415.967 647.138 415.372 647.236 414.784 647.432C414.21 647.614 413.72 647.866 413.314 648.188L412.138 645.899C412.754 645.465 413.489 645.129 414.343 644.891C415.211 644.653 416.1 644.534 417.01 644.534ZM416.758 653.963C417.318 653.963 417.815 653.837 418.249 653.585C418.683 653.319 418.991 652.934 419.173 652.43V651.275H416.926C415.582 651.275 414.91 651.716 414.91 652.598C414.91 653.018 415.071 653.354 415.393 653.606C415.729 653.844 416.184 653.963 416.758 653.963ZM432.281 644.534C433.681 644.534 434.808 644.954 435.662 645.794C436.53 646.634 436.964 647.88 436.964 649.532V656H433.688V650.036C433.688 649.14 433.492 648.475 433.1 648.041C432.708 647.593 432.141 647.369 431.399 647.369C430.573 647.369 429.915 647.628 429.425 648.146C428.935 648.65 428.69 649.406 428.69 650.414V656H425.414V644.702H428.543V646.025C428.977 645.549 429.516 645.185 430.16 644.933C430.804 644.667 431.511 644.534 432.281 644.534ZM447.22 655.454C446.898 655.692 446.499 655.874 446.023 656C445.561 656.112 445.071 656.168 444.553 656.168C443.209 656.168 442.166 655.825 441.424 655.139C440.696 654.453 440.332 653.445 440.332 652.115V647.474H438.589V644.954H440.332V642.203H443.608V644.954H446.422V647.474H443.608V652.073C443.608 652.549 443.727 652.92 443.965 653.186C444.217 653.438 444.567 653.564 445.015 653.564C445.533 653.564 445.974 653.424 446.338 653.144L447.22 655.454ZM452.86 656.168C451.922 656.168 451.005 656.056 450.109 655.832C449.213 655.594 448.499 655.3 447.967 654.95L449.059 652.598C449.563 652.92 450.172 653.186 450.886 653.396C451.6 653.592 452.3 653.69 452.986 653.69C454.372 653.69 455.065 653.347 455.065 652.661C455.065 652.339 454.876 652.108 454.498 651.968C454.12 651.828 453.539 651.709 452.755 651.611C451.831 651.471 451.068 651.31 450.466 651.128C449.864 650.946 449.339 650.624 448.891 650.162C448.457 649.7 448.24 649.042 448.24 648.188C448.24 647.474 448.443 646.844 448.849 646.298C449.269 645.738 449.871 645.304 450.655 644.996C451.453 644.688 452.391 644.534 453.469 644.534C454.267 644.534 455.058 644.625 455.842 644.807C456.64 644.975 457.298 645.213 457.816 645.521L456.724 647.852C455.73 647.292 454.645 647.012 453.469 647.012C452.769 647.012 452.244 647.11 451.894 647.306C451.544 647.502 451.369 647.754 451.369 648.062C451.369 648.412 451.558 648.657 451.936 648.797C452.314 648.937 452.916 649.07 453.742 649.196C454.666 649.35 455.422 649.518 456.01 649.7C456.598 649.868 457.109 650.183 457.543 650.645C457.977 651.107 458.194 651.751 458.194 652.577C458.194 653.277 457.984 653.9 457.564 654.446C457.144 654.992 456.528 655.419 455.716 655.727C454.918 656.021 453.966 656.168 452.86 656.168ZM471.539 656.168C470.349 656.168 469.278 655.923 468.326 655.433C467.388 654.929 466.653 654.236 466.121 653.354C465.589 652.472 465.323 651.471 465.323 650.351C465.323 649.231 465.589 648.23 466.121 647.348C466.653 646.466 467.388 645.78 468.326 645.29C469.278 644.786 470.349 644.534 471.539 644.534C472.729 644.534 473.793 644.786 474.731 645.29C475.669 645.78 476.404 646.466 476.936 647.348C477.468 648.23 477.734 649.231 477.734 650.351C477.734 651.471 477.468 652.472 476.936 653.354C476.404 654.236 475.669 654.929 474.731 655.433C473.793 655.923 472.729 656.168 471.539 656.168ZM471.539 653.48C472.379 653.48 473.065 653.2 473.597 652.64C474.143 652.066 474.416 651.303 474.416 650.351C474.416 649.399 474.143 648.643 473.597 648.083C473.065 647.509 472.379 647.222 471.539 647.222C470.699 647.222 470.006 647.509 469.46 648.083C468.914 648.643 468.641 649.399 468.641 650.351C468.641 651.303 468.914 652.066 469.46 652.64C470.006 653.2 470.699 653.48 471.539 653.48ZM483.515 644.954H486.413V647.474H483.599V656H480.323V647.474H478.58V644.954H480.323V644.45C480.323 643.162 480.701 642.14 481.457 641.384C482.227 640.628 483.305 640.25 484.691 640.25C485.181 640.25 485.643 640.306 486.077 640.418C486.525 640.516 486.896 640.663 487.19 640.859L486.329 643.232C485.951 642.966 485.51 642.833 485.006 642.833C484.012 642.833 483.515 643.379 483.515 644.471V644.954ZM503.589 656L500.754 651.905H500.586H497.625V656H494.223V641.3H500.586C501.888 641.3 503.015 641.517 503.967 641.951C504.933 642.385 505.675 643.001 506.193 643.799C506.711 644.597 506.97 645.542 506.97 646.634C506.97 647.726 506.704 648.671 506.172 649.469C505.654 650.253 504.912 650.855 503.946 651.275L507.243 656H503.589ZM503.526 646.634C503.526 645.808 503.26 645.178 502.728 644.744C502.196 644.296 501.419 644.072 500.397 644.072H497.625V649.196H500.397C501.419 649.196 502.196 648.972 502.728 648.524C503.26 648.076 503.526 647.446 503.526 646.634ZM520.501 650.393C520.501 650.435 520.48 650.729 520.438 651.275H511.891C512.045 651.975 512.409 652.528 512.983 652.934C513.557 653.34 514.271 653.543 515.125 653.543C515.713 653.543 516.231 653.459 516.679 653.291C517.141 653.109 517.568 652.829 517.96 652.451L519.703 654.341C518.639 655.559 517.085 656.168 515.041 656.168C513.767 656.168 512.64 655.923 511.66 655.433C510.68 654.929 509.924 654.236 509.392 653.354C508.86 652.472 508.594 651.471 508.594 650.351C508.594 649.245 508.853 648.251 509.371 647.369C509.903 646.473 510.624 645.78 511.534 645.29C512.458 644.786 513.487 644.534 514.621 644.534C515.727 644.534 516.728 644.772 517.624 645.248C518.52 645.724 519.22 646.41 519.724 647.306C520.242 648.188 520.501 649.217 520.501 650.393ZM514.642 647.012C513.9 647.012 513.277 647.222 512.773 647.642C512.269 648.062 511.961 648.636 511.849 649.364H517.414C517.302 648.65 516.994 648.083 516.49 647.663C515.986 647.229 515.37 647.012 514.642 647.012ZM526.483 656.168C525.545 656.168 524.628 656.056 523.732 655.832C522.836 655.594 522.122 655.3 521.59 654.95L522.682 652.598C523.186 652.92 523.795 653.186 524.509 653.396C525.223 653.592 525.923 653.69 526.609 653.69C527.995 653.69 528.688 653.347 528.688 652.661C528.688 652.339 528.499 652.108 528.121 651.968C527.743 651.828 527.162 651.709 526.378 651.611C525.454 651.471 524.691 651.31 524.089 651.128C523.487 650.946 522.962 650.624 522.514 650.162C522.08 649.7 521.863 649.042 521.863 648.188C521.863 647.474 522.066 646.844 522.472 646.298C522.892 645.738 523.494 645.304 524.278 644.996C525.076 644.688 526.014 644.534 527.092 644.534C527.89 644.534 528.681 644.625 529.465 644.807C530.263 644.975 530.921 645.213 531.439 645.521L530.347 647.852C529.353 647.292 528.268 647.012 527.092 647.012C526.392 647.012 525.867 647.11 525.517 647.306C525.167 647.502 524.992 647.754 524.992 648.062C524.992 648.412 525.181 648.657 525.559 648.797C525.937 648.937 526.539 649.07 527.365 649.196C528.289 649.35 529.045 649.518 529.633 649.7C530.221 649.868 530.732 650.183 531.166 650.645C531.6 651.107 531.817 651.751 531.817 652.577C531.817 653.277 531.607 653.9 531.187 654.446C530.767 654.992 530.151 655.419 529.339 655.727C528.541 656.021 527.589 656.168 526.483 656.168ZM545.221 644.702V656H542.113V654.656C541.679 655.146 541.161 655.524 540.559 655.79C539.957 656.042 539.306 656.168 538.606 656.168C537.122 656.168 535.946 655.741 535.078 654.887C534.21 654.033 533.776 652.766 533.776 651.086V644.702H537.052V650.603C537.052 652.423 537.815 653.333 539.341 653.333C540.125 653.333 540.755 653.081 541.231 652.577C541.707 652.059 541.945 651.296 541.945 650.288V644.702H545.221ZM548.256 640.418H551.532V656H548.256V640.418ZM562.679 655.454C562.357 655.692 561.958 655.874 561.482 656C561.02 656.112 560.53 656.168 560.012 656.168C558.668 656.168 557.625 655.825 556.883 655.139C556.155 654.453 555.791 653.445 555.791 652.115V647.474H554.048V644.954H555.791V642.203H559.067V644.954H561.881V647.474H559.067V652.073C559.067 652.549 559.186 652.92 559.424 653.186C559.676 653.438 560.026 653.564 560.474 653.564C560.992 653.564 561.433 653.424 561.797 653.144L562.679 655.454ZM568.319 656.168C567.381 656.168 566.464 656.056 565.568 655.832C564.672 655.594 563.958 655.3 563.426 654.95L564.518 652.598C565.022 652.92 565.631 653.186 566.345 653.396C567.059 653.592 567.759 653.69 568.445 653.69C569.831 653.69 570.524 653.347 570.524 652.661C570.524 652.339 570.335 652.108 569.957 651.968C569.579 651.828 568.998 651.709 568.214 651.611C567.29 651.471 566.527 651.31 565.925 651.128C565.323 650.946 564.798 650.624 564.35 650.162C563.916 649.7 563.699 649.042 563.699 648.188C563.699 647.474 563.902 646.844 564.308 646.298C564.728 645.738 565.33 645.304 566.114 644.996C566.912 644.688 567.85 644.534 568.928 644.534C569.726 644.534 570.517 644.625 571.301 644.807C572.099 644.975 572.757 645.213 573.275 645.521L572.183 647.852C571.189 647.292 570.104 647.012 568.928 647.012C568.228 647.012 567.703 647.11 567.353 647.306C567.003 647.502 566.828 647.754 566.828 648.062C566.828 648.412 567.017 648.657 567.395 648.797C567.773 648.937 568.375 649.07 569.201 649.196C570.125 649.35 570.881 649.518 571.469 649.7C572.057 649.868 572.568 650.183 573.002 650.645C573.436 651.107 573.653 651.751 573.653 652.577C573.653 653.277 573.443 653.9 573.023 654.446C572.603 654.992 571.987 655.419 571.175 655.727C570.377 656.021 569.425 656.168 568.319 656.168Z" fill="white"/>
<path d="M272.883 352.252C271.721 352.252 270.594 352.098 269.502 351.79C268.424 351.468 267.556 351.055 266.898 350.551L268.053 347.989C268.683 348.451 269.432 348.822 270.3 349.102C271.168 349.382 272.036 349.522 272.904 349.522C273.87 349.522 274.584 349.382 275.046 349.102C275.508 348.808 275.739 348.423 275.739 347.947C275.739 347.597 275.599 347.31 275.319 347.086C275.053 346.848 274.703 346.659 274.269 346.519C273.849 346.379 273.275 346.225 272.547 346.057C271.427 345.791 270.51 345.525 269.796 345.259C269.082 344.993 268.466 344.566 267.948 343.978C267.444 343.39 267.192 342.606 267.192 341.626C267.192 340.772 267.423 340.002 267.885 339.316C268.347 338.616 269.04 338.063 269.964 337.657C270.902 337.251 272.043 337.048 273.387 337.048C274.325 337.048 275.242 337.16 276.138 337.384C277.034 337.608 277.818 337.93 278.49 338.35L277.44 340.933C276.082 340.163 274.724 339.778 273.366 339.778C272.414 339.778 271.707 339.932 271.245 340.24C270.797 340.548 270.573 340.954 270.573 341.458C270.573 341.962 270.832 342.34 271.35 342.592C271.882 342.83 272.687 343.068 273.765 343.306C274.885 343.572 275.802 343.838 276.516 344.104C277.23 344.37 277.839 344.79 278.343 345.364C278.861 345.938 279.12 346.715 279.12 347.695C279.12 348.535 278.882 349.305 278.406 350.005C277.944 350.691 277.244 351.237 276.306 351.643C275.368 352.049 274.227 352.252 272.883 352.252ZM286.673 352.168C285.469 352.168 284.384 351.923 283.418 351.433C282.466 350.929 281.717 350.236 281.171 349.354C280.639 348.472 280.373 347.471 280.373 346.351C280.373 345.231 280.639 344.23 281.171 343.348C281.717 342.466 282.466 341.78 283.418 341.29C284.384 340.786 285.469 340.534 286.673 340.534C287.863 340.534 288.899 340.786 289.781 341.29C290.677 341.78 291.328 342.487 291.734 343.411L289.193 344.776C288.605 343.74 287.758 343.222 286.652 343.222C285.798 343.222 285.091 343.502 284.531 344.062C283.971 344.622 283.691 345.385 283.691 346.351C283.691 347.317 283.971 348.08 284.531 348.64C285.091 349.2 285.798 349.48 286.652 349.48C287.772 349.48 288.619 348.962 289.193 347.926L291.734 349.312C291.328 350.208 290.677 350.908 289.781 351.412C288.899 351.916 287.863 352.168 286.673 352.168ZM296.749 342.193C297.141 341.647 297.666 341.234 298.324 340.954C298.996 340.674 299.766 340.534 300.634 340.534V343.558C300.27 343.53 300.025 343.516 299.899 343.516C298.961 343.516 298.226 343.782 297.694 344.314C297.162 344.832 296.896 345.616 296.896 346.666V352H293.62V340.702H296.749V342.193ZM313.547 346.393C313.547 346.435 313.526 346.729 313.484 347.275H304.937C305.091 347.975 305.455 348.528 306.029 348.934C306.603 349.34 307.317 349.543 308.171 349.543C308.759 349.543 309.277 349.459 309.725 349.291C310.187 349.109 310.614 348.829 311.006 348.451L312.749 350.341C311.685 351.559 310.131 352.168 308.087 352.168C306.813 352.168 305.686 351.923 304.706 351.433C303.726 350.929 302.97 350.236 302.438 349.354C301.906 348.472 301.64 347.471 301.64 346.351C301.64 345.245 301.899 344.251 302.417 343.369C302.949 342.473 303.67 341.78 304.58 341.29C305.504 340.786 306.533 340.534 307.667 340.534C308.773 340.534 309.774 340.772 310.67 341.248C311.566 341.724 312.266 342.41 312.77 343.306C313.288 344.188 313.547 345.217 313.547 346.393ZM307.688 343.012C306.946 343.012 306.323 343.222 305.819 343.642C305.315 344.062 305.007 344.636 304.895 345.364H310.46C310.348 344.65 310.04 344.083 309.536 343.663C309.032 343.229 308.416 343.012 307.688 343.012ZM326.795 346.393C326.795 346.435 326.774 346.729 326.732 347.275H318.185C318.339 347.975 318.703 348.528 319.277 348.934C319.851 349.34 320.565 349.543 321.419 349.543C322.007 349.543 322.525 349.459 322.973 349.291C323.435 349.109 323.862 348.829 324.254 348.451L325.997 350.341C324.933 351.559 323.379 352.168 321.335 352.168C320.061 352.168 318.934 351.923 317.954 351.433C316.974 350.929 316.218 350.236 315.686 349.354C315.154 348.472 314.888 347.471 314.888 346.351C314.888 345.245 315.147 344.251 315.665 343.369C316.197 342.473 316.918 341.78 317.828 341.29C318.752 340.786 319.781 340.534 320.915 340.534C322.021 340.534 323.022 340.772 323.918 341.248C324.814 341.724 325.514 342.41 326.018 343.306C326.536 344.188 326.795 345.217 326.795 346.393ZM320.936 343.012C320.194 343.012 319.571 343.222 319.067 343.642C318.563 344.062 318.255 344.636 318.143 345.364H323.708C323.596 344.65 323.288 344.083 322.784 343.663C322.28 343.229 321.664 343.012 320.936 343.012ZM335.843 340.534C337.243 340.534 338.37 340.954 339.224 341.794C340.092 342.634 340.526 343.88 340.526 345.532V352H337.25V346.036C337.25 345.14 337.054 344.475 336.662 344.041C336.27 343.593 335.703 343.369 334.961 343.369C334.135 343.369 333.477 343.628 332.987 344.146C332.497 344.65 332.252 345.406 332.252 346.414V352H328.976V340.702H332.105V342.025C332.539 341.549 333.078 341.185 333.722 340.933C334.366 340.667 335.073 340.534 335.843 340.534ZM359.355 348.85H352.53L351.228 352H347.742L354.294 337.3H357.654L364.227 352H360.657L359.355 348.85ZM358.284 346.267L355.953 340.639L353.622 346.267H358.284ZM372.199 340.534C373.249 340.534 374.201 340.779 375.055 341.269C375.923 341.745 376.602 342.424 377.092 343.306C377.582 344.174 377.827 345.189 377.827 346.351C377.827 347.513 377.582 348.535 377.092 349.417C376.602 350.285 375.923 350.964 375.055 351.454C374.201 351.93 373.249 352.168 372.199 352.168C370.757 352.168 369.623 351.713 368.797 350.803V356.074H365.521V340.702H368.65V342.004C369.462 341.024 370.645 340.534 372.199 340.534ZM371.632 349.48C372.472 349.48 373.158 349.2 373.69 348.64C374.236 348.066 374.509 347.303 374.509 346.351C374.509 345.399 374.236 344.643 373.69 344.083C373.158 343.509 372.472 343.222 371.632 343.222C370.792 343.222 370.099 343.509 369.553 344.083C369.021 344.643 368.755 345.399 368.755 346.351C368.755 347.303 369.021 348.066 369.553 348.64C370.099 349.2 370.792 349.48 371.632 349.48ZM386.698 340.534C387.748 340.534 388.7 340.779 389.554 341.269C390.422 341.745 391.101 342.424 391.591 343.306C392.081 344.174 392.326 345.189 392.326 346.351C392.326 347.513 392.081 348.535 391.591 349.417C391.101 350.285 390.422 350.964 389.554 351.454C388.7 351.93 387.748 352.168 386.698 352.168C385.256 352.168 384.122 351.713 383.296 350.803V356.074H380.02V340.702H383.149V342.004C383.961 341.024 385.144 340.534 386.698 340.534ZM386.131 349.48C386.971 349.48 387.657 349.2 388.189 348.64C388.735 348.066 389.008 347.303 389.008 346.351C389.008 345.399 388.735 344.643 388.189 344.083C387.657 343.509 386.971 343.222 386.131 343.222C385.291 343.222 384.598 343.509 384.052 344.083C383.52 344.643 383.254 345.399 383.254 346.351C383.254 347.303 383.52 348.066 384.052 348.64C384.598 349.2 385.291 349.48 386.131 349.48ZM394.519 336.418H397.795V352H394.519V336.418ZM400.835 340.702H404.111V352H400.835V340.702ZM402.473 339.127C401.871 339.127 401.381 338.952 401.003 338.602C400.625 338.252 400.436 337.818 400.436 337.3C400.436 336.782 400.625 336.348 401.003 335.998C401.381 335.648 401.871 335.473 402.473 335.473C403.075 335.473 403.565 335.641 403.943 335.977C404.321 336.313 404.51 336.733 404.51 337.237C404.51 337.783 404.321 338.238 403.943 338.602C403.565 338.952 403.075 339.127 402.473 339.127ZM412.612 352.168C411.408 352.168 410.323 351.923 409.357 351.433C408.405 350.929 407.656 350.236 407.11 349.354C406.578 348.472 406.312 347.471 406.312 346.351C406.312 345.231 406.578 344.23 407.11 343.348C407.656 342.466 408.405 341.78 409.357 341.29C410.323 340.786 411.408 340.534 412.612 340.534C413.802 340.534 414.838 340.786 415.72 341.29C416.616 341.78 417.267 342.487 417.673 343.411L415.132 344.776C414.544 343.74 413.697 343.222 412.591 343.222C411.737 343.222 411.03 343.502 410.47 344.062C409.91 344.622 409.63 345.385 409.63 346.351C409.63 347.317 409.91 348.08 410.47 348.64C411.03 349.2 411.737 349.48 412.591 349.48C413.711 349.48 414.558 348.962 415.132 347.926L417.673 349.312C417.267 350.208 416.616 350.908 415.72 351.412C414.838 351.916 413.802 352.168 412.612 352.168ZM424.116 340.534C425.866 340.534 427.21 340.954 428.148 341.794C429.086 342.62 429.555 343.873 429.555 345.553V352H426.489V350.593C425.873 351.643 424.725 352.168 423.045 352.168C422.177 352.168 421.421 352.021 420.777 351.727C420.147 351.433 419.664 351.027 419.328 350.509C418.992 349.991 418.824 349.403 418.824 348.745C418.824 347.695 419.216 346.869 420 346.267C420.798 345.665 422.023 345.364 423.675 345.364H426.279C426.279 344.65 426.062 344.104 425.628 343.726C425.194 343.334 424.543 343.138 423.675 343.138C423.073 343.138 422.478 343.236 421.89 343.432C421.316 343.614 420.826 343.866 420.42 344.188L419.244 341.899C419.86 341.465 420.595 341.129 421.449 340.891C422.317 340.653 423.206 340.534 424.116 340.534ZM423.864 349.963C424.424 349.963 424.921 349.837 425.355 349.585C425.789 349.319 426.097 348.934 426.279 348.43V347.275H424.032C422.688 347.275 422.016 347.716 422.016 348.598C422.016 349.018 422.177 349.354 422.499 349.606C422.835 349.844 423.29 349.963 423.864 349.963ZM439.807 351.454C439.485 351.692 439.086 351.874 438.61 352C438.148 352.112 437.658 352.168 437.14 352.168C435.796 352.168 434.753 351.825 434.011 351.139C433.283 350.453 432.919 349.445 432.919 348.115V343.474H431.176V340.954H432.919V338.203H436.195V340.954H439.009V343.474H436.195V348.073C436.195 348.549 436.314 348.92 436.552 349.186C436.804 349.438 437.154 349.564 437.602 349.564C438.12 349.564 438.561 349.424 438.925 349.144L439.807 351.454ZM441.646 340.702H444.922V352H441.646V340.702ZM443.284 339.127C442.682 339.127 442.192 338.952 441.814 338.602C441.436 338.252 441.247 337.818 441.247 337.3C441.247 336.782 441.436 336.348 441.814 335.998C442.192 335.648 442.682 335.473 443.284 335.473C443.886 335.473 444.376 335.641 444.754 335.977C445.132 336.313 445.321 336.733 445.321 337.237C445.321 337.783 445.132 338.238 444.754 338.602C444.376 338.952 443.886 339.127 443.284 339.127ZM453.338 352.168C452.148 352.168 451.077 351.923 450.125 351.433C449.187 350.929 448.452 350.236 447.92 349.354C447.388 348.472 447.122 347.471 447.122 346.351C447.122 345.231 447.388 344.23 447.92 343.348C448.452 342.466 449.187 341.78 450.125 341.29C451.077 340.786 452.148 340.534 453.338 340.534C454.528 340.534 455.592 340.786 456.53 341.29C457.468 341.78 458.203 342.466 458.735 343.348C459.267 344.23 459.533 345.231 459.533 346.351C459.533 347.471 459.267 348.472 458.735 349.354C458.203 350.236 457.468 350.929 456.53 351.433C455.592 351.923 454.528 352.168 453.338 352.168ZM453.338 349.48C454.178 349.48 454.864 349.2 455.396 348.64C455.942 348.066 456.215 347.303 456.215 346.351C456.215 345.399 455.942 344.643 455.396 344.083C454.864 343.509 454.178 343.222 453.338 343.222C452.498 343.222 451.805 343.509 451.259 344.083C450.713 344.643 450.44 345.399 450.44 346.351C450.44 347.303 450.713 348.066 451.259 348.64C451.805 349.2 452.498 349.48 453.338 349.48ZM468.59 340.534C469.99 340.534 471.117 340.954 471.971 341.794C472.839 342.634 473.273 343.88 473.273 345.532V352H469.997V346.036C469.997 345.14 469.801 344.475 469.409 344.041C469.017 343.593 468.45 343.369 467.708 343.369C466.882 343.369 466.224 343.628 465.734 344.146C465.244 344.65 464.999 345.406 464.999 346.414V352H461.723V340.702H464.852V342.025C465.286 341.549 465.825 341.185 466.469 340.933C467.113 340.667 467.82 340.534 468.59 340.534ZM480.043 352.168C479.105 352.168 478.188 352.056 477.292 351.832C476.396 351.594 475.682 351.3 475.15 350.95L476.242 348.598C476.746 348.92 477.355 349.186 478.069 349.396C478.783 349.592 479.483 349.69 480.169 349.69C481.555 349.69 482.248 349.347 482.248 348.661C482.248 348.339 482.059 348.108 481.681 347.968C481.303 347.828 480.722 347.709 479.938 347.611C479.014 347.471 478.251 347.31 477.649 347.128C477.047 346.946 476.522 346.624 476.074 346.162C475.64 345.7 475.423 345.042 475.423 344.188C475.423 343.474 475.626 342.844 476.032 342.298C476.452 341.738 477.054 341.304 477.838 340.996C478.636 340.688 479.574 340.534 480.652 340.534C481.45 340.534 482.241 340.625 483.025 340.807C483.823 340.975 484.481 341.213 484.999 341.521L483.907 343.852C482.913 343.292 481.828 343.012 480.652 343.012C479.952 343.012 479.427 343.11 479.077 343.306C478.727 343.502 478.552 343.754 478.552 344.062C478.552 344.412 478.741 344.657 479.119 344.797C479.497 344.937 480.099 345.07 480.925 345.196C481.849 345.35 482.605 345.518 483.193 345.7C483.781 345.868 484.292 346.183 484.726 346.645C485.16 347.107 485.377 347.751 485.377 348.577C485.377 349.277 485.167 349.9 484.747 350.446C484.327 350.992 483.711 351.419 482.899 351.727C482.101 352.021 481.149 352.168 480.043 352.168ZM497.903 340.534C499.653 340.534 500.997 340.954 501.935 341.794C502.873 342.62 503.342 343.873 503.342 345.553V352H500.276V350.593C499.66 351.643 498.512 352.168 496.832 352.168C495.964 352.168 495.208 352.021 494.564 351.727C493.934 351.433 493.451 351.027 493.115 350.509C492.779 349.991 492.611 349.403 492.611 348.745C492.611 347.695 493.003 346.869 493.787 346.267C494.585 345.665 495.81 345.364 497.462 345.364H500.066C500.066 344.65 499.849 344.104 499.415 343.726C498.981 343.334 498.33 343.138 497.462 343.138C496.86 343.138 496.265 343.236 495.677 343.432C495.103 343.614 494.613 343.866 494.207 344.188L493.031 341.899C493.647 341.465 494.382 341.129 495.236 340.891C496.104 340.653 496.993 340.534 497.903 340.534ZM497.651 349.963C498.211 349.963 498.708 349.837 499.142 349.585C499.576 349.319 499.884 348.934 500.066 348.43V347.275H497.819C496.475 347.275 495.803 347.716 495.803 348.598C495.803 349.018 495.964 349.354 496.286 349.606C496.622 349.844 497.077 349.963 497.651 349.963ZM513.174 340.534C514.574 340.534 515.701 340.954 516.555 341.794C517.423 342.634 517.857 343.88 517.857 345.532V352H514.581V346.036C514.581 345.14 514.385 344.475 513.993 344.041C513.601 343.593 513.034 343.369 512.292 343.369C511.466 343.369 510.808 343.628 510.318 344.146C509.828 344.65 509.583 345.406 509.583 346.414V352H506.307V340.702H509.436V342.025C509.87 341.549 510.409 341.185 511.053 340.933C511.697 340.667 512.404 340.534 513.174 340.534ZM532.458 336.418V352H529.329V350.698C528.517 351.678 527.341 352.168 525.801 352.168C524.737 352.168 523.771 351.93 522.903 351.454C522.049 350.978 521.377 350.299 520.887 349.417C520.397 348.535 520.152 347.513 520.152 346.351C520.152 345.189 520.397 344.167 520.887 343.285C521.377 342.403 522.049 341.724 522.903 341.248C523.771 340.772 524.737 340.534 525.801 340.534C527.243 340.534 528.37 340.989 529.182 341.899V336.418H532.458ZM526.368 349.48C527.194 349.48 527.88 349.2 528.426 348.64C528.972 348.066 529.245 347.303 529.245 346.351C529.245 345.399 528.972 344.643 528.426 344.083C527.88 343.509 527.194 343.222 526.368 343.222C525.528 343.222 524.835 343.509 524.289 344.083C523.743 344.643 523.47 345.399 523.47 346.351C523.47 347.303 523.743 348.066 524.289 348.64C524.835 349.2 525.528 349.48 526.368 349.48ZM546.498 352.252C545.336 352.252 544.209 352.098 543.117 351.79C542.039 351.468 541.171 351.055 540.513 350.551L541.668 347.989C542.298 348.451 543.047 348.822 543.915 349.102C544.783 349.382 545.651 349.522 546.519 349.522C547.485 349.522 548.199 349.382 548.661 349.102C549.123 348.808 549.354 348.423 549.354 347.947C549.354 347.597 549.214 347.31 548.934 347.086C548.668 346.848 548.318 346.659 547.884 346.519C547.464 346.379 546.89 346.225 546.162 346.057C545.042 345.791 544.125 345.525 543.411 345.259C542.697 344.993 542.081 344.566 541.563 343.978C541.059 343.39 540.807 342.606 540.807 341.626C540.807 340.772 541.038 340.002 541.5 339.316C541.962 338.616 542.655 338.063 543.579 337.657C544.517 337.251 545.658 337.048 547.002 337.048C547.94 337.048 548.857 337.16 549.753 337.384C550.649 337.608 551.433 337.93 552.105 338.35L551.055 340.933C549.697 340.163 548.339 339.778 546.981 339.778C546.029 339.778 545.322 339.932 544.86 340.24C544.412 340.548 544.188 340.954 544.188 341.458C544.188 341.962 544.447 342.34 544.965 342.592C545.497 342.83 546.302 343.068 547.38 343.306C548.5 343.572 549.417 343.838 550.131 344.104C550.845 344.37 551.454 344.79 551.958 345.364C552.476 345.938 552.735 346.715 552.735 347.695C552.735 348.535 552.497 349.305 552.021 350.005C551.559 350.691 550.859 351.237 549.921 351.643C548.983 352.049 547.842 352.252 546.498 352.252ZM565.895 346.393C565.895 346.435 565.874 346.729 565.832 347.275H557.285C557.439 347.975 557.803 348.528 558.377 348.934C558.951 349.34 559.665 349.543 560.519 349.543C561.107 349.543 561.625 349.459 562.073 349.291C562.535 349.109 562.962 348.829 563.354 348.451L565.097 350.341C564.033 351.559 562.479 352.168 560.435 352.168C559.161 352.168 558.034 351.923 557.054 351.433C556.074 350.929 555.318 350.236 554.786 349.354C554.254 348.472 553.988 347.471 553.988 346.351C553.988 345.245 554.247 344.251 554.765 343.369C555.297 342.473 556.018 341.78 556.928 341.29C557.852 340.786 558.881 340.534 560.015 340.534C561.121 340.534 562.122 340.772 563.018 341.248C563.914 341.724 564.614 342.41 565.118 343.306C565.636 344.188 565.895 345.217 565.895 346.393ZM560.036 343.012C559.294 343.012 558.671 343.222 558.167 343.642C557.663 344.062 557.355 344.636 557.243 345.364H562.808C562.696 344.65 562.388 344.083 561.884 343.663C561.38 343.229 560.764 343.012 560.036 343.012ZM575.363 351.454C575.041 351.692 574.642 351.874 574.166 352C573.704 352.112 573.214 352.168 572.696 352.168C571.352 352.168 570.309 351.825 569.567 351.139C568.839 350.453 568.475 349.445 568.475 348.115V343.474H566.732V340.954H568.475V338.203H571.751V340.954H574.565V343.474H571.751V348.073C571.751 348.549 571.87 348.92 572.108 349.186C572.36 349.438 572.71 349.564 573.158 349.564C573.676 349.564 574.117 349.424 574.481 349.144L575.363 351.454ZM358.784 372.702V384H355.676V382.656C355.242 383.146 354.724 383.524 354.122 383.79C353.52 384.042 352.869 384.168 352.169 384.168C350.685 384.168 349.509 383.741 348.641 382.887C347.773 382.033 347.339 380.766 347.339 379.086V372.702H350.615V378.603C350.615 380.423 351.378 381.333 352.904 381.333C353.688 381.333 354.318 381.081 354.794 380.577C355.27 380.059 355.508 379.296 355.508 378.288V372.702H358.784ZM368.497 372.534C369.547 372.534 370.499 372.779 371.353 373.269C372.221 373.745 372.9 374.424 373.39 375.306C373.88 376.174 374.125 377.189 374.125 378.351C374.125 379.513 373.88 380.535 373.39 381.417C372.9 382.285 372.221 382.964 371.353 383.454C370.499 383.93 369.547 384.168 368.497 384.168C367.055 384.168 365.921 383.713 365.095 382.803V388.074H361.819V372.702H364.948V374.004C365.76 373.024 366.943 372.534 368.497 372.534ZM367.93 381.48C368.77 381.48 369.456 381.2 369.988 380.64C370.534 380.066 370.807 379.303 370.807 378.351C370.807 377.399 370.534 376.643 369.988 376.083C369.456 375.509 368.77 375.222 367.93 375.222C367.09 375.222 366.397 375.509 365.851 376.083C365.319 376.643 365.053 377.399 365.053 378.351C365.053 379.303 365.319 380.066 365.851 380.64C366.397 381.2 367.09 381.48 367.93 381.48ZM382.496 369.3H385.898V384H382.496V369.3ZM396.023 372.534C397.423 372.534 398.55 372.954 399.404 373.794C400.272 374.634 400.706 375.88 400.706 377.532V384H397.43V378.036C397.43 377.14 397.234 376.475 396.842 376.041C396.45 375.593 395.883 375.369 395.141 375.369C394.315 375.369 393.657 375.628 393.167 376.146C392.677 376.65 392.432 377.406 392.432 378.414V384H389.156V372.702H392.285V374.025C392.719 373.549 393.258 373.185 393.902 372.933C394.546 372.667 395.253 372.534 396.023 372.534ZM410.963 383.454C410.641 383.692 410.242 383.874 409.766 384C409.304 384.112 408.814 384.168 408.296 384.168C406.952 384.168 405.909 383.825 405.167 383.139C404.439 382.453 404.075 381.445 404.075 380.115V375.474H402.332V372.954H404.075V370.203H407.351V372.954H410.165V375.474H407.351V380.073C407.351 380.549 407.47 380.92 407.708 381.186C407.96 381.438 408.31 381.564 408.758 381.564C409.276 381.564 409.717 381.424 410.081 381.144L410.963 383.454ZM423.52 378.393C423.52 378.435 423.499 378.729 423.457 379.275H414.91C415.064 379.975 415.428 380.528 416.002 380.934C416.576 381.34 417.29 381.543 418.144 381.543C418.732 381.543 419.25 381.459 419.698 381.291C420.16 381.109 420.587 380.829 420.979 380.451L422.722 382.341C421.658 383.559 420.104 384.168 418.06 384.168C416.786 384.168 415.659 383.923 414.679 383.433C413.699 382.929 412.943 382.236 412.411 381.354C411.879 380.472 411.613 379.471 411.613 378.351C411.613 377.245 411.872 376.251 412.39 375.369C412.922 374.473 413.643 373.78 414.553 373.29C415.477 372.786 416.506 372.534 417.64 372.534C418.746 372.534 419.747 372.772 420.643 373.248C421.539 373.724 422.239 374.41 422.743 375.306C423.261 376.188 423.52 377.217 423.52 378.393ZM417.661 375.012C416.919 375.012 416.296 375.222 415.792 375.642C415.288 376.062 414.98 376.636 414.868 377.364H420.433C420.321 376.65 420.013 376.083 419.509 375.663C419.005 375.229 418.389 375.012 417.661 375.012ZM428.83 374.193C429.222 373.647 429.747 373.234 430.405 372.954C431.077 372.674 431.847 372.534 432.715 372.534V375.558C432.351 375.53 432.106 375.516 431.98 375.516C431.042 375.516 430.307 375.782 429.775 376.314C429.243 376.832 428.977 377.616 428.977 378.666V384H425.701V372.702H428.83V374.193ZM446.267 372.702L441.5 384H438.119L433.373 372.702H436.754L439.883 380.388L443.117 372.702H446.267ZM447.603 372.702H450.879V384H447.603V372.702ZM449.241 371.127C448.639 371.127 448.149 370.952 447.771 370.602C447.393 370.252 447.204 369.818 447.204 369.3C447.204 368.782 447.393 368.348 447.771 367.998C448.149 367.648 448.639 367.473 449.241 367.473C449.843 367.473 450.333 367.641 450.711 367.977C451.089 368.313 451.278 368.733 451.278 369.237C451.278 369.783 451.089 370.238 450.711 370.602C450.333 370.952 449.843 371.127 449.241 371.127ZM464.987 378.393C464.987 378.435 464.966 378.729 464.924 379.275H456.377C456.531 379.975 456.895 380.528 457.469 380.934C458.043 381.34 458.757 381.543 459.611 381.543C460.199 381.543 460.717 381.459 461.165 381.291C461.627 381.109 462.054 380.829 462.446 380.451L464.189 382.341C463.125 383.559 461.571 384.168 459.527 384.168C458.253 384.168 457.126 383.923 456.146 383.433C455.166 382.929 454.41 382.236 453.878 381.354C453.346 380.472 453.08 379.471 453.08 378.351C453.08 377.245 453.339 376.251 453.857 375.369C454.389 374.473 455.11 373.78 456.02 373.29C456.944 372.786 457.973 372.534 459.107 372.534C460.213 372.534 461.214 372.772 462.11 373.248C463.006 373.724 463.706 374.41 464.21 375.306C464.728 376.188 464.987 377.217 464.987 378.393ZM459.128 375.012C458.386 375.012 457.763 375.222 457.259 375.642C456.755 376.062 456.447 376.636 456.335 377.364H461.9C461.788 376.65 461.48 376.083 460.976 375.663C460.472 375.229 459.856 375.012 459.128 375.012ZM485.107 372.702L481.012 384H477.862L475.321 376.986L472.696 384H469.546L465.472 372.702H468.559L471.226 380.346L473.998 372.702H476.77L479.458 380.346L482.209 372.702H485.107ZM490.267 384.168C489.329 384.168 488.412 384.056 487.516 383.832C486.62 383.594 485.906 383.3 485.374 382.95L486.466 380.598C486.97 380.92 487.579 381.186 488.293 381.396C489.007 381.592 489.707 381.69 490.393 381.69C491.779 381.69 492.472 381.347 492.472 380.661C492.472 380.339 492.283 380.108 491.905 379.968C491.527 379.828 490.946 379.709 490.162 379.611C489.238 379.471 488.475 379.31 487.873 379.128C487.271 378.946 486.746 378.624 486.298 378.162C485.864 377.7 485.647 377.042 485.647 376.188C485.647 375.474 485.85 374.844 486.256 374.298C486.676 373.738 487.278 373.304 488.062 372.996C488.86 372.688 489.798 372.534 490.876 372.534C491.674 372.534 492.465 372.625 493.249 372.807C494.047 372.975 494.705 373.213 495.223 373.521L494.131 375.852C493.137 375.292 492.052 375.012 490.876 375.012C490.176 375.012 489.651 375.11 489.301 375.306C488.951 375.502 488.776 375.754 488.776 376.062C488.776 376.412 488.965 376.657 489.343 376.797C489.721 376.937 490.323 377.07 491.149 377.196C492.073 377.35 492.829 377.518 493.417 377.7C494.005 377.868 494.516 378.183 494.95 378.645C495.384 379.107 495.601 379.751 495.601 380.577C495.601 381.277 495.391 381.9 494.971 382.446C494.551 382.992 493.935 383.419 493.123 383.727C492.325 384.021 491.373 384.168 490.267 384.168Z" fill="white"/>
<path d="M49.1731 221.228V224H38.0641V221.795L43.7341 216.44C44.3361 215.866 44.7421 215.376 44.9521 214.97C45.1621 214.55 45.2671 214.137 45.2671 213.731C45.2671 213.143 45.0641 212.695 44.6581 212.387C44.2661 212.065 43.6851 211.904 42.9151 211.904C42.2711 211.904 41.6901 212.03 41.1721 212.282C40.6541 212.52 40.2201 212.884 39.8701 213.374L37.3921 211.778C37.9661 210.924 38.7571 210.259 39.7651 209.783C40.7731 209.293 41.9281 209.048 43.2301 209.048C44.3221 209.048 45.2741 209.23 46.0861 209.594C46.9121 209.944 47.5491 210.448 47.9971 211.106C48.4591 211.75 48.6901 212.513 48.6901 213.395C48.6901 214.193 48.5221 214.942 48.1861 215.642C47.8501 216.342 47.1991 217.14 46.2331 218.036L42.8521 221.228H49.1731ZM79.6661 209.3L74.8571 224H71.2031L67.9691 214.046L64.6301 224H60.9971L56.1671 209.3H59.6951L63.0131 219.632L66.4781 209.3H69.6281L72.9881 219.716L76.4111 209.3H79.6661ZM92.9473 221.27V224H81.5653V209.3H92.6743V212.03H84.9463V215.222H91.7713V217.868H84.9463V221.27H92.9473ZM107.036 221.27V224H95.6541V209.3H106.763V212.03H99.0351V215.222H105.86V217.868H99.0351V221.27H107.036ZM115.098 218.225L113.124 220.283V224H109.743V209.3H113.124V216.167L119.634 209.3H123.414L117.324 215.852L123.771 224H119.802L115.098 218.225ZM129.81 224.252C128.648 224.252 127.521 224.098 126.429 223.79C125.351 223.468 124.483 223.055 123.825 222.551L124.98 219.989C125.61 220.451 126.359 220.822 127.227 221.102C128.095 221.382 128.963 221.522 129.831 221.522C130.797 221.522 131.511 221.382 131.973 221.102C132.435 220.808 132.666 220.423 132.666 219.947C132.666 219.597 132.526 219.31 132.246 219.086C131.98 218.848 131.63 218.659 131.196 218.519C130.776 218.379 130.202 218.225 129.474 218.057C128.354 217.791 127.437 217.525 126.723 217.259C126.009 216.993 125.393 216.566 124.875 215.978C124.371 215.39 124.119 214.606 124.119 213.626C124.119 212.772 124.35 212.002 124.812 211.316C125.274 210.616 125.967 210.063 126.891 209.657C127.829 209.251 128.97 209.048 130.314 209.048C131.252 209.048 132.169 209.16 133.065 209.384C133.961 209.608 134.745 209.93 135.417 210.35L134.367 212.933C133.009 212.163 131.651 211.778 130.293 211.778C129.341 211.778 128.634 211.932 128.172 212.24C127.724 212.548 127.5 212.954 127.5 213.458C127.5 213.962 127.759 214.34 128.277 214.592C128.809 214.83 129.614 215.068 130.692 215.306C131.812 215.572 132.729 215.838 133.443 216.104C134.157 216.37 134.766 216.79 135.27 217.364C135.788 217.938 136.047 218.715 136.047 219.695C136.047 220.535 135.809 221.305 135.333 222.005C134.871 222.691 134.171 223.237 133.233 223.643C132.295 224.049 131.154 224.252 129.81 224.252Z" fill="white"/>
</svg>
