<svg width="820" height="566" viewBox="0 0 820 566" fill="none" xmlns="http://www.w3.org/2000/svg">
<rect width="820" height="566" fill="white"/>
<g opacity="0.75">
<rect x="38" y="71" width="210" height="44.5384" rx="1" fill="#002D62"/>
<path d="M94.5316 101.747C93.5376 101.747 92.6206 101.565 91.7806 101.201C90.9546 100.823 90.2756 100.291 89.7436 99.6049L91.6336 97.3369C92.4316 98.4149 93.3416 98.9539 94.3636 98.9539C95.7496 98.9539 96.4426 98.1419 96.4426 96.5179V89.5249H91.2766V86.7949H99.8236V96.3289C99.8236 98.1349 99.3756 99.4929 98.4796 100.403C97.5836 101.299 96.2676 101.747 94.5316 101.747ZM112.557 98.3449H105.732L104.43 101.495H100.944L107.496 86.7949H110.856L117.429 101.495H113.859L112.557 98.3449ZM111.486 95.7619L109.155 90.1339L106.824 95.7619H111.486ZM132.436 86.7949V101.495H129.643L122.314 92.5699V101.495H118.954V86.7949H121.768L129.076 95.7199V86.7949H132.436ZM142.445 101.747C140.345 101.747 138.707 101.166 137.531 100.004C136.369 98.8419 135.788 97.1829 135.788 95.0269V86.7949H139.19V94.9009C139.19 97.5329 140.282 98.8489 142.466 98.8489C143.53 98.8489 144.342 98.5339 144.902 97.9039C145.462 97.2599 145.742 96.2589 145.742 94.9009V86.7949H149.102V95.0269C149.102 97.1829 148.514 98.8419 147.338 100.004C146.176 101.166 144.545 101.747 142.445 101.747ZM161.838 98.3449H155.013L153.711 101.495H150.225L156.777 86.7949H160.137L166.71 101.495H163.14L161.838 98.3449ZM160.767 95.7619L158.436 90.1339L156.105 95.7619H160.767ZM177.601 101.495L174.766 97.3999H174.598H171.637V101.495H168.235V86.7949H174.598C175.9 86.7949 177.027 87.0119 177.979 87.4459C178.945 87.8799 179.687 88.4959 180.205 89.2939C180.723 90.0919 180.982 91.0369 180.982 92.1289C180.982 93.2209 180.716 94.1659 180.184 94.9639C179.666 95.7479 178.924 96.3499 177.958 96.7699L181.255 101.495H177.601ZM177.538 92.1289C177.538 91.3029 177.272 90.6729 176.74 90.2389C176.208 89.7909 175.431 89.5669 174.409 89.5669H171.637V94.6909H174.409C175.431 94.6909 176.208 94.4669 176.74 94.0189C177.272 93.5709 177.538 92.9409 177.538 92.1289ZM190.528 96.2869V101.495H187.126V96.2449L181.435 86.7949H185.047L188.974 93.3259L192.901 86.7949H196.24L190.528 96.2869Z" fill="white"/>
</g>
<g opacity="0.75">
<rect x="38" y="355" width="210" height="44.5384" rx="1" fill="#002D62"/>
<path d="M94.5316 385.747C93.5376 385.747 92.6206 385.565 91.7806 385.201C90.9546 384.823 90.2756 384.291 89.7436 383.605L91.6336 381.337C92.4316 382.415 93.3416 382.954 94.3636 382.954C95.7496 382.954 96.4426 382.142 96.4426 380.518V373.525H91.2766V370.795H99.8236V380.329C99.8236 382.135 99.3756 383.493 98.4796 384.403C97.5836 385.299 96.2676 385.747 94.5316 385.747ZM112.557 382.345H105.732L104.43 385.495H100.944L107.496 370.795H110.856L117.429 385.495H113.859L112.557 382.345ZM111.486 379.762L109.155 374.134L106.824 379.762H111.486ZM132.436 370.795V385.495H129.643L122.314 376.57V385.495H118.954V370.795H121.768L129.076 379.72V370.795H132.436ZM142.445 385.747C140.345 385.747 138.707 385.166 137.531 384.004C136.369 382.842 135.788 381.183 135.788 379.027V370.795H139.19V378.901C139.19 381.533 140.282 382.849 142.466 382.849C143.53 382.849 144.342 382.534 144.902 381.904C145.462 381.26 145.742 380.259 145.742 378.901V370.795H149.102V379.027C149.102 381.183 148.514 382.842 147.338 384.004C146.176 385.166 144.545 385.747 142.445 385.747ZM161.838 382.345H155.013L153.711 385.495H150.225L156.777 370.795H160.137L166.71 385.495H163.14L161.838 382.345ZM160.767 379.762L158.436 374.134L156.105 379.762H160.767ZM177.601 385.495L174.766 381.4H174.598H171.637V385.495H168.235V370.795H174.598C175.9 370.795 177.027 371.012 177.979 371.446C178.945 371.88 179.687 372.496 180.205 373.294C180.723 374.092 180.982 375.037 180.982 376.129C180.982 377.221 180.716 378.166 180.184 378.964C179.666 379.748 178.924 380.35 177.958 380.77L181.255 385.495H177.601ZM177.538 376.129C177.538 375.303 177.272 374.673 176.74 374.239C176.208 373.791 175.431 373.567 174.409 373.567H171.637V378.691H174.409C175.431 378.691 176.208 378.467 176.74 378.019C177.272 377.571 177.538 376.941 177.538 376.129ZM190.528 380.287V385.495H187.126V380.245L181.435 370.795H185.047L188.974 377.326L192.901 370.795H196.24L190.528 380.287Z" fill="white"/>
<path d="M81.7229 331.252C80.5609 331.252 79.4339 331.098 78.3419 330.79C77.2639 330.468 76.3959 330.055 75.7379 329.551L76.8929 326.989C77.5229 327.451 78.2719 327.822 79.1399 328.102C80.0079 328.382 80.8759 328.522 81.7439 328.522C82.7099 328.522 83.4239 328.382 83.8859 328.102C84.3479 327.808 84.5789 327.423 84.5789 326.947C84.5789 326.597 84.4389 326.31 84.1589 326.086C83.8929 325.848 83.5429 325.659 83.1089 325.519C82.6889 325.379 82.1149 325.225 81.3869 325.057C80.2669 324.791 79.3499 324.525 78.6359 324.259C77.9219 323.993 77.3059 323.566 76.7879 322.978C76.2839 322.39 76.0319 321.606 76.0319 320.626C76.0319 319.772 76.2629 319.002 76.7249 318.316C77.1869 317.616 77.8799 317.063 78.8039 316.657C79.7419 316.251 80.8829 316.048 82.2269 316.048C83.1649 316.048 84.0819 316.16 84.9779 316.384C85.8739 316.608 86.6579 316.93 87.3299 317.35L86.2799 319.933C84.9219 319.163 83.5639 318.778 82.2059 318.778C81.2539 318.778 80.5469 318.932 80.0849 319.24C79.6369 319.548 79.4129 319.954 79.4129 320.458C79.4129 320.962 79.6719 321.34 80.1899 321.592C80.7219 321.83 81.5269 322.068 82.6049 322.306C83.7249 322.572 84.6419 322.838 85.3559 323.104C86.0699 323.37 86.6789 323.79 87.1829 324.364C87.7009 324.938 87.9599 325.715 87.9599 326.695C87.9599 327.535 87.7219 328.305 87.2459 329.005C86.7839 329.691 86.0839 330.237 85.1459 330.643C84.2079 331.049 83.0669 331.252 81.7229 331.252ZM101.667 328.27V331H90.2845V316.3H101.394V319.03H93.6655V322.222H100.491V324.868H93.6655V328.27H101.667ZM117.75 331L117.729 322.18L113.403 329.446H111.87L107.565 322.369V331H104.373V316.3H107.187L112.689 325.435L118.107 316.3H120.9L120.942 331H117.75ZM135.812 328.27V331H124.43V316.3H135.539V319.03H127.811V322.222H134.636V324.868H127.811V328.27H135.812ZM143.349 331.252C142.187 331.252 141.06 331.098 139.968 330.79C138.89 330.468 138.022 330.055 137.364 329.551L138.519 326.989C139.149 327.451 139.898 327.822 140.766 328.102C141.634 328.382 142.502 328.522 143.37 328.522C144.336 328.522 145.05 328.382 145.512 328.102C145.974 327.808 146.205 327.423 146.205 326.947C146.205 326.597 146.065 326.31 145.785 326.086C145.519 325.848 145.169 325.659 144.735 325.519C144.315 325.379 143.741 325.225 143.013 325.057C141.893 324.791 140.976 324.525 140.262 324.259C139.548 323.993 138.932 323.566 138.414 322.978C137.91 322.39 137.658 321.606 137.658 320.626C137.658 319.772 137.889 319.002 138.351 318.316C138.813 317.616 139.506 317.063 140.43 316.657C141.368 316.251 142.509 316.048 143.853 316.048C144.791 316.048 145.708 316.16 146.604 316.384C147.5 316.608 148.284 316.93 148.956 317.35L147.906 319.933C146.548 319.163 145.19 318.778 143.832 318.778C142.88 318.778 142.173 318.932 141.711 319.24C141.263 319.548 141.039 319.954 141.039 320.458C141.039 320.962 141.298 321.34 141.816 321.592C142.348 321.83 143.153 322.068 144.231 322.306C145.351 322.572 146.268 322.838 146.982 323.104C147.696 323.37 148.305 323.79 148.809 324.364C149.327 324.938 149.586 325.715 149.586 326.695C149.586 327.535 149.348 328.305 148.872 329.005C148.41 329.691 147.71 330.237 146.772 330.643C145.834 331.049 144.693 331.252 143.349 331.252ZM154.75 319.072H150.046V316.3H162.856V319.072H158.152V331H154.75V319.072ZM176.069 328.27V331H164.687V316.3H175.796V319.03H168.068V322.222H174.893V324.868H168.068V328.27H176.069ZM188.142 331L185.307 326.905H185.139H182.178V331H178.776V316.3H185.139C186.441 316.3 187.568 316.517 188.52 316.951C189.486 317.385 190.228 318.001 190.746 318.799C191.264 319.597 191.523 320.542 191.523 321.634C191.523 322.726 191.257 323.671 190.725 324.469C190.207 325.253 189.465 325.855 188.499 326.275L191.796 331H188.142ZM188.079 321.634C188.079 320.808 187.813 320.178 187.281 319.744C186.749 319.296 185.972 319.072 184.95 319.072H182.178V324.196H184.95C185.972 324.196 186.749 323.972 187.281 323.524C187.813 323.076 188.079 322.446 188.079 321.634ZM206.108 322.285C207.396 322.495 208.383 322.978 209.069 323.734C209.755 324.476 210.098 325.4 210.098 326.506C210.098 327.36 209.874 328.151 209.426 328.879C208.978 329.593 208.292 330.167 207.368 330.601C206.458 331.035 205.338 331.252 204.008 331.252C202.972 331.252 201.95 331.119 200.942 330.853C199.948 330.573 199.101 330.181 198.401 329.677L199.724 327.073C200.284 327.493 200.928 327.822 201.656 328.06C202.398 328.284 203.154 328.396 203.924 328.396C204.778 328.396 205.45 328.235 205.94 327.913C206.43 327.577 206.675 327.108 206.675 326.506C206.675 325.302 205.758 324.7 203.924 324.7H202.37V322.453L205.394 319.03H199.136V316.3H209.426V318.505L206.108 322.285Z" fill="black"/>
<path d="M83.825 47.252C82.663 47.252 81.536 47.098 80.444 46.79C79.366 46.468 78.498 46.055 77.84 45.551L78.995 42.989C79.625 43.451 80.374 43.822 81.242 44.102C82.11 44.382 82.978 44.522 83.846 44.522C84.812 44.522 85.526 44.382 85.988 44.102C86.45 43.808 86.681 43.423 86.681 42.947C86.681 42.597 86.541 42.31 86.261 42.086C85.995 41.848 85.645 41.659 85.211 41.519C84.791 41.379 84.217 41.225 83.489 41.057C82.369 40.791 81.452 40.525 80.738 40.259C80.024 39.993 79.408 39.566 78.89 38.978C78.386 38.39 78.134 37.606 78.134 36.626C78.134 35.772 78.365 35.002 78.827 34.316C79.289 33.616 79.982 33.063 80.906 32.657C81.844 32.251 82.985 32.048 84.329 32.048C85.267 32.048 86.184 32.16 87.08 32.384C87.976 32.608 88.76 32.93 89.432 33.35L88.382 35.933C87.024 35.163 85.666 34.778 84.308 34.778C83.356 34.778 82.649 34.932 82.187 35.24C81.739 35.548 81.515 35.954 81.515 36.458C81.515 36.962 81.774 37.34 82.292 37.592C82.824 37.83 83.629 38.068 84.707 38.306C85.827 38.572 86.744 38.838 87.458 39.104C88.172 39.37 88.781 39.79 89.285 40.364C89.803 40.938 90.062 41.715 90.062 42.695C90.062 43.535 89.824 44.305 89.348 45.005C88.886 45.691 88.186 46.237 87.248 46.643C86.31 47.049 85.169 47.252 83.825 47.252ZM103.769 44.27V47H92.3866V32.3H103.496V35.03H95.7676V38.222H102.593V40.868H95.7676V44.27H103.769ZM119.852 47L119.831 38.18L115.505 45.446H113.972L109.667 38.369V47H106.475V32.3H109.289L114.791 41.435L120.209 32.3H123.002L123.044 47H119.852ZM137.914 44.27V47H126.532V32.3H137.641V35.03H129.913V38.222H136.738V40.868H129.913V44.27H137.914ZM145.451 47.252C144.289 47.252 143.162 47.098 142.07 46.79C140.992 46.468 140.124 46.055 139.466 45.551L140.621 42.989C141.251 43.451 142 43.822 142.868 44.102C143.736 44.382 144.604 44.522 145.472 44.522C146.438 44.522 147.152 44.382 147.614 44.102C148.076 43.808 148.307 43.423 148.307 42.947C148.307 42.597 148.167 42.31 147.887 42.086C147.621 41.848 147.271 41.659 146.837 41.519C146.417 41.379 145.843 41.225 145.115 41.057C143.995 40.791 143.078 40.525 142.364 40.259C141.65 39.993 141.034 39.566 140.516 38.978C140.012 38.39 139.76 37.606 139.76 36.626C139.76 35.772 139.991 35.002 140.453 34.316C140.915 33.616 141.608 33.063 142.532 32.657C143.47 32.251 144.611 32.048 145.955 32.048C146.893 32.048 147.81 32.16 148.706 32.384C149.602 32.608 150.386 32.93 151.058 33.35L150.008 35.933C148.65 35.163 147.292 34.778 145.934 34.778C144.982 34.778 144.275 34.932 143.813 35.24C143.365 35.548 143.141 35.954 143.141 36.458C143.141 36.962 143.4 37.34 143.918 37.592C144.45 37.83 145.255 38.068 146.333 38.306C147.453 38.572 148.37 38.838 149.084 39.104C149.798 39.37 150.407 39.79 150.911 40.364C151.429 40.938 151.688 41.715 151.688 42.695C151.688 43.535 151.45 44.305 150.974 45.005C150.512 45.691 149.812 46.237 148.874 46.643C147.936 47.049 146.795 47.252 145.451 47.252ZM156.852 35.072H152.148V32.3H164.958V35.072H160.254V47H156.852V35.072ZM178.171 44.27V47H166.789V32.3H177.898V35.03H170.17V38.222H176.995V40.868H170.17V44.27H178.171ZM190.244 47L187.409 42.905H187.241H184.28V47H180.878V32.3H187.241C188.543 32.3 189.67 32.517 190.622 32.951C191.588 33.385 192.33 34.001 192.848 34.799C193.366 35.597 193.625 36.542 193.625 37.634C193.625 38.726 193.359 39.671 192.827 40.469C192.309 41.253 191.567 41.855 190.601 42.275L193.898 47H190.244ZM190.181 37.634C190.181 36.808 189.915 36.178 189.383 35.744C188.851 35.296 188.074 35.072 187.052 35.072H184.28V40.196H187.052C188.074 40.196 188.851 39.972 189.383 39.524C189.915 39.076 190.181 38.446 190.181 37.634ZM207.013 32.3V47H203.611V35.03H200.671V32.3H207.013Z" fill="black"/>
<path d="M366.78 47.252C365.618 47.252 364.491 47.098 363.399 46.79C362.321 46.468 361.453 46.055 360.795 45.551L361.95 42.989C362.58 43.451 363.329 43.822 364.197 44.102C365.065 44.382 365.933 44.522 366.801 44.522C367.767 44.522 368.481 44.382 368.943 44.102C369.405 43.808 369.636 43.423 369.636 42.947C369.636 42.597 369.496 42.31 369.216 42.086C368.95 41.848 368.6 41.659 368.166 41.519C367.746 41.379 367.172 41.225 366.444 41.057C365.324 40.791 364.407 40.525 363.693 40.259C362.979 39.993 362.363 39.566 361.845 38.978C361.341 38.39 361.089 37.606 361.089 36.626C361.089 35.772 361.32 35.002 361.782 34.316C362.244 33.616 362.937 33.063 363.861 32.657C364.799 32.251 365.94 32.048 367.284 32.048C368.222 32.048 369.139 32.16 370.035 32.384C370.931 32.608 371.715 32.93 372.387 33.35L371.337 35.933C369.979 35.163 368.621 34.778 367.263 34.778C366.311 34.778 365.604 34.932 365.142 35.24C364.694 35.548 364.47 35.954 364.47 36.458C364.47 36.962 364.729 37.34 365.247 37.592C365.779 37.83 366.584 38.068 367.662 38.306C368.782 38.572 369.699 38.838 370.413 39.104C371.127 39.37 371.736 39.79 372.24 40.364C372.758 40.938 373.017 41.715 373.017 42.695C373.017 43.535 372.779 44.305 372.303 45.005C371.841 45.691 371.141 46.237 370.203 46.643C369.265 47.049 368.124 47.252 366.78 47.252ZM381.873 47.252C379.773 47.252 378.135 46.671 376.959 45.509C375.797 44.347 375.216 42.688 375.216 40.532V32.3H378.618V40.406C378.618 43.038 379.71 44.354 381.894 44.354C382.958 44.354 383.77 44.039 384.33 43.409C384.89 42.765 385.17 41.764 385.17 40.406V32.3H388.53V40.532C388.53 42.688 387.942 44.347 386.766 45.509C385.604 46.671 383.973 47.252 381.873 47.252ZM405.268 47L405.247 38.18L400.921 45.446H399.388L395.083 38.369V47H391.891V32.3H394.705L400.207 41.435L405.625 32.3H408.418L408.46 47H405.268ZM425.325 47L425.304 38.18L420.978 45.446H419.445L415.14 38.369V47H411.948V32.3H414.762L420.264 41.435L425.682 32.3H428.475L428.517 47H425.325ZM443.387 44.27V47H432.005V32.3H443.114V35.03H435.386V38.222H442.211V40.868H435.386V44.27H443.387ZM455.46 47L452.625 42.905H452.457H449.496V47H446.094V32.3H452.457C453.759 32.3 454.886 32.517 455.838 32.951C456.804 33.385 457.546 34.001 458.064 34.799C458.582 35.597 458.841 36.542 458.841 37.634C458.841 38.726 458.575 39.671 458.043 40.469C457.525 41.253 456.783 41.855 455.817 42.275L459.114 47H455.46ZM455.397 37.634C455.397 36.808 455.131 36.178 454.599 35.744C454.067 35.296 453.29 35.072 452.268 35.072H449.496V40.196H452.268C453.29 40.196 454.067 39.972 454.599 39.524C455.131 39.076 455.397 38.446 455.397 37.634Z" fill="black"/>
<path d="M615.743 47.252C614.581 47.252 613.454 47.098 612.362 46.79C611.284 46.468 610.416 46.055 609.758 45.551L610.913 42.989C611.543 43.451 612.292 43.822 613.16 44.102C614.028 44.382 614.896 44.522 615.764 44.522C616.73 44.522 617.444 44.382 617.906 44.102C618.368 43.808 618.599 43.423 618.599 42.947C618.599 42.597 618.459 42.31 618.179 42.086C617.913 41.848 617.563 41.659 617.129 41.519C616.709 41.379 616.135 41.225 615.407 41.057C614.287 40.791 613.37 40.525 612.656 40.259C611.942 39.993 611.326 39.566 610.808 38.978C610.304 38.39 610.052 37.606 610.052 36.626C610.052 35.772 610.283 35.002 610.745 34.316C611.207 33.616 611.9 33.063 612.824 32.657C613.762 32.251 614.903 32.048 616.247 32.048C617.185 32.048 618.102 32.16 618.998 32.384C619.894 32.608 620.678 32.93 621.35 33.35L620.3 35.933C618.942 35.163 617.584 34.778 616.226 34.778C615.274 34.778 614.567 34.932 614.105 35.24C613.657 35.548 613.433 35.954 613.433 36.458C613.433 36.962 613.692 37.34 614.21 37.592C614.742 37.83 615.547 38.068 616.625 38.306C617.745 38.572 618.662 38.838 619.376 39.104C620.09 39.37 620.699 39.79 621.203 40.364C621.721 40.938 621.98 41.715 621.98 42.695C621.98 43.535 621.742 44.305 621.266 45.005C620.804 45.691 620.104 46.237 619.166 46.643C618.228 47.049 617.087 47.252 615.743 47.252ZM635.687 44.27V47H624.305V32.3H635.414V35.03H627.686V38.222H634.511V40.868H627.686V44.27H635.687ZM651.771 47L651.75 38.18L647.424 45.446H645.891L641.586 38.369V47H638.394V32.3H641.208L646.71 41.435L652.128 32.3H654.921L654.963 47H651.771ZM669.833 44.27V47H658.451V32.3H669.56V35.03H661.832V38.222H668.657V40.868H661.832V44.27H669.833ZM677.369 47.252C676.207 47.252 675.08 47.098 673.988 46.79C672.91 46.468 672.042 46.055 671.384 45.551L672.539 42.989C673.169 43.451 673.918 43.822 674.786 44.102C675.654 44.382 676.522 44.522 677.39 44.522C678.356 44.522 679.07 44.382 679.532 44.102C679.994 43.808 680.225 43.423 680.225 42.947C680.225 42.597 680.085 42.31 679.805 42.086C679.539 41.848 679.189 41.659 678.755 41.519C678.335 41.379 677.761 41.225 677.033 41.057C675.913 40.791 674.996 40.525 674.282 40.259C673.568 39.993 672.952 39.566 672.434 38.978C671.93 38.39 671.678 37.606 671.678 36.626C671.678 35.772 671.909 35.002 672.371 34.316C672.833 33.616 673.526 33.063 674.45 32.657C675.388 32.251 676.529 32.048 677.873 32.048C678.811 32.048 679.728 32.16 680.624 32.384C681.52 32.608 682.304 32.93 682.976 33.35L681.926 35.933C680.568 35.163 679.21 34.778 677.852 34.778C676.9 34.778 676.193 34.932 675.731 35.24C675.283 35.548 675.059 35.954 675.059 36.458C675.059 36.962 675.318 37.34 675.836 37.592C676.368 37.83 677.173 38.068 678.251 38.306C679.371 38.572 680.288 38.838 681.002 39.104C681.716 39.37 682.325 39.79 682.829 40.364C683.347 40.938 683.606 41.715 683.606 42.695C683.606 43.535 683.368 44.305 682.892 45.005C682.43 45.691 681.73 46.237 680.792 46.643C679.854 47.049 678.713 47.252 677.369 47.252ZM688.771 35.072H684.067V32.3H696.877V35.072H692.173V47H688.771V35.072ZM710.089 44.27V47H698.707V32.3H709.816V35.03H702.088V38.222H708.913V40.868H702.088V44.27H710.089ZM722.162 47L719.327 42.905H719.159H716.198V47H712.796V32.3H719.159C720.461 32.3 721.588 32.517 722.54 32.951C723.506 33.385 724.248 34.001 724.766 34.799C725.284 35.597 725.543 36.542 725.543 37.634C725.543 38.726 725.277 39.671 724.745 40.469C724.227 41.253 723.485 41.855 722.519 42.275L725.816 47H722.162ZM722.099 37.634C722.099 36.808 721.833 36.178 721.301 35.744C720.769 35.296 719.992 35.072 718.97 35.072H716.198V40.196H718.97C719.992 40.196 720.769 39.972 721.301 39.524C721.833 39.076 722.099 38.446 722.099 37.634ZM744.245 44.228V47H733.136V44.795L738.806 39.44C739.408 38.866 739.814 38.376 740.024 37.97C740.234 37.55 740.339 37.137 740.339 36.731C740.339 36.143 740.136 35.695 739.73 35.387C739.338 35.065 738.757 34.904 737.987 34.904C737.343 34.904 736.762 35.03 736.244 35.282C735.726 35.52 735.292 35.884 734.942 36.374L732.464 34.778C733.038 33.924 733.829 33.259 734.837 32.783C735.845 32.293 737 32.048 738.302 32.048C739.394 32.048 740.346 32.23 741.158 32.594C741.984 32.944 742.621 33.448 743.069 34.106C743.531 34.75 743.762 35.513 743.762 36.395C743.762 37.193 743.594 37.942 743.258 38.642C742.922 39.342 742.271 40.14 741.305 41.036L737.924 44.228H744.245Z" fill="black"/>
<path d="M614.698 331.252C613.536 331.252 612.409 331.098 611.317 330.79C610.239 330.468 609.371 330.055 608.713 329.551L609.868 326.989C610.498 327.451 611.247 327.822 612.115 328.102C612.983 328.382 613.851 328.522 614.719 328.522C615.685 328.522 616.399 328.382 616.861 328.102C617.323 327.808 617.554 327.423 617.554 326.947C617.554 326.597 617.414 326.31 617.134 326.086C616.868 325.848 616.518 325.659 616.084 325.519C615.664 325.379 615.09 325.225 614.362 325.057C613.242 324.791 612.325 324.525 611.611 324.259C610.897 323.993 610.281 323.566 609.763 322.978C609.259 322.39 609.007 321.606 609.007 320.626C609.007 319.772 609.238 319.002 609.7 318.316C610.162 317.616 610.855 317.063 611.779 316.657C612.717 316.251 613.858 316.048 615.202 316.048C616.14 316.048 617.057 316.16 617.953 316.384C618.849 316.608 619.633 316.93 620.305 317.35L619.255 319.933C617.897 319.163 616.539 318.778 615.181 318.778C614.229 318.778 613.522 318.932 613.06 319.24C612.612 319.548 612.388 319.954 612.388 320.458C612.388 320.962 612.647 321.34 613.165 321.592C613.697 321.83 614.502 322.068 615.58 322.306C616.7 322.572 617.617 322.838 618.331 323.104C619.045 323.37 619.654 323.79 620.158 324.364C620.676 324.938 620.935 325.715 620.935 326.695C620.935 327.535 620.697 328.305 620.221 329.005C619.759 329.691 619.059 330.237 618.121 330.643C617.183 331.049 616.042 331.252 614.698 331.252ZM634.641 328.27V331H623.259V316.3H634.368V319.03H626.64V322.222H633.465V324.868H626.64V328.27H634.641ZM650.725 331L650.704 322.18L646.378 329.446H644.845L640.54 322.369V331H637.348V316.3H640.162L645.664 325.435L651.082 316.3H653.875L653.917 331H650.725ZM668.787 328.27V331H657.405V316.3H668.514V319.03H660.786V322.222H667.611V324.868H660.786V328.27H668.787ZM676.323 331.252C675.161 331.252 674.034 331.098 672.942 330.79C671.864 330.468 670.996 330.055 670.338 329.551L671.493 326.989C672.123 327.451 672.872 327.822 673.74 328.102C674.608 328.382 675.476 328.522 676.344 328.522C677.31 328.522 678.024 328.382 678.486 328.102C678.948 327.808 679.179 327.423 679.179 326.947C679.179 326.597 679.039 326.31 678.759 326.086C678.493 325.848 678.143 325.659 677.709 325.519C677.289 325.379 676.715 325.225 675.987 325.057C674.867 324.791 673.95 324.525 673.236 324.259C672.522 323.993 671.906 323.566 671.388 322.978C670.884 322.39 670.632 321.606 670.632 320.626C670.632 319.772 670.863 319.002 671.325 318.316C671.787 317.616 672.48 317.063 673.404 316.657C674.342 316.251 675.483 316.048 676.827 316.048C677.765 316.048 678.682 316.16 679.578 316.384C680.474 316.608 681.258 316.93 681.93 317.35L680.88 319.933C679.522 319.163 678.164 318.778 676.806 318.778C675.854 318.778 675.147 318.932 674.685 319.24C674.237 319.548 674.013 319.954 674.013 320.458C674.013 320.962 674.272 321.34 674.79 321.592C675.322 321.83 676.127 322.068 677.205 322.306C678.325 322.572 679.242 322.838 679.956 323.104C680.67 323.37 681.279 323.79 681.783 324.364C682.301 324.938 682.56 325.715 682.56 326.695C682.56 327.535 682.322 328.305 681.846 329.005C681.384 329.691 680.684 330.237 679.746 330.643C678.808 331.049 677.667 331.252 676.323 331.252ZM687.725 319.072H683.021V316.3H695.831V319.072H691.127V331H687.725V319.072ZM709.043 328.27V331H697.661V316.3H708.77V319.03H701.042V322.222H707.867V324.868H701.042V328.27H709.043ZM721.116 331L718.281 326.905H718.113H715.152V331H711.75V316.3H718.113C719.415 316.3 720.542 316.517 721.494 316.951C722.46 317.385 723.202 318.001 723.72 318.799C724.238 319.597 724.497 320.542 724.497 321.634C724.497 322.726 724.231 323.671 723.699 324.469C723.181 325.253 722.439 325.855 721.473 326.275L724.77 331H721.116ZM721.053 321.634C721.053 320.808 720.787 320.178 720.255 319.744C719.723 319.296 718.946 319.072 717.924 319.072H715.152V324.196H717.924C718.946 324.196 719.723 323.972 720.255 323.524C720.787 323.076 721.053 322.446 721.053 321.634ZM745.677 327.913H743.283V331H739.965V327.913H732.048V325.624L738.978 316.3H742.548L736.122 325.141H740.07V322.39H743.283V325.141H745.677V327.913Z" fill="black"/>
<path d="M366.78 331.252C365.618 331.252 364.491 331.098 363.399 330.79C362.321 330.468 361.453 330.055 360.795 329.551L361.95 326.989C362.58 327.451 363.329 327.822 364.197 328.102C365.065 328.382 365.933 328.522 366.801 328.522C367.767 328.522 368.481 328.382 368.943 328.102C369.405 327.808 369.636 327.423 369.636 326.947C369.636 326.597 369.496 326.31 369.216 326.086C368.95 325.848 368.6 325.659 368.166 325.519C367.746 325.379 367.172 325.225 366.444 325.057C365.324 324.791 364.407 324.525 363.693 324.259C362.979 323.993 362.363 323.566 361.845 322.978C361.341 322.39 361.089 321.606 361.089 320.626C361.089 319.772 361.32 319.002 361.782 318.316C362.244 317.616 362.937 317.063 363.861 316.657C364.799 316.251 365.94 316.048 367.284 316.048C368.222 316.048 369.139 316.16 370.035 316.384C370.931 316.608 371.715 316.93 372.387 317.35L371.337 319.933C369.979 319.163 368.621 318.778 367.263 318.778C366.311 318.778 365.604 318.932 365.142 319.24C364.694 319.548 364.47 319.954 364.47 320.458C364.47 320.962 364.729 321.34 365.247 321.592C365.779 321.83 366.584 322.068 367.662 322.306C368.782 322.572 369.699 322.838 370.413 323.104C371.127 323.37 371.736 323.79 372.24 324.364C372.758 324.938 373.017 325.715 373.017 326.695C373.017 327.535 372.779 328.305 372.303 329.005C371.841 329.691 371.141 330.237 370.203 330.643C369.265 331.049 368.124 331.252 366.78 331.252ZM381.873 331.252C379.773 331.252 378.135 330.671 376.959 329.509C375.797 328.347 375.216 326.688 375.216 324.532V316.3H378.618V324.406C378.618 327.038 379.71 328.354 381.894 328.354C382.958 328.354 383.77 328.039 384.33 327.409C384.89 326.765 385.17 325.764 385.17 324.406V316.3H388.53V324.532C388.53 326.688 387.942 328.347 386.766 329.509C385.604 330.671 383.973 331.252 381.873 331.252ZM405.268 331L405.247 322.18L400.921 329.446H399.388L395.083 322.369V331H391.891V316.3H394.705L400.207 325.435L405.625 316.3H408.418L408.46 331H405.268ZM425.325 331L425.304 322.18L420.978 329.446H419.445L415.14 322.369V331H411.948V316.3H414.762L420.264 325.435L425.682 316.3H428.475L428.517 331H425.325ZM443.387 328.27V331H432.005V316.3H443.114V319.03H435.386V322.222H442.211V324.868H435.386V328.27H443.387ZM455.46 331L452.625 326.905H452.457H449.496V331H446.094V316.3H452.457C453.759 316.3 454.886 316.517 455.838 316.951C456.804 317.385 457.546 318.001 458.064 318.799C458.582 319.597 458.841 320.542 458.841 321.634C458.841 322.726 458.575 323.671 458.043 324.469C457.525 325.253 456.783 325.855 455.817 326.275L459.114 331H455.46ZM455.397 321.634C455.397 320.808 455.131 320.178 454.599 319.744C454.067 319.296 453.29 319.072 452.268 319.072H449.496V324.196H452.268C453.29 324.196 454.067 323.972 454.599 323.524C455.131 323.076 455.397 322.446 455.397 321.634Z" fill="black"/>
</g>
<g opacity="0.75">
<rect x="38" y="120.487" width="210" height="44.5384" rx="1" fill="#002D62"/>
<path d="M87.77 139.012V142.897H94.574V145.627H87.77V150.982H84.368V136.282H95.477V139.012H87.77ZM109.162 148.252V150.982H97.7801V136.282H108.889V139.012H101.161V142.204H107.986V144.85H101.161V148.252H109.162ZM122.663 143.338C123.503 143.604 124.161 144.052 124.637 144.682C125.113 145.298 125.351 146.061 125.351 146.971C125.351 148.259 124.847 149.253 123.839 149.953C122.845 150.639 121.389 150.982 119.471 150.982H111.869V136.282H119.051C120.843 136.282 122.215 136.625 123.167 137.311C124.133 137.997 124.616 138.928 124.616 140.104C124.616 140.818 124.441 141.455 124.091 142.015C123.755 142.575 123.279 143.016 122.663 143.338ZM115.25 138.844V142.309H118.631C119.471 142.309 120.108 142.162 120.542 141.868C120.976 141.574 121.193 141.14 121.193 140.566C121.193 139.992 120.976 139.565 120.542 139.285C120.108 138.991 119.471 138.844 118.631 138.844H115.25ZM119.219 148.42C120.115 148.42 120.787 148.273 121.235 147.979C121.697 147.685 121.928 147.23 121.928 146.614C121.928 145.396 121.025 144.787 119.219 144.787H115.25V148.42H119.219ZM137.293 150.982L134.458 146.887H134.29H131.329V150.982H127.927V136.282H134.29C135.592 136.282 136.719 136.499 137.671 136.933C138.637 137.367 139.379 137.983 139.897 138.781C140.415 139.579 140.674 140.524 140.674 141.616C140.674 142.708 140.408 143.653 139.876 144.451C139.358 145.235 138.616 145.837 137.65 146.257L140.947 150.982H137.293ZM137.23 141.616C137.23 140.79 136.964 140.16 136.432 139.726C135.9 139.278 135.123 139.054 134.101 139.054H131.329V144.178H134.101C135.123 144.178 135.9 143.954 136.432 143.506C136.964 143.058 137.23 142.428 137.23 141.616ZM149.9 151.234C147.8 151.234 146.162 150.653 144.986 149.491C143.824 148.329 143.243 146.67 143.243 144.514V136.282H146.645V144.388C146.645 147.02 147.737 148.336 149.921 148.336C150.985 148.336 151.797 148.021 152.357 147.391C152.917 146.747 153.197 145.746 153.197 144.388V136.282H156.557V144.514C156.557 146.67 155.969 148.329 154.793 149.491C153.631 150.653 152 151.234 149.9 151.234ZM169.292 147.832H162.467L161.165 150.982H157.679L164.231 136.282H167.591L174.164 150.982H170.594L169.292 147.832ZM168.221 145.249L165.89 139.621L163.559 145.249H168.221ZM185.055 150.982L182.22 146.887H182.052H179.091V150.982H175.689V136.282H182.052C183.354 136.282 184.481 136.499 185.433 136.933C186.399 137.367 187.141 137.983 187.659 138.781C188.177 139.579 188.436 140.524 188.436 141.616C188.436 142.708 188.17 143.653 187.638 144.451C187.12 145.235 186.378 145.837 185.412 146.257L188.709 150.982H185.055ZM184.992 141.616C184.992 140.79 184.726 140.16 184.194 139.726C183.662 139.278 182.885 139.054 181.863 139.054H179.091V144.178H181.863C182.885 144.178 183.662 143.954 184.194 143.506C184.726 143.058 184.992 142.428 184.992 141.616ZM197.983 145.774V150.982H194.581V145.732L188.89 136.282H192.502L196.429 142.813L200.356 136.282H203.695L197.983 145.774Z" fill="white"/>
</g>
<g opacity="0.75">
<rect x="38" y="404.487" width="210" height="44.5384" rx="1" fill="#002D62"/>
<path d="M87.77 423.012V426.897H94.574V429.627H87.77V434.982H84.368V420.282H95.477V423.012H87.77ZM109.162 432.252V434.982H97.7801V420.282H108.889V423.012H101.161V426.204H107.986V428.85H101.161V432.252H109.162ZM122.663 427.338C123.503 427.604 124.161 428.052 124.637 428.682C125.113 429.298 125.351 430.061 125.351 430.971C125.351 432.259 124.847 433.253 123.839 433.953C122.845 434.639 121.389 434.982 119.471 434.982H111.869V420.282H119.051C120.843 420.282 122.215 420.625 123.167 421.311C124.133 421.997 124.616 422.928 124.616 424.104C124.616 424.818 124.441 425.455 124.091 426.015C123.755 426.575 123.279 427.016 122.663 427.338ZM115.25 422.844V426.309H118.631C119.471 426.309 120.108 426.162 120.542 425.868C120.976 425.574 121.193 425.14 121.193 424.566C121.193 423.992 120.976 423.565 120.542 423.285C120.108 422.991 119.471 422.844 118.631 422.844H115.25ZM119.219 432.42C120.115 432.42 120.787 432.273 121.235 431.979C121.697 431.685 121.928 431.23 121.928 430.614C121.928 429.396 121.025 428.787 119.219 428.787H115.25V432.42H119.219ZM137.293 434.982L134.458 430.887H134.29H131.329V434.982H127.927V420.282H134.29C135.592 420.282 136.719 420.499 137.671 420.933C138.637 421.367 139.379 421.983 139.897 422.781C140.415 423.579 140.674 424.524 140.674 425.616C140.674 426.708 140.408 427.653 139.876 428.451C139.358 429.235 138.616 429.837 137.65 430.257L140.947 434.982H137.293ZM137.23 425.616C137.23 424.79 136.964 424.16 136.432 423.726C135.9 423.278 135.123 423.054 134.101 423.054H131.329V428.178H134.101C135.123 428.178 135.9 427.954 136.432 427.506C136.964 427.058 137.23 426.428 137.23 425.616ZM149.9 435.234C147.8 435.234 146.162 434.653 144.986 433.491C143.824 432.329 143.243 430.67 143.243 428.514V420.282H146.645V428.388C146.645 431.02 147.737 432.336 149.921 432.336C150.985 432.336 151.797 432.021 152.357 431.391C152.917 430.747 153.197 429.746 153.197 428.388V420.282H156.557V428.514C156.557 430.67 155.969 432.329 154.793 433.491C153.631 434.653 152 435.234 149.9 435.234ZM169.292 431.832H162.467L161.165 434.982H157.679L164.231 420.282H167.591L174.164 434.982H170.594L169.292 431.832ZM168.221 429.249L165.89 423.621L163.559 429.249H168.221ZM185.055 434.982L182.22 430.887H182.052H179.091V434.982H175.689V420.282H182.052C183.354 420.282 184.481 420.499 185.433 420.933C186.399 421.367 187.141 421.983 187.659 422.781C188.177 423.579 188.436 424.524 188.436 425.616C188.436 426.708 188.17 427.653 187.638 428.451C187.12 429.235 186.378 429.837 185.412 430.257L188.709 434.982H185.055ZM184.992 425.616C184.992 424.79 184.726 424.16 184.194 423.726C183.662 423.278 182.885 423.054 181.863 423.054H179.091V428.178H181.863C182.885 428.178 183.662 427.954 184.194 427.506C184.726 427.058 184.992 426.428 184.992 425.616ZM197.983 429.774V434.982H194.581V429.732L188.89 420.282H192.502L196.429 426.813L200.356 420.282H203.695L197.983 429.774Z" fill="white"/>
</g>
<g opacity="0.75">
<rect x="38" y="169.974" width="210" height="44.5384" rx="1" fill="#002D62"/>
<path d="M116.151 200.469L116.13 191.649L111.804 198.915H110.271L105.966 191.838V200.469H102.774V185.769H105.588L111.09 194.904L116.508 185.769H119.301L119.343 200.469H116.151ZM132.511 197.319H125.686L124.384 200.469H120.898L127.45 185.769H130.81L137.383 200.469H133.813L132.511 197.319ZM131.44 194.736L129.109 189.108L126.778 194.736H131.44ZM148.275 200.469L145.44 196.374H145.272H142.311V200.469H138.909V185.769H145.272C146.574 185.769 147.701 185.986 148.653 186.42C149.619 186.854 150.361 187.47 150.879 188.268C151.397 189.066 151.656 190.011 151.656 191.103C151.656 192.195 151.39 193.14 150.858 193.938C150.34 194.722 149.598 195.324 148.632 195.744L151.929 200.469H148.275ZM148.212 191.103C148.212 190.277 147.946 189.647 147.414 189.213C146.882 188.765 146.105 188.541 145.083 188.541H142.311V193.665H145.083C146.105 193.665 146.882 193.441 147.414 192.993C147.946 192.545 148.212 191.915 148.212 191.103ZM161.386 200.721C159.888 200.721 158.53 200.399 157.312 199.755C156.108 199.097 155.156 198.194 154.456 197.046C153.77 195.884 153.427 194.575 153.427 193.119C153.427 191.663 153.77 190.361 154.456 189.213C155.156 188.051 156.108 187.148 157.312 186.504C158.53 185.846 159.895 185.517 161.407 185.517C162.681 185.517 163.829 185.741 164.851 186.189C165.887 186.637 166.755 187.281 167.455 188.121L165.271 190.137C164.277 188.989 163.045 188.415 161.575 188.415C160.665 188.415 159.853 188.618 159.139 189.024C158.425 189.416 157.865 189.969 157.459 190.683C157.067 191.397 156.871 192.209 156.871 193.119C156.871 194.029 157.067 194.841 157.459 195.555C157.865 196.269 158.425 196.829 159.139 197.235C159.853 197.627 160.665 197.823 161.575 197.823C163.045 197.823 164.277 197.242 165.271 196.08L167.455 198.096C166.755 198.95 165.887 199.601 164.851 200.049C163.815 200.497 162.66 200.721 161.386 200.721ZM183.234 185.769V200.469H179.832V194.442H173.154V200.469H169.752V185.769H173.154V191.565H179.832V185.769H183.234Z" fill="white"/>
</g>
<g opacity="0.75">
<rect x="38" y="453.974" width="210" height="44.5384" rx="1" fill="#002D62"/>
<path d="M116.151 484.469L116.13 475.649L111.804 482.915H110.271L105.966 475.838V484.469H102.774V469.769H105.588L111.09 478.904L116.508 469.769H119.301L119.343 484.469H116.151ZM132.511 481.319H125.686L124.384 484.469H120.898L127.45 469.769H130.81L137.383 484.469H133.813L132.511 481.319ZM131.44 478.736L129.109 473.108L126.778 478.736H131.44ZM148.275 484.469L145.44 480.374H145.272H142.311V484.469H138.909V469.769H145.272C146.574 469.769 147.701 469.986 148.653 470.42C149.619 470.854 150.361 471.47 150.879 472.268C151.397 473.066 151.656 474.011 151.656 475.103C151.656 476.195 151.39 477.14 150.858 477.938C150.34 478.722 149.598 479.324 148.632 479.744L151.929 484.469H148.275ZM148.212 475.103C148.212 474.277 147.946 473.647 147.414 473.213C146.882 472.765 146.105 472.541 145.083 472.541H142.311V477.665H145.083C146.105 477.665 146.882 477.441 147.414 476.993C147.946 476.545 148.212 475.915 148.212 475.103ZM161.386 484.721C159.888 484.721 158.53 484.399 157.312 483.755C156.108 483.097 155.156 482.194 154.456 481.046C153.77 479.884 153.427 478.575 153.427 477.119C153.427 475.663 153.77 474.361 154.456 473.213C155.156 472.051 156.108 471.148 157.312 470.504C158.53 469.846 159.895 469.517 161.407 469.517C162.681 469.517 163.829 469.741 164.851 470.189C165.887 470.637 166.755 471.281 167.455 472.121L165.271 474.137C164.277 472.989 163.045 472.415 161.575 472.415C160.665 472.415 159.853 472.618 159.139 473.024C158.425 473.416 157.865 473.969 157.459 474.683C157.067 475.397 156.871 476.209 156.871 477.119C156.871 478.029 157.067 478.841 157.459 479.555C157.865 480.269 158.425 480.829 159.139 481.235C159.853 481.627 160.665 481.823 161.575 481.823C163.045 481.823 164.277 481.242 165.271 480.08L167.455 482.096C166.755 482.95 165.887 483.601 164.851 484.049C163.815 484.497 162.66 484.721 161.386 484.721ZM183.234 469.769V484.469H179.832V478.442H173.154V484.469H169.752V469.769H173.154V475.565H179.832V469.769H183.234Z" fill="white"/>
</g>
<g opacity="0.75">
<rect x="38" y="219.462" width="210" height="44.5384" rx="1" fill="#002D62"/>
<path d="M121.294 246.806H114.469L113.167 249.956H109.681L116.233 235.256H119.593L126.166 249.956H122.596L121.294 246.806ZM120.223 244.223L117.892 238.595L115.561 244.223H120.223ZM134.054 235.256C135.356 235.256 136.483 235.473 137.435 235.907C138.401 236.341 139.143 236.957 139.661 237.755C140.179 238.553 140.438 239.498 140.438 240.59C140.438 241.668 140.179 242.613 139.661 243.425C139.143 244.223 138.401 244.839 137.435 245.273C136.483 245.693 135.356 245.903 134.054 245.903H131.093V249.956H127.691V235.256H134.054ZM133.865 243.131C134.887 243.131 135.664 242.914 136.196 242.48C136.728 242.032 136.994 241.402 136.994 240.59C136.994 239.764 136.728 239.134 136.196 238.7C135.664 238.252 134.887 238.028 133.865 238.028H131.093V243.131H133.865ZM152.233 249.956L149.398 245.861H149.23H146.269V249.956H142.867V235.256H149.23C150.532 235.256 151.659 235.473 152.611 235.907C153.577 236.341 154.319 236.957 154.837 237.755C155.355 238.553 155.614 239.498 155.614 240.59C155.614 241.682 155.348 242.627 154.816 243.425C154.298 244.209 153.556 244.811 152.59 245.231L155.887 249.956H152.233ZM152.17 240.59C152.17 239.764 151.904 239.134 151.372 238.7C150.84 238.252 150.063 238.028 149.041 238.028H146.269V243.152H149.041C150.063 243.152 150.84 242.928 151.372 242.48C151.904 242.032 152.17 241.402 152.17 240.59ZM158.309 235.256H161.711V249.956H158.309V235.256ZM165.2 235.256H168.602V247.184H175.973V249.956H165.2V235.256Z" fill="white"/>
</g>
<g opacity="0.75">
<rect x="38" y="503.462" width="210" height="44.5384" rx="1" fill="#002D62"/>
<path d="M121.294 530.806H114.469L113.167 533.956H109.681L116.233 519.256H119.593L126.166 533.956H122.596L121.294 530.806ZM120.223 528.223L117.892 522.595L115.561 528.223H120.223ZM134.054 519.256C135.356 519.256 136.483 519.473 137.435 519.907C138.401 520.341 139.143 520.957 139.661 521.755C140.179 522.553 140.438 523.498 140.438 524.59C140.438 525.668 140.179 526.613 139.661 527.425C139.143 528.223 138.401 528.839 137.435 529.273C136.483 529.693 135.356 529.903 134.054 529.903H131.093V533.956H127.691V519.256H134.054ZM133.865 527.131C134.887 527.131 135.664 526.914 136.196 526.48C136.728 526.032 136.994 525.402 136.994 524.59C136.994 523.764 136.728 523.134 136.196 522.7C135.664 522.252 134.887 522.028 133.865 522.028H131.093V527.131H133.865ZM152.233 533.956L149.398 529.861H149.23H146.269V533.956H142.867V519.256H149.23C150.532 519.256 151.659 519.473 152.611 519.907C153.577 520.341 154.319 520.957 154.837 521.755C155.355 522.553 155.614 523.498 155.614 524.59C155.614 525.682 155.348 526.627 154.816 527.425C154.298 528.209 153.556 528.811 152.59 529.231L155.887 533.956H152.233ZM152.17 524.59C152.17 523.764 151.904 523.134 151.372 522.7C150.84 522.252 150.063 522.028 149.041 522.028H146.269V527.152H149.041C150.063 527.152 150.84 526.928 151.372 526.48C151.904 526.032 152.17 525.402 152.17 524.59ZM158.309 519.256H161.711V533.956H158.309V519.256ZM165.2 519.256H168.602V531.184H175.973V533.956H165.2V519.256Z" fill="white"/>
</g>
<g opacity="0.75">
<rect x="572" y="71.9897" width="210" height="44.5384" rx="1" fill="#1B58A0"/>
<path d="M616.092 102.242C614.93 102.242 613.803 102.088 612.711 101.78C611.633 101.458 610.765 101.045 610.107 100.541L611.262 97.9787C611.892 98.4407 612.641 98.8117 613.509 99.0917C614.377 99.3717 615.245 99.5117 616.113 99.5117C617.079 99.5117 617.793 99.3717 618.255 99.0917C618.717 98.7977 618.948 98.4127 618.948 97.9367C618.948 97.5867 618.808 97.2997 618.528 97.0757C618.262 96.8377 617.912 96.6487 617.478 96.5087C617.058 96.3687 616.484 96.2147 615.756 96.0467C614.636 95.7807 613.719 95.5147 613.005 95.2487C612.291 94.9827 611.675 94.5557 611.157 93.9677C610.653 93.3797 610.401 92.5957 610.401 91.6157C610.401 90.7617 610.632 89.9917 611.094 89.3057C611.556 88.6057 612.249 88.0527 613.173 87.6467C614.111 87.2407 615.252 87.0377 616.596 87.0377C617.534 87.0377 618.451 87.1497 619.347 87.3737C620.243 87.5977 621.027 87.9197 621.699 88.3397L620.649 90.9227C619.291 90.1527 617.933 89.7677 616.575 89.7677C615.623 89.7677 614.916 89.9217 614.454 90.2297C614.006 90.5377 613.782 90.9437 613.782 91.4477C613.782 91.9517 614.041 92.3297 614.559 92.5817C615.091 92.8197 615.896 93.0577 616.974 93.2957C618.094 93.5617 619.011 93.8277 619.725 94.0937C620.439 94.3597 621.048 94.7797 621.552 95.3537C622.07 95.9277 622.329 96.7047 622.329 97.6847C622.329 98.5247 622.091 99.2947 621.615 99.9947C621.153 100.681 620.453 101.227 619.515 101.633C618.577 102.039 617.436 102.242 616.092 102.242ZM636.036 99.2597V101.99H624.654V87.2897H635.763V90.0197H628.035V93.2117H634.86V95.8577H628.035V99.2597H636.036ZM645.106 87.2897C646.408 87.2897 647.535 87.5067 648.487 87.9407C649.453 88.3747 650.195 88.9907 650.713 89.7887C651.231 90.5867 651.49 91.5317 651.49 92.6237C651.49 93.7017 651.231 94.6467 650.713 95.4587C650.195 96.2567 649.453 96.8727 648.487 97.3067C647.535 97.7267 646.408 97.9367 645.106 97.9367H642.145V101.99H638.743V87.2897H645.106ZM644.917 95.1647C645.939 95.1647 646.716 94.9477 647.248 94.5137C647.78 94.0657 648.046 93.4357 648.046 92.6237C648.046 91.7977 647.78 91.1677 647.248 90.7337C646.716 90.2857 645.939 90.0617 644.917 90.0617H642.145V95.1647H644.917ZM656.553 90.0617H651.849V87.2897H664.659V90.0617H659.955V101.99H656.553V90.0617ZM677.872 99.2597V101.99H666.49V87.2897H677.599V90.0197H669.871V93.2117H676.696V95.8577H669.871V99.2597H677.872ZM693.955 101.99L693.934 93.1697L689.608 100.436H688.075L683.77 93.3587V101.99H680.578V87.2897H683.392L688.894 96.4247L694.312 87.2897H697.105L697.147 101.99H693.955ZM711.429 94.3457C712.269 94.6117 712.927 95.0597 713.403 95.6897C713.879 96.3057 714.117 97.0687 714.117 97.9787C714.117 99.2667 713.613 100.261 712.605 100.961C711.611 101.647 710.155 101.99 708.237 101.99H700.635V87.2897H707.817C709.609 87.2897 710.981 87.6327 711.933 88.3187C712.899 89.0047 713.382 89.9357 713.382 91.1117C713.382 91.8257 713.207 92.4627 712.857 93.0227C712.521 93.5827 712.045 94.0237 711.429 94.3457ZM704.016 89.8517V93.3167H707.397C708.237 93.3167 708.874 93.1697 709.308 92.8757C709.742 92.5817 709.959 92.1477 709.959 91.5737C709.959 90.9997 709.742 90.5727 709.308 90.2927C708.874 89.9987 708.237 89.8517 707.397 89.8517H704.016ZM707.985 99.4277C708.881 99.4277 709.553 99.2807 710.001 98.9867C710.463 98.6927 710.694 98.2377 710.694 97.6217C710.694 96.4037 709.791 95.7947 707.985 95.7947H704.016V99.4277H707.985ZM728.075 99.2597V101.99H716.693V87.2897H727.802V90.0197H720.074V93.2117H726.899V95.8577H720.074V99.2597H728.075ZM740.148 101.99L737.313 97.8947H737.145H734.184V101.99H730.782V87.2897H737.145C738.447 87.2897 739.574 87.5067 740.526 87.9407C741.492 88.3747 742.234 88.9907 742.752 89.7887C743.27 90.5867 743.529 91.5317 743.529 92.6237C743.529 93.7157 743.263 94.6607 742.731 95.4587C742.213 96.2427 741.471 96.8447 740.505 97.2647L743.802 101.99H740.148ZM740.085 92.6237C740.085 91.7977 739.819 91.1677 739.287 90.7337C738.755 90.2857 737.978 90.0617 736.956 90.0617H734.184V95.1857H736.956C737.978 95.1857 738.755 94.9617 739.287 94.5137C739.819 94.0657 740.085 93.4357 740.085 92.6237Z" fill="white"/>
</g>
<g opacity="0.75">
<rect x="572" y="355.99" width="210" height="44.5384" rx="1" fill="#1B58A0"/>
<path d="M616.092 386.242C614.93 386.242 613.803 386.088 612.711 385.78C611.633 385.458 610.765 385.045 610.107 384.541L611.262 381.979C611.892 382.441 612.641 382.812 613.509 383.092C614.377 383.372 615.245 383.512 616.113 383.512C617.079 383.512 617.793 383.372 618.255 383.092C618.717 382.798 618.948 382.413 618.948 381.937C618.948 381.587 618.808 381.3 618.528 381.076C618.262 380.838 617.912 380.649 617.478 380.509C617.058 380.369 616.484 380.215 615.756 380.047C614.636 379.781 613.719 379.515 613.005 379.249C612.291 378.983 611.675 378.556 611.157 377.968C610.653 377.38 610.401 376.596 610.401 375.616C610.401 374.762 610.632 373.992 611.094 373.306C611.556 372.606 612.249 372.053 613.173 371.647C614.111 371.241 615.252 371.038 616.596 371.038C617.534 371.038 618.451 371.15 619.347 371.374C620.243 371.598 621.027 371.92 621.699 372.34L620.649 374.923C619.291 374.153 617.933 373.768 616.575 373.768C615.623 373.768 614.916 373.922 614.454 374.23C614.006 374.538 613.782 374.944 613.782 375.448C613.782 375.952 614.041 376.33 614.559 376.582C615.091 376.82 615.896 377.058 616.974 377.296C618.094 377.562 619.011 377.828 619.725 378.094C620.439 378.36 621.048 378.78 621.552 379.354C622.07 379.928 622.329 380.705 622.329 381.685C622.329 382.525 622.091 383.295 621.615 383.995C621.153 384.681 620.453 385.227 619.515 385.633C618.577 386.039 617.436 386.242 616.092 386.242ZM636.036 383.26V385.99H624.654V371.29H635.763V374.02H628.035V377.212H634.86V379.858H628.035V383.26H636.036ZM645.106 371.29C646.408 371.29 647.535 371.507 648.487 371.941C649.453 372.375 650.195 372.991 650.713 373.789C651.231 374.587 651.49 375.532 651.49 376.624C651.49 377.702 651.231 378.647 650.713 379.459C650.195 380.257 649.453 380.873 648.487 381.307C647.535 381.727 646.408 381.937 645.106 381.937H642.145V385.99H638.743V371.29H645.106ZM644.917 379.165C645.939 379.165 646.716 378.948 647.248 378.514C647.78 378.066 648.046 377.436 648.046 376.624C648.046 375.798 647.78 375.168 647.248 374.734C646.716 374.286 645.939 374.062 644.917 374.062H642.145V379.165H644.917ZM656.553 374.062H651.849V371.29H664.659V374.062H659.955V385.99H656.553V374.062ZM677.872 383.26V385.99H666.49V371.29H677.599V374.02H669.871V377.212H676.696V379.858H669.871V383.26H677.872ZM693.955 385.99L693.934 377.17L689.608 384.436H688.075L683.77 377.359V385.99H680.578V371.29H683.392L688.894 380.425L694.312 371.29H697.105L697.147 385.99H693.955ZM711.429 378.346C712.269 378.612 712.927 379.06 713.403 379.69C713.879 380.306 714.117 381.069 714.117 381.979C714.117 383.267 713.613 384.261 712.605 384.961C711.611 385.647 710.155 385.99 708.237 385.99H700.635V371.29H707.817C709.609 371.29 710.981 371.633 711.933 372.319C712.899 373.005 713.382 373.936 713.382 375.112C713.382 375.826 713.207 376.463 712.857 377.023C712.521 377.583 712.045 378.024 711.429 378.346ZM704.016 373.852V377.317H707.397C708.237 377.317 708.874 377.17 709.308 376.876C709.742 376.582 709.959 376.148 709.959 375.574C709.959 375 709.742 374.573 709.308 374.293C708.874 373.999 708.237 373.852 707.397 373.852H704.016ZM707.985 383.428C708.881 383.428 709.553 383.281 710.001 382.987C710.463 382.693 710.694 382.238 710.694 381.622C710.694 380.404 709.791 379.795 707.985 379.795H704.016V383.428H707.985ZM728.075 383.26V385.99H716.693V371.29H727.802V374.02H720.074V377.212H726.899V379.858H720.074V383.26H728.075ZM740.148 385.99L737.313 381.895H737.145H734.184V385.99H730.782V371.29H737.145C738.447 371.29 739.574 371.507 740.526 371.941C741.492 372.375 742.234 372.991 742.752 373.789C743.27 374.587 743.529 375.532 743.529 376.624C743.529 377.716 743.263 378.661 742.731 379.459C742.213 380.243 741.471 380.845 740.505 381.265L743.802 385.99H740.148ZM740.085 376.624C740.085 375.798 739.819 375.168 739.287 374.734C738.755 374.286 737.978 374.062 736.956 374.062H734.184V379.186H736.956C737.978 379.186 738.755 378.962 739.287 378.514C739.819 378.066 740.085 377.436 740.085 376.624Z" fill="white"/>
</g>
<g opacity="0.75">
<rect x="572" y="121.477" width="210" height="44.5384" rx="1" fill="#1B58A0"/>
<path d="M631.332 151.729C629.806 151.729 628.427 151.4 627.195 150.742C625.977 150.084 625.018 149.181 624.318 148.033C623.632 146.871 623.289 145.569 623.289 144.127C623.289 142.685 623.632 141.39 624.318 140.242C625.018 139.08 625.977 138.17 627.195 137.512C628.427 136.854 629.806 136.525 631.332 136.525C632.858 136.525 634.23 136.854 635.448 137.512C636.666 138.17 637.625 139.08 638.325 140.242C639.025 141.39 639.375 142.685 639.375 144.127C639.375 145.569 639.025 146.871 638.325 148.033C637.625 149.181 636.666 150.084 635.448 150.742C634.23 151.4 632.858 151.729 631.332 151.729ZM631.332 148.831C632.2 148.831 632.984 148.635 633.684 148.243C634.384 147.837 634.93 147.277 635.322 146.563C635.728 145.849 635.931 145.037 635.931 144.127C635.931 143.217 635.728 142.405 635.322 141.691C634.93 140.977 634.384 140.424 633.684 140.032C632.984 139.626 632.2 139.423 631.332 139.423C630.464 139.423 629.68 139.626 628.98 140.032C628.28 140.424 627.727 140.977 627.321 141.691C626.929 142.405 626.733 143.217 626.733 144.127C626.733 145.037 626.929 145.849 627.321 146.563C627.727 147.277 628.28 147.837 628.98 148.243C629.68 148.635 630.464 148.831 631.332 148.831ZM648.966 151.729C647.468 151.729 646.11 151.407 644.892 150.763C643.688 150.105 642.736 149.202 642.036 148.054C641.35 146.892 641.007 145.583 641.007 144.127C641.007 142.671 641.35 141.369 642.036 140.221C642.736 139.059 643.688 138.156 644.892 137.512C646.11 136.854 647.475 136.525 648.987 136.525C650.261 136.525 651.409 136.749 652.431 137.197C653.467 137.645 654.335 138.289 655.035 139.129L652.851 141.145C651.857 139.997 650.625 139.423 649.155 139.423C648.245 139.423 647.433 139.626 646.719 140.032C646.005 140.424 645.445 140.977 645.039 141.691C644.647 142.405 644.451 143.217 644.451 144.127C644.451 145.037 644.647 145.849 645.039 146.563C645.445 147.277 646.005 147.837 646.719 148.243C647.433 148.635 648.245 148.831 649.155 148.831C650.625 148.831 651.857 148.25 652.851 147.088L655.035 149.104C654.335 149.958 653.467 150.609 652.431 151.057C651.395 151.505 650.24 151.729 648.966 151.729ZM660.234 139.549H655.53V136.777H668.34V139.549H663.636V151.477H660.234V139.549ZM677.085 151.729C675.559 151.729 674.18 151.4 672.948 150.742C671.73 150.084 670.771 149.181 670.071 148.033C669.385 146.871 669.042 145.569 669.042 144.127C669.042 142.685 669.385 141.39 670.071 140.242C670.771 139.08 671.73 138.17 672.948 137.512C674.18 136.854 675.559 136.525 677.085 136.525C678.611 136.525 679.983 136.854 681.201 137.512C682.419 138.17 683.378 139.08 684.078 140.242C684.778 141.39 685.128 142.685 685.128 144.127C685.128 145.569 684.778 146.871 684.078 148.033C683.378 149.181 682.419 150.084 681.201 150.742C679.983 151.4 678.611 151.729 677.085 151.729ZM677.085 148.831C677.953 148.831 678.737 148.635 679.437 148.243C680.137 147.837 680.683 147.277 681.075 146.563C681.481 145.849 681.684 145.037 681.684 144.127C681.684 143.217 681.481 142.405 681.075 141.691C680.683 140.977 680.137 140.424 679.437 140.032C678.737 139.626 677.953 139.423 677.085 139.423C676.217 139.423 675.433 139.626 674.733 140.032C674.033 140.424 673.48 140.977 673.074 141.691C672.682 142.405 672.486 143.217 672.486 144.127C672.486 145.037 672.682 145.849 673.074 146.563C673.48 147.277 674.033 147.837 674.733 148.243C675.433 148.635 676.217 148.831 677.085 148.831ZM698.478 143.833C699.318 144.099 699.976 144.547 700.452 145.177C700.928 145.793 701.166 146.556 701.166 147.466C701.166 148.754 700.662 149.748 699.654 150.448C698.66 151.134 697.204 151.477 695.286 151.477H687.684V136.777H694.866C696.658 136.777 698.03 137.12 698.982 137.806C699.948 138.492 700.431 139.423 700.431 140.599C700.431 141.313 700.256 141.95 699.906 142.51C699.57 143.07 699.094 143.511 698.478 143.833ZM691.065 139.339V142.804H694.446C695.286 142.804 695.923 142.657 696.357 142.363C696.791 142.069 697.008 141.635 697.008 141.061C697.008 140.487 696.791 140.06 696.357 139.78C695.923 139.486 695.286 139.339 694.446 139.339H691.065ZM695.034 148.915C695.93 148.915 696.602 148.768 697.05 148.474C697.512 148.18 697.743 147.725 697.743 147.109C697.743 145.891 696.84 145.282 695.034 145.282H691.065V148.915H695.034ZM715.124 148.747V151.477H703.742V136.777H714.851V139.507H707.123V142.699H713.948V145.345H707.123V148.747H715.124ZM727.197 151.477L724.362 147.382H724.194H721.233V151.477H717.831V136.777H724.194C725.496 136.777 726.623 136.994 727.575 137.428C728.541 137.862 729.283 138.478 729.801 139.276C730.319 140.074 730.578 141.019 730.578 142.111C730.578 143.203 730.312 144.148 729.78 144.946C729.262 145.73 728.52 146.332 727.554 146.752L730.851 151.477H727.197ZM727.134 142.111C727.134 141.285 726.868 140.655 726.336 140.221C725.804 139.773 725.027 139.549 724.005 139.549H721.233V144.673H724.005C725.027 144.673 725.804 144.449 726.336 144.001C726.868 143.553 727.134 142.923 727.134 142.111Z" fill="white"/>
</g>
<g opacity="0.75">
<rect x="572" y="405.477" width="210" height="44.5384" rx="1" fill="#1B58A0"/>
<path d="M631.332 435.729C629.806 435.729 628.427 435.4 627.195 434.742C625.977 434.084 625.018 433.181 624.318 432.033C623.632 430.871 623.289 429.569 623.289 428.127C623.289 426.685 623.632 425.39 624.318 424.242C625.018 423.08 625.977 422.17 627.195 421.512C628.427 420.854 629.806 420.525 631.332 420.525C632.858 420.525 634.23 420.854 635.448 421.512C636.666 422.17 637.625 423.08 638.325 424.242C639.025 425.39 639.375 426.685 639.375 428.127C639.375 429.569 639.025 430.871 638.325 432.033C637.625 433.181 636.666 434.084 635.448 434.742C634.23 435.4 632.858 435.729 631.332 435.729ZM631.332 432.831C632.2 432.831 632.984 432.635 633.684 432.243C634.384 431.837 634.93 431.277 635.322 430.563C635.728 429.849 635.931 429.037 635.931 428.127C635.931 427.217 635.728 426.405 635.322 425.691C634.93 424.977 634.384 424.424 633.684 424.032C632.984 423.626 632.2 423.423 631.332 423.423C630.464 423.423 629.68 423.626 628.98 424.032C628.28 424.424 627.727 424.977 627.321 425.691C626.929 426.405 626.733 427.217 626.733 428.127C626.733 429.037 626.929 429.849 627.321 430.563C627.727 431.277 628.28 431.837 628.98 432.243C629.68 432.635 630.464 432.831 631.332 432.831ZM648.966 435.729C647.468 435.729 646.11 435.407 644.892 434.763C643.688 434.105 642.736 433.202 642.036 432.054C641.35 430.892 641.007 429.583 641.007 428.127C641.007 426.671 641.35 425.369 642.036 424.221C642.736 423.059 643.688 422.156 644.892 421.512C646.11 420.854 647.475 420.525 648.987 420.525C650.261 420.525 651.409 420.749 652.431 421.197C653.467 421.645 654.335 422.289 655.035 423.129L652.851 425.145C651.857 423.997 650.625 423.423 649.155 423.423C648.245 423.423 647.433 423.626 646.719 424.032C646.005 424.424 645.445 424.977 645.039 425.691C644.647 426.405 644.451 427.217 644.451 428.127C644.451 429.037 644.647 429.849 645.039 430.563C645.445 431.277 646.005 431.837 646.719 432.243C647.433 432.635 648.245 432.831 649.155 432.831C650.625 432.831 651.857 432.25 652.851 431.088L655.035 433.104C654.335 433.958 653.467 434.609 652.431 435.057C651.395 435.505 650.24 435.729 648.966 435.729ZM660.234 423.549H655.53V420.777H668.34V423.549H663.636V435.477H660.234V423.549ZM677.085 435.729C675.559 435.729 674.18 435.4 672.948 434.742C671.73 434.084 670.771 433.181 670.071 432.033C669.385 430.871 669.042 429.569 669.042 428.127C669.042 426.685 669.385 425.39 670.071 424.242C670.771 423.08 671.73 422.17 672.948 421.512C674.18 420.854 675.559 420.525 677.085 420.525C678.611 420.525 679.983 420.854 681.201 421.512C682.419 422.17 683.378 423.08 684.078 424.242C684.778 425.39 685.128 426.685 685.128 428.127C685.128 429.569 684.778 430.871 684.078 432.033C683.378 433.181 682.419 434.084 681.201 434.742C679.983 435.4 678.611 435.729 677.085 435.729ZM677.085 432.831C677.953 432.831 678.737 432.635 679.437 432.243C680.137 431.837 680.683 431.277 681.075 430.563C681.481 429.849 681.684 429.037 681.684 428.127C681.684 427.217 681.481 426.405 681.075 425.691C680.683 424.977 680.137 424.424 679.437 424.032C678.737 423.626 677.953 423.423 677.085 423.423C676.217 423.423 675.433 423.626 674.733 424.032C674.033 424.424 673.48 424.977 673.074 425.691C672.682 426.405 672.486 427.217 672.486 428.127C672.486 429.037 672.682 429.849 673.074 430.563C673.48 431.277 674.033 431.837 674.733 432.243C675.433 432.635 676.217 432.831 677.085 432.831ZM698.478 427.833C699.318 428.099 699.976 428.547 700.452 429.177C700.928 429.793 701.166 430.556 701.166 431.466C701.166 432.754 700.662 433.748 699.654 434.448C698.66 435.134 697.204 435.477 695.286 435.477H687.684V420.777H694.866C696.658 420.777 698.03 421.12 698.982 421.806C699.948 422.492 700.431 423.423 700.431 424.599C700.431 425.313 700.256 425.95 699.906 426.51C699.57 427.07 699.094 427.511 698.478 427.833ZM691.065 423.339V426.804H694.446C695.286 426.804 695.923 426.657 696.357 426.363C696.791 426.069 697.008 425.635 697.008 425.061C697.008 424.487 696.791 424.06 696.357 423.78C695.923 423.486 695.286 423.339 694.446 423.339H691.065ZM695.034 432.915C695.93 432.915 696.602 432.768 697.05 432.474C697.512 432.18 697.743 431.725 697.743 431.109C697.743 429.891 696.84 429.282 695.034 429.282H691.065V432.915H695.034ZM715.124 432.747V435.477H703.742V420.777H714.851V423.507H707.123V426.699H713.948V429.345H707.123V432.747H715.124ZM727.197 435.477L724.362 431.382H724.194H721.233V435.477H717.831V420.777H724.194C725.496 420.777 726.623 420.994 727.575 421.428C728.541 421.862 729.283 422.478 729.801 423.276C730.319 424.074 730.578 425.019 730.578 426.111C730.578 427.203 730.312 428.148 729.78 428.946C729.262 429.73 728.52 430.332 727.554 430.752L730.851 435.477H727.197ZM727.134 426.111C727.134 425.285 726.868 424.655 726.336 424.221C725.804 423.773 725.027 423.549 724.005 423.549H721.233V428.673H724.005C725.027 428.673 725.804 428.449 726.336 428.001C726.868 427.553 727.134 426.923 727.134 426.111Z" fill="white"/>
</g>
<g opacity="0.75">
<rect x="572" y="170.469" width="210" height="44.5384" rx="1" fill="#1B58A0"/>
<path d="M627.584 185.769V200.469H624.791L617.462 191.544V200.469H614.102V185.769H616.916L624.224 194.694V185.769H627.584ZM638.181 200.721C636.655 200.721 635.276 200.392 634.044 199.734C632.826 199.076 631.867 198.173 631.167 197.025C630.481 195.863 630.138 194.561 630.138 193.119C630.138 191.677 630.481 190.382 631.167 189.234C631.867 188.072 632.826 187.162 634.044 186.504C635.276 185.846 636.655 185.517 638.181 185.517C639.707 185.517 641.079 185.846 642.297 186.504C643.515 187.162 644.474 188.072 645.174 189.234C645.874 190.382 646.224 191.677 646.224 193.119C646.224 194.561 645.874 195.863 645.174 197.025C644.474 198.173 643.515 199.076 642.297 199.734C641.079 200.392 639.707 200.721 638.181 200.721ZM638.181 197.823C639.049 197.823 639.833 197.627 640.533 197.235C641.233 196.829 641.779 196.269 642.171 195.555C642.577 194.841 642.78 194.029 642.78 193.119C642.78 192.209 642.577 191.397 642.171 190.683C641.779 189.969 641.233 189.416 640.533 189.024C639.833 188.618 639.049 188.415 638.181 188.415C637.313 188.415 636.529 188.618 635.829 189.024C635.129 189.416 634.576 189.969 634.17 190.683C633.778 191.397 633.582 192.209 633.582 193.119C633.582 194.029 633.778 194.841 634.17 195.555C634.576 196.269 635.129 196.829 635.829 197.235C636.529 197.627 637.313 197.823 638.181 197.823ZM662.422 185.769L656.059 200.469H652.699L646.357 185.769H650.032L654.505 196.269L659.041 185.769H662.422ZM675.031 197.739V200.469H663.649V185.769H674.758V188.499H667.03V191.691H673.855V194.337H667.03V197.739H675.031ZM691.115 200.469L691.094 191.649L686.768 198.915H685.235L680.93 191.838V200.469H677.738V185.769H680.552L686.054 194.904L691.472 185.769H694.265L694.307 200.469H691.115ZM708.589 192.825C709.429 193.091 710.087 193.539 710.563 194.169C711.039 194.785 711.277 195.548 711.277 196.458C711.277 197.746 710.773 198.74 709.765 199.44C708.771 200.126 707.315 200.469 705.397 200.469H697.795V185.769H704.977C706.769 185.769 708.141 186.112 709.093 186.798C710.059 187.484 710.542 188.415 710.542 189.591C710.542 190.305 710.367 190.942 710.017 191.502C709.681 192.062 709.205 192.503 708.589 192.825ZM701.176 188.331V191.796H704.557C705.397 191.796 706.034 191.649 706.468 191.355C706.902 191.061 707.119 190.627 707.119 190.053C707.119 189.479 706.902 189.052 706.468 188.772C706.034 188.478 705.397 188.331 704.557 188.331H701.176ZM705.145 197.907C706.041 197.907 706.713 197.76 707.161 197.466C707.623 197.172 707.854 196.717 707.854 196.101C707.854 194.883 706.951 194.274 705.145 194.274H701.176V197.907H705.145ZM725.234 197.739V200.469H713.852V185.769H724.961V188.499H717.233V191.691H724.058V194.337H717.233V197.739H725.234ZM737.307 200.469L734.472 196.374H734.304H731.343V200.469H727.941V185.769H734.304C735.606 185.769 736.733 185.986 737.685 186.42C738.651 186.854 739.393 187.47 739.911 188.268C740.429 189.066 740.688 190.011 740.688 191.103C740.688 192.195 740.422 193.14 739.89 193.938C739.372 194.722 738.63 195.324 737.664 195.744L740.961 200.469H737.307ZM737.244 191.103C737.244 190.277 736.978 189.647 736.446 189.213C735.914 188.765 735.137 188.541 734.115 188.541H731.343V193.665H734.115C735.137 193.665 735.914 193.441 736.446 192.993C736.978 192.545 737.244 191.915 737.244 191.103Z" fill="white"/>
</g>
<g opacity="0.75">
<rect x="572" y="454.469" width="210" height="44.5384" rx="1" fill="#1B58A0"/>
<path d="M627.584 469.769V484.469H624.791L617.462 475.544V484.469H614.102V469.769H616.916L624.224 478.694V469.769H627.584ZM638.181 484.721C636.655 484.721 635.276 484.392 634.044 483.734C632.826 483.076 631.867 482.173 631.167 481.025C630.481 479.863 630.138 478.561 630.138 477.119C630.138 475.677 630.481 474.382 631.167 473.234C631.867 472.072 632.826 471.162 634.044 470.504C635.276 469.846 636.655 469.517 638.181 469.517C639.707 469.517 641.079 469.846 642.297 470.504C643.515 471.162 644.474 472.072 645.174 473.234C645.874 474.382 646.224 475.677 646.224 477.119C646.224 478.561 645.874 479.863 645.174 481.025C644.474 482.173 643.515 483.076 642.297 483.734C641.079 484.392 639.707 484.721 638.181 484.721ZM638.181 481.823C639.049 481.823 639.833 481.627 640.533 481.235C641.233 480.829 641.779 480.269 642.171 479.555C642.577 478.841 642.78 478.029 642.78 477.119C642.78 476.209 642.577 475.397 642.171 474.683C641.779 473.969 641.233 473.416 640.533 473.024C639.833 472.618 639.049 472.415 638.181 472.415C637.313 472.415 636.529 472.618 635.829 473.024C635.129 473.416 634.576 473.969 634.17 474.683C633.778 475.397 633.582 476.209 633.582 477.119C633.582 478.029 633.778 478.841 634.17 479.555C634.576 480.269 635.129 480.829 635.829 481.235C636.529 481.627 637.313 481.823 638.181 481.823ZM662.422 469.769L656.059 484.469H652.699L646.357 469.769H650.032L654.505 480.269L659.041 469.769H662.422ZM675.031 481.739V484.469H663.649V469.769H674.758V472.499H667.03V475.691H673.855V478.337H667.03V481.739H675.031ZM691.115 484.469L691.094 475.649L686.768 482.915H685.235L680.93 475.838V484.469H677.738V469.769H680.552L686.054 478.904L691.472 469.769H694.265L694.307 484.469H691.115ZM708.589 476.825C709.429 477.091 710.087 477.539 710.563 478.169C711.039 478.785 711.277 479.548 711.277 480.458C711.277 481.746 710.773 482.74 709.765 483.44C708.771 484.126 707.315 484.469 705.397 484.469H697.795V469.769H704.977C706.769 469.769 708.141 470.112 709.093 470.798C710.059 471.484 710.542 472.415 710.542 473.591C710.542 474.305 710.367 474.942 710.017 475.502C709.681 476.062 709.205 476.503 708.589 476.825ZM701.176 472.331V475.796H704.557C705.397 475.796 706.034 475.649 706.468 475.355C706.902 475.061 707.119 474.627 707.119 474.053C707.119 473.479 706.902 473.052 706.468 472.772C706.034 472.478 705.397 472.331 704.557 472.331H701.176ZM705.145 481.907C706.041 481.907 706.713 481.76 707.161 481.466C707.623 481.172 707.854 480.717 707.854 480.101C707.854 478.883 706.951 478.274 705.145 478.274H701.176V481.907H705.145ZM725.234 481.739V484.469H713.852V469.769H724.961V472.499H717.233V475.691H724.058V478.337H717.233V481.739H725.234ZM737.307 484.469L734.472 480.374H734.304H731.343V484.469H727.941V469.769H734.304C735.606 469.769 736.733 469.986 737.685 470.42C738.651 470.854 739.393 471.47 739.911 472.268C740.429 473.066 740.688 474.011 740.688 475.103C740.688 476.195 740.422 477.14 739.89 477.938C739.372 478.722 738.63 479.324 737.664 479.744L740.961 484.469H737.307ZM737.244 475.103C737.244 474.277 736.978 473.647 736.446 473.213C735.914 472.765 735.137 472.541 734.115 472.541H731.343V477.665H734.115C735.137 477.665 735.914 477.441 736.446 476.993C736.978 476.545 737.244 475.915 737.244 475.103Z" fill="white"/>
</g>
<g opacity="0.75">
<rect x="572" y="219.462" width="210" height="44.5384" rx="1" fill="#1B58A0"/>
<path d="M615.476 234.762H622.154C623.75 234.762 625.157 235.07 626.375 235.686C627.607 236.288 628.559 237.142 629.231 238.248C629.917 239.354 630.26 240.642 630.26 242.112C630.26 243.582 629.917 244.87 629.231 245.976C628.559 247.082 627.607 247.943 626.375 248.559C625.157 249.161 623.75 249.462 622.154 249.462H615.476V234.762ZM621.986 246.669C623.456 246.669 624.625 246.263 625.493 245.451C626.375 244.625 626.816 243.512 626.816 242.112C626.816 240.712 626.375 239.606 625.493 238.794C624.625 237.968 623.456 237.555 621.986 237.555H618.878V246.669H621.986ZM644.208 246.732V249.462H632.826V234.762H643.935V237.492H636.207V240.684H643.032V243.33H636.207V246.732H644.208ZM653.909 249.714C652.411 249.714 651.053 249.392 649.835 248.748C648.631 248.09 647.679 247.187 646.979 246.039C646.293 244.877 645.95 243.568 645.95 242.112C645.95 240.656 646.293 239.354 646.979 238.206C647.679 237.044 648.631 236.141 649.835 235.497C651.053 234.839 652.418 234.51 653.93 234.51C655.204 234.51 656.352 234.734 657.374 235.182C658.41 235.63 659.278 236.274 659.978 237.114L657.794 239.13C656.8 237.982 655.568 237.408 654.098 237.408C653.188 237.408 652.376 237.611 651.662 238.017C650.948 238.409 650.388 238.962 649.982 239.676C649.59 240.39 649.394 241.202 649.394 242.112C649.394 243.022 649.59 243.834 649.982 244.548C650.388 245.262 650.948 245.822 651.662 246.228C652.376 246.62 653.188 246.816 654.098 246.816C655.568 246.816 656.8 246.235 657.794 245.073L659.978 247.089C659.278 247.943 658.41 248.594 657.374 249.042C656.338 249.49 655.183 249.714 653.909 249.714ZM673.657 246.732V249.462H662.275V234.762H673.384V237.492H665.656V240.684H672.481V243.33H665.656V246.732H673.657ZM689.741 249.462L689.72 240.642L685.394 247.908H683.861L679.556 240.831V249.462H676.364V234.762H679.178L684.68 243.897L690.098 234.762H692.891L692.933 249.462H689.741ZM707.215 241.818C708.055 242.084 708.713 242.532 709.189 243.162C709.665 243.778 709.903 244.541 709.903 245.451C709.903 246.739 709.399 247.733 708.391 248.433C707.397 249.119 705.941 249.462 704.023 249.462H696.421V234.762H703.603C705.395 234.762 706.767 235.105 707.719 235.791C708.685 236.477 709.168 237.408 709.168 238.584C709.168 239.298 708.993 239.935 708.643 240.495C708.307 241.055 707.831 241.496 707.215 241.818ZM699.802 237.324V240.789H703.183C704.023 240.789 704.66 240.642 705.094 240.348C705.528 240.054 705.745 239.62 705.745 239.046C705.745 238.472 705.528 238.045 705.094 237.765C704.66 237.471 704.023 237.324 703.183 237.324H699.802ZM703.771 246.9C704.667 246.9 705.339 246.753 705.787 246.459C706.249 246.165 706.48 245.71 706.48 245.094C706.48 243.876 705.577 243.267 703.771 243.267H699.802V246.9H703.771ZM723.86 246.732V249.462H712.478V234.762H723.587V237.492H715.859V240.684H722.684V243.33H715.859V246.732H723.86ZM735.933 249.462L733.098 245.367H732.93H729.969V249.462H726.567V234.762H732.93C734.232 234.762 735.359 234.979 736.311 235.413C737.277 235.847 738.019 236.463 738.537 237.261C739.055 238.059 739.314 239.004 739.314 240.096C739.314 241.188 739.048 242.133 738.516 242.931C737.998 243.715 737.256 244.317 736.29 244.737L739.587 249.462H735.933ZM735.87 240.096C735.87 239.27 735.604 238.64 735.072 238.206C734.54 237.758 733.763 237.534 732.741 237.534H729.969V242.658H732.741C733.763 242.658 734.54 242.434 735.072 241.986C735.604 241.538 735.87 240.908 735.87 240.096Z" fill="white"/>
</g>
<g opacity="0.75">
<rect x="572" y="503.462" width="210" height="44.5384" rx="1" fill="#1B58A0"/>
<path d="M615.476 518.762H622.154C623.75 518.762 625.157 519.07 626.375 519.686C627.607 520.288 628.559 521.142 629.231 522.248C629.917 523.354 630.26 524.642 630.26 526.112C630.26 527.582 629.917 528.87 629.231 529.976C628.559 531.082 627.607 531.943 626.375 532.559C625.157 533.161 623.75 533.462 622.154 533.462H615.476V518.762ZM621.986 530.669C623.456 530.669 624.625 530.263 625.493 529.451C626.375 528.625 626.816 527.512 626.816 526.112C626.816 524.712 626.375 523.606 625.493 522.794C624.625 521.968 623.456 521.555 621.986 521.555H618.878V530.669H621.986ZM644.208 530.732V533.462H632.826V518.762H643.935V521.492H636.207V524.684H643.032V527.33H636.207V530.732H644.208ZM653.909 533.714C652.411 533.714 651.053 533.392 649.835 532.748C648.631 532.09 647.679 531.187 646.979 530.039C646.293 528.877 645.95 527.568 645.95 526.112C645.95 524.656 646.293 523.354 646.979 522.206C647.679 521.044 648.631 520.141 649.835 519.497C651.053 518.839 652.418 518.51 653.93 518.51C655.204 518.51 656.352 518.734 657.374 519.182C658.41 519.63 659.278 520.274 659.978 521.114L657.794 523.13C656.8 521.982 655.568 521.408 654.098 521.408C653.188 521.408 652.376 521.611 651.662 522.017C650.948 522.409 650.388 522.962 649.982 523.676C649.59 524.39 649.394 525.202 649.394 526.112C649.394 527.022 649.59 527.834 649.982 528.548C650.388 529.262 650.948 529.822 651.662 530.228C652.376 530.62 653.188 530.816 654.098 530.816C655.568 530.816 656.8 530.235 657.794 529.073L659.978 531.089C659.278 531.943 658.41 532.594 657.374 533.042C656.338 533.49 655.183 533.714 653.909 533.714ZM673.657 530.732V533.462H662.275V518.762H673.384V521.492H665.656V524.684H672.481V527.33H665.656V530.732H673.657ZM689.741 533.462L689.72 524.642L685.394 531.908H683.861L679.556 524.831V533.462H676.364V518.762H679.178L684.68 527.897L690.098 518.762H692.891L692.933 533.462H689.741ZM707.215 525.818C708.055 526.084 708.713 526.532 709.189 527.162C709.665 527.778 709.903 528.541 709.903 529.451C709.903 530.739 709.399 531.733 708.391 532.433C707.397 533.119 705.941 533.462 704.023 533.462H696.421V518.762H703.603C705.395 518.762 706.767 519.105 707.719 519.791C708.685 520.477 709.168 521.408 709.168 522.584C709.168 523.298 708.993 523.935 708.643 524.495C708.307 525.055 707.831 525.496 707.215 525.818ZM699.802 521.324V524.789H703.183C704.023 524.789 704.66 524.642 705.094 524.348C705.528 524.054 705.745 523.62 705.745 523.046C705.745 522.472 705.528 522.045 705.094 521.765C704.66 521.471 704.023 521.324 703.183 521.324H699.802ZM703.771 530.9C704.667 530.9 705.339 530.753 705.787 530.459C706.249 530.165 706.48 529.71 706.48 529.094C706.48 527.876 705.577 527.267 703.771 527.267H699.802V530.9H703.771ZM723.86 530.732V533.462H712.478V518.762H723.587V521.492H715.859V524.684H722.684V527.33H715.859V530.732H723.86ZM735.933 533.462L733.098 529.367H732.93H729.969V533.462H726.567V518.762H732.93C734.232 518.762 735.359 518.979 736.311 519.413C737.277 519.847 738.019 520.463 738.537 521.261C739.055 522.059 739.314 523.004 739.314 524.096C739.314 525.188 739.048 526.133 738.516 526.931C737.998 527.715 737.256 528.317 736.29 528.737L739.587 533.462H735.933ZM735.87 524.096C735.87 523.27 735.604 522.64 735.072 522.206C734.54 521.758 733.763 521.534 732.741 521.534H729.969V526.658H732.741C733.763 526.658 734.54 526.434 735.072 525.986C735.604 525.538 735.87 524.908 735.87 524.096Z" fill="white"/>
</g>
<g opacity="0.75">
<rect x="305" y="120.487" width="210" height="44.5384" rx="1" fill="#3470B7"/>
<path d="M384.972 150.234C383.978 150.234 383.061 150.052 382.221 149.688C381.395 149.31 380.716 148.778 380.184 148.092L382.074 145.824C382.872 146.902 383.782 147.441 384.804 147.441C386.19 147.441 386.883 146.629 386.883 145.005V138.012H381.717V135.282H390.264V144.816C390.264 146.622 389.816 147.98 388.92 148.89C388.024 149.786 386.708 150.234 384.972 150.234ZM400.155 150.234C398.055 150.234 396.417 149.653 395.241 148.491C394.079 147.329 393.498 145.67 393.498 143.514V135.282H396.9V143.388C396.9 146.02 397.992 147.336 400.176 147.336C401.24 147.336 402.052 147.021 402.612 146.391C403.172 145.747 403.452 144.746 403.452 143.388V135.282H406.812V143.514C406.812 145.67 406.224 147.329 405.048 148.491C403.886 149.653 402.255 150.234 400.155 150.234ZM423.656 135.282V149.982H420.863L413.534 141.057V149.982H410.174V135.282H412.988L420.296 144.207V135.282H423.656ZM438.516 147.252V149.982H427.134V135.282H438.243V138.012H430.515V141.204H437.34V143.85H430.515V147.252H438.516Z" fill="white"/>
</g>
<g opacity="0.75">
<rect x="305" y="404.487" width="210" height="44.5384" rx="1" fill="#3470B7"/>
<path d="M384.972 434.234C383.978 434.234 383.061 434.052 382.221 433.688C381.395 433.31 380.716 432.778 380.184 432.092L382.074 429.824C382.872 430.902 383.782 431.441 384.804 431.441C386.19 431.441 386.883 430.629 386.883 429.005V422.012H381.717V419.282H390.264V428.816C390.264 430.622 389.816 431.98 388.92 432.89C388.024 433.786 386.708 434.234 384.972 434.234ZM400.155 434.234C398.055 434.234 396.417 433.653 395.241 432.491C394.079 431.329 393.498 429.67 393.498 427.514V419.282H396.9V427.388C396.9 430.02 397.992 431.336 400.176 431.336C401.24 431.336 402.052 431.021 402.612 430.391C403.172 429.747 403.452 428.746 403.452 427.388V419.282H406.812V427.514C406.812 429.67 406.224 431.329 405.048 432.491C403.886 433.653 402.255 434.234 400.155 434.234ZM423.656 419.282V433.982H420.863L413.534 425.057V433.982H410.174V419.282H412.988L420.296 428.207V419.282H423.656ZM438.516 431.252V433.982H427.134V419.282H438.243V422.012H430.515V425.204H437.34V427.85H430.515V431.252H438.516Z" fill="white"/>
</g>
<g opacity="0.75">
<rect x="305" y="71.9897" width="210" height="44.5384" rx="1" fill="#3470B7"/>
<path d="M400.408 101.485L400.387 92.6646L396.061 99.9306H394.528L390.223 92.8536V101.485H387.031V86.7846H389.845L395.347 95.9196L400.765 86.7846H403.558L403.6 101.485H400.408ZM416.769 98.3346H409.944L408.642 101.485H405.156L411.708 86.7846H415.068L421.641 101.485H418.071L416.769 98.3346ZM415.698 95.7516L413.367 90.1236L411.036 95.7516H415.698ZM429.32 96.2766V101.485H425.918V96.2346L420.227 86.7846H423.839L427.766 93.3156L431.693 86.7846H435.032L429.32 96.2766Z" fill="white"/>
</g>
<g opacity="0.75">
<rect x="305" y="355.99" width="210" height="44.5384" rx="1" fill="#3470B7"/>
<path d="M400.408 385.485L400.387 376.665L396.061 383.931H394.528L390.223 376.854V385.485H387.031V370.785H389.845L395.347 379.92L400.765 370.785H403.558L403.6 385.485H400.408ZM416.769 382.335H409.944L408.642 385.485H405.156L411.708 370.785H415.068L421.641 385.485H418.071L416.769 382.335ZM415.698 379.752L413.367 374.124L411.036 379.752H415.698ZM429.32 380.277V385.485H425.918V380.235L420.227 370.785H423.839L427.766 377.316L431.693 370.785H435.032L429.32 380.277Z" fill="white"/>
</g>
<g opacity="0.75">
<rect x="305" y="169.974" width="210" height="44.5384" rx="1" fill="#3470B7"/>
<path d="M387.823 199.721C386.829 199.721 385.912 199.539 385.072 199.175C384.246 198.797 383.567 198.265 383.035 197.579L384.925 195.311C385.723 196.389 386.633 196.928 387.655 196.928C389.041 196.928 389.734 196.116 389.734 194.492V187.499H384.568V184.769H393.115V194.303C393.115 196.109 392.667 197.467 391.771 198.377C390.875 199.273 389.559 199.721 387.823 199.721ZM403.006 199.721C400.906 199.721 399.268 199.14 398.092 197.978C396.93 196.816 396.349 195.157 396.349 193.001V184.769H399.751V192.875C399.751 195.507 400.843 196.823 403.027 196.823C404.091 196.823 404.903 196.508 405.463 195.878C406.023 195.234 406.303 194.233 406.303 192.875V184.769H409.663V193.001C409.663 195.157 409.075 196.816 407.899 197.978C406.737 199.14 405.106 199.721 403.006 199.721ZM413.025 184.769H416.427V196.697H423.798V199.469H413.025V184.769ZM431.237 194.261V199.469H427.835V194.219L422.144 184.769H425.756L429.683 191.3L433.61 184.769H436.949L431.237 194.261Z" fill="white"/>
</g>
<g opacity="0.75">
<rect x="305" y="453.974" width="210" height="44.5384" rx="1" fill="#3470B7"/>
<path d="M387.823 483.721C386.829 483.721 385.912 483.539 385.072 483.175C384.246 482.797 383.567 482.265 383.035 481.579L384.925 479.311C385.723 480.389 386.633 480.928 387.655 480.928C389.041 480.928 389.734 480.116 389.734 478.492V471.499H384.568V468.769H393.115V478.303C393.115 480.109 392.667 481.467 391.771 482.377C390.875 483.273 389.559 483.721 387.823 483.721ZM403.006 483.721C400.906 483.721 399.268 483.14 398.092 481.978C396.93 480.816 396.349 479.157 396.349 477.001V468.769H399.751V476.875C399.751 479.507 400.843 480.823 403.027 480.823C404.091 480.823 404.903 480.508 405.463 479.878C406.023 479.234 406.303 478.233 406.303 476.875V468.769H409.663V477.001C409.663 479.157 409.075 480.816 407.899 481.978C406.737 483.14 405.106 483.721 403.006 483.721ZM413.025 468.769H416.427V480.697H423.798V483.469H413.025V468.769ZM431.237 478.261V483.469H427.835V478.219L422.144 468.769H425.756L429.683 475.3L433.61 468.769H436.949L431.237 478.261Z" fill="white"/>
</g>
<g opacity="0.75">
<rect x="305" y="218.967" width="210" height="44.5384" rx="1" fill="#3470B7"/>
<path d="M375.804 245.312H368.979L367.677 248.462H364.191L370.743 233.762H374.103L380.676 248.462H377.106L375.804 245.312ZM374.733 242.729L372.402 237.101L370.071 242.729H374.733ZM388.425 248.714C386.325 248.714 384.687 248.133 383.511 246.971C382.349 245.809 381.768 244.15 381.768 241.994V233.762H385.17V241.868C385.17 244.5 386.262 245.816 388.446 245.816C389.51 245.816 390.322 245.501 390.882 244.871C391.442 244.227 391.722 243.226 391.722 241.868V233.762H395.082V241.994C395.082 244.15 394.494 245.809 393.318 246.971C392.156 248.133 390.525 248.714 388.425 248.714ZM408.377 240.881H411.485V246.845C410.687 247.447 409.763 247.909 408.713 248.231C407.663 248.553 406.606 248.714 405.542 248.714C404.016 248.714 402.644 248.392 401.426 247.748C400.208 247.09 399.249 246.187 398.549 245.039C397.863 243.877 397.52 242.568 397.52 241.112C397.52 239.656 397.863 238.354 398.549 237.206C399.249 236.044 400.215 235.141 401.447 234.497C402.679 233.839 404.065 233.51 405.605 233.51C406.893 233.51 408.062 233.727 409.112 234.161C410.162 234.595 411.044 235.225 411.758 236.051L409.574 238.067C408.524 236.961 407.257 236.408 405.773 236.408C404.835 236.408 404.002 236.604 403.274 236.996C402.546 237.388 401.979 237.941 401.573 238.655C401.167 239.369 400.964 240.188 400.964 241.112C400.964 242.022 401.167 242.834 401.573 243.548C401.979 244.262 402.539 244.822 403.253 245.228C403.981 245.62 404.807 245.816 405.731 245.816C406.711 245.816 407.593 245.606 408.377 245.186V240.881ZM421.176 248.714C419.076 248.714 417.438 248.133 416.262 246.971C415.1 245.809 414.519 244.15 414.519 241.994V233.762H417.921V241.868C417.921 244.5 419.013 245.816 421.197 245.816C422.261 245.816 423.073 245.501 423.633 244.871C424.193 244.227 424.473 243.226 424.473 241.868V233.762H427.833V241.994C427.833 244.15 427.245 245.809 426.069 246.971C424.907 248.133 423.276 248.714 421.176 248.714ZM436.025 248.714C434.863 248.714 433.736 248.56 432.644 248.252C431.566 247.93 430.698 247.517 430.04 247.013L431.195 244.451C431.825 244.913 432.574 245.284 433.442 245.564C434.31 245.844 435.178 245.984 436.046 245.984C437.012 245.984 437.726 245.844 438.188 245.564C438.65 245.27 438.881 244.885 438.881 244.409C438.881 244.059 438.741 243.772 438.461 243.548C438.195 243.31 437.845 243.121 437.411 242.981C436.991 242.841 436.417 242.687 435.689 242.519C434.569 242.253 433.652 241.987 432.938 241.721C432.224 241.455 431.608 241.028 431.09 240.44C430.586 239.852 430.334 239.068 430.334 238.088C430.334 237.234 430.565 236.464 431.027 235.778C431.489 235.078 432.182 234.525 433.106 234.119C434.044 233.713 435.185 233.51 436.529 233.51C437.467 233.51 438.384 233.622 439.28 233.846C440.176 234.07 440.96 234.392 441.632 234.812L440.582 237.395C439.224 236.625 437.866 236.24 436.508 236.24C435.556 236.24 434.849 236.394 434.387 236.702C433.939 237.01 433.715 237.416 433.715 237.92C433.715 238.424 433.974 238.802 434.492 239.054C435.024 239.292 435.829 239.53 436.907 239.768C438.027 240.034 438.944 240.3 439.658 240.566C440.372 240.832 440.981 241.252 441.485 241.826C442.003 242.4 442.262 243.177 442.262 244.157C442.262 244.997 442.024 245.767 441.548 246.467C441.086 247.153 440.386 247.699 439.448 248.105C438.51 248.511 437.369 248.714 436.025 248.714ZM447.426 236.534H442.722V233.762H455.532V236.534H450.828V248.462H447.426V236.534Z" fill="white"/>
</g>
<g opacity="0.75">
<rect x="305" y="502.967" width="210" height="44.5384" rx="1" fill="#3470B7"/>
<path d="M375.804 529.312H368.979L367.677 532.462H364.191L370.743 517.762H374.103L380.676 532.462H377.106L375.804 529.312ZM374.733 526.729L372.402 521.101L370.071 526.729H374.733ZM388.425 532.714C386.325 532.714 384.687 532.133 383.511 530.971C382.349 529.809 381.768 528.15 381.768 525.994V517.762H385.17V525.868C385.17 528.5 386.262 529.816 388.446 529.816C389.51 529.816 390.322 529.501 390.882 528.871C391.442 528.227 391.722 527.226 391.722 525.868V517.762H395.082V525.994C395.082 528.15 394.494 529.809 393.318 530.971C392.156 532.133 390.525 532.714 388.425 532.714ZM408.377 524.881H411.485V530.845C410.687 531.447 409.763 531.909 408.713 532.231C407.663 532.553 406.606 532.714 405.542 532.714C404.016 532.714 402.644 532.392 401.426 531.748C400.208 531.09 399.249 530.187 398.549 529.039C397.863 527.877 397.52 526.568 397.52 525.112C397.52 523.656 397.863 522.354 398.549 521.206C399.249 520.044 400.215 519.141 401.447 518.497C402.679 517.839 404.065 517.51 405.605 517.51C406.893 517.51 408.062 517.727 409.112 518.161C410.162 518.595 411.044 519.225 411.758 520.051L409.574 522.067C408.524 520.961 407.257 520.408 405.773 520.408C404.835 520.408 404.002 520.604 403.274 520.996C402.546 521.388 401.979 521.941 401.573 522.655C401.167 523.369 400.964 524.188 400.964 525.112C400.964 526.022 401.167 526.834 401.573 527.548C401.979 528.262 402.539 528.822 403.253 529.228C403.981 529.62 404.807 529.816 405.731 529.816C406.711 529.816 407.593 529.606 408.377 529.186V524.881ZM421.176 532.714C419.076 532.714 417.438 532.133 416.262 530.971C415.1 529.809 414.519 528.15 414.519 525.994V517.762H417.921V525.868C417.921 528.5 419.013 529.816 421.197 529.816C422.261 529.816 423.073 529.501 423.633 528.871C424.193 528.227 424.473 527.226 424.473 525.868V517.762H427.833V525.994C427.833 528.15 427.245 529.809 426.069 530.971C424.907 532.133 423.276 532.714 421.176 532.714ZM436.025 532.714C434.863 532.714 433.736 532.56 432.644 532.252C431.566 531.93 430.698 531.517 430.04 531.013L431.195 528.451C431.825 528.913 432.574 529.284 433.442 529.564C434.31 529.844 435.178 529.984 436.046 529.984C437.012 529.984 437.726 529.844 438.188 529.564C438.65 529.27 438.881 528.885 438.881 528.409C438.881 528.059 438.741 527.772 438.461 527.548C438.195 527.31 437.845 527.121 437.411 526.981C436.991 526.841 436.417 526.687 435.689 526.519C434.569 526.253 433.652 525.987 432.938 525.721C432.224 525.455 431.608 525.028 431.09 524.44C430.586 523.852 430.334 523.068 430.334 522.088C430.334 521.234 430.565 520.464 431.027 519.778C431.489 519.078 432.182 518.525 433.106 518.119C434.044 517.713 435.185 517.51 436.529 517.51C437.467 517.51 438.384 517.622 439.28 517.846C440.176 518.07 440.96 518.392 441.632 518.812L440.582 521.395C439.224 520.625 437.866 520.24 436.508 520.24C435.556 520.24 434.849 520.394 434.387 520.702C433.939 521.01 433.715 521.416 433.715 521.92C433.715 522.424 433.974 522.802 434.492 523.054C435.024 523.292 435.829 523.53 436.907 523.768C438.027 524.034 438.944 524.3 439.658 524.566C440.372 524.832 440.981 525.252 441.485 525.826C442.003 526.4 442.262 527.177 442.262 528.157C442.262 528.997 442.024 529.767 441.548 530.467C441.086 531.153 440.386 531.699 439.448 532.105C438.51 532.511 437.369 532.714 436.025 532.714ZM447.426 520.534H442.722V517.762H455.532V520.534H450.828V532.462H447.426V520.534Z" fill="white"/>
</g>
</svg>
