<svg width="616" height="566" viewBox="0 0 616 566" fill="none" xmlns="http://www.w3.org/2000/svg">
<rect width="616" height="566" fill="white"/>
<g opacity="0.75">
<rect y="71" width="173.871" height="44.5384" rx="1" fill="#002D62"/>
<path d="M52.3152 98.6749C51.6052 98.6749 50.9502 98.5449 50.3502 98.2849C49.7602 98.0149 49.2752 97.6349 48.8952 97.1449L50.2452 95.5249C50.8152 96.2949 51.4652 96.6799 52.1952 96.6799C53.1852 96.6799 53.6802 96.0999 53.6802 94.9399V89.9449H49.9902V87.9949H56.0952V94.8049C56.0952 96.0949 55.7752 97.0649 55.1352 97.7149C54.4952 98.3549 53.5552 98.6749 52.3152 98.6749ZM65.1907 96.2449H60.3157L59.3857 98.4949H56.8957L61.5757 87.9949H63.9757L68.6707 98.4949H66.1207L65.1907 96.2449ZM64.4257 94.3999L62.7607 90.3799L61.0957 94.3999H64.4257ZM79.3901 87.9949V98.4949H77.3951L72.1601 92.1199V98.4949H69.7601V87.9949H71.7701L76.9901 94.3699V87.9949H79.3901ZM86.5393 98.6749C85.0393 98.6749 83.8693 98.2599 83.0293 97.4299C82.1993 96.5999 81.7843 95.4149 81.7843 93.8749V87.9949H84.2143V93.7849C84.2143 95.6649 84.9943 96.6049 86.5543 96.6049C87.3143 96.6049 87.8943 96.3799 88.2943 95.9299C88.6943 95.4699 88.8943 94.7549 88.8943 93.7849V87.9949H91.2943V93.8749C91.2943 95.4149 90.8743 96.5999 90.0343 97.4299C89.2043 98.2599 88.0393 98.6749 86.5393 98.6749ZM100.391 96.2449H95.5159L94.5859 98.4949H92.0959L96.7759 87.9949H99.1759L103.871 98.4949H101.321L100.391 96.2449ZM99.6259 94.3999L97.9609 90.3799L96.2959 94.3999H99.6259ZM111.65 98.4949L109.625 95.5699H109.505H107.39V98.4949H104.96V87.9949H109.505C110.435 87.9949 111.24 88.1499 111.92 88.4599C112.61 88.7699 113.14 89.2099 113.51 89.7799C113.88 90.3499 114.065 91.0249 114.065 91.8049C114.065 92.5849 113.875 93.2599 113.495 93.8299C113.125 94.3899 112.595 94.8199 111.905 95.1199L114.26 98.4949H111.65ZM111.605 91.8049C111.605 91.2149 111.415 90.7649 111.035 90.4549C110.655 90.1349 110.1 89.9749 109.37 89.9749H107.39V93.6349H109.37C110.1 93.6349 110.655 93.4749 111.035 93.1549C111.415 92.8349 111.605 92.3849 111.605 91.8049ZM120.884 94.7749V98.4949H118.454V94.7449L114.389 87.9949H116.969L119.774 92.6599L122.579 87.9949H124.964L120.884 94.7749Z" fill="white"/>
</g>
<g opacity="0.75">
<rect y="355" width="173.871" height="44.5384" rx="1" fill="#002D62"/>
<path d="M52.3152 382.675C51.6052 382.675 50.9502 382.545 50.3502 382.285C49.7602 382.015 49.2752 381.635 48.8952 381.145L50.2452 379.525C50.8152 380.295 51.4652 380.68 52.1952 380.68C53.1852 380.68 53.6802 380.1 53.6802 378.94V373.945H49.9902V371.995H56.0952V378.805C56.0952 380.095 55.7752 381.065 55.1352 381.715C54.4952 382.355 53.5552 382.675 52.3152 382.675ZM65.1907 380.245H60.3157L59.3857 382.495H56.8957L61.5757 371.995H63.9757L68.6707 382.495H66.1207L65.1907 380.245ZM64.4257 378.4L62.7607 374.38L61.0957 378.4H64.4257ZM79.3901 371.995V382.495H77.3951L72.1601 376.12V382.495H69.7601V371.995H71.7701L76.9901 378.37V371.995H79.3901ZM86.5393 382.675C85.0393 382.675 83.8693 382.26 83.0293 381.43C82.1993 380.6 81.7843 379.415 81.7843 377.875V371.995H84.2143V377.785C84.2143 379.665 84.9943 380.605 86.5543 380.605C87.3143 380.605 87.8943 380.38 88.2943 379.93C88.6943 379.47 88.8943 378.755 88.8943 377.785V371.995H91.2943V377.875C91.2943 379.415 90.8743 380.6 90.0343 381.43C89.2043 382.26 88.0393 382.675 86.5393 382.675ZM100.391 380.245H95.5159L94.5859 382.495H92.0959L96.7759 371.995H99.1759L103.871 382.495H101.321L100.391 380.245ZM99.6259 378.4L97.9609 374.38L96.2959 378.4H99.6259ZM111.65 382.495L109.625 379.57H109.505H107.39V382.495H104.96V371.995H109.505C110.435 371.995 111.24 372.15 111.92 372.46C112.61 372.77 113.14 373.21 113.51 373.78C113.88 374.35 114.065 375.025 114.065 375.805C114.065 376.585 113.875 377.26 113.495 377.83C113.125 378.39 112.595 378.82 111.905 379.12L114.26 382.495H111.65ZM111.605 375.805C111.605 375.215 111.415 374.765 111.035 374.455C110.655 374.135 110.1 373.975 109.37 373.975H107.39V377.635H109.37C110.1 377.635 110.655 377.475 111.035 377.155C111.415 376.835 111.605 376.385 111.605 375.805ZM120.884 378.775V382.495H118.454V378.745L114.389 371.995H116.969L119.774 376.66L122.579 371.995H124.964L120.884 378.775Z" fill="white"/>
<path d="M43.1661 328.18C42.3361 328.18 41.5311 328.07 40.7511 327.85C39.9811 327.62 39.3611 327.325 38.8911 326.965L39.7161 325.135C40.1661 325.465 40.7011 325.73 41.3211 325.93C41.9411 326.13 42.5611 326.23 43.1811 326.23C43.8711 326.23 44.3811 326.13 44.7111 325.93C45.0411 325.72 45.2061 325.445 45.2061 325.105C45.2061 324.855 45.1061 324.65 44.9061 324.49C44.7161 324.32 44.4661 324.185 44.1561 324.085C43.8561 323.985 43.4461 323.875 42.9261 323.755C42.1261 323.565 41.4711 323.375 40.9611 323.185C40.4511 322.995 40.0111 322.69 39.6411 322.27C39.2811 321.85 39.1011 321.29 39.1011 320.59C39.1011 319.98 39.2661 319.43 39.5961 318.94C39.9261 318.44 40.4211 318.045 41.0811 317.755C41.7511 317.465 42.5661 317.32 43.5261 317.32C44.1961 317.32 44.8511 317.4 45.4911 317.56C46.1311 317.72 46.6911 317.95 47.1711 318.25L46.4211 320.095C45.4511 319.545 44.4811 319.27 43.5111 319.27C42.8311 319.27 42.3261 319.38 41.9961 319.6C41.6761 319.82 41.5161 320.11 41.5161 320.47C41.5161 320.83 41.7011 321.1 42.0711 321.28C42.4511 321.45 43.0261 321.62 43.7961 321.79C44.5961 321.98 45.2511 322.17 45.7611 322.36C46.2711 322.55 46.7061 322.85 47.0661 323.26C47.4361 323.67 47.6211 324.225 47.6211 324.925C47.6211 325.525 47.4511 326.075 47.1111 326.575C46.7811 327.065 46.2811 327.455 45.6111 327.745C44.9411 328.035 44.1261 328.18 43.1661 328.18ZM57.4116 326.05V328H49.2816V317.5H57.2166V319.45H51.6966V321.73H56.5716V323.62H51.6966V326.05H57.4116ZM68.9 328L68.885 321.7L65.795 326.89H64.7L61.625 321.835V328H59.345V317.5H61.355L65.285 324.025L69.155 317.5H71.15L71.18 328H68.9ZM81.8012 326.05V328H73.6712V317.5H81.6062V319.45H76.0862V321.73H80.9612V323.62H76.0862V326.05H81.8012ZM87.1847 328.18C86.3547 328.18 85.5497 328.07 84.7697 327.85C83.9997 327.62 83.3797 327.325 82.9097 326.965L83.7347 325.135C84.1847 325.465 84.7197 325.73 85.3397 325.93C85.9597 326.13 86.5797 326.23 87.1997 326.23C87.8897 326.23 88.3997 326.13 88.7297 325.93C89.0597 325.72 89.2247 325.445 89.2247 325.105C89.2247 324.855 89.1247 324.65 88.9247 324.49C88.7347 324.32 88.4847 324.185 88.1747 324.085C87.8747 323.985 87.4647 323.875 86.9447 323.755C86.1447 323.565 85.4897 323.375 84.9797 323.185C84.4697 322.995 84.0297 322.69 83.6597 322.27C83.2997 321.85 83.1197 321.29 83.1197 320.59C83.1197 319.98 83.2847 319.43 83.6147 318.94C83.9447 318.44 84.4397 318.045 85.0997 317.755C85.7697 317.465 86.5847 317.32 87.5447 317.32C88.2147 317.32 88.8697 317.4 89.5097 317.56C90.1497 317.72 90.7097 317.95 91.1897 318.25L90.4397 320.095C89.4697 319.545 88.4997 319.27 87.5297 319.27C86.8497 319.27 86.3447 319.38 86.0147 319.6C85.6947 319.82 85.5347 320.11 85.5347 320.47C85.5347 320.83 85.7197 321.1 86.0897 321.28C86.4697 321.45 87.0447 321.62 87.8147 321.79C88.6147 321.98 89.2697 322.17 89.7797 322.36C90.2897 322.55 90.7247 322.85 91.0847 323.26C91.4547 323.67 91.6397 324.225 91.6397 324.925C91.6397 325.525 91.4697 326.075 91.1297 326.575C90.7997 327.065 90.2997 327.455 89.6297 327.745C88.9597 328.035 88.1447 328.18 87.1847 328.18ZM95.3286 319.48H91.9686V317.5H101.119V319.48H97.7586V328H95.3286V319.48ZM110.556 326.05V328H102.426V317.5H110.361V319.45H104.841V321.73H109.716V323.62H104.841V326.05H110.556ZM119.18 328L117.155 325.075H117.035H114.92V328H112.49V317.5H117.035C117.965 317.5 118.77 317.655 119.45 317.965C120.14 318.275 120.67 318.715 121.04 319.285C121.41 319.855 121.595 320.53 121.595 321.31C121.595 322.09 121.405 322.765 121.025 323.335C120.655 323.895 120.125 324.325 119.435 324.625L121.79 328H119.18ZM119.135 321.31C119.135 320.72 118.945 320.27 118.565 319.96C118.185 319.64 117.63 319.48 116.9 319.48H114.92V323.14H116.9C117.63 323.14 118.185 322.98 118.565 322.66C118.945 322.34 119.135 321.89 119.135 321.31ZM132.013 321.775C132.933 321.925 133.638 322.27 134.128 322.81C134.618 323.34 134.863 324 134.863 324.79C134.863 325.4 134.703 325.965 134.383 326.485C134.063 326.995 133.573 327.405 132.913 327.715C132.263 328.025 131.463 328.18 130.513 328.18C129.773 328.18 129.043 328.085 128.323 327.895C127.613 327.695 127.008 327.415 126.508 327.055L127.453 325.195C127.853 325.495 128.313 325.73 128.833 325.9C129.363 326.06 129.903 326.14 130.453 326.14C131.063 326.14 131.543 326.025 131.893 325.795C132.243 325.555 132.418 325.22 132.418 324.79C132.418 323.93 131.763 323.5 130.453 323.5H129.343V321.895L131.503 319.45H127.033V317.5H134.383V319.075L132.013 321.775Z" fill="black"/>
<path d="M44.6676 44.18C43.8376 44.18 43.0326 44.07 42.2526 43.85C41.4826 43.62 40.8626 43.325 40.3926 42.965L41.2176 41.135C41.6676 41.465 42.2026 41.73 42.8226 41.93C43.4426 42.13 44.0626 42.23 44.6826 42.23C45.3726 42.23 45.8826 42.13 46.2126 41.93C46.5426 41.72 46.7076 41.445 46.7076 41.105C46.7076 40.855 46.6076 40.65 46.4076 40.49C46.2176 40.32 45.9676 40.185 45.6576 40.085C45.3576 39.985 44.9476 39.875 44.4276 39.755C43.6276 39.565 42.9726 39.375 42.4626 39.185C41.9526 38.995 41.5126 38.69 41.1426 38.27C40.7826 37.85 40.6026 37.29 40.6026 36.59C40.6026 35.98 40.7676 35.43 41.0976 34.94C41.4276 34.44 41.9226 34.045 42.5826 33.755C43.2526 33.465 44.0676 33.32 45.0276 33.32C45.6976 33.32 46.3526 33.4 46.9926 33.56C47.6326 33.72 48.1926 33.95 48.6726 34.25L47.9226 36.095C46.9526 35.545 45.9826 35.27 45.0126 35.27C44.3326 35.27 43.8276 35.38 43.4976 35.6C43.1776 35.82 43.0176 36.11 43.0176 36.47C43.0176 36.83 43.2026 37.1 43.5726 37.28C43.9526 37.45 44.5276 37.62 45.2976 37.79C46.0976 37.98 46.7526 38.17 47.2626 38.36C47.7726 38.55 48.2076 38.85 48.5676 39.26C48.9376 39.67 49.1226 40.225 49.1226 40.925C49.1226 41.525 48.9526 42.075 48.6126 42.575C48.2826 43.065 47.7826 43.455 47.1126 43.745C46.4426 44.035 45.6276 44.18 44.6676 44.18ZM58.913 42.05V44H50.783V33.5H58.718V35.45H53.198V37.73H58.073V39.62H53.198V42.05H58.913ZM70.4015 44L70.3865 37.7L67.2965 42.89H66.2015L63.1265 37.835V44H60.8465V33.5H62.8565L66.7865 40.025L70.6565 33.5H72.6515L72.6815 44H70.4015ZM83.3027 42.05V44H75.1727V33.5H83.1077V35.45H77.5877V37.73H82.4627V39.62H77.5877V42.05H83.3027ZM88.6862 44.18C87.8562 44.18 87.0511 44.07 86.2712 43.85C85.5011 43.62 84.8811 43.325 84.4111 42.965L85.2361 41.135C85.6861 41.465 86.2212 41.73 86.8412 41.93C87.4612 42.13 88.0811 42.23 88.7012 42.23C89.3912 42.23 89.9012 42.13 90.2312 41.93C90.5612 41.72 90.7262 41.445 90.7262 41.105C90.7262 40.855 90.6262 40.65 90.4262 40.49C90.2362 40.32 89.9862 40.185 89.6762 40.085C89.3762 39.985 88.9662 39.875 88.4462 39.755C87.6462 39.565 86.9912 39.375 86.4812 39.185C85.9711 38.995 85.5311 38.69 85.1611 38.27C84.8011 37.85 84.6211 37.29 84.6211 36.59C84.6211 35.98 84.7861 35.43 85.1161 34.94C85.4461 34.44 85.9411 34.045 86.6012 33.755C87.2712 33.465 88.0862 33.32 89.0462 33.32C89.7162 33.32 90.3712 33.4 91.0112 33.56C91.6512 33.72 92.2112 33.95 92.6912 34.25L91.9412 36.095C90.9712 35.545 90.0012 35.27 89.0312 35.27C88.3512 35.27 87.8462 35.38 87.5162 35.6C87.1962 35.82 87.0362 36.11 87.0362 36.47C87.0362 36.83 87.2212 37.1 87.5912 37.28C87.9712 37.45 88.5462 37.62 89.3162 37.79C90.1162 37.98 90.7712 38.17 91.2812 38.36C91.7912 38.55 92.2261 38.85 92.5862 39.26C92.9562 39.67 93.1412 40.225 93.1412 40.925C93.1412 41.525 92.9712 42.075 92.6312 42.575C92.3012 43.065 91.8012 43.455 91.1312 43.745C90.4612 44.035 89.6462 44.18 88.6862 44.18ZM96.8301 35.48H93.4701V33.5H102.62V35.48H99.2601V44H96.8301V35.48ZM112.058 42.05V44H103.928V33.5H111.863V35.45H106.343V37.73H111.218V39.62H106.343V42.05H112.058ZM120.681 44L118.656 41.075H118.536H116.421V44H113.991V33.5H118.536C119.466 33.5 120.271 33.655 120.951 33.965C121.641 34.275 122.171 34.715 122.541 35.285C122.911 35.855 123.096 36.53 123.096 37.31C123.096 38.09 122.906 38.765 122.526 39.335C122.156 39.895 121.626 40.325 120.936 40.625L123.291 44H120.681ZM120.636 37.31C120.636 36.72 120.446 36.27 120.066 35.96C119.686 35.64 119.131 35.48 118.401 35.48H116.421V39.14H118.401C119.131 39.14 119.686 38.98 120.066 38.66C120.446 38.34 120.636 37.89 120.636 37.31ZM132.659 33.5V44H130.229V35.45H128.129V33.5H132.659Z" fill="black"/>
<path d="M277.129 44.18C276.299 44.18 275.494 44.07 274.714 43.85C273.944 43.62 273.324 43.325 272.854 42.965L273.679 41.135C274.129 41.465 274.664 41.73 275.284 41.93C275.904 42.13 276.524 42.23 277.144 42.23C277.834 42.23 278.344 42.13 278.674 41.93C279.004 41.72 279.169 41.445 279.169 41.105C279.169 40.855 279.069 40.65 278.869 40.49C278.679 40.32 278.429 40.185 278.119 40.085C277.819 39.985 277.409 39.875 276.889 39.755C276.089 39.565 275.434 39.375 274.924 39.185C274.414 38.995 273.974 38.69 273.604 38.27C273.244 37.85 273.064 37.29 273.064 36.59C273.064 35.98 273.229 35.43 273.559 34.94C273.889 34.44 274.384 34.045 275.044 33.755C275.714 33.465 276.529 33.32 277.489 33.32C278.159 33.32 278.814 33.4 279.454 33.56C280.094 33.72 280.654 33.95 281.134 34.25L280.384 36.095C279.414 35.545 278.444 35.27 277.474 35.27C276.794 35.27 276.289 35.38 275.959 35.6C275.639 35.82 275.479 36.11 275.479 36.47C275.479 36.83 275.664 37.1 276.034 37.28C276.414 37.45 276.989 37.62 277.759 37.79C278.559 37.98 279.214 38.17 279.724 38.36C280.234 38.55 280.669 38.85 281.029 39.26C281.399 39.67 281.584 40.225 281.584 40.925C281.584 41.525 281.414 42.075 281.074 42.575C280.744 43.065 280.244 43.455 279.574 43.745C278.904 44.035 278.089 44.18 277.129 44.18ZM287.909 44.18C286.409 44.18 285.239 43.765 284.399 42.935C283.569 42.105 283.154 40.92 283.154 39.38V33.5H285.584V39.29C285.584 41.17 286.364 42.11 287.924 42.11C288.684 42.11 289.264 41.885 289.664 41.435C290.064 40.975 290.264 40.26 290.264 39.29V33.5H292.664V39.38C292.664 40.92 292.244 42.105 291.404 42.935C290.574 43.765 289.409 44.18 287.909 44.18ZM304.62 44L304.605 37.7L301.515 42.89H300.42L297.345 37.835V44H295.065V33.5H297.075L301.005 40.025L304.875 33.5H306.87L306.9 44H304.62ZM318.946 44L318.931 37.7L315.841 42.89H314.746L311.671 37.835V44H309.391V33.5H311.401L315.331 40.025L319.201 33.5H321.196L321.226 44H318.946ZM331.848 42.05V44H323.718V33.5H331.653V35.45H326.133V37.73H331.008V39.62H326.133V42.05H331.848ZM340.471 44L338.446 41.075H338.326H336.211V44H333.781V33.5H338.326C339.256 33.5 340.061 33.655 340.741 33.965C341.431 34.275 341.961 34.715 342.331 35.285C342.701 35.855 342.886 36.53 342.886 37.31C342.886 38.09 342.696 38.765 342.316 39.335C341.946 39.895 341.416 40.325 340.726 40.625L343.081 44H340.471ZM340.426 37.31C340.426 36.72 340.236 36.27 339.856 35.96C339.476 35.64 338.921 35.48 338.191 35.48H336.211V39.14H338.191C338.921 39.14 339.476 38.98 339.856 38.66C340.236 38.34 340.426 37.89 340.426 37.31Z" fill="black"/>
<path d="M485.31 44.18C484.48 44.18 483.675 44.07 482.895 43.85C482.125 43.62 481.505 43.325 481.035 42.965L481.86 41.135C482.31 41.465 482.845 41.73 483.465 41.93C484.085 42.13 484.705 42.23 485.325 42.23C486.015 42.23 486.525 42.13 486.855 41.93C487.185 41.72 487.35 41.445 487.35 41.105C487.35 40.855 487.25 40.65 487.05 40.49C486.86 40.32 486.61 40.185 486.3 40.085C486 39.985 485.59 39.875 485.07 39.755C484.27 39.565 483.615 39.375 483.105 39.185C482.595 38.995 482.155 38.69 481.785 38.27C481.425 37.85 481.245 37.29 481.245 36.59C481.245 35.98 481.41 35.43 481.74 34.94C482.07 34.44 482.565 34.045 483.225 33.755C483.895 33.465 484.71 33.32 485.67 33.32C486.34 33.32 486.995 33.4 487.635 33.56C488.275 33.72 488.835 33.95 489.315 34.25L488.565 36.095C487.595 35.545 486.625 35.27 485.655 35.27C484.975 35.27 484.47 35.38 484.14 35.6C483.82 35.82 483.66 36.11 483.66 36.47C483.66 36.83 483.845 37.1 484.215 37.28C484.595 37.45 485.17 37.62 485.94 37.79C486.74 37.98 487.395 38.17 487.905 38.36C488.415 38.55 488.85 38.85 489.21 39.26C489.58 39.67 489.765 40.225 489.765 40.925C489.765 41.525 489.595 42.075 489.255 42.575C488.925 43.065 488.425 43.455 487.755 43.745C487.085 44.035 486.27 44.18 485.31 44.18ZM499.555 42.05V44H491.425V33.5H499.36V35.45H493.84V37.73H498.715V39.62H493.84V42.05H499.555ZM511.044 44L511.029 37.7L507.939 42.89H506.844L503.769 37.835V44H501.489V33.5H503.499L507.429 40.025L511.299 33.5H513.294L513.324 44H511.044ZM523.945 42.05V44H515.815V33.5H523.75V35.45H518.23V37.73H523.105V39.62H518.23V42.05H523.945ZM529.328 44.18C528.498 44.18 527.693 44.07 526.913 43.85C526.143 43.62 525.523 43.325 525.053 42.965L525.878 41.135C526.328 41.465 526.863 41.73 527.483 41.93C528.103 42.13 528.723 42.23 529.343 42.23C530.033 42.23 530.543 42.13 530.873 41.93C531.203 41.72 531.368 41.445 531.368 41.105C531.368 40.855 531.268 40.65 531.068 40.49C530.878 40.32 530.628 40.185 530.318 40.085C530.018 39.985 529.608 39.875 529.088 39.755C528.288 39.565 527.633 39.375 527.123 39.185C526.613 38.995 526.173 38.69 525.803 38.27C525.443 37.85 525.263 37.29 525.263 36.59C525.263 35.98 525.428 35.43 525.758 34.94C526.088 34.44 526.583 34.045 527.243 33.755C527.913 33.465 528.728 33.32 529.688 33.32C530.358 33.32 531.013 33.4 531.653 33.56C532.293 33.72 532.853 33.95 533.333 34.25L532.583 36.095C531.613 35.545 530.643 35.27 529.673 35.27C528.993 35.27 528.488 35.38 528.158 35.6C527.838 35.82 527.678 36.11 527.678 36.47C527.678 36.83 527.863 37.1 528.233 37.28C528.613 37.45 529.188 37.62 529.958 37.79C530.758 37.98 531.413 38.17 531.923 38.36C532.433 38.55 532.868 38.85 533.228 39.26C533.598 39.67 533.783 40.225 533.783 40.925C533.783 41.525 533.613 42.075 533.273 42.575C532.943 43.065 532.443 43.455 531.773 43.745C531.103 44.035 530.288 44.18 529.328 44.18ZM537.472 35.48H534.112V33.5H543.262V35.48H539.902V44H537.472V35.48ZM552.7 42.05V44H544.57V33.5H552.505V35.45H546.985V37.73H551.86V39.62H546.985V42.05H552.7ZM561.323 44L559.298 41.075H559.178H557.063V44H554.633V33.5H559.178C560.108 33.5 560.913 33.655 561.593 33.965C562.283 34.275 562.813 34.715 563.183 35.285C563.553 35.855 563.738 36.53 563.738 37.31C563.738 38.09 563.548 38.765 563.168 39.335C562.798 39.895 562.268 40.325 561.578 40.625L563.933 44H561.323ZM561.278 37.31C561.278 36.72 561.088 36.27 560.708 35.96C560.328 35.64 559.773 35.48 559.043 35.48H557.063V39.14H559.043C559.773 39.14 560.328 38.98 560.708 38.66C561.088 38.34 561.278 37.89 561.278 37.31ZM577.096 42.02V44H569.161V42.425L573.211 38.6C573.641 38.19 573.931 37.84 574.081 37.55C574.231 37.25 574.306 36.955 574.306 36.665C574.306 36.245 574.161 35.925 573.871 35.705C573.591 35.475 573.176 35.36 572.626 35.36C572.166 35.36 571.751 35.45 571.381 35.63C571.011 35.8 570.701 36.06 570.451 36.41L568.681 35.27C569.091 34.66 569.656 34.185 570.376 33.845C571.096 33.495 571.921 33.32 572.851 33.32C573.631 33.32 574.311 33.45 574.891 33.71C575.481 33.96 575.936 34.32 576.256 34.79C576.586 35.25 576.751 35.795 576.751 36.425C576.751 36.995 576.631 37.53 576.391 38.03C576.151 38.53 575.686 39.1 574.996 39.74L572.581 42.02H577.096Z" fill="black"/>
<path d="M277.129 328.18C276.299 328.18 275.494 328.07 274.714 327.85C273.944 327.62 273.324 327.325 272.854 326.965L273.679 325.135C274.129 325.465 274.664 325.73 275.284 325.93C275.904 326.13 276.524 326.23 277.144 326.23C277.834 326.23 278.344 326.13 278.674 325.93C279.004 325.72 279.169 325.445 279.169 325.105C279.169 324.855 279.069 324.65 278.869 324.49C278.679 324.32 278.429 324.185 278.119 324.085C277.819 323.985 277.409 323.875 276.889 323.755C276.089 323.565 275.434 323.375 274.924 323.185C274.414 322.995 273.974 322.69 273.604 322.27C273.244 321.85 273.064 321.29 273.064 320.59C273.064 319.98 273.229 319.43 273.559 318.94C273.889 318.44 274.384 318.045 275.044 317.755C275.714 317.465 276.529 317.32 277.489 317.32C278.159 317.32 278.814 317.4 279.454 317.56C280.094 317.72 280.654 317.95 281.134 318.25L280.384 320.095C279.414 319.545 278.444 319.27 277.474 319.27C276.794 319.27 276.289 319.38 275.959 319.6C275.639 319.82 275.479 320.11 275.479 320.47C275.479 320.83 275.664 321.1 276.034 321.28C276.414 321.45 276.989 321.62 277.759 321.79C278.559 321.98 279.214 322.17 279.724 322.36C280.234 322.55 280.669 322.85 281.029 323.26C281.399 323.67 281.584 324.225 281.584 324.925C281.584 325.525 281.414 326.075 281.074 326.575C280.744 327.065 280.244 327.455 279.574 327.745C278.904 328.035 278.089 328.18 277.129 328.18ZM287.909 328.18C286.409 328.18 285.239 327.765 284.399 326.935C283.569 326.105 283.154 324.92 283.154 323.38V317.5H285.584V323.29C285.584 325.17 286.364 326.11 287.924 326.11C288.684 326.11 289.264 325.885 289.664 325.435C290.064 324.975 290.264 324.26 290.264 323.29V317.5H292.664V323.38C292.664 324.92 292.244 326.105 291.404 326.935C290.574 327.765 289.409 328.18 287.909 328.18ZM304.62 328L304.605 321.7L301.515 326.89H300.42L297.345 321.835V328H295.065V317.5H297.075L301.005 324.025L304.875 317.5H306.87L306.9 328H304.62ZM318.946 328L318.931 321.7L315.841 326.89H314.746L311.671 321.835V328H309.391V317.5H311.401L315.331 324.025L319.201 317.5H321.196L321.226 328H318.946ZM331.848 326.05V328H323.718V317.5H331.653V319.45H326.133V321.73H331.008V323.62H326.133V326.05H331.848ZM340.471 328L338.446 325.075H338.326H336.211V328H333.781V317.5H338.326C339.256 317.5 340.061 317.655 340.741 317.965C341.431 318.275 341.961 318.715 342.331 319.285C342.701 319.855 342.886 320.53 342.886 321.31C342.886 322.09 342.696 322.765 342.316 323.335C341.946 323.895 341.416 324.325 340.726 324.625L343.081 328H340.471ZM340.426 321.31C340.426 320.72 340.236 320.27 339.856 319.96C339.476 319.64 338.921 319.48 338.191 319.48H336.211V323.14H338.191C338.921 323.14 339.476 322.98 339.856 322.66C340.236 322.34 340.426 321.89 340.426 321.31Z" fill="black"/>
<path d="M484.563 328.18C483.733 328.18 482.928 328.07 482.148 327.85C481.378 327.62 480.758 327.325 480.288 326.965L481.113 325.135C481.563 325.465 482.098 325.73 482.718 325.93C483.338 326.13 483.958 326.23 484.578 326.23C485.268 326.23 485.778 326.13 486.108 325.93C486.438 325.72 486.603 325.445 486.603 325.105C486.603 324.855 486.503 324.65 486.303 324.49C486.113 324.32 485.863 324.185 485.553 324.085C485.253 323.985 484.843 323.875 484.323 323.755C483.523 323.565 482.868 323.375 482.358 323.185C481.848 322.995 481.408 322.69 481.038 322.27C480.678 321.85 480.498 321.29 480.498 320.59C480.498 319.98 480.663 319.43 480.993 318.94C481.323 318.44 481.818 318.045 482.478 317.755C483.148 317.465 483.963 317.32 484.923 317.32C485.593 317.32 486.248 317.4 486.888 317.56C487.528 317.72 488.088 317.95 488.568 318.25L487.818 320.095C486.848 319.545 485.878 319.27 484.908 319.27C484.228 319.27 483.723 319.38 483.393 319.6C483.073 319.82 482.913 320.11 482.913 320.47C482.913 320.83 483.098 321.1 483.468 321.28C483.848 321.45 484.423 321.62 485.193 321.79C485.993 321.98 486.648 322.17 487.158 322.36C487.668 322.55 488.103 322.85 488.463 323.26C488.833 323.67 489.018 324.225 489.018 324.925C489.018 325.525 488.848 326.075 488.508 326.575C488.178 327.065 487.678 327.455 487.008 327.745C486.338 328.035 485.523 328.18 484.563 328.18ZM498.808 326.05V328H490.678V317.5H498.613V319.45H493.093V321.73H497.968V323.62H493.093V326.05H498.808ZM510.297 328L510.282 321.7L507.192 326.89H506.097L503.022 321.835V328H500.742V317.5H502.752L506.682 324.025L510.552 317.5H512.547L512.577 328H510.297ZM523.198 326.05V328H515.068V317.5H523.003V319.45H517.483V321.73H522.358V323.62H517.483V326.05H523.198ZM528.581 328.18C527.751 328.18 526.946 328.07 526.166 327.85C525.396 327.62 524.776 327.325 524.306 326.965L525.131 325.135C525.581 325.465 526.116 325.73 526.736 325.93C527.356 326.13 527.976 326.23 528.596 326.23C529.286 326.23 529.796 326.13 530.126 325.93C530.456 325.72 530.621 325.445 530.621 325.105C530.621 324.855 530.521 324.65 530.321 324.49C530.131 324.32 529.881 324.185 529.571 324.085C529.271 323.985 528.861 323.875 528.341 323.755C527.541 323.565 526.886 323.375 526.376 323.185C525.866 322.995 525.426 322.69 525.056 322.27C524.696 321.85 524.516 321.29 524.516 320.59C524.516 319.98 524.681 319.43 525.011 318.94C525.341 318.44 525.836 318.045 526.496 317.755C527.166 317.465 527.981 317.32 528.941 317.32C529.611 317.32 530.266 317.4 530.906 317.56C531.546 317.72 532.106 317.95 532.586 318.25L531.836 320.095C530.866 319.545 529.896 319.27 528.926 319.27C528.246 319.27 527.741 319.38 527.411 319.6C527.091 319.82 526.931 320.11 526.931 320.47C526.931 320.83 527.116 321.1 527.486 321.28C527.866 321.45 528.441 321.62 529.211 321.79C530.011 321.98 530.666 322.17 531.176 322.36C531.686 322.55 532.121 322.85 532.481 323.26C532.851 323.67 533.036 324.225 533.036 324.925C533.036 325.525 532.866 326.075 532.526 326.575C532.196 327.065 531.696 327.455 531.026 327.745C530.356 328.035 529.541 328.18 528.581 328.18ZM536.725 319.48H533.365V317.5H542.515V319.48H539.155V328H536.725V319.48ZM551.953 326.05V328H543.823V317.5H551.758V319.45H546.238V321.73H551.113V323.62H546.238V326.05H551.953ZM560.576 328L558.551 325.075H558.431H556.316V328H553.886V317.5H558.431C559.361 317.5 560.166 317.655 560.846 317.965C561.536 318.275 562.066 318.715 562.436 319.285C562.806 319.855 562.991 320.53 562.991 321.31C562.991 322.09 562.801 322.765 562.421 323.335C562.051 323.895 561.521 324.325 560.831 324.625L563.186 328H560.576ZM560.531 321.31C560.531 320.72 560.341 320.27 559.961 319.96C559.581 319.64 559.026 319.48 558.296 319.48H556.316V323.14H558.296C559.026 323.14 559.581 322.98 559.961 322.66C560.341 322.34 560.531 321.89 560.531 321.31ZM578.119 325.795H576.409V328H574.039V325.795H568.384V324.16L573.334 317.5H575.884L571.294 323.815H574.114V321.85H576.409V323.815H578.119V325.795Z" fill="black"/>
</g>
<g opacity="0.75">
<rect y="120.487" width="173.871" height="44.5384" rx="1" fill="#002D62"/>
<path d="M47.4855 139.432V142.207H52.3455V144.157H47.4855V147.982H45.0555V137.482H52.9905V139.432H47.4855ZM62.7656 146.032V147.982H54.6356V137.482H62.5706V139.432H57.0506V141.712H61.9256V143.602H57.0506V146.032H62.7656ZM72.409 142.522C73.009 142.712 73.479 143.032 73.819 143.482C74.159 143.922 74.329 144.467 74.329 145.117C74.329 146.037 73.969 146.747 73.249 147.247C72.539 147.737 71.499 147.982 70.129 147.982H64.699V137.482H69.829C71.109 137.482 72.089 137.727 72.769 138.217C73.459 138.707 73.804 139.372 73.804 140.212C73.804 140.722 73.679 141.177 73.429 141.577C73.189 141.977 72.849 142.292 72.409 142.522ZM67.114 139.312V141.787H69.529C70.129 141.787 70.584 141.682 70.894 141.472C71.204 141.262 71.359 140.952 71.359 140.542C71.359 140.132 71.204 139.827 70.894 139.627C70.584 139.417 70.129 139.312 69.529 139.312H67.114ZM69.949 146.152C70.589 146.152 71.069 146.047 71.389 145.837C71.719 145.627 71.884 145.302 71.884 144.862C71.884 143.992 71.239 143.557 69.949 143.557H67.114V146.152H69.949ZM82.8588 147.982L80.8338 145.057H80.7138H78.5988V147.982H76.1688V137.482H80.7138C81.6438 137.482 82.4488 137.637 83.1288 137.947C83.8188 138.257 84.3488 138.697 84.7188 139.267C85.0888 139.837 85.2738 140.512 85.2738 141.292C85.2738 142.072 85.0838 142.747 84.7038 143.317C84.3338 143.877 83.8038 144.307 83.1138 144.607L85.4688 147.982H82.8588ZM82.8138 141.292C82.8138 140.702 82.6238 140.252 82.2438 139.942C81.8638 139.622 81.3088 139.462 80.5788 139.462H78.5988V143.122H80.5788C81.3088 143.122 81.8638 142.962 82.2438 142.642C82.6238 142.322 82.8138 141.872 82.8138 141.292ZM91.864 148.162C90.364 148.162 89.194 147.747 88.354 146.917C87.524 146.087 87.109 144.902 87.109 143.362V137.482H89.539V143.272C89.539 145.152 90.319 146.092 91.879 146.092C92.639 146.092 93.219 145.867 93.619 145.417C94.019 144.957 94.219 144.242 94.219 143.272V137.482H96.619V143.362C96.619 144.902 96.199 146.087 95.359 146.917C94.529 147.747 93.364 148.162 91.864 148.162ZM105.716 145.732H100.841L99.9106 147.982H97.4206L102.101 137.482H104.501L109.196 147.982H106.646L105.716 145.732ZM104.951 143.887L103.286 139.867L101.621 143.887H104.951ZM116.975 147.982L114.95 145.057H114.83H112.715V147.982H110.285V137.482H114.83C115.76 137.482 116.565 137.637 117.245 137.947C117.935 138.257 118.465 138.697 118.835 139.267C119.205 139.837 119.39 140.512 119.39 141.292C119.39 142.072 119.2 142.747 118.82 143.317C118.45 143.877 117.92 144.307 117.23 144.607L119.585 147.982H116.975ZM116.93 141.292C116.93 140.702 116.74 140.252 116.36 139.942C115.98 139.622 115.425 139.462 114.695 139.462H112.715V143.122H114.695C115.425 143.122 115.98 142.962 116.36 142.642C116.74 142.322 116.93 141.872 116.93 141.292ZM126.209 144.262V147.982H123.779V144.232L119.714 137.482H122.294L125.099 142.147L127.904 137.482H130.289L126.209 144.262Z" fill="white"/>
</g>
<g opacity="0.75">
<rect y="404.487" width="173.871" height="44.5384" rx="1" fill="#002D62"/>
<path d="M47.4855 423.432V426.207H52.3455V428.157H47.4855V431.982H45.0555V421.482H52.9905V423.432H47.4855ZM62.7656 430.032V431.982H54.6356V421.482H62.5706V423.432H57.0506V425.712H61.9256V427.602H57.0506V430.032H62.7656ZM72.409 426.522C73.009 426.712 73.479 427.032 73.819 427.482C74.159 427.922 74.329 428.467 74.329 429.117C74.329 430.037 73.969 430.747 73.249 431.247C72.539 431.737 71.499 431.982 70.129 431.982H64.699V421.482H69.829C71.109 421.482 72.089 421.727 72.769 422.217C73.459 422.707 73.804 423.372 73.804 424.212C73.804 424.722 73.679 425.177 73.429 425.577C73.189 425.977 72.849 426.292 72.409 426.522ZM67.114 423.312V425.787H69.529C70.129 425.787 70.584 425.682 70.894 425.472C71.204 425.262 71.359 424.952 71.359 424.542C71.359 424.132 71.204 423.827 70.894 423.627C70.584 423.417 70.129 423.312 69.529 423.312H67.114ZM69.949 430.152C70.589 430.152 71.069 430.047 71.389 429.837C71.719 429.627 71.884 429.302 71.884 428.862C71.884 427.992 71.239 427.557 69.949 427.557H67.114V430.152H69.949ZM82.8588 431.982L80.8338 429.057H80.7138H78.5988V431.982H76.1688V421.482H80.7138C81.6438 421.482 82.4488 421.637 83.1288 421.947C83.8188 422.257 84.3488 422.697 84.7188 423.267C85.0888 423.837 85.2738 424.512 85.2738 425.292C85.2738 426.072 85.0838 426.747 84.7038 427.317C84.3338 427.877 83.8038 428.307 83.1138 428.607L85.4688 431.982H82.8588ZM82.8138 425.292C82.8138 424.702 82.6238 424.252 82.2438 423.942C81.8638 423.622 81.3088 423.462 80.5788 423.462H78.5988V427.122H80.5788C81.3088 427.122 81.8638 426.962 82.2438 426.642C82.6238 426.322 82.8138 425.872 82.8138 425.292ZM91.864 432.162C90.364 432.162 89.194 431.747 88.354 430.917C87.524 430.087 87.109 428.902 87.109 427.362V421.482H89.539V427.272C89.539 429.152 90.319 430.092 91.879 430.092C92.639 430.092 93.219 429.867 93.619 429.417C94.019 428.957 94.219 428.242 94.219 427.272V421.482H96.619V427.362C96.619 428.902 96.199 430.087 95.359 430.917C94.529 431.747 93.364 432.162 91.864 432.162ZM105.716 429.732H100.841L99.9106 431.982H97.4206L102.101 421.482H104.501L109.196 431.982H106.646L105.716 429.732ZM104.951 427.887L103.286 423.867L101.621 427.887H104.951ZM116.975 431.982L114.95 429.057H114.83H112.715V431.982H110.285V421.482H114.83C115.76 421.482 116.565 421.637 117.245 421.947C117.935 422.257 118.465 422.697 118.835 423.267C119.205 423.837 119.39 424.512 119.39 425.292C119.39 426.072 119.2 426.747 118.82 427.317C118.45 427.877 117.92 428.307 117.23 428.607L119.585 431.982H116.975ZM116.93 425.292C116.93 424.702 116.74 424.252 116.36 423.942C115.98 423.622 115.425 423.462 114.695 423.462H112.715V427.122H114.695C115.425 427.122 115.98 426.962 116.36 426.642C116.74 426.322 116.93 425.872 116.93 425.292ZM126.209 428.262V431.982H123.779V428.232L119.714 421.482H122.294L125.099 426.147L127.904 421.482H130.289L126.209 428.262Z" fill="white"/>
</g>
<g opacity="0.75">
<rect y="169.974" width="173.871" height="44.5384" rx="1" fill="#002D62"/>
<path d="M67.7575 197.469L67.7425 191.169L64.6525 196.359H63.5575L60.4825 191.304V197.469H58.2025V186.969H60.2125L64.1425 193.494L68.0125 186.969H70.0075L70.0375 197.469H67.7575ZM79.4436 195.219H74.5686L73.6386 197.469H71.1486L75.8286 186.969H78.2286L82.9236 197.469H80.3736L79.4436 195.219ZM78.6786 193.374L77.0136 189.354L75.3486 193.374H78.6786ZM90.703 197.469L88.678 194.544H88.558H86.443V197.469H84.013V186.969H88.558C89.488 186.969 90.293 187.124 90.973 187.434C91.663 187.744 92.193 188.184 92.563 188.754C92.933 189.324 93.118 189.999 93.118 190.779C93.118 191.559 92.928 192.234 92.548 192.804C92.178 193.364 91.648 193.794 90.958 194.094L93.313 197.469H90.703ZM90.658 190.779C90.658 190.189 90.468 189.739 90.088 189.429C89.708 189.109 89.153 188.949 88.423 188.949H86.443V192.609H88.423C89.153 192.609 89.708 192.449 90.088 192.129C90.468 191.809 90.658 191.359 90.658 190.779ZM100.068 197.649C98.9983 197.649 98.0283 197.419 97.1583 196.959C96.2983 196.489 95.6183 195.844 95.1183 195.024C94.6283 194.194 94.3833 193.259 94.3833 192.219C94.3833 191.179 94.6283 190.249 95.1183 189.429C95.6183 188.599 96.2983 187.954 97.1583 187.494C98.0283 187.024 99.0033 186.789 100.083 186.789C100.993 186.789 101.813 186.949 102.543 187.269C103.283 187.589 103.903 188.049 104.403 188.649L102.843 190.089C102.133 189.269 101.253 188.859 100.203 188.859C99.5533 188.859 98.9733 189.004 98.4633 189.294C97.9533 189.574 97.5533 189.969 97.2633 190.479C96.9833 190.989 96.8433 191.569 96.8433 192.219C96.8433 192.869 96.9833 193.449 97.2633 193.959C97.5533 194.469 97.9533 194.869 98.4633 195.159C98.9733 195.439 99.5533 195.579 100.203 195.579C101.253 195.579 102.133 195.164 102.843 194.334L104.403 195.774C103.903 196.384 103.283 196.849 102.543 197.169C101.803 197.489 100.978 197.649 100.068 197.649ZM115.674 186.969V197.469H113.244V193.164H108.474V197.469H106.044V186.969H108.474V191.109H113.244V186.969H115.674Z" fill="white"/>
</g>
<g opacity="0.75">
<rect y="453.974" width="173.871" height="44.5384" rx="1" fill="#002D62"/>
<path d="M67.7575 481.469L67.7425 475.169L64.6525 480.359H63.5575L60.4825 475.304V481.469H58.2025V470.969H60.2125L64.1425 477.494L68.0125 470.969H70.0075L70.0375 481.469H67.7575ZM79.4436 479.219H74.5686L73.6386 481.469H71.1486L75.8286 470.969H78.2286L82.9236 481.469H80.3736L79.4436 479.219ZM78.6786 477.374L77.0136 473.354L75.3486 477.374H78.6786ZM90.703 481.469L88.678 478.544H88.558H86.443V481.469H84.013V470.969H88.558C89.488 470.969 90.293 471.124 90.973 471.434C91.663 471.744 92.193 472.184 92.563 472.754C92.933 473.324 93.118 473.999 93.118 474.779C93.118 475.559 92.928 476.234 92.548 476.804C92.178 477.364 91.648 477.794 90.958 478.094L93.313 481.469H90.703ZM90.658 474.779C90.658 474.189 90.468 473.739 90.088 473.429C89.708 473.109 89.153 472.949 88.423 472.949H86.443V476.609H88.423C89.153 476.609 89.708 476.449 90.088 476.129C90.468 475.809 90.658 475.359 90.658 474.779ZM100.068 481.649C98.9983 481.649 98.0283 481.419 97.1583 480.959C96.2983 480.489 95.6183 479.844 95.1183 479.024C94.6283 478.194 94.3833 477.259 94.3833 476.219C94.3833 475.179 94.6283 474.249 95.1183 473.429C95.6183 472.599 96.2983 471.954 97.1583 471.494C98.0283 471.024 99.0033 470.789 100.083 470.789C100.993 470.789 101.813 470.949 102.543 471.269C103.283 471.589 103.903 472.049 104.403 472.649L102.843 474.089C102.133 473.269 101.253 472.859 100.203 472.859C99.5533 472.859 98.9733 473.004 98.4633 473.294C97.9533 473.574 97.5533 473.969 97.2633 474.479C96.9833 474.989 96.8433 475.569 96.8433 476.219C96.8433 476.869 96.9833 477.449 97.2633 477.959C97.5533 478.469 97.9533 478.869 98.4633 479.159C98.9733 479.439 99.5533 479.579 100.203 479.579C101.253 479.579 102.133 479.164 102.843 478.334L104.403 479.774C103.903 480.384 103.283 480.849 102.543 481.169C101.803 481.489 100.978 481.649 100.068 481.649ZM115.674 470.969V481.469H113.244V477.164H108.474V481.469H106.044V470.969H108.474V475.109H113.244V470.969H115.674Z" fill="white"/>
</g>
<g opacity="0.75">
<rect y="219.462" width="173.871" height="44.5384" rx="1" fill="#002D62"/>
<path d="M71.4309 244.706H66.5559L65.6259 246.956H63.1359L67.8159 236.456H70.2159L74.9109 246.956H72.3609L71.4309 244.706ZM70.6659 242.861L69.0009 238.841L67.3359 242.861H70.6659ZM80.5453 236.456C81.4753 236.456 82.2803 236.611 82.9603 236.921C83.6503 237.231 84.1803 237.671 84.5503 238.241C84.9203 238.811 85.1053 239.486 85.1053 240.266C85.1053 241.036 84.9203 241.711 84.5503 242.291C84.1803 242.861 83.6503 243.301 82.9603 243.611C82.2803 243.911 81.4753 244.061 80.5453 244.061H78.4303V246.956H76.0003V236.456H80.5453ZM80.4103 242.081C81.1403 242.081 81.6953 241.926 82.0753 241.616C82.4553 241.296 82.6453 240.846 82.6453 240.266C82.6453 239.676 82.4553 239.226 82.0753 238.916C81.6953 238.596 81.1403 238.436 80.4103 238.436H78.4303V242.081H80.4103ZM93.5302 246.956L91.5052 244.031H91.3852H89.2702V246.956H86.8402V236.456H91.3852C92.3152 236.456 93.1202 236.611 93.8002 236.921C94.4902 237.231 95.0202 237.671 95.3902 238.241C95.7602 238.811 95.9452 239.486 95.9452 240.266C95.9452 241.046 95.7552 241.721 95.3752 242.291C95.0052 242.851 94.4752 243.281 93.7852 243.581L96.1402 246.956H93.5302ZM93.4852 240.266C93.4852 239.676 93.2952 239.226 92.9152 238.916C92.5352 238.596 91.9802 238.436 91.2502 238.436H89.2702V242.096H91.2502C91.9802 242.096 92.5352 241.936 92.9152 241.616C93.2952 241.296 93.4852 240.846 93.4852 240.266ZM97.8704 236.456H100.3V246.956H97.8704V236.456ZM102.792 236.456H105.222V244.976H110.487V246.956H102.792V236.456Z" fill="white"/>
</g>
<g opacity="0.75">
<rect y="503.462" width="173.871" height="44.5384" rx="1" fill="#002D62"/>
<path d="M71.4309 528.706H66.5559L65.6259 530.956H63.1359L67.8159 520.456H70.2159L74.9109 530.956H72.3609L71.4309 528.706ZM70.6659 526.861L69.0009 522.841L67.3359 526.861H70.6659ZM80.5453 520.456C81.4753 520.456 82.2803 520.611 82.9603 520.921C83.6503 521.231 84.1803 521.671 84.5503 522.241C84.9203 522.811 85.1053 523.486 85.1053 524.266C85.1053 525.036 84.9203 525.711 84.5503 526.291C84.1803 526.861 83.6503 527.301 82.9603 527.611C82.2803 527.911 81.4753 528.061 80.5453 528.061H78.4303V530.956H76.0003V520.456H80.5453ZM80.4103 526.081C81.1403 526.081 81.6953 525.926 82.0753 525.616C82.4553 525.296 82.6453 524.846 82.6453 524.266C82.6453 523.676 82.4553 523.226 82.0753 522.916C81.6953 522.596 81.1403 522.436 80.4103 522.436H78.4303V526.081H80.4103ZM93.5302 530.956L91.5052 528.031H91.3852H89.2702V530.956H86.8402V520.456H91.3852C92.3152 520.456 93.1202 520.611 93.8002 520.921C94.4902 521.231 95.0202 521.671 95.3902 522.241C95.7602 522.811 95.9452 523.486 95.9452 524.266C95.9452 525.046 95.7552 525.721 95.3752 526.291C95.0052 526.851 94.4752 527.281 93.7852 527.581L96.1402 530.956H93.5302ZM93.4852 524.266C93.4852 523.676 93.2952 523.226 92.9152 522.916C92.5352 522.596 91.9802 522.436 91.2502 522.436H89.2702V526.096H91.2502C91.9802 526.096 92.5352 525.936 92.9152 525.616C93.2952 525.296 93.4852 524.846 93.4852 524.266ZM97.8704 520.456H100.3V530.956H97.8704V520.456ZM102.792 520.456H105.222V528.976H110.487V530.956H102.792V520.456Z" fill="white"/>
</g>
<g opacity="0.75">
<rect x="442.129" y="71.9897" width="173.871" height="44.5384" rx="1" fill="#1B58A0"/>
<path d="M485.559 100.17C484.729 100.17 483.924 100.06 483.144 99.8397C482.374 99.6097 481.754 99.3147 481.284 98.9547L482.109 97.1247C482.559 97.4547 483.094 97.7197 483.714 97.9197C484.334 98.1197 484.954 98.2197 485.574 98.2197C486.264 98.2197 486.774 98.1197 487.104 97.9197C487.434 97.7097 487.599 97.4347 487.599 97.0947C487.599 96.8447 487.499 96.6397 487.299 96.4797C487.109 96.3097 486.859 96.1747 486.549 96.0747C486.249 95.9747 485.839 95.8647 485.319 95.7447C484.519 95.5547 483.864 95.3647 483.354 95.1747C482.844 94.9847 482.404 94.6797 482.034 94.2597C481.674 93.8397 481.494 93.2797 481.494 92.5797C481.494 91.9697 481.659 91.4197 481.989 90.9297C482.319 90.4297 482.814 90.0347 483.474 89.7447C484.144 89.4547 484.959 89.3097 485.919 89.3097C486.589 89.3097 487.244 89.3897 487.884 89.5497C488.524 89.7097 489.084 89.9397 489.564 90.2397L488.814 92.0847C487.844 91.5347 486.874 91.2597 485.904 91.2597C485.224 91.2597 484.719 91.3697 484.389 91.5897C484.069 91.8097 483.909 92.0997 483.909 92.4597C483.909 92.8197 484.094 93.0897 484.464 93.2697C484.844 93.4397 485.419 93.6097 486.189 93.7797C486.989 93.9697 487.644 94.1597 488.154 94.3497C488.664 94.5397 489.099 94.8397 489.459 95.2497C489.829 95.6597 490.014 96.2147 490.014 96.9147C490.014 97.5147 489.844 98.0647 489.504 98.5647C489.174 99.0547 488.674 99.4447 488.004 99.7347C487.334 100.025 486.519 100.17 485.559 100.17ZM499.804 98.0397V99.9897H491.674V89.4897H499.609V91.4397H494.089V93.7197H498.964V95.6097H494.089V98.0397H499.804ZM506.283 89.4897C507.213 89.4897 508.018 89.6447 508.698 89.9547C509.388 90.2647 509.918 90.7047 510.288 91.2747C510.658 91.8447 510.843 92.5197 510.843 93.2997C510.843 94.0697 510.658 94.7447 510.288 95.3247C509.918 95.8947 509.388 96.3347 508.698 96.6447C508.018 96.9447 507.213 97.0947 506.283 97.0947H504.168V99.9897H501.738V89.4897H506.283ZM506.148 95.1147C506.878 95.1147 507.433 94.9597 507.813 94.6497C508.193 94.3297 508.383 93.8797 508.383 93.2997C508.383 92.7097 508.193 92.2597 507.813 91.9497C507.433 91.6297 506.878 91.4697 506.148 91.4697H504.168V95.1147H506.148ZM514.459 91.4697H511.099V89.4897H520.249V91.4697H516.889V99.9897H514.459V91.4697ZM529.687 98.0397V99.9897H521.557V89.4897H529.492V91.4397H523.972V93.7197H528.847V95.6097H523.972V98.0397H529.687ZM541.175 99.9897L541.16 93.6897L538.07 98.8797H536.975L533.9 93.8247V99.9897H531.62V89.4897H533.63L537.56 96.0147L541.43 89.4897H543.425L543.455 99.9897H541.175ZM553.657 94.5297C554.257 94.7197 554.727 95.0397 555.067 95.4897C555.407 95.9297 555.577 96.4747 555.577 97.1247C555.577 98.0447 555.217 98.7547 554.497 99.2547C553.787 99.7447 552.747 99.9897 551.377 99.9897H545.947V89.4897H551.077C552.357 89.4897 553.337 89.7347 554.017 90.2247C554.707 90.7147 555.052 91.3797 555.052 92.2197C555.052 92.7297 554.927 93.1847 554.677 93.5847C554.437 93.9847 554.097 94.2997 553.657 94.5297ZM548.362 91.3197V93.7947H550.777C551.377 93.7947 551.832 93.6897 552.142 93.4797C552.452 93.2697 552.607 92.9597 552.607 92.5497C552.607 92.1397 552.452 91.8347 552.142 91.6347C551.832 91.4247 551.377 91.3197 550.777 91.3197H548.362ZM551.197 98.1597C551.837 98.1597 552.317 98.0547 552.637 97.8447C552.967 97.6347 553.132 97.3097 553.132 96.8697C553.132 95.9997 552.487 95.5647 551.197 95.5647H548.362V98.1597H551.197ZM565.546 98.0397V99.9897H557.416V89.4897H565.351V91.4397H559.831V93.7197H564.706V95.6097H559.831V98.0397H565.546ZM574.17 99.9897L572.145 97.0647H572.025H569.91V99.9897H567.48V89.4897H572.025C572.955 89.4897 573.76 89.6447 574.44 89.9547C575.13 90.2647 575.66 90.7047 576.03 91.2747C576.4 91.8447 576.585 92.5197 576.585 93.2997C576.585 94.0797 576.395 94.7547 576.015 95.3247C575.645 95.8847 575.115 96.3147 574.425 96.6147L576.78 99.9897H574.17ZM574.125 93.2997C574.125 92.7097 573.935 92.2597 573.555 91.9497C573.175 91.6297 572.62 91.4697 571.89 91.4697H569.91V95.1297H571.89C572.62 95.1297 573.175 94.9697 573.555 94.6497C573.935 94.3297 574.125 93.8797 574.125 93.2997Z" fill="white"/>
</g>
<g opacity="0.75">
<rect x="442.129" y="355.99" width="173.871" height="44.5384" rx="1" fill="#1B58A0"/>
<path d="M485.559 384.17C484.729 384.17 483.924 384.06 483.144 383.84C482.374 383.61 481.754 383.315 481.284 382.955L482.109 381.125C482.559 381.455 483.094 381.72 483.714 381.92C484.334 382.12 484.954 382.22 485.574 382.22C486.264 382.22 486.774 382.12 487.104 381.92C487.434 381.71 487.599 381.435 487.599 381.095C487.599 380.845 487.499 380.64 487.299 380.48C487.109 380.31 486.859 380.175 486.549 380.075C486.249 379.975 485.839 379.865 485.319 379.745C484.519 379.555 483.864 379.365 483.354 379.175C482.844 378.985 482.404 378.68 482.034 378.26C481.674 377.84 481.494 377.28 481.494 376.58C481.494 375.97 481.659 375.42 481.989 374.93C482.319 374.43 482.814 374.035 483.474 373.745C484.144 373.455 484.959 373.31 485.919 373.31C486.589 373.31 487.244 373.39 487.884 373.55C488.524 373.71 489.084 373.94 489.564 374.24L488.814 376.085C487.844 375.535 486.874 375.26 485.904 375.26C485.224 375.26 484.719 375.37 484.389 375.59C484.069 375.81 483.909 376.1 483.909 376.46C483.909 376.82 484.094 377.09 484.464 377.27C484.844 377.44 485.419 377.61 486.189 377.78C486.989 377.97 487.644 378.16 488.154 378.35C488.664 378.54 489.099 378.84 489.459 379.25C489.829 379.66 490.014 380.215 490.014 380.915C490.014 381.515 489.844 382.065 489.504 382.565C489.174 383.055 488.674 383.445 488.004 383.735C487.334 384.025 486.519 384.17 485.559 384.17ZM499.804 382.04V383.99H491.674V373.49H499.609V375.44H494.089V377.72H498.964V379.61H494.089V382.04H499.804ZM506.283 373.49C507.213 373.49 508.018 373.645 508.698 373.955C509.388 374.265 509.918 374.705 510.288 375.275C510.658 375.845 510.843 376.52 510.843 377.3C510.843 378.07 510.658 378.745 510.288 379.325C509.918 379.895 509.388 380.335 508.698 380.645C508.018 380.945 507.213 381.095 506.283 381.095H504.168V383.99H501.738V373.49H506.283ZM506.148 379.115C506.878 379.115 507.433 378.96 507.813 378.65C508.193 378.33 508.383 377.88 508.383 377.3C508.383 376.71 508.193 376.26 507.813 375.95C507.433 375.63 506.878 375.47 506.148 375.47H504.168V379.115H506.148ZM514.459 375.47H511.099V373.49H520.249V375.47H516.889V383.99H514.459V375.47ZM529.687 382.04V383.99H521.557V373.49H529.492V375.44H523.972V377.72H528.847V379.61H523.972V382.04H529.687ZM541.175 383.99L541.16 377.69L538.07 382.88H536.975L533.9 377.825V383.99H531.62V373.49H533.63L537.56 380.015L541.43 373.49H543.425L543.455 383.99H541.175ZM553.657 378.53C554.257 378.72 554.727 379.04 555.067 379.49C555.407 379.93 555.577 380.475 555.577 381.125C555.577 382.045 555.217 382.755 554.497 383.255C553.787 383.745 552.747 383.99 551.377 383.99H545.947V373.49H551.077C552.357 373.49 553.337 373.735 554.017 374.225C554.707 374.715 555.052 375.38 555.052 376.22C555.052 376.73 554.927 377.185 554.677 377.585C554.437 377.985 554.097 378.3 553.657 378.53ZM548.362 375.32V377.795H550.777C551.377 377.795 551.832 377.69 552.142 377.48C552.452 377.27 552.607 376.96 552.607 376.55C552.607 376.14 552.452 375.835 552.142 375.635C551.832 375.425 551.377 375.32 550.777 375.32H548.362ZM551.197 382.16C551.837 382.16 552.317 382.055 552.637 381.845C552.967 381.635 553.132 381.31 553.132 380.87C553.132 380 552.487 379.565 551.197 379.565H548.362V382.16H551.197ZM565.546 382.04V383.99H557.416V373.49H565.351V375.44H559.831V377.72H564.706V379.61H559.831V382.04H565.546ZM574.17 383.99L572.145 381.065H572.025H569.91V383.99H567.48V373.49H572.025C572.955 373.49 573.76 373.645 574.44 373.955C575.13 374.265 575.66 374.705 576.03 375.275C576.4 375.845 576.585 376.52 576.585 377.3C576.585 378.08 576.395 378.755 576.015 379.325C575.645 379.885 575.115 380.315 574.425 380.615L576.78 383.99H574.17ZM574.125 377.3C574.125 376.71 573.935 376.26 573.555 375.95C573.175 375.63 572.62 375.47 571.89 375.47H569.91V379.13H571.89C572.62 379.13 573.175 378.97 573.555 378.65C573.935 378.33 574.125 377.88 574.125 377.3Z" fill="white"/>
</g>
<g opacity="0.75">
<rect x="442.129" y="121.477" width="173.871" height="44.5384" rx="1" fill="#1B58A0"/>
<path d="M496.444 149.657C495.354 149.657 494.369 149.422 493.489 148.952C492.619 148.482 491.934 147.837 491.434 147.017C490.944 146.187 490.699 145.257 490.699 144.227C490.699 143.197 490.944 142.272 491.434 141.452C491.934 140.622 492.619 139.972 493.489 139.502C494.369 139.032 495.354 138.797 496.444 138.797C497.534 138.797 498.514 139.032 499.384 139.502C500.254 139.972 500.939 140.622 501.439 141.452C501.939 142.272 502.189 143.197 502.189 144.227C502.189 145.257 501.939 146.187 501.439 147.017C500.939 147.837 500.254 148.482 499.384 148.952C498.514 149.422 497.534 149.657 496.444 149.657ZM496.444 147.587C497.064 147.587 497.624 147.447 498.124 147.167C498.624 146.877 499.014 146.477 499.294 145.967C499.584 145.457 499.729 144.877 499.729 144.227C499.729 143.577 499.584 142.997 499.294 142.487C499.014 141.977 498.624 141.582 498.124 141.302C497.624 141.012 497.064 140.867 496.444 140.867C495.824 140.867 495.264 141.012 494.764 141.302C494.264 141.582 493.869 141.977 493.579 142.487C493.299 142.997 493.159 143.577 493.159 144.227C493.159 144.877 493.299 145.457 493.579 145.967C493.869 146.477 494.264 146.877 494.764 147.167C495.264 147.447 495.824 147.587 496.444 147.587ZM509.04 149.657C507.97 149.657 507 149.427 506.13 148.967C505.27 148.497 504.59 147.852 504.09 147.032C503.6 146.202 503.355 145.267 503.355 144.227C503.355 143.187 503.6 142.257 504.09 141.437C504.59 140.607 505.27 139.962 506.13 139.502C507 139.032 507.975 138.797 509.055 138.797C509.965 138.797 510.785 138.957 511.515 139.277C512.255 139.597 512.875 140.057 513.375 140.657L511.815 142.097C511.105 141.277 510.225 140.867 509.175 140.867C508.525 140.867 507.945 141.012 507.435 141.302C506.925 141.582 506.525 141.977 506.235 142.487C505.955 142.997 505.815 143.577 505.815 144.227C505.815 144.877 505.955 145.457 506.235 145.967C506.525 146.477 506.925 146.877 507.435 147.167C507.945 147.447 508.525 147.587 509.175 147.587C510.225 147.587 511.105 147.172 511.815 146.342L513.375 147.782C512.875 148.392 512.255 148.857 511.515 149.177C510.775 149.497 509.95 149.657 509.04 149.657ZM517.089 140.957H513.729V138.977H522.879V140.957H519.519V149.477H517.089V140.957ZM529.125 149.657C528.035 149.657 527.05 149.422 526.17 148.952C525.3 148.482 524.615 147.837 524.115 147.017C523.625 146.187 523.38 145.257 523.38 144.227C523.38 143.197 523.625 142.272 524.115 141.452C524.615 140.622 525.3 139.972 526.17 139.502C527.05 139.032 528.035 138.797 529.125 138.797C530.215 138.797 531.195 139.032 532.065 139.502C532.935 139.972 533.62 140.622 534.12 141.452C534.62 142.272 534.87 143.197 534.87 144.227C534.87 145.257 534.62 146.187 534.12 147.017C533.62 147.837 532.935 148.482 532.065 148.952C531.195 149.422 530.215 149.657 529.125 149.657ZM529.125 147.587C529.745 147.587 530.305 147.447 530.805 147.167C531.305 146.877 531.695 146.477 531.975 145.967C532.265 145.457 532.41 144.877 532.41 144.227C532.41 143.577 532.265 142.997 531.975 142.487C531.695 141.977 531.305 141.582 530.805 141.302C530.305 141.012 529.745 140.867 529.125 140.867C528.505 140.867 527.945 141.012 527.445 141.302C526.945 141.582 526.55 141.977 526.26 142.487C525.98 142.997 525.84 143.577 525.84 144.227C525.84 144.877 525.98 145.457 526.26 145.967C526.55 146.477 526.945 146.877 527.445 147.167C527.945 147.447 528.505 147.587 529.125 147.587ZM544.406 144.017C545.006 144.207 545.476 144.527 545.816 144.977C546.156 145.417 546.326 145.962 546.326 146.612C546.326 147.532 545.966 148.242 545.246 148.742C544.536 149.232 543.496 149.477 542.126 149.477H536.696V138.977H541.826C543.106 138.977 544.086 139.222 544.766 139.712C545.456 140.202 545.801 140.867 545.801 141.707C545.801 142.217 545.676 142.672 545.426 143.072C545.186 143.472 544.846 143.787 544.406 144.017ZM539.111 140.807V143.282H541.526C542.126 143.282 542.581 143.177 542.891 142.967C543.201 142.757 543.356 142.447 543.356 142.037C543.356 141.627 543.201 141.322 542.891 141.122C542.581 140.912 542.126 140.807 541.526 140.807H539.111ZM541.946 147.647C542.586 147.647 543.066 147.542 543.386 147.332C543.716 147.122 543.881 146.797 543.881 146.357C543.881 145.487 543.236 145.052 541.946 145.052H539.111V147.647H541.946ZM556.296 147.527V149.477H548.166V138.977H556.101V140.927H550.581V143.207H555.456V145.097H550.581V147.527H556.296ZM564.919 149.477L562.894 146.552H562.774H560.659V149.477H558.229V138.977H562.774C563.704 138.977 564.509 139.132 565.189 139.442C565.879 139.752 566.409 140.192 566.779 140.762C567.149 141.332 567.334 142.007 567.334 142.787C567.334 143.567 567.144 144.242 566.764 144.812C566.394 145.372 565.864 145.802 565.174 146.102L567.529 149.477H564.919ZM564.874 142.787C564.874 142.197 564.684 141.747 564.304 141.437C563.924 141.117 563.369 140.957 562.639 140.957H560.659V144.617H562.639C563.369 144.617 563.924 144.457 564.304 144.137C564.684 143.817 564.874 143.367 564.874 142.787Z" fill="white"/>
</g>
<g opacity="0.75">
<rect x="442.129" y="405.477" width="173.871" height="44.5384" rx="1" fill="#1B58A0"/>
<path d="M496.444 433.657C495.354 433.657 494.369 433.422 493.489 432.952C492.619 432.482 491.934 431.837 491.434 431.017C490.944 430.187 490.699 429.257 490.699 428.227C490.699 427.197 490.944 426.272 491.434 425.452C491.934 424.622 492.619 423.972 493.489 423.502C494.369 423.032 495.354 422.797 496.444 422.797C497.534 422.797 498.514 423.032 499.384 423.502C500.254 423.972 500.939 424.622 501.439 425.452C501.939 426.272 502.189 427.197 502.189 428.227C502.189 429.257 501.939 430.187 501.439 431.017C500.939 431.837 500.254 432.482 499.384 432.952C498.514 433.422 497.534 433.657 496.444 433.657ZM496.444 431.587C497.064 431.587 497.624 431.447 498.124 431.167C498.624 430.877 499.014 430.477 499.294 429.967C499.584 429.457 499.729 428.877 499.729 428.227C499.729 427.577 499.584 426.997 499.294 426.487C499.014 425.977 498.624 425.582 498.124 425.302C497.624 425.012 497.064 424.867 496.444 424.867C495.824 424.867 495.264 425.012 494.764 425.302C494.264 425.582 493.869 425.977 493.579 426.487C493.299 426.997 493.159 427.577 493.159 428.227C493.159 428.877 493.299 429.457 493.579 429.967C493.869 430.477 494.264 430.877 494.764 431.167C495.264 431.447 495.824 431.587 496.444 431.587ZM509.04 433.657C507.97 433.657 507 433.427 506.13 432.967C505.27 432.497 504.59 431.852 504.09 431.032C503.6 430.202 503.355 429.267 503.355 428.227C503.355 427.187 503.6 426.257 504.09 425.437C504.59 424.607 505.27 423.962 506.13 423.502C507 423.032 507.975 422.797 509.055 422.797C509.965 422.797 510.785 422.957 511.515 423.277C512.255 423.597 512.875 424.057 513.375 424.657L511.815 426.097C511.105 425.277 510.225 424.867 509.175 424.867C508.525 424.867 507.945 425.012 507.435 425.302C506.925 425.582 506.525 425.977 506.235 426.487C505.955 426.997 505.815 427.577 505.815 428.227C505.815 428.877 505.955 429.457 506.235 429.967C506.525 430.477 506.925 430.877 507.435 431.167C507.945 431.447 508.525 431.587 509.175 431.587C510.225 431.587 511.105 431.172 511.815 430.342L513.375 431.782C512.875 432.392 512.255 432.857 511.515 433.177C510.775 433.497 509.95 433.657 509.04 433.657ZM517.089 424.957H513.729V422.977H522.879V424.957H519.519V433.477H517.089V424.957ZM529.125 433.657C528.035 433.657 527.05 433.422 526.17 432.952C525.3 432.482 524.615 431.837 524.115 431.017C523.625 430.187 523.38 429.257 523.38 428.227C523.38 427.197 523.625 426.272 524.115 425.452C524.615 424.622 525.3 423.972 526.17 423.502C527.05 423.032 528.035 422.797 529.125 422.797C530.215 422.797 531.195 423.032 532.065 423.502C532.935 423.972 533.62 424.622 534.12 425.452C534.62 426.272 534.87 427.197 534.87 428.227C534.87 429.257 534.62 430.187 534.12 431.017C533.62 431.837 532.935 432.482 532.065 432.952C531.195 433.422 530.215 433.657 529.125 433.657ZM529.125 431.587C529.745 431.587 530.305 431.447 530.805 431.167C531.305 430.877 531.695 430.477 531.975 429.967C532.265 429.457 532.41 428.877 532.41 428.227C532.41 427.577 532.265 426.997 531.975 426.487C531.695 425.977 531.305 425.582 530.805 425.302C530.305 425.012 529.745 424.867 529.125 424.867C528.505 424.867 527.945 425.012 527.445 425.302C526.945 425.582 526.55 425.977 526.26 426.487C525.98 426.997 525.84 427.577 525.84 428.227C525.84 428.877 525.98 429.457 526.26 429.967C526.55 430.477 526.945 430.877 527.445 431.167C527.945 431.447 528.505 431.587 529.125 431.587ZM544.406 428.017C545.006 428.207 545.476 428.527 545.816 428.977C546.156 429.417 546.326 429.962 546.326 430.612C546.326 431.532 545.966 432.242 545.246 432.742C544.536 433.232 543.496 433.477 542.126 433.477H536.696V422.977H541.826C543.106 422.977 544.086 423.222 544.766 423.712C545.456 424.202 545.801 424.867 545.801 425.707C545.801 426.217 545.676 426.672 545.426 427.072C545.186 427.472 544.846 427.787 544.406 428.017ZM539.111 424.807V427.282H541.526C542.126 427.282 542.581 427.177 542.891 426.967C543.201 426.757 543.356 426.447 543.356 426.037C543.356 425.627 543.201 425.322 542.891 425.122C542.581 424.912 542.126 424.807 541.526 424.807H539.111ZM541.946 431.647C542.586 431.647 543.066 431.542 543.386 431.332C543.716 431.122 543.881 430.797 543.881 430.357C543.881 429.487 543.236 429.052 541.946 429.052H539.111V431.647H541.946ZM556.296 431.527V433.477H548.166V422.977H556.101V424.927H550.581V427.207H555.456V429.097H550.581V431.527H556.296ZM564.919 433.477L562.894 430.552H562.774H560.659V433.477H558.229V422.977H562.774C563.704 422.977 564.509 423.132 565.189 423.442C565.879 423.752 566.409 424.192 566.779 424.762C567.149 425.332 567.334 426.007 567.334 426.787C567.334 427.567 567.144 428.242 566.764 428.812C566.394 429.372 565.864 429.802 565.174 430.102L567.529 433.477H564.919ZM564.874 426.787C564.874 426.197 564.684 425.747 564.304 425.437C563.924 425.117 563.369 424.957 562.639 424.957H560.659V428.617H562.639C563.369 428.617 563.924 428.457 564.304 428.137C564.684 427.817 564.874 427.367 564.874 426.787Z" fill="white"/>
</g>
<g opacity="0.75">
<rect x="442.129" y="170.469" width="173.871" height="44.5384" rx="1" fill="#1B58A0"/>
<path d="M493.768 187.969V198.469H491.773L486.538 192.094V198.469H484.138V187.969H486.148L491.368 194.344V187.969H493.768ZM501.337 198.649C500.247 198.649 499.262 198.414 498.382 197.944C497.512 197.474 496.827 196.829 496.327 196.009C495.837 195.179 495.592 194.249 495.592 193.219C495.592 192.189 495.837 191.264 496.327 190.444C496.827 189.614 497.512 188.964 498.382 188.494C499.262 188.024 500.247 187.789 501.337 187.789C502.427 187.789 503.407 188.024 504.277 188.494C505.147 188.964 505.832 189.614 506.332 190.444C506.832 191.264 507.082 192.189 507.082 193.219C507.082 194.249 506.832 195.179 506.332 196.009C505.832 196.829 505.147 197.474 504.277 197.944C503.407 198.414 502.427 198.649 501.337 198.649ZM501.337 196.579C501.957 196.579 502.517 196.439 503.017 196.159C503.517 195.869 503.907 195.469 504.187 194.959C504.477 194.449 504.622 193.869 504.622 193.219C504.622 192.569 504.477 191.989 504.187 191.479C503.907 190.969 503.517 190.574 503.017 190.294C502.517 190.004 501.957 189.859 501.337 189.859C500.717 189.859 500.157 190.004 499.657 190.294C499.157 190.574 498.762 190.969 498.472 191.479C498.192 191.989 498.052 192.569 498.052 193.219C498.052 193.869 498.192 194.449 498.472 194.959C498.762 195.469 499.157 195.869 499.657 196.159C500.157 196.439 500.717 196.579 501.337 196.579ZM518.651 187.969L514.106 198.469H511.706L507.176 187.969H509.801L512.996 195.469L516.236 187.969H518.651ZM527.658 196.519V198.469H519.528V187.969H527.463V189.919H521.943V192.199H526.818V194.089H521.943V196.519H527.658ZM539.147 198.469L539.132 192.169L536.042 197.359H534.947L531.872 192.304V198.469H529.592V187.969H531.602L535.532 194.494L539.402 187.969H541.397L541.427 198.469H539.147ZM551.628 193.009C552.228 193.199 552.698 193.519 553.038 193.969C553.378 194.409 553.548 194.954 553.548 195.604C553.548 196.524 553.188 197.234 552.468 197.734C551.758 198.224 550.718 198.469 549.348 198.469H543.918V187.969H549.048C550.328 187.969 551.308 188.214 551.988 188.704C552.678 189.194 553.023 189.859 553.023 190.699C553.023 191.209 552.898 191.664 552.648 192.064C552.408 192.464 552.068 192.779 551.628 193.009ZM546.333 189.799V192.274H548.748C549.348 192.274 549.803 192.169 550.113 191.959C550.423 191.749 550.578 191.439 550.578 191.029C550.578 190.619 550.423 190.314 550.113 190.114C549.803 189.904 549.348 189.799 548.748 189.799H546.333ZM549.168 196.639C549.808 196.639 550.288 196.534 550.608 196.324C550.938 196.114 551.103 195.789 551.103 195.349C551.103 194.479 550.458 194.044 549.168 194.044H546.333V196.639H549.168ZM563.518 196.519V198.469H555.388V187.969H563.323V189.919H557.803V192.199H562.678V194.089H557.803V196.519H563.518ZM572.141 198.469L570.116 195.544H569.996H567.881V198.469H565.451V187.969H569.996C570.926 187.969 571.731 188.124 572.411 188.434C573.101 188.744 573.631 189.184 574.001 189.754C574.371 190.324 574.556 190.999 574.556 191.779C574.556 192.559 574.366 193.234 573.986 193.804C573.616 194.364 573.086 194.794 572.396 195.094L574.751 198.469H572.141ZM572.096 191.779C572.096 191.189 571.906 190.739 571.526 190.429C571.146 190.109 570.591 189.949 569.861 189.949H567.881V193.609H569.861C570.591 193.609 571.146 193.449 571.526 193.129C571.906 192.809 572.096 192.359 572.096 191.779Z" fill="white"/>
</g>
<g opacity="0.75">
<rect x="442.129" y="454.469" width="173.871" height="44.5384" rx="1" fill="#1B58A0"/>
<path d="M493.768 471.969V482.469H491.773L486.538 476.094V482.469H484.138V471.969H486.148L491.368 478.344V471.969H493.768ZM501.337 482.649C500.247 482.649 499.262 482.414 498.382 481.944C497.512 481.474 496.827 480.829 496.327 480.009C495.837 479.179 495.592 478.249 495.592 477.219C495.592 476.189 495.837 475.264 496.327 474.444C496.827 473.614 497.512 472.964 498.382 472.494C499.262 472.024 500.247 471.789 501.337 471.789C502.427 471.789 503.407 472.024 504.277 472.494C505.147 472.964 505.832 473.614 506.332 474.444C506.832 475.264 507.082 476.189 507.082 477.219C507.082 478.249 506.832 479.179 506.332 480.009C505.832 480.829 505.147 481.474 504.277 481.944C503.407 482.414 502.427 482.649 501.337 482.649ZM501.337 480.579C501.957 480.579 502.517 480.439 503.017 480.159C503.517 479.869 503.907 479.469 504.187 478.959C504.477 478.449 504.622 477.869 504.622 477.219C504.622 476.569 504.477 475.989 504.187 475.479C503.907 474.969 503.517 474.574 503.017 474.294C502.517 474.004 501.957 473.859 501.337 473.859C500.717 473.859 500.157 474.004 499.657 474.294C499.157 474.574 498.762 474.969 498.472 475.479C498.192 475.989 498.052 476.569 498.052 477.219C498.052 477.869 498.192 478.449 498.472 478.959C498.762 479.469 499.157 479.869 499.657 480.159C500.157 480.439 500.717 480.579 501.337 480.579ZM518.651 471.969L514.106 482.469H511.706L507.176 471.969H509.801L512.996 479.469L516.236 471.969H518.651ZM527.658 480.519V482.469H519.528V471.969H527.463V473.919H521.943V476.199H526.818V478.089H521.943V480.519H527.658ZM539.147 482.469L539.132 476.169L536.042 481.359H534.947L531.872 476.304V482.469H529.592V471.969H531.602L535.532 478.494L539.402 471.969H541.397L541.427 482.469H539.147ZM551.628 477.009C552.228 477.199 552.698 477.519 553.038 477.969C553.378 478.409 553.548 478.954 553.548 479.604C553.548 480.524 553.188 481.234 552.468 481.734C551.758 482.224 550.718 482.469 549.348 482.469H543.918V471.969H549.048C550.328 471.969 551.308 472.214 551.988 472.704C552.678 473.194 553.023 473.859 553.023 474.699C553.023 475.209 552.898 475.664 552.648 476.064C552.408 476.464 552.068 476.779 551.628 477.009ZM546.333 473.799V476.274H548.748C549.348 476.274 549.803 476.169 550.113 475.959C550.423 475.749 550.578 475.439 550.578 475.029C550.578 474.619 550.423 474.314 550.113 474.114C549.803 473.904 549.348 473.799 548.748 473.799H546.333ZM549.168 480.639C549.808 480.639 550.288 480.534 550.608 480.324C550.938 480.114 551.103 479.789 551.103 479.349C551.103 478.479 550.458 478.044 549.168 478.044H546.333V480.639H549.168ZM563.518 480.519V482.469H555.388V471.969H563.323V473.919H557.803V476.199H562.678V478.089H557.803V480.519H563.518ZM572.141 482.469L570.116 479.544H569.996H567.881V482.469H565.451V471.969H569.996C570.926 471.969 571.731 472.124 572.411 472.434C573.101 472.744 573.631 473.184 574.001 473.754C574.371 474.324 574.556 474.999 574.556 475.779C574.556 476.559 574.366 477.234 573.986 477.804C573.616 478.364 573.086 478.794 572.396 479.094L574.751 482.469H572.141ZM572.096 475.779C572.096 475.189 571.906 474.739 571.526 474.429C571.146 474.109 570.591 473.949 569.861 473.949H567.881V477.609H569.861C570.591 477.609 571.146 477.449 571.526 477.129C571.906 476.809 572.096 476.359 572.096 475.779Z" fill="white"/>
</g>
<g opacity="0.75">
<rect x="442.129" y="219.462" width="173.871" height="44.5384" rx="1" fill="#1B58A0"/>
<path d="M485.119 236.962H489.889C491.029 236.962 492.034 237.182 492.904 237.622C493.784 238.052 494.464 238.662 494.944 239.452C495.434 240.242 495.679 241.162 495.679 242.212C495.679 243.262 495.434 244.182 494.944 244.972C494.464 245.762 493.784 246.377 492.904 246.817C492.034 247.247 491.029 247.462 489.889 247.462H485.119V236.962ZM489.769 245.467C490.819 245.467 491.654 245.177 492.274 244.597C492.904 244.007 493.219 243.212 493.219 242.212C493.219 241.212 492.904 240.422 492.274 239.842C491.654 239.252 490.819 238.957 489.769 238.957H487.549V245.467H489.769ZM505.642 245.512V247.462H497.512V236.962H505.447V238.912H499.927V241.192H504.802V243.082H499.927V245.512H505.642ZM512.571 247.642C511.501 247.642 510.531 247.412 509.661 246.952C508.801 246.482 508.121 245.837 507.621 245.017C507.131 244.187 506.886 243.252 506.886 242.212C506.886 241.172 507.131 240.242 507.621 239.422C508.121 238.592 508.801 237.947 509.661 237.487C510.531 237.017 511.506 236.782 512.586 236.782C513.496 236.782 514.316 236.942 515.046 237.262C515.786 237.582 516.406 238.042 516.906 238.642L515.346 240.082C514.636 239.262 513.756 238.852 512.706 238.852C512.056 238.852 511.476 238.997 510.966 239.287C510.456 239.567 510.056 239.962 509.766 240.472C509.486 240.982 509.346 241.562 509.346 242.212C509.346 242.862 509.486 243.442 509.766 243.952C510.056 244.462 510.456 244.862 510.966 245.152C511.476 245.432 512.056 245.572 512.706 245.572C513.756 245.572 514.636 245.157 515.346 244.327L516.906 245.767C516.406 246.377 515.786 246.842 515.046 247.162C514.306 247.482 513.481 247.642 512.571 247.642ZM526.677 245.512V247.462H518.547V236.962H526.482V238.912H520.962V241.192H525.837V243.082H520.962V245.512H526.677ZM538.165 247.462L538.15 241.162L535.06 246.352H533.965L530.89 241.297V247.462H528.61V236.962H530.62L534.55 243.487L538.42 236.962H540.415L540.445 247.462H538.165ZM550.646 242.002C551.246 242.192 551.716 242.512 552.056 242.962C552.396 243.402 552.566 243.947 552.566 244.597C552.566 245.517 552.206 246.227 551.486 246.727C550.776 247.217 549.736 247.462 548.366 247.462H542.936V236.962H548.066C549.346 236.962 550.326 237.207 551.006 237.697C551.696 238.187 552.041 238.852 552.041 239.692C552.041 240.202 551.916 240.657 551.666 241.057C551.426 241.457 551.086 241.772 550.646 242.002ZM545.351 238.792V241.267H547.766C548.366 241.267 548.821 241.162 549.131 240.952C549.441 240.742 549.596 240.432 549.596 240.022C549.596 239.612 549.441 239.307 549.131 239.107C548.821 238.897 548.366 238.792 547.766 238.792H545.351ZM548.186 245.632C548.826 245.632 549.306 245.527 549.626 245.317C549.956 245.107 550.121 244.782 550.121 244.342C550.121 243.472 549.476 243.037 548.186 243.037H545.351V245.632H548.186ZM562.536 245.512V247.462H554.406V236.962H562.341V238.912H556.821V241.192H561.696V243.082H556.821V245.512H562.536ZM571.16 247.462L569.135 244.537H569.015H566.9V247.462H564.47V236.962H569.015C569.945 236.962 570.75 237.117 571.43 237.427C572.12 237.737 572.65 238.177 573.02 238.747C573.39 239.317 573.575 239.992 573.575 240.772C573.575 241.552 573.385 242.227 573.005 242.797C572.635 243.357 572.105 243.787 571.415 244.087L573.77 247.462H571.16ZM571.115 240.772C571.115 240.182 570.925 239.732 570.545 239.422C570.165 239.102 569.61 238.942 568.88 238.942H566.9V242.602H568.88C569.61 242.602 570.165 242.442 570.545 242.122C570.925 241.802 571.115 241.352 571.115 240.772Z" fill="white"/>
</g>
<g opacity="0.75">
<rect x="442.129" y="503.462" width="173.871" height="44.5384" rx="1" fill="#1B58A0"/>
<path d="M485.119 520.962H489.889C491.029 520.962 492.034 521.182 492.904 521.622C493.784 522.052 494.464 522.662 494.944 523.452C495.434 524.242 495.679 525.162 495.679 526.212C495.679 527.262 495.434 528.182 494.944 528.972C494.464 529.762 493.784 530.377 492.904 530.817C492.034 531.247 491.029 531.462 489.889 531.462H485.119V520.962ZM489.769 529.467C490.819 529.467 491.654 529.177 492.274 528.597C492.904 528.007 493.219 527.212 493.219 526.212C493.219 525.212 492.904 524.422 492.274 523.842C491.654 523.252 490.819 522.957 489.769 522.957H487.549V529.467H489.769ZM505.642 529.512V531.462H497.512V520.962H505.447V522.912H499.927V525.192H504.802V527.082H499.927V529.512H505.642ZM512.571 531.642C511.501 531.642 510.531 531.412 509.661 530.952C508.801 530.482 508.121 529.837 507.621 529.017C507.131 528.187 506.886 527.252 506.886 526.212C506.886 525.172 507.131 524.242 507.621 523.422C508.121 522.592 508.801 521.947 509.661 521.487C510.531 521.017 511.506 520.782 512.586 520.782C513.496 520.782 514.316 520.942 515.046 521.262C515.786 521.582 516.406 522.042 516.906 522.642L515.346 524.082C514.636 523.262 513.756 522.852 512.706 522.852C512.056 522.852 511.476 522.997 510.966 523.287C510.456 523.567 510.056 523.962 509.766 524.472C509.486 524.982 509.346 525.562 509.346 526.212C509.346 526.862 509.486 527.442 509.766 527.952C510.056 528.462 510.456 528.862 510.966 529.152C511.476 529.432 512.056 529.572 512.706 529.572C513.756 529.572 514.636 529.157 515.346 528.327L516.906 529.767C516.406 530.377 515.786 530.842 515.046 531.162C514.306 531.482 513.481 531.642 512.571 531.642ZM526.677 529.512V531.462H518.547V520.962H526.482V522.912H520.962V525.192H525.837V527.082H520.962V529.512H526.677ZM538.165 531.462L538.15 525.162L535.06 530.352H533.965L530.89 525.297V531.462H528.61V520.962H530.62L534.55 527.487L538.42 520.962H540.415L540.445 531.462H538.165ZM550.646 526.002C551.246 526.192 551.716 526.512 552.056 526.962C552.396 527.402 552.566 527.947 552.566 528.597C552.566 529.517 552.206 530.227 551.486 530.727C550.776 531.217 549.736 531.462 548.366 531.462H542.936V520.962H548.066C549.346 520.962 550.326 521.207 551.006 521.697C551.696 522.187 552.041 522.852 552.041 523.692C552.041 524.202 551.916 524.657 551.666 525.057C551.426 525.457 551.086 525.772 550.646 526.002ZM545.351 522.792V525.267H547.766C548.366 525.267 548.821 525.162 549.131 524.952C549.441 524.742 549.596 524.432 549.596 524.022C549.596 523.612 549.441 523.307 549.131 523.107C548.821 522.897 548.366 522.792 547.766 522.792H545.351ZM548.186 529.632C548.826 529.632 549.306 529.527 549.626 529.317C549.956 529.107 550.121 528.782 550.121 528.342C550.121 527.472 549.476 527.037 548.186 527.037H545.351V529.632H548.186ZM562.536 529.512V531.462H554.406V520.962H562.341V522.912H556.821V525.192H561.696V527.082H556.821V529.512H562.536ZM571.16 531.462L569.135 528.537H569.015H566.9V531.462H564.47V520.962H569.015C569.945 520.962 570.75 521.117 571.43 521.427C572.12 521.737 572.65 522.177 573.02 522.747C573.39 523.317 573.575 523.992 573.575 524.772C573.575 525.552 573.385 526.227 573.005 526.797C572.635 527.357 572.105 527.787 571.415 528.087L573.77 531.462H571.16ZM571.115 524.772C571.115 524.182 570.925 523.732 570.545 523.422C570.165 523.102 569.61 522.942 568.88 522.942H566.9V526.602H568.88C569.61 526.602 570.165 526.442 570.545 526.122C570.925 525.802 571.115 525.352 571.115 524.772Z" fill="white"/>
</g>
<g opacity="0.75">
<rect x="221.064" y="120.487" width="173.871" height="44.5384" rx="1" fill="#3470B7"/>
<path d="M290.123 148.162C289.413 148.162 288.758 148.032 288.158 147.772C287.568 147.502 287.083 147.122 286.703 146.632L288.053 145.012C288.623 145.782 289.273 146.167 290.003 146.167C290.993 146.167 291.488 145.587 291.488 144.427V139.432H287.798V137.482H293.903V144.292C293.903 145.582 293.583 146.552 292.943 147.202C292.303 147.842 291.363 148.162 290.123 148.162ZM300.968 148.162C299.468 148.162 298.298 147.747 297.458 146.917C296.628 146.087 296.213 144.902 296.213 143.362V137.482H298.643V143.272C298.643 145.152 299.423 146.092 300.983 146.092C301.743 146.092 302.323 145.867 302.723 145.417C303.123 144.957 303.323 144.242 303.323 143.272V137.482H305.723V143.362C305.723 144.902 305.303 146.087 304.463 146.917C303.633 147.747 302.468 148.162 300.968 148.162ZM317.754 137.482V147.982H315.759L310.524 141.607V147.982H308.124V137.482H310.134L315.354 143.857V137.482H317.754ZM328.369 146.032V147.982H320.239V137.482H328.174V139.432H322.654V141.712H327.529V143.602H322.654V146.032H328.369Z" fill="white"/>
</g>
<g opacity="0.75">
<rect x="221.064" y="404.487" width="173.871" height="44.5384" rx="1" fill="#3470B7"/>
<path d="M290.123 432.162C289.413 432.162 288.758 432.032 288.158 431.772C287.568 431.502 287.083 431.122 286.703 430.632L288.053 429.012C288.623 429.782 289.273 430.167 290.003 430.167C290.993 430.167 291.488 429.587 291.488 428.427V423.432H287.798V421.482H293.903V428.292C293.903 429.582 293.583 430.552 292.943 431.202C292.303 431.842 291.363 432.162 290.123 432.162ZM300.968 432.162C299.468 432.162 298.298 431.747 297.458 430.917C296.628 430.087 296.213 428.902 296.213 427.362V421.482H298.643V427.272C298.643 429.152 299.423 430.092 300.983 430.092C301.743 430.092 302.323 429.867 302.723 429.417C303.123 428.957 303.323 428.242 303.323 427.272V421.482H305.723V427.362C305.723 428.902 305.303 430.087 304.463 430.917C303.633 431.747 302.468 432.162 300.968 432.162ZM317.754 421.482V431.982H315.759L310.524 425.607V431.982H308.124V421.482H310.134L315.354 427.857V421.482H317.754ZM328.369 430.032V431.982H320.239V421.482H328.174V423.432H322.654V425.712H327.529V427.602H322.654V430.032H328.369Z" fill="white"/>
</g>
<g opacity="0.75">
<rect x="221.064" y="71.9897" width="173.871" height="44.5384" rx="1" fill="#3470B7"/>
<path d="M301.149 99.4846L301.134 93.1846L298.044 98.3746H296.949L293.874 93.3196V99.4846H291.594V88.9846H293.604L297.534 95.5096L301.404 88.9846H303.399L303.429 99.4846H301.149ZM312.835 97.2346H307.96L307.03 99.4846H304.54L309.22 88.9846H311.62L316.315 99.4846H313.765L312.835 97.2346ZM312.07 95.3896L310.405 91.3696L308.74 95.3896H312.07ZM321.8 95.7646V99.4846H319.37V95.7346L315.305 88.9846H317.885L320.69 93.6496L323.495 88.9846H325.88L321.8 95.7646Z" fill="white"/>
</g>
<g opacity="0.75">
<rect x="221.064" y="355.99" width="173.871" height="44.5384" rx="1" fill="#3470B7"/>
<path d="M301.149 383.485L301.134 377.185L298.044 382.375H296.949L293.874 377.32V383.485H291.594V372.985H293.604L297.534 379.51L301.404 372.985H303.399L303.429 383.485H301.149ZM312.835 381.235H307.96L307.03 383.485H304.54L309.22 372.985H311.62L316.315 383.485H313.765L312.835 381.235ZM312.07 379.39L310.405 375.37L308.74 379.39H312.07ZM321.8 379.765V383.485H319.37V379.735L315.305 372.985H317.885L320.69 377.65L323.495 372.985H325.88L321.8 379.765Z" fill="white"/>
</g>
<g opacity="0.75">
<rect x="221.064" y="169.974" width="173.871" height="44.5384" rx="1" fill="#3470B7"/>
<path d="M292.159 197.649C291.449 197.649 290.794 197.519 290.194 197.259C289.604 196.989 289.119 196.609 288.739 196.119L290.089 194.499C290.659 195.269 291.309 195.654 292.039 195.654C293.029 195.654 293.524 195.074 293.524 193.914V188.919H289.834V186.969H295.939V193.779C295.939 195.069 295.619 196.039 294.979 196.689C294.339 197.329 293.399 197.649 292.159 197.649ZM303.004 197.649C301.504 197.649 300.334 197.234 299.494 196.404C298.664 195.574 298.249 194.389 298.249 192.849V186.969H300.679V192.759C300.679 194.639 301.459 195.579 303.019 195.579C303.779 195.579 304.359 195.354 304.759 194.904C305.159 194.444 305.359 193.729 305.359 192.759V186.969H307.759V192.849C307.759 194.389 307.339 195.574 306.499 196.404C305.669 197.234 304.504 197.649 303.004 197.649ZM310.16 186.969H312.59V195.489H317.855V197.469H310.16V186.969ZM323.169 193.749V197.469H320.739V193.719L316.674 186.969H319.254L322.059 191.634L324.864 186.969H327.249L323.169 193.749Z" fill="white"/>
</g>
<g opacity="0.75">
<rect x="221.064" y="453.974" width="173.871" height="44.5384" rx="1" fill="#3470B7"/>
<path d="M292.159 481.649C291.449 481.649 290.794 481.519 290.194 481.259C289.604 480.989 289.119 480.609 288.739 480.119L290.089 478.499C290.659 479.269 291.309 479.654 292.039 479.654C293.029 479.654 293.524 479.074 293.524 477.914V472.919H289.834V470.969H295.939V477.779C295.939 479.069 295.619 480.039 294.979 480.689C294.339 481.329 293.399 481.649 292.159 481.649ZM303.004 481.649C301.504 481.649 300.334 481.234 299.494 480.404C298.664 479.574 298.249 478.389 298.249 476.849V470.969H300.679V476.759C300.679 478.639 301.459 479.579 303.019 479.579C303.779 479.579 304.359 479.354 304.759 478.904C305.159 478.444 305.359 477.729 305.359 476.759V470.969H307.759V476.849C307.759 478.389 307.339 479.574 306.499 480.404C305.669 481.234 304.504 481.649 303.004 481.649ZM310.16 470.969H312.59V479.489H317.855V481.469H310.16V470.969ZM323.169 477.749V481.469H320.739V477.719L316.674 470.969H319.254L322.059 475.634L324.864 470.969H327.249L323.169 477.749Z" fill="white"/>
</g>
<g opacity="0.75">
<rect x="221.064" y="218.967" width="173.871" height="44.5384" rx="1" fill="#3470B7"/>
<path d="M283.574 244.212H278.699L277.769 246.462H275.279L279.959 235.962H282.359L287.054 246.462H284.504L283.574 244.212ZM282.809 242.367L281.144 238.347L279.479 242.367H282.809ZM292.589 246.642C291.089 246.642 289.919 246.227 289.079 245.397C288.249 244.567 287.834 243.382 287.834 241.842V235.962H290.264V241.752C290.264 243.632 291.044 244.572 292.604 244.572C293.364 244.572 293.944 244.347 294.344 243.897C294.744 243.437 294.944 242.722 294.944 241.752V235.962H297.344V241.842C297.344 243.382 296.924 244.567 296.084 245.397C295.254 246.227 294.089 246.642 292.589 246.642ZM306.84 241.047H309.06V245.307C308.49 245.737 307.83 246.067 307.08 246.297C306.33 246.527 305.575 246.642 304.815 246.642C303.725 246.642 302.745 246.412 301.875 245.952C301.005 245.482 300.32 244.837 299.82 244.017C299.33 243.187 299.085 242.252 299.085 241.212C299.085 240.172 299.33 239.242 299.82 238.422C300.32 237.592 301.01 236.947 301.89 236.487C302.77 236.017 303.76 235.782 304.86 235.782C305.78 235.782 306.615 235.937 307.365 236.247C308.115 236.557 308.745 237.007 309.255 237.597L307.695 239.037C306.945 238.247 306.04 237.852 304.98 237.852C304.31 237.852 303.715 237.992 303.195 238.272C302.675 238.552 302.27 238.947 301.98 239.457C301.69 239.967 301.545 240.552 301.545 241.212C301.545 241.862 301.69 242.442 301.98 242.952C302.27 243.462 302.67 243.862 303.18 244.152C303.7 244.432 304.29 244.572 304.95 244.572C305.65 244.572 306.28 244.422 306.84 244.122V241.047ZM315.983 246.642C314.483 246.642 313.313 246.227 312.473 245.397C311.643 244.567 311.228 243.382 311.228 241.842V235.962H313.658V241.752C313.658 243.632 314.438 244.572 315.998 244.572C316.758 244.572 317.338 244.347 317.738 243.897C318.138 243.437 318.338 242.722 318.338 241.752V235.962H320.738V241.842C320.738 243.382 320.318 244.567 319.478 245.397C318.648 246.227 317.483 246.642 315.983 246.642ZM326.589 246.642C325.759 246.642 324.954 246.532 324.174 246.312C323.404 246.082 322.784 245.787 322.314 245.427L323.139 243.597C323.589 243.927 324.124 244.192 324.744 244.392C325.364 244.592 325.984 244.692 326.604 244.692C327.294 244.692 327.804 244.592 328.134 244.392C328.464 244.182 328.629 243.907 328.629 243.567C328.629 243.317 328.529 243.112 328.329 242.952C328.139 242.782 327.889 242.647 327.579 242.547C327.279 242.447 326.869 242.337 326.349 242.217C325.549 242.027 324.894 241.837 324.384 241.647C323.874 241.457 323.434 241.152 323.064 240.732C322.704 240.312 322.524 239.752 322.524 239.052C322.524 238.442 322.689 237.892 323.019 237.402C323.349 236.902 323.844 236.507 324.504 236.217C325.174 235.927 325.989 235.782 326.949 235.782C327.619 235.782 328.274 235.862 328.914 236.022C329.554 236.182 330.114 236.412 330.594 236.712L329.844 238.557C328.874 238.007 327.904 237.732 326.934 237.732C326.254 237.732 325.749 237.842 325.419 238.062C325.099 238.282 324.939 238.572 324.939 238.932C324.939 239.292 325.124 239.562 325.494 239.742C325.874 239.912 326.449 240.082 327.219 240.252C328.019 240.442 328.674 240.632 329.184 240.822C329.694 241.012 330.129 241.312 330.489 241.722C330.859 242.132 331.044 242.687 331.044 243.387C331.044 243.987 330.874 244.537 330.534 245.037C330.204 245.527 329.704 245.917 329.034 246.207C328.364 246.497 327.549 246.642 326.589 246.642ZM334.733 237.942H331.373V235.962H340.523V237.942H337.163V246.462H334.733V237.942Z" fill="white"/>
</g>
<g opacity="0.75">
<rect x="221.064" y="502.967" width="173.871" height="44.5384" rx="1" fill="#3470B7"/>
<path d="M283.574 528.212H278.699L277.769 530.462H275.279L279.959 519.962H282.359L287.054 530.462H284.504L283.574 528.212ZM282.809 526.367L281.144 522.347L279.479 526.367H282.809ZM292.589 530.642C291.089 530.642 289.919 530.227 289.079 529.397C288.249 528.567 287.834 527.382 287.834 525.842V519.962H290.264V525.752C290.264 527.632 291.044 528.572 292.604 528.572C293.364 528.572 293.944 528.347 294.344 527.897C294.744 527.437 294.944 526.722 294.944 525.752V519.962H297.344V525.842C297.344 527.382 296.924 528.567 296.084 529.397C295.254 530.227 294.089 530.642 292.589 530.642ZM306.84 525.047H309.06V529.307C308.49 529.737 307.83 530.067 307.08 530.297C306.33 530.527 305.575 530.642 304.815 530.642C303.725 530.642 302.745 530.412 301.875 529.952C301.005 529.482 300.32 528.837 299.82 528.017C299.33 527.187 299.085 526.252 299.085 525.212C299.085 524.172 299.33 523.242 299.82 522.422C300.32 521.592 301.01 520.947 301.89 520.487C302.77 520.017 303.76 519.782 304.86 519.782C305.78 519.782 306.615 519.937 307.365 520.247C308.115 520.557 308.745 521.007 309.255 521.597L307.695 523.037C306.945 522.247 306.04 521.852 304.98 521.852C304.31 521.852 303.715 521.992 303.195 522.272C302.675 522.552 302.27 522.947 301.98 523.457C301.69 523.967 301.545 524.552 301.545 525.212C301.545 525.862 301.69 526.442 301.98 526.952C302.27 527.462 302.67 527.862 303.18 528.152C303.7 528.432 304.29 528.572 304.95 528.572C305.65 528.572 306.28 528.422 306.84 528.122V525.047ZM315.983 530.642C314.483 530.642 313.313 530.227 312.473 529.397C311.643 528.567 311.228 527.382 311.228 525.842V519.962H313.658V525.752C313.658 527.632 314.438 528.572 315.998 528.572C316.758 528.572 317.338 528.347 317.738 527.897C318.138 527.437 318.338 526.722 318.338 525.752V519.962H320.738V525.842C320.738 527.382 320.318 528.567 319.478 529.397C318.648 530.227 317.483 530.642 315.983 530.642ZM326.589 530.642C325.759 530.642 324.954 530.532 324.174 530.312C323.404 530.082 322.784 529.787 322.314 529.427L323.139 527.597C323.589 527.927 324.124 528.192 324.744 528.392C325.364 528.592 325.984 528.692 326.604 528.692C327.294 528.692 327.804 528.592 328.134 528.392C328.464 528.182 328.629 527.907 328.629 527.567C328.629 527.317 328.529 527.112 328.329 526.952C328.139 526.782 327.889 526.647 327.579 526.547C327.279 526.447 326.869 526.337 326.349 526.217C325.549 526.027 324.894 525.837 324.384 525.647C323.874 525.457 323.434 525.152 323.064 524.732C322.704 524.312 322.524 523.752 322.524 523.052C322.524 522.442 322.689 521.892 323.019 521.402C323.349 520.902 323.844 520.507 324.504 520.217C325.174 519.927 325.989 519.782 326.949 519.782C327.619 519.782 328.274 519.862 328.914 520.022C329.554 520.182 330.114 520.412 330.594 520.712L329.844 522.557C328.874 522.007 327.904 521.732 326.934 521.732C326.254 521.732 325.749 521.842 325.419 522.062C325.099 522.282 324.939 522.572 324.939 522.932C324.939 523.292 325.124 523.562 325.494 523.742C325.874 523.912 326.449 524.082 327.219 524.252C328.019 524.442 328.674 524.632 329.184 524.822C329.694 525.012 330.129 525.312 330.489 525.722C330.859 526.132 331.044 526.687 331.044 527.387C331.044 527.987 330.874 528.537 330.534 529.037C330.204 529.527 329.704 529.917 329.034 530.207C328.364 530.497 327.549 530.642 326.589 530.642ZM334.733 521.942H331.373V519.962H340.523V521.942H337.163V530.462H334.733V521.942Z" fill="white"/>
</g>
</svg>
