<svg width="616" height="720" viewBox="0 0 616 720" fill="none" xmlns="http://www.w3.org/2000/svg">
<rect width="616" height="720" fill="white"/>
<rect y="576" width="174" height="144" fill="#3470B7" fill-opacity="0.8"/>
<rect width="174" height="144" fill="#002D62"/>
<rect y="288" width="174" height="144" fill="#1B58A0"/>
<rect y="432" width="174" height="144" fill="#3470B7"/>
<path d="M44.4976 68.3618C44.4976 68.8813 44.4121 69.3496 44.2412 69.7666C44.0771 70.1768 43.8481 70.5391 43.5542 70.8535C43.2671 71.1611 42.9253 71.4209 42.5288 71.6328C42.1392 71.8379 41.7153 71.9951 41.2573 72.1045V72.166C42.4673 72.3164 43.3833 72.6855 44.0054 73.2734C44.6274 73.8545 44.9385 74.6406 44.9385 75.6318C44.9385 76.2881 44.8188 76.8965 44.5796 77.457C44.3472 78.0107 43.9849 78.4927 43.4927 78.9028C43.0073 79.313 42.3921 79.6343 41.647 79.8667C40.9087 80.0923 40.0371 80.2051 39.0322 80.2051C38.2256 80.2051 37.4668 80.1367 36.7559 80C36.0449 79.8701 35.3818 79.6685 34.7666 79.395V76.6982C35.0742 76.8623 35.3989 77.0059 35.7407 77.1289C36.0825 77.252 36.4243 77.3579 36.7661 77.4468C37.1079 77.5288 37.4429 77.5903 37.771 77.6313C38.106 77.6724 38.4204 77.6929 38.7144 77.6929C39.3022 77.6929 39.791 77.6382 40.1807 77.5288C40.5703 77.4194 40.8813 77.2656 41.1138 77.0674C41.3462 76.8691 41.5103 76.6333 41.606 76.3599C41.7085 76.0796 41.7598 75.7754 41.7598 75.4473C41.7598 75.1396 41.6948 74.8628 41.5649 74.6167C41.4419 74.3638 41.2368 74.1519 40.9497 73.981C40.6694 73.8032 40.3003 73.6665 39.8423 73.5708C39.3843 73.4751 38.8203 73.4272 38.1504 73.4272H37.084V71.2021H38.1299C38.7588 71.2021 39.2817 71.1475 39.6987 71.0381C40.1157 70.9219 40.4473 70.7681 40.6934 70.5767C40.9463 70.3784 41.124 70.1494 41.2266 69.8896C41.3291 69.6299 41.3804 69.353 41.3804 69.0591C41.3804 68.5259 41.2129 68.1089 40.8779 67.8081C40.5498 67.5073 40.0269 67.3569 39.3091 67.3569C38.981 67.3569 38.6733 67.3911 38.3862 67.4595C38.106 67.521 37.8428 67.603 37.5967 67.7056C37.3574 67.8013 37.1353 67.9106 36.9302 68.0337C36.7319 68.1499 36.5508 68.2661 36.3867 68.3823L34.7871 66.27C35.0742 66.0581 35.3853 65.8633 35.7202 65.6855C36.062 65.5078 36.4312 65.354 36.8276 65.2241C37.2241 65.0874 37.6514 64.9814 38.1094 64.9062C38.5674 64.8311 39.0562 64.7935 39.5757 64.7935C40.314 64.7935 40.9839 64.8755 41.5854 65.0396C42.1938 65.1968 42.7134 65.4292 43.144 65.7368C43.5747 66.0376 43.9062 66.4102 44.1387 66.8545C44.3779 67.292 44.4976 67.7944 44.4976 68.3618ZM46.8354 75.0371V72.4736H52.3418V75.0371H46.8354ZM64.5645 76.8931H62.7598V80H59.6733V76.8931H53.48V74.6885L59.8477 65.0088H62.7598V74.4321H64.5645V76.8931ZM59.6733 74.4321V71.8892C59.6733 71.8003 59.6733 71.6738 59.6733 71.5098C59.6802 71.3389 59.687 71.1475 59.6938 70.9355C59.7007 70.7236 59.7075 70.5049 59.7144 70.2793C59.728 70.0537 59.7383 69.8384 59.7451 69.6333C59.7588 69.4282 59.769 69.2505 59.7759 69.1001C59.7896 68.9429 59.7998 68.8301 59.8066 68.7617H59.7144C59.5913 69.0488 59.4512 69.353 59.2939 69.6743C59.1436 69.9956 58.9692 70.3169 58.771 70.6382L56.269 74.4321H59.6733ZM86.9487 80H83.3291L81.2988 72.125C81.2236 71.8447 81.0938 71.2671 80.9092 70.3921C80.7314 69.5103 80.6289 68.9189 80.6016 68.6182C80.5605 68.9873 80.458 69.582 80.2939 70.4023C80.1299 71.2158 80.0034 71.7969 79.9146 72.1455L77.8945 80H74.2852L70.4604 65.0088H73.5879L75.5054 73.1914C75.8403 74.7021 76.083 76.0112 76.2334 77.1187C76.2744 76.729 76.3667 76.1274 76.5103 75.314C76.6606 74.4937 76.8008 73.8579 76.9307 73.4067L79.1147 65.0088H82.1191L84.3032 73.4067C84.3989 73.7827 84.5186 74.3569 84.6621 75.1294C84.8057 75.9019 84.915 76.5649 84.9902 77.1187C85.0586 76.5854 85.168 75.9224 85.3184 75.1294C85.4688 74.3296 85.6055 73.6836 85.7285 73.1914L87.6357 65.0088H90.7632L86.9487 80ZM101.284 80H92.6499V65.0088H101.284V67.6133H95.8286V70.9048H100.904V73.5093H95.8286V77.375H101.284V80ZM113.055 80H104.421V65.0088H113.055V67.6133H107.6V70.9048H112.676V73.5093H107.6V77.375H113.055V80ZM128.251 80H124.642L120.715 73.6836L119.372 74.6475V80H116.193V65.0088H119.372V71.8687L120.623 70.105L124.683 65.0088H128.21L122.981 71.6431L128.251 80ZM138.987 75.8369C138.987 77.1904 138.499 78.2568 137.521 79.0361C136.55 79.8154 135.197 80.2051 133.46 80.2051C131.861 80.2051 130.446 79.9043 129.215 79.3027V76.3496C130.227 76.8008 131.082 77.1187 131.779 77.3032C132.483 77.4878 133.125 77.5801 133.707 77.5801C134.404 77.5801 134.937 77.4468 135.306 77.1802C135.682 76.9136 135.87 76.5171 135.87 75.9907C135.87 75.6968 135.788 75.437 135.624 75.2114C135.46 74.979 135.217 74.7568 134.896 74.5449C134.582 74.333 133.936 73.9946 132.958 73.5298C132.042 73.0991 131.355 72.6855 130.897 72.2891C130.439 71.8926 130.073 71.4312 129.8 70.9048C129.526 70.3784 129.39 69.7632 129.39 69.0591C129.39 67.7329 129.837 66.6904 130.733 65.9316C131.635 65.1729 132.879 64.7935 134.465 64.7935C135.245 64.7935 135.986 64.8857 136.69 65.0703C137.401 65.2549 138.143 65.5146 138.916 65.8496L137.89 68.3208C137.09 67.9927 136.427 67.7637 135.901 67.6338C135.381 67.5039 134.869 67.439 134.363 67.439C133.761 67.439 133.3 67.5791 132.979 67.8594C132.657 68.1396 132.497 68.5054 132.497 68.9565C132.497 69.2368 132.562 69.4829 132.691 69.6948C132.821 69.8999 133.026 70.1016 133.307 70.2998C133.594 70.4912 134.267 70.8398 135.327 71.3457C136.728 72.0156 137.688 72.689 138.208 73.3657C138.728 74.0356 138.987 74.8594 138.987 75.8369Z" fill="white"/>
<path d="M23.313 368H20.1445V359.325C20.1445 359.147 20.1445 358.936 20.1445 358.689C20.1514 358.437 20.1582 358.177 20.165 357.91C20.1787 357.637 20.189 357.363 20.1958 357.09C20.2095 356.816 20.2197 356.567 20.2266 356.341C20.1924 356.382 20.1343 356.444 20.0522 356.526C19.9702 356.608 19.8779 356.7 19.7754 356.803C19.6729 356.898 19.5669 356.998 19.4575 357.1C19.3481 357.203 19.2422 357.295 19.1396 357.377L17.417 358.761L15.8789 356.854L20.7085 353.009H23.313V368ZM27.5889 363.037V360.474H33.0952V363.037H27.5889ZM42.5698 368H39.4014V359.325C39.4014 359.147 39.4014 358.936 39.4014 358.689C39.4082 358.437 39.415 358.177 39.4219 357.91C39.4355 357.637 39.4458 357.363 39.4526 357.09C39.4663 356.816 39.4766 356.567 39.4834 356.341C39.4492 356.382 39.3911 356.444 39.3091 356.526C39.2271 356.608 39.1348 356.7 39.0322 356.803C38.9297 356.898 38.8237 356.998 38.7144 357.1C38.605 357.203 38.499 357.295 38.3965 357.377L36.6738 358.761L35.1357 356.854L39.9653 353.009H42.5698V368ZM59.5913 368H56.4229V359.325C56.4229 359.147 56.4229 358.936 56.4229 358.689C56.4297 358.437 56.4365 358.177 56.4434 357.91C56.457 357.637 56.4673 357.363 56.4741 357.09C56.4878 356.816 56.498 356.567 56.5049 356.341C56.4707 356.382 56.4126 356.444 56.3306 356.526C56.2485 356.608 56.1562 356.7 56.0537 356.803C55.9512 356.898 55.8452 356.998 55.7358 357.1C55.6265 357.203 55.5205 357.295 55.418 357.377L53.6953 358.761L52.1572 356.854L56.9868 353.009H59.5913V368ZM71.9473 350.517L66.2051 371.476H63.5186L69.2607 350.517H71.9473ZM83.5854 368H73.5264V365.795L77.0537 361.991C77.498 361.513 77.9014 361.072 78.2637 360.668C78.626 360.265 78.937 359.872 79.1968 359.489C79.4565 359.106 79.6582 358.717 79.8018 358.32C79.9453 357.924 80.0171 357.497 80.0171 357.039C80.0171 356.533 79.8633 356.14 79.5557 355.859C79.2549 355.579 78.8481 355.439 78.3354 355.439C77.7954 355.439 77.2759 355.572 76.7769 355.839C76.2778 356.105 75.7549 356.485 75.208 356.977L73.4854 354.937C73.793 354.656 74.1143 354.39 74.4492 354.137C74.7842 353.877 75.1533 353.648 75.5566 353.45C75.96 353.251 76.4043 353.094 76.8896 352.978C77.375 352.855 77.9185 352.793 78.52 352.793C79.2378 352.793 79.8804 352.893 80.4478 353.091C81.022 353.289 81.5107 353.573 81.9141 353.942C82.3174 354.304 82.625 354.745 82.8369 355.265C83.0557 355.784 83.165 356.369 83.165 357.018C83.165 357.606 83.0625 358.17 82.8574 358.71C82.6523 359.243 82.3721 359.77 82.0166 360.289C81.6611 360.802 81.2476 361.314 80.7759 361.827C80.311 362.333 79.812 362.849 79.2788 363.375L77.4741 365.19V365.334H83.5854V368ZM106.195 368H102.576L100.545 360.125C100.47 359.845 100.34 359.267 100.156 358.392C99.978 357.51 99.8755 356.919 99.8481 356.618C99.8071 356.987 99.7046 357.582 99.5405 358.402C99.3765 359.216 99.25 359.797 99.1611 360.146L97.1411 368H93.5317L89.707 353.009H92.8345L94.752 361.191C95.0869 362.702 95.3296 364.011 95.48 365.119C95.521 364.729 95.6133 364.127 95.7568 363.314C95.9072 362.494 96.0474 361.858 96.1772 361.407L98.3613 353.009H101.366L103.55 361.407C103.646 361.783 103.765 362.357 103.909 363.129C104.052 363.902 104.162 364.565 104.237 365.119C104.305 364.585 104.415 363.922 104.565 363.129C104.715 362.33 104.852 361.684 104.975 361.191L106.882 353.009H110.01L106.195 368ZM120.53 368H111.896V353.009H120.53V355.613H115.075V358.905H120.151V361.509H115.075V365.375H120.53V368ZM132.302 368H123.668V353.009H132.302V355.613H126.847V358.905H131.922V361.509H126.847V365.375H132.302V368ZM147.498 368H143.889L139.961 361.684L138.618 362.647V368H135.439V353.009H138.618V359.869L139.869 358.105L143.93 353.009H147.457L142.228 359.643L147.498 368ZM158.234 363.837C158.234 365.19 157.745 366.257 156.768 367.036C155.797 367.815 154.443 368.205 152.707 368.205C151.107 368.205 149.692 367.904 148.462 367.303V364.35C149.474 364.801 150.328 365.119 151.025 365.303C151.729 365.488 152.372 365.58 152.953 365.58C153.65 365.58 154.184 365.447 154.553 365.18C154.929 364.914 155.117 364.517 155.117 363.991C155.117 363.697 155.035 363.437 154.871 363.211C154.707 362.979 154.464 362.757 154.143 362.545C153.828 362.333 153.182 361.995 152.205 361.53C151.289 361.099 150.602 360.686 150.144 360.289C149.686 359.893 149.32 359.431 149.046 358.905C148.773 358.378 148.636 357.763 148.636 357.059C148.636 355.733 149.084 354.69 149.979 353.932C150.882 353.173 152.126 352.793 153.712 352.793C154.491 352.793 155.233 352.886 155.937 353.07C156.648 353.255 157.39 353.515 158.162 353.85L157.137 356.321C156.337 355.993 155.674 355.764 155.147 355.634C154.628 355.504 154.115 355.439 153.609 355.439C153.008 355.439 152.546 355.579 152.225 355.859C151.904 356.14 151.743 356.505 151.743 356.957C151.743 357.237 151.808 357.483 151.938 357.695C152.068 357.9 152.273 358.102 152.553 358.3C152.84 358.491 153.514 358.84 154.573 359.346C155.975 360.016 156.935 360.689 157.455 361.366C157.974 362.036 158.234 362.859 158.234 363.837Z" fill="white"/>
<path d="M57.9712 512H54.8027V503.325C54.8027 503.147 54.8027 502.936 54.8027 502.689C54.8096 502.437 54.8164 502.177 54.8232 501.91C54.8369 501.637 54.8472 501.363 54.854 501.09C54.8677 500.816 54.8779 500.567 54.8848 500.341C54.8506 500.382 54.7925 500.444 54.7104 500.526C54.6284 500.608 54.5361 500.7 54.4336 500.803C54.3311 500.898 54.2251 500.998 54.1157 501.1C54.0063 501.203 53.9004 501.295 53.7979 501.377L52.0752 502.761L50.5371 500.854L55.3667 497.009H57.9712V512ZM83.1035 512H79.4839L77.4536 504.125C77.3784 503.845 77.2485 503.267 77.064 502.392C76.8862 501.51 76.7837 500.919 76.7563 500.618C76.7153 500.987 76.6128 501.582 76.4487 502.402C76.2847 503.216 76.1582 503.797 76.0693 504.146L74.0493 512H70.4399L66.6152 497.009H69.7427L71.6602 505.191C71.9951 506.702 72.2378 508.011 72.3882 509.119C72.4292 508.729 72.5215 508.127 72.665 507.314C72.8154 506.494 72.9556 505.858 73.0854 505.407L75.2695 497.009H78.2739L80.458 505.407C80.5537 505.783 80.6733 506.357 80.8169 507.129C80.9604 507.902 81.0698 508.565 81.145 509.119C81.2134 508.585 81.3228 507.922 81.4731 507.129C81.6235 506.33 81.7603 505.684 81.8833 505.191L83.7905 497.009H86.918L83.1035 512ZM97.4385 512H88.8047V497.009H97.4385V499.613H91.9834V502.905H97.0591V505.509H91.9834V509.375H97.4385V512ZM109.21 512H100.576V497.009H109.21V499.613H103.755V502.905H108.831V505.509H103.755V509.375H109.21V512ZM124.406 512H120.797L116.87 505.684L115.526 506.647V512H112.348V497.009H115.526V503.869L116.777 502.105L120.838 497.009H124.365L119.136 503.643L124.406 512Z" fill="white"/>
<path d="M174 0L196.841 26.8475L220 0V117.153L196.841 144L174 117.153V0Z" fill="#F2F2F2"/>
<path d="M57.9712 656H54.8027V647.325C54.8027 647.147 54.8027 646.936 54.8027 646.689C54.8096 646.437 54.8164 646.177 54.8232 645.91C54.8369 645.637 54.8472 645.363 54.854 645.09C54.8677 644.816 54.8779 644.567 54.8848 644.341C54.8506 644.382 54.7925 644.444 54.7104 644.526C54.6284 644.608 54.5361 644.7 54.4336 644.803C54.3311 644.898 54.2251 644.998 54.1157 645.1C54.0063 645.203 53.9004 645.295 53.7979 645.377L52.0752 646.761L50.5371 644.854L55.3667 641.009H57.9712V656ZM83.1035 656H79.4839L77.4536 648.125C77.3784 647.845 77.2485 647.267 77.064 646.392C76.8862 645.51 76.7837 644.919 76.7563 644.618C76.7153 644.987 76.6128 645.582 76.4487 646.402C76.2847 647.216 76.1582 647.797 76.0693 648.146L74.0493 656H70.4399L66.6152 641.009H69.7427L71.6602 649.191C71.9951 650.702 72.2378 652.011 72.3882 653.119C72.4292 652.729 72.5215 652.127 72.665 651.314C72.8154 650.494 72.9556 649.858 73.0854 649.407L75.2695 641.009H78.2739L80.458 649.407C80.5537 649.783 80.6733 650.357 80.8169 651.129C80.9604 651.902 81.0698 652.565 81.145 653.119C81.2134 652.585 81.3228 651.922 81.4731 651.129C81.6235 650.33 81.7603 649.684 81.8833 649.191L83.7905 641.009H86.918L83.1035 656ZM97.4385 656H88.8047V641.009H97.4385V643.613H91.9834V646.905H97.0591V649.509H91.9834V653.375H97.4385V656ZM109.21 656H100.576V641.009H109.21V643.613H103.755V646.905H108.831V649.509H103.755V653.375H109.21V656ZM124.406 656H120.797L116.87 649.684L115.526 650.647V656H112.348V641.009H115.526V647.869L116.777 646.105L120.838 641.009H124.365L119.136 647.643L124.406 656Z" fill="white"/>
<path d="M174 144L196.841 170.847L220 144V261.153L196.841 288L174 261.153V144Z" fill="#F2F2F2"/>
<path d="M174 288L196.841 314.847L220 288V405.153L196.841 432L174 405.153V288Z" fill="#F2F2F2"/>
<path d="M174 576L196.841 602.847L220 576V693.153L196.841 720L174 693.153V576Z" fill="#F2F2F2"/>
<path d="M174 432L196.841 458.847L220 432V549.153L196.841 576L174 549.153V432Z" fill="#F2F2F2"/>
<path d="M199.594 80H196.426V71.3252C196.426 71.1475 196.426 70.9355 196.426 70.6895C196.433 70.4365 196.439 70.1768 196.446 69.9102C196.46 69.6367 196.47 69.3633 196.477 69.0898C196.491 68.8164 196.501 68.5669 196.508 68.3413C196.474 68.3823 196.416 68.4438 196.333 68.5259C196.251 68.6079 196.159 68.7002 196.057 68.8027C195.954 68.8984 195.848 68.9976 195.739 69.1001C195.629 69.2026 195.523 69.2949 195.421 69.377L193.698 70.7612L192.16 68.854L196.99 65.0088H199.594V80Z" fill="black"/>
<path d="M202.117 224H192.058V221.795L195.585 217.991C196.029 217.513 196.433 217.072 196.795 216.668C197.157 216.265 197.468 215.872 197.728 215.489C197.988 215.106 198.189 214.717 198.333 214.32C198.477 213.924 198.548 213.497 198.548 213.039C198.548 212.533 198.395 212.14 198.087 211.859C197.786 211.579 197.379 211.439 196.867 211.439C196.327 211.439 195.807 211.572 195.308 211.839C194.809 212.105 194.286 212.485 193.739 212.977L192.017 210.937C192.324 210.656 192.646 210.39 192.98 210.137C193.315 209.877 193.685 209.648 194.088 209.45C194.491 209.251 194.936 209.094 195.421 208.978C195.906 208.855 196.45 208.793 197.051 208.793C197.769 208.793 198.412 208.893 198.979 209.091C199.553 209.289 200.042 209.573 200.445 209.942C200.849 210.304 201.156 210.745 201.368 211.265C201.587 211.784 201.696 212.369 201.696 213.018C201.696 213.606 201.594 214.17 201.389 214.71C201.184 215.243 200.903 215.77 200.548 216.289C200.192 216.802 199.779 217.314 199.307 217.827C198.842 218.333 198.343 218.849 197.81 219.375L196.005 221.19V221.334H202.117V224Z" fill="black"/>
<path d="M201.532 356.362C201.532 356.881 201.447 357.35 201.276 357.767C201.112 358.177 200.883 358.539 200.589 358.854C200.302 359.161 199.96 359.421 199.563 359.633C199.174 359.838 198.75 359.995 198.292 360.104V360.166C199.502 360.316 200.418 360.686 201.04 361.273C201.662 361.854 201.973 362.641 201.973 363.632C201.973 364.288 201.854 364.896 201.614 365.457C201.382 366.011 201.02 366.493 200.527 366.903C200.042 367.313 199.427 367.634 198.682 367.867C197.943 368.092 197.072 368.205 196.067 368.205C195.26 368.205 194.501 368.137 193.791 368C193.08 367.87 192.417 367.668 191.801 367.395V364.698C192.109 364.862 192.434 365.006 192.775 365.129C193.117 365.252 193.459 365.358 193.801 365.447C194.143 365.529 194.478 365.59 194.806 365.631C195.141 365.672 195.455 365.693 195.749 365.693C196.337 365.693 196.826 365.638 197.215 365.529C197.605 365.419 197.916 365.266 198.148 365.067C198.381 364.869 198.545 364.633 198.641 364.36C198.743 364.08 198.794 363.775 198.794 363.447C198.794 363.14 198.729 362.863 198.6 362.617C198.477 362.364 198.271 362.152 197.984 361.981C197.704 361.803 197.335 361.667 196.877 361.571C196.419 361.475 195.855 361.427 195.185 361.427H194.119V359.202H195.165C195.793 359.202 196.316 359.147 196.733 359.038C197.15 358.922 197.482 358.768 197.728 358.577C197.981 358.378 198.159 358.149 198.261 357.89C198.364 357.63 198.415 357.353 198.415 357.059C198.415 356.526 198.248 356.109 197.913 355.808C197.584 355.507 197.062 355.357 196.344 355.357C196.016 355.357 195.708 355.391 195.421 355.459C195.141 355.521 194.877 355.603 194.631 355.706C194.392 355.801 194.17 355.911 193.965 356.034C193.767 356.15 193.585 356.266 193.421 356.382L191.822 354.27C192.109 354.058 192.42 353.863 192.755 353.686C193.097 353.508 193.466 353.354 193.862 353.224C194.259 353.087 194.686 352.981 195.144 352.906C195.602 352.831 196.091 352.793 196.61 352.793C197.349 352.793 198.019 352.875 198.62 353.04C199.229 353.197 199.748 353.429 200.179 353.737C200.609 354.038 200.941 354.41 201.173 354.854C201.413 355.292 201.532 355.794 201.532 356.362Z" fill="black"/>
<path d="M202.342 508.893H200.538V512H197.451V508.893H191.258V506.688L197.625 497.009H200.538V506.432H202.342V508.893ZM197.451 506.432V503.889C197.451 503.8 197.451 503.674 197.451 503.51C197.458 503.339 197.465 503.147 197.472 502.936C197.479 502.724 197.485 502.505 197.492 502.279C197.506 502.054 197.516 501.838 197.523 501.633C197.537 501.428 197.547 501.25 197.554 501.1C197.567 500.943 197.578 500.83 197.584 500.762H197.492C197.369 501.049 197.229 501.353 197.072 501.674C196.921 501.996 196.747 502.317 196.549 502.638L194.047 506.432H197.451Z" fill="black"/>
<path d="M197.349 646.423C197.991 646.423 198.589 646.522 199.143 646.72C199.697 646.918 200.179 647.209 200.589 647.592C200.999 647.975 201.32 648.453 201.553 649.027C201.785 649.595 201.901 650.248 201.901 650.986C201.901 651.799 201.775 652.531 201.522 653.18C201.269 653.823 200.896 654.37 200.404 654.821C199.912 655.265 199.3 655.607 198.569 655.846C197.844 656.085 197.01 656.205 196.067 656.205C195.691 656.205 195.318 656.188 194.949 656.154C194.58 656.12 194.225 656.068 193.883 656C193.548 655.938 193.227 655.856 192.919 655.754C192.618 655.651 192.345 655.532 192.099 655.395V652.657C192.338 652.794 192.615 652.924 192.929 653.047C193.244 653.163 193.568 653.266 193.903 653.354C194.245 653.437 194.587 653.505 194.929 653.56C195.271 653.607 195.595 653.631 195.903 653.631C196.819 653.631 197.516 653.443 197.995 653.067C198.473 652.685 198.712 652.08 198.712 651.252C198.712 650.514 198.477 649.954 198.005 649.571C197.54 649.181 196.819 648.986 195.841 648.986C195.664 648.986 195.472 648.997 195.267 649.017C195.069 649.038 194.871 649.065 194.672 649.099C194.481 649.133 194.296 649.171 194.119 649.212C193.941 649.246 193.787 649.284 193.657 649.325L192.396 648.648L192.96 641.009H200.876V643.695H195.708L195.462 646.638C195.681 646.59 195.934 646.542 196.221 646.495C196.515 646.447 196.891 646.423 197.349 646.423Z" fill="black"/>
<rect x="220" width="396" height="144" fill="#002D62"/>
<rect x="220" y="144" width="396" height="144" fill="#002D62" fill-opacity="0.8"/>
<rect y="144" width="174" height="144" fill="#002D62" fill-opacity="0.8"/>
<rect x="220" y="432" width="396" height="144" fill="#3470B7"/>
<rect x="220" y="576" width="396" height="144" fill="#3470B7" fill-opacity="0.8"/>
<rect x="220" y="288" width="396" height="144" fill="#1B58A0"/>
<path d="M371.474 80L370.387 76.4316H364.921L363.834 80H360.41L365.701 64.9473H369.587L374.898 80H371.474ZM369.628 73.7656C368.623 70.5322 368.056 68.7036 367.926 68.2798C367.803 67.856 367.714 67.521 367.659 67.2749C367.434 68.1499 366.788 70.3135 365.721 73.7656H369.628ZM380.179 80.2051C378.833 80.2051 377.773 79.6821 377 78.6362C376.235 77.5903 375.852 76.1411 375.852 74.2886C375.852 72.4087 376.242 70.9458 377.021 69.8999C377.807 68.8472 378.887 68.3208 380.261 68.3208C381.704 68.3208 382.804 68.8813 383.563 70.0024H383.666C383.508 69.1479 383.43 68.3857 383.43 67.7158V64.0449H386.567V80H384.168L383.563 78.5132H383.43C382.719 79.6411 381.635 80.2051 380.179 80.2051ZM381.276 77.7134C382.076 77.7134 382.661 77.481 383.03 77.0161C383.406 76.5513 383.611 75.7617 383.645 74.6475V74.3091C383.645 73.0786 383.454 72.1968 383.071 71.6636C382.695 71.1304 382.08 70.8638 381.225 70.8638C380.528 70.8638 379.984 71.1611 379.595 71.7559C379.212 72.3438 379.021 73.2017 379.021 74.3296C379.021 75.4575 379.215 76.3052 379.605 76.8726C379.995 77.4331 380.552 77.7134 381.276 77.7134ZM392.566 80L388.198 68.5361H391.469L393.684 75.0679C393.909 75.7788 394.056 76.5615 394.125 77.416H394.207C394.248 76.6436 394.401 75.8608 394.668 75.0679L396.873 68.5361H400.144L395.775 80H392.566ZM406.542 70.5459C405.879 70.5459 405.359 70.7578 404.983 71.1816C404.607 71.5986 404.392 72.1934 404.337 72.9658H408.726C408.712 72.1934 408.511 71.5986 408.121 71.1816C407.731 70.7578 407.205 70.5459 406.542 70.5459ZM406.983 80.2051C405.137 80.2051 403.695 79.6958 402.656 78.6772C401.617 77.6587 401.097 76.2163 401.097 74.3501C401.097 72.4292 401.576 70.9458 402.533 69.8999C403.497 68.8472 404.826 68.3208 406.521 68.3208C408.142 68.3208 409.403 68.7822 410.305 69.7051C411.208 70.6279 411.659 71.9028 411.659 73.5298V75.0474H404.266C404.3 75.936 404.563 76.6299 405.055 77.1289C405.547 77.6279 406.238 77.8774 407.126 77.8774C407.817 77.8774 408.47 77.8057 409.085 77.6621C409.7 77.5186 410.343 77.2896 411.013 76.9751V79.395C410.466 79.6685 409.881 79.8701 409.259 80C408.637 80.1367 407.878 80.2051 406.983 80.2051ZM420.6 68.3208C421.024 68.3208 421.376 68.3516 421.656 68.4131L421.42 71.3457C421.167 71.2773 420.86 71.2432 420.498 71.2432C419.5 71.2432 418.72 71.4995 418.16 72.0122C417.606 72.5249 417.329 73.2427 417.329 74.1655V80H414.202V68.5361H416.57L417.032 70.4639H417.186C417.541 69.8213 418.02 69.3052 418.621 68.9155C419.229 68.519 419.889 68.3208 420.6 68.3208ZM428.567 77.7134C429.114 77.7134 429.771 77.5938 430.536 77.3545V79.6821C429.757 80.0308 428.8 80.2051 427.665 80.2051C426.414 80.2051 425.501 79.8906 424.927 79.2617C424.36 78.626 424.076 77.6758 424.076 76.4111V70.8843H422.579V69.5615L424.302 68.5156L425.204 66.0957H427.204V68.5361H430.413V70.8843H427.204V76.4111C427.204 76.8555 427.327 77.1836 427.573 77.3955C427.826 77.6074 428.157 77.7134 428.567 77.7134ZM432.73 65.5728C432.73 64.5542 433.298 64.0449 434.433 64.0449C435.567 64.0449 436.135 64.5542 436.135 65.5728C436.135 66.0581 435.991 66.4375 435.704 66.7109C435.424 66.9775 435 67.1108 434.433 67.1108C433.298 67.1108 432.73 66.5981 432.73 65.5728ZM435.991 80H432.864V68.5361H435.991V80ZM447.281 76.5957C447.281 77.7715 446.871 78.667 446.05 79.2822C445.237 79.8975 444.017 80.2051 442.39 80.2051C441.556 80.2051 440.845 80.147 440.257 80.0308C439.669 79.9214 439.119 79.7573 438.606 79.5386V76.9546C439.187 77.228 439.84 77.457 440.564 77.6416C441.296 77.8262 441.938 77.9185 442.492 77.9185C443.627 77.9185 444.194 77.5903 444.194 76.9341C444.194 76.688 444.119 76.4897 443.969 76.3394C443.818 76.1821 443.559 76.0078 443.189 75.8164C442.82 75.6182 442.328 75.3892 441.713 75.1294C440.831 74.7603 440.182 74.4185 439.765 74.104C439.354 73.7896 439.054 73.4307 438.862 73.0273C438.678 72.6172 438.585 72.1147 438.585 71.52C438.585 70.5015 438.979 69.7153 439.765 69.1616C440.558 68.6011 441.679 68.3208 443.128 68.3208C444.509 68.3208 445.852 68.6216 447.158 69.2231L446.214 71.479C445.64 71.2329 445.104 71.0312 444.604 70.874C444.105 70.7168 443.596 70.6382 443.077 70.6382C442.154 70.6382 441.692 70.8877 441.692 71.3867C441.692 71.667 441.839 71.9097 442.133 72.1147C442.434 72.3198 443.087 72.624 444.092 73.0273C444.987 73.3896 445.644 73.728 446.061 74.0425C446.478 74.3569 446.785 74.7192 446.983 75.1294C447.182 75.5396 447.281 76.0283 447.281 76.5957ZM449.588 65.5728C449.588 64.5542 450.155 64.0449 451.29 64.0449C452.425 64.0449 452.992 64.5542 452.992 65.5728C452.992 66.0581 452.849 66.4375 452.562 66.7109C452.281 66.9775 451.857 67.1108 451.29 67.1108C450.155 67.1108 449.588 66.5981 449.588 65.5728ZM452.849 80H449.721V68.5361H452.849V80ZM466.722 80H463.595V73.3042C463.595 72.4771 463.448 71.8584 463.154 71.4482C462.86 71.0312 462.392 70.8228 461.749 70.8228C460.874 70.8228 460.242 71.1167 459.852 71.7046C459.462 72.2856 459.268 73.2529 459.268 74.6064V80H456.14V68.5361H458.529L458.95 70.0024H459.124C459.473 69.4487 459.951 69.0317 460.56 68.7515C461.175 68.4644 461.872 68.3208 462.651 68.3208C463.984 68.3208 464.996 68.6831 465.687 69.4077C466.377 70.1255 466.722 71.1646 466.722 72.5249V80ZM474.689 77.7544C475.53 77.7544 476.132 77.5151 476.494 77.0366C476.856 76.5513 477.038 75.7686 477.038 74.6885V74.3091C477.038 73.0854 476.846 72.207 476.463 71.6738C476.087 71.1338 475.479 70.8638 474.638 70.8638C473.168 70.8638 472.434 72.019 472.434 74.3296C472.434 75.478 472.615 76.3359 472.977 76.9033C473.346 77.4707 473.917 77.7544 474.689 77.7544ZM479.96 80.0205C479.96 81.668 479.478 82.9155 478.514 83.7632C477.557 84.6177 476.128 85.0449 474.228 85.0449C472.553 85.0449 471.125 84.8193 469.942 84.3682V81.8662C471.33 82.4541 472.82 82.748 474.413 82.748C476.019 82.748 476.822 81.8799 476.822 80.1436V79.918L476.915 78.5132H476.822C476.091 79.6411 475.007 80.2051 473.572 80.2051C472.198 80.2051 471.131 79.6753 470.373 78.6157C469.621 77.5562 469.245 76.1138 469.245 74.2886C469.245 72.4087 469.634 70.9458 470.414 69.8999C471.2 68.8472 472.28 68.3208 473.654 68.3208C475.062 68.3208 476.169 68.8813 476.976 70.0024H477.058L477.314 68.5361H479.96V80.0205Z" fill="white"/>
<path d="M318.102 215.664H319.127C320.132 215.664 320.874 215.496 321.353 215.161C321.831 214.826 322.07 214.3 322.07 213.582C322.07 212.871 321.824 212.365 321.332 212.064C320.847 211.764 320.091 211.613 319.066 211.613H318.102V215.664ZM318.102 218.248V224H314.923V209.009H319.292C321.329 209.009 322.836 209.381 323.813 210.126C324.791 210.865 325.28 211.989 325.28 213.5C325.28 214.382 325.037 215.168 324.552 215.858C324.066 216.542 323.379 217.079 322.491 217.468L326.9 224H323.373L319.794 218.248H318.102ZM333.288 214.546C332.625 214.546 332.105 214.758 331.729 215.182C331.354 215.599 331.138 216.193 331.083 216.966H335.472C335.458 216.193 335.257 215.599 334.867 215.182C334.478 214.758 333.951 214.546 333.288 214.546ZM333.729 224.205C331.883 224.205 330.441 223.696 329.402 222.677C328.363 221.659 327.843 220.216 327.843 218.35C327.843 216.429 328.322 214.946 329.279 213.9C330.243 212.847 331.572 212.321 333.268 212.321C334.888 212.321 336.149 212.782 337.051 213.705C337.954 214.628 338.405 215.903 338.405 217.53V219.047H331.012C331.046 219.936 331.309 220.63 331.801 221.129C332.293 221.628 332.984 221.877 333.873 221.877C334.563 221.877 335.216 221.806 335.831 221.662C336.446 221.519 337.089 221.29 337.759 220.975V223.395C337.212 223.668 336.627 223.87 336.005 224C335.383 224.137 334.625 224.205 333.729 224.205ZM345.603 224.205C342.035 224.205 340.25 222.247 340.25 218.33C340.25 216.381 340.736 214.895 341.707 213.869C342.677 212.837 344.068 212.321 345.88 212.321C347.206 212.321 348.396 212.581 349.448 213.1L348.525 215.52C348.033 215.322 347.575 215.161 347.151 215.038C346.728 214.908 346.304 214.843 345.88 214.843C344.253 214.843 343.439 215.999 343.439 218.309C343.439 220.551 344.253 221.672 345.88 221.672C346.481 221.672 347.039 221.594 347.551 221.437C348.064 221.272 348.577 221.02 349.089 220.678V223.354C348.583 223.675 348.071 223.897 347.551 224.021C347.039 224.144 346.389 224.205 345.603 224.205ZM356.503 214.546C355.84 214.546 355.32 214.758 354.944 215.182C354.568 215.599 354.353 216.193 354.298 216.966H358.687C358.673 216.193 358.472 215.599 358.082 215.182C357.692 214.758 357.166 214.546 356.503 214.546ZM356.944 224.205C355.098 224.205 353.656 223.696 352.617 222.677C351.578 221.659 351.058 220.216 351.058 218.35C351.058 216.429 351.537 214.946 352.494 213.9C353.458 212.847 354.787 212.321 356.482 212.321C358.103 212.321 359.364 212.782 360.266 213.705C361.168 214.628 361.62 215.903 361.62 217.53V219.047H354.227C354.261 219.936 354.524 220.63 355.016 221.129C355.508 221.628 356.199 221.877 357.087 221.877C357.778 221.877 358.431 221.806 359.046 221.662C359.661 221.519 360.304 221.29 360.974 220.975V223.395C360.427 223.668 359.842 223.87 359.22 224C358.598 224.137 357.839 224.205 356.944 224.205ZM364.029 209.573C364.029 208.554 364.597 208.045 365.731 208.045C366.866 208.045 367.434 208.554 367.434 209.573C367.434 210.058 367.29 210.438 367.003 210.711C366.723 210.978 366.299 211.111 365.731 211.111C364.597 211.111 364.029 210.598 364.029 209.573ZM367.29 224H364.163V212.536H367.29V224ZM373.309 224L368.941 212.536H372.212L374.427 219.068C374.652 219.779 374.799 220.562 374.868 221.416H374.95C374.991 220.644 375.145 219.861 375.411 219.068L377.616 212.536H380.887L376.519 224H373.309ZM387.285 214.546C386.622 214.546 386.103 214.758 385.727 215.182C385.351 215.599 385.135 216.193 385.081 216.966H389.469C389.456 216.193 389.254 215.599 388.864 215.182C388.475 214.758 387.948 214.546 387.285 214.546ZM387.726 224.205C385.88 224.205 384.438 223.696 383.399 222.677C382.36 221.659 381.84 220.216 381.84 218.35C381.84 216.429 382.319 214.946 383.276 213.9C384.24 212.847 385.569 212.321 387.265 212.321C388.885 212.321 390.146 212.782 391.048 213.705C391.951 214.628 392.402 215.903 392.402 217.53V219.047H385.009C385.043 219.936 385.306 220.63 385.798 221.129C386.291 221.628 386.981 221.877 387.87 221.877C388.56 221.877 389.213 221.806 389.828 221.662C390.443 221.519 391.086 221.29 391.756 220.975V223.395C391.209 223.668 390.625 223.87 390.002 224C389.38 224.137 388.622 224.205 387.726 224.205ZM409.823 224L408.736 220.432H403.271L402.184 224H398.759L404.05 208.947H407.937L413.248 224H409.823ZM407.978 217.766C406.973 214.532 406.405 212.704 406.275 212.28C406.152 211.856 406.063 211.521 406.009 211.275C405.783 212.15 405.137 214.313 404.071 217.766H407.978ZM421.195 224.205C419.848 224.205 418.792 223.716 418.026 222.739H417.862C417.972 223.696 418.026 224.25 418.026 224.4V229.045H414.899V212.536H417.442L417.883 214.023H418.026C418.758 212.888 419.841 212.321 421.277 212.321C422.63 212.321 423.69 212.844 424.456 213.89C425.221 214.936 425.604 216.388 425.604 218.248C425.604 219.471 425.423 220.534 425.061 221.437C424.705 222.339 424.196 223.026 423.533 223.498C422.87 223.969 422.09 224.205 421.195 224.205ZM420.272 214.823C419.5 214.823 418.936 215.062 418.58 215.541C418.225 216.012 418.04 216.795 418.026 217.889V218.227C418.026 219.458 418.208 220.339 418.57 220.873C418.939 221.406 419.52 221.672 420.313 221.672C421.714 221.672 422.415 220.517 422.415 218.207C422.415 217.079 422.241 216.234 421.892 215.674C421.55 215.106 421.01 214.823 420.272 214.823ZM434.484 224.205C433.137 224.205 432.081 223.716 431.315 222.739H431.151C431.261 223.696 431.315 224.25 431.315 224.4V229.045H428.188V212.536H430.731L431.172 214.023H431.315C432.047 212.888 433.13 212.321 434.566 212.321C435.919 212.321 436.979 212.844 437.745 213.89C438.51 214.936 438.893 216.388 438.893 218.248C438.893 219.471 438.712 220.534 438.35 221.437C437.994 222.339 437.485 223.026 436.822 223.498C436.159 223.969 435.379 224.205 434.484 224.205ZM433.561 214.823C432.789 214.823 432.225 215.062 431.869 215.541C431.514 216.012 431.329 216.795 431.315 217.889V218.227C431.315 219.458 431.497 220.339 431.859 220.873C432.228 221.406 432.809 221.672 433.602 221.672C435.003 221.672 435.704 220.517 435.704 218.207C435.704 217.079 435.53 216.234 435.181 215.674C434.839 215.106 434.299 214.823 433.561 214.823ZM444.604 224H441.477V208.045H444.604V224ZM447.763 209.573C447.763 208.554 448.33 208.045 449.465 208.045C450.6 208.045 451.167 208.554 451.167 209.573C451.167 210.058 451.023 210.438 450.736 210.711C450.456 210.978 450.032 211.111 449.465 211.111C448.33 211.111 447.763 210.598 447.763 209.573ZM451.023 224H447.896V212.536H451.023V224ZM458.97 224.205C455.402 224.205 453.618 222.247 453.618 218.33C453.618 216.381 454.103 214.895 455.074 213.869C456.044 212.837 457.436 212.321 459.247 212.321C460.573 212.321 461.763 212.581 462.815 213.1L461.893 215.52C461.4 215.322 460.942 215.161 460.519 215.038C460.095 214.908 459.671 214.843 459.247 214.843C457.62 214.843 456.807 215.999 456.807 218.309C456.807 220.551 457.62 221.672 459.247 221.672C459.849 221.672 460.406 221.594 460.918 221.437C461.431 221.272 461.944 221.02 462.457 220.678V223.354C461.951 223.675 461.438 223.897 460.918 224.021C460.406 224.144 459.756 224.205 458.97 224.205ZM472.403 224L471.798 222.441H471.716C471.189 223.104 470.646 223.566 470.085 223.826C469.532 224.079 468.807 224.205 467.912 224.205C466.811 224.205 465.943 223.891 465.307 223.262C464.678 222.633 464.364 221.737 464.364 220.575C464.364 219.358 464.788 218.463 465.635 217.889C466.49 217.308 467.775 216.986 469.491 216.925L471.48 216.863V216.361C471.48 215.199 470.885 214.618 469.696 214.618C468.78 214.618 467.703 214.895 466.466 215.448L465.43 213.336C466.75 212.646 468.212 212.3 469.819 212.3C471.357 212.3 472.536 212.635 473.356 213.305C474.177 213.975 474.587 214.994 474.587 216.361V224H472.403ZM471.48 218.688L470.27 218.729C469.361 218.757 468.684 218.921 468.24 219.222C467.795 219.522 467.573 219.98 467.573 220.596C467.573 221.478 468.079 221.918 469.091 221.918C469.815 221.918 470.393 221.71 470.824 221.293C471.261 220.876 471.48 220.322 471.48 219.632V218.688ZM482.646 221.713C483.193 221.713 483.85 221.594 484.615 221.354V223.682C483.836 224.031 482.879 224.205 481.744 224.205C480.493 224.205 479.581 223.891 479.006 223.262C478.439 222.626 478.155 221.676 478.155 220.411V214.884H476.658V213.562L478.381 212.516L479.283 210.096H481.283V212.536H484.492V214.884H481.283V220.411C481.283 220.855 481.406 221.184 481.652 221.396C481.905 221.607 482.236 221.713 482.646 221.713ZM486.81 209.573C486.81 208.554 487.377 208.045 488.512 208.045C489.646 208.045 490.214 208.554 490.214 209.573C490.214 210.058 490.07 210.438 489.783 210.711C489.503 210.978 489.079 211.111 488.512 211.111C487.377 211.111 486.81 210.598 486.81 209.573ZM490.07 224H486.943V212.536H490.07V224ZM495.854 218.248C495.854 219.382 496.038 220.24 496.407 220.821C496.783 221.402 497.392 221.693 498.232 221.693C499.066 221.693 499.665 221.406 500.027 220.832C500.396 220.25 500.581 219.389 500.581 218.248C500.581 217.113 500.396 216.262 500.027 215.694C499.658 215.127 499.053 214.843 498.212 214.843C497.378 214.843 496.776 215.127 496.407 215.694C496.038 216.255 495.854 217.106 495.854 218.248ZM503.78 218.248C503.78 220.114 503.288 221.573 502.303 222.626C501.319 223.679 499.948 224.205 498.191 224.205C497.091 224.205 496.12 223.966 495.279 223.487C494.438 223.002 493.792 222.308 493.341 221.406C492.89 220.503 492.665 219.451 492.665 218.248C492.665 216.375 493.153 214.918 494.131 213.879C495.108 212.84 496.482 212.321 498.253 212.321C499.354 212.321 500.324 212.56 501.165 213.039C502.006 213.517 502.652 214.204 503.103 215.1C503.554 215.995 503.78 217.044 503.78 218.248ZM516.946 224H513.818V217.304C513.818 216.477 513.671 215.858 513.377 215.448C513.083 215.031 512.615 214.823 511.973 214.823C511.098 214.823 510.465 215.117 510.076 215.705C509.686 216.286 509.491 217.253 509.491 218.606V224H506.364V212.536H508.753L509.173 214.002H509.348C509.696 213.449 510.175 213.032 510.783 212.751C511.398 212.464 512.096 212.321 512.875 212.321C514.208 212.321 515.22 212.683 515.91 213.408C516.601 214.125 516.946 215.165 516.946 216.525V224ZM528.164 220.596C528.164 221.771 527.753 222.667 526.933 223.282C526.12 223.897 524.899 224.205 523.272 224.205C522.438 224.205 521.728 224.147 521.14 224.031C520.552 223.921 520.001 223.757 519.489 223.539V220.955C520.07 221.228 520.723 221.457 521.447 221.642C522.179 221.826 522.821 221.918 523.375 221.918C524.51 221.918 525.077 221.59 525.077 220.934C525.077 220.688 525.002 220.49 524.852 220.339C524.701 220.182 524.441 220.008 524.072 219.816C523.703 219.618 523.211 219.389 522.596 219.129C521.714 218.76 521.064 218.418 520.647 218.104C520.237 217.79 519.937 217.431 519.745 217.027C519.561 216.617 519.468 216.115 519.468 215.52C519.468 214.501 519.861 213.715 520.647 213.162C521.44 212.601 522.562 212.321 524.011 212.321C525.392 212.321 526.735 212.622 528.041 213.223L527.097 215.479C526.523 215.233 525.986 215.031 525.487 214.874C524.988 214.717 524.479 214.638 523.959 214.638C523.037 214.638 522.575 214.888 522.575 215.387C522.575 215.667 522.722 215.91 523.016 216.115C523.317 216.32 523.97 216.624 524.975 217.027C525.87 217.39 526.526 217.728 526.943 218.042C527.36 218.357 527.668 218.719 527.866 219.129C528.064 219.54 528.164 220.028 528.164 220.596Z" fill="white"/>
<path d="M326.89 499.439C325.693 499.439 324.767 499.89 324.111 500.792C323.455 501.688 323.126 502.939 323.126 504.545C323.126 507.888 324.381 509.56 326.89 509.56C327.942 509.56 329.217 509.296 330.714 508.77V511.436C329.484 511.949 328.11 512.205 326.592 512.205C324.412 512.205 322.744 511.545 321.588 510.226C320.433 508.9 319.855 507 319.855 504.525C319.855 502.966 320.139 501.603 320.707 500.434C321.274 499.258 322.087 498.359 323.147 497.737C324.213 497.108 325.461 496.793 326.89 496.793C328.346 496.793 329.809 497.146 331.278 497.85L330.253 500.434C329.692 500.167 329.128 499.935 328.561 499.736C327.994 499.538 327.437 499.439 326.89 499.439ZM336.159 506.248C336.159 507.382 336.344 508.24 336.713 508.821C337.089 509.402 337.697 509.693 338.538 509.693C339.372 509.693 339.97 509.406 340.333 508.832C340.702 508.25 340.886 507.389 340.886 506.248C340.886 505.113 340.702 504.262 340.333 503.694C339.963 503.127 339.358 502.843 338.518 502.843C337.684 502.843 337.082 503.127 336.713 503.694C336.344 504.255 336.159 505.106 336.159 506.248ZM344.085 506.248C344.085 508.114 343.593 509.573 342.609 510.626C341.625 511.679 340.254 512.205 338.497 512.205C337.396 512.205 336.426 511.966 335.585 511.487C334.744 511.002 334.098 510.308 333.647 509.406C333.196 508.503 332.97 507.451 332.97 506.248C332.97 504.375 333.459 502.918 334.437 501.879C335.414 500.84 336.788 500.321 338.559 500.321C339.659 500.321 340.63 500.56 341.471 501.039C342.312 501.517 342.958 502.204 343.409 503.1C343.86 503.995 344.085 505.044 344.085 506.248ZM357.251 512H354.124V505.304C354.124 504.477 353.977 503.858 353.683 503.448C353.389 503.031 352.921 502.823 352.278 502.823C351.403 502.823 350.771 503.117 350.381 503.705C349.992 504.286 349.797 505.253 349.797 506.606V512H346.669V500.536H349.059L349.479 502.002H349.653C350.002 501.449 350.48 501.032 351.089 500.751C351.704 500.464 352.401 500.321 353.181 500.321C354.514 500.321 355.525 500.683 356.216 501.408C356.906 502.125 357.251 503.165 357.251 504.525V512ZM364.101 512.205C362.754 512.205 361.695 511.682 360.922 510.636C360.157 509.59 359.774 508.141 359.774 506.289C359.774 504.409 360.164 502.946 360.943 501.9C361.729 500.847 362.809 500.321 364.183 500.321C365.625 500.321 366.726 500.881 367.485 502.002H367.587C367.43 501.148 367.352 500.386 367.352 499.716V496.045H370.489V512H368.09L367.485 510.513H367.352C366.641 511.641 365.557 512.205 364.101 512.205ZM365.198 509.713C365.998 509.713 366.583 509.481 366.952 509.016C367.328 508.551 367.533 507.762 367.567 506.647V506.309C367.567 505.079 367.375 504.197 366.993 503.664C366.617 503.13 366.001 502.864 365.147 502.864C364.45 502.864 363.906 503.161 363.517 503.756C363.134 504.344 362.942 505.202 362.942 506.33C362.942 507.458 363.137 508.305 363.527 508.873C363.917 509.433 364.474 509.713 365.198 509.713ZM381.881 512L381.461 510.534H381.297C380.962 511.067 380.487 511.48 379.872 511.774C379.256 512.062 378.556 512.205 377.77 512.205C376.423 512.205 375.408 511.846 374.724 511.128C374.041 510.404 373.699 509.365 373.699 508.011V500.536H376.826V507.232C376.826 508.059 376.973 508.681 377.267 509.098C377.561 509.508 378.029 509.713 378.672 509.713C379.547 509.713 380.179 509.423 380.569 508.842C380.958 508.254 381.153 507.283 381.153 505.93V500.536H384.281V512H381.881ZM392.217 512.205C388.649 512.205 386.865 510.247 386.865 506.33C386.865 504.381 387.35 502.895 388.321 501.869C389.292 500.837 390.683 500.321 392.494 500.321C393.82 500.321 395.01 500.581 396.062 501.1L395.14 503.52C394.647 503.322 394.189 503.161 393.766 503.038C393.342 502.908 392.918 502.843 392.494 502.843C390.867 502.843 390.054 503.999 390.054 506.309C390.054 508.551 390.867 509.672 392.494 509.672C393.096 509.672 393.653 509.594 394.166 509.437C394.678 509.272 395.191 509.02 395.704 508.678V511.354C395.198 511.675 394.685 511.897 394.166 512.021C393.653 512.144 393.003 512.205 392.217 512.205ZM403.199 509.713C403.746 509.713 404.402 509.594 405.168 509.354V511.682C404.389 512.031 403.432 512.205 402.297 512.205C401.046 512.205 400.133 511.891 399.559 511.262C398.992 510.626 398.708 509.676 398.708 508.411V502.884H397.211V501.562L398.934 500.516L399.836 498.096H401.835V500.536H405.045V502.884H401.835V508.411C401.835 508.855 401.958 509.184 402.205 509.396C402.458 509.607 402.789 509.713 403.199 509.713ZM418.806 512H411.987V510.195L413.812 509.354V499.654L411.987 498.813V497.009H418.806V498.813L416.98 499.654V509.354L418.806 510.195V512ZM431.715 512H428.588V505.304C428.588 504.477 428.441 503.858 428.147 503.448C427.853 503.031 427.385 502.823 426.742 502.823C425.867 502.823 425.235 503.117 424.845 503.705C424.456 504.286 424.261 505.253 424.261 506.606V512H421.133V500.536H423.522L423.943 502.002H424.117C424.466 501.449 424.944 501.032 425.553 500.751C426.168 500.464 426.865 500.321 427.645 500.321C428.978 500.321 429.989 500.683 430.68 501.408C431.37 502.125 431.715 503.165 431.715 504.525V512ZM439.765 509.713C440.312 509.713 440.968 509.594 441.733 509.354V511.682C440.954 512.031 439.997 512.205 438.862 512.205C437.611 512.205 436.699 511.891 436.125 511.262C435.557 510.626 435.273 509.676 435.273 508.411V502.884H433.776V501.562L435.499 500.516L436.401 498.096H438.401V500.536H441.61V502.884H438.401V508.411C438.401 508.855 438.524 509.184 438.77 509.396C439.023 509.607 439.354 509.713 439.765 509.713ZM448.809 502.546C448.146 502.546 447.626 502.758 447.25 503.182C446.874 503.599 446.659 504.193 446.604 504.966H450.993C450.979 504.193 450.777 503.599 450.388 503.182C449.998 502.758 449.472 502.546 448.809 502.546ZM449.25 512.205C447.404 512.205 445.961 511.696 444.922 510.677C443.883 509.659 443.364 508.216 443.364 506.35C443.364 504.429 443.842 502.946 444.799 501.9C445.763 500.847 447.093 500.321 448.788 500.321C450.408 500.321 451.669 500.782 452.572 501.705C453.474 502.628 453.925 503.903 453.925 505.53V507.047H446.532C446.566 507.936 446.83 508.63 447.322 509.129C447.814 509.628 448.504 509.877 449.393 509.877C450.083 509.877 450.736 509.806 451.352 509.662C451.967 509.519 452.609 509.29 453.279 508.975V511.395C452.732 511.668 452.148 511.87 451.526 512C450.904 512.137 450.145 512.205 449.25 512.205ZM462.867 500.321C463.291 500.321 463.643 500.352 463.923 500.413L463.687 503.346C463.434 503.277 463.126 503.243 462.764 503.243C461.766 503.243 460.987 503.5 460.426 504.012C459.873 504.525 459.596 505.243 459.596 506.166V512H456.468V500.536H458.837L459.298 502.464H459.452C459.808 501.821 460.286 501.305 460.888 500.916C461.496 500.519 462.156 500.321 462.867 500.321ZM468.732 512L464.364 500.536H467.635L469.85 507.068C470.075 507.779 470.222 508.562 470.291 509.416H470.373C470.414 508.644 470.567 507.861 470.834 507.068L473.039 500.536H476.31L471.941 512H468.732ZM477.827 497.573C477.827 496.554 478.395 496.045 479.529 496.045C480.664 496.045 481.231 496.554 481.231 497.573C481.231 498.058 481.088 498.438 480.801 498.711C480.521 498.978 480.097 499.111 479.529 499.111C478.395 499.111 477.827 498.598 477.827 497.573ZM481.088 512H477.96V500.536H481.088V512ZM489.127 502.546C488.464 502.546 487.944 502.758 487.568 503.182C487.192 503.599 486.977 504.193 486.922 504.966H491.311C491.297 504.193 491.096 503.599 490.706 503.182C490.316 502.758 489.79 502.546 489.127 502.546ZM489.568 512.205C487.722 512.205 486.28 511.696 485.241 510.677C484.202 509.659 483.682 508.216 483.682 506.35C483.682 504.429 484.161 502.946 485.118 501.9C486.082 500.847 487.411 500.321 489.106 500.321C490.727 500.321 491.988 500.782 492.89 501.705C493.792 502.628 494.244 503.903 494.244 505.53V507.047H486.851C486.885 507.936 487.148 508.63 487.64 509.129C488.132 509.628 488.823 509.877 489.711 509.877C490.402 509.877 491.055 509.806 491.67 509.662C492.285 509.519 492.928 509.29 493.598 508.975V511.395C493.051 511.668 492.466 511.87 491.844 512C491.222 512.137 490.463 512.205 489.568 512.205ZM506.005 512L505.123 507.991L503.954 502.925H503.862L501.77 512H498.407L495.146 500.536H498.263L499.586 505.612C499.736 506.213 499.945 507.468 500.211 509.375H500.293C500.321 508.855 500.44 508.032 500.652 506.904L500.816 506.032L502.231 500.536H505.677L507.02 506.032C507.102 506.408 507.201 506.962 507.317 507.693C507.44 508.418 507.509 508.979 507.522 509.375H507.604C507.68 508.767 507.786 508.076 507.922 507.304C508.059 506.524 508.175 505.96 508.271 505.612L509.645 500.536H512.711L509.409 512H506.005ZM522.565 508.596C522.565 509.771 522.155 510.667 521.334 511.282C520.521 511.897 519.301 512.205 517.674 512.205C516.84 512.205 516.129 512.147 515.541 512.031C514.953 511.921 514.403 511.757 513.89 511.539V508.955C514.471 509.228 515.124 509.457 515.849 509.642C516.58 509.826 517.223 509.918 517.776 509.918C518.911 509.918 519.479 509.59 519.479 508.934C519.479 508.688 519.403 508.49 519.253 508.339C519.103 508.182 518.843 508.008 518.474 507.816C518.104 507.618 517.612 507.389 516.997 507.129C516.115 506.76 515.466 506.418 515.049 506.104C514.639 505.79 514.338 505.431 514.146 505.027C513.962 504.617 513.87 504.115 513.87 503.52C513.87 502.501 514.263 501.715 515.049 501.162C515.842 500.601 516.963 500.321 518.412 500.321C519.793 500.321 521.136 500.622 522.442 501.223L521.499 503.479C520.924 503.233 520.388 503.031 519.889 502.874C519.39 502.717 518.88 502.638 518.361 502.638C517.438 502.638 516.977 502.888 516.977 503.387C516.977 503.667 517.124 503.91 517.417 504.115C517.718 504.32 518.371 504.624 519.376 505.027C520.271 505.39 520.928 505.728 521.345 506.042C521.762 506.357 522.069 506.719 522.268 507.129C522.466 507.54 522.565 508.028 522.565 508.596Z" fill="white"/>
<path d="M290.929 656H286.889L280.368 644.659H280.275C280.405 646.662 280.47 648.091 280.47 648.945V656H277.63V641.009H281.639L288.15 652.237H288.222C288.12 650.289 288.068 648.911 288.068 648.104V641.009H290.929V656ZM296.958 650.248C296.958 651.382 297.143 652.24 297.512 652.821C297.888 653.402 298.497 653.693 299.337 653.693C300.171 653.693 300.77 653.406 301.132 652.832C301.501 652.25 301.686 651.389 301.686 650.248C301.686 649.113 301.501 648.262 301.132 647.694C300.763 647.127 300.158 646.843 299.317 646.843C298.483 646.843 297.881 647.127 297.512 647.694C297.143 648.255 296.958 649.106 296.958 650.248ZM304.885 650.248C304.885 652.114 304.393 653.573 303.408 654.626C302.424 655.679 301.053 656.205 299.296 656.205C298.196 656.205 297.225 655.966 296.384 655.487C295.543 655.002 294.897 654.308 294.446 653.406C293.995 652.503 293.77 651.451 293.77 650.248C293.77 648.375 294.258 646.918 295.236 645.879C296.213 644.84 297.587 644.321 299.358 644.321C300.458 644.321 301.429 644.56 302.27 645.039C303.111 645.517 303.757 646.204 304.208 647.1C304.659 647.995 304.885 649.044 304.885 650.248ZM312.298 653.713C312.845 653.713 313.501 653.594 314.267 653.354V655.682C313.488 656.031 312.531 656.205 311.396 656.205C310.145 656.205 309.232 655.891 308.658 655.262C308.091 654.626 307.807 653.676 307.807 652.411V646.884H306.31V645.562L308.033 644.516L308.935 642.096H310.935V644.536H314.144V646.884H310.935V652.411C310.935 652.855 311.058 653.184 311.304 653.396C311.557 653.607 311.888 653.713 312.298 653.713ZM316.461 641.573C316.461 640.554 317.029 640.045 318.164 640.045C319.298 640.045 319.866 640.554 319.866 641.573C319.866 642.058 319.722 642.438 319.435 642.711C319.155 642.978 318.731 643.111 318.164 643.111C317.029 643.111 316.461 642.598 316.461 641.573ZM319.722 656H316.595V644.536H319.722V656ZM329.351 646.884H326.644V656H323.516V646.884H321.793V645.377L323.516 644.536V643.695C323.516 642.39 323.837 641.436 324.48 640.834C325.123 640.233 326.151 639.932 327.566 639.932C328.646 639.932 329.607 640.093 330.448 640.414L329.648 642.711C329.019 642.513 328.438 642.414 327.905 642.414C327.46 642.414 327.139 642.547 326.941 642.813C326.743 643.073 326.644 643.408 326.644 643.818V644.536H329.351V646.884ZM329.515 644.536H332.939L335.103 650.986C335.288 651.546 335.414 652.209 335.482 652.975H335.544C335.619 652.271 335.766 651.608 335.985 650.986L338.107 644.536H341.46L336.61 657.466C336.166 658.663 335.53 659.558 334.703 660.153C333.883 660.748 332.922 661.045 331.822 661.045C331.282 661.045 330.752 660.987 330.232 660.871V658.389C330.608 658.478 331.019 658.522 331.463 658.522C332.017 658.522 332.499 658.352 332.909 658.01C333.326 657.675 333.65 657.166 333.883 656.482L334.067 655.918L329.515 644.536ZM357.99 656L356.903 652.432H351.438L350.351 656H346.926L352.217 640.947H356.103L361.415 656H357.99ZM356.144 649.766C355.139 646.532 354.572 644.704 354.442 644.28C354.319 643.856 354.23 643.521 354.175 643.275C353.95 644.15 353.304 646.313 352.237 649.766H356.144ZM369.361 656.205C368.015 656.205 366.958 655.716 366.193 654.739H366.029C366.138 655.696 366.193 656.25 366.193 656.4V661.045H363.065V644.536H365.608L366.049 646.023H366.193C366.924 644.888 368.008 644.321 369.443 644.321C370.797 644.321 371.856 644.844 372.622 645.89C373.388 646.936 373.771 648.388 373.771 650.248C373.771 651.471 373.589 652.534 373.227 653.437C372.872 654.339 372.362 655.026 371.699 655.498C371.036 655.969 370.257 656.205 369.361 656.205ZM368.438 646.823C367.666 646.823 367.102 647.062 366.747 647.541C366.391 648.012 366.207 648.795 366.193 649.889V650.227C366.193 651.458 366.374 652.339 366.736 652.873C367.105 653.406 367.687 653.672 368.479 653.672C369.881 653.672 370.582 652.517 370.582 650.207C370.582 649.079 370.407 648.234 370.059 647.674C369.717 647.106 369.177 646.823 368.438 646.823ZM382.65 656.205C381.304 656.205 380.248 655.716 379.482 654.739H379.318C379.427 655.696 379.482 656.25 379.482 656.4V661.045H376.354V644.536H378.897L379.338 646.023H379.482C380.213 644.888 381.297 644.321 382.732 644.321C384.086 644.321 385.146 644.844 385.911 645.89C386.677 646.936 387.06 648.388 387.06 650.248C387.06 651.471 386.878 652.534 386.516 653.437C386.161 654.339 385.651 655.026 384.988 655.498C384.325 655.969 383.546 656.205 382.65 656.205ZM381.728 646.823C380.955 646.823 380.391 647.062 380.036 647.541C379.68 648.012 379.496 648.795 379.482 649.889V650.227C379.482 651.458 379.663 652.339 380.025 652.873C380.395 653.406 380.976 653.672 381.769 653.672C383.17 653.672 383.871 652.517 383.871 650.207C383.871 649.079 383.696 648.234 383.348 647.674C383.006 647.106 382.466 646.823 381.728 646.823ZM392.771 656H389.644V640.045H392.771V656ZM395.929 641.573C395.929 640.554 396.497 640.045 397.631 640.045C398.766 640.045 399.333 640.554 399.333 641.573C399.333 642.058 399.19 642.438 398.903 642.711C398.623 642.978 398.199 643.111 397.631 643.111C396.497 643.111 395.929 642.598 395.929 641.573ZM399.19 656H396.062V644.536H399.19V656ZM407.137 656.205C403.568 656.205 401.784 654.247 401.784 650.33C401.784 648.381 402.27 646.895 403.24 645.869C404.211 644.837 405.602 644.321 407.414 644.321C408.74 644.321 409.929 644.581 410.982 645.1L410.059 647.52C409.567 647.322 409.109 647.161 408.685 647.038C408.261 646.908 407.837 646.843 407.414 646.843C405.787 646.843 404.973 647.999 404.973 650.309C404.973 652.551 405.787 653.672 407.414 653.672C408.015 653.672 408.572 653.594 409.085 653.437C409.598 653.272 410.11 653.02 410.623 652.678V655.354C410.117 655.675 409.604 655.897 409.085 656.021C408.572 656.144 407.923 656.205 407.137 656.205ZM420.569 656L419.964 654.441H419.882C419.356 655.104 418.812 655.566 418.252 655.826C417.698 656.079 416.974 656.205 416.078 656.205C414.978 656.205 414.109 655.891 413.474 655.262C412.845 654.633 412.53 653.737 412.53 652.575C412.53 651.358 412.954 650.463 413.802 649.889C414.656 649.308 415.941 648.986 417.657 648.925L419.646 648.863V648.361C419.646 647.199 419.052 646.618 417.862 646.618C416.946 646.618 415.87 646.895 414.632 647.448L413.597 645.336C414.916 644.646 416.379 644.3 417.985 644.3C419.523 644.3 420.703 644.635 421.523 645.305C422.343 645.975 422.753 646.994 422.753 648.361V656H420.569ZM419.646 650.688L418.437 650.729C417.527 650.757 416.851 650.921 416.406 651.222C415.962 651.522 415.74 651.98 415.74 652.596C415.74 653.478 416.246 653.918 417.257 653.918C417.982 653.918 418.56 653.71 418.99 653.293C419.428 652.876 419.646 652.322 419.646 651.632V650.688ZM436.565 656H433.438V649.304C433.438 648.477 433.291 647.858 432.997 647.448C432.703 647.031 432.235 646.823 431.592 646.823C430.717 646.823 430.085 647.117 429.695 647.705C429.306 648.286 429.111 649.253 429.111 650.606V656H425.983V644.536H428.373L428.793 646.002H428.967C429.316 645.449 429.794 645.032 430.403 644.751C431.018 644.464 431.715 644.321 432.495 644.321C433.828 644.321 434.839 644.683 435.53 645.408C436.22 646.125 436.565 647.165 436.565 648.525V656ZM444.615 653.713C445.162 653.713 445.818 653.594 446.583 653.354V655.682C445.804 656.031 444.847 656.205 443.712 656.205C442.461 656.205 441.549 655.891 440.975 655.262C440.407 654.626 440.124 653.676 440.124 652.411V646.884H438.626V645.562L440.349 644.516L441.251 642.096H443.251V644.536H446.46V646.884H443.251V652.411C443.251 652.855 443.374 653.184 443.62 653.396C443.873 653.607 444.205 653.713 444.615 653.713ZM456.909 652.596C456.909 653.771 456.499 654.667 455.679 655.282C454.865 655.897 453.645 656.205 452.018 656.205C451.184 656.205 450.473 656.147 449.885 656.031C449.297 655.921 448.747 655.757 448.234 655.539V652.955C448.815 653.228 449.468 653.457 450.193 653.642C450.924 653.826 451.567 653.918 452.121 653.918C453.255 653.918 453.823 653.59 453.823 652.934C453.823 652.688 453.748 652.49 453.597 652.339C453.447 652.182 453.187 652.008 452.818 651.816C452.449 651.618 451.957 651.389 451.341 651.129C450.459 650.76 449.81 650.418 449.393 650.104C448.983 649.79 448.682 649.431 448.491 649.027C448.306 648.617 448.214 648.115 448.214 647.52C448.214 646.501 448.607 645.715 449.393 645.162C450.186 644.601 451.307 644.321 452.756 644.321C454.137 644.321 455.48 644.622 456.786 645.223L455.843 647.479C455.269 647.233 454.732 647.031 454.233 646.874C453.734 646.717 453.225 646.638 452.705 646.638C451.782 646.638 451.321 646.888 451.321 647.387C451.321 647.667 451.468 647.91 451.762 648.115C452.062 648.32 452.715 648.624 453.72 649.027C454.616 649.39 455.272 649.728 455.689 650.042C456.106 650.357 456.414 650.719 456.612 651.129C456.81 651.54 456.909 652.028 456.909 652.596ZM467.296 650.248C467.296 651.382 467.481 652.24 467.85 652.821C468.226 653.402 468.834 653.693 469.675 653.693C470.509 653.693 471.107 653.406 471.47 652.832C471.839 652.25 472.023 651.389 472.023 650.248C472.023 649.113 471.839 648.262 471.47 647.694C471.101 647.127 470.496 646.843 469.655 646.843C468.821 646.843 468.219 647.127 467.85 647.694C467.481 648.255 467.296 649.106 467.296 650.248ZM475.223 650.248C475.223 652.114 474.73 653.573 473.746 654.626C472.762 655.679 471.391 656.205 469.634 656.205C468.534 656.205 467.563 655.966 466.722 655.487C465.881 655.002 465.235 654.308 464.784 653.406C464.333 652.503 464.107 651.451 464.107 650.248C464.107 648.375 464.596 646.918 465.574 645.879C466.551 644.84 467.925 644.321 469.696 644.321C470.796 644.321 471.767 644.56 472.608 645.039C473.449 645.517 474.095 646.204 474.546 647.1C474.997 647.995 475.223 649.044 475.223 650.248ZM484.144 646.884H481.437V656H478.309V646.884H476.586V645.377L478.309 644.536V643.695C478.309 642.39 478.63 641.436 479.273 640.834C479.916 640.233 480.944 639.932 482.359 639.932C483.439 639.932 484.4 640.093 485.241 640.414L484.441 642.711C483.812 642.513 483.231 642.414 482.698 642.414C482.253 642.414 481.932 642.547 481.734 642.813C481.536 643.073 481.437 643.408 481.437 643.818V644.536H484.144V646.884ZM494.828 647.664H495.854C496.858 647.664 497.6 647.496 498.079 647.161C498.557 646.826 498.796 646.3 498.796 645.582C498.796 644.871 498.55 644.365 498.058 644.064C497.573 643.764 496.817 643.613 495.792 643.613H494.828V647.664ZM494.828 650.248V656H491.649V641.009H496.018C498.055 641.009 499.562 641.381 500.54 642.126C501.517 642.865 502.006 643.989 502.006 645.5C502.006 646.382 501.763 647.168 501.278 647.858C500.792 648.542 500.105 649.079 499.217 649.468L503.626 656H500.099L496.52 650.248H494.828ZM510.014 646.546C509.351 646.546 508.832 646.758 508.456 647.182C508.08 647.599 507.864 648.193 507.81 648.966H512.198C512.185 648.193 511.983 647.599 511.593 647.182C511.204 646.758 510.677 646.546 510.014 646.546ZM510.455 656.205C508.609 656.205 507.167 655.696 506.128 654.677C505.089 653.659 504.569 652.216 504.569 650.35C504.569 648.429 505.048 646.946 506.005 645.9C506.969 644.847 508.298 644.321 509.994 644.321C511.614 644.321 512.875 644.782 513.777 645.705C514.68 646.628 515.131 647.903 515.131 649.53V651.047H507.738C507.772 651.936 508.035 652.63 508.527 653.129C509.02 653.628 509.71 653.877 510.599 653.877C511.289 653.877 511.942 653.806 512.557 653.662C513.172 653.519 513.815 653.29 514.485 652.975V655.395C513.938 655.668 513.354 655.87 512.731 656C512.109 656.137 511.351 656.205 510.455 656.205ZM525.672 652.596C525.672 653.771 525.262 654.667 524.441 655.282C523.628 655.897 522.408 656.205 520.781 656.205C519.947 656.205 519.236 656.147 518.648 656.031C518.06 655.921 517.51 655.757 516.997 655.539V652.955C517.578 653.228 518.231 653.457 518.956 653.642C519.687 653.826 520.33 653.918 520.883 653.918C522.018 653.918 522.585 653.59 522.585 652.934C522.585 652.688 522.51 652.49 522.36 652.339C522.209 652.182 521.95 652.008 521.581 651.816C521.211 651.618 520.719 651.389 520.104 651.129C519.222 650.76 518.573 650.418 518.156 650.104C517.746 649.79 517.445 649.431 517.253 649.027C517.069 648.617 516.977 648.115 516.977 647.52C516.977 646.501 517.37 645.715 518.156 645.162C518.949 644.601 520.07 644.321 521.519 644.321C522.9 644.321 524.243 644.622 525.549 645.223L524.605 647.479C524.031 647.233 523.495 647.031 522.996 646.874C522.497 646.717 521.987 646.638 521.468 646.638C520.545 646.638 520.083 646.888 520.083 647.387C520.083 647.667 520.23 647.91 520.524 648.115C520.825 648.32 521.478 648.624 522.483 649.027C523.378 649.39 524.035 649.728 524.452 650.042C524.869 650.357 525.176 650.719 525.375 651.129C525.573 651.54 525.672 652.028 525.672 652.596ZM536.233 656L535.813 654.534H535.649C535.314 655.067 534.839 655.48 534.224 655.774C533.608 656.062 532.908 656.205 532.122 656.205C530.775 656.205 529.76 655.846 529.076 655.128C528.393 654.404 528.051 653.365 528.051 652.011V644.536H531.178V651.232C531.178 652.059 531.325 652.681 531.619 653.098C531.913 653.508 532.381 653.713 533.024 653.713C533.899 653.713 534.531 653.423 534.921 652.842C535.311 652.254 535.505 651.283 535.505 649.93V644.536H538.633V656H536.233ZM545.042 656H541.914V640.045H545.042V656ZM553.163 653.713C553.709 653.713 554.366 653.594 555.131 653.354V655.682C554.352 656.031 553.395 656.205 552.26 656.205C551.009 656.205 550.097 655.891 549.522 655.262C548.955 654.626 548.671 653.676 548.671 652.411V646.884H547.174V645.562L548.897 644.516L549.799 642.096H551.799V644.536H555.008V646.884H551.799V652.411C551.799 652.855 551.922 653.184 552.168 653.396C552.421 653.607 552.752 653.713 553.163 653.713ZM565.457 652.596C565.457 653.771 565.047 654.667 564.227 655.282C563.413 655.897 562.193 656.205 560.566 656.205C559.732 656.205 559.021 656.147 558.433 656.031C557.845 655.921 557.295 655.757 556.782 655.539V652.955C557.363 653.228 558.016 653.457 558.741 653.642C559.472 653.826 560.115 653.918 560.668 653.918C561.803 653.918 562.371 653.59 562.371 652.934C562.371 652.688 562.295 652.49 562.145 652.339C561.995 652.182 561.735 652.008 561.366 651.816C560.997 651.618 560.504 651.389 559.889 651.129C559.007 650.76 558.358 650.418 557.941 650.104C557.531 649.79 557.23 649.431 557.039 649.027C556.854 648.617 556.762 648.115 556.762 647.52C556.762 646.501 557.155 645.715 557.941 645.162C558.734 644.601 559.855 644.321 561.304 644.321C562.685 644.321 564.028 644.622 565.334 645.223L564.391 647.479C563.816 647.233 563.28 647.031 562.781 646.874C562.282 646.717 561.772 646.638 561.253 646.638C560.33 646.638 559.869 646.888 559.869 647.387C559.869 647.667 560.016 647.91 560.31 648.115C560.61 648.32 561.263 648.624 562.268 649.027C563.164 649.39 563.82 649.728 564.237 650.042C564.654 650.357 564.961 650.719 565.16 651.129C565.358 651.54 565.457 652.028 565.457 652.596Z" fill="white"/>
<path d="M270.575 347.837C270.575 349.19 270.086 350.257 269.109 351.036C268.138 351.815 266.785 352.205 265.048 352.205C263.449 352.205 262.034 351.904 260.803 351.303V348.35C261.815 348.801 262.669 349.119 263.367 349.303C264.071 349.488 264.713 349.58 265.294 349.58C265.992 349.58 266.525 349.447 266.894 349.18C267.27 348.914 267.458 348.517 267.458 347.991C267.458 347.697 267.376 347.437 267.212 347.211C267.048 346.979 266.805 346.757 266.484 346.545C266.169 346.333 265.523 345.995 264.546 345.53C263.63 345.099 262.943 344.686 262.485 344.289C262.027 343.893 261.661 343.431 261.388 342.905C261.114 342.378 260.978 341.763 260.978 341.059C260.978 339.733 261.425 338.69 262.321 337.932C263.223 337.173 264.467 336.793 266.053 336.793C266.833 336.793 267.574 336.886 268.278 337.07C268.989 337.255 269.731 337.515 270.503 337.85L269.478 340.321C268.678 339.993 268.015 339.764 267.489 339.634C266.969 339.504 266.457 339.439 265.951 339.439C265.349 339.439 264.888 339.579 264.566 339.859C264.245 340.14 264.084 340.505 264.084 340.957C264.084 341.237 264.149 341.483 264.279 341.695C264.409 341.9 264.614 342.102 264.895 342.3C265.182 342.491 265.855 342.84 266.915 343.346C268.316 344.016 269.276 344.689 269.796 345.366C270.315 346.036 270.575 346.859 270.575 347.837ZM277.702 352.205C274.133 352.205 272.349 350.247 272.349 346.33C272.349 344.381 272.834 342.895 273.805 341.869C274.776 340.837 276.167 340.321 277.979 340.321C279.305 340.321 280.494 340.581 281.547 341.1L280.624 343.52C280.132 343.322 279.674 343.161 279.25 343.038C278.826 342.908 278.402 342.843 277.979 342.843C276.352 342.843 275.538 343.999 275.538 346.309C275.538 348.551 276.352 349.672 277.979 349.672C278.58 349.672 279.137 349.594 279.65 349.437C280.163 349.272 280.675 349.02 281.188 348.678V351.354C280.682 351.675 280.169 351.897 279.65 352.021C279.137 352.144 278.488 352.205 277.702 352.205ZM290.252 340.321C290.676 340.321 291.028 340.352 291.309 340.413L291.073 343.346C290.82 343.277 290.512 343.243 290.15 343.243C289.152 343.243 288.373 343.5 287.812 344.012C287.258 344.525 286.981 345.243 286.981 346.166V352H283.854V340.536H286.223L286.684 342.464H286.838C287.193 341.821 287.672 341.305 288.273 340.916C288.882 340.519 289.542 340.321 290.252 340.321ZM297.933 342.546C297.27 342.546 296.75 342.758 296.374 343.182C295.998 343.599 295.783 344.193 295.728 344.966H300.117C300.103 344.193 299.901 343.599 299.512 343.182C299.122 342.758 298.596 342.546 297.933 342.546ZM298.374 352.205C296.528 352.205 295.085 351.696 294.046 350.677C293.007 349.659 292.488 348.216 292.488 346.35C292.488 344.429 292.966 342.946 293.923 341.9C294.887 340.847 296.217 340.321 297.912 340.321C299.532 340.321 300.793 340.782 301.696 341.705C302.598 342.628 303.049 343.903 303.049 345.53V347.047H295.656C295.69 347.936 295.954 348.63 296.446 349.129C296.938 349.628 297.628 349.877 298.517 349.877C299.208 349.877 299.86 349.806 300.476 349.662C301.091 349.519 301.733 349.29 302.403 348.975V351.395C301.856 351.668 301.272 351.87 300.65 352C300.028 352.137 299.269 352.205 298.374 352.205ZM310.34 342.546C309.677 342.546 309.157 342.758 308.781 343.182C308.405 343.599 308.19 344.193 308.135 344.966H312.524C312.51 344.193 312.309 343.599 311.919 343.182C311.529 342.758 311.003 342.546 310.34 342.546ZM310.781 352.205C308.935 352.205 307.493 351.696 306.454 350.677C305.415 349.659 304.895 348.216 304.895 346.35C304.895 344.429 305.374 342.946 306.331 341.9C307.294 340.847 308.624 340.321 310.319 340.321C311.939 340.321 313.201 340.782 314.103 341.705C315.005 342.628 315.457 343.903 315.457 345.53V347.047H308.063C308.098 347.936 308.361 348.63 308.853 349.129C309.345 349.628 310.036 349.877 310.924 349.877C311.615 349.877 312.268 349.806 312.883 349.662C313.498 349.519 314.141 349.29 314.811 348.975V351.395C314.264 351.668 313.679 351.87 313.057 352C312.435 352.137 311.676 352.205 310.781 352.205ZM328.582 352H325.454V345.304C325.454 344.477 325.307 343.858 325.013 343.448C324.719 343.031 324.251 342.823 323.608 342.823C322.733 342.823 322.101 343.117 321.711 343.705C321.322 344.286 321.127 345.253 321.127 346.606V352H318V340.536H320.389L320.809 342.002H320.983C321.332 341.449 321.811 341.032 322.419 340.751C323.034 340.464 323.731 340.321 324.511 340.321C325.844 340.321 326.855 340.683 327.546 341.408C328.236 342.125 328.582 343.165 328.582 344.525V352ZM346.68 352L345.593 348.432H340.127L339.041 352H335.616L340.907 336.947H344.793L350.104 352H346.68ZM344.834 345.766C343.829 342.532 343.262 340.704 343.132 340.28C343.009 339.856 342.92 339.521 342.865 339.275C342.64 340.15 341.994 342.313 340.927 345.766H344.834ZM358.051 352.205C356.705 352.205 355.648 351.716 354.883 350.739H354.719C354.828 351.696 354.883 352.25 354.883 352.4V357.045H351.755V340.536H354.298L354.739 342.023H354.883C355.614 340.888 356.698 340.321 358.133 340.321C359.487 340.321 360.546 340.844 361.312 341.89C362.078 342.936 362.46 344.388 362.46 346.248C362.46 347.471 362.279 348.534 361.917 349.437C361.562 350.339 361.052 351.026 360.389 351.498C359.726 351.969 358.947 352.205 358.051 352.205ZM357.128 342.823C356.356 342.823 355.792 343.062 355.437 343.541C355.081 344.012 354.896 344.795 354.883 345.889V346.227C354.883 347.458 355.064 348.339 355.426 348.873C355.795 349.406 356.376 349.672 357.169 349.672C358.571 349.672 359.271 348.517 359.271 346.207C359.271 345.079 359.097 344.234 358.749 343.674C358.407 343.106 357.867 342.823 357.128 342.823ZM371.34 352.205C369.994 352.205 368.938 351.716 368.172 350.739H368.008C368.117 351.696 368.172 352.25 368.172 352.4V357.045H365.044V340.536H367.587L368.028 342.023H368.172C368.903 340.888 369.987 340.321 371.422 340.321C372.776 340.321 373.835 340.844 374.601 341.89C375.367 342.936 375.75 344.388 375.75 346.248C375.75 347.471 375.568 348.534 375.206 349.437C374.851 350.339 374.341 351.026 373.678 351.498C373.015 351.969 372.236 352.205 371.34 352.205ZM370.417 342.823C369.645 342.823 369.081 343.062 368.726 343.541C368.37 344.012 368.186 344.795 368.172 345.889V346.227C368.172 347.458 368.353 348.339 368.715 348.873C369.084 349.406 369.666 349.672 370.458 349.672C371.86 349.672 372.561 348.517 372.561 346.207C372.561 345.079 372.386 344.234 372.038 343.674C371.696 343.106 371.156 342.823 370.417 342.823ZM381.461 352H378.333V336.045H381.461V352ZM384.619 337.573C384.619 336.554 385.187 336.045 386.321 336.045C387.456 336.045 388.023 336.554 388.023 337.573C388.023 338.058 387.88 338.438 387.593 338.711C387.312 338.978 386.889 339.111 386.321 339.111C385.187 339.111 384.619 338.598 384.619 337.573ZM387.88 352H384.752V340.536H387.88V352ZM395.827 352.205C392.258 352.205 390.474 350.247 390.474 346.33C390.474 344.381 390.959 342.895 391.93 341.869C392.901 340.837 394.292 340.321 396.104 340.321C397.43 340.321 398.619 340.581 399.672 341.1L398.749 343.52C398.257 343.322 397.799 343.161 397.375 343.038C396.951 342.908 396.527 342.843 396.104 342.843C394.477 342.843 393.663 343.999 393.663 346.309C393.663 348.551 394.477 349.672 396.104 349.672C396.705 349.672 397.262 349.594 397.775 349.437C398.288 349.272 398.8 349.02 399.313 348.678V351.354C398.807 351.675 398.294 351.897 397.775 352.021C397.262 352.144 396.613 352.205 395.827 352.205ZM409.259 352L408.654 350.441H408.572C408.046 351.104 407.502 351.566 406.942 351.826C406.388 352.079 405.664 352.205 404.768 352.205C403.667 352.205 402.799 351.891 402.164 351.262C401.535 350.633 401.22 349.737 401.22 348.575C401.22 347.358 401.644 346.463 402.492 345.889C403.346 345.308 404.631 344.986 406.347 344.925L408.336 344.863V344.361C408.336 343.199 407.742 342.618 406.552 342.618C405.636 342.618 404.56 342.895 403.322 343.448L402.287 341.336C403.606 340.646 405.069 340.3 406.675 340.3C408.213 340.3 409.393 340.635 410.213 341.305C411.033 341.975 411.443 342.994 411.443 344.361V352H409.259ZM408.336 346.688L407.126 346.729C406.217 346.757 405.541 346.921 405.096 347.222C404.652 347.522 404.43 347.98 404.43 348.596C404.43 349.478 404.936 349.918 405.947 349.918C406.672 349.918 407.25 349.71 407.68 349.293C408.118 348.876 408.336 348.322 408.336 347.632V346.688ZM419.503 349.713C420.05 349.713 420.706 349.594 421.472 349.354V351.682C420.692 352.031 419.735 352.205 418.601 352.205C417.35 352.205 416.437 351.891 415.863 351.262C415.295 350.626 415.012 349.676 415.012 348.411V342.884H413.515V341.562L415.237 340.516L416.14 338.096H418.139V340.536H421.349V342.884H418.139V348.411C418.139 348.855 418.262 349.184 418.508 349.396C418.761 349.607 419.093 349.713 419.503 349.713ZM423.666 337.573C423.666 336.554 424.233 336.045 425.368 336.045C426.503 336.045 427.07 336.554 427.07 337.573C427.07 338.058 426.927 338.438 426.64 338.711C426.359 338.978 425.936 339.111 425.368 339.111C424.233 339.111 423.666 338.598 423.666 337.573ZM426.927 352H423.799V340.536H426.927V352ZM432.71 346.248C432.71 347.382 432.895 348.24 433.264 348.821C433.64 349.402 434.248 349.693 435.089 349.693C435.923 349.693 436.521 349.406 436.883 348.832C437.252 348.25 437.437 347.389 437.437 346.248C437.437 345.113 437.252 344.262 436.883 343.694C436.514 343.127 435.909 342.843 435.068 342.843C434.234 342.843 433.633 343.127 433.264 343.694C432.895 344.255 432.71 345.106 432.71 346.248ZM440.636 346.248C440.636 348.114 440.144 349.573 439.16 350.626C438.175 351.679 436.805 352.205 435.048 352.205C433.947 352.205 432.977 351.966 432.136 351.487C431.295 351.002 430.649 350.308 430.198 349.406C429.747 348.503 429.521 347.451 429.521 346.248C429.521 344.375 430.01 342.918 430.987 341.879C431.965 340.84 433.339 340.321 435.109 340.321C436.21 340.321 437.181 340.56 438.021 341.039C438.862 341.517 439.508 342.204 439.959 343.1C440.411 343.995 440.636 345.044 440.636 346.248ZM453.802 352H450.675V345.304C450.675 344.477 450.528 343.858 450.234 343.448C449.94 343.031 449.472 342.823 448.829 342.823C447.954 342.823 447.322 343.117 446.932 343.705C446.542 344.286 446.348 345.253 446.348 346.606V352H443.22V340.536H445.609L446.03 342.002H446.204C446.553 341.449 447.031 341.032 447.64 340.751C448.255 340.464 448.952 340.321 449.731 340.321C451.064 340.321 452.076 340.683 452.767 341.408C453.457 342.125 453.802 343.165 453.802 344.525V352ZM465.02 348.596C465.02 349.771 464.61 350.667 463.79 351.282C462.976 351.897 461.756 352.205 460.129 352.205C459.295 352.205 458.584 352.147 457.996 352.031C457.408 351.921 456.858 351.757 456.345 351.539V348.955C456.926 349.228 457.579 349.457 458.304 349.642C459.035 349.826 459.678 349.918 460.231 349.918C461.366 349.918 461.934 349.59 461.934 348.934C461.934 348.688 461.858 348.49 461.708 348.339C461.558 348.182 461.298 348.008 460.929 347.816C460.56 347.618 460.067 347.389 459.452 347.129C458.57 346.76 457.921 346.418 457.504 346.104C457.094 345.79 456.793 345.431 456.602 345.027C456.417 344.617 456.325 344.115 456.325 343.52C456.325 342.501 456.718 341.715 457.504 341.162C458.297 340.601 459.418 340.321 460.867 340.321C462.248 340.321 463.591 340.622 464.897 341.223L463.954 343.479C463.379 343.233 462.843 343.031 462.344 342.874C461.845 342.717 461.335 342.638 460.816 342.638C459.893 342.638 459.432 342.888 459.432 343.387C459.432 343.667 459.579 343.91 459.873 344.115C460.173 344.32 460.826 344.624 461.831 345.027C462.727 345.39 463.383 345.728 463.8 346.042C464.217 346.357 464.524 346.719 464.723 347.129C464.921 347.54 465.02 348.028 465.02 348.596ZM480.196 352L479.591 350.441H479.509C478.982 351.104 478.439 351.566 477.878 351.826C477.325 352.079 476.6 352.205 475.705 352.205C474.604 352.205 473.736 351.891 473.1 351.262C472.471 350.633 472.157 349.737 472.157 348.575C472.157 347.358 472.581 346.463 473.428 345.889C474.283 345.308 475.568 344.986 477.284 344.925L479.273 344.863V344.361C479.273 343.199 478.678 342.618 477.489 342.618C476.573 342.618 475.496 342.895 474.259 343.448L473.223 341.336C474.542 340.646 476.005 340.3 477.612 340.3C479.15 340.3 480.329 340.635 481.149 341.305C481.97 341.975 482.38 342.994 482.38 344.361V352H480.196ZM479.273 346.688L478.063 346.729C477.154 346.757 476.477 346.921 476.033 347.222C475.588 347.522 475.366 347.98 475.366 348.596C475.366 349.478 475.872 349.918 476.884 349.918C477.608 349.918 478.186 349.71 478.617 349.293C479.054 348.876 479.273 348.322 479.273 347.632V346.688ZM496.192 352H493.064V345.304C493.064 344.477 492.917 343.858 492.624 343.448C492.33 343.031 491.861 342.823 491.219 342.823C490.344 342.823 489.711 343.117 489.322 343.705C488.932 344.286 488.737 345.253 488.737 346.606V352H485.61V340.536H487.999L488.419 342.002H488.594C488.942 341.449 489.421 341.032 490.029 340.751C490.645 340.464 491.342 340.321 492.121 340.321C493.454 340.321 494.466 340.683 495.156 341.408C495.847 342.125 496.192 343.165 496.192 344.525V352ZM503.042 352.205C501.695 352.205 500.635 351.682 499.863 350.636C499.097 349.59 498.714 348.141 498.714 346.289C498.714 344.409 499.104 342.946 499.883 341.9C500.669 340.847 501.75 340.321 503.124 340.321C504.566 340.321 505.667 340.881 506.425 342.002H506.528C506.371 341.148 506.292 340.386 506.292 339.716V336.045H509.43V352H507.03L506.425 350.513H506.292C505.581 351.641 504.498 352.205 503.042 352.205ZM504.139 349.713C504.938 349.713 505.523 349.481 505.892 349.016C506.268 348.551 506.473 347.762 506.507 346.647V346.309C506.507 345.079 506.316 344.197 505.933 343.664C505.557 343.13 504.942 342.864 504.087 342.864C503.39 342.864 502.847 343.161 502.457 343.756C502.074 344.344 501.883 345.202 501.883 346.33C501.883 347.458 502.078 348.305 502.467 348.873C502.857 349.433 503.414 349.713 504.139 349.713ZM527.251 347.837C527.251 349.19 526.762 350.257 525.785 351.036C524.814 351.815 523.46 352.205 521.724 352.205C520.125 352.205 518.709 351.904 517.479 351.303V348.35C518.491 348.801 519.345 349.119 520.042 349.303C520.747 349.488 521.389 349.58 521.97 349.58C522.667 349.58 523.201 349.447 523.57 349.18C523.946 348.914 524.134 348.517 524.134 347.991C524.134 347.697 524.052 347.437 523.888 347.211C523.724 346.979 523.481 346.757 523.16 346.545C522.845 346.333 522.199 345.995 521.222 345.53C520.306 345.099 519.619 344.686 519.161 344.289C518.703 343.893 518.337 343.431 518.063 342.905C517.79 342.378 517.653 341.763 517.653 341.059C517.653 339.733 518.101 338.69 518.997 337.932C519.899 337.173 521.143 336.793 522.729 336.793C523.508 336.793 524.25 336.886 524.954 337.07C525.665 337.255 526.407 337.515 527.179 337.85L526.154 340.321C525.354 339.993 524.691 339.764 524.165 339.634C523.645 339.504 523.132 339.439 522.626 339.439C522.025 339.439 521.563 339.579 521.242 339.859C520.921 340.14 520.76 340.505 520.76 340.957C520.76 341.237 520.825 341.483 520.955 341.695C521.085 341.9 521.29 342.102 521.57 342.3C521.857 342.491 522.531 342.84 523.59 343.346C524.992 344.016 525.952 344.689 526.472 345.366C526.991 346.036 527.251 346.859 527.251 347.837ZM534.47 342.546C533.807 342.546 533.287 342.758 532.911 343.182C532.535 343.599 532.32 344.193 532.265 344.966H536.654C536.64 344.193 536.438 343.599 536.049 343.182C535.659 342.758 535.133 342.546 534.47 342.546ZM534.911 352.205C533.065 352.205 531.623 351.696 530.583 350.677C529.544 349.659 529.025 348.216 529.025 346.35C529.025 344.429 529.503 342.946 530.46 341.9C531.424 340.847 532.754 340.321 534.449 340.321C536.069 340.321 537.331 340.782 538.233 341.705C539.135 342.628 539.586 343.903 539.586 345.53V347.047H532.193C532.228 347.936 532.491 348.63 532.983 349.129C533.475 349.628 534.166 349.877 535.054 349.877C535.745 349.877 536.397 349.806 537.013 349.662C537.628 349.519 538.271 349.29 538.94 348.975V351.395C538.394 351.668 537.809 351.87 537.187 352C536.565 352.137 535.806 352.205 534.911 352.205ZM546.959 349.713C547.506 349.713 548.162 349.594 548.928 349.354V351.682C548.148 352.031 547.191 352.205 546.057 352.205C544.806 352.205 543.893 351.891 543.319 351.262C542.751 350.626 542.468 349.676 542.468 348.411V342.884H540.971V341.562L542.693 340.516L543.596 338.096H545.595V340.536H548.805V342.884H545.595V348.411C545.595 348.855 545.718 349.184 545.964 349.396C546.217 349.607 546.549 349.713 546.959 349.713ZM564.832 352L564.411 350.534H564.247C563.912 351.067 563.437 351.48 562.822 351.774C562.207 352.062 561.506 352.205 560.72 352.205C559.373 352.205 558.358 351.846 557.674 351.128C556.991 350.404 556.649 349.365 556.649 348.011V340.536H559.776V347.232C559.776 348.059 559.923 348.681 560.217 349.098C560.511 349.508 560.979 349.713 561.622 349.713C562.497 349.713 563.129 349.423 563.519 348.842C563.909 348.254 564.104 347.283 564.104 345.93V340.536H567.231V352H564.832ZM576.808 352.205C575.461 352.205 574.405 351.716 573.64 350.739H573.476C573.585 351.696 573.64 352.25 573.64 352.4V357.045H570.512V340.536H573.055L573.496 342.023H573.64C574.371 340.888 575.455 340.321 576.89 340.321C578.244 340.321 579.303 340.844 580.069 341.89C580.834 342.936 581.217 344.388 581.217 346.248C581.217 347.471 581.036 348.534 580.674 349.437C580.318 350.339 579.809 351.026 579.146 351.498C578.483 351.969 577.704 352.205 576.808 352.205ZM575.885 342.823C575.113 342.823 574.549 343.062 574.193 343.541C573.838 344.012 573.653 344.795 573.64 345.889V346.227C573.64 347.458 573.821 348.339 574.183 348.873C574.552 349.406 575.133 349.672 575.926 349.672C577.328 349.672 578.028 348.517 578.028 346.207C578.028 345.079 577.854 344.234 577.505 343.674C577.164 343.106 576.624 342.823 575.885 342.823ZM372.468 384H365.649V382.195L367.475 381.354V371.654L365.649 370.813V369.009H372.468V370.813L370.643 371.654V381.354L372.468 382.195V384ZM385.378 384H382.25V377.304C382.25 376.477 382.104 375.858 381.81 375.448C381.516 375.031 381.047 374.823 380.405 374.823C379.53 374.823 378.897 375.117 378.508 375.705C378.118 376.286 377.923 377.253 377.923 378.606V384H374.796V372.536H377.185L377.605 374.002H377.78C378.128 373.449 378.607 373.032 379.215 372.751C379.831 372.464 380.528 372.321 381.307 372.321C382.64 372.321 383.652 372.683 384.342 373.408C385.033 374.125 385.378 375.165 385.378 376.525V384ZM393.427 381.713C393.974 381.713 394.63 381.594 395.396 381.354V383.682C394.617 384.031 393.66 384.205 392.525 384.205C391.274 384.205 390.361 383.891 389.787 383.262C389.22 382.626 388.936 381.676 388.936 380.411V374.884H387.439V373.562L389.162 372.516L390.064 370.096H392.063V372.536H395.273V374.884H392.063V380.411C392.063 380.855 392.187 381.184 392.433 381.396C392.686 381.607 393.017 381.713 393.427 381.713ZM402.471 374.546C401.808 374.546 401.289 374.758 400.913 375.182C400.537 375.599 400.321 376.193 400.267 376.966H404.655C404.642 376.193 404.44 375.599 404.05 375.182C403.661 374.758 403.134 374.546 402.471 374.546ZM402.912 384.205C401.066 384.205 399.624 383.696 398.585 382.677C397.546 381.659 397.026 380.216 397.026 378.35C397.026 376.429 397.505 374.946 398.462 373.9C399.426 372.847 400.755 372.321 402.451 372.321C404.071 372.321 405.332 372.782 406.234 373.705C407.137 374.628 407.588 375.903 407.588 377.53V379.047H400.195C400.229 379.936 400.492 380.63 400.984 381.129C401.477 381.628 402.167 381.877 403.056 381.877C403.746 381.877 404.399 381.806 405.014 381.662C405.629 381.519 406.272 381.29 406.942 380.975V383.395C406.395 383.668 405.811 383.87 405.188 384C404.566 384.137 403.808 384.205 402.912 384.205ZM416.529 372.321C416.953 372.321 417.305 372.352 417.585 372.413L417.35 375.346C417.097 375.277 416.789 375.243 416.427 375.243C415.429 375.243 414.649 375.5 414.089 376.012C413.535 376.525 413.258 377.243 413.258 378.166V384H410.131V372.536H412.5L412.961 374.464H413.115C413.47 373.821 413.949 373.305 414.55 372.916C415.159 372.519 415.818 372.321 416.529 372.321ZM422.395 384L418.026 372.536H421.297L423.512 379.068C423.738 379.779 423.885 380.562 423.953 381.416H424.035C424.076 380.644 424.23 379.861 424.497 379.068L426.701 372.536H429.972L425.604 384H422.395ZM431.49 369.573C431.49 368.554 432.057 368.045 433.192 368.045C434.327 368.045 434.894 368.554 434.894 369.573C434.894 370.058 434.75 370.438 434.463 370.711C434.183 370.978 433.759 371.111 433.192 371.111C432.057 371.111 431.49 370.598 431.49 369.573ZM434.75 384H431.623V372.536H434.75V384ZM442.79 374.546C442.126 374.546 441.607 374.758 441.231 375.182C440.855 375.599 440.64 376.193 440.585 376.966H444.974C444.96 376.193 444.758 375.599 444.369 375.182C443.979 374.758 443.453 374.546 442.79 374.546ZM443.23 384.205C441.385 384.205 439.942 383.696 438.903 382.677C437.864 381.659 437.345 380.216 437.345 378.35C437.345 376.429 437.823 374.946 438.78 373.9C439.744 372.847 441.074 372.321 442.769 372.321C444.389 372.321 445.65 372.782 446.553 373.705C447.455 374.628 447.906 375.903 447.906 377.53V379.047H440.513C440.547 379.936 440.811 380.63 441.303 381.129C441.795 381.628 442.485 381.877 443.374 381.877C444.064 381.877 444.717 381.806 445.333 381.662C445.948 381.519 446.59 381.29 447.26 380.975V383.395C446.713 383.668 446.129 383.87 445.507 384C444.885 384.137 444.126 384.205 443.23 384.205ZM459.667 384L458.786 379.991L457.617 374.925H457.524L455.433 384H452.069L448.809 372.536H451.926L453.249 377.612C453.399 378.213 453.607 379.468 453.874 381.375H453.956C453.983 380.855 454.103 380.032 454.315 378.904L454.479 378.032L455.894 372.536H459.339L460.683 378.032C460.765 378.408 460.864 378.962 460.98 379.693C461.103 380.418 461.171 380.979 461.185 381.375H461.267C461.342 380.767 461.448 380.076 461.585 379.304C461.722 378.524 461.838 377.96 461.934 377.612L463.308 372.536H466.374L463.072 384H459.667ZM476.228 380.596C476.228 381.771 475.817 382.667 474.997 383.282C474.184 383.897 472.963 384.205 471.336 384.205C470.502 384.205 469.792 384.147 469.204 384.031C468.616 383.921 468.065 383.757 467.553 383.539V380.955C468.134 381.228 468.787 381.457 469.511 381.642C470.243 381.826 470.885 381.918 471.439 381.918C472.574 381.918 473.141 381.59 473.141 380.934C473.141 380.688 473.066 380.49 472.916 380.339C472.765 380.182 472.505 380.008 472.136 379.816C471.767 379.618 471.275 379.389 470.66 379.129C469.778 378.76 469.128 378.418 468.711 378.104C468.301 377.79 468 377.431 467.809 377.027C467.625 376.617 467.532 376.115 467.532 375.52C467.532 374.501 467.925 373.715 468.711 373.162C469.504 372.601 470.625 372.321 472.075 372.321C473.456 372.321 474.799 372.622 476.104 373.223L475.161 375.479C474.587 375.233 474.05 375.031 473.551 374.874C473.052 374.717 472.543 374.638 472.023 374.638C471.101 374.638 470.639 374.888 470.639 375.387C470.639 375.667 470.786 375.91 471.08 376.115C471.381 376.32 472.034 376.624 473.039 377.027C473.934 377.39 474.59 377.728 475.007 378.042C475.424 378.357 475.732 378.719 475.93 379.129C476.128 379.54 476.228 380.028 476.228 380.596Z" fill="white"/>
<path d="M54.7104 224H44.6514V221.795L48.1787 217.991C48.623 217.513 49.0264 217.072 49.3887 216.668C49.751 216.265 50.062 215.872 50.3218 215.489C50.5815 215.106 50.7832 214.717 50.9268 214.32C51.0703 213.924 51.1421 213.497 51.1421 213.039C51.1421 212.533 50.9883 212.14 50.6807 211.859C50.3799 211.579 49.9731 211.439 49.4604 211.439C48.9204 211.439 48.4009 211.572 47.9019 211.839C47.4028 212.105 46.8799 212.485 46.333 212.977L44.6104 210.937C44.918 210.656 45.2393 210.39 45.5742 210.137C45.9092 209.877 46.2783 209.648 46.6816 209.45C47.085 209.251 47.5293 209.094 48.0146 208.978C48.5 208.855 49.0435 208.793 49.645 208.793C50.3628 208.793 51.0054 208.893 51.5728 209.091C52.147 209.289 52.6357 209.573 53.0391 209.942C53.4424 210.304 53.75 210.745 53.9619 211.265C54.1807 211.784 54.29 212.369 54.29 213.018C54.29 213.606 54.1875 214.17 53.9824 214.71C53.7773 215.243 53.4971 215.77 53.1416 216.289C52.7861 216.802 52.3726 217.314 51.9009 217.827C51.436 218.333 50.937 218.849 50.4038 219.375L48.5991 221.19V221.334H54.7104V224ZM77.3203 224H73.7007L71.6704 216.125C71.5952 215.845 71.4653 215.267 71.2808 214.392C71.103 213.51 71.0005 212.919 70.9731 212.618C70.9321 212.987 70.8296 213.582 70.6655 214.402C70.5015 215.216 70.375 215.797 70.2861 216.146L68.2661 224H64.6567L60.832 209.009H63.9595L65.877 217.191C66.2119 218.702 66.4546 220.011 66.605 221.119C66.646 220.729 66.7383 220.127 66.8818 219.314C67.0322 218.494 67.1724 217.858 67.3022 217.407L69.4863 209.009H72.4907L74.6748 217.407C74.7705 217.783 74.8901 218.357 75.0337 219.129C75.1772 219.902 75.2866 220.565 75.3618 221.119C75.4302 220.585 75.5396 219.922 75.6899 219.129C75.8403 218.33 75.9771 217.684 76.1001 217.191L78.0073 209.009H81.1348L77.3203 224ZM91.6553 224H83.0215V209.009H91.6553V211.613H86.2002V214.905H91.2759V217.509H86.2002V221.375H91.6553V224ZM103.427 224H94.793V209.009H103.427V211.613H97.9717V214.905H103.047V217.509H97.9717V221.375H103.427V224ZM118.623 224H115.014L111.086 217.684L109.743 218.647V224H106.564V209.009H109.743V215.869L110.994 214.105L115.055 209.009H118.582L113.353 215.643L118.623 224ZM129.359 219.837C129.359 221.19 128.87 222.257 127.893 223.036C126.922 223.815 125.568 224.205 123.832 224.205C122.232 224.205 120.817 223.904 119.587 223.303V220.35C120.599 220.801 121.453 221.119 122.15 221.303C122.854 221.488 123.497 221.58 124.078 221.58C124.775 221.58 125.309 221.447 125.678 221.18C126.054 220.914 126.242 220.517 126.242 219.991C126.242 219.697 126.16 219.437 125.996 219.211C125.832 218.979 125.589 218.757 125.268 218.545C124.953 218.333 124.307 217.995 123.33 217.53C122.414 217.099 121.727 216.686 121.269 216.289C120.811 215.893 120.445 215.431 120.171 214.905C119.898 214.378 119.761 213.763 119.761 213.059C119.761 211.733 120.209 210.69 121.104 209.932C122.007 209.173 123.251 208.793 124.837 208.793C125.616 208.793 126.358 208.886 127.062 209.07C127.773 209.255 128.515 209.515 129.287 209.85L128.262 212.321C127.462 211.993 126.799 211.764 126.272 211.634C125.753 211.504 125.24 211.439 124.734 211.439C124.133 211.439 123.671 211.579 123.35 211.859C123.029 212.14 122.868 212.505 122.868 212.957C122.868 213.237 122.933 213.483 123.063 213.695C123.193 213.9 123.398 214.102 123.678 214.3C123.965 214.491 124.639 214.84 125.698 215.346C127.1 216.016 128.06 216.689 128.58 217.366C129.099 218.036 129.359 218.859 129.359 219.837Z" fill="white"/>
</svg>
